<?xml version="1.0" encoding="UTF-8"?>
<svg xmlns="http://www.w3.org/2000/svg" xmlns:xlink="http://www.w3.org/1999/xlink" version="1.2" >
<font id="abcAllegra Italic">
<font-face  font-family="abcAllegra" units-per-em="1000" ascent="739" descent="-261" font-style="italic" font-weight="400" font-stretch="normal" slope="-9" cap-height="660" x-height="446" underline-position="-75" underline-thickness="50" />
<missing-glyph  horiz-adv-x="727" d="M599 120 C658 179 688 251 688 335 C688 419 658 491 599 551 C539 610 467 640 383 640 C299 640 227 610 168 551 C108 491 78 419 78 335 C78 251 108 179 168 120 C227 60 299 30 383 30 C467 30 539 60 599 120 L599 120 Z M292 269 C292 302 296 326 305 339 C313 352 331 366 360 380 C405 403 418 411 418 428 C418 445 401 453 368 453 C353 453 327 451 292 446 L276 542 C318 549 354 553 383 553 C486 553 537 512 537 431 C537 372 513 349 465 326 C417 303 411 298 411 269 L292 269 L292 269 Z M350 108 C310 108 280 137 280 177 C280 217 310 247 350 247 C389 247 419 217 419 177 C419 137 389 108 350 108 L350 108 Z " />
<glyph glyph-name="space" unicode="&#x20;" horiz-adv-x="180" d="" />
<glyph glyph-name="exclam" unicode="&#x21;" horiz-adv-x="337" d="M126 183 L198 183 L268 627 L196 627 L126 183 Z M188 86 C170 106 134 107 110 85 C70 49 88 -9 133 -9 C183 -12 218 56 188 86 L188 86 Z " />
<glyph glyph-name="quotedbl" unicode="&#x22;" horiz-adv-x="301" d="M77 412 L136 412 L175 660 L116 660 L77 412 Z M216 412 L275 412 L314 660 L255 660 L216 412 Z " />
<glyph glyph-name="numbersign" unicode="&#x23;" horiz-adv-x="620" d="M620 453 L515 453 L589 660 L525 660 L452 453 L302 453 L376 660 L312 660 L239 453 L135 453 L115 397 L219 397 L168 254 L67 254 L49 199 L149 199 L78 0 L140 0 L211 199 L362 199 L291 0 L354 0 L425 199 L529 199 L547 254 L444 254 L495 397 L600 397 L620 453 Z M282 397 L432 397 L381 254 L231 254 L282 397 Z " />
<glyph glyph-name="dollar" unicode="&#x24;" horiz-adv-x="464" d="M426 527 C399 538 363 546 318 551 L327 608 L268 608 L259 554 C144 551 80 503 80 424 C80 390 92 364 115 340 C129 325 132 321 150 306 C159 298 165 293 169 290 C177 284 205 262 212 257 L179 54 C143 57 106 65 68 76 L51 18 C102 5 141 -4 170 -8 L160 -68 L218 -68 L227 -10 C293 -8 340 6 367 33 C394 60 408 91 408 126 C408 161 395 189 371 214 C358 226 355 230 338 243 C329 250 323 255 320 258 C312 264 284 284 276 291 L308 491 C345 488 379 480 410 469 L426 527 Z M147 429 C147 464 184 487 249 491 L224 331 C193 354 172 372 162 384 C152 396 147 411 147 429 L147 429 Z M343 117 C343 80 304 54 237 51 L264 217 C287 200 303 187 312 180 C328 165 343 144 343 117 L343 117 Z " />
<glyph glyph-name="percent" unicode="&#x25;" horiz-adv-x="860" d="M246 670 C147 670 81 584 81 455 C81 362 121 316 200 316 C250 316 290 337 321 380 C352 422 367 475 367 540 C367 627 327 670 246 670 L246 670 Z M691 660 L97 0 L172 0 L766 660 L691 660 Z M200 366 C157 366 135 393 135 448 C135 551 178 619 242 619 C289 619 309 595 309 535 C309 431 268 366 200 366 L200 366 Z M695 350 C596 350 530 264 530 135 C530 42 570 -4 649 -4 C699 -4 739 17 770 60 C801 102 816 155 816 220 C816 307 776 350 695 350 L695 350 Z M649 46 C606 46 584 73 584 128 C584 231 627 299 691 299 C738 299 758 275 758 215 C758 111 717 46 649 46 L649 46 Z " />
<glyph glyph-name="ampersand" unicode="&#x26;" horiz-adv-x="774" d="M477 402 C490 458 496 504 496 539 C496 622 447 668 356 668 C149 668 52 447 52 210 C52 127 68 69 101 36 C133 3 186 -13 259 -13 C355 -13 434 21 495 90 C556 159 590 243 599 342 L776 342 L787 402 L477 402 Z M345 608 C404 608 427 581 427 520 C427 492 420 453 407 402 L146 402 C178 523 242 608 345 608 L345 608 Z M264 47 C209 47 172 59 152 83 C131 106 121 150 121 214 C121 252 125 295 132 342 L533 342 C523 253 492 182 441 128 C390 74 331 47 264 47 L264 47 Z " />
<glyph glyph-name="quotesingle" unicode="&#x27;" horiz-adv-x="162" d="M77 412 L136 412 L175 660 L116 660 L77 412 Z " />
<glyph glyph-name="parenleft" unicode="&#x28;" horiz-adv-x="341" d="M383 735 L307 735 C254 673 205 585 162 471 C119 357 97 236 97 107 C97 43 102 -22 113 -88 C124 -154 136 -208 149 -251 L220 -251 C205 -212 192 -160 181 -95 C169 -30 163 37 163 104 C163 234 186 356 231 471 C276 586 327 674 383 735 L383 735 Z " />
<glyph glyph-name="parenright" unicode="&#x29;" horiz-adv-x="341" d="M-36 -251 L40 -251 C93 -189 142 -101 185 13 C228 127 250 248 250 377 C250 441 245 506 234 572 C223 638 211 692 198 735 L127 735 C142 696 155 644 167 579 C178 514 184 447 184 380 C184 250 161 128 116 13 C71 -102 20 -190 -36 -251 L-36 -251 Z " />
<glyph glyph-name="asterisk" unicode="&#x2a;" horiz-adv-x="404" d="M268 465 C279 466 291 469 303 472 L418 507 L409 556 L295 522 C282 518 270 514 259 509 C264 520 266 532 267 543 L283 660 L231 660 L216 545 C214 530 213 517 214 508 C204 515 194 520 184 523 L77 560 L55 511 L160 474 C172 470 183 467 193 465 C185 459 176 451 167 440 L86 345 L124 315 L204 407 C213 416 220 427 227 438 C230 427 235 417 240 408 L297 312 L342 343 L287 437 C284 444 277 453 268 465 L268 465 Z " />
<glyph glyph-name="plus" unicode="&#x2b;" horiz-adv-x="603" d="M340 273 L344 472 L280 472 L276 273 L67 273 L66 210 L275 210 L271 0 L336 0 L339 210 L548 210 L549 273 L340 273 Z " />
<glyph glyph-name="comma" unicode="&#x2c;" horiz-adv-x="248" d="M61 -6 L7 -113 L59 -113 L135 -15 C151 10 159 31 159 48 C159 83 136 107 97 107 C81 107 67 104 54 99 L61 -6 Z " />
<glyph glyph-name="hyphen" unicode="&#x2d;" horiz-adv-x="378" d="M68 199 L301 199 L312 260 L79 260 L68 199 Z " />
<glyph glyph-name="period" unicode="&#x2e;" horiz-adv-x="230" d="M132 86 C114 106 78 107 54 85 C14 49 32 -9 77 -9 C127 -12 162 56 132 86 L132 86 Z " />
<glyph glyph-name="slash" unicode="&#x2f;" horiz-adv-x="356" d="M-75 -251 L-4 -251 L465 735 L392 735 L-75 -251 Z " />
<glyph glyph-name="zero" unicode="0" horiz-adv-x="530" d="M283 459 C212 459 154 436 111 389 C67 342 45 280 45 203 C45 70 121 -9 249 -9 C397 -9 485 85 485 242 C485 378 410 459 283 459 L283 459 Z M249 52 C158 52 116 100 116 201 C116 332 171 397 280 397 C373 397 415 348 415 240 C415 115 360 52 249 52 L249 52 Z " />
<glyph glyph-name="one" unicode="1" horiz-adv-x="308" d="M36 415 L46 356 L175 380 L114 0 L185 0 L256 446 L199 446 L36 415 Z " />
<glyph glyph-name="two" unicode="2" horiz-adv-x="405" d="M262 187 C330 250 352 284 352 335 C351 451 231 495 65 427 L83 370 C132 389 172 398 205 398 C257 398 283 375 283 330 C283 297 268 275 213 224 L26 48 L18 0 L325 0 L334 60 L125 60 L262 187 L262 187 Z " />
<glyph glyph-name="three" unicode="3" horiz-adv-x="399" d="M228 129 C307 149 355 208 355 295 C355 398 290 459 181 459 C139 459 95 451 49 436 L65 377 C100 390 136 397 172 397 C247 397 285 359 285 284 C285 205 238 168 142 164 C126 163 106 163 82 163 L70 100 L133 97 C205 94 256 54 256 -13 C256 -93 205 -155 106 -155 C70 -155 30 -148 -13 -135 L-30 -197 C19 -212 67 -220 112 -220 C177 -220 230 -202 270 -165 C310 -128 330 -81 330 -23 C330 52 296 103 228 129 L228 129 Z " />
<glyph glyph-name="four" unicode="4" horiz-adv-x="506" d="M368 61 L428 446 L362 446 L-4 51 L-12 0 L291 0 L257 -211 L326 -211 L359 0 L456 0 L467 61 L368 61 Z M84 61 L345 340 L301 61 L84 61 Z " />
<glyph glyph-name="five" unicode="5" horiz-adv-x="445" d="M402 446 L101 446 L47 98 L112 98 C233 98 283 66 283 -13 C283 -102 220 -156 113 -156 C73 -156 37 -150 4 -139 L-10 -202 C29 -215 71 -221 116 -221 C189 -221 248 -200 293 -159 C338 -118 360 -65 360 -1 C360 116 276 158 127 162 L161 381 L393 381 L402 446 Z " />
<glyph glyph-name="six" unicode="6" horiz-adv-x="502" d="M406 608 C427 608 452 606 482 601 L491 662 C460 667 429 670 398 670 C304 670 223 631 156 553 C88 474 54 373 54 248 C54 75 128 -7 249 -7 C370 -7 452 75 452 204 C452 321 384 394 271 394 C228 394 183 385 135 366 C168 510 265 608 406 608 L406 608 Z M254 335 C343 335 386 284 386 205 C386 114 334 56 254 56 C166 56 122 121 122 251 C122 271 123 290 125 308 C168 326 211 335 254 335 L254 335 Z " />
<glyph glyph-name="seven" unicode="7" horiz-adv-x="413" d="M36 383 L325 383 L-55 -211 L25 -211 L420 408 L426 446 L47 446 L36 383 Z " />
<glyph glyph-name="eight" unicode="8" horiz-adv-x="514" d="M321 339 C380 372 421 402 444 429 C466 456 477 487 477 524 C477 611 414 673 301 673 C184 673 105 606 105 505 C105 470 112 443 127 423 C142 402 169 376 209 345 C141 307 95 274 72 247 C49 220 37 185 37 143 C37 47 110 -9 233 -9 C304 -9 358 8 396 43 C433 77 452 118 452 166 C452 198 440 228 430 245 C425 254 414 265 399 278 C384 291 373 301 366 306 C359 311 344 322 321 339 L321 339 Z M298 614 C367 614 411 574 411 525 C411 496 401 471 381 450 C360 429 323 404 269 375 C196 427 172 464 172 509 C172 572 222 614 298 614 L298 614 Z M235 52 C154 52 105 91 105 156 C105 183 116 208 138 229 C160 250 201 277 261 308 C309 271 341 244 358 226 C375 208 383 187 383 164 C383 104 334 52 235 52 L235 52 Z " />
<glyph glyph-name="nine" unicode="9" horiz-adv-x="499" d="M251 459 C190 459 140 440 103 402 C66 364 47 314 47 252 C47 131 114 58 227 58 C273 58 318 67 363 85 C328 -63 231 -156 104 -156 C77 -156 48 -154 17 -149 L8 -210 C40 -215 72 -218 104 -218 C196 -218 276 -179 344 -101 C411 -22 445 79 445 204 C445 377 371 459 251 459 L251 459 Z M246 117 C157 117 113 162 113 252 C113 290 124 324 147 353 C169 382 202 396 245 396 C329 396 377 330 377 211 C377 185 376 162 373 143 C330 126 287 117 246 117 L246 117 Z " />
<glyph glyph-name="colon" unicode="&#x3a;" horiz-adv-x="271" d="M210 443 C184 477 113 450 110 402 C106 373 126 348 155 348 C205 345 240 413 210 443 L210 443 Z M152 86 C134 106 98 107 74 85 C34 49 52 -9 97 -9 C147 -12 182 56 152 86 L152 86 Z " />
<glyph glyph-name="semicolon" unicode="&#x3b;" horiz-adv-x="288" d="M217 442 C199 462 163 463 139 441 C99 405 117 347 162 347 C212 344 247 412 217 442 L217 442 Z M81 -6 L27 -113 L79 -113 L155 -15 C171 10 179 31 179 48 C179 83 156 107 117 107 C101 107 87 104 74 99 L81 -6 Z " />
<glyph glyph-name="less" unicode="&#x3c;" horiz-adv-x="607" d="M70 249 L69 199 L537 -14 L538 59 L166 223 L545 387 L546 459 L70 249 Z " />
<glyph glyph-name="equal" unicode="&#x3d;" horiz-adv-x="555" d="M50 348 L50 286 L512 286 L513 348 L50 348 Z M47 131 L509 131 L510 193 L48 193 L47 131 Z " />
<glyph glyph-name="greater" unicode="&#x3e;" horiz-adv-x="617" d="M83 387 L452 221 L76 59 L75 -14 L551 196 L552 246 L84 459 L83 387 Z " />
<glyph glyph-name="question" unicode="&#x3f;" horiz-adv-x="436" d="M163 566 C192 571 215 574 234 574 C305 574 340 549 340 498 C340 463 314 424 262 383 C250 373 235 361 217 348 C199 335 188 326 183 322 L164 303 C141 278 145 268 133 221 L127 183 L199 183 L205 221 C208 245 212 259 219 268 C221 271 236 286 244 291 C252 296 280 318 299 331 C374 387 412 444 412 503 C412 590 352 636 256 636 C223 636 189 633 156 627 L163 566 Z M189 86 C171 106 135 107 111 85 C71 49 89 -9 134 -9 C184 -12 219 56 189 86 L189 86 Z " />
<glyph glyph-name="at" unicode="&#x40;" horiz-adv-x="711" d="M407 554 C310 554 223 516 171 464 C89 383 52 275 52 204 C52 125 78 60 129 8 C180 -44 245 -70 325 -70 C376 -70 426 -59 473 -37 L455 8 C417 -11 375 -20 329 -20 C262 -20 208 1 167 44 C125 86 104 139 104 204 C103 297 184 505 405 505 C466 505 517 487 557 452 C596 416 616 369 616 312 C616 269 605 228 582 190 C559 151 528 132 491 132 C467 132 455 144 455 168 C455 179 457 191 461 205 L510 398 C487 405 457 408 421 408 C344 408 280 370 249 319 C217 268 201 218 201 177 C201 112 232 79 293 79 C334 79 372 95 407 127 C412 104 441 81 476 81 C539 81 587 104 621 151 C654 197 671 251 671 312 C671 387 645 446 594 489 C542 532 480 554 407 554 L407 554 Z M410 222 C404 201 401 185 400 173 C369 143 340 128 314 128 C277 128 261 145 261 182 C261 213 269 248 289 289 C308 329 352 359 411 359 C418 359 430 358 446 357 L410 222 Z " />
<glyph glyph-name="A" unicode="A" horiz-adv-x="575" d="M530 0 L417 660 L329 660 L-24 0 L57 0 L150 179 L426 179 L454 0 L530 0 Z M363 587 L416 244 L184 244 L363 587 Z " />
<glyph glyph-name="B" unicode="B" horiz-adv-x="523" d="M336 330 C423 346 473 414 473 511 C473 618 418 660 279 660 C248 660 208 659 160 658 L56 2 C121 -3 172 -6 208 -6 C375 -6 459 61 459 195 C459 276 424 314 336 330 L336 330 Z M283 599 C367 599 401 574 401 510 C401 419 353 366 272 366 L183 366 L220 598 C235 599 256 599 283 599 L283 599 Z M229 55 C204 55 172 56 135 59 L173 302 L230 302 C335 302 383 267 383 188 C383 99 332 55 229 55 L229 55 Z " />
<glyph glyph-name="C" unicode="C" horiz-adv-x="557" d="M445 672 C151 672 59 460 59 275 C59 184 84 115 121 73 C182 8 271 -12 369 -11 C415 -11 461 -6 508 4 L498 70 C460 62 420 58 377 58 C290 58 226 79 192 106 C175 119 161 136 151 157 C131 197 129 226 129 269 C129 446 213 605 437 605 C476 605 527 599 592 587 L605 652 C547 665 494 672 445 672 L445 672 Z " />
<glyph glyph-name="D" unicode="D" horiz-adv-x="671" d="M337 661 C309 661 276 661 239 660 C202 659 175 658 160 658 L56 0 C131 -4 201 -6 268 -6 C511 -6 646 138 646 398 C646 567 536 661 337 661 L337 661 Z M318 596 C488 596 573 528 573 392 C573 179 463 60 267 60 C233 60 190 61 138 62 L221 595 C244 596 276 596 318 596 L318 596 Z " />
<glyph glyph-name="E" unicode="E" horiz-adv-x="482" d="M479 660 L160 660 L57 0 L397 0 L406 67 L139 67 L176 299 L413 299 L423 366 L187 366 L223 594 L469 594 L479 660 Z " />
<glyph glyph-name="F" unicode="F" horiz-adv-x="455" d="M474 660 L160 660 L57 0 L129 0 L174 287 L398 287 L409 354 L185 354 L223 593 L463 593 L474 660 Z " />
<glyph glyph-name="G" unicode="G" horiz-adv-x="660" d="M433 679 C314 679 223 642 158 569 C93 496 60 398 60 275 C60 156 93 73 150 33 C206 -8 263 -22 342 -22 C409 -22 478 -14 549 2 L598 320 L528 320 L486 59 C446 49 403 44 357 44 C271 44 212 63 180 101 C148 139 132 196 132 273 C132 494 239 613 430 613 C481 613 542 604 611 585 L629 648 C565 669 500 679 433 679 L433 679 Z " />
<glyph glyph-name="H" unicode="H" horiz-adv-x="709" d="M568 365 L186 365 L232 660 L160 660 L56 0 L128 0 L175 297 L557 297 L510 0 L583 0 L687 660 L615 660 L568 365 Z " />
<glyph glyph-name="I" unicode="I" horiz-adv-x="253" d="M160 660 L56 0 L126 0 L231 660 L160 660 Z " />
<glyph glyph-name="J" unicode="J" horiz-adv-x="256" d="M164 660 L52 -36 C41 -109 13 -155 -55 -215 L-7 -266 C35 -229 65 -194 84 -163 C102 -131 115 -90 123 -41 L234 660 L164 660 Z " />
<glyph glyph-name="K" unicode="K" horiz-adv-x="538" d="M56 0 L127 0 L231 660 L160 660 L56 0 Z M467 660 L193 336 L403 0 L493 0 L277 338 L554 660 L467 660 Z " />
<glyph glyph-name="L" unicode="L" horiz-adv-x="444" d="M160 660 L56 0 L399 0 L409 68 L138 68 L232 660 L160 660 Z " />
<glyph glyph-name="M" unicode="M" horiz-adv-x="841" d="M428 127 L403 75 L390 145 L284 660 L181 660 L46 0 L117 0 L218 514 C223 543 227 565 228 581 L342 17 L447 17 L732 583 C731 576 728 556 723 525 L662 0 L730 0 L806 660 L699 660 L428 127 Z " />
<glyph glyph-name="N" unicode="N" horiz-adv-x="716" d="M542 137 C539 118 536 98 534 77 C525 100 518 115 515 122 L255 660 L158 660 L53 0 L124 0 L205 514 C208 529 210 550 213 577 L492 0 L593 0 L696 660 L625 660 L542 137 Z " />
<glyph glyph-name="O" unicode="O" horiz-adv-x="721" d="M424 675 C310 675 221 637 156 562 C91 486 59 390 59 274 C59 77 159 -17 336 -17 C445 -17 532 19 597 90 C662 161 694 256 694 376 C694 577 607 675 424 675 L424 675 Z M422 611 C555 611 621 533 621 378 C621 279 596 199 547 138 C497 77 427 47 337 47 C200 47 132 124 132 277 C132 374 158 454 210 517 C261 580 332 611 422 611 L422 611 Z " />
<glyph glyph-name="P" unicode="P" horiz-adv-x="516" d="M300 660 C242 660 195 659 160 658 L57 0 L130 0 L170 254 C203 251 231 250 255 250 C431 250 519 329 519 488 C518 583 488 660 300 660 L300 660 Z M280 316 C241 316 207 317 180 320 L223 592 C234 593 252 594 276 594 C343 594 388 586 411 570 C434 554 445 525 445 483 C445 375 385 316 280 316 L280 316 Z " />
<glyph glyph-name="Q" unicode="Q" horiz-adv-x="712" d="M694 376 C694 575 604 675 424 675 C310 675 221 637 156 562 C91 486 59 390 59 274 C59 91 142 -5 307 -16 L623 -146 L650 -83 C566 -48 497 -22 442 -4 C603 37 694 177 694 376 L694 376 Z M133 277 C133 374 159 454 210 517 C261 580 332 611 422 611 C555 611 622 533 622 378 C622 279 597 199 547 138 C497 77 427 47 337 47 C201 47 133 124 133 277 L133 277 Z " />
<glyph glyph-name="R" unicode="R" horiz-adv-x="558" d="M362 278 C457 314 505 384 505 488 C505 603 443 661 318 661 C256 661 203 660 160 658 L57 0 L129 0 L170 261 C192 259 215 258 239 258 C257 258 275 259 292 261 L428 0 L513 0 L362 278 Z M222 594 C253 595 276 596 293 596 C392 596 432 563 432 480 C432 377 369 322 249 322 C234 322 211 323 180 324 L222 594 Z " />
<glyph glyph-name="S" unicode="S" horiz-adv-x="480" d="M288 672 C176 672 101 603 101 500 C101 460 109 431 138 396 C152 378 164 364 175 354 C185 344 203 327 228 304 C275 261 306 232 321 215 C335 198 342 181 342 165 C342 130 323 55 216 55 C172 55 120 64 61 81 L45 15 C106 -3 163 -12 217 -12 C381 -12 415 107 415 168 C418 195 404 226 391 246 C384 257 357 284 347 294 C342 299 331 308 316 323 C300 338 288 348 281 355 C234 399 205 429 192 446 C179 463 173 481 173 500 C173 567 215 607 287 607 C326 607 373 599 428 584 L443 647 C382 664 331 672 288 672 L288 672 Z " />
<glyph glyph-name="T" unicode="T" horiz-adv-x="543" d="M81 660 L70 594 L296 594 L202 0 L274 0 L369 594 L592 594 L602 660 L81 660 Z " />
<glyph glyph-name="U" unicode="U" horiz-adv-x="694" d="M600 660 L525 189 C508 88 452 55 329 55 C186 55 143 96 159 191 L232 660 L160 660 L85 187 C65 48 137 -9 316 -12 C409 -13 476 1 518 32 C560 62 586 113 597 184 L672 660 L600 660 Z " />
<glyph glyph-name="V" unicode="V" horiz-adv-x="579" d="M273 111 C260 86 253 71 251 66 L245 111 L161 660 L81 660 L192 0 L291 0 L639 660 L558 660 L273 111 Z " />
<glyph glyph-name="W" unicode="W" horiz-adv-x="862" d="M616 68 L556 660 L450 660 L198 81 L169 660 L96 660 L132 0 L236 0 L493 591 L553 0 L661 0 L907 660 L832 660 L616 68 Z " />
<glyph glyph-name="X" unicode="X" horiz-adv-x="553" d="M526 660 L312 399 L187 660 L104 660 L261 337 L-22 0 L67 0 L292 271 L424 0 L508 0 L344 335 L610 660 L526 660 Z " />
<glyph glyph-name="Y" unicode="Y" horiz-adv-x="555" d="M339 403 C318 374 305 354 300 345 C297 353 289 373 276 404 L162 660 L80 660 L251 283 L206 0 L279 0 L325 282 L615 660 L530 660 L339 403 Z " />
<glyph glyph-name="Z" unicode="Z" horiz-adv-x="532" d="M103 660 L93 594 L465 594 L-7 47 L-14 0 L476 0 L486 67 L99 67 L572 616 L578 660 L103 660 Z " />
<glyph glyph-name="bracketleft" unicode="&#x5b;" horiz-adv-x="294" d="M335 735 L158 735 L2 -251 L179 -251 L187 -195 L78 -195 L216 680 L326 680 L335 735 Z " />
<glyph glyph-name="backslash" unicode="&#x5c;" horiz-adv-x="344" d="M202 -251 L271 -251 L154 735 L82 735 L202 -251 Z " />
<glyph glyph-name="bracketright" unicode="&#x5d;" horiz-adv-x="294" d="M113 679 L222 679 L84 -196 L-26 -196 L-35 -251 L142 -251 L298 735 L121 735 L113 679 Z " />
<glyph glyph-name="asciicircum" unicode="&#x5e;" horiz-adv-x="498" d="M253 472 L197 472 L-17 0 L56 0 L221 379 L370 0 L445 0 L253 472 Z " />
<glyph glyph-name="underscore" unicode="&#x5f;" horiz-adv-x="564" d="M18 -117 L438 -117 L448 -56 L28 -56 L18 -117 Z " />
<glyph glyph-name="grave" unicode="&#x60;" horiz-adv-x="220" d="M171 521 L237 521 L171 660 L99 660 L171 521 Z " />
<glyph glyph-name="a" unicode="a" horiz-adv-x="503" d="M325 457 C243 457 177 428 127 371 C76 314 51 241 51 154 C51 44 97 -11 189 -11 C250 -11 290 13 334 65 L322 0 L389 0 L460 441 C414 452 369 457 325 457 L325 457 Z M198 50 C143 50 119 83 119 158 C119 227 137 284 174 330 C211 375 259 398 319 398 C341 398 362 396 383 391 L341 139 C295 80 247 50 198 50 L198 50 Z " />
<glyph glyph-name="b" unicode="b" horiz-adv-x="506" d="M306 457 C255 457 213 440 180 405 L233 735 L164 735 L52 13 C112 -3 163 -11 204 -11 C281 -11 343 18 389 76 C435 133 458 202 458 282 C458 409 394 457 306 457 L306 457 Z M208 51 C185 51 157 55 126 62 L170 341 C204 378 244 396 289 396 C358 396 387 357 387 278 C387 215 371 161 338 117 C305 73 262 51 208 51 L208 51 Z " />
<glyph glyph-name="c" unicode="c" horiz-adv-x="408" d="M417 436 C380 449 339 456 293 456 C216 456 157 429 116 374 C74 319 53 250 53 168 C53 45 106 -11 219 -11 C266 -11 311 -5 354 7 L344 66 C301 55 264 50 232 50 C157 50 121 83 121 167 C121 212 130 258 153 310 C176 361 225 396 292 396 C327 396 363 390 401 378 L417 436 Z " />
<glyph glyph-name="d" unicode="d" horiz-adv-x="507" d="M397 448 C366 454 338 457 311 457 C231 457 168 428 121 369 C74 310 51 239 51 157 C51 44 101 -13 185 -13 C238 -13 289 13 338 64 L327 0 L394 0 L510 735 L442 735 L397 448 Z M200 49 C147 49 120 88 120 166 C120 233 138 289 173 332 C208 375 256 396 317 396 C338 396 361 393 388 386 L348 138 C301 79 251 49 200 49 L200 49 Z " />
<glyph glyph-name="e" unicode="e" horiz-adv-x="473" d="M420 229 C425 252 428 282 428 318 C428 403 381 457 285 457 C215 457 159 430 117 376 C75 321 54 253 54 171 C54 46 107 -11 227 -11 C284 -11 335 -2 382 15 L368 70 C317 56 272 49 231 49 C152 49 122 80 122 175 C122 196 123 214 126 229 L420 229 L420 229 Z M282 398 C338 398 358 371 359 316 C359 306 358 296 355 285 L139 285 C164 356 214 398 282 398 L282 398 Z " />
<glyph glyph-name="f" unicode="f" horiz-adv-x="321" d="M333 682 C362 682 391 675 420 660 L444 715 C403 734 364 744 327 744 C236 744 173 690 157 587 L135 446 L60 446 L50 386 L125 386 L63 0 L129 0 L190 386 L340 386 L350 446 L200 446 L221 583 C232 649 269 682 333 682 L333 682 Z " />
<glyph glyph-name="g" unicode="g" horiz-adv-x="501" d="M312 454 C220 454 147 410 108 347 C69 283 50 215 50 148 C50 33 109 -11 189 -11 C247 -11 294 12 331 58 L308 -87 C295 -159 242 -201 163 -201 C117 -201 70 -195 22 -183 L5 -243 C56 -255 110 -261 167 -261 C279 -261 356 -198 373 -94 L457 438 C404 449 356 454 312 454 L312 454 Z M344 138 C297 77 249 46 200 46 C146 46 119 82 119 154 C119 201 130 251 157 305 C184 359 240 396 313 396 C339 396 363 394 384 390 L344 138 Z " />
<glyph glyph-name="h" unicode="h" horiz-adv-x="525" d="M351 457 C284 457 226 432 177 383 L232 735 L164 735 L48 0 L117 0 L168 328 C220 375 273 399 327 399 C380 399 401 374 392 314 L343 0 L412 0 L465 338 C476 411 434 457 351 457 L351 457 Z " />
<glyph glyph-name="i" unicode="i" horiz-adv-x="239" d="M226 592 C230 619 211 641 184 641 C156 641 133 620 129 592 C125 565 142 544 170 544 C198 544 222 564 226 592 L226 592 Z M118 446 L49 0 L121 0 L191 446 L118 446 Z " />
<glyph glyph-name="j" unicode="j" horiz-adv-x="253" d="M239 592 C243 619 224 641 197 641 C169 641 146 620 142 592 C138 565 155 544 183 544 C211 544 235 564 239 592 L239 592 Z M131 446 L55 -32 C48 -97 12 -157 -53 -212 L-5 -263 C38 -225 68 -191 85 -161 C102 -131 116 -90 125 -38 L202 446 L131 446 Z " />
<glyph glyph-name="k" unicode="k" horiz-adv-x="463" d="M48 0 L117 0 L233 735 L164 735 L48 0 Z M366 446 L171 267 L333 0 L415 0 L251 260 L459 446 L366 446 Z " />
<glyph glyph-name="l" unicode="l" horiz-adv-x="231" d="M164 735 L48 0 L118 0 L234 735 L164 735 Z " />
<glyph glyph-name="m" unicode="m" horiz-adv-x="788" d="M599 457 C538 457 486 436 445 393 C430 433 384 457 323 457 C268 457 219 437 178 398 L186 446 L118 446 L48 0 L116 0 L169 336 L169 339 C212 379 258 399 306 399 C362 399 385 371 377 334 L326 0 L395 0 L448 338 C448 339 448 340 449 341 C491 380 537 399 586 399 C639 399 665 378 657 334 L606 0 L675 0 L728 338 C740 410 690 457 599 457 L599 457 Z " />
<glyph glyph-name="n" unicode="n" horiz-adv-x="525" d="M347 457 C283 457 226 432 176 383 L186 446 L118 446 L48 0 L116 0 L166 326 C219 375 272 399 323 399 C379 399 403 374 394 324 L343 0 L412 0 L465 338 C477 409 434 457 347 457 L347 457 Z " />
<glyph glyph-name="o" unicode="o" horiz-adv-x="529" d="M301 457 C248 457 202 443 163 415 C86 358 54 272 54 177 C54 56 115 -11 230 -11 C305 -11 366 15 411 67 C456 118 478 184 478 264 C478 389 416 457 301 457 L301 457 Z M237 49 C162 49 124 93 124 181 C124 241 140 292 171 334 C202 376 244 397 298 397 C371 397 408 351 408 260 C408 136 344 49 237 49 L237 49 Z " />
<glyph glyph-name="p" unicode="p" horiz-adv-x="510" d="M321 455 C260 455 211 432 175 386 L183 446 L118 446 L8 -251 L77 -251 L118 13 C152 -4 186 -13 221 -13 C294 -13 352 17 396 76 C440 135 462 205 462 286 C462 399 415 455 321 455 L321 455 Z M216 49 C189 49 159 56 127 71 L166 323 C203 370 249 394 302 394 C361 394 391 358 391 285 C391 224 375 169 343 121 C311 73 269 49 216 49 L216 49 Z " />
<glyph glyph-name="q" unicode="q" horiz-adv-x="508" d="M324 457 C241 457 174 428 125 370 C75 311 50 238 50 149 C50 45 102 -13 198 -13 C251 -13 297 10 336 56 L288 -250 L354 -250 L465 441 C418 452 371 457 324 457 L324 457 Z M206 50 C148 50 119 86 119 158 C119 220 137 275 172 324 C207 372 256 396 317 396 C347 396 371 394 390 390 L349 137 C298 79 251 50 206 50 L206 50 Z " />
<glyph glyph-name="r" unicode="r" horiz-adv-x="311" d="M332 448 C316 450 301 451 288 451 C237 451 200 434 179 399 L187 446 L118 446 L48 0 L116 0 L172 346 C192 373 229 387 282 387 C283 387 296 386 322 384 L332 448 Z " />
<glyph glyph-name="s" unicode="s" horiz-adv-x="354" d="M207 456 C122 456 64 400 64 325 C64 200 230 199 230 118 C230 82 199 49 148 49 C119 49 84 55 44 68 L28 11 C71 -4 111 -11 150 -11 C230 -11 297 35 297 119 C297 251 130 244 130 332 C130 369 158 397 210 397 C234 397 266 391 306 380 L321 437 C276 450 238 456 207 456 L207 456 Z " />
<glyph glyph-name="t" unicode="t" horiz-adv-x="336" d="M318 384 L327 446 L198 446 L220 584 L151 584 L129 446 L58 446 L48 384 L119 384 L76 110 C63 29 98 -8 185 -8 C216 -8 248 -4 281 5 L270 63 C245 56 223 53 204 53 C155 53 139 69 144 106 L188 384 L318 384 Z " />
<glyph glyph-name="u" unicode="u" horiz-adv-x="519" d="M351 114 C301 69 250 47 197 47 C144 47 122 71 131 131 L183 446 L114 446 L60 107 C48 35 90 -11 173 -11 C237 -11 293 12 342 58 L333 0 L401 0 L471 446 L403 446 L351 114 Z " />
<glyph glyph-name="v" unicode="v" horiz-adv-x="412" d="M178 68 L111 446 L41 446 L124 0 L216 0 L437 446 L361 446 L178 68 Z " />
<glyph glyph-name="w" unicode="w" horiz-adv-x="703" d="M491 57 L436 446 L342 446 L143 58 L117 446 L51 446 L82 0 L183 0 L377 380 L432 0 L536 0 L718 446 L647 446 L491 57 Z " />
<glyph glyph-name="x" unicode="x" horiz-adv-x="431" d="M369 446 L224 280 L135 446 L61 446 L177 229 L-21 0 L63 0 L209 169 L299 0 L375 0 L255 221 L452 446 L369 446 Z " />
<glyph glyph-name="y" unicode="y" horiz-adv-x="444" d="M207 125 C195 102 185 80 176 58 L168 126 L130 446 L56 446 L124 -18 C94 -73 67 -113 42 -138 C17 -163 -14 -183 -53 -198 L-29 -256 C24 -231 64 -205 93 -176 C122 -147 155 -98 193 -30 L461 446 L385 446 L207 125 Z " />
<glyph glyph-name="z" unicode="z" horiz-adv-x="455" d="M89 446 L83 384 L324 384 L23 50 L19 0 L369 0 L379 62 L120 62 L419 393 L425 446 L89 446 Z " />
<glyph glyph-name="braceleft" unicode="&#x7b;" horiz-adv-x="367" d="M320 735 C271 735 230 707 222 654 L175 353 C171 328 162 309 149 297 C135 285 107 278 64 276 L53 212 C94 209 119 202 130 192 C141 182 144 160 139 127 L97 -137 C87 -209 83 -251 198 -251 L251 -251 L261 -194 L205 -194 C154 -194 149 -166 160 -133 L205 150 C214 209 205 235 137 242 C193 248 225 278 234 333 L282 636 C287 667 301 679 341 679 L397 679 L407 735 L320 735 L320 735 Z " />
<glyph glyph-name="bar" unicode="&#x7c;" horiz-adv-x="283" d="M189 735 L33 -251 L100 -251 L256 735 L189 735 Z " />
<glyph glyph-name="braceright" unicode="&#x7d;" horiz-adv-x="367" d="M276 621 C286 693 290 735 175 735 L122 735 L112 678 L168 678 C219 678 224 650 213 617 L168 334 C159 274 168 249 236 242 C181 236 148 206 139 151 L91 -152 C86 -183 72 -195 32 -195 L-24 -195 L-34 -251 L53 -251 C102 -251 143 -223 151 -170 L198 131 C202 156 211 175 225 187 C238 199 266 206 309 208 L320 272 C279 275 254 282 243 292 C232 302 229 324 234 357 L276 621 Z " />
<glyph glyph-name="asciitilde" unicode="&#x7e;" horiz-adv-x="569" d="M184 304 C143 304 87 283 17 242 L45 187 C108 223 155 241 186 241 C208 241 244 230 293 209 C342 188 378 177 401 177 C417 177 436 181 457 189 C478 197 495 204 506 211 C517 217 534 227 558 241 L528 294 C527 293 503 279 488 271 C465 258 426 242 398 242 C377 242 344 252 297 273 C250 294 212 304 184 304 L184 304 Z " />
<glyph glyph-name="uni00A0" unicode="&#xa0;" horiz-adv-x="180" d="" />
<glyph glyph-name="exclamdown" unicode="&#xa1;" horiz-adv-x="341" d="M148 366 C173 331 244 358 247 406 C251 435 231 460 202 460 C152 463 117 395 148 366 L148 366 Z M209 268 L137 268 L67 -176 L139 -176 L209 268 Z " />
<glyph glyph-name="cent" unicode="&#xa2;" horiz-adv-x="453" d="M363 518 L308 518 L298 456 C219 453 158 425 116 372 C74 318 53 252 53 173 C53 54 110 -7 224 -11 L215 -64 L270 -64 L279 -9 C316 -6 351 -1 384 7 L371 66 L360 64 C347 60 316 55 289 52 L343 394 C388 389 416 384 429 378 L447 436 L435 439 C419 443 384 450 353 454 L363 518 Z M123 171 C123 214 132 257 153 305 C174 353 223 390 288 395 L233 50 C160 54 123 90 123 171 L123 171 Z " />
<glyph glyph-name="sterling" unicode="&#xa3;" horiz-adv-x="471" d="M371 493 C404 493 432 489 454 480 L471 541 L459 544 C443 549 409 555 378 555 C318 555 271 535 244 510 C231 497 219 482 210 464 C190 427 185 404 180 369 L171 309 L105 309 L95 248 L161 248 L137 97 C126 51 97 48 65 49 L57 0 L382 0 L390 63 L231 63 C223 63 199 58 159 48 C173 60 200 74 206 111 L228 248 L402 248 L411 309 L237 309 L247 369 C255 424 275 460 302 475 C329 490 346 493 371 493 L371 493 Z " />
<glyph glyph-name="currency" unicode="&#xa4;" horiz-adv-x="596" d="M501 256 C501 291 492 322 475 351 L553 425 L510 470 L433 397 C402 421 365 433 322 433 C272 433 226 418 184 387 L107 471 L60 428 L137 344 C98 298 79 247 79 191 C79 158 87 127 104 99 L21 22 L64 -24 L146 52 C177 29 213 17 256 17 C306 17 352 32 395 62 L474 -24 L520 19 L442 105 C481 150 501 200 501 256 L501 256 Z M265 79 C196 79 142 133 142 201 C142 243 160 282 195 318 C230 353 268 371 311 371 C346 371 376 358 401 333 C426 308 438 278 438 243 C438 200 420 162 384 129 C347 96 308 79 265 79 L265 79 Z " />
<glyph glyph-name="yen" unicode="&#xa5;" horiz-adv-x="546" d="M483 553 L295 315 C292 311 287 304 282 295 C281 301 279 308 276 315 L167 553 L84 553 L232 249 L79 249 L70 190 L228 190 L227 185 L219 135 L61 135 L52 76 L211 76 L199 0 L274 0 L286 76 L446 76 L455 135 L294 135 L302 185 L303 190 L465 190 L474 249 L319 249 L570 553 L483 553 Z " />
<glyph glyph-name="brokenbar" unicode="&#xa6;" horiz-adv-x="287" d="M192 735 L122 309 L191 309 L260 735 L192 735 Z M107 202 L34 -251 L103 -251 L175 202 L107 202 Z " />
<glyph glyph-name="section" unicode="&#xa7;" horiz-adv-x="477" d="M177 508 C174 585 209 615 302 615 C342 615 388 608 441 594 L455 650 C400 665 345 673 291 673 C171 673 113 620 116 529 L136 -149 C167 -149 197 -125 196 -86 L177 508 Z M311 -56 C314 -133 279 -163 186 -163 C146 -163 100 -156 47 -142 L33 -198 C88 -213 143 -221 197 -221 C317 -221 375 -168 372 -77 L352 600 C321 600 291 576 292 537 L311 -56 Z " />
<glyph glyph-name="dieresis" unicode="&#xa8;" horiz-adv-x="322" d="M143 639 C112 639 88 614 88 585 C88 560 106 542 131 542 C162 542 187 567 187 596 C187 621 170 639 143 639 L143 639 Z M308 639 C276 639 252 613 252 584 C252 559 270 542 295 542 C326 542 351 566 351 597 C351 622 333 639 308 639 L308 639 Z " />
<glyph glyph-name="copyright" unicode="&#xa9;" horiz-adv-x="780" d="M626 15 C683 72 712 148 712 241 C712 334 683 410 626 467 C568 524 492 553 397 553 C302 553 226 524 169 467 C111 410 82 334 82 241 C82 148 111 72 169 15 C226 -42 302 -71 397 -71 C492 -71 568 -42 626 15 L626 15 Z M398 -17 C319 -17 256 7 208 54 C160 101 136 164 136 241 C136 318 160 381 208 429 C256 476 319 500 398 500 C476 500 539 476 587 429 C634 381 658 318 658 241 C658 164 634 101 587 54 C539 7 476 -17 398 -17 L398 -17 Z M406 84 C442 84 475 89 505 98 L495 144 C470 136 443 132 414 132 C341 132 305 169 305 244 C305 321 344 360 422 360 C445 360 470 357 498 351 L507 397 C483 405 453 409 418 409 C311 409 251 348 251 244 C251 143 309 84 406 84 L406 84 Z " />
<glyph glyph-name="ordfeminine" unicode="&#xaa;" horiz-adv-x="360" d="M266 673 C111 673 67 539 67 454 C67 378 101 340 168 340 C209 340 243 356 271 389 L263 346 L323 346 L373 662 C338 669 302 673 266 673 L266 673 Z M180 392 C144 392 126 415 126 462 C126 521 154 621 266 621 C278 621 292 620 308 618 L281 450 C251 411 217 392 180 392 L180 392 Z " />
<glyph glyph-name="guillemotleft" unicode="&#xab;" horiz-adv-x="503" d="M209 420 L80 259 L158 68 L229 68 L151 253 L287 420 L209 420 Z M382 420 L253 259 L331 68 L402 68 L324 253 L460 420 L382 420 Z " />
<glyph glyph-name="logicalnot" unicode="&#xac;" horiz-adv-x="629" d="M35 267 L509 267 L506 88 L572 88 L576 330 L36 330 L35 267 Z " />
<glyph glyph-name="uni00AD" unicode="&#xad;" horiz-adv-x="378" d="M68 199 L301 199 L312 260 L79 260 L68 199 Z " />
<glyph glyph-name="registered" unicode="&#xae;" horiz-adv-x="498" d="M135 620 C92 577 70 526 70 465 C70 404 91 353 134 310 C177 267 229 245 290 245 C351 245 402 267 445 310 C488 353 509 404 509 465 C509 526 488 577 445 620 C402 663 351 684 290 684 C229 684 178 663 135 620 L135 620 Z M163 337 C128 372 110 415 110 464 C110 514 128 557 163 592 C198 627 241 644 290 644 C339 644 382 627 417 592 C452 557 470 514 470 464 C470 415 452 372 417 337 C382 302 339 284 290 284 C241 284 198 302 163 337 L163 337 Z M368 516 C368 555 348 578 307 584 C296 585 283 586 266 586 L217 586 L213 353 L252 353 L254 442 L290 442 L344 353 L390 353 L327 452 C354 462 368 483 368 516 L368 516 Z M256 550 L275 550 C306 550 327 547 327 512 C322 475 308 475 262 475 L254 475 L256 550 Z " />
<glyph glyph-name="overscore" unicode="&#xaf;" horiz-adv-x="330" d="M93 622 L83 559 L353 559 L362 621 L93 622 Z " />
<glyph glyph-name="degree" unicode="&#xb0;" horiz-adv-x="317" d="M128 638 C105 615 94 587 94 554 C94 522 105 495 128 472 C151 449 178 437 211 437 C244 437 271 449 294 472 C317 495 328 522 328 554 C328 587 317 615 294 638 C271 661 244 672 211 672 C178 672 151 661 128 638 L128 638 Z M159 503 C145 517 138 534 138 554 C138 595 170 629 211 629 C252 629 284 595 284 554 C289 492 201 455 159 503 L159 503 Z " />
<glyph glyph-name="plusminus" unicode="&#xb1;" horiz-adv-x="619" d="M339 473 L276 473 L274 306 L72 306 L71 243 L273 243 L270 84 L332 84 L335 243 L544 243 L545 306 L336 306 L339 473 Z M540 0 L541 61 L67 61 L66 0 L540 0 Z " />
<glyph glyph-name="uni00B2" unicode="&#xb2;" horiz-adv-x="283" d="M248 476 C279 507 295 539 295 572 C295 639 254 671 186 671 C157 671 127 663 96 648 L99 602 C126 617 152 624 177 624 C213 624 237 604 237 568 C237 539 222 518 182 478 L54 353 L48 321 L267 321 L274 370 L139 370 L248 476 L248 476 Z " />
<glyph glyph-name="uni00B3" unicode="&#xb3;" horiz-adv-x="283" d="M110 608 C143 619 166 625 181 625 C218 625 236 610 236 580 C236 543 196 521 128 521 L120 473 C185 473 218 454 218 416 C218 383 197 367 155 367 C136 367 111 372 79 381 L65 331 C96 321 127 316 157 316 C229 316 272 354 272 417 C272 463 250 490 207 497 C254 504 289 536 289 585 C289 642 258 671 195 671 C169 671 140 665 108 653 L110 608 Z " />
<glyph glyph-name="acute" unicode="&#xb4;" horiz-adv-x="191" d="M230 660 L157 660 L77 521 L143 521 L230 660 Z " />
<glyph glyph-name="paragraph" unicode="&#xb6;" horiz-adv-x="499" d="M306 660 C169 660 75 594 75 457 C75 411 92 373 125 342 C158 311 199 295 248 295 L187 -94 L238 -94 L350 612 L418 612 L307 -94 L358 -94 L476 660 L306 660 L306 660 Z " />
<glyph glyph-name="middot" unicode="&#xb7;" horiz-adv-x="270" d="M127 180 C162 180 192 209 192 244 C192 271 173 290 145 290 C110 290 81 261 81 226 C81 199 100 180 127 180 L127 180 Z " />
<glyph glyph-name="cedilla" unicode="&#xb8;" horiz-adv-x="210" d="M25 12 C18 1 14 -13 12 -28 C7 -55 14 -66 39 -89 C56 -103 64 -116 62 -128 C57 -154 39 -167 7 -167 C-8 -167 -20 -166 -31 -164 L-40 -218 L3 -222 C74 -222 114 -193 123 -134 C128 -104 118 -79 95 -58 C75 -39 72 -36 75 -16 C76 -9 79 1 84 12 L25 12 Z " />
<glyph glyph-name="uni00B9" unicode="&#xb9;" horiz-adv-x="237" d="M90 648 L93 595 L169 608 L123 321 L182 321 L236 660 L178 660 L90 648 Z " />
<glyph glyph-name="ordmasculine" unicode="&#xba;" horiz-adv-x="360" d="M246 670 C187 670 143 650 114 611 C84 572 69 525 69 471 C69 384 111 340 194 340 C253 340 299 360 331 400 C362 439 378 485 378 538 C378 625 330 670 246 670 L246 670 Z M202 391 C151 391 126 419 126 476 C126 513 136 547 156 576 C175 605 205 619 246 619 C297 619 322 591 322 535 C322 496 312 463 291 434 C270 405 241 391 202 391 L202 391 Z " />
<glyph glyph-name="guillemotright" unicode="&#xbb;" horiz-adv-x="495" d="M105 420 L184 250 L51 68 L128 68 L255 247 L176 420 L105 420 Z M275 420 L354 250 L221 68 L298 68 L425 247 L346 420 L275 420 Z " />
<glyph glyph-name="onequarter" unicode="&#xbc;" horiz-adv-x="693" d="M4 0 L79 0 L673 660 L598 660 L4 0 Z M123 320 L182 320 L236 659 L178 659 L90 647 L93 594 L169 607 L123 320 Z M549 340 L361 107 L356 69 L527 69 L516 0 L567 0 L578 69 L641 69 L647 114 L585 114 L621 340 L549 340 Z M559 278 L534 114 L429 114 L559 278 Z " />
<glyph glyph-name="onehalf" unicode="&#xbd;" horiz-adv-x="710" d="M4 0 L79 0 L673 660 L598 660 L4 0 Z M123 320 L182 320 L236 659 L178 659 L90 647 L93 594 L169 607 L123 320 Z M642 326 C623 342 596 350 562 350 C533 350 503 342 472 327 L475 281 C502 296 528 303 553 303 C589 303 613 283 613 247 C613 218 598 197 558 157 L430 32 L424 0 L643 0 L650 49 L515 49 L624 155 C655 186 671 218 671 251 C671 284 661 309 642 326 L642 326 Z " />
<glyph glyph-name="threequarters" unicode="&#xbe;" horiz-adv-x="729" d="M272 416 C272 462 250 489 207 496 C254 503 289 535 289 584 C289 641 258 670 195 670 C169 670 140 664 108 652 L110 607 C143 618 166 624 181 624 C218 624 236 609 236 579 C236 542 196 520 128 520 L120 472 C185 472 218 453 218 415 C218 382 197 366 155 366 C136 366 111 371 79 380 L65 330 C96 320 127 315 157 315 C229 315 272 353 272 416 L272 416 Z M40 0 L115 0 L709 660 L634 660 L40 0 Z M585 340 L397 107 L392 69 L563 69 L552 0 L603 0 L614 69 L677 69 L683 114 L621 114 L657 340 L585 340 Z M595 278 L570 114 L465 114 L595 278 Z " />
<glyph glyph-name="questiondown" unicode="&#xbf;" horiz-adv-x="436" d="M246 363 C264 342 299 342 324 364 C363 399 345 457 300 457 C250 460 215 392 246 363 L246 363 Z M273 -123 C244 -128 221 -131 202 -131 C131 -131 96 -106 96 -55 C96 -20 122 19 174 60 C186 70 201 82 219 95 C237 108 248 117 253 122 C258 126 264 132 273 140 C295 165 291 175 303 222 L309 260 L237 260 L231 222 C228 198 224 184 218 175 C216 172 200 157 192 152 C184 147 156 125 137 112 C62 56 24 -1 24 -60 C24 -147 84 -193 180 -193 C213 -193 247 -190 280 -184 L273 -123 Z " />
<glyph glyph-name="Agrave" unicode="&#xc0;" horiz-adv-x="575" d="M347 839 L277 839 L346 707 L410 707 L347 839 Z M530 0 L417 660 L329 660 L-24 0 L57 0 L150 179 L426 179 L454 0 L530 0 Z M363 587 L416 244 L184 244 L363 587 Z " />
<glyph glyph-name="Aacute" unicode="&#xc1;" horiz-adv-x="575" d="M420 839 L344 707 L410 707 L493 839 L420 839 Z M530 0 L417 660 L329 660 L-24 0 L57 0 L150 179 L426 179 L454 0 L530 0 Z M363 587 L416 244 L184 244 L363 587 Z " />
<glyph glyph-name="Acircumflex" unicode="&#xc2;" horiz-adv-x="575" d="M442 707 L514 707 L437 839 L351 839 L229 707 L310 707 L393 802 L442 707 Z M530 0 L417 660 L329 660 L-24 0 L57 0 L150 179 L426 179 L454 0 L530 0 Z M363 587 L416 244 L184 244 L363 587 Z " />
<glyph glyph-name="Atilde" unicode="&#xc3;" horiz-adv-x="575" d="M391 729 C419 717 440 711 455 711 C488 711 523 728 561 763 L525 808 L514 798 C498 786 470 770 451 770 C441 770 423 776 396 789 C369 801 348 807 333 807 C302 807 269 792 232 761 L267 715 L278 723 C285 728 294 734 305 739 C316 744 326 747 335 747 C344 747 362 741 391 729 L391 729 Z M-24 0 L57 0 L150 179 L426 179 L454 0 L530 0 L417 660 L329 660 L-24 0 Z M363 587 L416 244 L184 244 L363 587 Z " />
<glyph glyph-name="Adieresis" unicode="&#xc4;" horiz-adv-x="575" d="M297 725 C328 725 352 749 352 778 C352 803 334 820 309 820 C280 820 255 795 255 766 C255 742 272 725 297 725 L297 725 Z M472 725 C501 725 526 749 526 778 C526 803 508 820 483 820 C454 820 429 795 429 766 C429 741 447 725 472 725 L472 725 Z M530 0 L417 660 L329 660 L-24 0 L57 0 L150 179 L426 179 L454 0 L530 0 Z M363 587 L416 244 L184 244 L363 587 Z " />
<glyph glyph-name="Aring" unicode="&#xc5;" horiz-adv-x="575" d="M381 674 C437 674 481 724 481 781 C481 833 446 867 398 867 C342 867 298 819 298 762 C298 710 333 674 381 674 L381 674 Z M393 818 C417 818 432 801 432 774 C432 745 413 724 386 724 C362 724 348 742 348 767 C348 796 368 818 393 818 L393 818 Z M530 0 L419 646 L321 646 L-24 0 L57 0 L151 179 L426 179 L454 0 L530 0 Z M349 559 L363 591 L368 557 L416 244 L184 244 L349 559 Z " />
<glyph glyph-name="AE" unicode="&#xc6;" horiz-adv-x="826" d="M823 660 L619 660 L464 660 L-24 0 L62 0 L177 159 L426 159 L401 0 L741 0 L750 67 L483 67 L520 299 L757 299 L767 366 L531 366 L567 594 L813 594 L823 660 Z M223 223 L494 598 L436 223 L223 223 Z " />
<glyph glyph-name="Ccedilla" unicode="&#xc7;" horiz-adv-x="557" d="M437 605 C476 605 527 599 592 587 L605 652 C547 665 494 672 445 672 C151 672 59 460 59 275 C59 67 175 4 315 -9 C313 -12 311 -19 310 -28 C305 -55 312 -66 337 -89 C354 -103 362 -116 360 -128 C355 -154 337 -167 305 -167 C290 -167 278 -166 267 -164 L258 -218 L301 -222 C372 -222 412 -193 421 -134 C426 -104 416 -79 393 -58 C373 -39 370 -36 373 -16 C373 -14 373 -12 374 -11 C418 -11 463 -6 508 4 L498 70 C460 62 420 58 377 58 C290 58 226 79 192 106 C175 119 161 136 151 157 C131 197 129 226 129 269 C129 446 213 605 437 605 L437 605 Z " />
<glyph glyph-name="Egrave" unicode="&#xc8;" horiz-adv-x="482" d="M307 839 L237 839 L306 707 L370 707 L307 839 Z M479 660 L160 660 L57 0 L397 0 L406 67 L139 67 L176 299 L413 299 L423 366 L187 366 L223 594 L469 594 L479 660 Z " />
<glyph glyph-name="Eacute" unicode="&#xc9;" horiz-adv-x="482" d="M380 839 L304 707 L370 707 L453 839 L380 839 Z M479 660 L160 660 L57 0 L397 0 L406 67 L139 67 L176 299 L413 299 L423 366 L187 366 L223 594 L469 594 L479 660 Z " />
<glyph glyph-name="Ecircumflex" unicode="&#xca;" horiz-adv-x="482" d="M402 707 L474 707 L397 839 L311 839 L189 707 L270 707 L353 802 L402 707 Z M479 660 L160 660 L57 0 L397 0 L406 67 L139 67 L176 299 L413 299 L423 366 L187 366 L223 594 L469 594 L479 660 Z " />
<glyph glyph-name="Edieresis" unicode="&#xcb;" horiz-adv-x="482" d="M257 725 C288 725 312 749 312 778 C312 803 294 820 269 820 C240 820 215 795 215 766 C215 742 232 725 257 725 L257 725 Z M432 725 C461 725 486 749 486 778 C486 803 468 820 443 820 C414 820 389 795 389 766 C389 741 407 725 432 725 L432 725 Z M397 0 L406 67 L139 67 L176 299 L413 299 L423 366 L187 366 L223 594 L469 594 L479 660 L160 660 L57 0 L397 0 Z " />
<glyph glyph-name="Igrave" unicode="&#xcc;" horiz-adv-x="253" d="M168 707 L232 707 L169 839 L99 839 L168 707 Z M160 660 L56 0 L126 0 L231 660 L160 660 Z " />
<glyph glyph-name="Iacute" unicode="&#xcd;" horiz-adv-x="253" d="M315 839 L242 839 L166 707 L232 707 L315 839 Z M160 660 L56 0 L126 0 L231 660 L160 660 Z " />
<glyph glyph-name="Icircumflex" unicode="&#xce;" horiz-adv-x="253" d="M173 839 L51 707 L132 707 L215 802 L264 707 L336 707 L259 839 L173 839 Z M126 0 L231 660 L160 660 L56 0 L126 0 Z " />
<glyph glyph-name="Idieresis" unicode="&#xcf;" horiz-adv-x="253" d="M131 820 C102 820 77 795 77 766 C77 742 94 725 119 725 C150 725 174 749 174 778 C174 803 156 820 131 820 L131 820 Z M305 820 C276 820 251 795 251 766 C251 741 269 725 294 725 C323 725 348 749 348 778 C348 803 330 820 305 820 L305 820 Z M160 660 L56 0 L126 0 L231 660 L160 660 Z " />
<glyph glyph-name="Eth" unicode="&#xd0;" horiz-adv-x="665" d="M331 661 C303 661 270 661 233 660 C196 659 169 658 154 658 L108 365 L63 365 L53 297 L97 297 L50 0 C125 -4 195 -6 262 -6 C505 -6 640 138 640 398 C640 567 530 661 331 661 L331 661 Z M261 60 C227 60 184 61 132 62 L169 297 L355 297 L365 365 L179 365 L215 595 C238 596 270 596 312 596 C482 596 567 528 567 392 C567 179 457 60 261 60 L261 60 Z " />
<glyph glyph-name="Ntilde" unicode="&#xd1;" horiz-adv-x="716" d="M445 729 C473 717 494 711 509 711 C542 711 577 728 615 763 L579 808 L568 798 C552 786 524 770 505 770 C495 770 477 776 450 789 C423 801 402 807 387 807 C356 807 323 792 286 761 L321 715 L332 723 C339 728 348 734 359 739 C370 744 380 747 389 747 C398 747 416 741 445 729 L445 729 Z M542 137 C539 118 536 98 534 77 C525 100 518 115 515 122 L255 660 L158 660 L53 0 L124 0 L205 514 C208 529 210 550 213 577 L492 0 L593 0 L696 660 L625 660 L542 137 Z " />
<glyph glyph-name="Ograve" unicode="&#xd2;" horiz-adv-x="721" d="M396 707 L460 707 L397 839 L327 839 L396 707 Z M424 675 C310 675 221 637 156 562 C91 486 59 390 59 274 C59 77 159 -17 336 -17 C445 -17 532 19 597 90 C662 161 694 256 694 376 C694 577 607 675 424 675 L424 675 Z M422 611 C555 611 621 533 621 378 C621 279 596 199 547 138 C497 77 427 47 337 47 C200 47 132 124 132 277 C132 374 158 454 210 517 C261 580 332 611 422 611 L422 611 Z " />
<glyph glyph-name="Oacute" unicode="&#xd3;" horiz-adv-x="721" d="M543 839 L470 839 L394 707 L460 707 L543 839 Z M424 675 C310 675 221 637 156 562 C91 486 59 390 59 274 C59 77 159 -17 336 -17 C445 -17 532 19 597 90 C662 161 694 256 694 376 C694 577 607 675 424 675 L424 675 Z M422 611 C555 611 621 533 621 378 C621 279 596 199 547 138 C497 77 427 47 337 47 C200 47 132 124 132 277 C132 374 158 454 210 517 C261 580 332 611 422 611 L422 611 Z " />
<glyph glyph-name="Ocircumflex" unicode="&#xd4;" horiz-adv-x="721" d="M492 707 L564 707 L487 839 L401 839 L279 707 L360 707 L443 802 L492 707 Z M424 675 C310 675 221 637 156 562 C91 486 59 390 59 274 C59 77 159 -17 336 -17 C445 -17 532 19 597 90 C662 161 694 256 694 376 C694 577 607 675 424 675 L424 675 Z M337 47 C200 47 132 124 132 277 C132 374 158 454 210 517 C261 580 332 611 422 611 C555 611 621 533 621 378 C621 279 596 199 547 138 C497 77 427 47 337 47 L337 47 Z " />
<glyph glyph-name="Otilde" unicode="&#xd5;" horiz-adv-x="721" d="M564 798 C548 786 520 770 501 770 C491 770 473 776 446 789 C419 801 398 807 383 807 C352 807 319 792 282 761 L317 715 L328 723 C341 734 368 747 385 747 C394 747 412 741 441 729 C469 717 490 711 505 711 C538 711 573 728 611 763 L575 808 L564 798 Z M424 675 C310 675 221 637 156 562 C91 486 59 390 59 274 C59 77 159 -17 336 -17 C445 -17 532 19 597 90 C662 161 694 256 694 376 C694 577 607 675 424 675 L424 675 Z M422 611 C555 611 621 533 621 378 C621 279 596 199 547 138 C497 77 427 47 337 47 C200 47 132 124 132 277 C132 374 158 454 210 517 C261 580 332 611 422 611 L422 611 Z " />
<glyph glyph-name="Odieresis" unicode="&#xd6;" horiz-adv-x="721" d="M359 820 C330 820 305 795 305 766 C305 742 322 725 347 725 C378 725 402 749 402 778 C402 803 384 820 359 820 L359 820 Z M533 820 C504 820 479 795 479 766 C479 741 497 725 522 725 C551 725 576 749 576 778 C576 803 558 820 533 820 L533 820 Z M424 675 C310 675 221 637 156 562 C91 486 59 390 59 274 C59 77 159 -17 336 -17 C445 -17 532 19 597 90 C662 161 694 256 694 376 C694 577 607 675 424 675 L424 675 Z M422 611 C555 611 621 533 621 378 C621 279 596 199 547 138 C497 77 427 47 337 47 C200 47 132 124 132 277 C132 374 158 454 210 517 C261 580 332 611 422 611 L422 611 Z " />
<glyph glyph-name="multiply" unicode="&#xd7;" horiz-adv-x="469" d="M385 417 L234 265 L82 417 L38 372 L189 220 L38 69 L82 24 L234 176 L385 24 L430 69 L278 220 L430 372 L385 417 Z " />
<glyph glyph-name="Oslash" unicode="&#xd8;" horiz-adv-x="818" d="M780 697 L673 597 C628 649 559 675 466 675 C352 675 263 637 198 562 C133 486 101 390 101 274 C101 205 113 147 138 102 L29 0 L71 -45 L176 52 C222 6 289 -17 378 -17 C487 -17 574 19 639 90 C704 161 736 256 736 376 C736 443 726 500 706 545 L822 653 L780 697 Z M174 277 C174 374 200 454 252 517 C303 580 374 611 464 611 C534 611 586 590 619 547 L195 154 C181 186 174 227 174 277 L174 277 Z M663 378 C663 279 638 199 589 138 C539 77 469 47 379 47 C312 47 262 65 228 101 L648 491 C658 460 663 422 663 378 L663 378 Z " />
<glyph glyph-name="Ugrave" unicode="&#xd9;" horiz-adv-x="694" d="M389 707 L453 707 L390 839 L320 839 L389 707 Z M600 660 L525 189 C508 88 452 55 329 55 C186 55 143 96 159 191 L232 660 L160 660 L85 187 C65 48 137 -9 316 -12 C409 -13 476 1 518 32 C560 62 586 113 597 184 L672 660 L600 660 Z " />
<glyph glyph-name="Uacute" unicode="&#xda;" horiz-adv-x="694" d="M536 839 L463 839 L387 707 L453 707 L536 839 Z M600 660 L525 189 C508 88 452 55 329 55 C186 55 143 96 159 191 L232 660 L160 660 L85 187 C65 48 137 -9 316 -12 C409 -13 476 1 518 32 C560 62 586 113 597 184 L672 660 L600 660 Z " />
<glyph glyph-name="Ucircumflex" unicode="&#xdb;" horiz-adv-x="694" d="M485 707 L557 707 L480 839 L394 839 L272 707 L353 707 L436 802 L485 707 Z M525 189 C508 88 452 55 329 55 C186 55 143 96 159 191 L232 660 L160 660 L85 187 C65 48 137 -9 316 -12 C409 -13 476 1 518 32 C560 62 586 113 597 184 L672 660 L600 660 L525 189 Z " />
<glyph glyph-name="Udieresis" unicode="&#xdc;" horiz-adv-x="694" d="M352 820 C323 820 298 795 298 766 C298 742 315 725 340 725 C371 725 395 749 395 778 C395 803 377 820 352 820 L352 820 Z M526 820 C497 820 472 795 472 766 C472 741 490 725 515 725 C544 725 569 749 569 778 C569 803 551 820 526 820 L526 820 Z M600 660 L525 189 C508 88 452 55 329 55 C186 55 143 96 159 191 L232 660 L160 660 L85 187 C65 48 137 -9 316 -12 C409 -13 476 1 518 32 C560 62 586 113 597 184 L672 660 L600 660 Z " />
<glyph glyph-name="Yacute" unicode="&#xdd;" horiz-adv-x="555" d="M387 839 L311 707 L377 707 L460 839 L387 839 Z M339 403 C318 374 305 354 300 345 C297 353 289 373 276 404 L162 660 L80 660 L251 283 L206 0 L279 0 L325 282 L615 660 L530 660 L339 403 Z " />
<glyph glyph-name="Thorn" unicode="&#xde;" horiz-adv-x="497" d="M210 536 L230 660 L164 660 L61 0 L126 0 L147 132 C177 128 206 126 234 126 C393 126 478 222 478 366 C478 490 419 536 286 536 L210 536 Z M237 185 C215 185 188 187 156 190 L201 477 L273 477 C378 477 412 449 412 364 C412 252 353 185 237 185 L237 185 Z " />
<glyph glyph-name="germandbls" unicode="&#xdf;" horiz-adv-x="506" d="M320 297 C320 349 523 466 523 597 C523 686 452 744 347 744 C236 744 170 681 151 556 L134 446 L63 446 L52 385 L124 385 L63 0 L129 0 L216 550 C229 638 272 682 345 682 C410 682 453 648 453 593 C453 478 247 397 247 288 C247 272 254 255 268 237 C295 201 331 180 359 147 C400 96 377 52 305 52 C273 52 243 56 216 65 L203 9 C244 -1 279 -6 310 -6 C394 -6 448 46 448 107 C448 146 416 189 384 216 C352 243 320 276 320 297 L320 297 Z " />
<glyph glyph-name="agrave" unicode="&#xe0;" horiz-adv-x="503" d="M290 660 L218 660 L290 521 L356 521 L290 660 Z M325 457 C243 457 177 428 127 371 C76 314 51 241 51 154 C51 44 97 -11 189 -11 C250 -11 290 13 334 65 L322 0 L389 0 L460 441 C414 452 369 457 325 457 L325 457 Z M198 50 C143 50 119 83 119 158 C119 227 137 284 174 330 C211 375 259 398 319 398 C341 398 362 396 383 391 L341 139 C295 80 247 50 198 50 L198 50 Z " />
<glyph glyph-name="aacute" unicode="&#xe1;" horiz-adv-x="503" d="M373 660 L293 521 L359 521 L446 660 L373 660 Z M325 457 C243 457 177 428 127 371 C76 314 51 241 51 154 C51 44 97 -11 189 -11 C250 -11 290 13 334 65 L322 0 L389 0 L460 441 C414 452 369 457 325 457 L325 457 Z M198 50 C143 50 119 83 119 158 C119 227 137 284 174 330 C211 375 259 398 319 398 C341 398 362 396 383 391 L341 139 C295 80 247 50 198 50 L198 50 Z " />
<glyph glyph-name="acircumflex" unicode="&#xe2;" horiz-adv-x="503" d="M390 521 L462 521 L381 660 L307 660 L178 521 L258 521 L341 616 L390 521 Z M51 154 C51 44 97 -11 189 -11 C250 -11 290 13 334 65 L322 0 L389 0 L460 441 C414 452 369 457 325 457 C243 457 177 428 127 371 C76 314 51 241 51 154 L51 154 Z M198 50 C143 50 119 83 119 158 C119 227 137 284 174 330 C211 375 259 398 319 398 C341 398 362 396 383 391 L341 139 C295 80 247 50 198 50 L198 50 Z " />
<glyph glyph-name="atilde" unicode="&#xe3;" horiz-adv-x="503" d="M332 561 C360 549 381 543 396 543 C429 543 464 560 502 595 L466 640 L454 630 C439 618 411 602 392 602 C382 602 364 608 337 621 C310 633 289 639 274 639 C243 639 210 624 173 593 L208 547 L218 555 C225 560 235 566 246 571 C257 576 267 579 276 579 C285 579 303 573 332 561 L332 561 Z M51 154 C51 44 97 -11 189 -11 C250 -11 290 13 334 65 L322 0 L389 0 L460 441 C414 452 369 457 325 457 C243 457 177 428 127 371 C76 314 51 241 51 154 L51 154 Z M198 50 C143 50 119 83 119 158 C119 227 137 284 174 330 C211 375 259 398 319 398 C341 398 362 396 383 391 L341 139 C295 80 247 50 198 50 L198 50 Z " />
<glyph glyph-name="adieresis" unicode="&#xe4;" horiz-adv-x="503" d="M248 542 C279 542 304 567 304 596 C304 621 287 639 260 639 C229 639 205 614 205 585 C205 560 223 542 248 542 L248 542 Z M412 542 C443 542 468 566 468 597 C468 622 450 639 425 639 C393 639 369 613 369 584 C369 559 387 542 412 542 L412 542 Z M51 154 C51 44 97 -11 189 -11 C250 -11 290 13 334 65 L322 0 L389 0 L460 441 C414 452 369 457 325 457 C243 457 177 428 127 371 C76 314 51 241 51 154 L51 154 Z M198 50 C143 50 119 83 119 158 C119 227 137 284 174 330 C211 375 259 398 319 398 C341 398 362 396 383 391 L341 139 C295 80 247 50 198 50 L198 50 Z " />
<glyph glyph-name="aring" unicode="&#xe5;" horiz-adv-x="503" d="M322 503 C369 503 412 547 417 596 C422 645 391 684 343 684 C295 684 251 639 247 590 C243 541 274 503 322 503 L322 503 Z M297 592 C300 616 316 633 339 633 C356 633 371 617 368 594 C365 571 346 553 325 553 C306 553 294 569 297 592 L297 592 Z M325 457 C243 457 177 428 127 371 C76 314 51 241 51 154 C51 44 97 -11 189 -11 C250 -11 290 13 334 65 L322 0 L389 0 L460 441 C414 452 369 457 325 457 L325 457 Z M198 50 C143 50 119 83 119 158 C119 227 137 284 174 330 C211 375 259 398 319 398 C341 398 362 396 383 391 L341 139 C295 80 247 50 198 50 L198 50 Z " />
<glyph glyph-name="ae" unicode="&#xe6;" horiz-adv-x="760" d="M707 229 C712 252 715 282 715 318 C715 403 668 457 572 457 C519 457 473 435 432 390 L442 443 C401 452 361 457 322 457 C242 457 177 428 127 370 C76 312 51 240 51 154 C51 44 98 -11 192 -11 C269 -11 325 23 362 92 C382 23 433 -11 514 -11 C571 -11 622 -2 669 15 L655 70 C604 56 559 49 518 49 C439 49 409 80 409 175 C409 196 410 214 413 229 L707 229 L707 229 Z M201 50 C144 50 120 81 120 160 C120 231 138 288 173 332 C208 376 257 398 320 398 C336 398 356 396 380 392 L350 191 C347 167 346 148 348 133 C305 78 256 50 201 50 L201 50 Z M569 398 C625 398 645 371 646 316 C646 306 645 296 642 285 L426 285 C451 356 501 398 569 398 L569 398 Z " />
<glyph glyph-name="ccedilla" unicode="&#xe7;" horiz-adv-x="408" d="M292 396 C327 396 363 390 401 378 L417 436 C380 449 339 456 293 456 C216 456 157 429 116 374 C74 319 53 250 53 168 C53 65 93 6 173 -7 C170 -16 169 -23 168 -28 C163 -55 170 -66 195 -89 C212 -103 220 -116 218 -128 C213 -154 195 -167 163 -167 C148 -167 136 -166 125 -164 L116 -218 L159 -222 C230 -222 270 -193 279 -134 C284 -104 274 -79 251 -58 C231 -39 228 -36 231 -16 C231 -13 231 -12 232 -11 C277 -9 318 -3 354 7 L344 66 C301 55 264 50 232 50 C157 50 121 83 121 167 C121 212 130 258 153 310 C176 361 225 396 292 396 L292 396 Z " />
<glyph glyph-name="egrave" unicode="&#xe8;" horiz-adv-x="473" d="M261 660 L189 660 L261 521 L327 521 L261 660 Z M420 229 C425 252 428 282 428 318 C428 403 381 457 285 457 C215 457 159 430 117 376 C75 321 54 253 54 171 C54 46 107 -11 227 -11 C284 -11 335 -2 382 15 L368 70 C317 56 272 49 231 49 C152 49 122 80 122 175 C122 196 123 214 126 229 L420 229 L420 229 Z M282 398 C338 398 358 371 359 316 C359 306 358 296 355 285 L139 285 C164 356 214 398 282 398 L282 398 Z " />
<glyph glyph-name="eacute" unicode="&#xe9;" horiz-adv-x="473" d="M344 660 L264 521 L330 521 L417 660 L344 660 Z M420 229 C425 252 428 282 428 318 C428 403 381 457 285 457 C215 457 159 430 117 376 C75 321 54 253 54 171 C54 46 107 -11 227 -11 C284 -11 335 -2 382 15 L368 70 C317 56 272 49 231 49 C152 49 122 80 122 175 C122 196 123 214 126 229 L420 229 L420 229 Z M282 398 C338 398 358 371 359 316 C359 306 358 296 355 285 L139 285 C164 356 214 398 282 398 L282 398 Z " />
<glyph glyph-name="ecircumflex" unicode="&#xea;" horiz-adv-x="473" d="M361 521 L433 521 L352 660 L278 660 L149 521 L229 521 L312 616 L361 521 Z M285 457 C215 457 159 430 117 376 C75 321 54 253 54 171 C54 46 107 -11 227 -11 C284 -11 335 -2 382 15 L368 70 C317 56 272 49 231 49 C152 49 122 80 122 175 C122 196 123 214 126 229 L420 229 C425 252 428 282 428 318 C428 403 381 457 285 457 L285 457 Z M282 398 C338 398 358 371 359 316 C359 306 358 296 355 285 L139 285 C164 356 214 398 282 398 L282 398 Z " />
<glyph glyph-name="edieresis" unicode="&#xeb;" horiz-adv-x="473" d="M219 542 C250 542 275 567 275 596 C275 621 258 639 231 639 C200 639 176 614 176 585 C176 560 194 542 219 542 L219 542 Z M383 542 C414 542 439 566 439 597 C439 622 421 639 396 639 C364 639 340 613 340 584 C340 559 358 542 383 542 L383 542 Z M285 457 C215 457 159 430 117 376 C75 321 54 253 54 171 C54 46 107 -11 227 -11 C284 -11 335 -2 382 15 L368 70 C317 56 272 49 231 49 C152 49 122 80 122 175 C122 196 123 214 126 229 L420 229 C425 252 428 282 428 318 C428 403 381 457 285 457 L285 457 Z M282 398 C338 398 358 371 359 316 C359 306 358 296 355 285 L139 285 C164 356 214 398 282 398 L282 398 Z " />
<glyph glyph-name="igrave" unicode="&#xec;" horiz-adv-x="239" d="M128 521 L194 521 L128 660 L56 660 L128 521 Z M118 446 L49 0 L121 0 L191 446 L118 446 Z " />
<glyph glyph-name="iacute" unicode="&#xed;" horiz-adv-x="239" d="M284 660 L211 660 L131 521 L197 521 L284 660 Z M118 446 L49 0 L121 0 L191 446 L118 446 Z " />
<glyph glyph-name="icircumflex" unicode="&#xee;" horiz-adv-x="239" d="M145 660 L16 521 L96 521 L179 616 L228 521 L300 521 L219 660 L145 660 Z M121 0 L191 446 L118 446 L49 0 L121 0 Z " />
<glyph glyph-name="idieresis" unicode="&#xef;" horiz-adv-x="239" d="M98 639 C67 639 43 614 43 585 C43 560 61 542 86 542 C117 542 142 567 142 596 C142 621 125 639 98 639 L98 639 Z M263 639 C231 639 207 613 207 584 C207 559 225 542 250 542 C281 542 306 566 306 597 C306 622 288 639 263 639 L263 639 Z M118 446 L49 0 L121 0 L191 446 L118 446 Z " />
<glyph glyph-name="eth" unicode="&#xf0;" horiz-adv-x="502" d="M495 632 L390 582 C370 621 346 660 318 701 L262 667 C287 631 310 594 331 555 L205 495 L230 441 L357 500 C380 444 394 389 400 334 C349 371 296 389 240 389 C186 389 142 370 107 332 C72 293 54 244 54 183 C54 64 128 -12 243 -12 C315 -12 370 15 409 70 C448 125 467 196 467 283 C467 365 450 446 415 527 L520 576 L495 632 Z M246 51 C171 51 126 106 126 187 C126 271 173 325 248 325 C300 325 351 307 402 270 C398 139 342 51 246 51 L246 51 Z " />
<glyph glyph-name="ntilde" unicode="&#xf1;" horiz-adv-x="525" d="M306 561 C334 549 355 543 370 543 C403 543 438 560 476 595 L440 640 L428 630 C413 618 385 602 366 602 C356 602 338 608 311 621 C284 633 263 639 248 639 C217 639 184 624 147 593 L182 547 L192 555 C199 560 209 566 220 571 C231 576 241 579 250 579 C259 579 277 573 306 561 L306 561 Z M347 457 C283 457 226 432 176 383 L186 446 L118 446 L48 0 L116 0 L166 326 C219 375 272 399 323 399 C379 399 403 374 394 324 L343 0 L412 0 L465 338 C477 409 434 457 347 457 L347 457 Z " />
<glyph glyph-name="ograve" unicode="&#xf2;" horiz-adv-x="529" d="M276 521 L342 521 L276 660 L204 660 L276 521 Z M301 457 C248 457 202 443 163 415 C86 358 54 272 54 177 C54 56 115 -11 230 -11 C305 -11 366 15 411 67 C456 118 478 184 478 264 C478 389 416 457 301 457 L301 457 Z M237 49 C162 49 124 93 124 181 C124 241 140 292 171 334 C202 376 244 397 298 397 C371 397 408 351 408 260 C408 136 344 49 237 49 L237 49 Z " />
<glyph glyph-name="oacute" unicode="&#xf3;" horiz-adv-x="529" d="M432 660 L359 660 L279 521 L345 521 L432 660 Z M301 457 C248 457 202 443 163 415 C86 358 54 272 54 177 C54 56 115 -11 230 -11 C305 -11 366 15 411 67 C456 118 478 184 478 264 C478 389 416 457 301 457 L301 457 Z M237 49 C162 49 124 93 124 181 C124 241 140 292 171 334 C202 376 244 397 298 397 C371 397 408 351 408 260 C408 136 344 49 237 49 L237 49 Z " />
<glyph glyph-name="ocircumflex" unicode="&#xf4;" horiz-adv-x="529" d="M376 521 L448 521 L367 660 L293 660 L164 521 L244 521 L327 616 L376 521 Z M301 457 C248 457 202 443 163 415 C86 358 54 272 54 177 C54 56 115 -11 230 -11 C305 -11 366 15 411 67 C456 118 478 184 478 264 C478 389 416 457 301 457 L301 457 Z M237 49 C162 49 124 93 124 181 C124 241 140 292 171 334 C202 376 244 397 298 397 C371 397 408 351 408 260 C408 136 344 49 237 49 L237 49 Z " />
<glyph glyph-name="otilde" unicode="&#xf5;" horiz-adv-x="529" d="M440 630 C425 618 397 602 378 602 C368 602 350 608 323 621 C296 633 275 639 260 639 C229 639 196 624 159 593 L194 547 L204 555 C219 566 245 579 262 579 C271 579 289 573 318 561 C346 549 367 543 382 543 C415 543 450 560 488 595 L452 640 L440 630 Z M301 457 C248 457 202 443 163 415 C86 358 54 272 54 177 C54 56 115 -11 230 -11 C305 -11 366 15 411 67 C456 118 478 184 478 264 C478 389 416 457 301 457 L301 457 Z M237 49 C162 49 124 93 124 181 C124 241 140 292 171 334 C202 376 244 397 298 397 C371 397 408 351 408 260 C408 136 344 49 237 49 L237 49 Z " />
<glyph glyph-name="odieresis" unicode="&#xf6;" horiz-adv-x="529" d="M246 639 C215 639 191 614 191 585 C191 560 209 542 234 542 C265 542 290 567 290 596 C290 621 273 639 246 639 L246 639 Z M411 639 C379 639 355 613 355 584 C355 559 373 542 398 542 C429 542 454 566 454 597 C454 622 436 639 411 639 L411 639 Z M301 457 C248 457 202 443 163 415 C86 358 54 272 54 177 C54 56 115 -11 230 -11 C305 -11 366 15 411 67 C456 118 478 184 478 264 C478 389 416 457 301 457 L301 457 Z M237 49 C162 49 124 93 124 181 C124 241 140 292 171 334 C202 376 244 397 298 397 C371 397 408 351 408 260 C408 136 344 49 237 49 L237 49 Z " />
<glyph glyph-name="divide" unicode="&#xf7;" horiz-adv-x="578" d="M288 480 C259 480 235 458 235 427 C235 396 259 373 288 373 C319 373 342 396 342 427 C342 458 319 480 288 480 L288 480 Z M47 269 L46 206 L518 206 L519 269 L47 269 Z M281 100 C252 100 228 75 228 46 C228 17 252 -8 281 -8 C312 -8 335 15 335 46 C335 77 312 100 281 100 L281 100 Z " />
<glyph glyph-name="oslash" unicode="&#xf8;" horiz-adv-x="556" d="M542 490 L451 411 C420 442 371 457 302 457 C229 457 171 430 127 376 C83 321 61 249 61 160 C61 130 65 104 74 83 L-14 7 L24 -34 L104 36 C135 5 182 -11 245 -11 C400 -11 492 100 492 287 C492 314 488 339 481 362 L582 449 L542 490 Z M131 171 C131 239 147 294 179 335 C211 376 253 397 305 397 C346 397 376 386 395 363 L134 135 C132 146 131 158 131 171 L131 171 Z M421 279 C421 134 359 49 255 49 C210 49 178 60 158 82 L419 308 C420 296 421 286 421 279 L421 279 Z " />
<glyph glyph-name="ugrave" unicode="&#xf9;" horiz-adv-x="519" d="M265 660 L193 660 L265 521 L331 521 L265 660 Z M351 114 C301 69 250 47 197 47 C144 47 122 71 131 131 L183 446 L114 446 L60 107 C48 35 90 -11 173 -11 C237 -11 293 12 342 58 L333 0 L401 0 L471 446 L403 446 L351 114 Z " />
<glyph glyph-name="uacute" unicode="&#xfa;" horiz-adv-x="519" d="M348 660 L268 521 L334 521 L421 660 L348 660 Z M351 114 C301 69 250 47 197 47 C144 47 122 71 131 131 L183 446 L114 446 L60 107 C48 35 90 -11 173 -11 C237 -11 293 12 342 58 L333 0 L401 0 L471 446 L403 446 L351 114 Z " />
<glyph glyph-name="ucircumflex" unicode="&#xfb;" horiz-adv-x="519" d="M365 521 L437 521 L356 660 L282 660 L153 521 L233 521 L316 616 L365 521 Z M351 114 C301 69 250 47 197 47 C144 47 122 71 131 131 L183 446 L114 446 L60 107 C48 35 90 -11 173 -11 C237 -11 293 12 342 58 L333 0 L401 0 L471 446 L403 446 L351 114 Z " />
<glyph glyph-name="udieresis" unicode="&#xfc;" horiz-adv-x="519" d="M223 542 C254 542 279 567 279 596 C279 621 262 639 235 639 C204 639 180 614 180 585 C180 560 198 542 223 542 L223 542 Z M387 542 C418 542 443 566 443 597 C443 622 425 639 400 639 C368 639 344 613 344 584 C344 559 362 542 387 542 L387 542 Z M351 114 C301 69 250 47 197 47 C144 47 122 71 131 131 L183 446 L114 446 L60 107 C48 35 90 -11 173 -11 C237 -11 293 12 342 58 L333 0 L401 0 L471 446 L403 446 L351 114 Z " />
<glyph glyph-name="yacute" unicode="&#xfd;" horiz-adv-x="444" d="M306 660 L226 521 L292 521 L379 660 L306 660 Z M207 125 C195 102 185 80 176 58 L168 126 L130 446 L56 446 L124 -18 C94 -73 67 -113 42 -138 C17 -163 -14 -183 -53 -198 L-29 -256 C24 -231 64 -205 93 -176 C122 -147 155 -98 193 -30 L461 446 L385 446 L207 125 Z " />
<glyph glyph-name="thorn" unicode="&#xfe;" horiz-adv-x="510" d="M321 455 C262 455 214 433 177 390 C178 391 178 396 179 397 L232 735 L164 735 L8 -251 L79 -251 L120 12 C153 -5 187 -13 221 -13 C294 -13 352 17 396 76 C440 135 462 205 462 286 C462 399 415 455 321 455 L321 455 Z M216 49 C188 49 159 56 129 70 L169 328 C206 372 250 394 302 394 C361 394 391 358 391 285 C391 224 375 169 343 121 C311 73 269 49 216 49 L216 49 Z " />
<glyph glyph-name="ydieresis" unicode="&#xff;" horiz-adv-x="444" d="M181 542 C212 542 237 567 237 596 C237 621 220 639 193 639 C162 639 138 614 138 585 C138 560 156 542 181 542 L181 542 Z M345 542 C376 542 401 566 401 597 C401 622 383 639 358 639 C326 639 302 613 302 584 C302 559 320 542 345 542 L345 542 Z M207 125 C195 102 185 80 176 58 L168 126 L130 446 L56 446 L124 -18 C94 -73 67 -113 42 -138 C17 -163 -14 -183 -53 -198 L-29 -256 C24 -231 64 -205 93 -176 C122 -147 155 -98 193 -30 L461 446 L385 446 L207 125 Z " />
<glyph glyph-name="Amacron" unicode="&#x100;" horiz-adv-x="575" d="M262 803 L252 740 L522 740 L531 802 L262 803 Z M-24 0 L57 0 L150 179 L426 179 L454 0 L530 0 L417 660 L329 660 L-24 0 Z M363 587 L416 244 L184 244 L363 587 Z " />
<glyph glyph-name="amacron" unicode="&#x101;" horiz-adv-x="503" d="M191 559 L461 559 L470 621 L201 622 L191 559 Z M51 154 C51 44 97 -11 189 -11 C250 -11 290 13 334 65 L322 0 L389 0 L460 441 C414 452 369 457 325 457 C243 457 177 428 127 371 C76 314 51 241 51 154 L51 154 Z M198 50 C143 50 119 83 119 158 C119 227 137 284 174 330 C211 375 259 398 319 398 C341 398 362 396 383 391 L341 139 C295 80 247 50 198 50 L198 50 Z " />
<glyph glyph-name="Abreve" unicode="&#x102;" horiz-adv-x="575" d="M379 703 C462 703 522 760 543 835 L479 835 C464 794 430 755 377 755 C348 755 329 763 322 780 C314 797 314 810 314 835 L253 835 C253 799 255 780 271 750 C286 720 323 703 379 703 L379 703 Z M-24 0 L57 0 L150 179 L426 179 L454 0 L530 0 L417 660 L329 660 L-24 0 Z M363 587 L416 244 L184 244 L363 587 Z " />
<glyph glyph-name="abreve" unicode="&#x103;" horiz-adv-x="503" d="M329 521 C418 521 474 567 499 660 L435 660 C416 596 386 573 337 573 C281 573 258 602 268 660 L207 660 C191 575 237 521 329 521 L329 521 Z M51 154 C51 44 97 -11 189 -11 C250 -11 290 13 334 65 L322 0 L389 0 L460 441 C414 452 369 457 325 457 C243 457 177 428 127 371 C76 314 51 241 51 154 L51 154 Z M198 50 C143 50 119 83 119 158 C119 227 137 284 174 330 C211 375 259 398 319 398 C341 398 362 396 383 391 L341 139 C295 80 247 50 198 50 L198 50 Z " />
<glyph glyph-name="Aogonek" unicode="&#x104;" horiz-adv-x="575" d="M451 -131 C451 -106 477 -62 530 0 L417 660 L329 660 L-24 0 L57 0 L150 179 L426 179 L454 0 C407 -65 383 -117 383 -157 C383 -210 431 -231 527 -219 L537 -160 C480 -169 451 -160 451 -131 L451 -131 Z M363 587 L416 244 L184 244 L363 587 Z " />
<glyph glyph-name="aogonek" unicode="&#x105;" horiz-adv-x="503" d="M317 -131 C317 -106 341 -62 389 0 L460 441 C414 452 369 457 325 457 C243 457 177 428 127 371 C76 314 51 241 51 154 C51 44 97 -11 189 -11 C250 -11 290 13 334 65 L323 4 L322 4 C273 -61 249 -114 249 -157 C249 -210 297 -231 393 -219 L403 -160 C346 -169 317 -160 317 -131 L317 -131 Z M198 50 C143 50 119 83 119 158 C119 227 137 284 174 330 C211 375 259 398 319 398 C341 398 362 396 383 391 L341 139 C295 80 247 50 198 50 L198 50 Z " />
<glyph glyph-name="Cacute" unicode="&#x106;" horiz-adv-x="557" d="M548 839 L475 839 L399 707 L465 707 L548 839 Z M445 672 C151 672 59 460 59 275 C59 184 84 115 121 73 C182 8 271 -12 369 -11 C415 -11 461 -6 508 4 L498 70 C460 62 420 58 377 58 C290 58 226 79 192 106 C175 119 161 136 151 157 C131 197 129 226 129 269 C129 446 213 605 437 605 C476 605 527 599 592 587 L605 652 C547 665 494 672 445 672 L445 672 Z " />
<glyph glyph-name="cacute" unicode="&#x107;" horiz-adv-x="408" d="M427 660 L354 660 L274 521 L340 521 L427 660 Z M417 436 C380 449 339 456 293 456 C216 456 157 429 116 374 C74 319 53 250 53 168 C53 45 106 -11 219 -11 C266 -11 311 -5 354 7 L344 66 C301 55 264 50 232 50 C157 50 121 83 121 167 C121 212 130 258 153 310 C176 361 225 396 292 396 C327 396 363 390 401 378 L417 436 Z " />
<glyph glyph-name="Cdotaccent" unicode="&#x10a;" horiz-adv-x="557" d="M452 820 C419 820 397 798 397 766 C397 741 413 725 438 725 C471 725 494 747 494 779 C494 804 477 820 452 820 L452 820 Z M445 672 C151 672 59 460 59 275 C59 184 84 115 121 73 C182 8 271 -12 369 -11 C415 -11 461 -6 508 4 L498 70 C460 62 420 58 377 58 C290 58 226 79 192 106 C175 119 161 136 151 157 C131 197 129 226 129 269 C129 446 213 605 437 605 C476 605 527 599 592 587 L605 652 C547 665 494 672 445 672 L445 672 Z " />
<glyph glyph-name="cdotaccent" unicode="&#x10b;" horiz-adv-x="408" d="M369 592 C373 619 354 641 327 641 C299 641 276 620 272 592 C268 565 285 544 313 544 C341 544 365 564 369 592 L369 592 Z M417 436 C380 449 339 456 293 456 C216 456 157 429 116 374 C74 319 53 250 53 168 C53 45 106 -11 219 -11 C266 -11 311 -5 354 7 L344 66 C301 55 264 50 232 50 C157 50 121 83 121 167 C121 212 130 258 153 310 C176 361 225 396 292 396 C327 396 363 390 401 378 L417 436 Z " />
<glyph glyph-name="Ccaron" unicode="&#x10c;" horiz-adv-x="557" d="M580 840 L501 840 L436 750 L397 839 L325 839 L384 708 L477 708 L580 840 Z M437 605 C476 605 527 599 592 587 L605 652 C547 665 494 672 445 672 C151 672 59 460 59 275 C59 184 84 115 121 73 C182 8 271 -12 369 -11 C415 -11 461 -6 508 4 L498 70 C460 62 420 58 377 58 C290 58 226 79 192 106 C175 119 161 136 151 157 C131 197 129 226 129 269 C129 446 213 605 437 605 L437 605 Z " />
<glyph glyph-name="ccaron" unicode="&#x10d;" horiz-adv-x="408" d="M462 660 L383 660 L314 564 L273 660 L201 660 L262 521 L355 521 L462 660 Z M53 168 C53 45 106 -11 219 -11 C266 -11 311 -5 354 7 L344 66 C301 55 264 50 232 50 C157 50 121 83 121 167 C121 212 130 258 153 310 C176 361 225 396 292 396 C327 396 363 390 401 378 L417 436 C380 449 339 456 293 456 C216 456 157 429 116 374 C74 319 53 250 53 168 L53 168 Z " />
<glyph glyph-name="Dcaron" unicode="&#x10e;" horiz-adv-x="671" d="M523 840 L444 840 L379 750 L340 839 L268 839 L327 708 L420 708 L523 840 Z M337 661 C309 661 276 661 239 660 C202 659 175 658 160 658 L56 0 C131 -4 201 -6 268 -6 C511 -6 646 138 646 398 C646 567 536 661 337 661 L337 661 Z M267 60 C233 60 190 61 138 62 L221 595 C244 596 276 596 318 596 C488 596 573 528 573 392 C573 179 463 60 267 60 L267 60 Z " />
<glyph glyph-name="dcaron" unicode="&#x10f;" horiz-adv-x="507" d="M397 448 C366 454 338 457 311 457 C231 457 168 428 121 369 C74 310 51 239 51 157 C51 44 101 -13 185 -13 C238 -13 289 13 338 64 L327 0 L394 0 L510 735 L442 735 L397 448 L397 448 Z M537 558 L595 558 L651 735 L566 735 L537 558 Z M200 49 C147 49 120 88 120 166 C120 233 138 289 173 332 C208 375 256 396 317 396 C338 396 361 393 388 386 L348 138 C301 79 251 49 200 49 L200 49 Z " />
<glyph glyph-name="Dcroat" unicode="&#x110;" horiz-adv-x="665" d="M331 661 C303 661 270 661 233 660 C196 659 169 658 154 658 L108 365 L63 365 L53 297 L97 297 L50 0 C125 -4 195 -6 262 -6 C505 -6 640 138 640 398 C640 567 530 661 331 661 L331 661 Z M261 60 C227 60 184 61 132 62 L169 297 L355 297 L365 365 L179 365 L215 595 C238 596 270 596 312 596 C482 596 567 528 567 392 C567 179 457 60 261 60 L261 60 Z " />
<glyph glyph-name="dslash" unicode="&#x111;" horiz-adv-x="507" d="M492 617 L510 735 L442 735 L424 617 L294 617 L284 555 L414 555 L397 448 C366 454 338 457 311 457 C231 457 168 428 121 369 C74 310 51 239 51 157 C51 44 101 -13 185 -13 C238 -13 289 13 338 64 L327 0 L394 0 L482 555 L554 555 L563 617 L492 617 Z M200 49 C147 49 120 88 120 166 C120 233 138 289 173 332 C208 375 256 396 317 396 C338 396 361 393 388 386 L348 138 C301 79 251 49 200 49 L200 49 Z " />
<glyph glyph-name="Emacron" unicode="&#x112;" horiz-adv-x="482" d="M212 740 L482 740 L491 802 L222 803 L212 740 Z M397 0 L406 67 L139 67 L176 299 L413 299 L423 366 L187 366 L223 594 L469 594 L479 660 L160 660 L57 0 L397 0 Z " />
<glyph glyph-name="emacron" unicode="&#x113;" horiz-adv-x="473" d="M162 559 L432 559 L441 621 L172 622 L162 559 Z M285 457 C215 457 159 430 117 376 C75 321 54 253 54 171 C54 46 107 -11 227 -11 C284 -11 335 -2 382 15 L368 70 C317 56 272 49 231 49 C152 49 122 80 122 175 C122 196 123 214 126 229 L420 229 C425 252 428 282 428 318 C428 403 381 457 285 457 L285 457 Z M282 398 C338 398 358 371 359 316 C359 306 358 296 355 285 L139 285 C164 356 214 398 282 398 L282 398 Z " />
<glyph glyph-name="Edotaccent" unicode="&#x116;" horiz-adv-x="482" d="M343 725 C376 725 399 747 399 779 C399 804 382 820 357 820 C324 820 302 798 302 766 C302 741 318 725 343 725 L343 725 Z M479 660 L160 660 L57 0 L397 0 L406 67 L139 67 L176 299 L413 299 L423 366 L187 366 L223 594 L469 594 L479 660 Z " />
<glyph glyph-name="edotaccent" unicode="&#x117;" horiz-adv-x="473" d="M340 558 C351 567 357 578 359 592 C363 619 344 641 317 641 C289 641 266 620 262 592 C252 550 307 528 340 558 L340 558 Z M420 229 C425 252 428 282 428 318 C428 403 381 457 285 457 C215 457 159 430 117 376 C75 321 54 253 54 171 C54 46 107 -11 227 -11 C284 -11 335 -2 382 15 L368 70 C317 56 272 49 231 49 C152 49 122 80 122 175 C122 196 123 214 126 229 L420 229 L420 229 Z M282 398 C338 398 358 371 359 316 C359 306 358 296 355 285 L139 285 C164 356 214 398 282 398 L282 398 Z " />
<glyph glyph-name="Eogonek" unicode="&#x118;" horiz-adv-x="482" d="M479 660 L160 660 L57 0 L330 0 C281 -67 257 -119 257 -157 C257 -210 305 -231 401 -219 L411 -160 C354 -169 325 -160 325 -131 C325 -106 349 -62 397 0 L406 67 L139 67 L176 299 L413 299 L423 366 L187 366 L223 594 L469 594 L479 660 Z " />
<glyph glyph-name="eogonek" unicode="&#x119;" horiz-adv-x="473" d="M420 229 C425 252 428 282 428 318 C428 403 381 457 285 457 C215 457 159 430 117 376 C75 321 54 253 54 171 C54 46 107 -11 227 -11 C250 -11 274 -9 300 -5 C255 -68 232 -118 232 -155 C232 -208 280 -229 376 -217 L386 -158 C271 -177 273 -120 382 15 L368 70 C317 56 272 49 231 49 C152 49 122 80 122 175 C122 196 123 214 126 229 L420 229 L420 229 Z M282 398 C338 398 358 371 359 316 C359 306 358 296 355 285 L139 285 C164 356 214 398 282 398 L282 398 Z " />
<glyph glyph-name="Ecaron" unicode="&#x11a;" horiz-adv-x="482" d="M485 840 L406 840 L341 750 L302 839 L230 839 L289 708 L382 708 L485 840 Z M397 0 L406 67 L139 67 L176 299 L413 299 L423 366 L187 366 L223 594 L469 594 L479 660 L160 660 L57 0 L397 0 Z " />
<glyph glyph-name="ecaron" unicode="&#x11b;" horiz-adv-x="473" d="M452 660 L373 660 L304 564 L263 660 L191 660 L252 521 L345 521 L452 660 Z M285 457 C215 457 159 430 117 376 C75 321 54 253 54 171 C54 46 107 -11 227 -11 C284 -11 335 -2 382 15 L368 70 C317 56 272 49 231 49 C152 49 122 80 122 175 C122 196 123 214 126 229 L420 229 C425 252 428 282 428 318 C428 403 381 457 285 457 L285 457 Z M282 398 C338 398 358 371 359 316 C359 306 358 296 355 285 L139 285 C164 356 214 398 282 398 L282 398 Z " />
<glyph glyph-name="Gbreve" unicode="&#x11e;" horiz-adv-x="660" d="M521 835 C506 794 472 755 419 755 C390 755 371 763 364 780 C356 797 356 810 356 835 L295 835 C295 799 297 780 313 750 C328 720 365 703 421 703 C504 703 564 760 585 835 L521 835 Z M433 679 C314 679 223 642 158 569 C93 496 60 398 60 275 C60 156 93 73 150 33 C206 -8 263 -22 342 -22 C409 -22 478 -14 549 2 L598 320 L528 320 L486 59 C446 49 403 44 357 44 C271 44 212 63 180 101 C148 139 132 196 132 273 C132 494 239 613 430 613 C481 613 542 604 611 585 L629 648 C565 669 500 679 433 679 L433 679 Z " />
<glyph glyph-name="gbreve" unicode="&#x11f;" horiz-adv-x="501" d="M312 521 C401 521 457 567 482 660 L418 660 C399 596 369 573 320 573 C264 573 241 602 251 660 L190 660 C174 575 220 521 312 521 L312 521 Z M50 148 C50 33 109 -11 189 -11 C247 -11 294 12 331 58 L308 -87 C295 -159 242 -201 163 -201 C117 -201 70 -195 22 -183 L5 -243 C56 -255 110 -261 167 -261 C279 -261 356 -198 373 -94 L457 438 C404 449 356 454 312 454 C220 454 147 410 108 347 C69 283 50 215 50 148 L50 148 Z M344 138 C297 77 249 46 200 46 C146 46 119 82 119 154 C119 201 130 251 157 305 C184 359 240 396 313 396 C339 396 363 394 384 390 L344 138 Z " />
<glyph glyph-name="Gdotaccent" unicode="&#x120;" horiz-adv-x="660" d="M439 820 C406 820 384 798 384 766 C384 741 400 725 425 725 C458 725 481 747 481 779 C481 804 464 820 439 820 L439 820 Z M433 679 C314 679 223 642 158 569 C93 496 60 398 60 275 C60 156 93 73 150 33 C206 -8 263 -22 342 -22 C409 -22 478 -14 549 2 L598 320 L528 320 L486 59 C446 49 403 44 357 44 C271 44 212 63 180 101 C148 139 132 196 132 273 C132 494 239 613 430 613 C481 613 542 604 611 585 L629 648 C565 669 500 679 433 679 L433 679 Z " />
<glyph glyph-name="gdotaccent" unicode="&#x121;" horiz-adv-x="501" d="M352 558 C363 567 369 578 371 592 C375 619 356 641 329 641 C301 641 278 620 274 592 C264 550 319 528 352 558 L352 558 Z M312 454 C220 454 147 410 108 347 C69 283 50 215 50 148 C50 33 109 -11 189 -11 C247 -11 294 12 331 58 L308 -87 C295 -159 242 -201 163 -201 C117 -201 70 -195 22 -183 L5 -243 C56 -255 110 -261 167 -261 C279 -261 356 -198 373 -94 L457 438 C404 449 356 454 312 454 L312 454 Z M344 138 C297 77 249 46 200 46 C146 46 119 82 119 154 C119 201 130 251 157 305 C184 359 240 396 313 396 C339 396 363 394 384 390 L344 138 Z " />
<glyph glyph-name="Gcommaaccent" unicode="&#x122;" horiz-adv-x="660" d="M433 679 C314 679 223 642 158 569 C93 496 60 398 60 275 C60 156 93 73 150 33 C206 -8 263 -22 342 -22 C409 -22 478 -14 549 2 L598 320 L528 320 L486 59 C446 49 403 44 357 44 C271 44 212 63 180 101 C148 139 132 196 132 273 C132 494 239 613 430 613 C481 613 542 604 611 585 L629 648 C565 669 500 679 433 679 L433 679 Z M318 -65 C307 -65 295 -68 281 -73 L288 -168 L249 -245 L301 -245 L343 -190 C366 -161 377 -136 377 -116 C377 -87 355 -65 318 -65 L318 -65 Z " />
<glyph glyph-name="gcommaaccent" unicode="&#x123;" horiz-adv-x="501" d="M308 511 C319 511 331 514 345 519 L338 614 L377 691 L325 691 L283 636 C260 607 249 582 249 562 C249 533 271 511 308 511 L308 511 Z M312 454 C220 454 147 410 108 347 C69 283 50 215 50 148 C50 33 109 -11 189 -11 C247 -11 294 12 331 58 L308 -87 C295 -159 242 -201 163 -201 C117 -201 70 -195 22 -183 L5 -243 C56 -255 110 -261 167 -261 C279 -261 356 -198 373 -94 L457 438 C404 449 356 454 312 454 L312 454 Z M344 138 C297 77 249 46 200 46 C146 46 119 82 119 154 C119 201 130 251 157 305 C184 359 240 396 313 396 C339 396 363 394 384 390 L344 138 Z " />
<glyph glyph-name="Hbar" unicode="&#x126;" horiz-adv-x="709" d="M671 561 L687 660 L615 660 L599 561 L216 561 L232 660 L160 660 L144 561 L108 561 L97 500 L135 500 L56 0 L128 0 L175 297 L557 297 L510 0 L583 0 L662 500 L700 500 L711 561 L671 561 Z M186 365 L207 500 L590 500 L568 365 L186 365 Z " />
<glyph glyph-name="hbar" unicode="&#x127;" horiz-adv-x="525" d="M351 457 C284 457 226 432 177 383 L204 555 L354 555 L363 617 L213 617 L232 735 L164 735 L145 617 L94 617 L84 555 L135 555 L48 0 L117 0 L168 328 C220 375 273 399 327 399 C380 399 401 374 392 314 L343 0 L412 0 L465 338 C476 411 434 457 351 457 L351 457 Z " />
<glyph glyph-name="Imacron" unicode="&#x12a;" horiz-adv-x="253" d="M84 803 L74 740 L344 740 L353 802 L84 803 Z M160 660 L56 0 L126 0 L231 660 L160 660 Z " />
<glyph glyph-name="imacron" unicode="&#x12b;" horiz-adv-x="239" d="M39 622 L29 559 L299 559 L308 621 L39 622 Z M118 446 L49 0 L121 0 L191 446 L118 446 Z " />
<glyph glyph-name="Iogonek" unicode="&#x12e;" horiz-adv-x="253" d="M55 -131 C55 -106 79 -62 127 0 L126 0 L231 660 L160 660 L56 0 L57 0 C10 -63 -13 -116 -13 -157 C-13 -210 35 -231 131 -219 L141 -160 C84 -169 55 -160 55 -131 L55 -131 Z " />
<glyph glyph-name="iogonek" unicode="&#x12f;" horiz-adv-x="239" d="M184 641 C156 641 133 620 129 592 C125 565 142 544 170 544 C198 544 222 564 226 592 C230 619 211 641 184 641 L184 641 Z M191 446 L118 446 L49 0 C2 -63 -21 -116 -21 -157 C-21 -210 27 -231 123 -219 L133 -160 C73 -169 44 -158 47 -131 C48 -105 73 -61 121 0 L191 446 Z " />
<glyph glyph-name="Idot" unicode="&#x130;" horiz-adv-x="253" d="M219 820 C186 820 164 798 164 766 C164 741 180 725 205 725 C238 725 261 747 261 779 C261 804 244 820 219 820 L219 820 Z M160 660 L56 0 L126 0 L231 660 L160 660 Z " />
<glyph glyph-name="dotlessi" unicode="&#x131;" horiz-adv-x="239" d="M118 446 L49 0 L121 0 L191 446 L118 446 Z " />
<glyph glyph-name="IJ" unicode="&#x132;" horiz-adv-x="509" d="M160 660 L56 0 L126 0 L231 660 L160 660 Z M417 660 L305 -36 C294 -109 266 -155 198 -215 L246 -266 C288 -229 318 -194 337 -163 C355 -131 368 -90 376 -41 L487 660 L417 660 Z " />
<glyph glyph-name="ij" unicode="&#x133;" horiz-adv-x="492" d="M226 592 C230 619 211 641 184 641 C156 641 133 620 129 592 C125 565 142 544 170 544 C198 544 222 564 226 592 L226 592 Z M478 592 C482 619 463 641 436 641 C408 641 385 620 381 592 C377 565 394 544 422 544 C450 544 474 564 478 592 L478 592 Z M118 446 L49 0 L121 0 L191 446 L118 446 Z M370 446 L294 -32 C287 -97 251 -157 186 -212 L234 -263 C277 -225 307 -191 324 -161 C341 -131 355 -90 364 -38 L441 446 L370 446 Z " />
<glyph glyph-name="Kcommaaccent" unicode="&#x136;" horiz-adv-x="538" d="M56 0 L127 0 L231 660 L160 660 L56 0 Z M467 660 L193 336 L403 0 L493 0 L277 338 L554 660 L467 660 Z M226 -65 C215 -65 203 -68 189 -73 L196 -168 L157 -245 L209 -245 L251 -190 C274 -161 285 -136 285 -116 C285 -87 263 -65 226 -65 L226 -65 Z " />
<glyph glyph-name="kcommaaccent" unicode="&#x137;" horiz-adv-x="463" d="M164 735 L48 0 L117 0 L233 735 L164 735 Z M366 446 L171 267 L333 0 L415 0 L251 260 L459 446 L366 446 Z M185 -65 C174 -65 162 -68 148 -73 L155 -168 L116 -245 L168 -245 L210 -190 C233 -161 244 -136 244 -116 C244 -87 222 -65 185 -65 L185 -65 Z " />
<glyph glyph-name="Lacute" unicode="&#x139;" horiz-adv-x="444" d="M328 839 L255 839 L179 707 L245 707 L328 839 Z M160 660 L56 0 L399 0 L409 68 L138 68 L232 660 L160 660 Z " />
<glyph glyph-name="lacute" unicode="&#x13a;" horiz-adv-x="232" d="M330 867 L257 867 L181 735 L247 735 L330 867 Z M152 660 L47 0 L117 0 L222 660 L152 660 Z " />
<glyph glyph-name="Lcommaaccent" unicode="&#x13b;" horiz-adv-x="444" d="M160 660 L56 0 L399 0 L409 68 L138 68 L232 660 L160 660 Z M217 -65 C206 -65 194 -68 180 -73 L187 -168 L148 -245 L200 -245 L242 -190 C265 -161 276 -136 276 -116 C276 -87 254 -65 217 -65 L217 -65 Z " />
<glyph glyph-name="lcommaaccent" unicode="&#x13c;" horiz-adv-x="231" d="M164 735 L48 0 L118 0 L234 735 L164 735 Z M73 -65 C62 -65 50 -68 36 -73 L43 -168 L4 -245 L56 -245 L98 -190 C121 -161 132 -136 132 -116 C132 -87 110 -65 73 -65 L73 -65 Z " />
<glyph glyph-name="Lcaron" unicode="&#x13d;" horiz-adv-x="444" d="M160 660 L56 0 L399 0 L409 68 L138 68 L232 660 L160 660 Z M319 660 L290 483 L348 483 L404 660 L319 660 Z " />
<glyph glyph-name="lcaron" unicode="&#x13e;" horiz-adv-x="231" d="M164 735 L48 0 L118 0 L234 735 L164 735 Z M289 735 L260 558 L318 558 L374 735 L289 735 Z " />
<glyph glyph-name="Ldot" unicode="&#x13f;" horiz-adv-x="453" d="M160 660 L56 0 L399 0 L409 68 L138 68 L232 660 L160 660 Z M378 289 C410 289 433 313 433 344 C433 375 410 399 378 399 C347 399 324 375 324 344 C324 313 347 289 378 289 L378 289 Z " />
<glyph glyph-name="ldot" unicode="&#x140;" horiz-adv-x="300" d="M164 735 L48 0 L118 0 L234 735 L164 735 Z M287 316 C320 316 343 342 343 375 C343 406 321 426 292 426 C259 426 234 399 234 366 C234 334 259 316 287 316 L287 316 Z " />
<glyph glyph-name="Lslash" unicode="&#x141;" horiz-adv-x="470" d="M204 323 L320 372 L332 443 L216 394 L258 660 L189 660 L142 363 L30 316 L20 245 L130 292 L84 0 L425 0 L433 62 L163 62 L204 323 Z " />
<glyph glyph-name="lslash" unicode="&#x142;" horiz-adv-x="305" d="M227 444 L273 735 L203 735 L152 413 L46 369 L36 299 L141 343 L87 0 L157 0 L216 374 L323 418 L334 488 L227 444 Z " />
<glyph glyph-name="Nacute" unicode="&#x143;" horiz-adv-x="716" d="M474 839 L398 707 L464 707 L547 839 L474 839 Z M542 137 C539 118 536 98 534 77 C525 100 518 115 515 122 L255 660 L158 660 L53 0 L124 0 L205 514 C208 529 210 550 213 577 L492 0 L593 0 L696 660 L625 660 L542 137 Z " />
<glyph glyph-name="nacute" unicode="&#x144;" horiz-adv-x="525" d="M347 660 L267 521 L333 521 L420 660 L347 660 Z M347 457 C283 457 226 432 176 383 L186 446 L118 446 L48 0 L116 0 L166 326 C219 375 272 399 323 399 C379 399 403 374 394 324 L343 0 L412 0 L465 338 C477 409 434 457 347 457 L347 457 Z " />
<glyph glyph-name="Ncommaaccent" unicode="&#x145;" horiz-adv-x="716" d="M542 137 C539 118 536 98 534 77 C525 100 518 115 515 122 L255 660 L158 660 L53 0 L124 0 L205 514 C208 529 210 550 213 577 L492 0 L593 0 L696 660 L625 660 L542 137 Z M331 -65 C320 -65 308 -68 294 -73 L301 -168 L262 -245 L314 -245 L356 -190 C379 -161 390 -136 390 -116 C390 -87 368 -65 331 -65 L331 -65 Z " />
<glyph glyph-name="ncommaaccent" unicode="&#x146;" horiz-adv-x="525" d="M347 457 C283 457 226 432 176 383 L186 446 L118 446 L48 0 L116 0 L166 326 C219 375 272 399 323 399 C379 399 403 374 394 324 L343 0 L412 0 L465 338 C477 409 434 457 347 457 L347 457 Z M220 -65 C209 -65 197 -68 183 -73 L190 -168 L151 -245 L203 -245 L245 -190 C268 -161 279 -136 279 -116 C279 -87 257 -65 220 -65 L220 -65 Z " />
<glyph glyph-name="Ncaron" unicode="&#x147;" horiz-adv-x="716" d="M579 840 L500 840 L435 750 L396 839 L324 839 L383 708 L476 708 L579 840 Z M542 137 C539 118 536 98 534 77 C525 100 518 115 515 122 L255 660 L158 660 L53 0 L124 0 L205 514 C208 529 210 550 213 577 L492 0 L593 0 L696 660 L625 660 L542 137 Z " />
<glyph glyph-name="ncaron" unicode="&#x148;" horiz-adv-x="525" d="M455 660 L376 660 L307 564 L266 660 L194 660 L255 521 L348 521 L455 660 Z M347 457 C283 457 226 432 176 383 L186 446 L118 446 L48 0 L116 0 L166 326 C219 375 272 399 323 399 C379 399 403 374 394 324 L343 0 L412 0 L465 338 C477 409 434 457 347 457 L347 457 Z " />
<glyph glyph-name="Eng" unicode="&#x14a;" horiz-adv-x="716" d="M542 137 C539 118 536 98 534 77 C525 100 518 115 515 122 L255 660 L158 660 L53 0 L124 0 L205 514 C208 529 210 550 213 577 L492 0 L522 0 L517 -32 C510 -97 474 -157 409 -212 L457 -263 C500 -225 530 -191 547 -161 C564 -131 578 -90 587 -38 L593 0 L696 660 L625 660 L542 137 Z " />
<glyph glyph-name="eng" unicode="&#x14b;" horiz-adv-x="524" d="M347 457 C283 457 226 432 176 383 L186 446 L118 446 L48 0 L116 0 L166 326 C219 375 272 399 323 399 C379 399 403 374 394 324 L337 -32 C326 -100 290 -160 229 -212 L276 -262 C319 -223 349 -190 366 -161 C383 -132 395 -91 404 -39 L465 338 C477 409 434 457 347 457 L347 457 Z " />
<glyph glyph-name="Omacron" unicode="&#x14c;" horiz-adv-x="721" d="M312 803 L302 740 L572 740 L581 802 L312 803 Z M424 675 C310 675 221 637 156 562 C91 486 59 390 59 274 C59 77 159 -17 336 -17 C445 -17 532 19 597 90 C662 161 694 256 694 376 C694 577 607 675 424 675 L424 675 Z M422 611 C555 611 621 533 621 378 C621 279 596 199 547 138 C497 77 427 47 337 47 C200 47 132 124 132 277 C132 374 158 454 210 517 C261 580 332 611 422 611 L422 611 Z " />
<glyph glyph-name="omacron" unicode="&#x14d;" horiz-adv-x="529" d="M187 622 L177 559 L447 559 L456 621 L187 622 Z M301 457 C248 457 202 443 163 415 C86 358 54 272 54 177 C54 56 115 -11 230 -11 C305 -11 366 15 411 67 C456 118 478 184 478 264 C478 389 416 457 301 457 L301 457 Z M237 49 C162 49 124 93 124 181 C124 241 140 292 171 334 C202 376 244 397 298 397 C371 397 408 351 408 260 C408 136 344 49 237 49 L237 49 Z " />
<glyph glyph-name="Ohungarumlaut" unicode="&#x150;" horiz-adv-x="721" d="M480 839 L407 839 L331 707 L397 707 L480 839 Z M611 839 L538 839 L462 707 L528 707 L611 839 Z M424 675 C310 675 221 637 156 562 C91 486 59 390 59 274 C59 77 159 -17 336 -17 C445 -17 532 19 597 90 C662 161 694 256 694 376 C694 577 607 675 424 675 L424 675 Z M422 611 C555 611 621 533 621 378 C621 279 596 199 547 138 C497 77 427 47 337 47 C200 47 132 124 132 277 C132 374 158 454 210 517 C261 580 332 611 422 611 L422 611 Z " />
<glyph glyph-name="ohungarumlaut" unicode="&#x151;" horiz-adv-x="529" d="M288 660 L208 521 L268 521 L355 660 L288 660 Z M426 660 L346 521 L406 521 L493 660 L426 660 Z M301 457 C248 457 202 443 163 415 C86 358 54 272 54 177 C54 56 115 -11 230 -11 C305 -11 366 15 411 67 C456 118 478 184 478 264 C478 389 416 457 301 457 L301 457 Z M237 49 C162 49 124 93 124 181 C124 241 140 292 171 334 C202 376 244 397 298 397 C371 397 408 351 408 260 C408 136 344 49 237 49 L237 49 Z " />
<glyph glyph-name="OE" unicode="&#x152;" horiz-adv-x="887" d="M884 660 L573 660 C536 668 493 672 442 672 C321 672 227 636 160 565 C93 494 59 396 59 273 C59 85 140 -12 337 -12 C388 -12 431 -8 465 0 L802 0 L811 67 L544 67 L581 299 L818 299 L828 366 L592 366 L628 594 L874 594 L884 660 Z M472 63 C431 53 387 48 342 48 C202 48 132 124 132 276 C132 362 153 461 221 533 C242 556 271 574 308 589 C344 603 385 610 432 610 C479 610 520 606 556 597 L472 63 Z " />
<glyph glyph-name="oe" unicode="&#x153;" horiz-adv-x="809" d="M755 229 C760 252 763 282 763 318 C763 403 716 457 620 457 C548 457 490 424 446 359 C426 420 369 457 290 457 C217 457 160 429 118 374 C75 318 54 251 54 172 C54 48 112 -10 233 -10 C310 -10 363 14 408 89 C433 18 478 -11 562 -11 C619 -11 670 -2 717 15 L703 70 C652 56 607 49 566 49 C487 49 457 80 457 175 C457 196 458 214 461 229 L755 229 L755 229 Z M617 398 C673 398 694 371 694 316 C694 306 693 296 690 285 L474 285 C499 356 549 398 617 398 L617 398 Z M233 49 C157 49 123 92 123 185 C123 316 187 397 294 397 C369 397 400 358 400 263 C400 130 338 49 233 49 L233 49 Z " />
<glyph glyph-name="Racute" unicode="&#x154;" horiz-adv-x="558" d="M350 839 L274 707 L340 707 L423 839 L350 839 Z M362 278 C457 314 505 384 505 488 C505 603 443 661 318 661 C256 661 203 660 160 658 L57 0 L129 0 L170 261 C192 259 215 258 239 258 C257 258 275 259 292 261 L428 0 L513 0 L362 278 Z M222 594 C253 595 276 596 293 596 C392 596 432 563 432 480 C432 377 369 322 249 322 C234 322 211 323 180 324 L222 594 Z " />
<glyph glyph-name="racute" unicode="&#x155;" horiz-adv-x="311" d="M340 660 L267 660 L187 521 L253 521 L340 660 Z M332 448 C316 450 301 451 288 451 C237 451 200 434 179 399 L187 446 L118 446 L48 0 L116 0 L172 346 C192 373 229 387 282 387 C283 387 296 386 322 384 L332 448 Z " />
<glyph glyph-name="Rcommaaccent" unicode="&#x156;" horiz-adv-x="558" d="M362 278 C457 314 505 384 505 488 C505 603 443 661 318 661 C256 661 203 660 160 658 L57 0 L129 0 L170 261 C192 259 215 258 239 258 C257 258 275 259 292 261 L428 0 L513 0 L362 278 Z M222 594 C253 595 276 596 293 596 C392 596 432 563 432 480 C432 377 369 322 249 322 C234 322 211 323 180 324 L222 594 Z M225 -65 C214 -65 202 -68 188 -73 L195 -168 L156 -245 L208 -245 L250 -190 C273 -161 284 -136 284 -116 C284 -87 262 -65 225 -65 L225 -65 Z " />
<glyph glyph-name="rcommaaccent" unicode="&#x157;" horiz-adv-x="311" d="M332 448 C316 450 301 451 288 451 C237 451 200 434 179 399 L187 446 L118 446 L48 0 L116 0 L172 346 C192 373 229 387 282 387 C283 387 296 386 322 384 L332 448 Z M73 -65 C62 -65 50 -68 36 -73 L43 -168 L4 -245 L56 -245 L98 -190 C121 -161 132 -136 132 -116 C132 -87 110 -65 73 -65 L73 -65 Z " />
<glyph glyph-name="Rcaron" unicode="&#x158;" horiz-adv-x="558" d="M455 840 L376 840 L311 750 L272 839 L200 839 L259 708 L352 708 L455 840 Z M362 278 C457 314 505 384 505 488 C505 603 443 661 318 661 C256 661 203 660 160 658 L57 0 L129 0 L170 261 C192 259 215 258 239 258 C257 258 275 259 292 261 L428 0 L513 0 L362 278 Z M222 594 C253 595 276 596 293 596 C392 596 432 563 432 480 C432 377 369 322 249 322 C234 322 211 323 180 324 L222 594 Z " />
<glyph glyph-name="rcaron" unicode="&#x159;" horiz-adv-x="311" d="M375 660 L296 660 L227 564 L186 660 L114 660 L175 521 L268 521 L375 660 Z M187 446 L118 446 L48 0 L116 0 L172 346 C192 373 229 387 282 387 C283 387 296 386 322 384 L332 448 C316 450 301 451 288 451 C237 451 200 434 179 399 L187 446 Z " />
<glyph glyph-name="Sacute" unicode="&#x15a;" horiz-adv-x="480" d="M411 839 L338 839 L262 707 L328 707 L411 839 Z M288 672 C176 672 101 603 101 500 C101 460 109 431 138 396 C152 378 164 364 175 354 C185 344 203 327 228 304 C275 261 306 232 321 215 C335 198 342 181 342 165 C342 130 323 55 216 55 C172 55 120 64 61 81 L45 15 C106 -3 163 -12 217 -12 C381 -12 415 107 415 168 C418 195 404 226 391 246 C384 257 357 284 347 294 C342 299 331 308 316 323 C300 338 288 348 281 355 C234 399 205 429 192 446 C179 463 173 481 173 500 C173 567 215 607 287 607 C326 607 373 599 428 584 L443 647 C382 664 331 672 288 672 L288 672 Z " />
<glyph glyph-name="sacute" unicode="&#x15b;" horiz-adv-x="354" d="M342 660 L269 660 L189 521 L255 521 L342 660 Z M207 456 C122 456 64 400 64 325 C64 200 230 199 230 118 C230 82 199 49 148 49 C119 49 84 55 44 68 L28 11 C71 -4 111 -11 150 -11 C230 -11 297 35 297 119 C297 251 130 244 130 332 C130 369 158 397 210 397 C234 397 266 391 306 380 L321 437 C276 450 238 456 207 456 L207 456 Z " />
<glyph glyph-name="Scedilla" unicode="&#x15e;" horiz-adv-x="480" d="M287 607 C326 607 373 599 428 584 L443 647 C382 664 331 672 288 672 C176 672 101 603 101 500 C101 460 109 431 138 396 C152 378 164 364 175 354 C185 344 203 327 228 304 C275 261 306 232 321 215 C335 198 342 181 342 165 C342 130 323 55 216 55 C172 55 120 64 61 81 L45 15 C87 3 127 -5 165 -9 C164 -14 162 -20 161 -28 C156 -55 163 -66 188 -89 C205 -103 213 -116 211 -128 C206 -154 188 -167 156 -167 C141 -167 129 -166 118 -164 L109 -218 L152 -222 C223 -222 263 -193 272 -134 C277 -104 267 -79 244 -58 C224 -39 221 -36 224 -16 C224 -14 224 -13 225 -12 C298 -11 354 18 380 58 C406 97 415 132 415 168 C418 195 404 226 391 246 C384 257 357 284 347 294 C342 299 331 308 316 323 C300 338 288 348 281 355 C234 399 205 429 192 446 C179 463 173 481 173 500 C173 567 215 607 287 607 L287 607 Z " />
<glyph glyph-name="scedilla" unicode="&#x15f;" horiz-adv-x="354" d="M210 397 C234 397 266 391 306 380 L321 437 C276 450 238 456 207 456 C122 456 64 400 64 325 C64 200 230 199 230 118 C230 82 199 49 148 49 C119 49 84 55 44 68 L28 11 C55 2 81 -4 106 -7 C103 -16 102 -23 101 -28 C96 -55 103 -66 128 -89 C145 -103 153 -116 151 -128 C146 -154 128 -167 96 -167 C81 -167 69 -166 58 -164 L49 -218 L92 -222 C163 -222 203 -193 212 -134 C217 -104 207 -79 184 -58 C164 -39 161 -36 164 -16 C164 -13 164 -11 165 -10 C240 -5 297 40 297 119 C297 251 130 244 130 332 C130 369 158 397 210 397 L210 397 Z " />
<glyph glyph-name="Scaron" unicode="&#x160;" horiz-adv-x="480" d="M443 840 L364 840 L299 750 L260 839 L188 839 L247 708 L340 708 L443 840 Z M101 500 C101 460 109 431 138 396 C152 378 164 364 175 354 C185 344 203 327 228 304 C275 261 306 232 321 215 C335 198 342 181 342 165 C342 130 323 55 216 55 C172 55 120 64 61 81 L45 15 C106 -3 163 -12 217 -12 C381 -12 415 107 415 168 C418 195 404 226 391 246 C384 257 357 284 347 294 C342 299 331 308 316 323 C300 338 288 348 281 355 C234 399 205 429 192 446 C179 463 173 481 173 500 C173 567 215 607 287 607 C326 607 373 599 428 584 L443 647 C382 664 331 672 288 672 C176 672 101 603 101 500 L101 500 Z " />
<glyph glyph-name="scaron" unicode="&#x161;" horiz-adv-x="354" d="M377 660 L298 660 L229 564 L188 660 L116 660 L177 521 L270 521 L377 660 Z M64 325 C64 200 230 199 230 118 C230 82 199 49 148 49 C119 49 84 55 44 68 L28 11 C71 -4 111 -11 150 -11 C230 -11 297 35 297 119 C297 251 130 244 130 332 C130 369 158 397 210 397 C234 397 266 391 306 380 L321 437 C276 450 238 456 207 456 C122 456 64 400 64 325 L64 325 Z " />
<glyph glyph-name="uni0162" unicode="&#x162;" horiz-adv-x="543" d="M274 0 L369 594 L592 594 L602 660 L81 660 L70 594 L296 594 L202 0 L205 0 C200 -10 198 -19 197 -28 C192 -55 199 -66 224 -89 C241 -103 249 -116 247 -128 C242 -154 224 -167 192 -167 C177 -167 165 -166 154 -164 L145 -218 L188 -222 C259 -222 299 -193 308 -134 C313 -104 303 -79 280 -58 C260 -39 257 -36 260 -16 C261 -11 262 -5 264 0 L274 0 Z " />
<glyph glyph-name="uni0163" unicode="&#x163;" horiz-adv-x="336" d="M318 384 L327 446 L198 446 L220 584 L151 584 L129 446 L58 446 L48 384 L119 384 L76 110 C67 54 82 18 120 2 C115 -12 113 -22 112 -28 C107 -55 114 -66 139 -89 C156 -103 164 -116 162 -128 C157 -154 139 -167 107 -167 C92 -167 80 -166 69 -164 L60 -218 L103 -222 C174 -222 214 -193 223 -134 C228 -104 218 -79 195 -58 C175 -39 172 -36 175 -16 C175 -13 176 -9 176 -8 L185 -8 C216 -8 248 -4 281 5 L270 63 C245 56 223 53 204 53 C155 53 139 69 144 106 L188 384 L318 384 Z " />
<glyph glyph-name="Tcaron" unicode="&#x164;" horiz-adv-x="543" d="M499 840 L420 840 L355 750 L316 839 L244 839 L303 708 L396 708 L499 840 Z M81 660 L70 594 L296 594 L202 0 L274 0 L369 594 L592 594 L602 660 L81 660 Z " />
<glyph glyph-name="tcaron" unicode="&#x165;" horiz-adv-x="336" d="M270 558 L328 558 L384 735 L299 735 L270 558 Z M151 584 L129 446 L58 446 L48 384 L119 384 L76 110 C63 29 98 -8 185 -8 C216 -8 248 -4 281 5 L270 63 C245 56 223 53 204 53 C155 53 139 69 144 106 L188 384 L318 384 L327 446 L198 446 L220 584 L151 584 Z " />
<glyph glyph-name="Tbar" unicode="&#x166;" horiz-adv-x="543" d="M602 660 L81 660 L70 594 L296 594 L259 361 L160 361 L150 298 L249 298 L202 0 L274 0 L322 298 L420 298 L429 360 L332 360 L369 594 L592 594 L602 660 Z " />
<glyph glyph-name="tbar" unicode="&#x167;" horiz-adv-x="336" d="M327 446 L198 446 L220 584 L151 584 L129 446 L58 446 L48 384 L119 384 L109 318 L43 318 L33 255 L99 255 L76 110 C63 29 98 -8 185 -8 C216 -8 248 -4 281 5 L270 63 C245 56 223 53 204 53 C155 53 139 69 144 106 L168 255 L293 255 L302 318 L178 318 L188 384 L318 384 L327 446 Z " />
<glyph glyph-name="Umacron" unicode="&#x16a;" horiz-adv-x="694" d="M305 803 L295 740 L565 740 L574 802 L305 803 Z M600 660 L525 189 C508 88 452 55 329 55 C186 55 143 96 159 191 L232 660 L160 660 L85 187 C65 48 137 -9 316 -12 C409 -13 476 1 518 32 C560 62 586 113 597 184 L672 660 L600 660 Z " />
<glyph glyph-name="umacron" unicode="&#x16b;" horiz-adv-x="519" d="M176 622 L166 559 L436 559 L445 621 L176 622 Z M351 114 C301 69 250 47 197 47 C144 47 122 71 131 131 L183 446 L114 446 L60 107 C48 35 90 -11 173 -11 C237 -11 293 12 342 58 L333 0 L401 0 L471 446 L403 446 L351 114 Z " />
<glyph glyph-name="Uring" unicode="&#x16e;" horiz-adv-x="694" d="M443 867 C387 867 343 819 343 762 C343 710 378 674 426 674 C482 674 526 724 526 781 C526 833 491 867 443 867 L443 867 Z M431 724 C407 724 393 742 393 767 C393 796 413 818 438 818 C462 818 477 801 477 774 C477 745 458 724 431 724 L431 724 Z M600 660 L525 189 C508 88 452 55 329 55 C186 55 143 96 159 191 L232 660 L160 660 L85 187 C65 48 137 -9 316 -12 C409 -13 476 1 518 32 C560 62 586 113 597 184 L672 660 L600 660 Z " />
<glyph glyph-name="uring" unicode="&#x16f;" horiz-adv-x="519" d="M297 503 C344 503 387 547 392 596 C397 645 366 684 318 684 C270 684 226 639 222 590 C218 541 249 503 297 503 L297 503 Z M272 592 C275 616 291 633 314 633 C331 633 346 617 343 594 C340 571 321 553 300 553 C281 553 269 569 272 592 L272 592 Z M351 114 C301 69 250 47 197 47 C144 47 122 71 131 131 L183 446 L114 446 L60 107 C48 35 90 -11 173 -11 C237 -11 293 12 342 58 L333 0 L401 0 L471 446 L403 446 L351 114 Z " />
<glyph glyph-name="Uhungarumlaut" unicode="&#x170;" horiz-adv-x="694" d="M473 839 L400 839 L324 707 L390 707 L473 839 Z M604 839 L531 839 L455 707 L521 707 L604 839 Z M600 660 L525 189 C508 88 452 55 329 55 C186 55 143 96 159 191 L232 660 L160 660 L85 187 C65 48 137 -9 316 -12 C409 -13 476 1 518 32 C560 62 586 113 597 184 L672 660 L600 660 Z " />
<glyph glyph-name="uhungarumlaut" unicode="&#x171;" horiz-adv-x="519" d="M277 660 L197 521 L257 521 L344 660 L277 660 Z M482 660 L415 660 L335 521 L395 521 L482 660 Z M351 114 C301 69 250 47 197 47 C144 47 122 71 131 131 L183 446 L114 446 L60 107 C48 35 90 -11 173 -11 C237 -11 293 12 342 58 L333 0 L401 0 L471 446 L403 446 L351 114 L351 114 Z " />
<glyph glyph-name="Uogonek" unicode="&#x172;" horiz-adv-x="694" d="M525 189 C508 88 452 55 329 55 C186 55 143 96 159 191 L232 660 L160 660 L85 187 C65 52 132 -5 299 -12 C256 -71 234 -120 234 -157 C234 -210 282 -231 378 -219 L388 -160 C331 -169 302 -160 302 -131 C302 -108 323 -68 365 -11 C514 -3 577 55 597 184 L672 660 L600 660 L525 189 Z " />
<glyph glyph-name="uogonek" unicode="&#x173;" horiz-adv-x="519" d="M330 -131 C330 -106 354 -62 402 0 L401 0 L471 446 L403 446 L351 114 C301 69 250 47 197 47 C144 47 122 71 131 131 L183 446 L114 446 L60 107 C48 35 90 -11 173 -11 C237 -11 293 12 342 58 L333 0 L335 0 C286 -67 262 -119 262 -157 C262 -210 310 -231 406 -219 L416 -160 C359 -169 330 -160 330 -131 L330 -131 Z " />
<glyph glyph-name="Wcircumflex" unicode="&#x174;" horiz-adv-x="862" d="M575 707 L647 707 L570 839 L484 839 L362 707 L443 707 L526 802 L575 707 Z M616 68 L556 660 L450 660 L198 81 L169 660 L96 660 L132 0 L236 0 L493 591 L553 0 L661 0 L907 660 L832 660 L616 68 Z " />
<glyph glyph-name="wcircumflex" unicode="&#x175;" horiz-adv-x="703" d="M460 521 L532 521 L451 660 L377 660 L248 521 L328 521 L411 616 L460 521 Z M491 57 L436 446 L342 446 L143 58 L117 446 L51 446 L82 0 L183 0 L377 380 L432 0 L536 0 L718 446 L647 446 L491 57 Z " />
<glyph glyph-name="Ycircumflex" unicode="&#x176;" horiz-adv-x="555" d="M409 707 L481 707 L404 839 L318 839 L196 707 L277 707 L360 802 L409 707 Z M339 403 C318 374 305 354 300 345 C297 353 289 373 276 404 L162 660 L80 660 L251 283 L206 0 L279 0 L325 282 L615 660 L530 660 L339 403 Z " />
<glyph glyph-name="ycircumflex" unicode="&#x177;" horiz-adv-x="444" d="M323 521 L395 521 L314 660 L240 660 L111 521 L191 521 L274 616 L323 521 Z M207 125 C195 102 185 80 176 58 L168 126 L130 446 L56 446 L124 -18 C94 -73 67 -113 42 -138 C17 -163 -14 -183 -53 -198 L-29 -256 C24 -231 64 -205 93 -176 C122 -147 155 -98 193 -30 L461 446 L385 446 L207 125 Z " />
<glyph glyph-name="Ydieresis" unicode="&#x178;" horiz-adv-x="555" d="M264 725 C295 725 319 749 319 778 C319 803 301 820 276 820 C247 820 222 795 222 766 C222 742 239 725 264 725 L264 725 Z M439 725 C468 725 493 749 493 778 C493 803 475 820 450 820 C421 820 396 795 396 766 C396 741 414 725 439 725 L439 725 Z M339 403 C318 374 305 354 300 345 C297 353 289 373 276 404 L162 660 L80 660 L251 283 L206 0 L279 0 L325 282 L615 660 L530 660 L339 403 Z " />
<glyph glyph-name="Zacute" unicode="&#x179;" horiz-adv-x="532" d="M375 839 L299 707 L365 707 L448 839 L375 839 Z M103 660 L93 594 L465 594 L-7 47 L-14 0 L476 0 L486 67 L99 67 L572 616 L578 660 L103 660 Z " />
<glyph glyph-name="zacute" unicode="&#x17a;" horiz-adv-x="455" d="M305 660 L225 521 L291 521 L378 660 L305 660 Z M89 446 L83 384 L324 384 L23 50 L19 0 L369 0 L379 62 L120 62 L419 393 L425 446 L89 446 Z " />
<glyph glyph-name="Zdotaccent" unicode="&#x17b;" horiz-adv-x="532" d="M338 725 C371 725 394 747 394 779 C394 804 377 820 352 820 C319 820 297 798 297 766 C297 741 313 725 338 725 L338 725 Z M103 660 L93 594 L465 594 L-7 47 L-14 0 L476 0 L486 67 L99 67 L572 616 L578 660 L103 660 Z " />
<glyph glyph-name="zdotaccent" unicode="&#x17c;" horiz-adv-x="455" d="M301 558 C312 567 318 578 320 592 C324 619 305 641 278 641 C250 641 227 620 223 592 C213 550 268 528 301 558 L301 558 Z M89 446 L83 384 L324 384 L23 50 L19 0 L369 0 L379 62 L120 62 L419 393 L425 446 L89 446 Z " />
<glyph glyph-name="Zcaron" unicode="&#x17d;" horiz-adv-x="532" d="M480 840 L401 840 L336 750 L297 839 L225 839 L284 708 L377 708 L480 840 Z M103 660 L93 594 L465 594 L-7 47 L-14 0 L476 0 L486 67 L99 67 L572 616 L578 660 L103 660 Z " />
<glyph glyph-name="zcaron" unicode="&#x17e;" horiz-adv-x="455" d="M413 660 L334 660 L265 564 L224 660 L152 660 L213 521 L306 521 L413 660 Z M89 446 L83 384 L324 384 L23 50 L19 0 L369 0 L379 62 L120 62 L419 393 L425 446 L89 446 Z " />
<glyph glyph-name="florin" unicode="&#x192;" horiz-adv-x="425" d="M408 610 C430 610 455 604 483 591 L505 645 L490 652 C471 660 432 670 403 670 C363 670 331 654 312 636 C303 627 294 614 287 597 C271 563 268 547 257 506 L242 446 L149 446 L140 386 L228 386 L149 66 C128 -10 113 -36 65 -36 C43 -36 18 -30 -10 -17 L-32 -71 L-18 -78 C2 -86 41 -96 70 -96 C110 -96 142 -80 161 -62 C170 -53 179 -40 187 -23 C202 12 205 27 216 68 L294 386 L428 386 L438 446 L309 446 L324 508 C343 583 359 610 408 610 L408 610 Z " />
<glyph glyph-name="Scommaaccent" unicode="&#x218;" horiz-adv-x="480" d="M288 672 C176 672 101 603 101 500 C101 460 109 431 138 396 C152 378 164 364 175 354 C185 344 203 327 228 304 C275 261 306 232 321 215 C335 198 342 181 342 165 C342 130 323 55 216 55 C172 55 120 64 61 81 L45 15 C106 -3 163 -12 217 -12 C381 -12 415 107 415 168 C418 195 404 226 391 246 C384 257 357 284 347 294 C342 299 331 308 316 323 C300 338 288 348 281 355 C234 399 205 429 192 446 C179 463 173 481 173 500 C173 567 215 607 287 607 C326 607 373 599 428 584 L443 647 C382 664 331 672 288 672 L288 672 Z M193 -65 C182 -65 170 -68 156 -73 L163 -168 L124 -245 L176 -245 L218 -190 C241 -161 252 -136 252 -116 C252 -87 230 -65 193 -65 L193 -65 Z " />
<glyph glyph-name="scommaaccent" unicode="&#x219;" horiz-adv-x="354" d="M207 456 C122 456 64 400 64 325 C64 200 230 199 230 118 C230 82 199 49 148 49 C119 49 84 55 44 68 L28 11 C71 -4 111 -11 150 -11 C230 -11 297 35 297 119 C297 251 130 244 130 332 C130 369 158 397 210 397 C234 397 266 391 306 380 L321 437 C276 450 238 456 207 456 L207 456 Z M133 -65 C122 -65 110 -68 96 -73 L103 -168 L64 -245 L116 -245 L158 -190 C181 -161 192 -136 192 -116 C192 -87 170 -65 133 -65 L133 -65 Z " />
<glyph glyph-name="uni021A" unicode="&#x21a;" horiz-adv-x="543" d="M81 660 L70 594 L296 594 L202 0 L274 0 L369 594 L592 594 L602 660 L81 660 Z M229 -65 C218 -65 206 -68 192 -73 L199 -168 L160 -245 L212 -245 L254 -190 C277 -161 288 -136 288 -116 C288 -87 266 -65 229 -65 L229 -65 Z " />
<glyph glyph-name="uni021B" unicode="&#x21b;" horiz-adv-x="336" d="M318 384 L327 446 L198 446 L220 584 L151 584 L129 446 L58 446 L48 384 L119 384 L76 110 C63 29 98 -8 185 -8 C216 -8 248 -4 281 5 L270 63 C245 56 223 53 204 53 C155 53 139 69 144 106 L188 384 L318 384 Z M144 -65 C133 -65 121 -68 107 -73 L114 -168 L75 -245 L127 -245 L169 -190 C192 -161 203 -136 203 -116 C203 -87 181 -65 144 -65 L144 -65 Z " />
<glyph glyph-name="uni0237" unicode="&#x237;" horiz-adv-x="253" d="M131 446 L55 -32 C48 -97 12 -157 -53 -212 L-5 -263 C38 -225 68 -191 85 -161 C102 -131 116 -90 125 -38 L202 446 L131 446 Z " />
<glyph glyph-name="circumflex" unicode="&#x2c6;" horiz-adv-x="344" d="M280 660 L206 660 L77 521 L157 521 L240 616 L289 521 L361 521 L280 660 Z " />
<glyph glyph-name="caron" unicode="&#x2c7;" horiz-adv-x="321" d="M212 564 L171 660 L99 660 L160 521 L253 521 L360 660 L281 660 L212 564 Z " />
<glyph glyph-name="breve" unicode="&#x2d8;" horiz-adv-x="352" d="M327 660 C308 596 278 573 229 573 C173 573 150 602 160 660 L99 660 C83 575 129 521 221 521 C310 521 366 567 391 660 L327 660 Z " />
<glyph glyph-name="dotaccent" unicode="&#x2d9;" horiz-adv-x="157" d="M185 592 C189 619 170 641 143 641 C115 641 92 620 88 592 C84 565 101 544 129 544 C157 544 181 564 185 592 L185 592 Z " />
<glyph glyph-name="ring" unicode="&#x2da;" horiz-adv-x="229" d="M120 656 C60 599 90 498 163 503 C210 503 253 547 258 596 C272 671 177 717 120 656 L120 656 Z M180 633 C197 633 212 617 209 594 C206 571 187 553 166 553 C147 553 135 569 138 592 C141 616 157 633 180 633 L180 633 Z " />
<glyph glyph-name="ogonek" unicode="&#x2db;" horiz-adv-x="216" d="M47 4 C-4 -63 -29 -117 -29 -157 C-29 -210 19 -231 115 -219 L125 -160 C68 -169 39 -160 39 -131 C39 -106 63 -62 111 0 L47 4 Z " />
<glyph glyph-name="tilde" unicode="&#x2dc;" horiz-adv-x="389" d="M370 630 C355 618 327 602 308 602 C298 602 280 608 253 621 C226 633 205 639 190 639 C159 639 126 624 89 593 L124 547 L134 555 C149 566 175 579 192 579 C201 579 219 573 248 561 C276 549 297 543 312 543 C345 543 380 560 418 595 L382 640 L370 630 Z " />
<glyph glyph-name="hungarumlaut" unicode="&#x2dd;" horiz-adv-x="323" d="M157 660 L77 521 L137 521 L224 660 L157 660 Z M295 660 L215 521 L275 521 L362 660 L295 660 Z " />
<glyph glyph-name="gravecomb" unicode="&#x300;" d="M-49 521 L17 521 L-49 660 L-121 660 L-49 521 Z " />
<glyph glyph-name="acutecomb" unicode="&#x301;" d="M39 660 L-34 660 L-114 521 L-48 521 L39 660 Z " />
<glyph glyph-name="uni0302" unicode="&#x302;" d="M-64 660 L-138 660 L-267 521 L-187 521 L-104 616 L-55 521 L17 521 L-64 660 Z " />
<glyph glyph-name="tildecomb" unicode="&#x303;" d="M-18 630 C-34 618 -62 602 -81 602 C-91 602 -110 608 -137 621 C-164 633 -184 639 -199 639 C-230 639 -263 624 -300 593 L-265 547 L-254 555 C-241 566 -214 579 -197 579 C-188 579 -170 573 -142 561 C-113 549 -92 543 -77 543 C-44 543 -9 560 29 595 L-7 640 L-18 630 Z " />
<glyph glyph-name="uni0304" unicode="&#x304;" d="M-237 622 L-247 559 L23 559 L32 621 L-237 622 Z " />
<glyph glyph-name="uni0306" unicode="&#x306;" d="M-25 660 C-44 596 -74 573 -123 573 C-179 573 -202 602 -192 660 L-253 660 C-269 575 -223 521 -131 521 C-42 521 14 567 39 660 L-25 660 Z " />
<glyph glyph-name="uni0307" unicode="&#x307;" d="M28 592 C32 619 13 641 -14 641 C-42 641 -65 620 -69 592 C-73 565 -56 544 -28 544 C0 544 24 564 28 592 L28 592 Z " />
<glyph glyph-name="uni0308" unicode="&#x308;" d="M-179 639 C-210 639 -234 614 -234 585 C-234 560 -216 542 -191 542 C-160 542 -135 567 -135 596 C-135 621 -152 639 -179 639 L-179 639 Z M-14 639 C-46 639 -70 613 -70 584 C-70 559 -52 542 -27 542 C4 542 29 566 29 597 C29 622 11 639 -14 639 L-14 639 Z " />
<glyph glyph-name="uni030A" unicode="&#x30a;" d="M-110 656 C-169 599 -139 498 -66 503 C-19 503 24 547 29 596 C43 671 -52 717 -110 656 L-110 656 Z M-49 633 C-32 633 -17 617 -20 594 C-23 571 -42 553 -63 553 C-82 553 -94 569 -91 592 C-88 616 -72 633 -49 633 L-49 633 Z " />
<glyph glyph-name="uni030B" unicode="&#x30b;" d="M-166 660 L-246 521 L-186 521 L-99 660 L-166 660 Z M-28 660 L-108 521 L-48 521 L39 660 L-28 660 Z " />
<glyph glyph-name="uni030C" unicode="&#x30c;" d="M-109 564 L-150 660 L-222 660 L-161 521 L-68 521 L39 660 L-40 660 L-109 564 Z " />
<glyph glyph-name="uni0326" unicode="&#x326;" d="M-143 -65 C-154 -65 -166 -68 -180 -73 L-173 -168 L-212 -245 L-160 -245 L-118 -190 C-95 -161 -84 -136 -84 -116 C-84 -87 -106 -65 -143 -65 L-143 -65 Z " />
<glyph glyph-name="uni0327" unicode="&#x327;" d="M-185 12 C-192 1 -196 -13 -198 -28 C-203 -55 -196 -66 -171 -89 C-154 -103 -146 -116 -148 -128 C-153 -154 -171 -167 -203 -167 C-218 -167 -230 -166 -241 -164 L-250 -218 L-207 -222 C-136 -222 -96 -193 -87 -134 C-82 -104 -92 -79 -115 -58 C-135 -39 -138 -36 -135 -16 C-134 -9 -131 1 -126 12 L-185 12 Z " />
<glyph glyph-name="uni0328" unicode="&#x328;" d="M-169 4 C-220 -63 -245 -117 -245 -157 C-245 -210 -197 -231 -101 -219 L-91 -160 C-148 -169 -177 -160 -177 -131 C-177 -106 -153 -62 -105 0 L-169 4 Z " />
<glyph glyph-name="uni0394" unicode="&#x394;" horiz-adv-x="572" d="M221 660 L-25 0 L528 0 L303 660 L221 660 Z M427 68 L79 68 L257 575 L427 68 Z " />
<glyph glyph-name="uni03A9" unicode="&#x3a9;" horiz-adv-x="790" d="M570 67 C660 114 705 203 705 334 C705 443 677 526 621 585 C565 643 490 672 395 672 C300 672 223 643 164 584 C105 525 75 440 75 330 C75 202 119 114 207 67 L38 67 L38 0 L315 0 L315 70 C211 98 150 188 150 331 C150 510 248 605 395 605 C540 605 630 509 630 332 C630 181 565 94 457 69 L457 0 L733 0 L733 67 L570 67 L570 67 Z " />
<glyph glyph-name="uni03BC" unicode="&#x3bc;" horiz-adv-x="538" d="M377 131 C368 76 334 48 275 48 C222 48 175 69 135 111 L188 446 L118 446 L8 -251 L77 -251 L124 45 C161 10 211 -8 275 -8 C373 -8 428 30 440 105 L495 446 L427 446 L377 131 Z " />
<glyph glyph-name="pi" unicode="&#x3c0;" horiz-adv-x="623" d="M62 446 L61 379 L134 379 L128 0 L200 0 L206 379 L441 379 L435 0 L507 0 L513 379 L590 379 L591 446 L62 446 Z " />
<glyph glyph-name="Wgrave" unicode="&#x1e80;" horiz-adv-x="862" d="M480 839 L410 839 L479 707 L543 707 L480 839 Z M616 68 L556 660 L450 660 L198 81 L169 660 L96 660 L132 0 L236 0 L493 591 L553 0 L661 0 L907 660 L832 660 L616 68 Z " />
<glyph glyph-name="wgrave" unicode="&#x1e81;" horiz-adv-x="703" d="M360 660 L288 660 L360 521 L426 521 L360 660 Z M491 57 L436 446 L342 446 L143 58 L117 446 L51 446 L82 0 L183 0 L377 380 L432 0 L536 0 L718 446 L647 446 L491 57 Z " />
<glyph glyph-name="Wacute" unicode="&#x1e82;" horiz-adv-x="862" d="M553 839 L477 707 L543 707 L626 839 L553 839 Z M616 68 L556 660 L450 660 L198 81 L169 660 L96 660 L132 0 L236 0 L493 591 L553 0 L661 0 L907 660 L832 660 L616 68 Z " />
<glyph glyph-name="wacute" unicode="&#x1e83;" horiz-adv-x="703" d="M443 660 L363 521 L429 521 L516 660 L443 660 Z M491 57 L436 446 L342 446 L143 58 L117 446 L51 446 L82 0 L183 0 L377 380 L432 0 L536 0 L718 446 L647 446 L491 57 Z " />
<glyph glyph-name="Wdieresis" unicode="&#x1e84;" horiz-adv-x="862" d="M430 725 C461 725 485 749 485 778 C485 803 467 820 442 820 C413 820 388 795 388 766 C388 742 405 725 430 725 L430 725 Z M605 725 C634 725 659 749 659 778 C659 803 641 820 616 820 C587 820 562 795 562 766 C562 741 580 725 605 725 L605 725 Z M616 68 L556 660 L450 660 L198 81 L169 660 L96 660 L132 0 L236 0 L493 591 L553 0 L661 0 L907 660 L832 660 L616 68 Z " />
<glyph glyph-name="wdieresis" unicode="&#x1e85;" horiz-adv-x="703" d="M318 542 C349 542 374 567 374 596 C374 621 357 639 330 639 C299 639 275 614 275 585 C275 560 293 542 318 542 L318 542 Z M482 542 C513 542 538 566 538 597 C538 622 520 639 495 639 C463 639 439 613 439 584 C439 559 457 542 482 542 L482 542 Z M491 57 L436 446 L342 446 L143 58 L117 446 L51 446 L82 0 L183 0 L377 380 L432 0 L536 0 L718 446 L647 446 L491 57 Z " />
<glyph glyph-name="Ygrave" unicode="&#x1ef2;" horiz-adv-x="555" d="M314 839 L244 839 L313 707 L377 707 L314 839 Z M339 403 C318 374 305 354 300 345 C297 353 289 373 276 404 L162 660 L80 660 L251 283 L206 0 L279 0 L325 282 L615 660 L530 660 L339 403 Z " />
<glyph glyph-name="ygrave" unicode="&#x1ef3;" horiz-adv-x="444" d="M223 660 L151 660 L223 521 L289 521 L223 660 Z M207 125 C195 102 185 80 176 58 L168 126 L130 446 L56 446 L124 -18 C94 -73 67 -113 42 -138 C17 -163 -14 -183 -53 -198 L-29 -256 C24 -231 64 -205 93 -176 C122 -147 155 -98 193 -30 L461 446 L385 446 L207 125 Z " />
<glyph glyph-name="uni2009" unicode="&#x2009;" horiz-adv-x="50" d="" />
<glyph glyph-name="figuredash" unicode="&#x2012;" horiz-adv-x="608" d="M68 199 L532 199 L542 260 L78 260 L68 199 Z " />
<glyph glyph-name="endash" unicode="&#x2013;" horiz-adv-x="568" d="M48 199 L512 199 L522 260 L58 260 L48 199 Z " />
<glyph glyph-name="emdash" unicode="&#x2014;" horiz-adv-x="1073" d="M68 199 L997 199 L1007 260 L78 260 L68 199 Z " />
<glyph glyph-name="quoteleft" unicode="&#x2018;" horiz-adv-x="247" d="M206 553 L260 660 L208 660 L132 562 C116 537 108 516 108 499 C108 464 131 440 170 440 C186 440 200 443 213 448 L206 553 Z " />
<glyph glyph-name="quoteright" unicode="&#x2019;" horiz-adv-x="247" d="M146 555 L92 448 L144 448 L220 546 C236 571 244 592 244 609 C244 644 221 668 182 668 C166 668 152 665 139 660 L146 555 Z " />
<glyph glyph-name="quotesinglbase" unicode="&#x201a;" horiz-adv-x="248" d="M61 -6 L7 -113 L59 -113 L135 -15 C151 10 159 31 159 48 C159 83 136 107 97 107 C81 107 67 104 54 99 L61 -6 Z " />
<glyph glyph-name="quotedblleft" unicode="&#x201c;" horiz-adv-x="402" d="M206 553 L260 660 L208 660 L132 562 C116 537 108 516 108 499 C108 464 131 440 170 440 C186 440 200 443 213 448 L206 553 Z M361 553 L415 660 L363 660 L287 562 C271 537 263 516 263 499 C263 464 286 440 325 440 C341 440 355 443 368 448 L361 553 Z " />
<glyph glyph-name="quotedblright" unicode="&#x201d;" horiz-adv-x="402" d="M146 555 L92 448 L144 448 L220 546 C236 571 244 592 244 609 C244 644 221 668 182 668 C166 668 152 665 139 660 L146 555 Z M301 555 L247 448 L299 448 L375 546 C391 571 399 592 399 609 C399 644 376 668 337 668 C321 668 307 665 294 660 L301 555 Z " />
<glyph glyph-name="quotedblbase" unicode="&#x201e;" horiz-adv-x="403" d="M61 -6 L7 -113 L59 -113 L135 -15 C151 10 159 31 159 48 C159 83 136 107 97 107 C81 107 67 104 54 99 L61 -6 Z M216 -6 L162 -113 L214 -113 L290 -15 C306 10 314 31 314 48 C314 83 291 107 252 107 C236 107 222 104 209 99 L216 -6 Z " />
<glyph glyph-name="dagger" unicode="&#x2020;" horiz-adv-x="590" d="M364 446 L398 660 L334 660 L300 446 L84 446 L74 385 L290 385 L189 -251 L253 -251 L354 385 L568 385 L577 446 L364 446 Z " />
<glyph glyph-name="daggerdbl" unicode="&#x2021;" horiz-adv-x="591" d="M577 446 L363 446 L397 660 L335 660 L301 446 L84 446 L74 387 L292 387 L234 26 L19 26 L9 -33 L225 -33 L190 -251 L252 -251 L287 -33 L503 -33 L512 26 L296 26 L354 387 L568 387 L577 446 Z " />
<glyph glyph-name="bullet" unicode="&#x2022;" horiz-adv-x="449" d="M340 237 C345 268 338 294 320 317 C301 339 276 350 245 350 C214 350 185 339 160 317 C135 295 119 268 114 237 C103 174 146 124 209 124 C240 124 268 135 294 157 C319 179 335 206 340 237 L340 237 Z " />
<glyph glyph-name="ellipsis" unicode="&#x2026;" horiz-adv-x="778" d="M162 86 C144 106 108 107 84 85 C44 49 62 -9 107 -9 C157 -12 192 56 162 86 L162 86 Z M407 86 C389 106 353 107 329 85 C289 49 307 -9 352 -9 C402 -12 437 56 407 86 L407 86 Z M650 86 C632 106 596 107 572 85 C532 49 550 -9 595 -9 C645 -12 680 56 650 86 L650 86 Z " />
<glyph glyph-name="perthousand" unicode="&#x2030;" horiz-adv-x="1220" d="M246 670 C147 670 81 584 81 455 C81 362 121 316 200 316 C250 316 290 337 321 380 C352 422 367 475 367 540 C367 627 327 670 246 670 L246 670 Z M691 660 L97 0 L172 0 L766 660 L691 660 Z M200 366 C157 366 135 393 135 448 C135 551 178 619 242 619 C289 619 309 595 309 535 C309 431 268 366 200 366 L200 366 Z M695 350 C596 350 530 264 530 135 C530 42 570 -4 649 -4 C699 -4 739 17 770 60 C801 102 816 155 816 220 C816 307 776 350 695 350 L695 350 Z M1055 350 C956 350 890 264 890 135 C890 42 930 -4 1009 -4 C1059 -4 1099 17 1130 60 C1161 102 1176 155 1176 220 C1176 307 1136 350 1055 350 L1055 350 Z M649 46 C606 46 584 73 584 128 C584 231 627 299 691 299 C738 299 758 275 758 215 C758 111 717 46 649 46 L649 46 Z M1009 46 C966 46 944 73 944 128 C944 231 987 299 1051 299 C1098 299 1118 275 1118 215 C1118 111 1077 46 1009 46 L1009 46 Z " />
<glyph glyph-name="guilsinglleft" unicode="&#x2039;" horiz-adv-x="330" d="M209 420 L80 259 L158 68 L229 68 L151 253 L287 420 L209 420 Z " />
<glyph glyph-name="guilsinglright" unicode="&#x203a;" horiz-adv-x="325" d="M105 420 L184 250 L51 68 L128 68 L255 247 L176 420 L105 420 Z " />
<glyph glyph-name="fraction" unicode="&#x2044;" horiz-adv-x="170" d="M361 660 L-233 0 L-158 0 L436 660 L361 660 Z " />
<glyph glyph-name="uni2070" unicode="&#x2070;" horiz-adv-x="360" d="M246 671 C147 671 81 585 81 456 C81 363 121 317 200 317 C250 317 290 338 321 381 C352 423 367 476 367 541 C367 628 327 671 246 671 L246 671 Z M200 367 C157 367 135 394 135 449 C135 552 178 620 242 620 C289 620 309 596 309 536 C309 432 268 367 200 367 L200 367 Z " />
<glyph glyph-name="uni2074" unicode="&#x2074;" horiz-adv-x="346" d="M289 435 L325 661 L253 661 L65 428 L60 390 L231 390 L220 321 L271 321 L282 390 L345 390 L351 435 L289 435 Z M263 599 L238 435 L133 435 L263 599 Z " />
<glyph glyph-name="uni2075" unicode="&#x2075;" horiz-adv-x="283" d="M295 660 L122 660 L92 474 C193 477 224 467 224 430 C224 393 192 367 144 367 C128 367 108 372 84 381 L69 329 C97 319 124 314 149 314 C230 314 281 367 281 434 C281 492 238 522 153 523 L167 611 L285 611 L295 660 Z " />
<glyph glyph-name="uni2076" unicode="&#x2076;" horiz-adv-x="322" d="M211 541 C188 541 164 533 139 517 C156 584 193 618 250 618 C269 618 288 615 308 609 L323 659 C301 666 279 669 257 669 C204 669 161 649 128 610 C95 571 79 520 79 458 C79 358 126 316 191 316 C259 316 314 359 314 434 C314 501 270 541 211 541 L211 541 Z M193 368 C152 368 131 394 131 445 L131 463 C150 480 171 488 194 488 C235 488 261 466 261 431 C261 395 236 368 193 368 L193 368 Z " />
<glyph glyph-name="uni2077" unicode="&#x2077;" horiz-adv-x="282" d="M92 611 L257 611 L44 321 L114 321 L321 609 L329 660 L99 660 L92 611 Z " />
<glyph glyph-name="uni2078" unicode="&#x2078;" horiz-adv-x="333" d="M247 495 C307 523 334 545 334 586 C334 647 280 671 219 671 C147 671 95 629 95 572 C95 545 113 519 149 494 C96 467 69 433 69 393 C69 335 108 306 186 306 C271 306 324 348 324 409 C324 442 296 466 247 495 L247 495 Z M219 624 C258 624 277 611 277 586 C277 559 253 540 206 519 C171 542 153 563 153 582 C153 607 179 624 219 624 L219 624 Z M189 357 C147 357 126 371 126 398 C126 424 147 447 190 468 C191 467 194 466 197 464 C239 441 262 424 266 399 C266 374 237 357 189 357 L189 357 Z " />
<glyph glyph-name="uni2079" unicode="&#x2079;" horiz-adv-x="324" d="M215 671 C143 671 94 623 94 551 C94 484 136 441 200 441 C221 441 243 447 266 460 C245 377 190 348 101 375 L86 325 C157 305 216 315 261 354 C306 393 329 451 329 526 C329 629 283 671 215 671 L215 671 Z M147 555 C147 595 172 619 211 619 C266 619 283 572 276 515 C257 500 237 493 214 493 C169 493 147 514 147 555 L147 555 Z " />
<glyph glyph-name="uni207F" unicode="&#x207f;" horiz-adv-x="394" d="M284 669 C241 669 205 653 174 622 L180 663 L124 663 L74 345 L133 345 L169 576 C198 601 230 614 266 614 C302 614 323 601 318 568 L284 345 L346 345 L382 584 C390 635 351 669 284 669 L284 669 Z " />
<glyph glyph-name="uni2080" unicode="&#x2080;" horiz-adv-x="360" d="M200 350 C101 350 35 264 35 135 C35 42 75 -4 154 -4 C204 -4 244 17 275 60 C306 102 321 155 321 220 C321 307 281 350 200 350 L200 350 Z M154 46 C111 46 89 73 89 128 C89 231 132 299 196 299 C243 299 263 275 263 215 C263 111 222 46 154 46 L154 46 Z " />
<glyph glyph-name="uni2081" unicode="&#x2081;" horiz-adv-x="237" d="M44 327 L47 274 L123 287 L77 0 L136 0 L190 339 L132 339 L44 327 Z " />
<glyph glyph-name="uni2082" unicode="&#x2082;" horiz-adv-x="283" d="M202 155 C233 186 249 218 249 251 C249 318 208 350 140 350 C111 350 81 342 50 327 L53 281 C80 296 106 303 131 303 C167 303 191 283 191 247 C191 218 176 197 136 157 L8 32 L2 0 L221 0 L228 49 L93 49 L202 155 L202 155 Z " />
<glyph glyph-name="uni2083" unicode="&#x2083;" horiz-adv-x="283" d="M64 287 C97 298 120 304 135 304 C172 304 190 289 190 259 C190 222 150 200 82 200 L74 152 C139 152 172 133 172 95 C172 62 151 46 109 46 C90 46 65 51 33 60 L19 10 C50 0 81 -5 111 -5 C183 -5 226 33 226 96 C226 142 204 169 161 176 C208 183 243 215 243 264 C243 321 212 350 149 350 C123 350 94 344 62 332 L64 287 Z " />
<glyph glyph-name="uni2084" unicode="&#x2084;" horiz-adv-x="346" d="M243 114 L279 340 L207 340 L19 107 L14 69 L185 69 L174 0 L225 0 L236 69 L299 69 L305 114 L243 114 Z M217 278 L192 114 L87 114 L217 278 Z " />
<glyph glyph-name="uni2085" unicode="&#x2085;" horiz-adv-x="283" d="M249 339 L76 339 L46 153 C147 156 178 146 178 109 C178 72 146 46 98 46 C82 46 62 51 38 60 L23 8 C51 -2 78 -7 103 -7 C184 -7 235 46 235 113 C235 171 192 201 107 202 L121 290 L239 290 L249 339 Z " />
<glyph glyph-name="uni2086" unicode="&#x2086;" horiz-adv-x="322" d="M165 220 C142 220 118 212 93 196 C110 263 147 297 204 297 C223 297 242 294 262 288 L277 338 C255 345 233 348 211 348 C158 348 115 328 82 289 C49 250 33 199 33 137 C33 37 80 -5 145 -5 C213 -5 268 38 268 113 C268 180 224 220 165 220 L165 220 Z M147 47 C106 47 85 73 85 124 L85 142 C104 159 125 167 148 167 C189 167 215 145 215 110 C215 74 190 47 147 47 L147 47 Z " />
<glyph glyph-name="uni2087" unicode="&#x2087;" horiz-adv-x="282" d="M46 290 L211 290 L-2 0 L68 0 L275 288 L283 339 L53 339 L46 290 Z " />
<glyph glyph-name="uni2088" unicode="&#x2088;" horiz-adv-x="333" d="M201 174 C261 202 288 224 288 265 C288 326 234 350 173 350 C101 350 49 308 49 251 C49 224 67 198 103 173 C50 146 23 112 23 72 C23 14 62 -15 140 -15 C225 -15 278 27 278 88 C278 121 250 145 201 174 L201 174 Z M173 303 C212 303 231 290 231 265 C231 238 207 219 160 198 C125 221 107 242 107 261 C107 286 133 303 173 303 L173 303 Z M143 36 C101 36 80 50 80 77 C80 103 101 126 144 147 C145 146 148 145 151 143 C193 120 216 103 220 78 C220 53 191 36 143 36 L143 36 Z " />
<glyph glyph-name="uni2089" unicode="&#x2089;" horiz-adv-x="324" d="M169 350 C97 350 48 302 48 230 C48 163 90 120 154 120 C175 120 197 126 220 139 C199 56 144 27 55 54 L40 4 C111 -16 170 -6 215 33 C260 72 283 130 283 205 C283 308 237 350 169 350 L169 350 Z M101 234 C101 274 126 298 165 298 C220 298 237 251 230 194 C211 179 191 172 168 172 C123 172 101 193 101 234 L101 234 Z " />
<glyph glyph-name="Euro" unicode="&#x20ac;" horiz-adv-x="546" d="M409 494 C451 494 491 489 530 478 L542 537 C501 548 455 554 405 554 C280 554 185 484 142 364 L72 364 L63 304 L126 304 C123 286 120 265 119 241 L54 241 L45 181 L120 181 C129 65 193 -9 324 -9 C373 -9 419 -4 462 7 L450 67 C403 58 365 53 336 53 C233 53 195 100 187 181 L449 181 L458 241 L185 241 C186 265 189 286 192 304 L468 304 L476 364 L210 364 C246 451 312 494 409 494 L409 494 Z " />
<glyph glyph-name="uni2113" unicode="&#x2113;" horiz-adv-x="415" d="M343 105 C318 64 273 31 228 31 C177 31 136 69 136 136 L136 164 C252 243 304 305 304 386 C304 451 271 499 204 499 C129 499 75 441 75 321 L75 161 L14 122 L27 93 L75 124 L75 117 C75 45 123 -9 208 -9 C275 -9 327 23 364 86 L343 105 L343 105 Z M136 339 C136 430 165 468 204 468 C241 468 258 433 258 386 C258 319 223 268 136 204 L136 339 Z " />
<glyph glyph-name="trademark" unicode="&#x2122;" horiz-adv-x="801" d="M172 611 L117 345 L174 345 L229 611 L344 611 L354 660 L67 660 L57 611 L172 611 Z M552 425 L498 660 L420 660 L356 345 L413 345 L458 604 L517 365 L571 365 L694 601 L660 345 L715 345 L751 660 L671 660 L552 425 Z " />
<glyph glyph-name="estimated" unicode="&#x212e;" horiz-adv-x="564" d="M543 215 L543 222 C543 287 518 342 467 388 C416 433 355 456 282 456 C211 456 150 433 99 388 C48 342 23 287 23 222 C23 157 48 102 99 57 C150 12 211 -11 282 -11 C365 -11 441 23 488 79 L451 79 C406 27 350 1 283 1 C222 1 169 24 124 71 C120 75 118 80 118 85 L118 213 C118 214 119 215 122 215 L543 215 Z M447 232 C447 229 446 228 445 228 L122 228 C119 228 118 229 118 232 L118 357 C118 364 120 369 125 373 C169 419 222 442 283 442 C344 442 396 420 441 375 C445 371 447 366 447 360 L447 232 Z " />
<glyph glyph-name="uni2153" unicode="&#x2153;" horiz-adv-x="700" d="M4 0 L79 0 L673 660 L598 660 L4 0 Z M123 320 L182 320 L236 659 L178 659 L90 647 L93 594 L169 607 L123 320 Z M655 264 C655 321 624 350 561 350 C535 350 506 344 474 332 L476 287 C509 298 532 304 547 304 C584 304 602 289 602 259 C602 222 562 200 494 200 L486 152 C551 152 584 133 584 95 C584 62 563 46 521 46 C502 46 477 51 445 60 L431 10 C462 0 493 -5 523 -5 C595 -5 638 33 638 96 C638 142 616 169 573 176 C620 183 655 215 655 264 L655 264 Z " />
<glyph glyph-name="uni2154" unicode="&#x2154;" horiz-adv-x="766" d="M139 369 L248 475 C279 506 295 538 295 571 C295 638 254 670 186 670 C157 670 127 662 96 647 L99 601 C126 616 152 623 177 623 C213 623 237 603 237 567 C237 538 222 517 182 477 L54 352 L48 320 L267 320 L274 369 L139 369 Z M70 0 L145 0 L739 660 L664 660 L70 0 Z M721 264 C721 321 690 350 627 350 C601 350 572 344 540 332 L542 287 C575 298 598 304 613 304 C650 304 668 289 668 259 C668 222 628 200 560 200 L552 152 C617 152 650 133 650 95 C650 62 629 46 587 46 C568 46 543 51 511 60 L497 10 C528 0 559 -5 589 -5 C661 -5 704 33 704 96 C704 142 682 169 639 176 C686 183 721 215 721 264 L721 264 Z " />
<glyph glyph-name="oneeighth" unicode="&#x215b;" horiz-adv-x="740" d="M4 0 L79 0 L673 660 L598 660 L4 0 Z M123 320 L182 320 L236 659 L178 659 L90 647 L93 594 L169 607 L123 320 Z M603 174 C663 202 690 224 690 265 C690 326 636 350 575 350 C503 350 451 308 451 251 C451 224 469 198 505 173 C452 146 425 112 425 72 C425 14 464 -15 542 -15 C627 -15 680 27 680 88 C680 121 652 145 603 174 L603 174 Z M575 303 C614 303 633 290 633 265 C633 238 609 219 562 198 C527 221 509 242 509 261 C509 286 535 303 575 303 L575 303 Z M545 36 C503 36 482 50 482 77 C482 103 503 126 546 147 C549 146 550 144 553 143 C595 120 618 103 622 78 C622 53 593 36 545 36 L545 36 Z " />
<glyph glyph-name="threeeighths" unicode="&#x215c;" horiz-adv-x="776" d="M272 416 C272 462 250 489 207 496 C254 503 289 535 289 584 C289 641 258 670 195 670 C169 670 140 664 108 652 L110 607 C143 618 166 624 181 624 C218 624 236 609 236 579 C236 542 196 520 128 520 L120 472 C185 472 218 453 218 415 C218 382 197 366 155 366 C136 366 111 371 79 380 L65 330 C96 320 127 315 157 315 C229 315 272 353 272 416 L272 416 Z M40 0 L115 0 L709 660 L634 660 L40 0 Z M639 174 C699 202 726 224 726 265 C726 326 672 350 611 350 C539 350 487 308 487 251 C487 224 505 198 541 173 C488 146 461 112 461 72 C461 14 500 -15 578 -15 C663 -15 716 27 716 88 C716 121 688 145 639 174 L639 174 Z M611 303 C650 303 669 290 669 265 C669 238 645 219 598 198 C563 221 545 242 545 261 C545 286 571 303 611 303 L611 303 Z M581 36 C539 36 518 50 518 77 C518 103 539 126 582 147 C585 146 586 144 589 143 C631 120 654 103 658 78 C658 53 629 36 581 36 L581 36 Z " />
<glyph glyph-name="fiveeighths" unicode="&#x215d;" horiz-adv-x="786" d="M50 0 L125 0 L719 660 L644 660 L50 0 Z M281 433 C281 491 238 521 153 522 L167 610 L285 610 L295 659 L122 659 L92 473 C193 476 224 466 224 429 C224 392 192 366 144 366 C128 366 108 371 84 380 L69 328 C97 318 124 313 149 313 C230 313 281 366 281 433 L281 433 Z M649 174 C709 202 736 224 736 265 C736 326 682 350 621 350 C549 350 497 308 497 251 C497 224 515 198 551 173 C498 146 471 112 471 72 C471 14 510 -15 588 -15 C673 -15 726 27 726 88 C726 121 698 145 649 174 L649 174 Z M621 303 C660 303 679 290 679 265 C679 238 655 219 608 198 C573 221 555 242 555 261 C555 286 581 303 621 303 L621 303 Z M591 36 C549 36 528 50 528 77 C528 103 549 126 592 147 C595 146 596 144 599 143 C641 120 664 103 668 78 C668 53 639 36 591 36 L591 36 Z " />
<glyph glyph-name="seveneighths" unicode="&#x215e;" horiz-adv-x="735" d="M-1 0 L74 0 L668 660 L593 660 L-1 0 Z M321 608 L329 659 L99 659 L92 610 L257 610 L44 320 L114 320 L321 608 Z M598 174 C658 202 685 224 685 265 C685 326 631 350 570 350 C498 350 446 308 446 251 C446 224 464 198 500 173 C447 146 420 112 420 72 C420 14 459 -15 537 -15 C622 -15 675 27 675 88 C675 121 647 145 598 174 L598 174 Z M570 303 C609 303 628 290 628 265 C628 238 604 219 557 198 C522 221 504 242 504 261 C504 286 530 303 570 303 L570 303 Z M540 36 C498 36 477 50 477 77 C477 103 498 126 541 147 C544 146 545 144 548 143 C590 120 613 103 617 78 C617 53 588 36 540 36 L540 36 Z " />
<glyph glyph-name="arrowleft" unicode="&#x2190;" horiz-adv-x="787" d="M158 252 L328 408 L290 452 L37 221 L239 -25 L287 14 L137 193 L731 193 L740 252 L158 252 Z " />
<glyph glyph-name="arrowright" unicode="&#x2192;" horiz-adv-x="787" d="M498 431 L648 252 L54 252 L45 193 L627 193 L457 37 L495 -7 L748 224 L546 470 L498 431 Z " />
<glyph glyph-name="partialdiff" unicode="&#x2202;" horiz-adv-x="433" d="M196 502 C145 502 103 489 68 462 L85 438 C120 460 156 471 194 471 C242 471 282 452 315 413 C347 374 363 321 363 255 C363 248 362 237 361 222 C328 262 271 302 202 302 C157 302 118 287 86 258 C53 228 37 191 37 146 C37 105 51 69 78 38 C105 6 144 -10 195 -10 C261 -10 312 17 349 71 C386 125 404 187 404 257 C404 330 384 389 345 434 C305 479 255 502 196 502 L196 502 Z M200 20 C128 20 79 76 79 145 C79 217 135 272 207 272 C270 272 329 229 356 185 C337 89 280 20 200 20 L200 20 Z " />
<glyph glyph-name="product" unicode="&#x220f;" horiz-adv-x="615" d="M74 -86 L148 -86 L160 589 L486 589 L474 -86 L549 -86 L562 660 L88 660 L74 -86 Z " />
<glyph glyph-name="summation" unicode="&#x2211;" horiz-adv-x="527" d="M120 660 L118 595 L316 283 L107 -26 L106 -90 L536 -90 L538 -22 L196 -22 L404 286 L207 593 L548 593 L550 660 L120 660 Z " />
<glyph glyph-name="minus" unicode="&#x2212;" horiz-adv-x="501" d="M45 206 L465 206 L466 268 L46 268 L45 206 Z " />
<glyph glyph-name="radical" unicode="&#x221a;" horiz-adv-x="562" d="M289 64 L265 -2 C264 3 257 25 245 64 L106 446 L26 446 L222 -88 L304 -88 L676 839 L600 839 L289 64 Z " />
<glyph glyph-name="infinity" unicode="&#x221e;" horiz-adv-x="684" d="M516 378 C488 378 462 369 437 351 C422 340 392 310 348 262 C320 292 300 313 288 325 C264 349 218 378 177 378 C142 378 110 365 83 340 C55 315 41 275 41 222 C41 118 102 68 177 68 C199 68 220 74 241 85 C261 96 277 107 289 118 C301 129 320 149 346 177 C370 151 389 132 402 120 C428 95 472 68 515 68 C590 68 651 118 651 223 C651 330 588 378 516 378 L516 378 Z M176 126 C136 126 103 156 103 224 C103 285 127 316 175 316 C196 316 214 309 231 296 C248 283 272 257 304 219 C301 215 294 208 284 197 C263 175 259 172 242 156 C218 135 203 129 176 126 L176 126 Z M517 126 C490 129 473 135 449 157 C440 165 433 171 429 176 C420 184 394 212 387 220 C420 258 445 284 462 297 C479 310 498 316 517 316 C565 316 589 285 589 224 C589 156 557 126 517 126 L517 126 Z " />
<glyph glyph-name="integral" unicode="&#x222b;" horiz-adv-x="397" d="M482 733 L472 736 C459 739 426 742 394 742 C279 742 210 669 207 549 L196 -62 C193 -166 170 -198 93 -198 C66 -198 35 -194 1 -186 L-14 -249 L2 -252 C22 -257 64 -263 97 -263 C214 -263 268 -213 269 -68 L279 545 C280 634 332 676 405 676 C426 676 447 674 467 669 L482 733 Z " />
<glyph glyph-name="approxequal" unicode="&#x2248;" horiz-adv-x="617" d="M539 375 C538 374 514 360 499 352 C476 339 437 323 409 323 C388 323 355 333 308 354 C261 375 223 385 195 385 C154 385 98 364 28 323 L56 268 C119 304 166 322 197 322 C219 322 255 311 304 290 C353 269 389 258 412 258 C428 258 447 262 468 270 C489 278 506 285 517 292 C528 298 545 308 569 322 L539 375 Z M542 215 C541 214 536 211 526 206 C505 194 501 191 479 180 C450 166 426 156 400 156 C381 156 347 167 299 190 C251 213 215 224 191 224 C179 224 166 222 153 218 C132 212 92 191 33 156 L62 103 C125 142 170 162 196 162 C213 162 245 151 293 128 C341 105 378 93 403 93 C437 93 493 116 571 162 L542 215 Z " />
<glyph glyph-name="notequal" unicode="&#x2260;" horiz-adv-x="595" d="M532 348 L365 348 L410 472 L346 472 L301 348 L70 348 L69 286 L283 286 L248 191 L67 191 L66 129 L231 129 L184 0 L249 0 L295 129 L529 129 L530 191 L312 191 L347 286 L531 286 L532 348 Z " />
<glyph glyph-name="lessequal" unicode="&#x2264;" horiz-adv-x="629" d="M81 334 L80 281 L555 122 L556 193 L205 307 L558 421 L559 492 L81 334 Z M551 0 L551 63 L76 63 L75 0 L551 0 Z " />
<glyph glyph-name="greaterequal" unicode="&#x2265;" horiz-adv-x="621" d="M83 421 L438 308 L81 195 L80 123 L558 283 L559 337 L83 492 L83 421 Z M553 0 L554 63 L79 63 L78 0 L553 0 Z " />
<glyph glyph-name="filledbox" unicode="&#x25a0;" horiz-adv-x="562" d="M474 0 L480 386 L94 386 L88 0 L474 0 Z " />
<glyph glyph-name="uni25B6" unicode="&#x25b6;" horiz-adv-x="430" d="M97 -60 L373 222 L107 496 L97 -60 Z " />
<glyph glyph-name="uni25C0" unicode="&#x25c0;" horiz-adv-x="430" d="M57 223 L323 -50 L333 505 L57 223 Z " />
<glyph glyph-name="uni25C6" unicode="&#x25c6;" horiz-adv-x="657" d="M326 -50 L599 223 L327 495 L54 222 L326 -50 Z " />
<glyph glyph-name="lozenge" unicode="&#x25ca;" horiz-adv-x="649" d="M29 305 L323 -32 L627 297 L335 631 L29 305 Z M326 72 L121 304 L333 529 L534 297 L326 72 Z " />
<glyph glyph-name="uni25CF" unicode="&#x25cf;" horiz-adv-x="580" d="M459 57 C505 103 528 158 528 223 C528 288 505 343 459 390 C413 436 357 459 292 459 C227 459 171 436 125 390 C79 343 56 288 56 223 C56 158 79 103 125 57 C171 10 227 -13 292 -13 C357 -13 413 10 459 57 L459 57 Z " />
<glyph glyph-name="uni25D6" unicode="&#x25d6;" horiz-adv-x="377" d="M293 459 C225 459 168 436 122 390 C76 344 53 288 53 223 C53 158 76 103 122 57 C167 10 222 -13 285 -13 L293 459 Z " />
<glyph glyph-name="uni25D7" unicode="&#x25d7;" horiz-adv-x="367" d="M72 -13 C139 -13 196 10 243 56 C290 102 313 158 313 223 C313 288 290 343 244 390 C198 436 143 459 80 459 L72 -13 Z " />
<glyph glyph-name="fi" unicode="&#xfb01;" horiz-adv-x="513" d="M367 683 C406 683 446 673 487 654 L512 707 C465 732 416 744 367 744 C250 744 172 676 151 548 L134 446 L60 446 L51 386 L125 386 L63 0 L129 0 L190 386 L385 386 L325 0 L393 0 L462 446 L199 446 L212 526 C228 631 280 683 367 683 L367 683 Z " />
<glyph glyph-name="fl" unicode="&#xfb02;" horiz-adv-x="507" d="M508 721 C475 736 429 744 370 744 C242 744 174 686 153 561 L134 446 L60 446 L51 386 L125 386 L63 0 L129 0 L190 386 L320 386 L330 446 L199 446 L216 553 C231 640 282 683 367 683 C388 683 410 681 431 677 L325 0 L394 0 L508 721 L508 721 Z " />
<glyph glyph-name="uniFFE9" unicode="&#xffe9;" horiz-adv-x="587" d="M178 252 L348 408 L310 452 L57 221 L259 -25 L307 14 L157 193 L522 193 L532 252 L178 252 Z " />
<glyph glyph-name="uniFFEB" unicode="&#xffeb;" horiz-adv-x="587" d="M277 431 L427 252 L62 252 L52 193 L406 193 L236 37 L274 -7 L527 224 L325 470 L277 431 Z " />
</font>
</svg>
