<?xml version="1.0" encoding="UTF-8" standalone="no"?>
<!DOCTYPE svg  PUBLIC '-//W3C//DTD SVG 1.1//EN'  'http://www.w3.org/Graphics/SVG/1.1/DTD/svg11.dtd'>
<svg xmlns="http://www.w3.org/2000/svg">
<defs>
<font id="SkolarCyrillic-Regular" horiz-adv-x="0">
<font-face underline-position="-50" font-weight="400" descent="-200" panose-1="2 0 0 0 0 0 0 0 0 0" units-per-em="1000" unicode-range="U+000D-FB04" bbox="-188 -350 1219 977" x-height="471" underline-thickness="50" font-family="SkolarCyrillic" ascent="800" cap-height="671"/>
<missing-glyph d="M470 75v517q-18 0 -50 1t-58.5 1.5t-49.5 0.5q-1 0 -157 -3v-517q78 -3 157 -3q78 0 158 3zM67 0v670h490v-670h-490z" horiz-adv-x="624"/>
<glyph glyph-name="ff" horiz-adv-x="659" unicode="ff" d="M257 651q-59 -57 -62 -179l230 -1v12q0 94 29 163q-71 22 -122 22q-56 0 -75 -17zM341 44q45 5 80 17q4 29 4 56v292h-230v-272q0 -39 3 -75q43 -4 75 -18q0 -32 -6 -45q-80 2 -114 2q-21 0 -60 -1t-59 -1q-7 14 -7 45q45 5 80 17q4 29 4 56v292q-32 8 -75 13 q-3 12 -3 23q0 12 1 17q35 8 77 11q6 121 77 190.5t178 69.5q62 0 130 -21q49 54 125 54q67 0 130 -25q0 -65 -22 -134q-18 -4 -26 -4q-16 0 -29 8q-2 50 -8 85q-28 5 -53 5q-23 0 -43 -6.5t-25 -12.5q-16 -18 -26 -66.5t-10 -111.5v-34h121q0 -34 -4 -61h-117v-272 q0 -39 3 -75q68 -4 118 -18q0 -32 -6 -45q-110 2 -155 2q-20 0 -60 -1t-61 -1q-7 14 -7 45z"/>
<glyph glyph-name="fi" horiz-adv-x="615" unicode="fi" d="M34 462q35 8 77 11v10q0 131 53.5 207t160.5 76q105 0 205 -51q0 -75 -33 -135q-10 -5 -25 -5t-26 5q-18 46 -18 105q-37 16 -117 16q-61 0 -77 -18q-39 -45 -39 -179v-32h139q74 0 171 11l8 -8q-4 -133 -4 -288v-50q0 -39 3 -75q46 -5 75 -18q0 -32 -6 -45q-54 2 -112 2 q-21 0 -61.5 -1t-59.5 -1q-7 14 -7 45q41 4 80 18q4 25 4 55v292h-230v-272q0 -39 3 -75q50 -6 75 -18q0 -30 -6 -45q-80 2 -112 2q-21 0 -61 -1t-60 -1q-7 14 -7 45q45 5 80 17q4 29 4 56v292q-32 8 -75 13q-3 12 -3 23q0 12 1 17z"/>
<glyph glyph-name="fl" horiz-adv-x="606" unicode="fl" d="M36 422q-3 12 -3 23q0 12 1 17q35 8 77 11v10q0 136 53 209.5t154 73.5q48 0 106 -14q36 10 76 14l8 -8q-4 -133 -4 -288v-333q0 -39 3 -75q46 -5 75 -18q0 -32 -6 -45q-54 2 -112 2q-22 0 -62 -1t-59 -1q-7 14 -7 45q45 5 80 17q4 29 4 56v557q-60 27 -119 27 q-53 0 -70 -17q-36 -46 -36 -180v-32l121 -2q0 -34 -4 -61h-117v-272q0 -39 3 -75q43 -4 75 -18q0 -32 -6 -45q-88 2 -128 2q-17 0 -52 -1t-53 -1q-7 14 -7 45q41 4 80 18q4 29 4 55v292q-32 8 -75 13z"/>
<glyph glyph-name="ffi" horiz-adv-x="929" unicode="ffi" d="M257 651q-59 -57 -62 -179h230v11q0 97 28 163q-71 22 -121 22q-56 0 -75 -17zM341 44q45 5 80 17q4 29 4 56v292h-230v-272q0 -39 3 -75q43 -4 75 -18q0 -32 -6 -45q-80 2 -114 2q-21 0 -60 -1t-59 -1q-7 14 -7 45q45 5 80 17q4 29 4 56v292q-32 8 -75 13q-3 12 -3 23 q0 12 1 17q35 8 77 11q6 121 77 190.5t178 69.5q63 0 131 -21q54 54 142 54q105 0 205 -51q0 -75 -33 -135q-10 -5 -25 -5t-26 5q-18 46 -18 105q-37 16 -117 16q-61 0 -77 -18q-39 -45 -39 -179v-32h139q74 0 171 11l8 -8q-4 -133 -4 -288v-50q0 -39 3 -75q46 -5 75 -18 q0 -32 -6 -45q-54 2 -112 2q-21 0 -61.5 -1t-59.5 -1q-7 14 -7 45q41 4 80 18q4 25 4 55v292h-230v-272q0 -39 3 -75q50 -6 75 -18q0 -30 -6 -45q-80 2 -112 2q-20 0 -60 -1t-61 -1q-7 14 -7 45z"/>
<glyph glyph-name="ffl" horiz-adv-x="920" unicode="ffl" d="M257 651q-59 -57 -62 -179h230v11q0 97 27 163q-69 22 -120 22q-56 0 -75 -17zM509 504v-32l121 -2q0 -34 -4 -61h-117v-272q0 -39 3 -75q43 -4 75 -18q0 -32 -6 -45q-88 2 -128 2q-17 0 -52 -1t-53 -1q-7 14 -7 45q41 4 80 18q4 29 4 55v292h-230v-272q0 -39 3 -75 q43 -4 75 -18q0 -32 -6 -45q-80 2 -114 2q-21 0 -60 -1t-59 -1q-7 14 -7 45q45 5 80 17q4 29 4 56v292q-32 8 -75 13q-3 12 -3 23q0 12 1 17q35 8 77 11q6 121 77 190.5t178 69.5q61 0 129 -21q52 54 137 54q48 0 106 -14q36 10 76 14l8 -8q-4 -133 -4 -288v-333 q0 -39 3 -75q46 -5 75 -18q0 -32 -6 -45q-54 2 -112 2q-22 0 -62 -1t-59 -1q-7 14 -7 45q45 5 80 17q4 29 4 56v557q-60 27 -119 27q-53 0 -70 -17q-36 -46 -36 -180z"/>
<glyph glyph-name=".notdef" d="M470 75v517q-18 0 -50 1t-58.5 1.5t-49.5 0.5q-1 0 -157 -3v-517q78 -3 157 -3q78 0 158 3zM67 0v670h490v-670h-490z" horiz-adv-x="624"/>
<glyph glyph-name=".null"/>
<glyph glyph-name=".null"/>
<glyph glyph-name="nonmarkingreturn" horiz-adv-x="333"/>
<glyph glyph-name="CR" unicode=""/>
<glyph glyph-name="space" horiz-adv-x="209" unicode=" "/>
<glyph glyph-name="exclam" horiz-adv-x="299" unicode="!" d="M88 47q0 24 18 40.5t44 16.5t43.5 -16.5t17.5 -40.5t-18 -42.5t-43 -18.5q-26 0 -44 18.5t-18 42.5zM179 176q-17 -5 -29 -5t-24 5q-27 244 -27 394q0 63 4 96q24 6 48 6q23 0 49 -6q3 -34 3 -93q0 -133 -24 -397z"/>
<glyph glyph-name="quotedbl" horiz-adv-x="354" unicode='&quot;' d="M277 532q-17 -5 -31 -5q-8 0 -12 1q-24 129 -27 243q30 11 68 11q3 0 8 -0.5t8 -0.5l8 -8q-6 -141 -22 -241zM114 532q-17 -5 -31 -5q-8 0 -12 1q-24 129 -27 243q30 11 68 11q2 0 8 -0.5t8 -0.5l8 -8q-6 -141 -22 -241z"/>
<glyph glyph-name="numbersign" horiz-adv-x="611" unicode="#" d="M252 305l-24 -137h134l24 137h-134zM564 305h-110l-24 -137h100q2 -9 2 -32t-2 -32h-111l-20 -112q-31 0 -66 11l18 101h-134l-20 -112q-33 0 -66 11l18 101h-102q-3 15 -3 32q0 18 3 32h113l24 137h-102q-3 13 -3 32t3 32h113l20 110q35 0 66 -12l-17 -98h133l20 110 q35 0 66 -12l-17 -98h98q3 -15 3 -33q0 -19 -3 -31z"/>
<glyph glyph-name="dollar" horiz-adv-x="433" unicode="$" d="M134 378q0 -40 63 -68v123q-33 -3 -41 -8q-22 -17 -22 -47zM314 140q0 42 -70 71v-148q32 5 45 14q25 21 25 63zM193 -67v67q-99 5 -157 33q3 66 20 130q10 3 21 3q16 0 31 -6q4 -48 11 -86q32 -10 74 -13v168l-13 5q-131 46 -131 125q0 60 42.5 93t105.5 41v69 q11 4 23 4q15 0 28 -4v-67q77 -3 143 -27q-1 -60 -16 -115q-13 -3 -24 -3q-16 0 -28 6q-4 42 -12 70q-31 7 -63 8v-142l33 -11q120 -43 120 -122q0 -62 -42.5 -106.5t-114.5 -51.5v-68q-15 -3 -27 -3t-24 3z"/>
<glyph glyph-name="percent" horiz-adv-x="731" unicode="%" d="M123 11l435 686q31 -6 51 -33l-435 -685q-34 10 -51 32zM551 -8q-68 0 -105 49t-37 121q0 71 42.5 127t110.5 56q69 0 106.5 -49.5t37.5 -120.5q0 -70 -43.5 -126.5t-111.5 -56.5zM552 288q-25 0 -36 -11q-30 -32 -30 -94q0 -58 20 -95.5t57 -37.5q26 0 36 10 q30 32 30 95q0 58 -20 95.5t-57 37.5zM167 326q-68 0 -105 48.5t-37 120.5q0 71 43.5 127t111.5 56t105 -49t37 -121q0 -70 -43.5 -126t-111.5 -56zM168 621q-25 0 -36 -11q-30 -32 -30 -94q0 -58 20 -95.5t57 -37.5q26 0 36 10q30 32 30 95q0 58 -20 95.5t-57 37.5z"/>
<glyph glyph-name="ampersand" horiz-adv-x="737" unicode="&amp;" d="M203 533q0 -54 46 -131q50 30 74 64.5t24 61.5q0 37 -20.5 62.5t-51.5 25.5q-37 0 -52 -15q-20 -20 -20 -68zM400 91q-113 95 -204 229q-82 -55 -82 -129q0 -55 44.5 -96t118.5 -41q61 0 123 37zM651 345q-36 -130 -135 -236q68 -50 109 -50q42 0 87 16q16 -12 18 -38 q-77 -47 -128 -47q-68 0 -156 64q-102 -72 -207 -72q-97 0 -154.5 51t-57.5 125q0 133 141 208q-48 82 -48 137q0 89 52.5 137t122.5 48q61 0 100 -36.5t39 -98.5q0 -112 -158 -193q76 -108 195 -214q78 83 106 200q-38 12 -87 17q0 29 8 45q21 0 62.5 -1t60.5 -1q53 0 99 2 q6 -14 6 -45q-29 -13 -75 -18z"/>
<glyph glyph-name="quotesingle" horiz-adv-x="189" unicode="&apos;" d="M114 532q-17 -5 -31 -5q-8 0 -12 1q-24 129 -27 243q30 11 68 11q2 0 8 -0.5t8 -0.5l8 -8q-6 -141 -22 -241z"/>
<glyph glyph-name="parenleft" horiz-adv-x="349" unicode="(" d="M104 322q0 273 185 538q33 -8 45 -32q-139 -250 -139 -506t139 -506q-11 -26 -45 -34q-185 265 -185 540z"/>
<glyph glyph-name="parenright" horiz-adv-x="349" unicode=")" d="M245 322q0 -275 -185 -540q-34 8 -45 34q139 250 139 506t-139 506q12 24 45 32q185 -265 185 -538z"/>
<glyph glyph-name="asterisk" horiz-adv-x="378" unicode="*" d="M183 567q-47 -83 -87 -118q-33 18 -50 53q14 16 34.5 31t50 33.5t31.5 19.5h-12q-80 0 -133 16q0 39 22 70q20 -4 43 -14.5t53.5 -27t32.5 -17.5q-46 82 -58 134q28 16 60 16h11q7 -20 9.5 -45.5t3.5 -59t1 -37.5q45 79 88 118q31 -18 49 -53q-14 -16 -34.5 -31t-51 -34 t-31.5 -20h15q83 0 132 -16q0 -36 -22 -69q-20 4 -44.5 15t-52.5 26t-35 18q47 -73 60 -135q-29 -16 -61 -16h-9q-7 20 -10 45t-4 60.5t-1 37.5z"/>
<glyph glyph-name="plus" horiz-adv-x="540" unicode="+" d="M476 225h-173v-173q-15 -3 -31 -3q-17 0 -35 3v173h-173q-3 15 -3 31q0 17 3 35h173v173q24 4 33 4q11 0 33 -4v-173h173q4 -24 4 -33q0 -11 -4 -33z"/>
<glyph glyph-name="comma" horiz-adv-x="270" unicode="," d="M67 54q3 30 22 49t44 19q34 0 54 -20.5t20 -54.5q0 -53 -44 -111t-97 -83q-24 8 -25 30q26 26 45.5 59.5t19.5 60.5q0 38 -39 51z"/>
<glyph glyph-name="hyphen" horiz-adv-x="380" unicode="-" d="M315 214l-250 -4q-4 13 -4 31q0 16 5 36l249 5q5 -20 5 -35t-5 -33z"/>
<glyph glyph-name="period" horiz-adv-x="270" unicode="." d="M66 54q0 28 20 46t49 18t49 -18t20 -46q0 -29 -20 -48.5t-49 -19.5t-49 19.5t-20 48.5z"/>
<glyph glyph-name="slash" horiz-adv-x="424" unicode="/" d="M384 679l-269 -782q-45 5 -71 26l269 780q33 -3 71 -24z"/>
<glyph glyph-name="zero" horiz-adv-x="575" unicode="0" d="M294 -14q-114 0 -182.5 83t-68.5 187q0 45 14.5 88.5t42.5 81t75 60.5t106 23q114 0 182.5 -83t68.5 -187q0 -45 -14.5 -88.5t-42.5 -81t-75 -60.5t-106 -23zM273 53q89 0 130.5 61t41.5 155q0 42 -16.5 82.5t-40.5 65.5q-10 11 -35.5 18t-49.5 7q-90 0 -131.5 -61.5 t-41.5 -154.5q0 -41 17 -82t41 -66q10 -11 35.5 -18t49.5 -7z"/>
<glyph glyph-name="one" horiz-adv-x="353" unicode="1" d="M233 210v-70q0 -40 3 -77q60 -5 99 -18q0 -32 -8 -46q-66 2 -136 2q-25 0 -75 -1t-72 -1q-9 14 -9 46q60 5 110 19q4 25 4 56v295h-115q-9 18 -9 41q80 33 204 50l8 -8q-4 -133 -4 -288z"/>
<glyph glyph-name="two" horiz-adv-x="482" unicode="2" d="M175 1h-110q-20 29 -22 71q106 65 183.5 135.5t77.5 124.5q0 47 -32 78.5t-83 31.5q-31 0 -58 -9q-8 -34 -8 -94q-18 -9 -39 -9q-11 0 -17 2q-25 66 -25 121q91 56 177 56q78 0 124.5 -40.5t46.5 -102.5q0 -135 -201 -266l-60 -39v-1h224q23 49 36 106q9 3 17 3 q13 0 30 -7q0 -6 0.5 -17t0.5 -16q0 -61 -9 -122l-8 -8q-62 2 -245 2z"/>
<glyph glyph-name="three" horiz-adv-x="445" unicode="3" d="M373 371q0 -45 -30 -86t-79 -63q62 -9 98 -45.5t36 -89.5q0 -218 -370 -264q-11 18 -11 34q0 6 1 10q123 27 208.5 76.5t85.5 113.5q0 48 -34 77t-84 29q-34 0 -52 -3l-8 6q-2 5 -2 18q0 24 9 47q61 1 104 35t43 84q0 38 -29 65t-78 27q-40 0 -76 -9q-8 -33 -8 -90 q-18 -9 -39 -9q-11 0 -17 2q-25 63 -25 117q91 56 197 56q68 0 114 -39t46 -99z"/>
<glyph glyph-name="four" horiz-adv-x="491" unicode="4" d="M91 106h205v311h-1l-25 -69zM487 42h-110v-199q-34 -15 -73 -18l-8 8v209h-268q-14 22 -14 58l275 388q36 12 80 13l8 -8v-385l116 -7q0 -31 -6 -59z"/>
<glyph glyph-name="five" horiz-adv-x="425" unicode="5" d="M394 111q0 -112 -87.5 -187t-261.5 -101q-11 18 -11 35q0 6 1 10q72 20 130.5 47t100.5 69.5t42 90.5q0 57 -33 92.5t-91 35.5q-61 0 -113 -13l-8 8v288l8 8h90q70 0 214 2l8 -8q-1 -32 -10 -58h-226v-166q36 6 67 6q83 0 131.5 -43.5t48.5 -115.5z"/>
<glyph glyph-name="six" horiz-adv-x="520" unicode="6" d="M273 328q-71 0 -140 -80q9 -81 50 -138t98 -57q46 0 72 18q19 13 32 44.5t13 70.5q0 61 -38.5 101.5t-86.5 40.5zM424 606q-137 -49 -210 -118t-82 -172h1q69 79 164 79q83 0 134.5 -49.5t51.5 -128.5q0 -106 -70 -168.5t-161 -62.5q-56 0 -98.5 27.5t-64.5 70t-33 85.5 t-11 83q0 44 8.5 86t33 91t63 89t105 75t152.5 53q15 -13 17 -40z"/>
<glyph glyph-name="seven" horiz-adv-x="453" unicode="7" d="M95 -153l-2 13l273 570h-262q-11 -60 -14 -129q-24 -4 -31 -4q-9 0 -25 4q-9 77 -9 187l8 8q84 -2 184 -2h202q21 -21 24 -58q-151 -301 -259 -621q-56 0 -89 32z"/>
<glyph glyph-name="eight" horiz-adv-x="521" unicode="8" d="M153 499q0 -32 32.5 -59t97.5 -61q87 50 87 99q0 43 -34.5 72t-84.5 29q-21 0 -43.5 -5.5t-27.5 -10.5q-27 -23 -27 -64zM393 162q0 20 -10.5 38t-35 36t-44 29t-57.5 31q-55 -23 -86 -57.5t-31 -71.5q0 -61 40 -87.5t93 -26.5q31 0 60 8.5t39 16.5q32 27 32 84zM333 355 v-2q71 -37 108.5 -75t37.5 -86q0 -82 -67.5 -144t-167.5 -62q-197 0 -197 160q0 111 141 179v1q-61 33 -91 65t-30 72q0 81 65 132t138 51q85 0 133.5 -38t48.5 -95q0 -91 -119 -158z"/>
<glyph glyph-name="nine" horiz-adv-x="520" unicode="9" d="M247 167q71 0 138 78q-10 83 -50 140t-96 57q-46 0 -72 -18q-19 -13 -32 -44.5t-13 -70.5q0 -61 38.5 -101.5t86.5 -40.5zM96 -137q141 53 214.5 128t78.5 189h-1q-70 -80 -165 -80q-83 0 -134.5 49.5t-51.5 128.5q0 106 70 168.5t161 62.5q56 0 98.5 -28.5t64.5 -72.5 t33 -89t11 -86q0 -46 -8.5 -90t-33 -95t-63 -92.5t-105 -77.5t-152.5 -55q-15 13 -17 40z"/>
<glyph glyph-name="colon" horiz-adv-x="270" unicode=":" d="M67 408q0 26 20 44t48 18t47.5 -18t19.5 -44q0 -27 -19.5 -46.5t-47.5 -19.5t-48 19.5t-20 46.5zM67 52q0 26 20 44t48 18t47.5 -18t19.5 -44q0 -27 -19.5 -46.5t-47.5 -19.5t-48 19.5t-20 46.5z"/>
<glyph glyph-name="semicolon" horiz-adv-x="270" unicode=";" d="M67 408q0 26 20 44t48 18t47.5 -18t19.5 -44q0 -27 -19.5 -46.5t-47.5 -19.5t-48 19.5t-20 46.5zM68 54q3 30 22 49t44 19q34 0 54 -20.5t20 -54.5q0 -53 -44 -111t-97 -83q-24 8 -25 30q26 26 45.5 59.5t19.5 60.5q0 38 -39 51z"/>
<glyph glyph-name="less" horiz-adv-x="540" unicode="&lt;" d="M470 35l-421 199q-6 16 -6 34t6 35l422 199q20 -27 27 -59l-378 -174l378 -174q-7 -32 -28 -60z"/>
<glyph glyph-name="equal" horiz-adv-x="540" unicode="=" d="M476 145h-412q-3 15 -3 31q0 17 3 35h412q4 -24 4 -33q0 -11 -4 -33zM476 305h-412q-3 15 -3 31q0 17 3 35h412q4 -24 4 -33q0 -11 -4 -33z"/>
<glyph glyph-name="greater" horiz-adv-x="540" unicode="&gt;" d="M69 502l421 -199q6 -17 6 -34q0 -19 -6 -35l-422 -199q-20 27 -27 59l378 174l-378 174q7 32 28 60z"/>
<glyph glyph-name="question" horiz-adv-x="398" unicode="?" d="M118 47q0 24 18 40.5t44 16.5t43.5 -16.5t17.5 -40.5t-18 -42.5t-43 -18.5q-26 0 -44 18.5t-18 42.5zM106 502q-16 -6 -34 -6q-6 0 -18 2q-17 72 -17 142q64 45 157 45q85 0 131 -48t46 -124q0 -46 -19 -85t-42 -60.5t-50 -46t-37 -39.5q-10 -16 -10 -93q-17 -16 -50 -16 q-13 0 -23 3q-15 56 -15 107q0 22 25 47t55 45t55 50.5t25 61.5q0 50 -32 85.5t-80 35.5q-27 0 -46 -3q-15 -47 -21 -103z"/>
<glyph glyph-name="at" horiz-adv-x="897" unicode="@" d="M434 58q36 0 108 74v248q-50 37 -98 37t-65 -19q-43 -54 -43 -143q0 -81 26 -139t72 -58zM251 227q0 107 59 182t134 75q91 0 182 -44v-303q0 -51 5 -79q36 0 71.5 20t47.5 41q33 58 33 128q0 141 -88.5 237.5t-219.5 96.5q-66 0 -138.5 -26t-97.5 -50 q-117 -116 -117 -276q0 -149 91.5 -247t230.5 -98q83 0 180 27q15 -15 17 -44q-94 -54 -216 -54q-166 0 -274.5 108.5t-108.5 270.5q0 129 57.5 233t165 165t244.5 61q150 0 250.5 -114t100.5 -265q0 -125 -75 -205.5t-189 -80.5q-16 0 -30.5 27t-20.5 63q-76 -90 -136 -90 q-76 0 -117 67.5t-41 173.5z"/>
<glyph glyph-name="A" horiz-adv-x="677" unicode="A" d="M332 589l-102 -303h189l-81 230l-5 73h-1zM496 66l-55 155q-71 4 -158 4h-73l-53 -159l88 -19v-8q0 -22 -6 -40q-29 2 -111 2q-15 0 -53.5 -1t-61.5 -1q-8 21 -8 48q34 4 80 19l205 595q36 14 88 14l215 -609q38 -4 74 -19v-8q0 -22 -6 -40q-29 2 -124 2q-22 0 -64 -1 t-63 -1q-8 21 -8 48z"/>
<glyph glyph-name="B" horiz-adv-x="592" unicode="B" d="M307 608q-12 0 -28 -0.5t-36 -1.5t-31 -1v-219h75q63 0 96 31.5t33 75.5q0 48 -31.5 81.5t-77.5 33.5zM316 319h-104v-255h95q30 0 57.5 4t41 8.5t17.5 7.5q44 37 44 111q0 52 -44 88t-107 36zM167 1q-22 0 -64 -1t-63 -1q-8 21 -8 48q39 4 87 19q5 32 5 103v297 q0 76 -5 138q-48 15 -87 19q0 27 8 48q21 0 63 -1t64 -1q38 0 98 2t81 2q70 0 115.5 -43.5t45.5 -108.5q0 -103 -97 -147q72 -14 110 -56t38 -98q0 -89 -60.5 -156t-176.5 -67q-23 0 -73 2t-81 2z"/>
<glyph glyph-name="C" horiz-adv-x="606" unicode="C" d="M462 607q-40 6 -112 6q-31 0 -74 -10.5t-59 -23.5q-81 -79 -81 -213q0 -64 13 -118t40.5 -97.5t76 -68.5t112.5 -25q54 0 97 9q11 59 14 122q15 6 32 6q14 0 21 -2q15 -80 15 -173q-106 -34 -206 -34q-148 0 -227 95t-79 243q0 90 36 171t111.5 136t175.5 55 q102 0 183 -27v-9q0 -79 -23 -156q-8 -2 -23 -2q-16 0 -28 6q-3 56 -15 110z"/>
<glyph glyph-name="D" horiz-adv-x="663" unicode="D" d="M313 608q-8 0 -101 -3v-541h90q39 0 81 8.5t56 19.5q88 68 88 210q0 79 -21 146t-71 113.5t-122 46.5zM167 1q-22 0 -64 -1t-63 -1q-8 21 -8 48q39 4 87 19q5 24 5 61v339q0 76 -5 138q-48 15 -87 19q0 27 8 48q21 0 63 -1t64 -1q38 0 96 2t79 2q130 0 203 -91t73 -238 q0 -66 -20.5 -127.5t-57.5 -110.5t-95 -79t-127 -30q-18 0 -68 2t-83 2z"/>
<glyph glyph-name="E" horiz-adv-x="583" unicode="E" d="M167 669h103q173 0 235 2l8 -8q0 -5 0.5 -17t0.5 -17q0 -59 -10 -134q-13 -5 -26 -5q-14 0 -27 5q-3 60 -16 110h-223v-228l205 4l8 -8q-2 -37 -10 -62l-203 4v-250h235q22 62 36 122q12 2 19 2q16 0 34 -6q0 -95 -11 -176l-8 -8q-62 2 -235 2h-115q-22 0 -64 -1t-63 -1 q-8 21 -8 48q39 4 87 19q5 24 5 61v339q0 76 -5 138q-48 15 -87 19q0 27 8 48q21 0 63 -1t64 -1z"/>
<glyph glyph-name="F" horiz-adv-x="524" unicode="F" d="M417 367l8 -8q-2 -37 -10 -62l-203 4v-152q0 -48 4 -83q52 -4 101 -19v-8q0 -22 -7 -40q-33 2 -139 2q-23 0 -66 -1t-65 -1q-8 21 -8 48q39 4 87 19q5 32 5 103v297q0 76 -5 138q-48 15 -87 19q0 27 8 48q21 0 63 -1t64 -1h103q173 0 235 2l8 -8q0 -6 0.5 -18t0.5 -18 q0 -64 -10 -144q-13 -5 -26 -5q-14 0 -27 5q-3 67 -16 122h-223v-242z"/>
<glyph glyph-name="G" horiz-adv-x="659" unicode="G" d="M136 366q0 -64 13 -118t40.5 -97.5t76 -68.5t112.5 -25q44 0 96 12v32q0 76 -5 138q-49 14 -93 18q0 27 8 48q21 0 60 -1t56 -1q95 0 124 2q6 -18 6 -40v-8q-33 -15 -69 -19q-3 -39 -3 -168v-30q-122 -55 -222 -55q-139 0 -215 95.5t-76 242.5q0 67 21.5 130.5t61 115.5 t104.5 84t144 32q107 0 188 -27v-9q0 -79 -23 -156q-8 -2 -23 -2q-16 0 -28 6q-3 56 -15 110q-50 6 -125 6q-31 0 -74 -10.5t-59 -23.5q-81 -79 -81 -213z"/>
<glyph glyph-name="H" horiz-adv-x="754" unicode="H" d="M539 604q-48 15 -87 19q0 27 8 48q21 0 63 -1t64 -1q95 0 124 2q6 -18 6 -40v-8q-40 -15 -81 -19q-4 -44 -4 -173v-282q0 -48 4 -83q41 -4 81 -19v-8q0 -22 -6 -40q-29 2 -124 2q-22 0 -64 -1t-63 -1q-8 21 -8 48q39 4 87 19q5 30 5 95v154q-117 5 -206 5h-126v-171 q0 -48 4 -83q41 -4 81 -19v-8q0 -22 -6 -40q-29 2 -124 2q-22 0 -64 -1t-63 -1q-8 21 -8 48q39 4 87 19q5 30 5 95v305q0 76 -5 138q-48 15 -87 19q0 27 8 48q21 0 63 -1t64 -1q95 0 124 2q6 -18 6 -40v-8q-40 -15 -81 -19q-4 -44 -4 -173v-49h332v84q0 76 -5 138z"/>
<glyph glyph-name="I" horiz-adv-x="334" unicode="I" d="M119 604q-48 15 -87 19q0 27 8 48q21 0 63 -1t64 -1q95 0 124 2q6 -18 6 -40v-8q-40 -15 -81 -19q-4 -49 -4 -138v-317q0 -48 4 -83q41 -4 81 -19v-8q0 -22 -6 -40q-29 2 -124 2q-22 0 -64 -1t-63 -1q-8 21 -8 48q39 4 87 19q5 24 5 61v339q0 76 -5 138z"/>
<glyph glyph-name="J" horiz-adv-x="306" unicode="J" d="M199 466v-439q0 -115 -58.5 -172.5t-167.5 -69.5q-17 17 -17 51q81 31 118 78.5t37 132.5v419q0 76 -5 138q-48 15 -87 19q0 27 8 48q21 0 63 -1t64 -1q95 0 124 2q6 -18 6 -40v-8q-40 -15 -81 -19q-4 -49 -4 -138z"/>
<glyph glyph-name="K" horiz-adv-x="659" unicode="K" d="M557 604l-210 -213l220 -325q52 -7 87 -19q0 -34 -7 -48q-34 1 -115 1h-36l-218 321l-66 -67v-105q0 -48 4 -83q41 -4 81 -19v-8q0 -22 -6 -40q-29 2 -124 2q-22 0 -64 -1t-63 -1q-8 21 -8 48q39 4 87 19q5 30 5 95v305q0 76 -5 138q-48 15 -87 19q0 27 8 48q21 0 63 -1 t64 -1q95 0 124 2q6 -18 6 -40v-8q-40 -15 -81 -19q-4 -44 -4 -173v-89l258 262l-93 18q0 28 8 49q22 0 61.5 -1t56.5 -1q90 0 122 2q6 -18 6 -40v-8q-36 -15 -74 -19z"/>
<glyph glyph-name="L" horiz-adv-x="551" unicode="L" d="M212 466v-401h235q22 68 36 134q12 2 19 2q16 0 34 -6q0 -101 -11 -188l-8 -8q-62 2 -235 2h-115q-22 0 -64 -1t-63 -1q-8 21 -8 48q39 4 87 19q5 24 5 61v339q0 76 -5 138q-48 15 -87 19q0 27 8 48q23 0 68.5 -1t69.5 -1q102 0 132 2q7 -18 7 -40v-8q-49 -15 -101 -19 q-4 -49 -4 -138z"/>
<glyph glyph-name="M" horiz-adv-x="919" unicode="M" d="M719 66l-39 449l-3 90h-1l-182 -596q-41 -12 -91 -14l-165 520l-12 90h-1l-47 -539l84 -19v-8q0 -22 -6 -40q-29 2 -112 2q-17 0 -55 -1t-59 -1q-8 21 -8 48q39 4 90 20l48 537q-59 16 -92 19q0 27 8 48q22 0 61.5 -1t56.5 -1q55 0 98 -4l153 -483l2 -97h1l177 581 q32 3 92 3q97 0 126 2q6 -18 6 -40v-8q-34 -13 -84 -19l47 -538q46 -4 85 -19v-8q0 -22 -6 -40q-29 2 -127 2q-22 0 -64.5 -1t-63.5 -1q-8 21 -8 48z"/>
<glyph glyph-name="N" horiz-adv-x="741" unicode="N" d="M634 9q-45 -12 -94 -14l-315 520l-29 90h-1v-456q0 -48 4 -83q41 -4 81 -19v-8q0 -22 -6 -40q-29 2 -115 2q-17 0 -57 -1t-62 -1q-8 21 -8 48q39 4 87 19q5 24 5 61v339q0 76 -5 138q-48 15 -87 19q0 27 8 48q22 0 62 -1t57 -1q54 0 86 -4l290 -481l27 -90h1v372 q0 76 -5 138q-48 15 -87 19q0 27 8 48q22 0 62 -1t57 -1q86 0 115 2q6 -18 6 -40v-8q-40 -15 -81 -19q-4 -49 -4 -138v-457z"/>
<glyph glyph-name="O" horiz-adv-x="690" unicode="O" d="M364 54q25 0 60.5 10.5t48.5 23.5q33 32 57 88t24 128q0 135 -57 223.5t-171 88.5q-25 0 -60.5 -10.5t-48.5 -23.5q-33 -32 -57 -88t-24 -128q0 -135 57 -223.5t171 -88.5zM336 -18q-138 0 -214.5 96t-76.5 245q0 89 36.5 171.5t109 138t163.5 55.5q137 0 214 -96 t77 -245q0 -89 -36.5 -171.5t-109 -138t-163.5 -55.5z"/>
<glyph glyph-name="P" horiz-adv-x="563" unicode="P" d="M327 608q-13 0 -115 -3v-283q33 -4 88 -4q22 0 46.5 6t38.5 12.5t17 9.5q43 38 43 112q0 59 -29 104.5t-89 45.5zM167 669q38 0 102 2t85 2q94 0 138 -52.5t44 -134.5q0 -83 -68.5 -160.5t-155.5 -77.5q-59 0 -100 8v-107q0 -48 4 -83q52 -4 101 -19v-8q0 -22 -7 -40 q-33 2 -139 2q-23 0 -66 -1t-65 -1q-8 21 -8 48q39 4 87 19q5 24 5 61v339q0 76 -5 138q-48 15 -87 19q0 27 8 48q21 0 63 -1t64 -1z"/>
<glyph glyph-name="Q" horiz-adv-x="690" unicode="Q" d="M364 54q25 0 60.5 10.5t48.5 23.5q33 32 57 88t24 128q0 135 -57 223.5t-171 88.5q-25 0 -60.5 -10.5t-48.5 -23.5q-33 -32 -57 -88t-24 -128q0 -135 57 -223.5t171 -88.5zM645 347q0 -118 -64.5 -221.5t-170.5 -133.5q80 -99 173 -99q26 0 47 4q14 -15 14 -35 q0 -6 -2 -16q-65 -27 -147 -27q-43 0 -89 42t-106 123q-122 13 -188.5 106.5t-66.5 232.5q0 89 36.5 171.5t109 138t163.5 55.5q137 0 214 -96t77 -245z"/>
<glyph glyph-name="R" horiz-adv-x="617" unicode="R" d="M327 608q-13 0 -115 -3v-249q40 -4 86 -4q21 0 45.5 5t39.5 10t18 8q43 32 43 100q0 61 -31.5 97t-85.5 36zM449 0l-139 282q-52 0 -98 7v-140q0 -48 4 -83q41 -4 81 -19v-8q0 -22 -6 -40q-29 2 -124 2q-22 0 -64 -1t-63 -1q-8 21 -8 48q39 4 87 19q5 32 5 103v297 q0 76 -5 138q-48 15 -87 19q0 27 8 48q21 0 63 -1t64 -1q38 0 102 2t85 2q95 0 138.5 -48.5t43.5 -116.5q0 -60 -37 -118.5t-97 -87.5l116 -236q52 -7 87 -19q0 -34 -7 -48q-33 1 -112 1h-37z"/>
<glyph glyph-name="S" horiz-adv-x="544" unicode="S" d="M48 29q3 86 24 172q10 3 19 3q15 0 34 -7q3 -64 14 -122q54 -18 135 -18q31 0 60.5 9.5t35.5 15.5q34 33 34 102q0 36 -29 64.5t-71 44.5l-73 28q-34 13 -59 25.5t-53 33.5t-43 50t-15 65q0 50 20.5 88.5t54.5 59.5t72 31.5t79 10.5q104 0 193 -35q-1 -78 -22 -152 q-12 -3 -23 -3q-18 0 -29 7q-5 59 -15 98q-48 13 -115 13q-32 0 -60.5 -5.5t-34.5 -10.5q-29 -26 -29 -71q0 -40 31 -69t73 -44l86 -31q155 -56 155 -172q0 -96 -62.5 -160.5t-166.5 -64.5q-139 0 -220 44z"/>
<glyph glyph-name="T" horiz-adv-x="606" unicode="T" d="M512 605h-165v-456q0 -48 4 -83q52 -4 101 -19v-8q0 -22 -7 -40q-33 2 -143 2q-26 0 -73.5 -1t-72.5 -1q-9 21 -9 48q47 4 107 19q5 24 5 61v478h-165q-13 -57 -16 -122q-15 -5 -28 -5q-10 0 -25 5q-10 77 -10 143q0 6 0.5 18.5t0.5 18.5l8 8q62 -2 235 -2h88 q173 0 235 2l8 -8q0 -6 0.5 -18t0.5 -18q0 -64 -10 -144q-17 -5 -29 -5q-11 0 -24 5q-3 67 -16 122z"/>
<glyph glyph-name="U" horiz-adv-x="695" unicode="U" d="M599 466v-219q0 -122 -67 -193.5t-201 -71.5q-115 0 -172 60t-57 192v232q0 76 -5 138q-48 15 -87 19q0 27 8 48q21 0 63 -1t64 -1q94 0 123 2q6 -18 6 -40v-8q-40 -15 -81 -19q-3 -37 -3 -138v-201q0 -113 38.5 -162t136.5 -49q39 0 74.5 11t47.5 24q41 44 41 146v231 q0 76 -5 138q-48 15 -87 19q0 27 8 48q21 0 63 -1t64 -1q78 0 107 2q6 -18 6 -40v-8q-40 -15 -81 -19q-4 -49 -4 -138z"/>
<glyph glyph-name="V" horiz-adv-x="677" unicode="V" d="M521 604l-94 19q0 27 8 48q23 0 61.5 -1t53.5 -1q82 0 111 2q6 -18 6 -40v-8q-36 -15 -74 -19l-205 -595q-36 -14 -88 -14l-215 609q-46 15 -80 19q0 27 8 48q21 0 63 -1t64 -1q95 0 124 2q6 -18 6 -40v-8l-88 -19l154 -439l9 -85h1z"/>
<glyph glyph-name="W" horiz-adv-x="962" unicode="W" d="M246 -5l-161 609q-46 15 -80 19q0 27 8 48q21 0 63 -1t64 -1q95 0 124 2q6 -18 6 -40v-8l-88 -19l113 -439l5 -85h1l154 582q35 13 82 13l129 -510l6 -85h1l133 524l-94 19q0 27 8 48q23 0 61.5 -1t53.5 -1q82 0 111 2q6 -18 6 -40v-8q-36 -15 -74 -19l-158 -595 q-36 -14 -100 -14l-119 471l-4 101h-1l-145 -558q-36 -14 -105 -14z"/>
<glyph glyph-name="X" horiz-adv-x="658" unicode="X" d="M167 66l88 -19v-8q0 -22 -6 -40q-29 2 -114 2q-16 0 -57 -1t-66 -1q-8 21 -8 48q35 4 84 19l188 274l-183 264q-46 15 -80 19q0 27 8 48q22 0 65.5 -1t67.5 -1q97 0 125 2q6 -18 6 -48l-80 -19l135 -195l135 194l-87 19q0 28 8 49q22 0 59.5 -1t53.5 -1q85 0 116 2 q6 -18 6 -48q-36 -15 -74 -19l-178 -252l199 -286q38 -4 74 -19v-8q0 -22 -6 -40q-29 2 -132 2q-25 0 -69 -1t-65 -1q-8 21 -8 48l94 19l-150 216z"/>
<glyph glyph-name="Y" horiz-adv-x="650" unicode="Y" d="M566 604l-193 -355v-100q0 -48 4 -83q52 -4 101 -19v-8q0 -22 -7 -40q-33 2 -143 2q-26 0 -73.5 -1t-72.5 -1q-9 21 -9 48q47 4 107 19q5 24 5 61v109l-200 368q-46 15 -80 19q0 27 8 48q21 0 64 -1t68 -1q98 0 127 2q6 -18 6 -40v-8l-88 -19l150 -279l152 279l-94 19 q0 27 8 48q23 0 61.5 -1t54.5 -1q83 0 112 2q6 -18 6 -40v-8q-36 -15 -74 -19z"/>
<glyph glyph-name="Z" horiz-adv-x="606" unicode="Z" d="M302 1h-259q-11 28 -11 57v7l395 540h-289q-13 -51 -16 -110q-15 -5 -28 -5q-10 0 -25 5q-10 72 -10 134q0 6 0.5 17.5t0.5 17.5l8 7q62 -2 235 -2h210q20 -26 29 -64l-397 -540h322q22 62 36 122q12 2 19 2q16 0 34 -6q0 -95 -11 -176l-8 -8q-62 2 -235 2z"/>
<glyph glyph-name="bracketleft" horiz-adv-x="349" unicode="[" d="M122 843l8 8q105 -3 211 -3q4 -20 4 -28q0 -9 -4 -29q-59 -9 -141 -11v-918q82 -2 141 -11q3 -15 3 -29q0 -13 -3 -28q-106 0 -211 -3l-8 8v1044z"/>
<glyph glyph-name="backslash" horiz-adv-x="424" unicode="\" d="M309 -103l-269 782q38 21 71 24l269 -780q-26 -21 -71 -26z"/>
<glyph glyph-name="bracketright" horiz-adv-x="349" unicode="]" d="M219 851l8 -8v-1044l-8 -8q-105 3 -211 3q-3 15 -3 28q0 14 3 29q59 9 141 11v918q-82 2 -141 11q-4 20 -4 29q0 8 4 28q106 0 211 3z"/>
<glyph glyph-name="asciicircum" horiz-adv-x="508" unicode="^" d="M398 371l-146 186l-149 -184q-31 10 -44 34l171 258q19 4 46 4l173 -260q-19 -27 -51 -38z"/>
<glyph glyph-name="underscore" horiz-adv-x="500" unicode="_" d="M0 -121v59h500v-59h-500z"/>
<glyph glyph-name="grave" horiz-adv-x="415" unicode="`" d="M232 526l-165 170l5 19q37 19 83 21l117 -184q-12 -21 -40 -26z"/>
<glyph glyph-name="a" horiz-adv-x="487" unicode="a" d="M199 62q22 0 53.5 15t55.5 37v118q-57 -6 -105.5 -19t-58.5 -23q-20 -20 -20 -60q0 -30 18.5 -49t56.5 -19zM35 105q0 53 43.5 93.5t100.5 61t129 33.5q-1 63 -18.5 95.5t-65.5 32.5q-44 0 -79 -8q-7 -30 -7 -81q-22 -10 -39 -10q-10 0 -19 3q-24 50 -24 107 q84 51 178 51q26 0 50 -6t50.5 -21.5t42 -49t15.5 -81.5v-188q0 -51 5 -79q23 3 64 16q15 -15 15 -37q-59 -51 -114 -51q-15 0 -28.5 22t-20.5 57q-92 -79 -165 -79q-50 0 -81.5 32t-31.5 87z"/>
<glyph glyph-name="b" horiz-adv-x="545" unicode="b" d="M296 412q-57 0 -125 -43v-254q60 -62 136 -62q18 0 37.5 6.5t25.5 12.5q50 59 50 143q0 81 -33 139t-91 58zM171 470v-47q66 58 153 58q81 0 131 -65t50 -173q0 -96 -61 -176.5t-148 -80.5q-76 0 -149 55q-36 -47 -64 -61q-22 3 -29 22q33 60 33 115v559q-45 12 -79 16 q-5 17 -5 29q0 7 1 10q71 27 163 35l8 -8q-4 -133 -4 -288z"/>
<glyph glyph-name="c" horiz-adv-x="454" unicode="c" d="M256 414q-59 0 -81 -19q-50 -52 -50 -140q0 -47 11 -88.5t43.5 -75t81.5 -33.5q61 0 149 34q16 -14 17 -38q-37 -27 -89 -47.5t-94 -20.5q-103 0 -153.5 66.5t-50.5 174.5q0 96 62 175t158 79q94 0 159 -29q0 -72 -21 -130q-17 -5 -27 -5q-17 0 -32 9q-2 48 -8 83 q-28 5 -75 5z"/>
<glyph glyph-name="d" horiz-adv-x="551" unicode="d" d="M238 58q42 0 127 75v256q-71 25 -121 25t-69 -19q-50 -54 -50 -140q0 -81 30 -139t83 -58zM40 227q0 104 65 179t150 75q54 0 110 -35v230q-52 12 -91 16q-5 17 -5 29q0 7 1 10q76 27 175 35l8 -8q-4 -133 -4 -288v-333q0 -51 5 -79q23 3 64 16q15 -15 15 -37 q-59 -51 -114 -51q-17 0 -30.5 27t-20.5 65q-82 -92 -151 -92q-85 0 -131 67.5t-46 173.5z"/>
<glyph glyph-name="e" horiz-adv-x="480" unicode="e" d="M174 400q-38 -41 -48 -111h98q72 0 122 4q0 27 -4 47t-14.5 39.5t-32 29.5t-53.5 10q-49 0 -68 -19zM40 228q0 98 62 177t154 79q95 0 136.5 -51.5t41.5 -127.5q0 -40 -5 -62l-8 -8q-82 2 -181 2h-116q3 -45 15.5 -83t43.5 -67t77 -29q66 0 159 36q15 -12 17 -36 q-41 -28 -95 -50t-98 -22q-102 0 -152.5 66.5t-50.5 175.5z"/>
<glyph glyph-name="f" horiz-adv-x="345" unicode="f" d="M36 422q-3 12 -3 23q0 12 1 17q35 8 77 11v10q0 129 52.5 206t143.5 77q67 0 130 -25q0 -65 -22 -134q-18 -4 -26 -4q-16 0 -29 8q-2 50 -8 85q-28 5 -53 5q-23 0 -43 -6.5t-25 -12.5q-16 -18 -26 -66.5t-10 -111.5v-32l121 -2q0 -34 -4 -61h-117v-272q0 -39 3 -75 q68 -4 118 -18q0 -32 -6 -45q-110 2 -155 2q-21 0 -61 -1t-60 -1q-7 14 -7 45q45 5 80 17q4 29 4 56v292q-32 8 -75 13z"/>
<glyph glyph-name="g" horiz-adv-x="508" unicode="g" d="M342 307q0 42 -32 76t-83 34q-45 0 -63 -12q-15 -11 -27 -35t-12 -49q0 -50 30.5 -84.5t77.5 -34.5q44 0 70 13q14 8 26.5 36t12.5 56zM266 -16q-75 0 -113 11q-46 -48 -46 -100q0 -36 29.5 -65t100.5 -29q86 0 132 29q10 6 19 31.5t9 51.5q0 37 -30 54t-101 17zM217 138 q-14 0 -21 1q-11 -22 -11 -41q0 -23 4 -28q7 -8 96 -8q94 0 144 -32.5t50 -85.5q0 -103 -71.5 -156.5t-197.5 -53.5q-85 0 -136 43t-51 97q0 83 98 139q-12 12 -12 39q0 38 46 93q-109 28 -109 149q0 73 52.5 129.5t145.5 56.5q64 0 108 -26q41 44 116 77q32 -25 35 -69 q-40 -16 -116 -38q34 -41 34 -101q0 -75 -53 -130t-151 -55z"/>
<glyph glyph-name="h" horiz-adv-x="581" unicode="h" d="M403 117v168q0 65 -18 97.5t-73 32.5q-65 0 -126 -29v-249q0 -39 3 -75q46 -5 75 -18q0 -32 -6 -45q-54 2 -112 2q-21 0 -61.5 -1t-59.5 -1q-7 14 -7 45q45 5 80 17q4 29 4 56v559q-45 12 -79 16q-5 17 -5 29q0 7 1 10q71 27 163 35l8 -8q-4 -133 -4 -288v-38 q76 52 163 52q138 0 138 -160v-187q0 -39 3 -75q45 -5 76 -18q0 -32 -7 -45q-54 2 -112 2q-21 0 -61.5 -1t-59.5 -1q-7 14 -7 45q44 5 81 17q3 33 3 56z"/>
<glyph glyph-name="i" horiz-adv-x="305" unicode="i" d="M145 561q-21 0 -40.5 16t-19.5 38q0 28 20.5 53t48.5 25q23 0 41.5 -16t18.5 -39q0 -28 -20.5 -52.5t-48.5 -24.5zM199 187v-50q0 -39 3 -75q46 -5 75 -18q0 -32 -6 -45q-54 2 -112 2q-21 0 -61.5 -1t-59.5 -1q-7 14 -7 45q41 4 80 18q4 25 4 55v276q-45 12 -79 16 q-5 17 -5 29q0 7 1 10q71 27 163 35l8 -8q-4 -133 -4 -288z"/>
<glyph glyph-name="j" horiz-adv-x="273" unicode="j" d="M133 561q-21 0 -40.5 16t-19.5 38q0 28 20.5 53t48.5 25q23 0 41.5 -16t18.5 -39q0 -28 -20.5 -52.5t-48.5 -24.5zM187 187v-174q0 -220 -168 -270q-21 11 -21 32q105 80 105 252v366q-45 12 -79 16q-5 17 -5 29q0 7 1 10q71 27 163 35l8 -8q-4 -133 -4 -288z"/>
<glyph glyph-name="k" horiz-adv-x="559" unicode="k" d="M186 470v-206q52 21 81 36l92 111l-62 15q0 26 7 45q15 0 57 -1t65 -1q26 0 84 2q6 -14 6 -44q-36 -15 -67 -19l-128 -137q61 -122 111 -178q21 -24 38.5 -33.5t44.5 -9.5q17 0 32 3q12 -14 12 -31q0 -5 -1 -8q-14 -8 -54.5 -16t-70.5 -8q-49 0 -95.5 70.5t-78.5 170.5 l-73 -20v-74q0 -39 3 -75q46 -5 75 -18q0 -32 -6 -45q-54 2 -112 2q-21 0 -61.5 -1t-59.5 -1q-7 14 -7 45q45 5 80 17q4 29 4 56v559q-42 12 -79 16q-5 17 -5 29q0 7 1 10q71 27 163 35l8 -8q-4 -133 -4 -288z"/>
<glyph glyph-name="l" horiz-adv-x="288" unicode="l" d="M186 470v-333q0 -39 3 -75q46 -5 75 -18q0 -32 -6 -45q-54 2 -112 2q-21 0 -61.5 -1t-59.5 -1q-7 14 -7 45q45 5 80 17q4 29 4 56v559q-45 12 -79 16q-5 17 -5 29q0 7 1 10q71 27 163 35l8 -8q-4 -133 -4 -288z"/>
<glyph glyph-name="m" horiz-adv-x="858" unicode="m" d="M397 117v168q0 66 -16.5 98t-70.5 32q-51 0 -111 -41v-237q0 -39 3 -75q46 -5 75 -18q0 -32 -6 -45q-54 2 -112 2q-21 0 -61.5 -1t-59.5 -1q-7 14 -7 45q45 5 80 17q4 29 4 56v273q-36 11 -79 16q-5 17 -5 29q0 7 1 10q72 29 142 36l8 -7q6 -23 12 -59q69 69 153 69 q94 0 122 -78q71 78 162 78q134 0 134 -160v-187q0 -39 3 -75q46 -5 75 -18q0 -32 -7 -45q-52 2 -111 2q-21 0 -61.5 -1t-59.5 -1q-7 14 -7 45q45 5 80 17q4 29 4 56v168q0 66 -16.5 98t-70.5 32q-51 0 -116 -44q3 -21 3 -47v-187q0 -27 2 -75q39 -6 65 -18q0 -30 -5 -45 q-54 2 -102 2q-22 0 -60.5 -1t-50.5 -1q-8 16 -8 45q38 7 71 17q4 29 4 56z"/>
<glyph glyph-name="n" horiz-adv-x="593" unicode="n" d="M174 481l8 -7q6 -24 12 -57q91 67 168 67q138 0 138 -160v-187q0 -39 3 -75q47 -5 75 -18q0 -32 -7 -45q-52 2 -111 2q-21 0 -62 -1t-60 -1q-6 16 -6 45q46 5 80 17q4 29 4 56v168q0 65 -18 97.5t-73 32.5q-60 0 -126 -46v-232q0 -39 3 -75q46 -5 75 -18q0 -32 -6 -45 q-54 2 -112 2q-21 0 -61.5 -1t-59.5 -1q-7 14 -7 45q45 5 80 17q4 29 4 56v273q-36 11 -79 16q-5 17 -5 29q0 7 1 10q72 29 142 36z"/>
<glyph glyph-name="o" horiz-adv-x="513" unicode="o" d="M269 53q50 0 69 19q50 54 50 143q0 47 -13 90.5t-47 77.5t-84 34t-69 -19q-50 -54 -50 -143q0 -47 13 -90.5t47 -77.5t84 -34zM262 484q104 0 157.5 -66.5t53.5 -174.5q0 -98 -61.5 -177.5t-160.5 -79.5q-103 0 -157 66t-54 175q0 98 61.5 177.5t160.5 79.5z"/>
<glyph glyph-name="p" horiz-adv-x="560" unicode="p" d="M311 415q-57 0 -125 -43v-254q60 -62 136 -62q18 0 37.5 6.5t25.5 12.5q50 59 50 143q0 81 -33 139t-91 58zM169 474q3 -11 11 -53q67 63 159 63q81 0 131 -65t50 -173q0 -96 -61 -176.5t-148 -80.5q-58 0 -125 46v-149q0 -39 3 -75q66 -3 118 -18q0 -31 -6 -44 q-110 2 -155 2q-20 0 -60 -1t-61 -1q-7 14 -7 44q45 5 80 17q4 29 4 56v524q-36 11 -79 16q-5 17 -5 29q0 7 1 10q72 29 142 36z"/>
<glyph glyph-name="q" horiz-adv-x="537" unicode="q" d="M238 61q56 0 128 19v311q-70 26 -116 26q-56 0 -75 -19q-50 -54 -50 -143q0 -80 30 -137t83 -57zM366 -134v165q-82 -42 -149 -42q-85 0 -131 67t-46 171q0 107 65.5 182t149.5 75q33 0 72 -15.5t65 -37.5q35 46 62 59q22 -3 29 -22q-33 -60 -33 -115v-467q0 -39 3 -75 q46 -5 75 -18q0 -31 -6 -44q-68 2 -112 2q-19 0 -70.5 -1t-78.5 -1q-7 14 -7 44q64 5 108 17q4 29 4 56z"/>
<glyph glyph-name="r" horiz-adv-x="431" unicode="r" d="M174 481l8 -7q9 -30 17 -87q61 94 139 94q45 0 81 -13q0 -93 -18 -172q-12 -4 -26 -4q-15 0 -26 4q-4 74 -12 111q-14 2 -26 2q-32 0 -58 -16t-54 -63v-193q0 -39 3 -75q78 -5 118 -18q0 -32 -6 -45q-74 2 -155 2q-21 0 -61.5 -1t-59.5 -1q-7 14 -7 45q45 5 80 17 q4 29 4 56v273q-36 11 -79 16q-5 17 -5 29q0 7 1 10q72 29 142 36z"/>
<glyph glyph-name="s" horiz-adv-x="424" unicode="s" d="M198 -11q-96 0 -155 27q0 72 18 146q10 5 23 5q14 0 24 -5q1 -42 10 -100q28 -14 91 -14q49 0 68.5 15.5t19.5 58.5q0 42 -52 70q-17 9 -47.5 20.5t-52 21t-44 24t-34.5 37.5t-12 53q0 69 51.5 101t122.5 32q81 0 143 -19q0 -64 -18 -123q-12 -3 -23 -3q-13 0 -28 5 q-3 34 -13 77q-32 10 -64 10q-55 0 -71 -14t-16 -45q0 -28 25 -47t61 -32t72 -29t61 -46.5t25 -75.5q0 -70 -52.5 -110t-132.5 -40z"/>
<glyph glyph-name="t" horiz-adv-x="349" unicode="t" d="M97 129v280q-46 10 -75 13q-3 12 -3 23q0 12 1 17q34 9 77 12l33 136h13q21 0 38 -6v-132l156 -2q0 -34 -4 -61h-152v-242q0 -110 47 -110q41 0 99 21q17 -17 17 -45q-78 -47 -155 -47q-49 0 -70.5 35.5t-21.5 107.5z"/>
<glyph glyph-name="u" horiz-adv-x="582" unicode="u" d="M95 149v256q-32 12 -78 20q0 27 6 46q80 -2 116 -2h34l8 -8q-2 -97 -2 -273q0 -128 78 -128q28 0 67.5 25t67.5 53v267q-33 12 -78 20q0 27 6 46q80 -2 115 -2h36l8 -8q-3 -100 -3 -288v-36q0 -51 5 -79q23 3 64 16q15 -15 15 -37q-24 -21 -57 -36t-58 -15 q-18 0 -31.5 28.5t-19.5 66.5q-42 -45 -80 -70t-82 -25q-137 0 -137 163z"/>
<glyph glyph-name="v" horiz-adv-x="535" unicode="v" d="M462 408l-146 -399q-44 -14 -93 -14l-151 413q-21 12 -55 18q0 26 7 45q12 0 44.5 -1t52.5 -1q41 0 115 2q6 -15 6 -31q0 -9 -1 -14l-77 -18l100 -275l4 -73h1l125 350l-77 16q0 26 7 45q14 0 52 -1t61 -1t77 2q6 -15 6 -33q0 -8 -1 -12q-25 -13 -57 -18z"/>
<glyph glyph-name="w" horiz-adv-x="794" unicode="w" d="M656 410l-77 16q0 26 7 45q15 0 52.5 -1t59.5 -1q19 0 75 2q6 -15 6 -33q0 -8 -1 -12q-25 -13 -57 -18l-130 -399q-42 -14 -99 -14l-83 307l-6 79h-1l-103 -372q-42 -14 -96 -14l-131 413q-26 13 -55 18q0 26 7 45q12 0 44.5 -1t51.5 -1q37 0 111 2q6 -15 6 -31 q0 -9 -1 -14l-77 -18l87 -275l5 -73h1l109 405q33 10 87 10l91 -342l6 -73h1z"/>
<glyph glyph-name="x" horiz-adv-x="552" unicode="x" d="M195 414l92 -121l88 117l-64 16q0 26 7 45q14 0 51 -1t57 -1q48 0 74 2q6 -15 6 -33q0 -8 -1 -12q-28 -13 -62 -18l-121 -162l142 -186q47 -5 73 -16q1 -4 1 -12q0 -18 -6 -33q-72 2 -104 2q-28 0 -71 -1t-57 -1q-7 19 -7 45l70 14l-102 134l-100 -132l71 -16 q0 -32 -6 -45q-54 2 -102 2q-18 0 -53.5 -1t-50.5 -1q-7 15 -7 45q45 5 79 17l133 178l-128 169q-21 10 -73 18q0 26 7 45q12 0 53 -1t60 -1q70 0 108 2q6 -15 6 -31q0 -9 -1 -14z"/>
<glyph glyph-name="y" horiz-adv-x="535" unicode="y" d="M221 0l-149 408q-21 12 -55 18q0 26 7 45q12 0 44.5 -1t52.5 -1q41 0 115 2q6 -15 6 -31q0 -9 -1 -14l-77 -18l100 -275l4 -73h1l125 350l-77 16q0 26 7 45q14 0 52 -1t61 -1t77 2q6 -15 6 -33q0 -8 -1 -12q-25 -13 -57 -18l-148 -400q-97 -264 -193 -264q-60 0 -97 26 q0 26 16 44h13q66 0 107.5 38.5t75.5 113.5l15 34h-30z"/>
<glyph glyph-name="z" horiz-adv-x="478" unicode="z" d="M51 463l8 8q62 -2 235 -2h107q17 -25 18 -57l-278 -354h202q23 54 35 108q9 3 19 3q15 0 32 -7q0 -6 0.5 -17t0.5 -16q0 -61 -9 -122l-8 -8q-62 2 -235 2h-123q-14 30 -14 59l276 354h-187q-14 -57 -16 -92q-14 -3 -27 -3l-27 3q-9 60 -9 123v18z"/>
<glyph glyph-name="braceleft" horiz-adv-x="424" unicode="{" d="M288 422q0 -27 -27.5 -49.5t-78.5 -46.5q47 -18 76.5 -43t29.5 -52v-215q0 -25 7 -62.5t14 -45.5q29 -35 129 -78q-2 -36 -21 -49q-96 22 -155 72t-59 127q0 21 4 94.5t4 102.5q0 35 -5 41q-38 44 -101 75q-10 21 -10 46q70 38 111 75q5 6 5 44q0 32 -4 108t-4 96 q0 78 59 128t155 71q19 -16 21 -48q-98 -42 -129 -78q-7 -9 -14 -46.5t-7 -61.5v-205z"/>
<glyph glyph-name="bar" horiz-adv-x="318" unicode="|" d="M122 -208v1058h74v-1058h-74z"/>
<glyph glyph-name="braceright" horiz-adv-x="424" unicode="}" d="M136 220q0 27 27 49.5t78 46.5q-46 18 -75.5 43t-29.5 52v215q0 25 -7 62.5t-14 45.5q-29 35 -129 78q2 36 21 49q96 -22 155 -72t59 -127q0 -21 -4 -94.5t-4 -102.5q0 -35 5 -41q38 -44 101 -75q10 -21 10 -46q-70 -38 -111 -75q-5 -6 -5 -44q0 -32 4 -108t4 -96 q0 -78 -59 -128t-155 -71q-19 16 -21 48q98 42 129 78q7 9 14 46.5t7 61.5v205z"/>
<glyph glyph-name="asciitilde" horiz-adv-x="488" unicode="~" d="M323 181q-33 0 -88 25.5t-80 25.5q-39 0 -100 -40q-24 16 -25 44q30 28 70 50.5t65 22.5q33 0 88 -25.5t80 -25.5q39 0 100 40q24 -16 25 -44q-30 -28 -70 -50.5t-65 -22.5z"/>
<glyph glyph-name="uni00A0" horiz-adv-x="209" unicode=" "/>
<glyph glyph-name="exclamdown" horiz-adv-x="299" unicode="¡" d="M211 423q0 -24 -18 -40.5t-44 -16.5t-43.5 16.5t-17.5 40.5t18 42.5t43 18.5q26 0 44 -18.5t18 -42.5zM120 294q17 5 29 5t24 -5q27 -244 27 -394q0 -63 -4 -96q-24 -6 -48 -6t-49 6q-3 34 -3 93q0 133 24 397z"/>
<glyph glyph-name="cent" horiz-adv-x="454" unicode="¢" d="M125 267q0 -64 23 -119t73 -72v347q-34 -5 -46 -16q-50 -52 -50 -140zM221 -79v78q-92 8 -136.5 73t-44.5 167q0 85 50 159t131 91v88q11 4 23 4q15 0 27 -4v-84q86 -1 148 -29q0 -72 -21 -130q-17 -5 -27 -5q-17 0 -32 9q-2 48 -8 83q-25 4 -60 5v-356q53 1 139 34 q16 -14 17 -38q-75 -54 -156 -66v-79q-15 -3 -27 -3q-11 0 -23 3z"/>
<glyph glyph-name="sterling" horiz-adv-x="433" unicode="£" d="M192 1h-161q-10 27 -10 55q0 2 0.5 6t0.5 7q44 9 63 47t22 109h-64q-5 17 -5 29q0 14 5 29h65q5 97 50.5 160t120.5 63q65 0 124 -21q0 -75 -18 -134q-7 -1 -20 -1q-14 0 -31 5q-3 46 -11 81q-19 4 -55 4q-43 0 -59 -20q-20 -27 -20 -137h115q4 -12 4 -27q0 -18 -4 -31 h-117q-10 -100 -77 -154h212q19 47 30 92q6 1 18 1q14 0 36 -5q0 -80 -9 -152l-8 -8q-54 2 -197 2z"/>
<glyph glyph-name="yen" horiz-adv-x="460" unicode="¥" d="M80 293h80l-98 144q-25 9 -50 14q0 21 6 45q16 0 49 -1t51 -1q73 0 98 2q4 -24 4 -37v-8l-65 -12l91 -135l92 134l-67 13q0 26 5 45q16 0 45 -1t41 -1q39 0 83 2q4 -22 4 -36v-8q-26 -11 -48 -15l-97 -144h86q3 -10 3 -22q0 -13 -3 -27h-113v-51h113q3 -11 3 -22 q0 -15 -3 -28h-113v-24q0 -33 3 -61q37 -2 86 -14v-11q0 -19 -5 -34q-31 2 -127 2q-24 0 -66 -1t-62 -1q-8 20 -8 45q43 3 91 14q5 17 5 53v32h-114q-3 12 -3 25t3 25h114v51h-114q-3 12 -3 24q0 13 3 25z"/>
<glyph glyph-name="brokenbar" horiz-adv-x="314" unicode="¦" d="M120 -208v457h74v-457h-74zM120 393v457h74v-457h-74z"/>
<glyph glyph-name="section" horiz-adv-x="478" unicode="§" d="M362 258q0 24 -19 45t-40 33t-63 31.5t-61 30.5q-63 -59 -63 -115q0 -20 10.5 -36.5t31.5 -30.5t40.5 -24t51 -24.5t49.5 -24.5q63 60 63 115zM444 275q0 -86 -106 -156q61 -45 61 -105q0 -77 -52.5 -117.5t-111.5 -40.5q-88 0 -165 29q1 66 19 130q7 2 21 2q17 0 32 -6 q1 -38 8 -83q38 -12 91 -12q44 0 55 11q26 21 26 65q0 32 -29.5 57.5t-72 44.5t-85 40t-72 54.5t-29.5 77.5q0 86 106 156q-61 44 -61 105q0 77 52.5 117.5t111.5 40.5q88 0 165 -29q-1 -66 -19 -130q-7 -2 -21 -2q-17 0 -32 6q-1 38 -8 83q-37 12 -91 12q-44 0 -55 -11 q-26 -21 -26 -65q0 -32 29.5 -57.5t72 -44.5t85 -40t72 -54.5t29.5 -77.5z"/>
<glyph glyph-name="dieresis" horiz-adv-x="415" unicode="¨" d="M293 554q-18 0 -34 13.5t-16 31.5q0 24 17.5 45.5t41.5 21.5q20 0 35 -13.5t15 -33.5q0 -25 -17 -44.5t-42 -20.5zM112 554q-19 0 -34.5 13.5t-15.5 31.5q0 25 17 46t42 21q19 0 34.5 -13.5t15.5 -33.5q0 -25 -17.5 -44.5t-41.5 -20.5z"/>
<glyph glyph-name="copyright" horiz-adv-x="755" unicode="©" d="M108 323q0 -115 78 -195.5t191 -80.5t191.5 80.5t78.5 195.5t-78.5 195.5t-191.5 80.5t-191 -80.5t-78 -195.5zM40 323q0 140 98.5 239t238.5 99t239 -99t99 -239t-99 -239t-239 -99t-238.5 99t-98.5 239zM434 454q-20 3 -55 3q-45 0 -63 -12q-12 -9 -26 -37.5t-14 -65.5 q0 -65 29.5 -105.5t88.5 -40.5q28 0 48 5q6 48 7 64q17 5 30 5q10 0 15 -1q8 -43 8 -108q-60 -20 -122 -20q-87 0 -132 50t-45 129q0 75 49.5 133.5t137.5 58.5q64 0 107 -16q0 -64 -13 -104q-5 -1 -14 -1q-13 0 -28 5q-4 38 -8 58z"/>
<glyph glyph-name="ordfeminine" horiz-adv-x="334" unicode="ª" d="M139 381q24 0 59 22v64q-72 -9 -85 -18q-13 -8 -13 -31q0 -15 10.5 -26t28.5 -11zM21 398q0 45 53 74.5t124 43.5q-3 65 -46 65q-22 0 -45 -3q-5 -18 -5 -42q-17 -9 -34 -9q-5 0 -15 2q-18 29 -18 66q58 33 131 33q25 0 47 -6t42 -29t20 -62v-151q22 3 44 8q11 -9 11 -25 q-41 -39 -86 -39q-24 0 -39 42q-56 -42 -100 -42q-40 0 -62 19t-22 55z"/>
<glyph glyph-name="guillemotleft" horiz-adv-x="577" unicode="«" d="M515 437l-140 -190l146 -185q-16 -26 -44 -38l-199 197q0 2 -0.5 6t-0.5 6q0 15 7 40l195 194q23 -6 36 -30zM295 437l-140 -190l146 -185q-16 -26 -44 -38l-199 197q0 2 -0.5 6t-0.5 6q0 15 7 40l195 194q23 -6 36 -30z"/>
<glyph glyph-name="logicalnot" horiz-adv-x="540" unicode="¬" d="M486 291v-291q-22 -4 -33 -4l-33 4v225h-375q-4 22 -4 33t4 33h441z"/>
<glyph glyph-name="uni00AD" horiz-adv-x="380" unicode="­" d="M315 214l-250 -4q-4 13 -4 31q0 16 5 36l249 5q5 -20 5 -35t-5 -33z"/>
<glyph glyph-name="registered" horiz-adv-x="520" unicode="®" d="M265 613h-29v-59h20q23 0 31 7.5t8 23.5q0 12 -8 20t-22 8zM159 655l116 1q36 0 53.5 -19t17.5 -47q0 -42 -41 -64q10 -20 15.5 -29.5t16.5 -20.5t23 -11q10 0 17 2q9 -12 11 -28q-28 -14 -52 -14q-21 0 -43.5 28t-33.5 60l-23 2v-44l28 -7q1 -5 1 -14q0 -10 -3 -19h-102 q-5 10 -5 26v8l31 6v144l-31 7v9q0 16 4 24zM14 532q0 99 72.5 169.5t173.5 70.5q100 0 173 -70.5t73 -169.5q0 -100 -72.5 -170t-173.5 -70t-173.5 70t-72.5 170zM71 532q0 -79 55 -134t134 -55q78 0 133.5 55t55.5 134q0 78 -55.5 133.5t-133.5 55.5q-79 0 -134 -55.5 t-55 -133.5z"/>
<glyph glyph-name="macron" horiz-adv-x="415" unicode="¯" d="M69 617h275q6 -17 6 -33q0 -18 -6 -34h-275q-5 18 -5 32q0 17 5 35z"/>
<glyph glyph-name="degree" horiz-adv-x="364" unicode="°" d="M94 520q0 -38 25.5 -64t62.5 -26t62.5 26t25.5 64t-25.5 64t-62.5 26t-62.5 -26t-25.5 -64zM33 520q0 62 43.5 105.5t105.5 43.5t105.5 -43.5t43.5 -105.5t-43.5 -105.5t-105.5 -43.5t-105.5 43.5t-43.5 105.5z"/>
<glyph glyph-name="plusminus" horiz-adv-x="540" unicode="±" d="M469 0h-398q-3 15 -3 31q0 17 3 35h398q4 -24 4 -33q0 -11 -4 -33zM303 505v-159h166q4 -24 4 -33q0 -11 -4 -33h-166v-157q-15 -3 -31 -3q-17 0 -35 3v157h-166q-3 15 -3 31q0 17 3 35h166v159q24 4 33 4q11 0 33 -4z"/>
<glyph glyph-name="twosuperior" horiz-adv-x="350" unicode="²" d="M175 783q52 0 87.5 -31t35.5 -69q0 -89 -135 -176l-43 -27h187q4 -18 4 -30t-4 -30l-7 -7q-41 2 -156 2h-100q-10 27 -10 66q89 60 135 102t46 77q0 28 -17 46.5t-44 18.5q-14 0 -36 -4q-8 -33 -10 -75q-14 -3 -26 -3q-10 0 -22 3q-14 50 -14 108q59 29 129 29z"/>
<glyph glyph-name="threesuperior" horiz-adv-x="350" unicode="³" d="M293 700q0 -55 -61 -82q77 -19 77 -83q0 -51 -45.5 -89.5t-108.5 -38.5q-54 0 -111 19q0 62 9 110q13 4 30 4q3 0 8.5 -0.5t7.5 -0.5q8 -46 16 -70q15 -4 41 -4q37 0 53 11q17 12 17 46q0 22 -19.5 37t-46.5 15q-16 0 -23 -1l-7 7v8q0 23 8 43q34 1 53 16.5t19 34.5 q0 18 -15 30.5t-40 12.5q-21 0 -38 -3q-8 -28 -10 -64q-14 -3 -26 -3q-11 0 -22 3q-14 44 -14 96q61 29 131 29q48 0 82.5 -24.5t34.5 -58.5z"/>
<glyph glyph-name="acute" horiz-adv-x="415" unicode="´" d="M148 550l110 167q44 12 99 12l8 -23l-179 -184q-25 6 -38 28z"/>
<glyph glyph-name="mu" horiz-adv-x="610" unicode="µ" d="M428 141h-3q-49 -155 -159 -155q-88 0 -121 130h-1q12 -209 31 -362q-23 -9 -51 -9t-50 9q8 197 8 395q0 162 -20 317q22 9 50 9q29 0 51 -9v-211q0 -79 25.5 -133.5t63.5 -54.5q55 0 92 68t37 155v176q23 9 51 9t50 -9q-12 -95 -12 -179q0 -107 25 -203q48 3 86 16 q22 -19 22 -49q0 -1 -0.5 -4t-0.5 -5q-56 -56 -109 -56q-27 0 -46.5 39t-19.5 96q0 3 0.5 10t0.5 10z"/>
<glyph glyph-name="paragraph" horiz-adv-x="563" unicode="¶" d="M307 266q33 0 61 4v337q-11 1 -36 1q-57 0 -93 -25q-13 -9 -24 -47t-11 -87q0 -77 29 -130t74 -53zM338 -113q30 22 30 159v161q-49 -17 -113 -17q-39 0 -78.5 15t-73.5 42.5t-55 73t-21 100.5q0 105 80.5 178t186.5 73q19 0 60.5 -1.5t65.5 -1.5q86 0 115 2q6 -18 6 -40 v-8q-40 -15 -81 -19q-4 -49 -4 -138v-379q0 -140 -63 -223t-170 -83q-84 0 -128 31v12q0 53 35 84l10 3q45 -45 109 -45q61 0 89 21z"/>
<glyph glyph-name="periodcentered" horiz-adv-x="299" unicode="·" d="M145 169q-21 0 -40.5 16t-19.5 38q0 28 20.5 53t48.5 25q23 0 41.5 -16t18.5 -39q0 -28 -20.5 -52.5t-48.5 -24.5z"/>
<glyph glyph-name="cedilla" horiz-adv-x="415" unicode="¸" d="M237 20l-28 -63q48 -2 73.5 -22.5t25.5 -54.5q0 -45 -50 -84.5t-119 -51.5q-11 10 -11 29q98 42 98 93q0 19 -17 31.5t-48 12.5h-9l-8 8l51 102h42z"/>
<glyph glyph-name="onesuperior" horiz-adv-x="284" unicode="¹" d="M105 463q3 18 3 36v220h-59q-6 12 -6 30v7q60 23 137 29l7 -7v-267q0 -18 2 -48q29 -1 60 -10v-7q0 -11 -4 -33q-19 2 -98 2q-23 0 -55 -1t-45 -1q-5 16 -5 40q26 1 63 10z"/>
<glyph glyph-name="ordmasculine" horiz-adv-x="344" unicode="º" d="M179 377q29 0 38 9q27 29 27 79q0 42 -19 76t-59 34q-29 0 -38 -9q-27 -29 -27 -79q0 -42 19 -76t59 -34zM176 628q73 0 109.5 -40.5t36.5 -106.5q0 -60 -42.5 -108.5t-111.5 -48.5q-71 0 -108.5 40t-37.5 107q0 60 42.5 108.5t111.5 48.5z"/>
<glyph glyph-name="guillemotright" horiz-adv-x="579" unicode="»" d="M284 54l138 189l-145 186q14 25 44 37l199 -198q1 -5 1 -16q0 -19 -7 -36l-195 -193q-27 10 -35 31zM63 54l138 189l-145 186q14 25 44 37l199 -198q1 -5 1 -16q0 -19 -7 -36l-195 -193q-27 10 -35 31z"/>
<glyph glyph-name="onequarter" horiz-adv-x="916" unicode="¼" d="M738 303l-100 -130h100v130zM745 22l-7 7v94h-146q-12 21 -12 54l163 217q40 0 71 -14v-206l67 -4q1 -6 1 -17q0 -15 -4 -30h-64v-86q-32 -15 -69 -15zM202 11l435 686q31 -6 51 -33l-435 -685q-34 10 -51 32zM152 381q3 18 3 36v220h-59q-6 12 -6 30v7q60 23 137 29 l7 -7v-267q0 -18 2 -48q29 -1 60 -10v-7q0 -11 -4 -33q-19 2 -98 2q-23 0 -55 -1t-45 -1q-5 16 -5 40q26 1 63 10z"/>
<glyph glyph-name="onehalf" horiz-adv-x="916" unicode="½" d="M731 398q52 0 87.5 -31t35.5 -69q0 -89 -135 -176l-43 -27h187q4 -18 4 -30t-4 -30l-7 -7q-41 2 -156 2h-100q-10 27 -10 66q89 60 135 102t46 77q0 28 -17 46.5t-44 18.5q-14 0 -36 -4q-8 -33 -10 -75q-14 -3 -26 -3q-10 0 -22 3q-14 50 -14 108q59 29 129 29zM202 11 l435 686q31 -6 51 -33l-435 -685q-34 10 -51 32zM152 381q3 18 3 36v220h-59q-6 12 -6 30v7q60 23 137 29l7 -7v-267q0 -18 2 -48q29 -1 60 -10v-7q0 -11 -4 -33q-19 2 -98 2q-23 0 -55 -1t-45 -1q-5 16 -5 40q26 1 63 10z"/>
<glyph glyph-name="threequarters" horiz-adv-x="916" unicode="¾" d="M738 303l-100 -130h100v130zM745 22l-7 7v94h-146q-12 21 -12 54l163 217q40 0 71 -14v-206l67 -4q1 -6 1 -17q0 -15 -4 -30h-64v-86q-32 -15 -69 -15zM202 11l435 686q31 -6 51 -33l-435 -685q-34 10 -51 32zM303 618q0 -55 -61 -82q77 -19 77 -83q0 -51 -45.5 -89.5 t-108.5 -38.5q-54 0 -111 19q0 62 9 110q13 4 30 4q2 0 7.5 -0.5t8.5 -0.5q8 -46 16 -70q15 -4 41 -4q36 0 53 11q17 12 17 46q0 22 -19.5 37t-46.5 15q-16 0 -23 -1l-7 7v8q0 23 8 43q34 1 53 16.5t19 34.5q0 18 -15 30.5t-40 12.5q-21 0 -38 -3q-8 -28 -10 -64 q-13 -3 -26 -3q-11 0 -22 3q-14 44 -14 96q61 29 131 29q48 0 82.5 -24.5t34.5 -58.5z"/>
<glyph glyph-name="questiondown" horiz-adv-x="398" unicode="¿" d="M280 423q0 -24 -18 -40.5t-44 -16.5t-43.5 16.5t-17.5 40.5t18 42.5t43 18.5q26 0 44 -18.5t18 -42.5zM292 -32q16 6 34 6q6 0 18 -2q17 -72 17 -149q-64 -38 -157 -38q-85 0 -131 48t-46 124q0 46 19 85t42 60.5t50 46t37 39.5q10 16 10 93q17 16 50 16q13 0 23 -3 q15 -56 15 -107q0 -22 -25 -47t-55 -45t-55 -50.5t-25 -61.5q0 -50 32 -85.5t80 -35.5q27 0 46 3q15 47 21 103z"/>
<glyph glyph-name="Agrave" horiz-adv-x="677" unicode="À" d="M237 902l179 -134q-8 -25 -22 -39l-211 95l-5 20q17 34 59 58zM332 589l-102 -303h189l-81 230l-5 73h-1zM496 66l-55 155q-71 4 -158 4h-73l-53 -159l88 -19v-8q0 -22 -6 -40q-29 2 -111 2q-15 0 -53.5 -1t-61.5 -1q-8 21 -8 48q34 4 80 19l205 595q36 14 88 14 l215 -609q38 -4 74 -19v-8q0 -22 -6 -40q-29 2 -124 2q-22 0 -64 -1t-63 -1q-8 21 -8 48z"/>
<glyph glyph-name="Aacute" horiz-adv-x="677" unicode="Á" d="M263 767l186 130q29 -17 51 -57l-3 -20l-213 -93q-13 11 -21 40zM332 589l-102 -303h189l-81 230l-5 73h-1zM496 66l-55 155q-71 4 -158 4h-73l-53 -159l88 -19v-8q0 -22 -6 -40q-29 2 -111 2q-15 0 -53.5 -1t-61.5 -1q-8 21 -8 48q34 4 80 19l205 595q36 14 88 14 l215 -609q38 -4 74 -19v-8q0 -22 -6 -40q-29 2 -124 2q-22 0 -64 -1t-63 -1q-8 21 -8 48z"/>
<glyph glyph-name="Acircumflex" horiz-adv-x="677" unicode="Â" d="M475 719l-135 93l-133 -93q-19 12 -27 34l128 134q30 6 63 6l137 -135q-10 -24 -33 -39zM332 589l-102 -303h189l-81 230l-5 73h-1zM496 66l-55 155q-71 4 -158 4h-73l-53 -159l88 -19v-8q0 -22 -6 -40q-29 2 -111 2q-15 0 -53.5 -1t-61.5 -1q-8 21 -8 48q34 4 80 19 l205 595q36 14 88 14l215 -609q38 -4 74 -19v-8q0 -22 -6 -40q-29 2 -124 2q-22 0 -64 -1t-63 -1q-8 21 -8 48z"/>
<glyph glyph-name="Atilde" horiz-adv-x="677" unicode="Ã" d="M194 744q-25 7 -33 27q23 43 58 71.5t65 28.5q27 0 71.5 -32.5t64.5 -32.5q12 0 32 15t38 39q25 -7 33 -27q-23 -43 -58 -71.5t-65 -28.5q-27 0 -71.5 32.5t-64.5 32.5q-12 0 -32 -15t-38 -39zM332 589l-102 -303h189l-81 230l-5 73h-1zM496 66l-55 155q-71 4 -158 4h-73 l-53 -159l88 -19v-8q0 -22 -6 -40q-29 2 -111 2q-15 0 -53.5 -1t-61.5 -1q-8 21 -8 48q34 4 80 19l205 595q36 14 88 14l215 -609q38 -4 74 -19v-8q0 -22 -6 -40q-29 2 -124 2q-22 0 -64 -1t-63 -1q-8 21 -8 48z"/>
<glyph glyph-name="Adieresis" horiz-adv-x="677" unicode="Ä" d="M430 743q-17 0 -32.5 13t-15.5 30q0 24 17 44.5t40 20.5q19 0 34 -13t15 -32q0 -24 -16.5 -43t-41.5 -20zM247 743q-19 0 -34 12.5t-15 30.5q0 24 17 44.5t41 20.5q18 0 33 -13t15 -32q0 -24 -17 -43t-40 -20zM332 589l-102 -303h189l-81 230l-5 73h-1zM496 66l-55 155 q-71 4 -158 4h-73l-53 -159l88 -19v-8q0 -22 -6 -40q-29 2 -111 2q-15 0 -53.5 -1t-61.5 -1q-8 21 -8 48q34 4 80 19l205 595q36 14 88 14l215 -609q38 -4 74 -19v-8q0 -22 -6 -40q-29 2 -124 2q-22 0 -64 -1t-63 -1q-8 21 -8 48z"/>
<glyph glyph-name="Aring" horiz-adv-x="677" unicode="Å" d="M338 713q-47 0 -73.5 25t-26.5 73q0 37 34 69t76 32q47 0 73.5 -25t26.5 -73q0 -37 -34 -69t-76 -32zM344 764q22 0 34 10q13 9 13 36q0 20 -14.5 35.5t-34.5 15.5q-23 0 -34 -9q-13 -9 -13 -36q0 -19 14.5 -35.5t34.5 -16.5zM332 589l-102 -303h189l-81 230l-5 73h-1z M496 66l-55 155q-71 4 -158 4h-73l-53 -159l88 -19v-8q0 -22 -6 -40q-29 2 -111 2q-15 0 -53.5 -1t-61.5 -1q-8 21 -8 48q34 4 80 19l205 595q36 14 88 14l215 -609q38 -4 74 -19v-8q0 -22 -6 -40q-29 2 -124 2q-22 0 -64 -1t-63 -1q-8 21 -8 48z"/>
<glyph glyph-name="AE" horiz-adv-x="885" unicode="Æ" d="M402 604l-113 -247h147v247h-34zM156 66l88 -19v-8q0 -22 -6 -40q-29 2 -111 2q-15 0 -53.5 -1t-61.5 -1q-8 21 -8 48q35 4 80 19l247 541l-86 16q0 27 8 48q21 0 63 -1t64 -1h193q172 0 234 2l8 -8q0 -5 0.5 -17t0.5 -17q0 -59 -10 -134q-17 -5 -29 -5q-11 0 -24 5 q-3 60 -16 110h-218v-248l200 4l8 -8q-2 -38 -10 -63l-198 3v-228h230q22 62 36 122q12 2 19 2q16 0 34 -6q0 -95 -11 -176l-8 -8q-62 2 -234 2h-106q-22 0 -64 -1t-63 -1q-8 21 -8 48q39 4 87 19q5 24 5 61v167h-176z"/>
<glyph glyph-name="Ccedilla" horiz-adv-x="606" unicode="Ç" d="M462 607q-40 6 -112 6q-31 0 -74 -10.5t-59 -23.5q-81 -79 -81 -213q0 -64 13 -118t40.5 -97.5t76 -68.5t112.5 -25q54 0 97 9q11 59 14 122q15 6 32 6q14 0 21 -2q15 -80 15 -173q-106 -34 -205 -34l-12 -28q48 -2 73.5 -22.5t25.5 -54.5q0 -45 -50 -84.5t-119 -51.5 q-11 10 -11 29q98 42 98 93q0 19 -17 31.5t-48 12.5h-9l-8 8l34 69q-128 14 -196 106.5t-68 229.5q0 90 36 171t111.5 136t175.5 55q102 0 183 -27v-9q0 -79 -23 -156q-8 -2 -23 -2q-16 0 -28 6q-3 56 -15 110z"/>
<glyph glyph-name="Egrave" horiz-adv-x="583" unicode="È" d="M186 902l179 -134q-8 -25 -22 -39l-211 95l-5 20q17 34 59 58zM167 669h103q173 0 235 2l8 -8q0 -5 0.5 -17t0.5 -17q0 -59 -10 -134q-13 -5 -26 -5q-14 0 -27 5q-3 60 -16 110h-223v-228l205 4l8 -8q-2 -37 -10 -62l-203 4v-250h235q22 62 36 122q12 2 19 2q16 0 34 -6 q0 -95 -11 -176l-8 -8q-62 2 -235 2h-115q-22 0 -64 -1t-63 -1q-8 21 -8 48q39 4 87 19q5 24 5 61v339q0 76 -5 138q-48 15 -87 19q0 27 8 48q21 0 63 -1t64 -1z"/>
<glyph glyph-name="Eacute" horiz-adv-x="583" unicode="É" d="M212 767l186 130q29 -17 51 -57l-3 -20l-213 -93q-13 11 -21 40zM167 669h103q173 0 235 2l8 -8q0 -5 0.5 -17t0.5 -17q0 -59 -10 -134q-13 -5 -26 -5q-14 0 -27 5q-3 60 -16 110h-223v-228l205 4l8 -8q-2 -37 -10 -62l-203 4v-250h235q22 62 36 122q12 2 19 2 q16 0 34 -6q0 -95 -11 -176l-8 -8q-62 2 -235 2h-115q-22 0 -64 -1t-63 -1q-8 21 -8 48q39 4 87 19q5 24 5 61v339q0 76 -5 138q-48 15 -87 19q0 27 8 48q21 0 63 -1t64 -1z"/>
<glyph glyph-name="Ecircumflex" horiz-adv-x="583" unicode="Ê" d="M424 719l-135 93l-133 -93q-19 12 -27 34l128 134q30 6 63 6l137 -135q-11 -24 -33 -39zM167 669h103q173 0 235 2l8 -8q0 -5 0.5 -17t0.5 -17q0 -59 -10 -134q-13 -5 -26 -5q-14 0 -27 5q-3 60 -16 110h-223v-228l205 4l8 -8q-2 -37 -10 -62l-203 4v-250h235 q22 62 36 122q12 2 19 2q16 0 34 -6q0 -95 -11 -176l-8 -8q-62 2 -235 2h-115q-22 0 -64 -1t-63 -1q-8 21 -8 48q39 4 87 19q5 24 5 61v339q0 76 -5 138q-48 15 -87 19q0 27 8 48q21 0 63 -1t64 -1z"/>
<glyph glyph-name="Edieresis" horiz-adv-x="583" unicode="Ë" d="M379 743q-17 0 -32.5 13t-15.5 30q0 24 17 44.5t40 20.5q19 0 34 -13t15 -32q0 -24 -16.5 -43t-41.5 -20zM196 743q-19 0 -34 12.5t-15 30.5q0 24 17 44.5t41 20.5q18 0 33 -13t15 -32q0 -24 -17 -43t-40 -20zM167 669h103q173 0 235 2l8 -8q0 -5 0.5 -17t0.5 -17 q0 -59 -10 -134q-13 -5 -26 -5q-14 0 -27 5q-3 60 -16 110h-223v-228l205 4l8 -8q-2 -37 -10 -62l-203 4v-250h235q22 62 36 122q12 2 19 2q16 0 34 -6q0 -95 -11 -176l-8 -8q-62 2 -235 2h-115q-22 0 -64 -1t-63 -1q-8 21 -8 48q39 4 87 19q5 24 5 61v339q0 76 -5 138 q-48 15 -87 19q0 27 8 48q21 0 63 -1t64 -1z"/>
<glyph glyph-name="Igrave" horiz-adv-x="334" unicode="Ì" d="M62 902l179 -134q-8 -25 -22 -39l-211 95l-5 20q17 34 59 58zM119 604q-48 15 -87 19q0 27 8 48q21 0 63 -1t64 -1q95 0 124 2q6 -18 6 -40v-8q-40 -15 -81 -19q-4 -49 -4 -138v-317q0 -48 4 -83q41 -4 81 -19v-8q0 -22 -6 -40q-29 2 -124 2q-22 0 -64 -1t-63 -1 q-8 21 -8 48q39 4 87 19q5 24 5 61v339q0 76 -5 138z"/>
<glyph glyph-name="Iacute" horiz-adv-x="334" unicode="Í" d="M88 767l186 130q29 -17 51 -57l-3 -20l-213 -93q-13 11 -21 40zM119 604q-48 15 -87 19q0 27 8 48q21 0 63 -1t64 -1q95 0 124 2q6 -18 6 -40v-8q-40 -15 -81 -19q-4 -49 -4 -138v-317q0 -48 4 -83q41 -4 81 -19v-8q0 -22 -6 -40q-29 2 -124 2q-22 0 -64 -1t-63 -1 q-8 21 -8 48q39 4 87 19q5 24 5 61v339q0 76 -5 138z"/>
<glyph glyph-name="Icircumflex" horiz-adv-x="334" unicode="Î" d="M300 719l-135 93l-133 -93q-19 12 -27 34l128 134q30 6 63 6l137 -135q-11 -24 -33 -39zM119 604q-48 15 -87 19q0 27 8 48q21 0 63 -1t64 -1q95 0 124 2q6 -18 6 -40v-8q-40 -15 -81 -19q-4 -49 -4 -138v-317q0 -48 4 -83q41 -4 81 -19v-8q0 -22 -6 -40q-29 2 -124 2 q-22 0 -64 -1t-63 -1q-8 21 -8 48q39 4 87 19q5 24 5 61v339q0 76 -5 138z"/>
<glyph glyph-name="Idieresis" horiz-adv-x="334" unicode="Ï" d="M255 743q-17 0 -32.5 13t-15.5 30q0 24 17 44.5t40 20.5q19 0 34 -13t15 -32q0 -24 -16.5 -43t-41.5 -20zM72 743q-19 0 -34 12.5t-15 30.5q0 24 17 44.5t41 20.5q18 0 33 -13t15 -32q0 -24 -17 -43t-40 -20zM119 604q-48 15 -87 19q0 27 8 48q21 0 63 -1t64 -1 q95 0 124 2q6 -18 6 -40v-8q-40 -15 -81 -19q-4 -49 -4 -138v-317q0 -48 4 -83q41 -4 81 -19v-8q0 -22 -6 -40q-29 2 -124 2q-22 0 -64 -1t-63 -1q-8 21 -8 48q39 4 87 19q5 24 5 61v339q0 76 -5 138z"/>
<glyph glyph-name="Eth" horiz-adv-x="666" unicode="Ð" d="M347 308h-132v-244h90q39 0 81 8.5t56 19.5q88 68 88 210q0 79 -21 146t-71 113.5t-122 46.5q-8 0 -101 -3v-231h132q3 -18 3 -33t-3 -33zM170 1q-22 0 -64 -1t-63 -1q-8 21 -8 48q39 4 87 19q5 24 5 61v181h-89q-3 16 -3 34q0 16 3 32h89v92q0 76 -5 138q-48 15 -87 19 q0 27 8 48q21 0 63 -1t64 -1q38 0 96 2t79 2q130 0 203 -91t73 -238q0 -66 -20.5 -127.5t-57.5 -110.5t-95 -79t-127 -30q-18 0 -68 2t-83 2z"/>
<glyph glyph-name="Ntilde" horiz-adv-x="741" unicode="Ñ" d="M226 744q-25 7 -33 27q23 43 58 71.5t65 28.5q27 0 71.5 -32.5t64.5 -32.5q12 0 32 15t38 39q25 -7 33 -27q-23 -43 -58 -71.5t-65 -28.5q-27 0 -71.5 32.5t-64.5 32.5q-12 0 -32 -15t-38 -39zM634 9q-45 -12 -94 -14l-315 520l-29 90h-1v-456q0 -48 4 -83q41 -4 81 -19 v-8q0 -22 -6 -40q-29 2 -115 2q-17 0 -57 -1t-62 -1q-8 21 -8 48q39 4 87 19q5 24 5 61v339q0 76 -5 138q-48 15 -87 19q0 27 8 48q22 0 62 -1t57 -1q54 0 86 -4l290 -481l27 -90h1v372q0 76 -5 138q-48 15 -87 19q0 27 8 48q22 0 62 -1t57 -1q86 0 115 2q6 -18 6 -40v-8 q-40 -15 -81 -19q-4 -49 -4 -138v-457z"/>
<glyph glyph-name="Ograve" horiz-adv-x="690" unicode="Ò" d="M248 902l179 -134q-8 -25 -22 -39l-211 95l-5 20q17 34 59 58zM364 54q25 0 60.5 10.5t48.5 23.5q33 32 57 88t24 128q0 135 -57 223.5t-171 88.5q-25 0 -60.5 -10.5t-48.5 -23.5q-33 -32 -57 -88t-24 -128q0 -135 57 -223.5t171 -88.5zM336 -18q-138 0 -214.5 96 t-76.5 245q0 89 36.5 171.5t109 138t163.5 55.5q137 0 214 -96t77 -245q0 -89 -36.5 -171.5t-109 -138t-163.5 -55.5z"/>
<glyph glyph-name="Oacute" horiz-adv-x="690" unicode="Ó" d="M274 767l186 130q29 -17 51 -57l-3 -20l-213 -93q-13 11 -21 40zM364 54q25 0 60.5 10.5t48.5 23.5q33 32 57 88t24 128q0 135 -57 223.5t-171 88.5q-25 0 -60.5 -10.5t-48.5 -23.5q-33 -32 -57 -88t-24 -128q0 -135 57 -223.5t171 -88.5zM336 -18q-138 0 -214.5 96 t-76.5 245q0 89 36.5 171.5t109 138t163.5 55.5q137 0 214 -96t77 -245q0 -89 -36.5 -171.5t-109 -138t-163.5 -55.5z"/>
<glyph glyph-name="Ocircumflex" horiz-adv-x="690" unicode="Ô" d="M486 719l-135 93l-133 -93q-19 12 -27 34l128 134q30 6 63 6l137 -135q-11 -24 -33 -39zM364 54q25 0 60.5 10.5t48.5 23.5q33 32 57 88t24 128q0 135 -57 223.5t-171 88.5q-25 0 -60.5 -10.5t-48.5 -23.5q-33 -32 -57 -88t-24 -128q0 -135 57 -223.5t171 -88.5zM336 -18 q-138 0 -214.5 96t-76.5 245q0 89 36.5 171.5t109 138t163.5 55.5q137 0 214 -96t77 -245q0 -89 -36.5 -171.5t-109 -138t-163.5 -55.5z"/>
<glyph glyph-name="Otilde" horiz-adv-x="690" unicode="Õ" d="M205 744q-25 7 -33 27q23 43 58 71.5t65 28.5q27 0 71.5 -32.5t64.5 -32.5q12 0 32 15t38 39q25 -7 33 -27q-23 -43 -58 -71.5t-65 -28.5q-27 0 -71.5 32.5t-64.5 32.5q-12 0 -32 -15t-38 -39zM364 54q25 0 60.5 10.5t48.5 23.5q33 32 57 88t24 128q0 135 -57 223.5 t-171 88.5q-25 0 -60.5 -10.5t-48.5 -23.5q-33 -32 -57 -88t-24 -128q0 -135 57 -223.5t171 -88.5zM336 -18q-138 0 -214.5 96t-76.5 245q0 89 36.5 171.5t109 138t163.5 55.5q137 0 214 -96t77 -245q0 -89 -36.5 -171.5t-109 -138t-163.5 -55.5z"/>
<glyph glyph-name="Odieresis" horiz-adv-x="690" unicode="Ö" d="M441 743q-17 0 -32.5 13t-15.5 30q0 24 17 44.5t40 20.5q19 0 34 -13t15 -32q0 -24 -16.5 -43t-41.5 -20zM258 743q-19 0 -34 12.5t-15 30.5q0 24 17 44.5t41 20.5q18 0 33 -13t15 -32q0 -24 -17 -43t-40 -20zM364 54q25 0 60.5 10.5t48.5 23.5q33 32 57 88t24 128 q0 135 -57 223.5t-171 88.5q-25 0 -60.5 -10.5t-48.5 -23.5q-33 -32 -57 -88t-24 -128q0 -135 57 -223.5t171 -88.5zM336 -18q-138 0 -214.5 96t-76.5 245q0 89 36.5 171.5t109 138t163.5 55.5q137 0 214 -96t77 -245q0 -89 -36.5 -171.5t-109 -138t-163.5 -55.5z"/>
<glyph glyph-name="multiply" horiz-adv-x="540" unicode="×" d="M137 436l132 -133l133 133q26 -16 47 -46l-133 -133l132 -132q-20 -29 -47 -46l-132 131l-131 -131q-26 16 -46 47l131 131l-132 132q17 28 46 47z"/>
<glyph glyph-name="Oslash" horiz-adv-x="690" unicode="Ø" d="M136 366q0 -150 64 -234l243 450q-50 34 -117 34q-25 0 -60.5 -10.5t-48.5 -23.5q-33 -32 -57 -88t-24 -128zM364 54q25 0 60.5 10.5t48.5 23.5q33 32 57 88t24 128q0 152 -66 235l-244 -450q51 -35 120 -35zM107 -32l42 80q-104 93 -104 275q0 89 36.5 171.5t109 138 t163.5 55.5q77 0 136 -32l39 73q32 -4 52 -27l-43 -80q107 -93 107 -275q0 -89 -36.5 -171.5t-109 -138t-163.5 -55.5q-75 0 -137 32l-41 -74q-37 8 -51 28z"/>
<glyph glyph-name="Ugrave" horiz-adv-x="695" unicode="Ù" d="M252 902l179 -134q-8 -25 -22 -39l-211 95l-5 20q17 34 59 58zM599 466v-219q0 -122 -67 -193.5t-201 -71.5q-115 0 -172 60t-57 192v232q0 76 -5 138q-48 15 -87 19q0 27 8 48q21 0 63 -1t64 -1q94 0 123 2q6 -18 6 -40v-8q-40 -15 -81 -19q-3 -37 -3 -138v-201 q0 -113 38.5 -162t136.5 -49q39 0 74.5 11t47.5 24q41 44 41 146v231q0 76 -5 138q-48 15 -87 19q0 27 8 48q21 0 63 -1t64 -1q78 0 107 2q6 -18 6 -40v-8q-40 -15 -81 -19q-4 -49 -4 -138z"/>
<glyph glyph-name="Uacute" horiz-adv-x="695" unicode="Ú" d="M278 767l186 130q29 -17 51 -57l-3 -20l-213 -93q-13 11 -21 40zM599 466v-219q0 -122 -67 -193.5t-201 -71.5q-115 0 -172 60t-57 192v232q0 76 -5 138q-48 15 -87 19q0 27 8 48q21 0 63 -1t64 -1q94 0 123 2q6 -18 6 -40v-8q-40 -15 -81 -19q-3 -37 -3 -138v-201 q0 -113 38.5 -162t136.5 -49q39 0 74.5 11t47.5 24q41 44 41 146v231q0 76 -5 138q-48 15 -87 19q0 27 8 48q21 0 63 -1t64 -1q78 0 107 2q6 -18 6 -40v-8q-40 -15 -81 -19q-4 -49 -4 -138z"/>
<glyph glyph-name="Ucircumflex" horiz-adv-x="695" unicode="Û" d="M490 719l-135 93l-133 -93q-19 12 -27 34l128 134q30 6 63 6l137 -135q-11 -24 -33 -39zM599 466v-219q0 -122 -67 -193.5t-201 -71.5q-115 0 -172 60t-57 192v232q0 76 -5 138q-48 15 -87 19q0 27 8 48q21 0 63 -1t64 -1q94 0 123 2q6 -18 6 -40v-8q-40 -15 -81 -19 q-3 -37 -3 -138v-201q0 -113 38.5 -162t136.5 -49q39 0 74.5 11t47.5 24q41 44 41 146v231q0 76 -5 138q-48 15 -87 19q0 27 8 48q21 0 63 -1t64 -1q78 0 107 2q6 -18 6 -40v-8q-40 -15 -81 -19q-4 -49 -4 -138z"/>
<glyph glyph-name="Udieresis" horiz-adv-x="695" unicode="Ü" d="M445 743q-17 0 -32.5 13t-15.5 30q0 24 17 44.5t40 20.5q19 0 34 -13t15 -32q0 -24 -16.5 -43t-41.5 -20zM262 743q-19 0 -34 12.5t-15 30.5q0 24 17 44.5t41 20.5q18 0 33 -13t15 -32q0 -24 -17 -43t-40 -20zM599 466v-219q0 -122 -67 -193.5t-201 -71.5q-115 0 -172 60 t-57 192v232q0 76 -5 138q-48 15 -87 19q0 27 8 48q21 0 63 -1t64 -1q94 0 123 2q6 -18 6 -40v-8q-40 -15 -81 -19q-3 -37 -3 -138v-201q0 -113 38.5 -162t136.5 -49q39 0 74.5 11t47.5 24q41 44 41 146v231q0 76 -5 138q-48 15 -87 19q0 27 8 48q21 0 63 -1t64 -1 q78 0 107 2q6 -18 6 -40v-8q-40 -15 -81 -19q-4 -49 -4 -138z"/>
<glyph glyph-name="Yacute" horiz-adv-x="650" unicode="Ý" d="M260 767l186 130q29 -17 51 -57l-3 -20l-213 -93q-13 11 -21 40zM566 604l-193 -355v-100q0 -48 4 -83q52 -4 101 -19v-8q0 -22 -7 -40q-33 2 -143 2q-26 0 -73.5 -1t-72.5 -1q-9 21 -9 48q47 4 107 19q5 24 5 61v109l-200 368q-46 15 -80 19q0 27 8 48q21 0 64 -1t68 -1 q98 0 127 2q6 -18 6 -40v-8l-88 -19l150 -279l152 279l-94 19q0 27 8 48q23 0 61.5 -1t54.5 -1q83 0 112 2q6 -18 6 -40v-8q-36 -15 -74 -19z"/>
<glyph glyph-name="Thorn" horiz-adv-x="563" unicode="Þ" d="M327 481q-60 0 -115 -7v-269q33 -4 88 -4q22 0 46.5 6t39 12t17.5 9q42 40 42 108q0 57 -29 101t-89 44zM536 363q0 -79 -70.5 -154t-153.5 -75q-69 0 -100 6v-74q55 -4 105 -19v-8q0 -22 -7 -40q-33 2 -143 2q-22 0 -64 -1t-63 -1q-8 21 -8 48q39 4 87 19q5 24 5 61v339 q0 76 -5 138q-48 15 -87 19q0 27 8 48q21 0 63 -1t64 -1q110 0 143 2q7 -18 7 -40v-8q-51 -15 -105 -18v-66q67 7 142 7q94 0 138 -51.5t44 -131.5z"/>
<glyph glyph-name="germandbls" horiz-adv-x="610" unicode="ß" d="M206 7l-8 -8q-16 2 -36 2t-60 -1t-61 -1q-7 14 -7 45q45 5 80 17q4 29 4 56v292q-39 9 -75 13q-3 12 -3 23q0 12 1 17q35 8 77 11v10q0 129 52.5 206t143.5 77q50 0 94.5 -17.5t76 -60.5t31.5 -104q0 -27 -21.5 -58t-47 -53.5t-47 -51t-21.5 -52.5q0 -28 22 -47t53 -32 t62.5 -29t53.5 -46.5t22 -75.5q0 -70 -51.5 -110t-129.5 -40q-94 0 -152 27q0 72 18 146q10 5 23 5q14 0 24 -5q1 -42 10 -100q26 -14 87 -14q48 0 66.5 15.5t18.5 58.5q0 30 -22.5 52t-71.5 42q-59 23 -88 53t-29 82q0 37 32.5 80t64.5 75.5t32 43.5q0 69 -33.5 110 t-84.5 41q-23 0 -43 -6.5t-25 -12.5q-16 -18 -26 -66.5t-10 -111.5v-209q0 -155 4 -288z"/>
<glyph glyph-name="agrave" horiz-adv-x="487" unicode="à" d="M255 526l-165 170l5 19q37 19 83 21l117 -184q-12 -21 -40 -26zM199 62q22 0 53.5 15t55.5 37v118q-57 -6 -105.5 -19t-58.5 -23q-20 -20 -20 -60q0 -30 18.5 -49t56.5 -19zM35 105q0 53 43.5 93.5t100.5 61t129 33.5q-1 63 -18.5 95.5t-65.5 32.5q-44 0 -79 -8 q-7 -30 -7 -81q-22 -10 -39 -10q-10 0 -19 3q-24 50 -24 107q84 51 178 51q26 0 50 -6t50.5 -21.5t42 -49t15.5 -81.5v-188q0 -51 5 -79q23 3 64 16q15 -15 15 -37q-59 -51 -114 -51q-15 0 -28.5 22t-20.5 57q-92 -79 -165 -79q-50 0 -81.5 32t-31.5 87z"/>
<glyph glyph-name="aacute" horiz-adv-x="487" unicode="á" d="M171 550l110 167q44 12 99 12l8 -23l-179 -184q-25 6 -38 28zM199 62q22 0 53.5 15t55.5 37v118q-57 -6 -105.5 -19t-58.5 -23q-20 -20 -20 -60q0 -30 18.5 -49t56.5 -19zM35 105q0 53 43.5 93.5t100.5 61t129 33.5q-1 63 -18.5 95.5t-65.5 32.5q-44 0 -79 -8 q-7 -30 -7 -81q-22 -10 -39 -10q-10 0 -19 3q-24 50 -24 107q84 51 178 51q26 0 50 -6t50.5 -21.5t42 -49t15.5 -81.5v-188q0 -51 5 -79q23 3 64 16q15 -15 15 -37q-59 -51 -114 -51q-15 0 -28.5 22t-20.5 57q-92 -79 -165 -79q-50 0 -81.5 32t-31.5 87z"/>
<glyph glyph-name="acircumflex" horiz-adv-x="487" unicode="â" d="M348 519l-118 123l-111 -123q-21 6 -33 28l110 173q25 7 55 7h11l122 -177q-9 -22 -36 -31zM199 62q22 0 53.5 15t55.5 37v118q-57 -6 -105.5 -19t-58.5 -23q-20 -20 -20 -60q0 -30 18.5 -49t56.5 -19zM35 105q0 53 43.5 93.5t100.5 61t129 33.5q-1 63 -18.5 95.5 t-65.5 32.5q-44 0 -79 -8q-7 -30 -7 -81q-22 -10 -39 -10q-10 0 -19 3q-24 50 -24 107q84 51 178 51q26 0 50 -6t50.5 -21.5t42 -49t15.5 -81.5v-188q0 -51 5 -79q23 3 64 16q15 -15 15 -37q-59 -51 -114 -51q-15 0 -28.5 22t-20.5 57q-92 -79 -165 -79q-50 0 -81.5 32 t-31.5 87z"/>
<glyph glyph-name="atilde" horiz-adv-x="487" unicode="ã" d="M76 552q-26 7 -34 28q24 45 60 74t67 29q28 0 72.5 -33.5t69.5 -33.5q12 0 33 15.5t40 40.5q24 -6 35 -26q-24 -45 -61 -75t-69 -30q-28 0 -72.5 33.5t-67.5 33.5q-12 0 -33 -15.5t-40 -40.5zM199 62q22 0 53.5 15t55.5 37v118q-57 -6 -105.5 -19t-58.5 -23 q-20 -20 -20 -60q0 -30 18.5 -49t56.5 -19zM35 105q0 53 43.5 93.5t100.5 61t129 33.5q-1 63 -18.5 95.5t-65.5 32.5q-44 0 -79 -8q-7 -30 -7 -81q-22 -10 -39 -10q-10 0 -19 3q-24 50 -24 107q84 51 178 51q26 0 50 -6t50.5 -21.5t42 -49t15.5 -81.5v-188q0 -51 5 -79 q23 3 64 16q15 -15 15 -37q-59 -51 -114 -51q-15 0 -28.5 22t-20.5 57q-92 -79 -165 -79q-50 0 -81.5 32t-31.5 87z"/>
<glyph glyph-name="adieresis" horiz-adv-x="487" unicode="ä" d="M316 554q-18 0 -34 13.5t-16 31.5q0 24 17.5 45.5t41.5 21.5q20 0 35 -13.5t15 -33.5q0 -25 -17 -44.5t-42 -20.5zM135 554q-19 0 -34.5 13.5t-15.5 31.5q0 25 17 46t42 21q19 0 34.5 -13.5t15.5 -33.5q0 -25 -17.5 -44.5t-41.5 -20.5zM199 62q22 0 53.5 15t55.5 37v118 q-57 -6 -105.5 -19t-58.5 -23q-20 -20 -20 -60q0 -30 18.5 -49t56.5 -19zM35 105q0 53 43.5 93.5t100.5 61t129 33.5q-1 63 -18.5 95.5t-65.5 32.5q-44 0 -79 -8q-7 -30 -7 -81q-22 -10 -39 -10q-10 0 -19 3q-24 50 -24 107q84 51 178 51q26 0 50 -6t50.5 -21.5t42 -49 t15.5 -81.5v-188q0 -51 5 -79q23 3 64 16q15 -15 15 -37q-59 -51 -114 -51q-15 0 -28.5 22t-20.5 57q-92 -79 -165 -79q-50 0 -81.5 32t-31.5 87z"/>
<glyph glyph-name="aring" horiz-adv-x="487" unicode="å" d="M225 536q-47 0 -74 25t-27 74q0 37 34 69.5t77 32.5q48 0 74.5 -25t26.5 -74q0 -37 -34 -69.5t-77 -32.5zM231 589q21 0 33 10q13 9 13 35q0 20 -14.5 35t-33.5 15q-22 0 -33 -9q-13 -9 -13 -35q0 -19 14.5 -35t33.5 -16zM199 62q22 0 53.5 15t55.5 37v118 q-57 -6 -105.5 -19t-58.5 -23q-20 -20 -20 -60q0 -30 18.5 -49t56.5 -19zM35 105q0 53 43.5 93.5t100.5 61t129 33.5q-1 63 -18.5 95.5t-65.5 32.5q-44 0 -79 -8q-7 -30 -7 -81q-22 -10 -39 -10q-10 0 -19 3q-24 50 -24 107q84 51 178 51q26 0 50 -6t50.5 -21.5t42 -49 t15.5 -81.5v-188q0 -51 5 -79q23 3 64 16q15 -15 15 -37q-59 -51 -114 -51q-15 0 -28.5 22t-20.5 57q-92 -79 -165 -79q-50 0 -81.5 32t-31.5 87z"/>
<glyph glyph-name="ae" horiz-adv-x="748" unicode="æ" d="M510 419q-52 0 -81.5 -35t-35.5 -95h99q72 0 122 4q0 27 -4 47t-14.5 39.5t-32 29.5t-53.5 10zM321 127q-13 45 -13 104q-57 -5 -105.5 -18t-58.5 -23q-20 -20 -20 -60q0 -29 18.5 -48.5t56.5 -19.5q28 0 62 19t60 46zM35 105q0 42 26.5 76.5t71 56t87 34.5t88.5 20 q-1 63 -19 96t-65 33q-44 0 -79 -8q-7 -30 -7 -81q-22 -10 -39 -10q-10 0 -19 3q-24 50 -24 107q84 51 178 51q101 0 133 -82q64 83 157 83q95 0 136.5 -51.5t41.5 -127.5q0 -40 -5 -62l-8 -8q-82 2 -181 2h-116q3 -45 15.5 -83t43.5 -67t77 -29q64 0 159 36q15 -12 17 -36 q-41 -28 -95 -50t-98 -22q-126 0 -175 102q-40 -42 -93 -72t-95 -30q-50 0 -81.5 32t-31.5 87z"/>
<glyph glyph-name="ccedilla" horiz-adv-x="454" unicode="ç" d="M256 414q-59 0 -81 -19q-50 -52 -50 -140q0 -47 11 -88.5t43.5 -75t81.5 -33.5q61 0 149 34q16 -14 17 -38q-34 -25 -81.5 -44.5t-88.5 -22.5l-13 -30q48 -2 73.5 -22.5t25.5 -54.5q0 -45 -50 -84.5t-119 -51.5q-11 10 -11 29q98 42 98 93q0 19 -17 31.5t-48 12.5h-9 l-8 8l35 70q-88 10 -131 74.5t-43 164.5q0 96 62 175t158 79q94 0 159 -29q0 -72 -21 -130q-17 -5 -27 -5q-17 0 -32 9q-2 48 -8 83q-28 5 -75 5z"/>
<glyph glyph-name="egrave" horiz-adv-x="480" unicode="è" d="M276 526l-165 170l5 19q37 19 83 21l117 -184q-12 -21 -40 -26zM174 400q-38 -41 -48 -111h98q72 0 122 4q0 27 -4 47t-14.5 39.5t-32 29.5t-53.5 10q-49 0 -68 -19zM40 228q0 98 62 177t154 79q95 0 136.5 -51.5t41.5 -127.5q0 -40 -5 -62l-8 -8q-82 2 -181 2h-116 q3 -45 15.5 -83t43.5 -67t77 -29q66 0 159 36q15 -12 17 -36q-41 -28 -95 -50t-98 -22q-102 0 -152.5 66.5t-50.5 175.5z"/>
<glyph glyph-name="eacute" horiz-adv-x="480" unicode="é" d="M192 550l110 167q44 12 99 12l8 -23l-179 -184q-25 6 -38 28zM174 400q-38 -41 -48 -111h98q72 0 122 4q0 27 -4 47t-14.5 39.5t-32 29.5t-53.5 10q-49 0 -68 -19zM40 228q0 98 62 177t154 79q95 0 136.5 -51.5t41.5 -127.5q0 -40 -5 -62l-8 -8q-82 2 -181 2h-116 q3 -45 15.5 -83t43.5 -67t77 -29q66 0 159 36q15 -12 17 -36q-41 -28 -95 -50t-98 -22q-102 0 -152.5 66.5t-50.5 175.5z"/>
<glyph glyph-name="ecircumflex" horiz-adv-x="480" unicode="ê" d="M369 519l-118 123l-111 -123q-21 6 -33 28l110 173q25 7 55 7h11l122 -177q-9 -22 -36 -31zM174 400q-38 -41 -48 -111h98q72 0 122 4q0 27 -4 47t-14.5 39.5t-32 29.5t-53.5 10q-49 0 -68 -19zM40 228q0 98 62 177t154 79q95 0 136.5 -51.5t41.5 -127.5q0 -40 -5 -62 l-8 -8q-82 2 -181 2h-116q3 -45 15.5 -83t43.5 -67t77 -29q66 0 159 36q15 -12 17 -36q-41 -28 -95 -50t-98 -22q-102 0 -152.5 66.5t-50.5 175.5z"/>
<glyph glyph-name="edieresis" horiz-adv-x="480" unicode="ë" d="M337 554q-18 0 -34 13.5t-16 31.5q0 24 17.5 45.5t41.5 21.5q20 0 35 -13.5t15 -33.5q0 -25 -17 -44.5t-42 -20.5zM156 554q-19 0 -34.5 13.5t-15.5 31.5q0 25 17 46t42 21q19 0 34.5 -13.5t15.5 -33.5q0 -25 -17.5 -44.5t-41.5 -20.5zM174 400q-38 -41 -48 -111h98 q72 0 122 4q0 27 -4 47t-14.5 39.5t-32 29.5t-53.5 10q-49 0 -68 -19zM40 228q0 98 62 177t154 79q95 0 136.5 -51.5t41.5 -127.5q0 -40 -5 -62l-8 -8q-82 2 -181 2h-116q3 -45 15.5 -83t43.5 -67t77 -29q66 0 159 36q15 -12 17 -36q-41 -28 -95 -50t-98 -22 q-102 0 -152.5 66.5t-50.5 175.5z"/>
<glyph glyph-name="igrave" horiz-adv-x="305" unicode="ì" d="M199 187v-50q0 -39 3 -75q46 -5 75 -18q0 -32 -6 -45q-54 2 -112 2q-21 0 -61.5 -1t-59.5 -1q-7 14 -7 45q41 4 80 18q4 25 4 55v276q-45 12 -79 16q-5 17 -5 29q0 7 1 10q71 27 163 35l8 -8q-4 -133 -4 -288zM165 521l-150 184l7 18q32 14 74 14h10l101 -194 q-14 -20 -42 -22z"/>
<glyph glyph-name="iacute" horiz-adv-x="305" unicode="í" d="M199 187v-50q0 -39 3 -75q46 -5 75 -18q0 -32 -6 -45q-54 2 -112 2q-21 0 -61.5 -1t-59.5 -1q-7 14 -7 45q41 4 80 18q4 25 4 55v276q-45 12 -79 16q-5 17 -5 29q0 7 1 10q71 27 163 35l8 -8q-4 -133 -4 -288zM81 541l95 176q39 15 98 20l10 -22l-163 -199q-25 4 -40 25z "/>
<glyph glyph-name="icircumflex" horiz-adv-x="305" unicode="î" d="M249 522l-107 118l-99 -119q-27 6 -35 26l100 173q25 7 55 7h11l112 -177q-12 -23 -37 -28zM199 187v-50q0 -39 3 -75q46 -5 75 -18q0 -32 -6 -45q-54 2 -112 2q-21 0 -61.5 -1t-59.5 -1q-7 14 -7 45q41 4 80 18q4 25 4 55v276q-45 12 -79 16q-5 17 -5 29q0 7 1 10 q71 27 163 35l8 -8q-4 -133 -4 -288z"/>
<glyph glyph-name="idieresis" horiz-adv-x="305" unicode="ï" d="M222 554q-18 0 -34 13.5t-16 31.5q0 24 17.5 45.5t41.5 21.5q20 0 35 -13.5t15 -33.5q0 -25 -17 -44.5t-42 -20.5zM67 554q-19 0 -34.5 13.5t-15.5 31.5q0 25 17 46t42 21q19 0 34.5 -13.5t15.5 -33.5q0 -25 -17.5 -44.5t-41.5 -20.5zM199 187v-50q0 -39 3 -75 q46 -5 75 -18q0 -32 -6 -45q-54 2 -112 2q-21 0 -61.5 -1t-59.5 -1q-7 14 -7 45q41 4 80 18q4 25 4 55v276q-45 12 -79 16q-5 17 -5 29q0 7 1 10q71 27 163 35l8 -8q-4 -133 -4 -288z"/>
<glyph glyph-name="eth" horiz-adv-x="523" unicode="ð" d="M247 416q-51 0 -70 -19q-51 -53 -51 -142q0 -47 12 -90.5t44 -77.5t79 -34q20 0 42 6t29 13q31 31 43 77.5t12 121.5v6q-4 61 -47 100t-93 39zM251 480q71 0 123 -56q-21 102 -97 187l-105 -69q-22 20 -32 55l95 55q-30 29 -89 74q8 28 29 39q63 -35 118 -77l108 72 q24 -24 32 -54l-95 -58q137 -134 137 -348q0 -137 -61 -225.5t-168 -88.5q-99 0 -152.5 67t-53.5 167q0 104 60 182t151 78z"/>
<glyph glyph-name="ntilde" horiz-adv-x="593" unicode="ñ" d="M145 552q-26 7 -34 28q24 45 60 74t67 29q28 0 72 -33.5t70 -33.5q12 0 33 15.5t40 40.5q23 -6 35 -26q-24 -45 -61 -75t-69 -30q-28 0 -72.5 33.5t-67.5 33.5q-12 0 -33 -15.5t-40 -40.5zM174 481l8 -7q6 -24 12 -57q91 67 168 67q138 0 138 -160v-187q0 -39 3 -75 q47 -5 75 -18q0 -32 -7 -45q-52 2 -111 2q-21 0 -62 -1t-60 -1q-6 16 -6 45q46 5 80 17q4 29 4 56v168q0 65 -18 97.5t-73 32.5q-60 0 -126 -46v-232q0 -39 3 -75q46 -5 75 -18q0 -32 -6 -45q-54 2 -112 2q-21 0 -61.5 -1t-59.5 -1q-7 14 -7 45q45 5 80 17q4 29 4 56v273 q-36 11 -79 16q-5 17 -5 29q0 7 1 10q72 29 142 36z"/>
<glyph glyph-name="ograve" horiz-adv-x="513" unicode="ò" d="M280 526l-165 170l5 19q37 19 83 21l117 -184q-12 -21 -40 -26zM269 53q50 0 69 19q50 54 50 143q0 47 -13 90.5t-47 77.5t-84 34t-69 -19q-50 -54 -50 -143q0 -47 13 -90.5t47 -77.5t84 -34zM262 484q104 0 157.5 -66.5t53.5 -174.5q0 -98 -61.5 -177.5t-160.5 -79.5 q-103 0 -157 66t-54 175q0 98 61.5 177.5t160.5 79.5z"/>
<glyph glyph-name="oacute" horiz-adv-x="513" unicode="ó" d="M196 550l110 167q44 12 99 12l8 -23l-179 -184q-25 6 -38 28zM269 53q50 0 69 19q50 54 50 143q0 47 -13 90.5t-47 77.5t-84 34t-69 -19q-50 -54 -50 -143q0 -47 13 -90.5t47 -77.5t84 -34zM262 484q104 0 157.5 -66.5t53.5 -174.5q0 -98 -61.5 -177.5t-160.5 -79.5 q-103 0 -157 66t-54 175q0 98 61.5 177.5t160.5 79.5z"/>
<glyph glyph-name="ocircumflex" horiz-adv-x="513" unicode="ô" d="M373 519l-118 123l-111 -123q-21 6 -33 28l110 173q25 7 55 7h11l122 -177q-9 -22 -36 -31zM269 53q50 0 69 19q50 54 50 143q0 47 -13 90.5t-47 77.5t-84 34t-69 -19q-50 -54 -50 -143q0 -47 13 -90.5t47 -77.5t84 -34zM262 484q104 0 157.5 -66.5t53.5 -174.5 q0 -98 -61.5 -177.5t-160.5 -79.5q-103 0 -157 66t-54 175q0 98 61.5 177.5t160.5 79.5z"/>
<glyph glyph-name="otilde" horiz-adv-x="513" unicode="õ" d="M101 552q-26 7 -34 28q24 45 60 74t67 29q28 0 72 -33.5t70 -33.5q12 0 33 15.5t40 40.5q23 -6 35 -26q-24 -45 -61 -75t-69 -30q-28 0 -72.5 33.5t-67.5 33.5q-12 0 -33 -15.5t-40 -40.5zM269 53q50 0 69 19q50 54 50 143q0 47 -13 90.5t-47 77.5t-84 34t-69 -19 q-50 -54 -50 -143q0 -47 13 -90.5t47 -77.5t84 -34zM262 484q104 0 157.5 -66.5t53.5 -174.5q0 -98 -61.5 -177.5t-160.5 -79.5q-103 0 -157 66t-54 175q0 98 61.5 177.5t160.5 79.5z"/>
<glyph glyph-name="odieresis" horiz-adv-x="513" unicode="ö" d="M341 554q-18 0 -34 13.5t-16 31.5q0 24 17.5 45.5t41.5 21.5q20 0 35 -13.5t15 -33.5q0 -25 -17 -44.5t-42 -20.5zM160 554q-19 0 -34.5 13.5t-15.5 31.5q0 25 17 46t42 21q19 0 34.5 -13.5t15.5 -33.5q0 -25 -17.5 -44.5t-41.5 -20.5zM269 53q50 0 69 19q50 54 50 143 q0 47 -13 90.5t-47 77.5t-84 34t-69 -19q-50 -54 -50 -143q0 -47 13 -90.5t47 -77.5t84 -34zM262 484q104 0 157.5 -66.5t53.5 -174.5q0 -98 -61.5 -177.5t-160.5 -79.5q-103 0 -157 66t-54 175q0 98 61.5 177.5t160.5 79.5z"/>
<glyph glyph-name="divide" horiz-adv-x="540" unicode="÷" d="M476 225h-412q-3 15 -3 31q0 17 3 35h412q4 -24 4 -33q0 -11 -4 -33zM218 413q0 19 15.5 33t37.5 14q21 0 36 -14t15 -33q0 -22 -15 -37t-36 -15q-22 0 -37.5 15t-15.5 37zM218 103q0 20 15.5 34t37.5 14q21 0 36 -14t15 -34q0 -21 -15 -36t-36 -15q-22 0 -37.5 15 t-15.5 36z"/>
<glyph glyph-name="oslash" horiz-adv-x="513" unicode="ø" d="M125 255q0 -93 36 -146l144 294q-26 14 -61 14q-59 0 -89 -44.5t-30 -117.5zM269 53q59 0 89 44.5t30 117.5q0 96 -41 152l-145 -298q29 -16 67 -16zM84 -48l36 74q-80 62 -80 201q0 98 61.5 177.5t160.5 79.5q42 0 77 -12l35 72q32 -5 48 -22l-36 -74q87 -60 87 -205 q0 -98 -61.5 -177.5t-160.5 -79.5q-46 0 -83 14l-35 -72q-31 5 -49 24z"/>
<glyph glyph-name="ugrave" horiz-adv-x="582" unicode="ù" d="M295 526l-165 170l5 19q37 19 83 21l117 -184q-12 -21 -40 -26zM95 149v256q-32 12 -78 20q0 27 6 46q80 -2 116 -2h34l8 -8q-2 -97 -2 -273q0 -128 78 -128q28 0 67.5 25t67.5 53v267q-33 12 -78 20q0 27 6 46q80 -2 115 -2h36l8 -8q-3 -100 -3 -288v-36q0 -51 5 -79 q23 3 64 16q15 -15 15 -37q-24 -21 -57 -36t-58 -15q-18 0 -31.5 28.5t-19.5 66.5q-42 -45 -80 -70t-82 -25q-137 0 -137 163z"/>
<glyph glyph-name="uacute" horiz-adv-x="582" unicode="ú" d="M211 550l110 167q44 12 99 12l8 -23l-179 -184q-25 6 -38 28zM95 149v256q-32 12 -78 20q0 27 6 46q80 -2 116 -2h34l8 -8q-2 -97 -2 -273q0 -128 78 -128q28 0 67.5 25t67.5 53v267q-33 12 -78 20q0 27 6 46q80 -2 115 -2h36l8 -8q-3 -100 -3 -288v-36q0 -51 5 -79 q23 3 64 16q15 -15 15 -37q-24 -21 -57 -36t-58 -15q-18 0 -31.5 28.5t-19.5 66.5q-42 -45 -80 -70t-82 -25q-137 0 -137 163z"/>
<glyph glyph-name="ucircumflex" horiz-adv-x="582" unicode="û" d="M388 519l-118 123l-111 -123q-21 6 -33 28l110 173q25 7 55 7h11l122 -177q-9 -22 -36 -31zM95 149v256q-32 12 -78 20q0 27 6 46q80 -2 116 -2h34l8 -8q-2 -97 -2 -273q0 -128 78 -128q28 0 67.5 25t67.5 53v267q-33 12 -78 20q0 27 6 46q80 -2 115 -2h36l8 -8 q-3 -100 -3 -288v-36q0 -51 5 -79q23 3 64 16q15 -15 15 -37q-24 -21 -57 -36t-58 -15q-18 0 -31.5 28.5t-19.5 66.5q-42 -45 -80 -70t-82 -25q-137 0 -137 163z"/>
<glyph glyph-name="udieresis" horiz-adv-x="582" unicode="ü" d="M356 554q-18 0 -34 13.5t-16 31.5q0 24 17.5 45.5t41.5 21.5q20 0 35 -13.5t15 -33.5q0 -25 -17 -44.5t-42 -20.5zM175 554q-19 0 -34.5 13.5t-15.5 31.5q0 25 17 46t42 21q19 0 34.5 -13.5t15.5 -33.5q0 -25 -17.5 -44.5t-41.5 -20.5zM95 149v256q-32 12 -78 20 q0 27 6 46q80 -2 116 -2h34l8 -8q-2 -97 -2 -273q0 -128 78 -128q28 0 67.5 25t67.5 53v267q-33 12 -78 20q0 27 6 46q80 -2 115 -2h36l8 -8q-3 -100 -3 -288v-36q0 -51 5 -79q23 3 64 16q15 -15 15 -37q-24 -21 -57 -36t-58 -15q-18 0 -31.5 28.5t-19.5 66.5 q-42 -45 -80 -70t-82 -25q-137 0 -137 163z"/>
<glyph glyph-name="yacute" horiz-adv-x="535" unicode="ý" d="M215 550l110 167q44 12 99 12l8 -23l-179 -184q-25 6 -38 28zM221 0l-149 408q-21 12 -55 18q0 26 7 45q12 0 44.5 -1t52.5 -1q41 0 115 2q6 -15 6 -31q0 -9 -1 -14l-77 -18l100 -275l4 -73h1l125 350l-77 16q0 26 7 45q14 0 52 -1t61 -1t77 2q6 -15 6 -33q0 -8 -1 -12 q-25 -13 -57 -18l-148 -400q-97 -264 -193 -264q-60 0 -97 26q0 26 16 44h13q66 0 107.5 38.5t75.5 113.5l15 34h-30z"/>
<glyph glyph-name="thorn" horiz-adv-x="542" unicode="þ" d="M293 412q-61 0 -126 -43v-249q60 -64 137 -64q18 0 37.5 6.5t25.5 12.5q50 59 50 142q0 80 -33 137.5t-91 57.5zM167 470v-48q67 59 154 59q81 0 131 -64.5t50 -171.5q0 -95 -61 -175.5t-148 -80.5q-58 0 -126 47v-150q0 -39 3 -75q66 -3 118 -18q0 -31 -6 -44 q-110 2 -155 2q-21 0 -61 -1t-60 -1q-7 14 -7 44q45 5 80 17q4 29 4 56v810q-45 12 -79 16q-5 17 -5 29q0 7 1 10q71 27 163 35l8 -8q-4 -133 -4 -288z"/>
<glyph glyph-name="ydieresis" horiz-adv-x="535" unicode="ÿ" d="M360 554q-18 0 -34 13.5t-16 31.5q0 24 17.5 45.5t41.5 21.5q20 0 35 -13.5t15 -33.5q0 -25 -17 -44.5t-42 -20.5zM179 554q-19 0 -34.5 13.5t-15.5 31.5q0 25 17 46t42 21q19 0 34.5 -13.5t15.5 -33.5q0 -25 -17.5 -44.5t-41.5 -20.5zM221 0l-149 408q-21 12 -55 18 q0 26 7 45q12 0 44.5 -1t52.5 -1q41 0 115 2q6 -15 6 -31q0 -9 -1 -14l-77 -18l100 -275l4 -73h1l125 350l-77 16q0 26 7 45q14 0 52 -1t61 -1t77 2q6 -15 6 -33q0 -8 -1 -12q-25 -13 -57 -18l-148 -400q-97 -264 -193 -264q-60 0 -97 26q0 26 16 44h13q66 0 107.5 38.5 t75.5 113.5l15 34h-30z"/>
<glyph glyph-name="Amacron" horiz-adv-x="677" unicode="Ā" d="M201 809h283q6 -15 6 -33q0 -17 -6 -32h-283q-5 17 -5 31q0 16 5 34zM332 589l-102 -303h189l-81 230l-5 73h-1zM496 66l-55 155q-71 4 -158 4h-73l-53 -159l88 -19v-8q0 -22 -6 -40q-29 2 -111 2q-15 0 -53.5 -1t-61.5 -1q-8 21 -8 48q34 4 80 19l205 595q36 14 88 14 l215 -609q38 -4 74 -19v-8q0 -22 -6 -40q-29 2 -124 2q-22 0 -64 -1t-63 -1q-8 21 -8 48z"/>
<glyph glyph-name="amacron" horiz-adv-x="487" unicode="ā" d="M92 617h275q6 -17 6 -33q0 -18 -6 -34h-275q-5 18 -5 32q0 17 5 35zM199 62q22 0 53.5 15t55.5 37v118q-57 -6 -105.5 -19t-58.5 -23q-20 -20 -20 -60q0 -30 18.5 -49t56.5 -19zM35 105q0 53 43.5 93.5t100.5 61t129 33.5q-1 63 -18.5 95.5t-65.5 32.5q-44 0 -79 -8 q-7 -30 -7 -81q-22 -10 -39 -10q-10 0 -19 3q-24 50 -24 107q84 51 178 51q26 0 50 -6t50.5 -21.5t42 -49t15.5 -81.5v-188q0 -51 5 -79q23 3 64 16q15 -15 15 -37q-59 -51 -114 -51q-15 0 -28.5 22t-20.5 57q-92 -79 -165 -79q-50 0 -81.5 32t-31.5 87z"/>
<glyph glyph-name="Abreve" horiz-adv-x="677" unicode="Ă" d="M335 735q-57 0 -97 32t-53 69q7 20 33 28q56 -58 127 -58q67 0 123 58q27 -7 31 -28q-22 -43 -63.5 -72t-100.5 -29zM332 589l-102 -303h189l-81 230l-5 73h-1zM496 66l-55 155q-71 4 -158 4h-73l-53 -159l88 -19v-8q0 -22 -6 -40q-29 2 -111 2q-15 0 -53.5 -1t-61.5 -1 q-8 21 -8 48q34 4 80 19l205 595q36 14 88 14l215 -609q38 -4 74 -19v-8q0 -22 -6 -40q-29 2 -124 2q-22 0 -64 -1t-63 -1q-8 21 -8 48z"/>
<glyph glyph-name="abreve" horiz-adv-x="487" unicode="ă" d="M223 544q-57 0 -97.5 37.5t-53.5 79.5q7 20 33 28q55 -71 127 -71q68 0 123 71q27 -7 31 -28q-13 -39 -59 -78t-104 -39zM199 62q22 0 53.5 15t55.5 37v118q-57 -6 -105.5 -19t-58.5 -23q-20 -20 -20 -60q0 -30 18.5 -49t56.5 -19zM35 105q0 53 43.5 93.5t100.5 61 t129 33.5q-1 63 -18.5 95.5t-65.5 32.5q-44 0 -79 -8q-7 -30 -7 -81q-22 -10 -39 -10q-10 0 -19 3q-24 50 -24 107q84 51 178 51q26 0 50 -6t50.5 -21.5t42 -49t15.5 -81.5v-188q0 -51 5 -79q23 3 64 16q15 -15 15 -37q-59 -51 -114 -51q-15 0 -28.5 22t-20.5 57 q-92 -79 -165 -79q-50 0 -81.5 32t-31.5 87z"/>
<glyph glyph-name="Aogonek" horiz-adv-x="676" unicode="Ą" d="M331 589l-102 -303h189l-81 230l-5 73h-1zM282 225h-73l-53 -159l88 -19v-8q0 -22 -6 -40q-29 2 -111 2q-15 0 -53.5 -1t-61.5 -1q-8 21 -8 48q35 4 80 19l205 595q36 14 88 14l215 -609q38 -4 74 -19v-8q0 -22 -6 -40q-7 1 -27 1q-54 -24 -85.5 -56t-31.5 -57 q0 -17 11.5 -27.5t28.5 -10.5q24 0 58 10q13 -18 13 -41q-56 -33 -109 -33q-36 0 -60 20.5t-24 49.5q0 88 146 144v2h-44q-22 0 -64 -1t-63 -1q-8 21 -8 48l94 19l-55 155q-71 4 -158 4z"/>
<glyph glyph-name="aogonek" horiz-adv-x="487" unicode="ą" d="M199 62q22 0 53.5 15t55.5 37v118q-57 -6 -105.5 -19t-58.5 -23q-20 -20 -20 -60q0 -30 18.5 -49t56.5 -19zM348 -8q-24 17 -35 73q-92 -79 -165 -79q-50 0 -81.5 32t-31.5 87q0 53 43.5 93.5t100.5 61t129 33.5q-1 63 -18.5 95.5t-65.5 32.5q-44 0 -79 -8q-7 -30 -7 -81 q-22 -10 -39 -10q-10 0 -19 3q-24 50 -24 107q84 51 178 51q26 0 50 -6t50.5 -21.5t42 -49t15.5 -81.5v-188q0 -51 5 -79q23 3 64 16q15 -15 15 -37q-136 -76 -136 -139q0 -22 11.5 -35t30.5 -13q22 0 56 10q13 -18 13 -41q-56 -33 -109 -33q-36 0 -60 24t-24 58 q0 64 90 124z"/>
<glyph glyph-name="Cacute" horiz-adv-x="606" unicode="Ć" d="M271 767l186 130q29 -17 51 -57l-3 -20l-213 -93q-13 11 -21 40zM462 607q-40 6 -112 6q-31 0 -74 -10.5t-59 -23.5q-81 -79 -81 -213q0 -64 13 -118t40.5 -97.5t76 -68.5t112.5 -25q54 0 97 9q11 59 14 122q15 6 32 6q14 0 21 -2q15 -80 15 -173q-106 -34 -206 -34 q-148 0 -227 95t-79 243q0 90 36 171t111.5 136t175.5 55q102 0 183 -27v-9q0 -79 -23 -156q-8 -2 -23 -2q-16 0 -28 6q-3 56 -15 110z"/>
<glyph glyph-name="cacute" horiz-adv-x="454" unicode="ć" d="M193 550l110 167q44 12 99 12l8 -23l-179 -184q-25 6 -38 28zM256 414q-59 0 -81 -19q-50 -52 -50 -140q0 -47 11 -88.5t43.5 -75t81.5 -33.5q61 0 149 34q16 -14 17 -38q-37 -27 -89 -47.5t-94 -20.5q-103 0 -153.5 66.5t-50.5 174.5q0 96 62 175t158 79q94 0 159 -29 q0 -72 -21 -130q-17 -5 -27 -5q-17 0 -32 9q-2 48 -8 83q-28 5 -75 5z"/>
<glyph glyph-name="Ccircumflex" horiz-adv-x="606" unicode="Ĉ" d="M483 719l-135 93l-133 -93q-19 12 -27 34l128 134q30 6 63 6l137 -135q-10 -24 -33 -39zM462 607q-40 6 -112 6q-31 0 -74 -10.5t-59 -23.5q-81 -79 -81 -213q0 -64 13 -118t40.5 -97.5t76 -68.5t112.5 -25q54 0 97 9q11 59 14 122q15 6 32 6q14 0 21 -2q15 -80 15 -173 q-106 -34 -206 -34q-148 0 -227 95t-79 243q0 90 36 171t111.5 136t175.5 55q102 0 183 -27v-9q0 -79 -23 -156q-8 -2 -23 -2q-16 0 -28 6q-3 56 -15 110z"/>
<glyph glyph-name="ccircumflex" horiz-adv-x="454" unicode="ĉ" d="M370 519l-118 123l-111 -123q-21 6 -33 28l110 173q25 7 55 7h11l122 -177q-9 -22 -36 -31zM256 414q-59 0 -81 -19q-50 -52 -50 -140q0 -47 11 -88.5t43.5 -75t81.5 -33.5q61 0 149 34q16 -14 17 -38q-37 -27 -89 -47.5t-94 -20.5q-103 0 -153.5 66.5t-50.5 174.5 q0 96 62 175t158 79q94 0 159 -29q0 -72 -21 -130q-17 -5 -27 -5q-17 0 -32 9q-2 48 -8 83q-28 5 -75 5z"/>
<glyph glyph-name="Cdotaccent" horiz-adv-x="606" unicode="Ċ" d="M347 740q-20 0 -37 14.5t-17 34.5q0 25 19 48t44 23q21 0 37.5 -14.5t16.5 -35.5q0 -26 -18.5 -48t-44.5 -22zM462 607q-40 6 -112 6q-31 0 -74 -10.5t-59 -23.5q-81 -79 -81 -213q0 -64 13 -118t40.5 -97.5t76 -68.5t112.5 -25q54 0 97 9q11 59 14 122q15 6 32 6 q14 0 21 -2q15 -80 15 -173q-106 -34 -206 -34q-148 0 -227 95t-79 243q0 90 36 171t111.5 136t175.5 55q102 0 183 -27v-9q0 -79 -23 -156q-8 -2 -23 -2q-16 0 -28 6q-3 56 -15 110z"/>
<glyph glyph-name="cdotaccent" horiz-adv-x="454" unicode="ċ" d="M248 561q-21 0 -40.5 16t-19.5 38q0 28 21 53t48 25q23 0 41.5 -16t18.5 -39q0 -28 -20.5 -52.5t-48.5 -24.5zM256 414q-59 0 -81 -19q-50 -52 -50 -140q0 -47 11 -88.5t43.5 -75t81.5 -33.5q61 0 149 34q16 -14 17 -38q-37 -27 -89 -47.5t-94 -20.5q-103 0 -153.5 66.5 t-50.5 174.5q0 96 62 175t158 79q94 0 159 -29q0 -72 -21 -130q-17 -5 -27 -5q-17 0 -32 9q-2 48 -8 83q-28 5 -75 5z"/>
<glyph glyph-name="Ccaron" horiz-adv-x="606" unicode="Č" d="M187 861q11 24 33 39l135 -93l133 93q19 -12 27 -34l-128 -134q-30 -6 -63 -6zM462 607q-40 6 -112 6q-31 0 -74 -10.5t-59 -23.5q-81 -79 -81 -213q0 -64 13 -118t40.5 -97.5t76 -68.5t112.5 -25q54 0 97 9q11 59 14 122q15 6 32 6q14 0 21 -2q15 -80 15 -173 q-106 -34 -206 -34q-148 0 -227 95t-79 243q0 90 36 171t111.5 136t175.5 55q102 0 183 -27v-9q0 -79 -23 -156q-8 -2 -23 -2q-16 0 -28 6q-3 56 -15 110z"/>
<glyph glyph-name="ccaron" horiz-adv-x="454" unicode="č" d="M105 710q9 22 36 31l118 -123l111 123q21 -6 33 -28l-110 -173q-25 -7 -55 -7h-11zM256 414q-59 0 -81 -19q-50 -52 -50 -140q0 -47 11 -88.5t43.5 -75t81.5 -33.5q61 0 149 34q16 -14 17 -38q-37 -27 -89 -47.5t-94 -20.5q-103 0 -153.5 66.5t-50.5 174.5q0 96 62 175 t158 79q94 0 159 -29q0 -72 -21 -130q-17 -5 -27 -5q-17 0 -32 9q-2 48 -8 83q-28 5 -75 5z"/>
<glyph glyph-name="Dcaron" horiz-adv-x="663" unicode="Ď" d="M146 861q10 24 33 39l135 -93l133 93q19 -12 27 -34l-128 -134q-30 -6 -63 -6zM313 608q-8 0 -101 -3v-541h90q39 0 81 8.5t56 19.5q88 68 88 210q0 79 -21 146t-71 113.5t-122 46.5zM167 1q-22 0 -64 -1t-63 -1q-8 21 -8 48q39 4 87 19q5 24 5 61v339q0 76 -5 138 q-48 15 -87 19q0 27 8 48q21 0 63 -1t64 -1q38 0 96 2t79 2q130 0 203 -91t73 -238q0 -66 -20.5 -127.5t-57.5 -110.5t-95 -79t-127 -30q-18 0 -68 2t-83 2z"/>
<glyph glyph-name="dcaron" horiz-adv-x="631" unicode="ď" d="M518 758l8 8q7 1 20 1q35 0 59 -18l-47 -210q-5 -1 -15 -1q-17 0 -28 6zM238 58q42 0 127 75v256q-71 25 -121 25t-69 -19q-50 -54 -50 -140q0 -81 30 -139t83 -58zM40 227q0 104 65 179t150 75q54 0 110 -35v230q-52 12 -91 16q-5 17 -5 29q0 7 1 10q76 27 175 35l8 -8 q-4 -133 -4 -288v-333q0 -51 5 -79q23 3 64 16q15 -15 15 -37q-59 -51 -114 -51q-17 0 -30.5 27t-20.5 65q-82 -92 -151 -92q-85 0 -131 67.5t-46 173.5z"/>
<glyph glyph-name="Dcroat" horiz-adv-x="666" unicode="Đ" d="M347 308h-132v-244h90q39 0 81 8.5t56 19.5q88 68 88 210q0 79 -21 146t-71 113.5t-122 46.5q-8 0 -101 -3v-231h132q3 -18 3 -33t-3 -33zM170 1q-22 0 -64 -1t-63 -1q-8 21 -8 48q39 4 87 19q5 24 5 61v181h-89q-3 16 -3 34q0 16 3 32h89v92q0 76 -5 138q-48 15 -87 19 q0 27 8 48q21 0 63 -1t64 -1q38 0 96 2t79 2q130 0 203 -91t73 -238q0 -66 -20.5 -127.5t-57.5 -110.5t-95 -79t-127 -30q-18 0 -68 2t-83 2z"/>
<glyph glyph-name="dcroat" horiz-adv-x="553" unicode="đ" d="M238 58q42 0 127 75v256q-71 25 -121 25t-69 -19q-50 -54 -50 -140q0 -81 30 -139t83 -58zM524 554h-75v-84v-333q0 -51 5 -79q23 3 64 16q15 -15 15 -37q-59 -51 -114 -51q-17 0 -30.5 27t-20.5 65q-82 -92 -151 -92q-85 0 -131 67.5t-46 173.5q0 104 65 179t150 75 q54 0 110 -35v108h-150q-3 14 -3 29q0 13 3 27h150v66q-52 12 -91 16q-5 17 -5 29q0 7 1 10q76 27 175 35l8 -8q-2 -54 -4 -148h75q3 -15 3 -28t-3 -28z"/>
<glyph glyph-name="Emacron" horiz-adv-x="583" unicode="Ē" d="M150 809h283q6 -15 6 -33q0 -17 -6 -32h-283q-5 17 -5 31q0 16 5 34zM167 669h103q173 0 235 2l8 -8q0 -5 0.5 -17t0.5 -17q0 -59 -10 -134q-13 -5 -26 -5q-14 0 -27 5q-3 60 -16 110h-223v-228l205 4l8 -8q-2 -37 -10 -62l-203 4v-250h235q22 62 36 122q12 2 19 2 q16 0 34 -6q0 -95 -11 -176l-8 -8q-62 2 -235 2h-115q-22 0 -64 -1t-63 -1q-8 21 -8 48q39 4 87 19q5 24 5 61v339q0 76 -5 138q-48 15 -87 19q0 27 8 48q21 0 63 -1t64 -1z"/>
<glyph glyph-name="emacron" horiz-adv-x="480" unicode="ē" d="M113 617h275q6 -17 6 -33q0 -18 -6 -34h-275q-5 18 -5 32q0 17 5 35zM174 400q-38 -41 -48 -111h98q72 0 122 4q0 27 -4 47t-14.5 39.5t-32 29.5t-53.5 10q-49 0 -68 -19zM40 228q0 98 62 177t154 79q95 0 136.5 -51.5t41.5 -127.5q0 -40 -5 -62l-8 -8q-82 2 -181 2h-116 q3 -45 15.5 -83t43.5 -67t77 -29q66 0 159 36q15 -12 17 -36q-41 -28 -95 -50t-98 -22q-102 0 -152.5 66.5t-50.5 175.5z"/>
<glyph glyph-name="Ebreve" horiz-adv-x="583" unicode="Ĕ" d="M284 735q-57 0 -97 32t-53 69q7 20 33 28q56 -58 127 -58q67 0 123 58q27 -7 31 -28q-22 -43 -63.5 -72t-100.5 -29zM167 669h103q173 0 235 2l8 -8q0 -5 0.5 -17t0.5 -17q0 -59 -10 -134q-13 -5 -26 -5q-14 0 -27 5q-3 60 -16 110h-223v-228l205 4l8 -8q-2 -37 -10 -62 l-203 4v-250h235q22 62 36 122q12 2 19 2q16 0 34 -6q0 -95 -11 -176l-8 -8q-62 2 -235 2h-115q-22 0 -64 -1t-63 -1q-8 21 -8 48q39 4 87 19q5 24 5 61v339q0 76 -5 138q-48 15 -87 19q0 27 8 48q21 0 63 -1t64 -1z"/>
<glyph glyph-name="ebreve" horiz-adv-x="480" unicode="ĕ" d="M244 544q-57 0 -97.5 37.5t-53.5 79.5q7 20 33 28q55 -71 127 -71q68 0 123 71q27 -7 31 -28q-13 -39 -59 -78t-104 -39zM174 400q-38 -41 -48 -111h98q72 0 122 4q0 27 -4 47t-14.5 39.5t-32 29.5t-53.5 10q-49 0 -68 -19zM40 228q0 98 62 177t154 79q95 0 136.5 -51.5 t41.5 -127.5q0 -40 -5 -62l-8 -8q-82 2 -181 2h-116q3 -45 15.5 -83t43.5 -67t77 -29q66 0 159 36q15 -12 17 -36q-41 -28 -95 -50t-98 -22q-102 0 -152.5 66.5t-50.5 175.5z"/>
<glyph glyph-name="Edotaccent" horiz-adv-x="583" unicode="Ė" d="M288 740q-20 0 -37 14.5t-17 34.5q0 25 19 48t44 23q21 0 37.5 -14.5t16.5 -35.5q0 -26 -18.5 -48t-44.5 -22zM167 669h103q173 0 235 2l8 -8q0 -5 0.5 -17t0.5 -17q0 -59 -10 -134q-13 -5 -26 -5q-14 0 -27 5q-3 60 -16 110h-223v-228l205 4l8 -8q-2 -37 -10 -62l-203 4 v-250h235q22 62 36 122q12 2 19 2q16 0 34 -6q0 -95 -11 -176l-8 -8q-62 2 -235 2h-115q-22 0 -64 -1t-63 -1q-8 21 -8 48q39 4 87 19q5 24 5 61v339q0 76 -5 138q-48 15 -87 19q0 27 8 48q21 0 63 -1t64 -1z"/>
<glyph glyph-name="edotaccent" horiz-adv-x="480" unicode="ė" d="M247 561q-21 0 -40.5 16t-19.5 38q0 28 20.5 53t48.5 25q23 0 41.5 -16t18.5 -39q0 -28 -20.5 -52.5t-48.5 -24.5zM174 400q-38 -41 -48 -111h98q72 0 122 4q0 27 -4 47t-14.5 39.5t-32 29.5t-53.5 10q-49 0 -68 -19zM40 228q0 98 62 177t154 79q95 0 136.5 -51.5 t41.5 -127.5q0 -40 -5 -62l-8 -8q-82 2 -181 2h-116q3 -45 15.5 -83t43.5 -67t77 -29q66 0 159 36q15 -12 17 -36q-41 -28 -95 -50t-98 -22q-102 0 -152.5 66.5t-50.5 175.5z"/>
<glyph glyph-name="Eogonek" horiz-adv-x="583" unicode="Ę" d="M417 381l8 -8q-2 -37 -10 -62l-203 4v-250h235q22 62 36 122q12 2 19 2q16 0 34 -6q0 -95 -11 -176l-8 -8q-55 -24 -87 -55.5t-32 -56.5q0 -17 11.5 -27.5t28.5 -10.5q24 0 58 10q13 -18 13 -41q-56 -33 -109 -33q-36 0 -60 20.5t-24 49.5q0 88 146 144v2h-295 q-22 0 -64 -1t-63 -1q-8 21 -8 48q39 4 87 19q5 24 5 61v339q0 76 -5 138q-48 15 -87 19q0 27 8 48q21 0 63 -1t64 -1h103q173 0 235 2l8 -8q0 -5 0.5 -17t0.5 -17q0 -59 -10 -134q-13 -5 -26 -5q-14 0 -27 5q-3 60 -16 110h-223v-228z"/>
<glyph glyph-name="eogonek" horiz-adv-x="480" unicode="ę" d="M174 400q-38 -41 -48 -111h98q72 0 122 4q0 27 -4 47t-14.5 39.5t-32 29.5t-53.5 10q-49 0 -68 -19zM40 228q0 98 62 177t154 79q95 0 136.5 -51.5t41.5 -127.5q0 -40 -5 -62l-8 -8q-82 2 -181 2h-116q3 -45 15.5 -83t43.5 -67t77 -29q66 0 159 36q15 -12 17 -36l-14 -9 q-122 -83 -122 -150q0 -22 11.5 -35.5t28.5 -13.5q24 0 58 10q13 -18 13 -41q-56 -33 -109 -33q-35 0 -59.5 23.5t-24.5 55.5q0 71 99 132l-1 2q-41 -13 -73 -13q-102 0 -152.5 66.5t-50.5 175.5z"/>
<glyph glyph-name="Ecaron" horiz-adv-x="583" unicode="Ě" d="M128 861q10 24 33 39l135 -93l133 93q19 -12 27 -34l-128 -134q-30 -6 -63 -6zM167 669h103q173 0 235 2l8 -8q0 -5 0.5 -17t0.5 -17q0 -59 -10 -134q-13 -5 -26 -5q-14 0 -27 5q-3 60 -16 110h-223v-228l205 4l8 -8q-2 -37 -10 -62l-203 4v-250h235q22 62 36 122 q12 2 19 2q16 0 34 -6q0 -95 -11 -176l-8 -8q-62 2 -235 2h-115q-22 0 -64 -1t-63 -1q-8 21 -8 48q39 4 87 19q5 24 5 61v339q0 76 -5 138q-48 15 -87 19q0 27 8 48q21 0 63 -1t64 -1z"/>
<glyph glyph-name="ecaron" horiz-adv-x="480" unicode="ě" d="M104 710q9 22 36 31l118 -123l111 123q21 -6 33 -28l-110 -173q-25 -7 -55 -7h-11zM174 400q-38 -41 -48 -111h98q72 0 122 4q0 27 -4 47t-14.5 39.5t-32 29.5t-53.5 10q-49 0 -68 -19zM40 228q0 98 62 177t154 79q95 0 136.5 -51.5t41.5 -127.5q0 -40 -5 -62l-8 -8 q-82 2 -181 2h-116q3 -45 15.5 -83t43.5 -67t77 -29q66 0 159 36q15 -12 17 -36q-41 -28 -95 -50t-98 -22q-102 0 -152.5 66.5t-50.5 175.5z"/>
<glyph glyph-name="Gcircumflex" horiz-adv-x="659" unicode="Ĝ" d="M485 719l-135 93l-133 -93q-19 12 -27 34l128 134q30 6 63 6l137 -135q-10 -24 -33 -39zM136 366q0 -64 13 -118t40.5 -97.5t76 -68.5t112.5 -25q44 0 96 12v32q0 76 -5 138q-49 14 -93 18q0 27 8 48q21 0 60 -1t56 -1q95 0 124 2q6 -18 6 -40v-8q-33 -15 -69 -19 q-3 -39 -3 -168v-30q-122 -55 -222 -55q-139 0 -215 95.5t-76 242.5q0 67 21.5 130.5t61 115.5t104.5 84t144 32q107 0 188 -27v-9q0 -79 -23 -156q-8 -2 -23 -2q-16 0 -28 6q-3 56 -15 110q-50 6 -125 6q-31 0 -74 -10.5t-59 -23.5q-81 -79 -81 -213z"/>
<glyph glyph-name="gcircumflex" horiz-adv-x="508" unicode="ĝ" d="M354 519l-118 123l-111 -123q-21 6 -33 28l110 173q25 7 55 7h11l122 -177q-9 -22 -36 -31zM342 307q0 42 -32 76t-83 34q-45 0 -63 -12q-15 -11 -27 -35t-12 -49q0 -50 30.5 -84.5t77.5 -34.5q44 0 70 13q14 8 26.5 36t12.5 56zM266 -16q-75 0 -113 11q-46 -48 -46 -100 q0 -36 29.5 -65t100.5 -29q86 0 132 29q10 6 19 31.5t9 51.5q0 37 -30 54t-101 17zM217 138q-14 0 -21 1q-11 -22 -11 -41q0 -23 4 -28q7 -8 96 -8q94 0 144 -32.5t50 -85.5q0 -103 -71.5 -156.5t-197.5 -53.5q-85 0 -136 43t-51 97q0 83 98 139q-12 12 -12 39q0 38 46 93 q-109 28 -109 149q0 73 52.5 129.5t145.5 56.5q64 0 108 -26q41 44 116 77q32 -25 35 -69q-40 -16 -116 -38q34 -41 34 -101q0 -75 -53 -130t-151 -55z"/>
<glyph glyph-name="Gbreve" horiz-adv-x="659" unicode="Ğ" d="M345 735q-57 0 -97 32t-53 69q7 20 33 28q56 -58 127 -58q67 0 123 58q27 -7 31 -28q-22 -43 -63.5 -72t-100.5 -29zM136 366q0 -64 13 -118t40.5 -97.5t76 -68.5t112.5 -25q44 0 96 12v32q0 76 -5 138q-49 14 -93 18q0 27 8 48q21 0 60 -1t56 -1q95 0 124 2q6 -18 6 -40 v-8q-33 -15 -69 -19q-3 -39 -3 -168v-30q-122 -55 -222 -55q-139 0 -215 95.5t-76 242.5q0 67 21.5 130.5t61 115.5t104.5 84t144 32q107 0 188 -27v-9q0 -79 -23 -156q-8 -2 -23 -2q-16 0 -28 6q-3 56 -15 110q-50 6 -125 6q-31 0 -74 -10.5t-59 -23.5q-81 -79 -81 -213z "/>
<glyph glyph-name="gbreve" horiz-adv-x="508" unicode="ğ" d="M229 544q-57 0 -97.5 37.5t-53.5 79.5q7 20 33 28q55 -71 127 -71q68 0 123 71q27 -7 31 -28q-13 -39 -59 -78t-104 -39zM342 307q0 42 -32 76t-83 34q-45 0 -63 -12q-15 -11 -27 -35t-12 -49q0 -50 30.5 -84.5t77.5 -34.5q44 0 70 13q14 8 26.5 36t12.5 56zM266 -16 q-75 0 -113 11q-46 -48 -46 -100q0 -36 29.5 -65t100.5 -29q86 0 132 29q10 6 19 31.5t9 51.5q0 37 -30 54t-101 17zM217 138q-14 0 -21 1q-11 -22 -11 -41q0 -23 4 -28q7 -8 96 -8q94 0 144 -32.5t50 -85.5q0 -103 -71.5 -156.5t-197.5 -53.5q-85 0 -136 43t-51 97 q0 83 98 139q-12 12 -12 39q0 38 46 93q-109 28 -109 149q0 73 52.5 129.5t145.5 56.5q64 0 108 -26q41 44 116 77q32 -25 35 -69q-40 -16 -116 -38q34 -41 34 -101q0 -75 -53 -130t-151 -55z"/>
<glyph glyph-name="Gdotaccent" horiz-adv-x="659" unicode="Ġ" d="M349 740q-20 0 -37 14.5t-17 34.5q0 25 19 48t44 23q21 0 37.5 -14.5t16.5 -35.5q0 -26 -18.5 -48t-44.5 -22zM136 366q0 -64 13 -118t40.5 -97.5t76 -68.5t112.5 -25q44 0 96 12v32q0 76 -5 138q-49 14 -93 18q0 27 8 48q21 0 60 -1t56 -1q95 0 124 2q6 -18 6 -40v-8 q-33 -15 -69 -19q-3 -39 -3 -168v-30q-122 -55 -222 -55q-139 0 -215 95.5t-76 242.5q0 67 21.5 130.5t61 115.5t104.5 84t144 32q107 0 188 -27v-9q0 -79 -23 -156q-8 -2 -23 -2q-16 0 -28 6q-3 56 -15 110q-50 6 -125 6q-31 0 -74 -10.5t-59 -23.5q-81 -79 -81 -213z"/>
<glyph glyph-name="gdotaccent" horiz-adv-x="508" unicode="ġ" d="M232 561q-21 0 -40.5 16t-19.5 38q0 28 21 53t48 25q23 0 41.5 -16t18.5 -39q0 -28 -20.5 -52.5t-48.5 -24.5zM342 307q0 42 -32 76t-83 34q-45 0 -63 -12q-15 -11 -27 -35t-12 -49q0 -50 30.5 -84.5t77.5 -34.5q44 0 70 13q14 8 26.5 36t12.5 56zM266 -16q-75 0 -113 11 q-46 -48 -46 -100q0 -36 29.5 -65t100.5 -29q86 0 132 29q10 6 19 31.5t9 51.5q0 37 -30 54t-101 17zM217 138q-14 0 -21 1q-11 -22 -11 -41q0 -23 4 -28q7 -8 96 -8q94 0 144 -32.5t50 -85.5q0 -103 -71.5 -156.5t-197.5 -53.5q-85 0 -136 43t-51 97q0 83 98 139 q-12 12 -12 39q0 38 46 93q-109 28 -109 149q0 73 52.5 129.5t145.5 56.5q64 0 108 -26q41 44 116 77q32 -25 35 -69q-40 -16 -116 -38q34 -41 34 -101q0 -75 -53 -130t-151 -55z"/>
<glyph glyph-name="Gcommaaccent" horiz-adv-x="659" unicode="Ģ" d="M284 -91q27 27 67 32q45 -35 45 -87q0 -81 -91 -139q-18 8 -22 23q32 43 32 93q0 31 -31 78zM136 366q0 -64 13 -118t40.5 -97.5t76 -68.5t112.5 -25q44 0 96 12v32q0 76 -5 138q-49 14 -93 18q0 27 8 48q21 0 60 -1t56 -1q95 0 124 2q6 -18 6 -40v-8q-33 -15 -69 -19 q-3 -39 -3 -168v-30q-122 -55 -222 -55q-139 0 -215 95.5t-76 242.5q0 67 21.5 130.5t61 115.5t104.5 84t144 32q107 0 188 -27v-9q0 -79 -23 -156q-8 -2 -23 -2q-16 0 -28 6q-3 56 -15 110q-50 6 -125 6q-31 0 -74 -10.5t-59 -23.5q-81 -79 -81 -213z"/>
<glyph glyph-name="gcommaaccent" horiz-adv-x="518" unicode="ģ" d="M299 569q-26 -26 -65 -31q-42 34 -42 83q0 79 86 133q19 -6 22 -22q-32 -40 -32 -89q0 -31 31 -74zM355 307q0 42 -32 76t-83 34q-45 0 -63 -12q-15 -11 -27 -35t-12 -49q0 -50 30.5 -84.5t77.5 -34.5q44 0 70 13q14 8 26.5 36t12.5 56zM279 -16q-75 0 -113 11 q-46 -48 -46 -100q0 -36 29.5 -65t100.5 -29q86 0 132 29q10 6 19 31.5t9 51.5q0 37 -30 54t-101 17zM230 138q-14 0 -21 1q-11 -22 -11 -41q0 -23 4 -28q7 -8 96 -8q94 0 144 -32.5t50 -85.5q0 -103 -71.5 -156.5t-197.5 -53.5q-85 0 -136 43t-51 97q0 83 98 139 q-12 12 -12 39q0 38 46 93q-109 28 -109 149q0 73 52.5 129.5t145.5 56.5q64 0 108 -26q41 44 116 77q32 -25 35 -69q-40 -16 -116 -38q34 -41 34 -101q0 -75 -53 -130t-151 -55z"/>
<glyph glyph-name="Hcircumflex" horiz-adv-x="754" unicode="Ĥ" d="M508 719l-135 93l-133 -93q-19 12 -27 34l128 134q30 6 63 6l137 -135q-11 -24 -33 -39zM539 604q-48 15 -87 19q0 27 8 48q21 0 63 -1t64 -1q95 0 124 2q6 -18 6 -40v-8q-40 -15 -81 -19q-4 -44 -4 -173v-282q0 -48 4 -83q41 -4 81 -19v-8q0 -22 -6 -40q-29 2 -124 2 q-22 0 -64 -1t-63 -1q-8 21 -8 48q39 4 87 19q5 30 5 95v154q-117 5 -206 5h-126v-171q0 -48 4 -83q41 -4 81 -19v-8q0 -22 -6 -40q-29 2 -124 2q-22 0 -64 -1t-63 -1q-8 21 -8 48q39 4 87 19q5 30 5 95v305q0 76 -5 138q-48 15 -87 19q0 27 8 48q21 0 63 -1t64 -1 q95 0 124 2q6 -18 6 -40v-8q-40 -15 -81 -19q-4 -44 -4 -173v-49h332v84q0 76 -5 138z"/>
<glyph glyph-name="hcircumflex" horiz-adv-x="581" unicode="ĥ" d="M268 799l-135 93l-133 -93q-19 12 -27 34l128 134q30 6 63 6l137 -135q-11 -24 -33 -39zM403 117v168q0 65 -18 97.5t-73 32.5q-65 0 -126 -29v-249q0 -39 3 -75q46 -5 75 -18q0 -32 -6 -45q-54 2 -112 2q-21 0 -61.5 -1t-59.5 -1q-7 14 -7 45q45 5 80 17q4 29 4 56v559 q-45 12 -79 16q-5 17 -5 29q0 7 1 10q71 27 163 35l8 -8q-4 -133 -4 -288v-38q76 52 163 52q138 0 138 -160v-187q0 -39 3 -75q45 -5 76 -18q0 -32 -7 -45q-54 2 -112 2q-21 0 -61.5 -1t-59.5 -1q-7 14 -7 45q44 5 81 17q3 33 3 56z"/>
<glyph glyph-name="Hbar" horiz-adv-x="758" unicode="Ħ" d="M214 431v-49h332v83h-332v-34zM541 604q-48 15 -87 19q0 27 8 48q21 0 63 -1t64 -1q95 0 124 2q6 -18 6 -40v-8q-40 -15 -81 -19q-2 -26 -4 -77h82q3 -17 3 -31t-3 -31h-82v-34v-282q0 -48 4 -83q41 -4 81 -19v-8q0 -22 -6 -40q-29 2 -124 2q-22 0 -64 -1t-63 -1 q-8 21 -8 48q39 4 87 19q5 30 5 95v154q-117 5 -206 5h-126v-171q0 -48 4 -83q41 -4 81 -19v-8q0 -22 -6 -40q-29 2 -124 2q-22 0 -64 -1t-63 -1q-8 21 -8 48q39 4 87 19q5 30 5 95v304h-89q-3 17 -3 32t3 30h88q-2 51 -4 77q-48 15 -87 19q0 27 8 48q21 0 63 -1t64 -1 q95 0 124 2q6 -18 6 -40v-8q-40 -15 -81 -19q-2 -26 -4 -77h331q-2 51 -4 77z"/>
<glyph glyph-name="hbar" horiz-adv-x="583" unicode="ħ" d="M405 117v156q0 61 -18 91.5t-73 30.5q-65 0 -126 -29v-229q0 -39 3 -75q46 -5 75 -18q0 -32 -6 -45q-54 2 -112 2q-21 0 -61.5 -1t-59.5 -1q-7 14 -7 45q45 5 80 17q4 29 4 56v417h-78q-3 13 -3 29q0 13 3 27h78v86q-45 12 -79 16q-5 17 -5 29q0 7 1 10q71 27 163 35 l8 -8q-2 -65 -4 -168h147q3 -15 3 -28t-3 -28h-147v-64v-58q76 52 163 52q138 0 138 -151v-176q0 -39 3 -75q45 -5 76 -18q0 -32 -7 -45q-54 2 -112 2q-21 0 -61.5 -1t-59.5 -1q-7 14 -7 45q44 5 81 17q3 33 3 56z"/>
<glyph glyph-name="Itilde" horiz-adv-x="334" unicode="Ĩ" d="M19 744q-25 7 -33 27q23 43 58 71.5t65 28.5q27 0 71.5 -32.5t64.5 -32.5q12 0 32 15t38 39q25 -7 33 -27q-23 -43 -58 -71.5t-65 -28.5q-27 0 -71.5 32.5t-64.5 32.5q-12 0 -32 -15t-38 -39zM119 604q-48 15 -87 19q0 27 8 48q21 0 63 -1t64 -1q95 0 124 2q6 -18 6 -40 v-8q-40 -15 -81 -19q-4 -49 -4 -138v-317q0 -48 4 -83q41 -4 81 -19v-8q0 -22 -6 -40q-29 2 -124 2q-22 0 -64 -1t-63 -1q-8 21 -8 48q39 4 87 19q5 24 5 61v339q0 76 -5 138z"/>
<glyph glyph-name="itilde" horiz-adv-x="305" unicode="ĩ" d="M199 187v-50q0 -39 3 -75q46 -5 75 -18q0 -32 -6 -45q-54 2 -112 2q-21 0 -61.5 -1t-59.5 -1q-7 14 -7 45q41 4 80 18q4 25 4 55v276q-45 12 -79 16q-5 17 -5 29q0 7 1 10q71 27 163 35l8 -8q-4 -133 -4 -288zM13 552q-26 7 -34 28q21 45 52.5 74t58.5 29t67.5 -33.5 t57.5 -33.5q11 0 29 15.5t35 40.5q23 -6 35 -26q-21 -45 -53.5 -75t-60.5 -30q-26 0 -67 33.5t-56 33.5q-11 0 -29 -15.5t-35 -40.5z"/>
<glyph glyph-name="Imacron" horiz-adv-x="334" unicode="Ī" d="M26 809h283q6 -15 6 -33q0 -17 -6 -32h-283q-5 17 -5 31q0 16 5 34zM119 604q-48 15 -87 19q0 27 8 48q21 0 63 -1t64 -1q95 0 124 2q6 -18 6 -40v-8q-40 -15 -81 -19q-4 -49 -4 -138v-317q0 -48 4 -83q41 -4 81 -19v-8q0 -22 -6 -40q-29 2 -124 2q-22 0 -64 -1t-63 -1 q-8 21 -8 48q39 4 87 19q5 24 5 61v339q0 76 -5 138z"/>
<glyph glyph-name="imacron" horiz-adv-x="305" unicode="ī" d="M199 187v-50q0 -39 3 -75q46 -5 75 -18q0 -32 -6 -45q-54 2 -112 2q-21 0 -61.5 -1t-59.5 -1q-7 14 -7 45q41 4 80 18q4 25 4 55v276q-45 12 -79 16q-5 17 -5 29q0 7 1 10q71 27 163 35l8 -8q-4 -133 -4 -288zM9 617h261q6 -17 6 -33q0 -18 -6 -34h-261q-5 18 -5 32 q0 17 5 35z"/>
<glyph glyph-name="Ibreve" horiz-adv-x="334" unicode="Ĭ" d="M160 735q-57 0 -97 32t-53 69q7 20 33 28q56 -58 127 -58q67 0 123 58q27 -7 31 -28q-22 -43 -63.5 -72t-100.5 -29zM119 604q-48 15 -87 19q0 27 8 48q21 0 63 -1t64 -1q95 0 124 2q6 -18 6 -40v-8q-40 -15 -81 -19q-4 -49 -4 -138v-317q0 -48 4 -83q41 -4 81 -19v-8 q0 -22 -6 -40q-29 2 -124 2q-22 0 -64 -1t-63 -1q-8 21 -8 48q39 4 87 19q5 24 5 61v339q0 76 -5 138z"/>
<glyph glyph-name="ibreve" horiz-adv-x="305" unicode="ĭ" d="M142 524q-57 0 -97.5 37.5t-53.5 79.5q7 20 33 28q55 -71 127 -71q68 0 123 71q27 -7 31 -28q-13 -39 -59 -78t-104 -39zM199 187v-50q0 -39 3 -75q46 -5 75 -18q0 -32 -6 -45q-54 2 -112 2q-21 0 -61.5 -1t-59.5 -1q-7 14 -7 45q41 4 80 18q4 25 4 55v276q-45 12 -79 16 q-5 17 -5 29q0 7 1 10q71 27 163 35l8 -8q-4 -133 -4 -288z"/>
<glyph glyph-name="Iogonek" horiz-adv-x="334" unicode="Į" d="M119 604q-48 15 -87 19q0 27 8 48q21 0 63 -1t64 -1q95 0 124 2q6 -18 6 -40v-8q-40 -15 -81 -19q-4 -49 -4 -138v-317q0 -48 4 -83q41 -4 81 -19v-8q0 -22 -6 -40q-30 2 -56 2q-89 -56 -89 -114q0 -17 11.5 -27.5t28.5 -10.5q24 0 58 10q13 -18 13 -41q-56 -33 -109 -33 q-36 0 -60 20.5t-24 49.5q0 82 118 145v1q-22 0 -71.5 -1t-70.5 -1q-8 21 -8 48q39 4 87 19q5 24 5 61v339q0 76 -5 138z"/>
<glyph glyph-name="iogonek" horiz-adv-x="305" unicode="į" d="M145 561q-21 0 -40.5 16t-19.5 38q0 28 20.5 53t48.5 25q23 0 41.5 -16t18.5 -39q0 -28 -20.5 -52.5t-48.5 -24.5zM199 187v-50q0 -39 3 -75q46 -5 75 -18q0 -32 -6 -45q-10 1 -39 1q-88 -51 -88 -104q0 -21 11.5 -33.5t28.5 -12.5q24 0 58 10q13 -18 13 -41 q-56 -33 -109 -33q-36 0 -60 24t-24 57q0 39 27.5 74.5t87.5 58.5v1h-18q-21 0 -61.5 -1t-59.5 -1q-7 14 -7 45q41 4 80 18q4 25 4 55v276q-45 12 -79 16q-5 17 -5 29q0 7 1 10q71 27 163 35l8 -8q-4 -133 -4 -288z"/>
<glyph glyph-name="Idotaccent" horiz-adv-x="334" unicode="İ" d="M164 740q-20 0 -37 14.5t-17 34.5q0 25 19 48t44 23q21 0 37.5 -14.5t16.5 -35.5q0 -26 -18.5 -48t-44.5 -22zM119 604q-48 15 -87 19q0 27 8 48q21 0 63 -1t64 -1q95 0 124 2q6 -18 6 -40v-8q-40 -15 -81 -19q-4 -49 -4 -138v-317q0 -48 4 -83q41 -4 81 -19v-8 q0 -22 -6 -40q-29 2 -124 2q-22 0 -64 -1t-63 -1q-8 21 -8 48q39 4 87 19q5 24 5 61v339q0 76 -5 138z"/>
<glyph glyph-name="dotlessi" horiz-adv-x="305" unicode="ı" d="M199 187v-50q0 -39 3 -75q46 -5 75 -18q0 -32 -6 -45q-54 2 -112 2q-21 0 -61.5 -1t-59.5 -1q-7 14 -7 45q41 4 80 18q4 25 4 55v276q-45 12 -79 16q-5 17 -5 29q0 7 1 10q71 27 163 35l8 -8q-4 -133 -4 -288z"/>
<glyph glyph-name="IJ" horiz-adv-x="640" unicode="Ĳ" d="M533 466v-439q0 -115 -58.5 -172.5t-167.5 -69.5q-17 17 -17 51q81 31 118 78.5t37 132.5v419q0 76 -5 138q-48 15 -87 19q0 27 8 48q21 0 63 -1t64 -1q95 0 124 2q6 -18 6 -40v-8q-40 -15 -81 -19q-4 -49 -4 -138zM119 604q-48 15 -87 19q0 27 8 48q21 0 63 -1t64 -1 q95 0 124 2q6 -18 6 -40v-8q-40 -15 -81 -19q-4 -49 -4 -138v-317q0 -48 4 -83q41 -4 81 -19v-8q0 -22 -6 -40q-29 2 -124 2q-22 0 -64 -1t-63 -1q-8 21 -8 48q39 4 87 19q5 24 5 61v339q0 76 -5 138z"/>
<glyph glyph-name="ij" horiz-adv-x="578" unicode="ĳ" d="M438 561q-21 0 -40.5 16t-19.5 38q0 28 21 53t48 25q23 0 41.5 -16t18.5 -39q0 -28 -20.5 -52.5t-48.5 -24.5zM492 187v-174q0 -220 -168 -270q-21 11 -21 32q105 80 105 252v366q-45 12 -79 16q-5 17 -5 29q0 7 1 10q71 27 163 35l8 -8q-4 -133 -4 -288zM145 561 q-21 0 -40.5 16t-19.5 38q0 28 20.5 53t48.5 25q23 0 41.5 -16t18.5 -39q0 -28 -20.5 -52.5t-48.5 -24.5zM199 187v-50q0 -39 3 -75q46 -5 75 -18q0 -32 -6 -45q-54 2 -112 2q-21 0 -61.5 -1t-59.5 -1q-7 14 -7 45q41 4 80 18q4 25 4 55v276q-45 12 -79 16q-5 17 -5 29 q0 7 1 10q71 27 163 35l8 -8q-4 -133 -4 -288z"/>
<glyph glyph-name="Jcircumflex" horiz-adv-x="306" unicode="Ĵ" d="M287 719l-135 93l-133 -93q-19 12 -27 34l128 134q30 6 63 6l137 -135q-10 -24 -33 -39zM199 466v-439q0 -115 -58.5 -172.5t-167.5 -69.5q-17 17 -17 51q81 31 118 78.5t37 132.5v419q0 76 -5 138q-48 15 -87 19q0 27 8 48q21 0 63 -1t64 -1q95 0 124 2q6 -18 6 -40v-8 q-40 -15 -81 -19q-4 -49 -4 -138z"/>
<glyph glyph-name="jcircumflex" horiz-adv-x="272" unicode="ĵ" d="M254 519l-118 123l-111 -123q-21 6 -33 28l110 173q25 7 55 7h11l122 -177q-9 -22 -36 -31zM186 187v-174q0 -220 -168 -270q-21 11 -21 32q105 80 105 252v366q-45 12 -79 16q-5 17 -5 29q0 7 1 10q71 27 163 35l8 -8q-4 -133 -4 -288z"/>
<glyph glyph-name="Kcommaaccent" horiz-adv-x="659" unicode="Ķ" d="M313 -91q27 27 67 32q45 -35 45 -87q0 -81 -91 -139q-18 8 -22 23q32 43 32 93q0 31 -31 78zM557 604l-210 -213l220 -325q52 -7 87 -19q0 -34 -7 -48q-34 1 -115 1h-36l-218 321l-66 -67v-105q0 -48 4 -83q41 -4 81 -19v-8q0 -22 -6 -40q-29 2 -124 2q-22 0 -64 -1 t-63 -1q-8 21 -8 48q39 4 87 19q5 30 5 95v305q0 76 -5 138q-48 15 -87 19q0 27 8 48q21 0 63 -1t64 -1q95 0 124 2q6 -18 6 -40v-8q-40 -15 -81 -19q-4 -44 -4 -173v-89l258 262l-93 18q0 28 8 49q22 0 61.5 -1t56.5 -1q90 0 122 2q6 -18 6 -40v-8q-36 -15 -74 -19z"/>
<glyph glyph-name="kcommaaccent" horiz-adv-x="559" unicode="ķ" d="M256 -91q27 27 67 32q45 -35 45 -87q0 -81 -91 -139q-18 8 -22 23q32 43 32 93q0 31 -31 78zM186 470v-206q52 21 81 36l92 111l-62 15q0 26 7 45q15 0 57 -1t65 -1q26 0 84 2q6 -14 6 -44q-36 -15 -67 -19l-128 -137q61 -122 111 -178q21 -24 38.5 -33.5t44.5 -9.5 q17 0 32 3q12 -14 12 -31q0 -5 -1 -8q-14 -8 -54.5 -16t-70.5 -8q-49 0 -95.5 70.5t-78.5 170.5l-73 -20v-74q0 -39 3 -75q46 -5 75 -18q0 -32 -6 -45q-54 2 -112 2q-21 0 -61.5 -1t-59.5 -1q-7 14 -7 45q45 5 80 17q4 29 4 56v559q-42 12 -79 16q-5 17 -5 29q0 7 1 10 q71 27 163 35l8 -8q-4 -133 -4 -288z"/>
<glyph glyph-name="kgreenlandic" horiz-adv-x="572" unicode="ĸ" d="M199 187v-50q0 -39 3 -75q46 -5 75 -18q0 -32 -6 -45q-54 2 -112 2q-21 0 -61.5 -1t-59.5 -1q-7 14 -7 45q41 4 80 18q4 28 4 86v245q-45 12 -79 16q-5 17 -5 29q0 7 1 10q71 27 163 35l8 -8q-4 -150 -4 -211q52 21 81 36l92 111l-62 15q0 26 7 45q15 0 57 -1t65 -1 q26 0 84 2q6 -14 6 -44q-36 -15 -67 -19l-128 -137q61 -122 111 -178q21 -24 38.5 -33.5t44.5 -9.5q17 0 32 3q12 -14 12 -31q0 -5 -1 -8q-14 -8 -54.5 -16t-70.5 -8q-49 0 -95.5 70.5t-78.5 170.5l-73 -20v-24z"/>
<glyph glyph-name="Lacute" horiz-adv-x="551" unicode="Ĺ" d="M96 767l186 130q29 -17 51 -57l-3 -20l-213 -93q-13 11 -21 40zM212 466v-401h235q22 68 36 134q12 2 19 2q16 0 34 -6q0 -101 -11 -188l-8 -8q-62 2 -235 2h-115q-22 0 -64 -1t-63 -1q-8 21 -8 48q39 4 87 19q5 24 5 61v339q0 76 -5 138q-48 15 -87 19q0 27 8 48 q23 0 68.5 -1t69.5 -1q102 0 132 2q7 -18 7 -40v-8q-49 -15 -101 -19q-4 -49 -4 -138z"/>
<glyph glyph-name="lacute" horiz-adv-x="288" unicode="ĺ" d="M56 847l186 130q29 -17 51 -57l-3 -20l-213 -93q-13 11 -21 40zM186 470v-333q0 -39 3 -75q46 -5 75 -18q0 -32 -6 -45q-54 2 -112 2q-21 0 -61.5 -1t-59.5 -1q-7 14 -7 45q45 5 80 17q4 29 4 56v559q-45 12 -79 16q-5 17 -5 29q0 7 1 10q71 27 163 35l8 -8 q-4 -133 -4 -288z"/>
<glyph glyph-name="Lcommaaccent" horiz-adv-x="551" unicode="Ļ" d="M237 -91q27 27 67 32q45 -35 45 -87q0 -81 -91 -139q-18 8 -22 23q32 43 32 93q0 31 -31 78zM212 466v-401h235q22 68 36 134q12 2 19 2q16 0 34 -6q0 -101 -11 -188l-8 -8q-62 2 -235 2h-115q-22 0 -64 -1t-63 -1q-8 21 -8 48q39 4 87 19q5 24 5 61v339q0 76 -5 138 q-48 15 -87 19q0 27 8 48q23 0 68.5 -1t69.5 -1q102 0 132 2q7 -18 7 -40v-8q-49 -15 -101 -19q-4 -49 -4 -138z"/>
<glyph glyph-name="lcommaaccent" horiz-adv-x="288" unicode="ļ" d="M92 -91q27 27 67 32q45 -35 45 -87q0 -81 -91 -139q-18 8 -22 23q32 43 32 93q0 31 -31 78zM186 470v-333q0 -39 3 -75q46 -5 75 -18q0 -32 -6 -45q-54 2 -112 2q-21 0 -61.5 -1t-59.5 -1q-7 14 -7 45q45 5 80 17q4 29 4 56v559q-45 12 -79 16q-5 17 -5 29q0 7 1 10 q71 27 163 35l8 -8q-4 -133 -4 -288z"/>
<glyph glyph-name="Lcaron" horiz-adv-x="551" unicode="Ľ" d="M357 695l8 8q7 1 20 1q35 0 59 -18l-47 -210q-5 -1 -15 -1q-17 0 -28 6zM212 466v-401h235q22 68 36 134q12 2 19 2q16 0 34 -6q0 -101 -11 -188l-8 -8q-62 2 -235 2h-115q-22 0 -64 -1t-63 -1q-8 21 -8 48q39 4 87 19q5 24 5 61v339q0 76 -5 138q-48 15 -87 19 q0 27 8 48q23 0 68.5 -1t69.5 -1q102 0 132 2q7 -18 7 -40v-8q-49 -15 -101 -19q-4 -49 -4 -138z"/>
<glyph glyph-name="lcaron" horiz-adv-x="368" unicode="ľ" d="M255 758l8 8q7 1 20 1q35 0 59 -18l-47 -210q-5 -1 -15 -1q-17 0 -28 6zM186 470v-333q0 -39 3 -75q46 -5 75 -18q0 -32 -6 -45q-54 2 -112 2q-21 0 -61.5 -1t-59.5 -1q-7 14 -7 45q45 5 80 17q4 29 4 56v559q-45 12 -79 16q-5 17 -5 29q0 7 1 10q71 27 163 35l8 -8 q-4 -133 -4 -288z"/>
<glyph glyph-name="Ldot" horiz-adv-x="551" unicode="Ŀ" d="M439 306q-21 0 -40.5 16t-19.5 38q0 28 20.5 53t48.5 25q23 0 41.5 -16t18.5 -39q0 -28 -20.5 -52.5t-48.5 -24.5zM212 466v-401h235q22 68 36 134q12 2 19 2q16 0 34 -6q0 -101 -11 -188l-8 -8q-62 2 -235 2h-115q-22 0 -64 -1t-63 -1q-8 21 -8 48q39 4 87 19q5 24 5 61 v339q0 76 -5 138q-48 15 -87 19q0 27 8 48q23 0 68.5 -1t69.5 -1q102 0 132 2q7 -18 7 -40v-8q-49 -15 -101 -19q-4 -49 -4 -138z"/>
<glyph glyph-name="ldot" horiz-adv-x="343" unicode="ŀ" d="M311 243q-21 0 -40.5 16t-19.5 38q0 28 20.5 53t48.5 25q23 0 41.5 -16t18.5 -39q0 -28 -20.5 -52.5t-48.5 -24.5zM186 470v-333q0 -39 3 -75q46 -5 75 -18q0 -32 -6 -45q-54 2 -112 2q-21 0 -61.5 -1t-59.5 -1q-7 14 -7 45q45 5 80 17q4 29 4 56v559q-45 12 -79 16 q-5 17 -5 29q0 7 1 10q71 27 163 35l8 -8q-4 -133 -4 -288z"/>
<glyph glyph-name="Lslash" horiz-adv-x="556" unicode="Ł" d="M217 466v-82l166 106q21 -22 32 -53l-198 -118v-254h235q22 68 36 134q12 2 19 2q16 0 34 -6q0 -101 -11 -188l-8 -8q-62 2 -235 2h-115q-22 0 -64 -1t-63 -1q-8 21 -8 48q39 4 87 19q5 24 5 61v137l-87 -55q-22 18 -33 52l120 69v136q0 76 -5 138q-48 15 -87 19 q0 27 8 48q23 0 68.5 -1t69.5 -1q102 0 132 2q7 -18 7 -40v-8q-49 -15 -101 -19q-4 -49 -4 -138z"/>
<glyph glyph-name="lslash" horiz-adv-x="298" unicode="ł" d="M191 470v-2l72 48q24 -24 32 -54l-104 -63v-262q0 -39 3 -75q46 -5 75 -18q0 -32 -6 -45q-54 2 -112 2q-21 0 -61.5 -1t-59.5 -1q-7 14 -7 45q45 5 80 17q4 29 4 56v228l-73 -47q-22 20 -32 55l105 61v262q-45 12 -79 16q-5 17 -5 29q0 7 1 10q71 27 163 35l8 -8 q-4 -133 -4 -288z"/>
<glyph glyph-name="Nacute" horiz-adv-x="741" unicode="Ń" d="M295 767l186 130q29 -17 51 -57l-3 -20l-213 -93q-13 11 -21 40zM634 9q-45 -12 -94 -14l-315 520l-29 90h-1v-456q0 -48 4 -83q41 -4 81 -19v-8q0 -22 -6 -40q-29 2 -115 2q-17 0 -57 -1t-62 -1q-8 21 -8 48q39 4 87 19q5 24 5 61v339q0 76 -5 138q-48 15 -87 19 q0 27 8 48q22 0 62 -1t57 -1q54 0 86 -4l290 -481l27 -90h1v372q0 76 -5 138q-48 15 -87 19q0 27 8 48q22 0 62 -1t57 -1q86 0 115 2q6 -18 6 -40v-8q-40 -15 -81 -19q-4 -49 -4 -138v-457z"/>
<glyph glyph-name="nacute" horiz-adv-x="593" unicode="ń" d="M240 550l110 167q44 12 99 12l8 -23l-179 -184q-25 6 -38 28zM174 481l8 -7q6 -24 12 -57q91 67 168 67q138 0 138 -160v-187q0 -39 3 -75q47 -5 75 -18q0 -32 -7 -45q-52 2 -111 2q-21 0 -62 -1t-60 -1q-6 16 -6 45q46 5 80 17q4 29 4 56v168q0 65 -18 97.5t-73 32.5 q-60 0 -126 -46v-232q0 -39 3 -75q46 -5 75 -18q0 -32 -6 -45q-54 2 -112 2q-21 0 -61.5 -1t-59.5 -1q-7 14 -7 45q45 5 80 17q4 29 4 56v273q-36 11 -79 16q-5 17 -5 29q0 7 1 10q72 29 142 36z"/>
<glyph glyph-name="Ncommaaccent" horiz-adv-x="741" unicode="Ņ" d="M329 -91q27 27 67 32q45 -35 45 -87q0 -81 -91 -139q-18 8 -22 23q32 43 32 93q0 31 -31 78zM634 9q-45 -12 -94 -14l-315 520l-29 90h-1v-456q0 -48 4 -83q41 -4 81 -19v-8q0 -22 -6 -40q-29 2 -115 2q-17 0 -57 -1t-62 -1q-8 21 -8 48q39 4 87 19q5 24 5 61v339 q0 76 -5 138q-48 15 -87 19q0 27 8 48q22 0 62 -1t57 -1q54 0 86 -4l290 -481l27 -90h1v372q0 76 -5 138q-48 15 -87 19q0 27 8 48q22 0 62 -1t57 -1q86 0 115 2q6 -18 6 -40v-8q-40 -15 -81 -19q-4 -49 -4 -138v-457z"/>
<glyph glyph-name="ncommaaccent" horiz-adv-x="593" unicode="ņ" d="M250 -91q27 27 67 32q45 -35 45 -87q0 -81 -91 -139q-18 8 -22 23q32 43 32 93q0 31 -31 78zM174 481l8 -7q6 -24 12 -57q91 67 168 67q138 0 138 -160v-187q0 -39 3 -75q47 -5 75 -18q0 -32 -7 -45q-52 2 -111 2q-21 0 -62 -1t-60 -1q-6 16 -6 45q46 5 80 17q4 29 4 56 v168q0 65 -18 97.5t-73 32.5q-60 0 -126 -46v-232q0 -39 3 -75q46 -5 75 -18q0 -32 -6 -45q-54 2 -112 2q-21 0 -61.5 -1t-59.5 -1q-7 14 -7 45q45 5 80 17q4 29 4 56v273q-36 11 -79 16q-5 17 -5 29q0 7 1 10q72 29 142 36z"/>
<glyph glyph-name="Ncaron" horiz-adv-x="741" unicode="Ň" d="M211 861q11 24 33 39l135 -93l133 93q19 -12 27 -34l-128 -134q-30 -6 -63 -6zM634 9q-45 -12 -94 -14l-315 520l-29 90h-1v-456q0 -48 4 -83q41 -4 81 -19v-8q0 -22 -6 -40q-29 2 -115 2q-17 0 -57 -1t-62 -1q-8 21 -8 48q39 4 87 19q5 24 5 61v339q0 76 -5 138 q-48 15 -87 19q0 27 8 48q22 0 62 -1t57 -1q54 0 86 -4l290 -481l27 -90h1v372q0 76 -5 138q-48 15 -87 19q0 27 8 48q22 0 62 -1t57 -1q86 0 115 2q6 -18 6 -40v-8q-40 -15 -81 -19q-4 -49 -4 -138v-457z"/>
<glyph glyph-name="ncaron" horiz-adv-x="593" unicode="ň" d="M152 710q9 22 36 31l118 -123l111 123q21 -6 33 -28l-110 -173q-25 -7 -55 -7h-11zM174 481l8 -7q6 -24 12 -57q91 67 168 67q138 0 138 -160v-187q0 -39 3 -75q47 -5 75 -18q0 -32 -7 -45q-52 2 -111 2q-21 0 -62 -1t-60 -1q-6 16 -6 45q46 5 80 17q4 29 4 56v168 q0 65 -18 97.5t-73 32.5q-60 0 -126 -46v-232q0 -39 3 -75q46 -5 75 -18q0 -32 -6 -45q-54 2 -112 2q-21 0 -61.5 -1t-59.5 -1q-7 14 -7 45q45 5 80 17q4 29 4 56v273q-36 11 -79 16q-5 17 -5 29q0 7 1 10q72 29 142 36z"/>
<glyph glyph-name="napostrophe" horiz-adv-x="593" unicode="ŉ" d="M9 646q2 24 19.5 38.5t41.5 14.5q28 0 45 -17t17 -47q0 -40 -38.5 -85t-85.5 -66q-21 9 -22 26q23 20 40 46.5t17 47.5q0 31 -34 42zM174 481l8 -7q6 -24 12 -57q91 67 168 67q138 0 138 -160v-187q0 -39 3 -75q47 -5 75 -18q0 -32 -7 -45q-52 2 -111 2q-21 0 -62 -1 t-60 -1q-6 16 -6 45q46 5 80 17q4 29 4 56v168q0 65 -18 97.5t-73 32.5q-60 0 -126 -46v-232q0 -39 3 -75q46 -5 75 -18q0 -32 -6 -45q-54 2 -112 2q-21 0 -61.5 -1t-59.5 -1q-7 14 -7 45q45 5 80 17q4 29 4 56v273q-36 11 -79 16q-5 17 -5 29q0 7 1 10q72 29 142 36z"/>
<glyph glyph-name="Eng" horiz-adv-x="741" unicode="Ŋ" d="M536 -156q8 11 17 53.5t10 102.5h-26l-312 515l-29 90h-1v-456q0 -48 4 -83q41 -4 81 -19v-8q0 -22 -6 -40q-29 2 -115 2q-17 0 -57 -1t-62 -1q-8 21 -8 48q39 4 87 19q5 24 5 61v339q0 76 -5 138q-48 15 -87 19q0 27 8 48q22 0 62 -1t57 -1q54 0 86 -4l290 -481l27 -90 h1v372q0 76 -5 138q-48 15 -87 19q0 27 8 48q22 0 62 -1t57 -1q86 0 115 2q6 -18 6 -40v-8q-40 -15 -81 -19q-4 -49 -4 -138v-421q0 -83 -17 -150t-57 -111.5t-97 -44.5q-47 0 -79 13v12q0 47 23 73l9 4q31 -17 60 -17q41 0 60 20z"/>
<glyph glyph-name="eng" horiz-adv-x="573" unicode="ŋ" d="M174 481l8 -7q6 -23 12 -59q84 69 168 69q138 0 138 -160v-250q0 -147 -53.5 -241t-140.5 -94q-32 0 -69 12q2 55 23 81l9 4q31 -17 60 -17q42 0 60 21q27 33 27 219v226q0 65 -18 97.5t-73 32.5q-60 0 -126 -45v-233q0 -39 3 -75q46 -5 75 -18q0 -32 -6 -45 q-54 2 -112 2q-21 0 -61.5 -1t-59.5 -1q-7 14 -7 45q45 5 80 17q4 29 4 56v273q-36 11 -79 16q-5 17 -5 29q0 7 1 10q72 29 142 36z"/>
<glyph glyph-name="Omacron" horiz-adv-x="690" unicode="Ō" d="M212 809h283q6 -15 6 -33q0 -17 -6 -32h-283q-5 17 -5 31q0 16 5 34zM364 54q25 0 60.5 10.5t48.5 23.5q33 32 57 88t24 128q0 135 -57 223.5t-171 88.5q-25 0 -60.5 -10.5t-48.5 -23.5q-33 -32 -57 -88t-24 -128q0 -135 57 -223.5t171 -88.5zM336 -18q-138 0 -214.5 96 t-76.5 245q0 89 36.5 171.5t109 138t163.5 55.5q137 0 214 -96t77 -245q0 -89 -36.5 -171.5t-109 -138t-163.5 -55.5z"/>
<glyph glyph-name="omacron" horiz-adv-x="513" unicode="ō" d="M117 617h275q6 -17 6 -33q0 -18 -6 -34h-275q-5 18 -5 32q0 17 5 35zM269 53q50 0 69 19q50 54 50 143q0 47 -13 90.5t-47 77.5t-84 34t-69 -19q-50 -54 -50 -143q0 -47 13 -90.5t47 -77.5t84 -34zM262 484q104 0 157.5 -66.5t53.5 -174.5q0 -98 -61.5 -177.5 t-160.5 -79.5q-103 0 -157 66t-54 175q0 98 61.5 177.5t160.5 79.5z"/>
<glyph glyph-name="Obreve" horiz-adv-x="690" unicode="Ŏ" d="M346 735q-57 0 -97 32t-53 69q7 20 33 28q56 -58 127 -58q67 0 123 58q27 -7 31 -28q-22 -43 -63.5 -72t-100.5 -29zM364 54q25 0 60.5 10.5t48.5 23.5q33 32 57 88t24 128q0 135 -57 223.5t-171 88.5q-25 0 -60.5 -10.5t-48.5 -23.5q-33 -32 -57 -88t-24 -128 q0 -135 57 -223.5t171 -88.5zM336 -18q-138 0 -214.5 96t-76.5 245q0 89 36.5 171.5t109 138t163.5 55.5q137 0 214 -96t77 -245q0 -89 -36.5 -171.5t-109 -138t-163.5 -55.5z"/>
<glyph glyph-name="obreve" horiz-adv-x="513" unicode="ŏ" d="M248 544q-57 0 -97.5 37.5t-53.5 79.5q7 20 33 28q55 -71 127 -71q68 0 123 71q27 -7 31 -28q-13 -39 -59 -78t-104 -39zM269 53q50 0 69 19q50 54 50 143q0 47 -13 90.5t-47 77.5t-84 34t-69 -19q-50 -54 -50 -143q0 -47 13 -90.5t47 -77.5t84 -34zM262 484 q104 0 157.5 -66.5t53.5 -174.5q0 -98 -61.5 -177.5t-160.5 -79.5q-103 0 -157 66t-54 175q0 98 61.5 177.5t160.5 79.5z"/>
<glyph glyph-name="Ohungarumlaut" horiz-adv-x="690" unicode="Ő" d="M551 908l6 -23l-112 -162q-25 5 -39 21l65 150q38 14 80 14zM395 908l6 -23l-112 -162q-25 5 -39 21l65 150q38 14 80 14zM364 54q25 0 60.5 10.5t48.5 23.5q33 32 57 88t24 128q0 135 -57 223.5t-171 88.5q-25 0 -60.5 -10.5t-48.5 -23.5q-33 -32 -57 -88t-24 -128 q0 -135 57 -223.5t171 -88.5zM336 -18q-138 0 -214.5 96t-76.5 245q0 89 36.5 171.5t109 138t163.5 55.5q137 0 214 -96t77 -245q0 -89 -36.5 -171.5t-109 -138t-163.5 -55.5z"/>
<glyph glyph-name="ohungarumlaut" horiz-adv-x="513" unicode="ő" d="M288 741l5 -18l-103 -185q-27 3 -41 17l54 165q39 21 85 21zM431 741l5 -18l-103 -185q-26 3 -42 17l54 165q41 21 86 21zM269 53q50 0 69 19q50 54 50 143q0 47 -13 90.5t-47 77.5t-84 34t-69 -19q-50 -54 -50 -143q0 -47 13 -90.5t47 -77.5t84 -34zM262 484 q104 0 157.5 -66.5t53.5 -174.5q0 -98 -61.5 -177.5t-160.5 -79.5q-103 0 -157 66t-54 175q0 98 61.5 177.5t160.5 79.5z"/>
<glyph glyph-name="OE" horiz-adv-x="919" unicode="Œ" d="M364 60q44 0 105 8v536q-76 6 -123 6q-38 0 -76.5 -10t-52.5 -23q-81 -79 -81 -212q0 -132 57 -218.5t171 -86.5zM753 381l8 -8q-2 -38 -10 -63l-198 3v-248h230q22 62 36 122q12 2 19 2q16 0 34 -6q0 -95 -11 -176l-8 -8q-62 2 -234 2h-144q-84 -13 -139 -13 q-138 0 -214.5 94t-76.5 241q0 87 36.5 168t109 136t163.5 55q58 0 132 -13h121q172 0 234 2l8 -8q0 -5 0.5 -17t0.5 -17q0 -59 -10 -134q-17 -5 -29 -5q-11 0 -24 5q-3 60 -16 110h-218v-228z"/>
<glyph glyph-name="oe" horiz-adv-x="829" unicode="œ" d="M591 419q-52 0 -81.5 -35t-35.5 -95h99q72 0 122 4q0 27 -4 47t-14.5 39.5t-32 29.5t-53.5 10zM269 53q59 0 89 44.5t30 117.5q0 47 -13 90.5t-47 77.5t-84 34q-59 0 -89 -44.5t-30 -117.5q0 -47 13 -90.5t47 -77.5t84 -34zM262 484q119 0 176 -98q65 98 167 98 q95 0 136.5 -51.5t41.5 -127.5q0 -40 -5 -62l-8 -8q-82 2 -181 2h-116q3 -45 15.5 -83t43.5 -67t77 -29q65 0 159 36q15 -12 17 -36q-41 -28 -95 -50t-98 -22q-120 0 -171 95q-66 -95 -170 -95q-103 0 -157 66t-54 175q0 98 61.5 177.5t160.5 79.5z"/>
<glyph glyph-name="Racute" horiz-adv-x="617" unicode="Ŕ" d="M215 767l186 130q29 -17 51 -57l-3 -20l-213 -93q-13 11 -21 40zM327 608q-13 0 -115 -3v-249q40 -4 86 -4q21 0 45.5 5t39.5 10t18 8q43 32 43 100q0 61 -31.5 97t-85.5 36zM449 0l-139 282q-52 0 -98 7v-140q0 -48 4 -83q41 -4 81 -19v-8q0 -22 -6 -40q-29 2 -124 2 q-22 0 -64 -1t-63 -1q-8 21 -8 48q39 4 87 19q5 32 5 103v297q0 76 -5 138q-48 15 -87 19q0 27 8 48q21 0 63 -1t64 -1q38 0 102 2t85 2q95 0 138.5 -48.5t43.5 -116.5q0 -60 -37 -118.5t-97 -87.5l116 -236q52 -7 87 -19q0 -34 -7 -48q-33 1 -112 1h-37z"/>
<glyph glyph-name="racute" horiz-adv-x="431" unicode="ŕ" d="M183 550l110 167q44 12 99 12l8 -23l-179 -184q-25 6 -38 28zM174 481l8 -7q9 -30 17 -87q61 94 139 94q45 0 81 -13q0 -93 -18 -172q-12 -4 -26 -4q-15 0 -26 4q-4 74 -12 111q-14 2 -26 2q-32 0 -58 -16t-54 -63v-193q0 -39 3 -75q78 -5 118 -18q0 -32 -6 -45 q-74 2 -155 2q-21 0 -61.5 -1t-59.5 -1q-7 14 -7 45q45 5 80 17q4 29 4 56v273q-36 11 -79 16q-5 17 -5 29q0 7 1 10q72 29 142 36z"/>
<glyph glyph-name="Rcommaaccent" horiz-adv-x="617" unicode="Ŗ" d="M288 -91q27 27 67 32q45 -35 45 -87q0 -81 -91 -139q-18 8 -22 23q32 43 32 93q0 31 -31 78zM327 608q-13 0 -115 -3v-249q40 -4 86 -4q21 0 45.5 5t39.5 10t18 8q43 32 43 100q0 61 -31.5 97t-85.5 36zM449 0l-139 282q-52 0 -98 7v-140q0 -48 4 -83q41 -4 81 -19v-8 q0 -22 -6 -40q-29 2 -124 2q-22 0 -64 -1t-63 -1q-8 21 -8 48q39 4 87 19q5 32 5 103v297q0 76 -5 138q-48 15 -87 19q0 27 8 48q21 0 63 -1t64 -1q38 0 102 2t85 2q95 0 138.5 -48.5t43.5 -116.5q0 -60 -37 -118.5t-97 -87.5l116 -236q52 -7 87 -19q0 -34 -7 -48 q-33 1 -112 1h-37z"/>
<glyph glyph-name="rcommaaccent" horiz-adv-x="431" unicode="ŗ" d="M114 -91q27 27 67 32q45 -35 45 -87q0 -81 -91 -139q-18 8 -22 23q32 43 32 93q0 31 -31 78zM174 481l8 -7q9 -30 17 -87q61 94 139 94q45 0 81 -13q0 -93 -18 -172q-12 -4 -26 -4q-15 0 -26 4q-4 74 -12 111q-14 2 -26 2q-32 0 -58 -16t-54 -63v-193q0 -39 3 -75 q78 -5 118 -18q0 -32 -6 -45q-74 2 -155 2q-21 0 -61.5 -1t-59.5 -1q-7 14 -7 45q45 5 80 17q4 29 4 56v273q-36 11 -79 16q-5 17 -5 29q0 7 1 10q72 29 142 36z"/>
<glyph glyph-name="Rcaron" horiz-adv-x="617" unicode="Ř" d="M131 861q11 24 33 39l135 -93l133 93q19 -12 27 -34l-128 -134q-30 -6 -63 -6zM327 608q-13 0 -115 -3v-249q40 -4 86 -4q21 0 45.5 5t39.5 10t18 8q43 32 43 100q0 61 -31.5 97t-85.5 36zM449 0l-139 282q-52 0 -98 7v-140q0 -48 4 -83q41 -4 81 -19v-8q0 -22 -6 -40 q-29 2 -124 2q-22 0 -64 -1t-63 -1q-8 21 -8 48q39 4 87 19q5 32 5 103v297q0 76 -5 138q-48 15 -87 19q0 27 8 48q21 0 63 -1t64 -1q38 0 102 2t85 2q95 0 138.5 -48.5t43.5 -116.5q0 -60 -37 -118.5t-97 -87.5l116 -236q52 -7 87 -19q0 -34 -7 -48q-33 1 -112 1h-37z"/>
<glyph glyph-name="rcaron" horiz-adv-x="431" unicode="ř" d="M95 710q9 22 36 31l118 -123l111 123q21 -6 33 -28l-110 -173q-25 -7 -55 -7h-11zM174 481l8 -7q9 -30 17 -87q61 94 139 94q45 0 81 -13q0 -93 -18 -172q-12 -4 -26 -4q-15 0 -26 4q-4 74 -12 111q-14 2 -26 2q-32 0 -58 -16t-54 -63v-193q0 -39 3 -75q78 -5 118 -18 q0 -32 -6 -45q-74 2 -155 2q-21 0 -61.5 -1t-59.5 -1q-7 14 -7 45q45 5 80 17q4 29 4 56v273q-36 11 -79 16q-5 17 -5 29q0 7 1 10q72 29 142 36z"/>
<glyph glyph-name="Sacute" horiz-adv-x="544" unicode="Ś" d="M191 767l186 130q29 -17 51 -57l-3 -20l-213 -93q-13 11 -21 40zM48 29q3 86 24 172q10 3 19 3q15 0 34 -7q3 -64 14 -122q54 -18 135 -18q31 0 60.5 9.5t35.5 15.5q34 33 34 102q0 36 -29 64.5t-71 44.5l-73 28q-34 13 -59 25.5t-53 33.5t-43 50t-15 65q0 50 20.5 88.5 t54.5 59.5t72 31.5t79 10.5q104 0 193 -35q-1 -78 -22 -152q-12 -3 -23 -3q-18 0 -29 7q-5 59 -15 98q-48 13 -115 13q-32 0 -60.5 -5.5t-34.5 -10.5q-29 -26 -29 -71q0 -40 31 -69t73 -44l86 -31q155 -56 155 -172q0 -96 -62.5 -160.5t-166.5 -64.5q-139 0 -220 44z"/>
<glyph glyph-name="sacute" horiz-adv-x="424" unicode="ś" d="M149 550l110 167q44 12 99 12l8 -23l-179 -184q-25 6 -38 28zM198 -11q-96 0 -155 27q0 72 18 146q10 5 23 5q14 0 24 -5q1 -42 10 -100q28 -14 91 -14q49 0 68.5 15.5t19.5 58.5q0 42 -52 70q-17 9 -47.5 20.5t-52 21t-44 24t-34.5 37.5t-12 53q0 69 51.5 101t122.5 32 q81 0 143 -19q0 -64 -18 -123q-12 -3 -23 -3q-13 0 -28 5q-3 34 -13 77q-32 10 -64 10q-55 0 -71 -14t-16 -45q0 -28 25 -47t61 -32t72 -29t61 -46.5t25 -75.5q0 -70 -52.5 -110t-132.5 -40z"/>
<glyph glyph-name="Scircumflex" horiz-adv-x="544" unicode="Ŝ" d="M413 719l-135 93l-133 -93q-19 12 -27 34l128 134q30 6 63 6l137 -135q-10 -24 -33 -39zM48 29q3 86 24 172q10 3 19 3q15 0 34 -7q3 -64 14 -122q54 -18 135 -18q31 0 60.5 9.5t35.5 15.5q34 33 34 102q0 36 -29 64.5t-71 44.5l-73 28q-34 13 -59 25.5t-53 33.5t-43 50 t-15 65q0 50 20.5 88.5t54.5 59.5t72 31.5t79 10.5q104 0 193 -35q-1 -78 -22 -152q-12 -3 -23 -3q-18 0 -29 7q-5 59 -15 98q-48 13 -115 13q-32 0 -60.5 -5.5t-34.5 -10.5q-29 -26 -29 -71q0 -40 31 -69t73 -44l86 -31q155 -56 155 -172q0 -96 -62.5 -160.5t-166.5 -64.5 q-139 0 -220 44z"/>
<glyph glyph-name="scircumflex" horiz-adv-x="424" unicode="ŝ" d="M336 519l-118 123l-111 -123q-21 6 -33 28l110 173q25 7 55 7h11l122 -177q-9 -22 -36 -31zM198 -11q-96 0 -155 27q0 72 18 146q10 5 23 5q14 0 24 -5q1 -42 10 -100q28 -14 91 -14q49 0 68.5 15.5t19.5 58.5q0 42 -52 70q-17 9 -47.5 20.5t-52 21t-44 24t-34.5 37.5 t-12 53q0 69 51.5 101t122.5 32q81 0 143 -19q0 -64 -18 -123q-12 -3 -23 -3q-13 0 -28 5q-3 34 -13 77q-32 10 -64 10q-55 0 -71 -14t-16 -45q0 -28 25 -47t61 -32t72 -29t61 -46.5t25 -75.5q0 -70 -52.5 -110t-132.5 -40z"/>
<glyph glyph-name="Scedilla" horiz-adv-x="544" unicode="Ş" d="M48 29q3 86 24 172q10 3 19 3q15 0 34 -7q3 -64 14 -122q54 -18 135 -18q31 0 60.5 9.5t35.5 15.5q34 33 34 102q0 36 -29 64.5t-71 44.5l-73 28q-34 13 -59 25.5t-53 33.5t-43 50t-15 65q0 50 20.5 88.5t54.5 59.5t72 31.5t79 10.5q104 0 193 -35q-1 -78 -22 -152 q-12 -3 -23 -3q-18 0 -29 7q-5 59 -15 98q-48 13 -115 13q-32 0 -60.5 -5.5t-34.5 -10.5q-29 -26 -29 -71q0 -40 31 -69t73 -44l86 -31q155 -56 155 -172q0 -94 -60 -157.5t-160 -67.5l-12 -28q48 -2 73.5 -22.5t25.5 -54.5q0 -45 -50 -84.5t-119 -51.5q-11 10 -11 29 q98 42 98 93q0 19 -17 31.5t-48 12.5h-9l-8 8l34 68q-120 6 -186 43z"/>
<glyph glyph-name="scedilla" horiz-adv-x="424" unicode="ş" d="M383 139q0 -65 -46 -104.5t-119 -44.5l-14 -33q48 -2 73.5 -22.5t25.5 -54.5q0 -45 -50 -84.5t-119 -51.5q-11 10 -11 29q98 42 98 93q0 19 -17 31.5t-48 12.5h-9l-8 8l35 72q-80 3 -131 26q0 72 18 146q10 5 23 5q14 0 24 -5q1 -42 10 -100q28 -14 91 -14 q49 0 68.5 15.5t19.5 58.5q0 42 -52 70q-17 9 -47.5 20.5t-52 21t-44 24t-34.5 37.5t-12 53q0 69 51.5 101t122.5 32q81 0 143 -19q0 -64 -18 -123q-12 -3 -23 -3q-13 0 -28 5q-3 34 -13 77q-32 10 -64 10q-55 0 -71 -14t-16 -45q0 -28 25 -47t61 -32t72 -29t61 -46.5 t25 -75.5z"/>
<glyph glyph-name="Scaron" horiz-adv-x="544" unicode="Š" d="M117 861q11 24 33 39l135 -93l133 93q19 -12 27 -34l-128 -134q-30 -6 -63 -6zM48 29q3 86 24 172q10 3 19 3q15 0 34 -7q3 -64 14 -122q54 -18 135 -18q31 0 60.5 9.5t35.5 15.5q34 33 34 102q0 36 -29 64.5t-71 44.5l-73 28q-34 13 -59 25.5t-53 33.5t-43 50t-15 65 q0 50 20.5 88.5t54.5 59.5t72 31.5t79 10.5q104 0 193 -35q-1 -78 -22 -152q-12 -3 -23 -3q-18 0 -29 7q-5 59 -15 98q-48 13 -115 13q-32 0 -60.5 -5.5t-34.5 -10.5q-29 -26 -29 -71q0 -40 31 -69t73 -44l86 -31q155 -56 155 -172q0 -96 -62.5 -160.5t-166.5 -64.5 q-139 0 -220 44z"/>
<glyph glyph-name="scaron" horiz-adv-x="424" unicode="š" d="M71 710q9 22 36 31l118 -123l111 123q21 -6 33 -28l-110 -173q-25 -7 -55 -7h-11zM198 -11q-96 0 -155 27q0 72 18 146q10 5 23 5q14 0 24 -5q1 -42 10 -100q28 -14 91 -14q49 0 68.5 15.5t19.5 58.5q0 42 -52 70q-17 9 -47.5 20.5t-52 21t-44 24t-34.5 37.5t-12 53 q0 69 51.5 101t122.5 32q81 0 143 -19q0 -64 -18 -123q-12 -3 -23 -3q-13 0 -28 5q-3 34 -13 77q-32 10 -64 10q-55 0 -71 -14t-16 -45q0 -28 25 -47t61 -32t72 -29t61 -46.5t25 -75.5q0 -70 -52.5 -110t-132.5 -40z"/>
<glyph glyph-name="uni0162" horiz-adv-x="606" unicode="Ţ" d="M512 605h-165v-456q0 -48 4 -83q52 -4 101 -19v-8q0 -22 -7 -40q-56 2 -121 2l-19 -44q48 -2 73.5 -22.5t25.5 -54.5q0 -45 -50 -84.5t-119 -51.5q-11 10 -11 29q98 42 98 93q0 19 -17 31.5t-48 12.5h-9l-8 8l41 83q-86 -2 -125 -2q-9 21 -9 48q47 4 107 19q5 24 5 61 v478h-165q-13 -57 -16 -122q-15 -5 -28 -5q-10 0 -25 5q-10 77 -10 143q0 6 0.5 18.5t0.5 18.5l8 8q62 -2 235 -2h88q173 0 235 2l8 -8q0 -6 0.5 -18t0.5 -18q0 -64 -10 -144q-17 -5 -29 -5q-11 0 -24 5q-3 67 -16 122z"/>
<glyph glyph-name="uni0163" horiz-adv-x="349" unicode="ţ" d="M97 129v280q-46 10 -75 13q-3 12 -3 23q0 12 1 17q34 9 77 12l33 136h13q21 0 38 -6v-132l156 -2q0 -34 -4 -61h-152v-242q0 -110 47 -110q41 0 99 21q17 -17 17 -45q-61 -38 -129 -45l-13 -31q48 -2 73.5 -22.5t25.5 -54.5q0 -45 -50 -84.5t-119 -51.5q-11 10 -11 29 q98 42 98 93q0 19 -17 31.5t-48 12.5h-9l-8 8l34 70q-74 11 -74 141z"/>
<glyph glyph-name="Tcaron" horiz-adv-x="606" unicode="Ť" d="M139 861q11 24 33 39l135 -93l133 93q19 -12 27 -34l-128 -134q-30 -6 -63 -6zM512 605h-165v-456q0 -48 4 -83q52 -4 101 -19v-8q0 -22 -7 -40q-33 2 -143 2q-26 0 -73.5 -1t-72.5 -1q-9 21 -9 48q47 4 107 19q5 24 5 61v478h-165q-13 -57 -16 -122q-15 -5 -28 -5 q-10 0 -25 5q-10 77 -10 143q0 6 0.5 18.5t0.5 18.5l8 8q62 -2 235 -2h88q173 0 235 2l8 -8q0 -6 0.5 -18t0.5 -18q0 -64 -10 -144q-17 -5 -29 -5q-11 0 -24 5q-3 67 -16 122z"/>
<glyph glyph-name="tcaron" horiz-adv-x="349" unicode="ť" d="M235 758l8 8q7 1 20 1q35 0 59 -18l-47 -210q-5 -1 -15 -1q-17 0 -28 6zM97 129v280q-46 10 -75 13q-3 12 -3 23q0 12 1 17q34 9 77 12l33 136h13q21 0 38 -6v-132l156 -2q0 -34 -4 -61h-152v-242q0 -110 47 -110q41 0 99 21q17 -17 17 -45q-78 -47 -155 -47 q-49 0 -70.5 35.5t-21.5 107.5z"/>
<glyph glyph-name="Tbar" horiz-adv-x="606" unicode="Ŧ" d="M512 605h-165v-231h111q3 -18 3 -33t-3 -33h-111v-159q0 -48 4 -83q52 -4 101 -19v-8q0 -22 -7 -40q-33 2 -143 2q-26 0 -73.5 -1t-72.5 -1q-9 21 -9 48q47 4 107 19q5 24 5 61v181h-110q-3 16 -3 34q0 16 3 32h110v231h-165q-13 -57 -16 -122q-15 -5 -28 -5q-10 0 -25 5 q-10 77 -10 143q0 6 0.5 18.5t0.5 18.5l8 8q62 -2 235 -2h88q173 0 235 2l8 -8q0 -6 0.5 -18t0.5 -18q0 -64 -10 -144q-17 -5 -29 -5q-11 0 -24 5q-3 67 -16 122z"/>
<glyph glyph-name="tbar" horiz-adv-x="359" unicode="ŧ" d="M102 129v118h-75q-3 13 -3 29q0 14 3 27h75v106q-46 10 -75 13q-3 12 -3 23q0 12 1 17q34 9 77 12l33 136h13q21 0 38 -6v-132l156 -2q0 -34 -4 -61h-152v-106h150q3 -15 3 -28t-3 -28h-150v-80q0 -110 47 -110q41 0 99 21q17 -17 17 -45q-78 -47 -155 -47 q-49 0 -70.5 35.5t-21.5 107.5z"/>
<glyph glyph-name="Utilde" horiz-adv-x="695" unicode="Ũ" d="M209 744q-25 7 -33 27q23 43 58 71.5t65 28.5q27 0 71.5 -32.5t64.5 -32.5q12 0 32 15t38 39q25 -7 33 -27q-23 -43 -58 -71.5t-65 -28.5q-27 0 -71.5 32.5t-64.5 32.5q-12 0 -32 -15t-38 -39zM599 466v-219q0 -122 -67 -193.5t-201 -71.5q-115 0 -172 60t-57 192v232 q0 76 -5 138q-48 15 -87 19q0 27 8 48q21 0 63 -1t64 -1q94 0 123 2q6 -18 6 -40v-8q-40 -15 -81 -19q-3 -37 -3 -138v-201q0 -113 38.5 -162t136.5 -49q39 0 74.5 11t47.5 24q41 44 41 146v231q0 76 -5 138q-48 15 -87 19q0 27 8 48q21 0 63 -1t64 -1q78 0 107 2 q6 -18 6 -40v-8q-40 -15 -81 -19q-4 -49 -4 -138z"/>
<glyph glyph-name="utilde" horiz-adv-x="582" unicode="ũ" d="M116 552q-26 7 -34 28q24 45 60 74t67 29q29 0 73 -33.5t69 -33.5q12 0 33 15.5t40 40.5q24 -6 35 -26q-24 -45 -61 -75t-69 -30q-28 0 -72.5 33.5t-67.5 33.5q-12 0 -33 -15.5t-40 -40.5zM95 149v256q-32 12 -78 20q0 27 6 46q80 -2 116 -2h34l8 -8q-2 -97 -2 -273 q0 -128 78 -128q28 0 67.5 25t67.5 53v267q-33 12 -78 20q0 27 6 46q80 -2 115 -2h36l8 -8q-3 -100 -3 -288v-36q0 -51 5 -79q23 3 64 16q15 -15 15 -37q-24 -21 -57 -36t-58 -15q-18 0 -31.5 28.5t-19.5 66.5q-42 -45 -80 -70t-82 -25q-137 0 -137 163z"/>
<glyph glyph-name="Umacron" horiz-adv-x="695" unicode="Ū" d="M216 809h283q6 -15 6 -33q0 -17 -6 -32h-283q-5 17 -5 31q0 16 5 34zM599 466v-219q0 -122 -67 -193.5t-201 -71.5q-115 0 -172 60t-57 192v232q0 76 -5 138q-48 15 -87 19q0 27 8 48q21 0 63 -1t64 -1q94 0 123 2q6 -18 6 -40v-8q-40 -15 -81 -19q-3 -37 -3 -138v-201 q0 -113 38.5 -162t136.5 -49q39 0 74.5 11t47.5 24q41 44 41 146v231q0 76 -5 138q-48 15 -87 19q0 27 8 48q21 0 63 -1t64 -1q78 0 107 2q6 -18 6 -40v-8q-40 -15 -81 -19q-4 -49 -4 -138z"/>
<glyph glyph-name="umacron" horiz-adv-x="582" unicode="ū" d="M132 617h275q6 -17 6 -33q0 -18 -6 -34h-275q-5 18 -5 32q0 17 5 35zM95 149v256q-32 12 -78 20q0 27 6 46q80 -2 116 -2h34l8 -8q-2 -97 -2 -273q0 -128 78 -128q28 0 67.5 25t67.5 53v267q-33 12 -78 20q0 27 6 46q80 -2 115 -2h36l8 -8q-3 -100 -3 -288v-36 q0 -51 5 -79q23 3 64 16q15 -15 15 -37q-24 -21 -57 -36t-58 -15q-18 0 -31.5 28.5t-19.5 66.5q-42 -45 -80 -70t-82 -25q-137 0 -137 163z"/>
<glyph glyph-name="Ubreve" horiz-adv-x="695" unicode="Ŭ" d="M350 735q-57 0 -97 32t-53 69q7 20 33 28q56 -58 127 -58q67 0 123 58q27 -7 31 -28q-22 -43 -63.5 -72t-100.5 -29zM599 466v-219q0 -122 -67 -193.5t-201 -71.5q-115 0 -172 60t-57 192v232q0 76 -5 138q-48 15 -87 19q0 27 8 48q21 0 63 -1t64 -1q94 0 123 2 q6 -18 6 -40v-8q-40 -15 -81 -19q-3 -37 -3 -138v-201q0 -113 38.5 -162t136.5 -49q39 0 74.5 11t47.5 24q41 44 41 146v231q0 76 -5 138q-48 15 -87 19q0 27 8 48q21 0 63 -1t64 -1q78 0 107 2q6 -18 6 -40v-8q-40 -15 -81 -19q-4 -49 -4 -138z"/>
<glyph glyph-name="ubreve" horiz-adv-x="582" unicode="ŭ" d="M263 544q-57 0 -97.5 37.5t-53.5 79.5q7 20 33 28q55 -71 127 -71q68 0 123 71q27 -7 31 -28q-13 -39 -59 -78t-104 -39zM95 149v256q-32 12 -78 20q0 27 6 46q80 -2 116 -2h34l8 -8q-2 -97 -2 -273q0 -128 78 -128q28 0 67.5 25t67.5 53v267q-33 12 -78 20q0 27 6 46 q80 -2 115 -2h36l8 -8q-3 -100 -3 -288v-36q0 -51 5 -79q23 3 64 16q15 -15 15 -37q-24 -21 -57 -36t-58 -15q-18 0 -31.5 28.5t-19.5 66.5q-42 -45 -80 -70t-82 -25q-137 0 -137 163z"/>
<glyph glyph-name="Uring" horiz-adv-x="695" unicode="Ů" d="M357 713q-47 0 -73.5 25t-26.5 73q0 37 34 69t76 32q47 0 73.5 -25t26.5 -73q0 -37 -34 -69t-76 -32zM363 764q21 0 34 10q13 9 13 36q0 20 -14.5 35.5t-34.5 15.5q-23 0 -34 -9q-13 -9 -13 -36q0 -19 14.5 -35.5t34.5 -16.5zM599 466v-219q0 -122 -67 -193.5t-201 -71.5 q-115 0 -172 60t-57 192v232q0 76 -5 138q-48 15 -87 19q0 27 8 48q21 0 63 -1t64 -1q94 0 123 2q6 -18 6 -40v-8q-40 -15 -81 -19q-3 -37 -3 -138v-201q0 -113 38.5 -162t136.5 -49q39 0 74.5 11t47.5 24q41 44 41 146v231q0 76 -5 138q-48 15 -87 19q0 27 8 48q21 0 63 -1 t64 -1q78 0 107 2q6 -18 6 -40v-8q-40 -15 -81 -19q-4 -49 -4 -138z"/>
<glyph glyph-name="uring" horiz-adv-x="582" unicode="ů" d="M265 536q-47 0 -74 25t-27 74q0 37 34 69.5t77 32.5q48 0 74.5 -25t26.5 -74q0 -37 -34 -69.5t-77 -32.5zM271 589q21 0 33 10q13 9 13 35q0 20 -14.5 35t-33.5 15q-22 0 -33 -9q-13 -9 -13 -35q0 -19 14.5 -35t33.5 -16zM95 149v256q-32 12 -78 20q0 27 6 46 q80 -2 116 -2h34l8 -8q-2 -97 -2 -273q0 -128 78 -128q28 0 67.5 25t67.5 53v267q-33 12 -78 20q0 27 6 46q80 -2 115 -2h36l8 -8q-3 -100 -3 -288v-36q0 -51 5 -79q23 3 64 16q15 -15 15 -37q-24 -21 -57 -36t-58 -15q-18 0 -31.5 28.5t-19.5 66.5q-42 -45 -80 -70t-82 -25 q-137 0 -137 163z"/>
<glyph glyph-name="Uhungarumlaut" horiz-adv-x="695" unicode="Ű" d="M549 908l6 -23l-112 -162q-25 5 -39 21l65 150q38 14 80 14zM393 908l6 -23l-112 -162q-25 5 -39 21l65 150q38 14 80 14zM599 466v-219q0 -122 -67 -193.5t-201 -71.5q-115 0 -172 60t-57 192v232q0 76 -5 138q-48 15 -87 19q0 27 8 48q21 0 63 -1t64 -1q94 0 123 2 q6 -18 6 -40v-8q-40 -15 -81 -19q-3 -37 -3 -138v-201q0 -113 38.5 -162t136.5 -49q39 0 74.5 11t47.5 24q41 44 41 146v231q0 76 -5 138q-48 15 -87 19q0 27 8 48q21 0 63 -1t64 -1q78 0 107 2q6 -18 6 -40v-8q-40 -15 -81 -19q-4 -49 -4 -138z"/>
<glyph glyph-name="uhungarumlaut" horiz-adv-x="582" unicode="ű" d="M303 741l5 -18l-103 -185q-27 3 -41 17l54 165q39 21 85 21zM446 741l5 -18l-103 -185q-26 3 -42 17l54 165q40 21 86 21zM95 149v256q-32 12 -78 20q0 27 6 46q80 -2 116 -2h34l8 -8q-2 -97 -2 -273q0 -128 78 -128q28 0 67.5 25t67.5 53v267q-33 12 -78 20q0 27 6 46 q80 -2 115 -2h36l8 -8q-3 -100 -3 -288v-36q0 -51 5 -79q23 3 64 16q15 -15 15 -37q-24 -21 -57 -36t-58 -15q-18 0 -31.5 28.5t-19.5 66.5q-42 -45 -80 -70t-82 -25q-137 0 -137 163z"/>
<glyph glyph-name="Uogonek" horiz-adv-x="695" unicode="Ų" d="M599 466v-219q0 -127 -76 -202q-90 -90 -90 -144q0 -24 11.5 -38t28.5 -14q22 0 58 9q13 -16 13 -40q-56 -33 -109 -33q-36 0 -60 23.5t-24 56.5q0 64 85 130l-2 2q-45 -15 -103 -15q-115 0 -172 60t-57 192v232q0 76 -5 138q-48 15 -87 19q0 27 8 48q21 0 63 -1t64 -1 q94 0 123 2q6 -18 6 -40v-8q-40 -15 -81 -19q-3 -37 -3 -138v-201q0 -113 38.5 -162t136.5 -49q39 0 74.5 11t47.5 24q41 44 41 146v231q0 76 -5 138q-48 15 -87 19q0 27 8 48q21 0 63 -1t64 -1q78 0 107 2q6 -18 6 -40v-8q-40 -15 -81 -19q-4 -49 -4 -138z"/>
<glyph glyph-name="uogonek" horiz-adv-x="582" unicode="ų" d="M95 149v256q-32 12 -78 20q0 27 6 46q80 -2 116 -2h34l8 -8q-2 -97 -2 -273q0 -128 78 -128q28 0 67.5 25t67.5 53v267q-33 12 -78 20q0 27 6 46q80 -2 115 -2h36l8 -8q-3 -90 -3 -256v-68q0 -51 5 -79q23 3 64 16q15 -15 15 -37q-136 -76 -136 -139q0 -22 11.5 -35 t30.5 -13q22 0 56 10q13 -18 13 -41q-56 -33 -109 -33q-36 0 -60 24t-24 58q0 64 89 123q-25 18 -37 90q-42 -45 -80 -70t-82 -25q-137 0 -137 163z"/>
<glyph glyph-name="Wcircumflex" horiz-adv-x="962" unicode="Ŵ" d="M631 719l-135 93l-133 -93q-19 12 -27 34l128 134q30 6 63 6l137 -135q-10 -24 -33 -39zM246 -5l-161 609q-46 15 -80 19q0 27 8 48q21 0 63 -1t64 -1q95 0 124 2q6 -18 6 -40v-8l-88 -19l113 -439l5 -85h1l154 582q35 13 82 13l129 -510l6 -85h1l133 524l-94 19 q0 27 8 48q23 0 61.5 -1t53.5 -1q82 0 111 2q6 -18 6 -40v-8q-36 -15 -74 -19l-158 -595q-36 -14 -100 -14l-119 471l-4 101h-1l-145 -558q-36 -14 -105 -14z"/>
<glyph glyph-name="wcircumflex" horiz-adv-x="794" unicode="ŵ" d="M527 519l-118 123l-111 -123q-21 6 -33 28l110 173q25 7 55 7h11l122 -177q-9 -22 -36 -31zM656 410l-77 16q0 26 7 45q15 0 52.5 -1t59.5 -1q19 0 75 2q6 -15 6 -33q0 -8 -1 -12q-25 -13 -57 -18l-130 -399q-42 -14 -99 -14l-83 307l-6 79h-1l-103 -372q-42 -14 -96 -14 l-131 413q-26 13 -55 18q0 26 7 45q12 0 44.5 -1t51.5 -1q37 0 111 2q6 -15 6 -31q0 -9 -1 -14l-77 -18l87 -275l5 -73h1l109 405q33 10 87 10l91 -342l6 -73h1z"/>
<glyph glyph-name="Ycircumflex" horiz-adv-x="650" unicode="Ŷ" d="M472 719l-135 93l-133 -93q-19 12 -27 34l128 134q30 6 63 6l137 -135q-11 -24 -33 -39zM566 604l-193 -355v-100q0 -48 4 -83q52 -4 101 -19v-8q0 -22 -7 -40q-33 2 -143 2q-26 0 -73.5 -1t-72.5 -1q-9 21 -9 48q47 4 107 19q5 24 5 61v109l-200 368q-46 15 -80 19 q0 27 8 48q21 0 64 -1t68 -1q98 0 127 2q6 -18 6 -40v-8l-88 -19l150 -279l152 279l-94 19q0 27 8 48q23 0 61.5 -1t54.5 -1q83 0 112 2q6 -18 6 -40v-8q-36 -15 -74 -19z"/>
<glyph glyph-name="ycircumflex" horiz-adv-x="535" unicode="ŷ" d="M392 519l-118 123l-111 -123q-21 6 -33 28l110 173q25 7 55 7h11l122 -177q-9 -22 -36 -31zM221 0l-149 408q-21 12 -55 18q0 26 7 45q12 0 44.5 -1t52.5 -1q41 0 115 2q6 -15 6 -31q0 -9 -1 -14l-77 -18l100 -275l4 -73h1l125 350l-77 16q0 26 7 45q14 0 52 -1t61 -1 t77 2q6 -15 6 -33q0 -8 -1 -12q-25 -13 -57 -18l-148 -400q-97 -264 -193 -264q-60 0 -97 26q0 26 16 44h13q66 0 107.5 38.5t75.5 113.5l15 34h-30z"/>
<glyph glyph-name="Ydieresis" horiz-adv-x="650" unicode="Ÿ" d="M427 743q-17 0 -32.5 13t-15.5 30q0 24 17 44.5t40 20.5q19 0 34 -13t15 -32q0 -24 -16.5 -43t-41.5 -20zM244 743q-19 0 -34 12.5t-15 30.5q0 24 17 44.5t41 20.5q18 0 33 -13t15 -32q0 -24 -17 -43t-40 -20zM566 604l-193 -355v-100q0 -48 4 -83q52 -4 101 -19v-8 q0 -22 -7 -40q-33 2 -143 2q-26 0 -73.5 -1t-72.5 -1q-9 21 -9 48q47 4 107 19q5 24 5 61v109l-200 368q-46 15 -80 19q0 27 8 48q21 0 64 -1t68 -1q98 0 127 2q6 -18 6 -40v-8l-88 -19l150 -279l152 279l-94 19q0 27 8 48q23 0 61.5 -1t54.5 -1q83 0 112 2q6 -18 6 -40v-8 q-36 -15 -74 -19z"/>
<glyph glyph-name="Zacute" horiz-adv-x="606" unicode="Ź" d="M232 767l186 130q29 -17 51 -57l-3 -20l-213 -93q-13 11 -21 40zM302 1h-259q-11 28 -11 57v7l395 540h-289q-13 -51 -16 -110q-15 -5 -28 -5q-10 0 -25 5q-10 72 -10 134q0 6 0.5 17.5t0.5 17.5l8 7q62 -2 235 -2h210q20 -26 29 -64l-397 -540h322q22 62 36 122 q12 2 19 2q16 0 34 -6q0 -95 -11 -176l-8 -8q-62 2 -235 2z"/>
<glyph glyph-name="zacute" horiz-adv-x="478" unicode="ź" d="M173 550l110 167q44 12 99 12l8 -23l-179 -184q-25 6 -38 28zM51 463l8 8q62 -2 235 -2h107q17 -25 18 -57l-278 -354h202q23 54 35 108q9 3 19 3q15 0 32 -7q0 -6 0.5 -17t0.5 -16q0 -61 -9 -122l-8 -8q-62 2 -235 2h-123q-14 30 -14 59l276 354h-187q-14 -57 -16 -92 q-14 -3 -27 -3l-27 3q-9 60 -9 123v18z"/>
<glyph glyph-name="Zdotaccent" horiz-adv-x="606" unicode="Ż" d="M308 740q-20 0 -37 14.5t-17 34.5q0 25 19 48t44 23q21 0 37.5 -14.5t16.5 -35.5q0 -26 -18.5 -48t-44.5 -22zM302 1h-259q-11 28 -11 57v7l395 540h-289q-13 -51 -16 -110q-15 -5 -28 -5q-10 0 -25 5q-10 72 -10 134q0 6 0.5 17.5t0.5 17.5l8 7q62 -2 235 -2h210 q20 -26 29 -64l-397 -540h322q22 62 36 122q12 2 19 2q16 0 34 -6q0 -95 -11 -176l-8 -8q-62 2 -235 2z"/>
<glyph glyph-name="zdotaccent" horiz-adv-x="478" unicode="ż" d="M228 561q-21 0 -40.5 16t-19.5 38q0 28 21 53t48 25q23 0 41.5 -16t18.5 -39q0 -28 -20.5 -52.5t-48.5 -24.5zM51 463l8 8q62 -2 235 -2h107q17 -25 18 -57l-278 -354h202q23 54 35 108q9 3 19 3q15 0 32 -7q0 -6 0.5 -17t0.5 -16q0 -61 -9 -122l-8 -8q-62 2 -235 2h-123 q-14 30 -14 59l276 354h-187q-14 -57 -16 -92q-14 -3 -27 -3l-27 3q-9 60 -9 123v18z"/>
<glyph glyph-name="Zcaron" horiz-adv-x="606" unicode="Ž" d="M148 861q10 24 33 39l135 -93l133 93q19 -12 27 -34l-128 -134q-30 -6 -63 -6zM302 1h-259q-11 28 -11 57v7l395 540h-289q-13 -51 -16 -110q-15 -5 -28 -5q-10 0 -25 5q-10 72 -10 134q0 6 0.5 17.5t0.5 17.5l8 7q62 -2 235 -2h210q20 -26 29 -64l-397 -540h322 q22 62 36 122q12 2 19 2q16 0 34 -6q0 -95 -11 -176l-8 -8q-62 2 -235 2z"/>
<glyph glyph-name="zcaron" horiz-adv-x="478" unicode="ž" d="M85 710q9 22 36 31l118 -123l111 123q21 -6 33 -28l-110 -173q-25 -7 -55 -7h-11zM51 463l8 8q62 -2 235 -2h107q17 -25 18 -57l-278 -354h202q23 54 35 108q9 3 19 3q15 0 32 -7q0 -6 0.5 -17t0.5 -16q0 -61 -9 -122l-8 -8q-62 2 -235 2h-123q-14 30 -14 59l276 354 h-187q-14 -57 -16 -92q-14 -3 -27 -3l-27 3q-9 60 -9 123v18z"/>
<glyph glyph-name="longs" horiz-adv-x="325" unicode="ſ" d="M299 701q-23 0 -43 -6.5t-25 -12.5q-16 -18 -26 -66.5t-10 -111.5v-367q0 -39 3 -75q68 -4 118 -18q0 -32 -6 -45q-110 2 -155 2q-21 0 -61 -1t-60 -1q-7 14 -7 45q45 5 80 17q4 29 4 56v292q-39 9 -75 13q-3 12 -3 23q0 12 1 17q35 8 77 11v10q0 129 52.5 206t143.5 77 q67 0 130 -25q0 -65 -22 -134q-18 -4 -26 -4q-16 0 -29 8q-2 50 -8 85q-28 5 -53 5z"/>
<glyph glyph-name="florin" horiz-adv-x="409" unicode="ƒ" d="M340 623q-18 0 -30.5 -4t-21.5 -17t-14.5 -23.5t-11 -38.5t-7.5 -45t-7 -59h106q4 -12 4 -26q0 -17 -4 -30h-112l-1 -8q-33 -296 -72 -430q-16 -58 -58 -104.5t-84 -63.5q-19 10 -21 33q28 25 49.5 64t34 76.5t23.5 96t16 98.5t13 109.5t13 104.5l3 24h-89q-5 15 -5 28 t5 28h96l9 65q7 54 26 93t45 58t50.5 27.5t49.5 8.5q54 0 117 -25q0 -65 -22 -134q-18 -4 -26 -4q-16 0 -29 8q-2 50 -8 85q-20 5 -37 5z"/>
<glyph glyph-name="DZcaron" horiz-adv-x="1269" unicode="Ǆ" d="M811 861q11 24 33 39l135 -93l133 93q19 -12 27 -34l-128 -134q-30 -6 -63 -6zM965 1h-259q-11 28 -11 57v7l395 540h-289q-13 -51 -16 -110q-15 -5 -28 -5q-10 0 -25 5q-10 72 -10 134q0 6 0.5 17.5t0.5 17.5l8 7q62 -2 235 -2h210q20 -26 29 -64l-397 -540h322 q22 62 36 122q12 2 19 2q16 0 34 -6q0 -95 -11 -176l-8 -8q-62 2 -235 2zM313 608q-8 0 -101 -3v-541h90q39 0 81 8.5t56 19.5q88 68 88 210q0 79 -21 146t-71 113.5t-122 46.5zM167 1q-22 0 -64 -1t-63 -1q-8 21 -8 48q39 4 87 19q5 24 5 61v339q0 76 -5 138q-48 15 -87 19 q0 27 8 48q21 0 63 -1t64 -1q38 0 96 2t79 2q130 0 203 -91t73 -238q0 -66 -20.5 -127.5t-57.5 -110.5t-95 -79t-127 -30q-18 0 -68 2t-83 2z"/>
<glyph glyph-name="Dzcaron" horiz-adv-x="1141" unicode="ǅ" d="M748 710q9 22 36 31l118 -123l111 123q21 -6 33 -28l-110 -173q-25 -7 -55 -7h-11zM714 463l8 8q62 -2 235 -2h107q16 -25 18 -57l-278 -354h202q23 54 35 108q9 3 19 3q14 0 32 -7q0 -6 0.5 -17t0.5 -16q0 -61 -9 -122l-8 -8q-62 2 -235 2h-123q-14 30 -14 59l276 354 h-187q-14 -57 -16 -92q-13 -3 -27 -3l-27 3q-9 60 -9 123v18zM313 608q-8 0 -101 -3v-541h90q39 0 81 8.5t56 19.5q88 68 88 210q0 79 -21 146t-71 113.5t-122 46.5zM167 1q-22 0 -64 -1t-63 -1q-8 21 -8 48q39 4 87 19q5 24 5 61v339q0 76 -5 138q-48 15 -87 19q0 27 8 48 q21 0 63 -1t64 -1q38 0 96 2t79 2q130 0 203 -91t73 -238q0 -66 -20.5 -127.5t-57.5 -110.5t-95 -79t-127 -30q-18 0 -68 2t-83 2z"/>
<glyph glyph-name="dzcaron" horiz-adv-x="1029" unicode="ǆ" d="M602 463l8 8q62 -2 235 -2h107q16 -25 18 -57l-278 -354h202q23 54 35 108q9 3 19 3q14 0 32 -7q0 -6 0.5 -17t0.5 -16q0 -61 -9 -122l-8 -8q-62 2 -235 2h-123q-14 30 -14 59l276 354h-187q-14 -57 -16 -92q-13 -3 -27 -3l-27 3q-9 60 -9 123v18zM636 710q9 22 36 31 l118 -123l111 123q21 -6 33 -28l-110 -173q-25 -7 -55 -7h-11zM238 58q42 0 127 75v256q-71 25 -121 25t-69 -19q-50 -54 -50 -140q0 -81 30 -139t83 -58zM40 227q0 104 65 179t150 75q54 0 110 -35v230q-52 12 -91 16q-5 17 -5 29q0 7 1 10q76 27 175 35l8 -8 q-4 -133 -4 -288v-333q0 -51 5 -79q23 3 64 16q15 -15 15 -37q-59 -51 -114 -51q-17 0 -30.5 27t-20.5 65q-82 -92 -151 -92q-85 0 -131 67.5t-46 173.5z"/>
<glyph glyph-name="LJ" horiz-adv-x="837" unicode="Ǉ" d="M730 466v-439q0 -115 -58.5 -172.5t-167.5 -69.5q-17 17 -17 51q81 31 118 78.5t37 132.5v419q0 76 -5 138q-48 15 -87 19q0 27 8 48q21 0 63 -1t64 -1q95 0 124 2q6 -18 6 -40v-8q-40 -15 -81 -19q-4 -49 -4 -138zM212 466v-401h235q22 68 36 134q12 2 19 2q16 0 34 -6 q0 -101 -11 -188l-8 -8q-62 2 -235 2h-115q-22 0 -64 -1t-63 -1q-8 21 -8 48q39 4 87 19q5 24 5 61v339q0 76 -5 138q-48 15 -87 19q0 27 8 48q23 0 68.5 -1t69.5 -1q102 0 132 2q7 -18 7 -40v-8q-49 -15 -101 -19q-4 -49 -4 -138z"/>
<glyph glyph-name="Lj" horiz-adv-x="824" unicode="ǈ" d="M684 561q-21 0 -40.5 16t-19.5 38q0 28 21 53t48 25q23 0 41.5 -16t18.5 -39q0 -28 -20.5 -52.5t-48.5 -24.5zM738 187v-174q0 -220 -168 -270q-21 11 -21 32q105 80 105 252v366q-45 12 -79 16q-5 17 -5 29q0 7 1 10q71 27 163 35l8 -8q-4 -133 -4 -288zM212 466v-401 h235q22 68 36 134q12 2 19 2q16 0 34 -6q0 -101 -11 -188l-8 -8q-62 2 -235 2h-115q-22 0 -64 -1t-63 -1q-8 21 -8 48q39 4 87 19q5 24 5 61v339q0 76 -5 138q-48 15 -87 19q0 27 8 48q23 0 68.5 -1t69.5 -1q102 0 132 2q7 -18 7 -40v-8q-49 -15 -101 -19q-4 -49 -4 -138z "/>
<glyph glyph-name="lj" horiz-adv-x="561" unicode="ǉ" d="M421 561q-21 0 -40.5 16t-19.5 38q0 28 20.5 53t48.5 25q23 0 41.5 -16t18.5 -39q0 -28 -20.5 -52.5t-48.5 -24.5zM475 187v-174q0 -220 -168 -270q-21 11 -21 32q105 80 105 252v366q-45 12 -79 16q-5 17 -5 29q0 7 1 10q71 27 163 35l8 -8q-4 -133 -4 -288zM186 470 v-333q0 -39 3 -75q46 -5 75 -18q0 -32 -6 -45q-54 2 -112 2q-21 0 -61.5 -1t-59.5 -1q-7 14 -7 45q45 5 80 17q4 29 4 56v559q-45 12 -79 16q-5 17 -5 29q0 7 1 10q71 27 163 35l8 -8q-4 -133 -4 -288z"/>
<glyph glyph-name="NJ" horiz-adv-x="1047" unicode="Ǌ" d="M940 466v-439q0 -115 -58.5 -172.5t-167.5 -69.5q-17 17 -17 51q81 31 118 78.5t37 132.5v419q0 76 -5 138q-48 15 -87 19q0 27 8 48q21 0 63 -1t64 -1q95 0 124 2q6 -18 6 -40v-8q-40 -15 -81 -19q-4 -49 -4 -138zM634 9q-45 -12 -94 -14l-315 520l-29 90h-1v-456 q0 -48 4 -83q41 -4 81 -19v-8q0 -22 -6 -40q-29 2 -115 2q-17 0 -57 -1t-62 -1q-8 21 -8 48q39 4 87 19q5 24 5 61v339q0 76 -5 138q-48 15 -87 19q0 27 8 48q22 0 62 -1t57 -1q54 0 86 -4l290 -481l27 -90h1v372q0 76 -5 138q-48 15 -87 19q0 27 8 48q22 0 62 -1t57 -1 q86 0 115 2q6 -18 6 -40v-8q-40 -15 -81 -19q-4 -49 -4 -138v-457z"/>
<glyph glyph-name="Nj" horiz-adv-x="1014" unicode="ǋ" d="M874 561q-21 0 -40.5 16t-19.5 38q0 28 21 53t48 25q23 0 41.5 -16t18.5 -39q0 -28 -20.5 -52.5t-48.5 -24.5zM928 187v-174q0 -220 -168 -270q-21 11 -21 32q105 80 105 252v366q-45 12 -79 16q-5 17 -5 29q0 7 1 10q71 27 163 35l8 -8q-4 -133 -4 -288zM634 9 q-45 -12 -94 -14l-315 520l-29 90h-1v-456q0 -48 4 -83q41 -4 81 -19v-8q0 -22 -6 -40q-29 2 -115 2q-17 0 -57 -1t-62 -1q-8 21 -8 48q39 4 87 19q5 24 5 61v339q0 76 -5 138q-48 15 -87 19q0 27 8 48q22 0 62 -1t57 -1q54 0 86 -4l290 -481l27 -90h1v372q0 76 -5 138 q-48 15 -87 19q0 27 8 48q22 0 62 -1t57 -1q86 0 115 2q6 -18 6 -40v-8q-40 -15 -81 -19q-4 -49 -4 -138v-457z"/>
<glyph glyph-name="nj" horiz-adv-x="866" unicode="ǌ" d="M726 561q-21 0 -40.5 16t-19.5 38q0 28 21 53t48 25q23 0 41.5 -16t18.5 -39q0 -28 -20.5 -52.5t-48.5 -24.5zM780 187v-174q0 -220 -168 -270q-21 11 -21 32q105 80 105 252v366q-45 12 -79 16q-5 17 -5 29q0 7 1 10q71 27 163 35l8 -8q-4 -133 -4 -288zM174 481l8 -7 q6 -24 12 -57q91 67 168 67q138 0 138 -160v-187q0 -39 3 -75q47 -5 75 -18q0 -32 -7 -45q-52 2 -111 2q-21 0 -62 -1t-60 -1q-6 16 -6 45q46 5 80 17q4 29 4 56v168q0 65 -18 97.5t-73 32.5q-60 0 -126 -46v-232q0 -39 3 -75q46 -5 75 -18q0 -32 -6 -45q-54 2 -112 2 q-21 0 -61.5 -1t-59.5 -1q-7 14 -7 45q45 5 80 17q4 29 4 56v273q-36 11 -79 16q-5 17 -5 29q0 7 1 10q72 29 142 36z"/>
<glyph glyph-name="DZ" horiz-adv-x="1269" unicode="Ǳ" d="M965 1h-259q-11 28 -11 57v7l395 540h-289q-13 -51 -16 -110q-15 -5 -28 -5q-10 0 -25 5q-10 72 -10 134q0 6 0.5 17.5t0.5 17.5l8 7q62 -2 235 -2h210q20 -26 29 -64l-397 -540h322q22 62 36 122q12 2 19 2q16 0 34 -6q0 -95 -11 -176l-8 -8q-62 2 -235 2zM313 608 q-8 0 -101 -3v-541h90q39 0 81 8.5t56 19.5q88 68 88 210q0 79 -21 146t-71 113.5t-122 46.5zM167 1q-22 0 -64 -1t-63 -1q-8 21 -8 48q39 4 87 19q5 24 5 61v339q0 76 -5 138q-48 15 -87 19q0 27 8 48q21 0 63 -1t64 -1q38 0 96 2t79 2q130 0 203 -91t73 -238 q0 -66 -20.5 -127.5t-57.5 -110.5t-95 -79t-127 -30q-18 0 -68 2t-83 2z"/>
<glyph glyph-name="Dz" horiz-adv-x="1141" unicode="ǲ" d="M714 463l8 8q62 -2 235 -2h107q16 -25 18 -57l-278 -354h202q23 54 35 108q9 3 19 3q14 0 32 -7q0 -6 0.5 -17t0.5 -16q0 -61 -9 -122l-8 -8q-62 2 -235 2h-123q-14 30 -14 59l276 354h-187q-14 -57 -16 -92q-13 -3 -27 -3l-27 3q-9 60 -9 123v18zM313 608q-8 0 -101 -3 v-541h90q39 0 81 8.5t56 19.5q88 68 88 210q0 79 -21 146t-71 113.5t-122 46.5zM167 1q-22 0 -64 -1t-63 -1q-8 21 -8 48q39 4 87 19q5 24 5 61v339q0 76 -5 138q-48 15 -87 19q0 27 8 48q21 0 63 -1t64 -1q38 0 96 2t79 2q130 0 203 -91t73 -238q0 -66 -20.5 -127.5 t-57.5 -110.5t-95 -79t-127 -30q-18 0 -68 2t-83 2z"/>
<glyph glyph-name="dz" horiz-adv-x="1029" unicode="ǳ" d="M602 463l8 8q62 -2 235 -2h107q16 -25 18 -57l-278 -354h202q23 54 35 108q9 3 19 3q14 0 32 -7q0 -6 0.5 -17t0.5 -16q0 -61 -9 -122l-8 -8q-62 2 -235 2h-123q-14 30 -14 59l276 354h-187q-14 -57 -16 -92q-13 -3 -27 -3l-27 3q-9 60 -9 123v18zM238 58q42 0 127 75 v256q-71 25 -121 25t-69 -19q-50 -54 -50 -140q0 -81 30 -139t83 -58zM40 227q0 104 65 179t150 75q54 0 110 -35v230q-52 12 -91 16q-5 17 -5 29q0 7 1 10q76 27 175 35l8 -8q-4 -133 -4 -288v-333q0 -51 5 -79q23 3 64 16q15 -15 15 -37q-59 -51 -114 -51q-17 0 -30.5 27 t-20.5 65q-82 -92 -151 -92q-85 0 -131 67.5t-46 173.5z"/>
<glyph glyph-name="Scommaaccent" horiz-adv-x="544" unicode="Ș" d="M211 -91q27 27 67 32q45 -35 45 -87q0 -81 -91 -139q-18 8 -22 23q32 43 32 93q0 31 -31 78zM48 29q3 86 24 172q10 3 19 3q15 0 34 -7q3 -64 14 -122q54 -18 135 -18q31 0 60.5 9.5t35.5 15.5q34 33 34 102q0 36 -29 64.5t-71 44.5l-73 28q-34 13 -59 25.5t-53 33.5 t-43 50t-15 65q0 50 20.5 88.5t54.5 59.5t72 31.5t79 10.5q104 0 193 -35q-1 -78 -22 -152q-12 -3 -23 -3q-18 0 -29 7q-5 59 -15 98q-48 13 -115 13q-32 0 -60.5 -5.5t-34.5 -10.5q-29 -26 -29 -71q0 -40 31 -69t73 -44l86 -31q155 -56 155 -172q0 -96 -62.5 -160.5 t-166.5 -64.5q-139 0 -220 44z"/>
<glyph glyph-name="scommaaccent" horiz-adv-x="424" unicode="ș" d="M150 -91q27 27 67 32q45 -35 45 -87q0 -81 -91 -139q-18 8 -22 23q32 43 32 93q0 31 -31 78zM198 -11q-96 0 -155 27q0 72 18 146q10 5 23 5q14 0 24 -5q1 -42 10 -100q28 -14 91 -14q49 0 68.5 15.5t19.5 58.5q0 42 -52 70q-17 9 -47.5 20.5t-52 21t-44 24t-34.5 37.5 t-12 53q0 69 51.5 101t122.5 32q81 0 143 -19q0 -64 -18 -123q-12 -3 -23 -3q-13 0 -28 5q-3 34 -13 77q-32 10 -64 10q-55 0 -71 -14t-16 -45q0 -28 25 -47t61 -32t72 -29t61 -46.5t25 -75.5q0 -70 -52.5 -110t-132.5 -40z"/>
<glyph glyph-name="uni021A" horiz-adv-x="606" unicode="Ț" d="M251 -91q27 27 67 32q45 -35 45 -87q0 -81 -91 -139q-18 8 -22 23q32 43 32 93q0 31 -31 78zM512 605h-165v-456q0 -48 4 -83q52 -4 101 -19v-8q0 -22 -7 -40q-33 2 -143 2q-26 0 -73.5 -1t-72.5 -1q-9 21 -9 48q47 4 107 19q5 24 5 61v478h-165q-13 -57 -16 -122 q-15 -5 -28 -5q-10 0 -25 5q-10 77 -10 143q0 6 0.5 18.5t0.5 18.5l8 8q62 -2 235 -2h88q173 0 235 2l8 -8q0 -6 0.5 -18t0.5 -18q0 -64 -10 -144q-17 -5 -29 -5q-11 0 -24 5q-3 67 -16 122z"/>
<glyph glyph-name="uni021B" horiz-adv-x="349" unicode="ț" d="M128 -91q27 27 67 32q45 -35 45 -87q0 -81 -91 -139q-18 8 -22 23q32 43 32 93q0 31 -31 78zM97 129v280q-46 10 -75 13q-3 12 -3 23q0 12 1 17q34 9 77 12l33 136h13q21 0 38 -6v-132l156 -2q0 -34 -4 -61h-152v-242q0 -110 47 -110q41 0 99 21q17 -17 17 -45 q-78 -47 -155 -47q-49 0 -70.5 35.5t-21.5 107.5z"/>
<glyph glyph-name="dotlessj" horiz-adv-x="272" unicode="ȷ" d="M186 187v-174q0 -220 -168 -270q-21 11 -21 32q105 80 105 252v366q-45 12 -79 16q-5 17 -5 29q0 7 1 10q71 27 163 35l8 -8q-4 -133 -4 -288z"/>
<glyph glyph-name="apostrophe" horiz-adv-x="212" unicode="ʼ" d="M50 717q2 26 19.5 42.5t41.5 16.5q28 0 45 -18t17 -48q0 -46 -39 -96.5t-85 -72.5q-21 9 -22 26q23 22 40 51.5t17 53.5q0 34 -34 45z"/>
<glyph glyph-name="circumflex" horiz-adv-x="415" unicode="ˆ" d="M325 519l-118 123l-111 -123q-21 6 -33 28l110 173q25 7 55 7h11l122 -177q-9 -22 -36 -31z"/>
<glyph glyph-name="caron" horiz-adv-x="415" unicode="ˇ" d="M60 710q9 22 36 31l118 -123l111 123q21 -6 33 -28l-110 -173q-25 -7 -55 -7h-11z"/>
<glyph glyph-name="uni02C9" horiz-adv-x="415" unicode="ˉ" d="M69 617h275q6 -17 6 -33q0 -18 -6 -34h-275q-5 18 -5 32q0 17 5 35z"/>
<glyph glyph-name="breve" horiz-adv-x="415" unicode="˘" d="M200 544q-57 0 -97.5 37.5t-53.5 79.5q7 20 33 28q55 -71 127 -71q68 0 123 71q27 -7 31 -28q-13 -39 -59 -78t-104 -39z"/>
<glyph glyph-name="dotaccent" horiz-adv-x="415" unicode="˙" d="M203 561q-21 0 -40.5 16t-19.5 38q0 28 20.5 53t48.5 25q23 0 41.5 -16t18.5 -39q0 -28 -20.5 -52.5t-48.5 -24.5z"/>
<glyph glyph-name="ring" horiz-adv-x="415" unicode="˚" d="M202 536q-48 0 -74.5 25t-26.5 74q0 37 34 69.5t77 32.5q48 0 74.5 -25t26.5 -74q0 -37 -34 -69.5t-77 -32.5zM208 589q20 0 33 10q13 9 13 35q0 20 -14.5 35t-33.5 15q-22 0 -33 -9q-13 -9 -13 -35q0 -19 14.5 -35t33.5 -16z"/>
<glyph glyph-name="ogonek" horiz-adv-x="415" unicode="˛" d="M292 17l21 -15q-59 -26 -92.5 -58t-33.5 -57q0 -17 11.5 -27.5t28.5 -10.5q24 0 58 10q13 -18 13 -41q-56 -33 -109 -33q-36 0 -60 20.5t-24 49.5q0 54 54.5 96.5t132.5 65.5z"/>
<glyph glyph-name="tilde" horiz-adv-x="415" unicode="˜" d="M53 552q-26 7 -34 28q24 45 60 74t67 29q28 0 72 -33.5t70 -33.5q12 0 33 15.5t40 40.5q23 -6 35 -26q-24 -45 -61 -75t-69 -30q-28 0 -72.5 33.5t-67.5 33.5q-12 0 -33 -15.5t-40 -40.5z"/>
<glyph glyph-name="hungarumlaut" horiz-adv-x="415" unicode="˝" d="M240 741l5 -18l-103 -185q-27 3 -41 17l54 165q39 21 85 21zM383 741l5 -18l-103 -185q-26 3 -42 17l54 165q41 21 86 21z"/>
<glyph glyph-name="gravecomb" d="M25 526l-165 170l5 19q37 19 83 21l117 -184q-12 -21 -40 -26z" unicode="̀"/>
<glyph glyph-name="acutecomb" d="M-59 550l110 167q44 12 99 12l8 -23l-179 -184q-25 6 -38 28z" unicode="́"/>
<glyph glyph-name="circumflexcomb" d="M118 519l-118 123l-111 -123q-21 6 -33 28l110 173q25 7 55 7h11l122 -177q-9 -22 -36 -31z" unicode="̂"/>
<glyph glyph-name="tildecomb" d="M-154 552q-26 7 -34 28q24 45 60 74t67 29q29 0 73 -33.5t69 -33.5q12 0 33 15.5t40 40.5q24 -6 35 -26q-24 -45 -61 -75t-69 -30q-28 0 -72.5 33.5t-67.5 33.5q-12 0 -33 -15.5t-40 -40.5z" unicode="̃"/>
<glyph glyph-name="macroncomb" d="M-138 617h275q6 -17 6 -33q0 -18 -6 -34h-275q-5 18 -5 32q0 17 5 35z" unicode="̄"/>
<glyph glyph-name="brevecomb" d="M-7 544q-57 0 -97.5 37.5t-53.5 79.5q7 20 33 28q55 -71 127 -71q68 0 123 71q27 -7 31 -28q-13 -39 -59 -78t-104 -39z" unicode="̆"/>
<glyph glyph-name="dotaccentcomb" d="M-4 561q-21 0 -40.5 16t-19.5 38q0 28 20.5 53t48.5 25q23 0 41.5 -16t18.5 -39q0 -28 -20.5 -52.5t-48.5 -24.5z" unicode="̇"/>
<glyph glyph-name="dieresiscomb" d="M86 554q-18 0 -34 13.5t-16 31.5q0 24 17.5 45.5t41.5 21.5q20 0 35 -13.5t15 -33.5q0 -25 -17 -44.5t-42 -20.5zM-95 554q-19 0 -34.5 13.5t-15.5 31.5q0 25 17 46t42 21q19 0 34.5 -13.5t15.5 -33.5q0 -25 -17.5 -44.5t-41.5 -20.5z" unicode="̈"/>
<glyph glyph-name="ringcomb" d="M-5 536q-47 0 -74 25t-27 74q0 37 34 69.5t77 32.5q48 0 74.5 -25t26.5 -74q0 -37 -34 -69.5t-77 -32.5zM1 589q21 0 33 10q13 9 13 35q0 20 -14.5 35t-33.5 15q-22 0 -33 -9q-13 -9 -13 -35q0 -19 14.5 -35t33.5 -16z" unicode="̊"/>
<glyph glyph-name="hungarumlautcomb" d="M33 741l5 -18l-103 -185q-27 3 -41 17l54 165q39 21 85 21zM176 741l5 -18l-103 -185q-26 3 -42 17l54 165q41 21 86 21z" unicode="̋"/>
<glyph glyph-name="caroncomb" d="M-147 710q9 22 36 31l118 -123l111 123q21 -6 33 -28l-110 -173q-25 -7 -55 -7h-11z" unicode="̌"/>
<glyph glyph-name="commaaccentturnedabovecomb" d="M50 569q-26 -26 -65 -31q-42 34 -42 83q0 79 86 133q19 -6 22 -22q-32 -40 -32 -89q0 -31 31 -74z" unicode="̒"/>
<glyph glyph-name="caroncomb.alt" d="M-25 758l8 8q7 1 20 1q35 0 59 -18l-47 -210q-5 -1 -15 -1q-17 0 -28 6z" unicode="̕"/>
<glyph glyph-name="dotbelowcomb" d="M-4 -210q-21 0 -38.5 15t-17.5 37q0 25 19.5 48.5t45.5 23.5q22 0 39 -15t17 -36q0 -27 -19 -50t-46 -23z" unicode="̣"/>
<glyph glyph-name="commaaccentcomb" d="M-52 -91q27 27 67 32q45 -35 45 -87q0 -81 -91 -139q-18 8 -22 23q32 43 32 93q0 31 -31 78z" unicode="̦"/>
<glyph glyph-name="cedillacomb" d="M30 20l-28 -63q48 -2 73.5 -22.5t25.5 -54.5q0 -45 -50 -84.5t-119 -51.5q-11 10 -11 29q98 42 98 93q0 19 -17 31.5t-48 12.5h-9l-8 8l51 102h42z" unicode="̧"/>
<glyph glyph-name="ogonekcomb" d="M42 17l21 -15q-59 -26 -92.5 -58t-33.5 -57q0 -17 11.5 -27.5t28.5 -10.5q24 0 58 10q13 -18 13 -41q-56 -33 -109 -33q-36 0 -60 20.5t-24 49.5q0 54 54.5 96.5t132.5 65.5z" unicode="̨"/>
<glyph glyph-name="uni0394" horiz-adv-x="610" unicode="Δ" d="M298 589l-189 -509h365l-170 436l-5 73h-1zM569 0h-528q-10 25 -10 58v8l225 595q36 14 88 14l235 -609v-8q0 -36 -10 -58z"/>
<glyph glyph-name="uni03A9" horiz-adv-x="754" unicode="Ω" d="M463 1q-21 18 -30 44q142 151 142 323q0 106 -61 177t-146 71q-30 0 -63.5 -9.5t-42.5 -18.5q-83 -83 -83 -220q0 -159 149 -318q-10 -34 -37 -49h-28q-167 0 -229 -2l-8 8q-11 81 -11 176q18 6 34 6q7 0 19 -2q14 -60 36 -122h127q-71 79 -106.5 145t-35.5 145 q0 74 35.5 149.5t106.5 129.5t158 54q92 0 156 -43.5t92 -109t28 -145.5q0 -172 -141 -325h126q22 62 36 122q12 2 19 2q16 0 34 -6q0 -95 -11 -176l-8 -8q-62 2 -222 2h-35z"/>
<glyph glyph-name="uni03BC" horiz-adv-x="610" unicode="μ" d="M428 141h-3q-49 -155 -159 -155q-88 0 -121 130h-1q12 -209 31 -362q-23 -9 -51 -9t-50 9q8 197 8 395q0 162 -20 317q22 9 50 9q29 0 51 -9v-211q0 -79 25.5 -133.5t63.5 -54.5q55 0 92 68t37 155v176q23 9 51 9t50 -9q-12 -95 -12 -179q0 -107 25 -203q48 3 86 16 q22 -19 22 -49q0 -1 -0.5 -4t-0.5 -5q-56 -56 -109 -56q-27 0 -46.5 39t-19.5 96q0 3 0.5 10t0.5 10z"/>
<glyph glyph-name="pi" horiz-adv-x="611" unicode="π" d="M91 39q72 86 72 256v90q-86 -3 -133 -25q-24 18 -25 44q66 66 189 66h195q114 0 171 2q20 -30 20 -72v-6l-8 -8h-120v-302q48 3 86 16q22 -19 22 -49q0 -1 -0.5 -4t-0.5 -5q-56 -56 -108 -56q-31 0 -48.5 31t-17.5 82v287h-155v-221q0 -45 -12.5 -92.5t-35.5 -78.5 q-69 0 -91 45z"/>
<glyph glyph-name="uni0400" horiz-adv-x="583" unicode="Ѐ" d="M186 902l179 -134q-8 -25 -22 -39l-211 95l-5 20q17 34 59 58zM167 669h103q173 0 235 2l8 -8q0 -5 0.5 -17t0.5 -17q0 -59 -10 -134q-13 -5 -26 -5q-14 0 -27 5q-3 60 -16 110h-223v-228l205 4l8 -8q-2 -37 -10 -62l-203 4v-250h235q22 62 36 122q12 2 19 2q16 0 34 -6 q0 -95 -11 -176l-8 -8q-62 2 -235 2h-115q-22 0 -64 -1t-63 -1q-8 21 -8 48q39 4 87 19q5 24 5 61v339q0 76 -5 138q-48 15 -87 19q0 27 8 48q21 0 63 -1t64 -1z"/>
<glyph glyph-name="uni0401" horiz-adv-x="583" unicode="Ё" d="M379 743q-17 0 -32.5 13t-15.5 30q0 24 17 44.5t40 20.5q19 0 34 -13t15 -32q0 -24 -16.5 -43t-41.5 -20zM196 743q-19 0 -34 12.5t-15 30.5q0 24 17 44.5t41 20.5q18 0 33 -13t15 -32q0 -24 -17 -43t-40 -20zM167 669h103q173 0 235 2l8 -8q0 -5 0.5 -17t0.5 -17 q0 -59 -10 -134q-13 -5 -26 -5q-14 0 -27 5q-3 60 -16 110h-223v-228l205 4l8 -8q-2 -37 -10 -62l-203 4v-250h235q22 62 36 122q12 2 19 2q16 0 34 -6q0 -95 -11 -176l-8 -8q-62 2 -235 2h-115q-22 0 -64 -1t-63 -1q-8 21 -8 48q39 4 87 19q5 24 5 61v339q0 76 -5 138 q-48 15 -87 19q0 27 8 48q21 0 63 -1t64 -1z"/>
<glyph glyph-name="uni0402" horiz-adv-x="729" unicode="Ђ" d="M302 1q-26 0 -73.5 -1t-72.5 -1q-9 21 -9 48q47 4 107 19q5 24 5 61v478h-165q-13 -57 -16 -122q-15 -5 -28 -5q-10 0 -25 5q-10 77 -10 143q0 6 0.5 18.5t0.5 18.5l8 8q62 -2 235 -2h129q173 0 235 2l8 -8q0 -5 0.5 -16t0.5 -16q0 -58 -10 -128q-17 -5 -29 -5 q-11 0 -24 5q-3 55 -16 102h-206v-237q74 49 160 49q88 0 138 -63t50 -171q0 -136 -75.5 -242.5t-213.5 -155.5q-21 19 -21 50q102 48 160.5 132.5t58.5 200.5q0 82 -34.5 129.5t-104.5 47.5q-63 0 -118 -30v-166q0 -48 4 -83q41 -4 81 -19v-8q0 -22 -6 -40q-29 2 -124 2z "/>
<glyph glyph-name="uni0403" horiz-adv-x="521" unicode="Ѓ" d="M202 767l186 130q29 -17 51 -57l-3 -20l-213 -93q-13 11 -21 40zM427 605h-215v-456q0 -48 4 -83q52 -4 101 -19v-8q0 -22 -7 -40q-33 2 -139 2q-23 0 -66 -1t-65 -1q-8 21 -8 48q39 4 87 19q5 32 5 103v297q0 76 -5 138q-48 15 -87 19q0 27 8 48q21 0 63 -1t64 -1h95 q173 0 235 2l8 -8q0 -6 0.5 -18t0.5 -18q0 -64 -10 -144q-13 -5 -26 -5q-14 0 -27 5q-3 67 -16 122z"/>
<glyph glyph-name="uni0404" horiz-adv-x="606" unicode="Є" d="M462 607q-40 6 -112 6q-31 0 -74 -10.5t-59 -23.5q-77 -75 -81 -202l242 7l8 -8v-9q0 -35 -10 -59l-238 6q10 -115 69 -186t171 -71q54 0 97 9q11 55 14 115q15 6 32 6q14 0 21 -2q15 -78 15 -166q-106 -34 -206 -34q-148 0 -227 95t-79 243q0 90 36 171t111.5 136 t175.5 55q102 0 183 -27v-9q0 -75 -23 -149q-8 -2 -23 -2q-16 0 -28 6q-3 51 -15 103z"/>
<glyph glyph-name="uni0405" horiz-adv-x="544" unicode="Ѕ" d="M48 29q3 86 24 172q10 3 19 3q15 0 34 -7q3 -64 14 -122q54 -18 135 -18q31 0 60.5 9.5t35.5 15.5q34 33 34 102q0 36 -29 64.5t-71 44.5l-73 28q-34 13 -59 25.5t-53 33.5t-43 50t-15 65q0 50 20.5 88.5t54.5 59.5t72 31.5t79 10.5q104 0 193 -35q-1 -78 -22 -152 q-12 -3 -23 -3q-18 0 -29 7q-5 59 -15 98q-48 13 -115 13q-32 0 -60.5 -5.5t-34.5 -10.5q-29 -26 -29 -71q0 -40 31 -69t73 -44l86 -31q155 -56 155 -172q0 -96 -62.5 -160.5t-166.5 -64.5q-139 0 -220 44z"/>
<glyph glyph-name="uni0406" horiz-adv-x="334" unicode="І" d="M119 604q-48 15 -87 19q0 27 8 48q21 0 63 -1t64 -1q95 0 124 2q6 -18 6 -40v-8q-40 -15 -81 -19q-4 -49 -4 -138v-317q0 -48 4 -83q41 -4 81 -19v-8q0 -22 -6 -40q-29 2 -124 2q-22 0 -64 -1t-63 -1q-8 21 -8 48q39 4 87 19q5 24 5 61v339q0 76 -5 138z"/>
<glyph glyph-name="uni0407" horiz-adv-x="334" unicode="Ї" d="M255 743q-17 0 -32.5 13t-15.5 30q0 24 17 44.5t40 20.5q19 0 34 -13t15 -32q0 -24 -16.5 -43t-41.5 -20zM72 743q-19 0 -34 12.5t-15 30.5q0 24 17 44.5t41 20.5q18 0 33 -13t15 -32q0 -24 -17 -43t-40 -20zM119 604q-48 15 -87 19q0 27 8 48q21 0 63 -1t64 -1 q95 0 124 2q6 -18 6 -40v-8q-40 -15 -81 -19q-4 -49 -4 -138v-317q0 -48 4 -83q41 -4 81 -19v-8q0 -22 -6 -40q-29 2 -124 2q-22 0 -64 -1t-63 -1q-8 21 -8 48q39 4 87 19q5 24 5 61v339q0 76 -5 138z"/>
<glyph glyph-name="uni0408" horiz-adv-x="306" unicode="Ј" d="M199 466v-439q0 -115 -58.5 -172.5t-167.5 -69.5q-17 17 -17 51q81 31 118 78.5t37 132.5v419q0 76 -5 138q-48 15 -87 19q0 27 8 48q21 0 63 -1t64 -1q95 0 124 2q6 -18 6 -40v-8q-40 -15 -81 -19q-4 -49 -4 -138z"/>
<glyph glyph-name="uni0409" horiz-adv-x="860" unicode="Љ" d="M617 326q-49 0 -84 -5v-257h80q26 0 49 4t34.5 8.5t14.5 8.5q37 43 37 114q0 54 -38 90.5t-93 36.5zM488 1q-26 0 -73.5 -1t-72.5 -1q-9 21 -9 48q47 4 107 19q5 24 5 61v478h-121q-10 -130 -19.5 -208t-30.5 -166.5t-57 -148t-91 -100.5q-83 23 -121 89q6 34 42 53 l84 -35q28 33 47 79.5t32.5 124t20 134.5t17.5 175q-41 14 -87 21q0 27 8 48q21 0 63 -1t64 -1h192q110 0 143 2q7 -18 7 -40v-8q-49 -15 -101 -19q-4 -49 -4 -138v-79q55 11 108 11q86 0 142 -53t56 -120q0 -90 -57.5 -159t-160.5 -69q-20 0 -63 2t-70 2z"/>
<glyph glyph-name="uni040A" horiz-adv-x="939" unicode="Њ" d="M696 326q-49 0 -84 -5v-257h80q26 0 49 4t34.5 8.5t14.5 8.5q37 43 37 114q0 54 -38 90.5t-93 36.5zM524 169v146q-117 5 -206 5h-106v-171q0 -48 4 -83q41 -4 81 -19v-8q0 -22 -6 -40q-29 2 -124 2q-22 0 -64 -1t-63 -1q-8 21 -8 48q39 4 87 19q5 30 5 95v305 q0 76 -5 138q-48 15 -87 19q0 27 8 48q21 0 63 -1t64 -1q95 0 124 2q6 -18 6 -40v-8q-40 -15 -81 -19q-4 -44 -4 -173v-49h312v84q0 76 -5 138q-48 15 -87 19q0 27 8 48q21 0 63 -1t64 -1q110 0 144 2q6 -18 6 -40v-8q-48 -15 -101 -19q-4 -49 -4 -138v-79q55 11 108 11 q86 0 142 -53t56 -120q0 -90 -57.5 -159t-160.5 -69q-20 0 -63 2t-70 2q-22 0 -64 -1t-63 -1q-8 21 -8 48q39 4 87 19q5 32 5 103z"/>
<glyph glyph-name="uni040B" horiz-adv-x="779" unicode="Ћ" d="M677 251v-185q41 -4 81 -19v-8q0 -22 -6 -40q-24 2 -119 2q-22 0 -62 -1t-61 -1q-8 21 -8 48q39 4 87 19v156q0 65 -24 94t-74 29q-77 0 -144 -31v-165q0 -48 4 -83q41 -4 81 -19v-8q0 -22 -7 -40q-28 2 -123 2q-26 0 -73.5 -1t-72.5 -1q-9 21 -9 48q47 4 107 19 q5 24 5 61v478h-165q-13 -57 -16 -122q-15 -5 -28 -5q-10 0 -25 5q-10 77 -10 143q0 6 0.5 18.5t0.5 18.5l8 8q62 -2 235 -2h129q173 0 235 2l8 -8q0 -5 0.5 -16t0.5 -16q0 -58 -10 -128q-17 -5 -29 -5q-11 0 -24 5q-3 55 -16 102h-206v-239q87 52 173 52q80 0 118.5 -39 t38.5 -128z"/>
<glyph glyph-name="uni040C" horiz-adv-x="649" unicode="Ќ" d="M249 767l186 130q29 -17 51 -57l-3 -20l-213 -93q-13 11 -21 40zM522 0h-36l-194 312h-80v-163q0 -48 4 -83q41 -4 81 -19v-8q0 -22 -6 -40q-29 2 -124 2q-22 0 -64 -1t-63 -1q-8 21 -8 48q39 4 87 19q5 30 5 95v305q0 76 -5 138q-48 15 -87 19q0 27 8 48q21 0 63 -1 t64 -1q95 0 124 2q6 -18 6 -40v-8q-40 -15 -81 -19q-4 -44 -4 -173v-55h115l106 219q30 61 59 88q73 -9 122 -48q1 -4 1 -13q0 -32 -20 -55l-96 9l-111 -235l169 -275q52 -7 87 -19q0 -34 -7 -48q-34 1 -115 1z"/>
<glyph glyph-name="uni040D" horiz-adv-x="754" unicode="Ѝ" d="M272 902l179 -134q-8 -25 -22 -39l-211 95l-5 20q17 34 59 58zM119 604q-48 15 -87 19q0 27 8 48q21 0 63 -1t64 -1q95 0 124 2q6 -18 6 -40v-8q-40 -15 -81 -19q-4 -44 -4 -173v-208l330 324l-3 57q-48 15 -87 19q0 27 8 48q21 0 63 -1t64 -1q95 0 124 2q6 -18 6 -40v-8 q-40 -15 -81 -19q-4 -44 -4 -173v-282q0 -48 4 -83q41 -4 81 -19v-8q0 -22 -6 -40q-29 2 -124 2q-22 0 -64 -1t-63 -1q-8 21 -8 48q39 4 87 19q5 30 5 95v296l-332 -322q0 -40 4 -69q41 -4 81 -19v-8q0 -22 -6 -40q-29 2 -124 2q-22 0 -64 -1t-63 -1q-8 21 -8 48q39 4 87 19 q5 30 5 95v305q0 76 -5 138z"/>
<glyph glyph-name="uni040E" horiz-adv-x="654" unicode="Ў" d="M345 790q32 0 49 17q14 12 14 54v7q14 2 26 2q57 0 77 -21q0 -48 -52 -81t-126 -33q-68 0 -114 30.5t-46 83.5q17 21 79 21q11 0 23 -2v-12q0 -28 18 -47t52 -19zM146 75q6 33 41 52l84 -35q18 24 38 70l-224 442q-46 15 -80 19q0 27 8 48q22 0 65 -1t66 -1q96 0 125 2 q6 -18 6 -40v-8l-88 -19l169 -341l143 341l-94 19q0 27 8 48q23 0 61.5 -1t53.5 -1q81 0 110 2q6 -18 6 -40v-8q-36 -15 -74 -19l-206 -487q-35 -84 -93 -135q-87 24 -125 93z"/>
<glyph glyph-name="uni040F" horiz-adv-x="705" unicode="Џ" d="M306 1h-139q-22 0 -64 -1t-63 -1q-8 21 -8 48q39 4 87 19q5 30 5 95v305q0 76 -5 138q-48 15 -87 19q0 27 8 48q21 0 63 -1t64 -1q95 0 124 2q6 -18 6 -40v-8q-40 -15 -81 -19q-4 -44 -4 -173v-366h283v401q0 76 -5 138q-48 15 -87 19q0 27 8 48q21 0 63 -1t64 -1 q95 0 124 2q6 -18 6 -40v-8q-40 -15 -81 -19q-4 -49 -4 -138v-317q0 -48 4 -83q41 -4 81 -19v-8q0 -22 -6 -40l-11 1l1 1h-28h-224q-12 -88 -16 -166q-15 -5 -31 -5t-31 5q-4 78 -16 166z"/>
<glyph glyph-name="uni0410" horiz-adv-x="677" unicode="А" d="M332 589l-102 -303h189l-81 230l-5 73h-1zM496 66l-55 155q-71 4 -158 4h-73l-53 -159l88 -19v-8q0 -22 -6 -40q-29 2 -111 2q-15 0 -53.5 -1t-61.5 -1q-8 21 -8 48q34 4 80 19l205 595q36 14 88 14l215 -609q38 -4 74 -19v-8q0 -22 -6 -40q-29 2 -124 2q-22 0 -64 -1 t-63 -1q-8 21 -8 48z"/>
<glyph glyph-name="uni0411" horiz-adv-x="592" unicode="Б" d="M212 64h95q30 0 57.5 4t41 8.5t17.5 8.5q44 42 44 111q0 53 -44 89t-107 36q-55 0 -104 -7v-250zM343 393q97 0 156 -52t59 -119q0 -90 -60.5 -157.5t-176.5 -67.5q-23 0 -73 2t-81 2q-22 0 -64 -1t-63 -1q-8 21 -8 48q39 4 87 19q5 24 5 61v339q0 76 -5 138 q-48 15 -87 19q0 27 8 48q21 0 63 -1t64 -1h104q173 0 235 2l8 -8q0 -5 0.5 -16t0.5 -16q0 -58 -10 -128q-13 -5 -27 -5q-13 0 -26 5q-3 57 -16 102h-224v-225q64 13 131 13z"/>
<glyph glyph-name="uni0412" horiz-adv-x="592" unicode="В" d="M319 608q-2 0 -107 -3v-219h85q71 0 107 31.5t36 78.5t-34 79.5t-87 32.5zM316 319h-104v-255h95q30 0 57.5 4t41 8.5t17.5 7.5q44 37 44 111q0 52 -44 88t-107 36zM167 1q-22 0 -64 -1t-63 -1q-8 21 -8 48q39 4 87 19q5 32 5 103v297q0 76 -5 138q-48 15 -87 19 q0 27 8 48q21 0 63 -1t64 -1q41 0 105 2t87 2q74 0 123 -43.5t49 -108.5q0 -101 -97 -147q124 -43 124 -154q0 -89 -60.5 -156t-176.5 -67q-23 0 -73 2t-81 2z"/>
<glyph glyph-name="uni0413" horiz-adv-x="516" unicode="Г" d="M427 605h-215v-456q0 -48 4 -83q52 -4 101 -19v-8q0 -22 -7 -40q-33 2 -139 2q-23 0 -66 -1t-65 -1q-8 21 -8 48q39 4 87 19q5 32 5 103v297q0 76 -5 138q-48 15 -87 19q0 27 8 48q21 0 63 -1t64 -1h95q173 0 235 2l8 -8q0 -6 0.5 -18t0.5 -18q0 -64 -10 -144 q-13 -5 -26 -5q-14 0 -27 5q-3 67 -16 122z"/>
<glyph glyph-name="uni0414" horiz-adv-x="671" unicode="Д" d="M320 605q-27 -364 -131 -540h60h173h31v540h-133zM15 -163q-10 103 -10 181q0 7 0.5 21t0.5 20l8 8l92 -2q62 97 93 230t47 309q-47 15 -87 19q0 27 8 48q21 0 63 -1t64 -1h202q95 0 124 2q6 -18 6 -40v-8q-40 -15 -81 -19q-4 -49 -4 -138v-401q52 0 116 2l8 -8 q0 -6 0.5 -19.5t0.5 -20.5q0 -75 -10 -182q-20 -5 -31 -5q-13 0 -26 5q-3 92 -17 164h-493q-16 -71 -21 -164q-15 -5 -28 -5q-10 0 -25 5z"/>
<glyph glyph-name="uni0415" horiz-adv-x="583" unicode="Е" d="M167 669h103q173 0 235 2l8 -8q0 -5 0.5 -17t0.5 -17q0 -59 -10 -134q-13 -5 -26 -5q-14 0 -27 5q-3 60 -16 110h-223v-228l205 4l8 -8q-2 -37 -10 -62l-203 4v-250h235q22 62 36 122q12 2 19 2q16 0 34 -6q0 -95 -11 -176l-8 -8q-62 2 -235 2h-115q-22 0 -64 -1t-63 -1 q-8 21 -8 48q39 4 87 19q5 24 5 61v339q0 76 -5 138q-48 15 -87 19q0 27 8 48q21 0 63 -1t64 -1z"/>
<glyph glyph-name="uni0416" horiz-adv-x="899" unicode="Ж" d="M154 683q28 -25 59 -88l107 -219h86v90q0 76 -5 138q-44 15 -82 19q0 27 8 48q21 0 60.5 -1t59.5 -1q89 0 117 2q6 -18 6 -40v-8q-38 -15 -76 -19q-4 -44 -4 -173v-55h87l106 219q30 61 59 88q73 -9 122 -48q1 -4 1 -13q0 -32 -20 -55l-96 9l-111 -235l169 -275 q52 -7 87 -19q0 -34 -7 -48q-34 1 -115 1h-36l-194 312h-52v-163q0 -48 4 -83q38 -4 76 -19v-8q0 -22 -6 -40q-28 2 -117 2q-20 0 -59.5 -1t-60.5 -1q-8 21 -8 48q37 4 82 19q5 30 5 95v151h-54l-192 -312h-33q-81 0 -115 -1q-7 14 -7 48q37 3 87 19l169 276l-114 234 l-96 -9q-20 23 -20 55q0 9 1 13q49 39 122 48z"/>
<glyph glyph-name="uni0417" horiz-adv-x="540" unicode="З" d="M175 309l-8 9v12q0 33 14 67l95 -4q46 12 73.5 46.5t27.5 71.5q0 42 -38.5 72t-102.5 30q-53 0 -98 -9q-11 -44 -14 -102q-15 -6 -32 -6q-6 0 -20 2q-16 70 -17 137q97 50 219 50q81 0 137.5 -45t56.5 -105q0 -106 -112 -162q69 -18 105 -60.5t36 -101.5 q0 -90 -83.5 -158t-186.5 -68q-92 0 -178 31q2 97 11 166q15 6 33 6q8 0 22 -2q7 -69 21 -119q39 -10 103 -10q38 0 71 9t45 19q49 42 49 109q0 47 -37.5 82t-92.5 41z"/>
<glyph glyph-name="uni0418" horiz-adv-x="754" unicode="И" d="M119 604q-48 15 -87 19q0 27 8 48q21 0 63 -1t64 -1q95 0 124 2q6 -18 6 -40v-8q-40 -15 -81 -19q-4 -44 -4 -173v-208l330 324l-3 57q-48 15 -87 19q0 27 8 48q21 0 63 -1t64 -1q95 0 124 2q6 -18 6 -40v-8q-40 -15 -81 -19q-4 -44 -4 -173v-282q0 -48 4 -83 q41 -4 81 -19v-8q0 -22 -6 -40q-29 2 -124 2q-22 0 -64 -1t-63 -1q-8 21 -8 48q39 4 87 19q5 30 5 95v296l-332 -322q0 -40 4 -69q41 -4 81 -19v-8q0 -22 -6 -40q-29 2 -124 2q-22 0 -64 -1t-63 -1q-8 21 -8 48q39 4 87 19q5 30 5 95v305q0 76 -5 138z"/>
<glyph glyph-name="uni0419" horiz-adv-x="754" unicode="Й" d="M381 790q32 0 49 17q14 12 14 54v7q14 2 26 2q57 0 77 -21q0 -48 -52 -81t-126 -33q-68 0 -114 30.5t-46 83.5q17 21 79 21q11 0 23 -2v-12q0 -28 18 -47t52 -19zM119 604q-48 15 -87 19q0 27 8 48q21 0 63 -1t64 -1q95 0 124 2q6 -18 6 -40v-8q-40 -15 -81 -19 q-4 -44 -4 -173v-208l330 324l-3 57q-48 15 -87 19q0 27 8 48q21 0 63 -1t64 -1q95 0 124 2q6 -18 6 -40v-8q-40 -15 -81 -19q-4 -44 -4 -173v-282q0 -48 4 -83q41 -4 81 -19v-8q0 -22 -6 -40q-29 2 -124 2q-22 0 -64 -1t-63 -1q-8 21 -8 48q39 4 87 19q5 30 5 95v296 l-332 -322q0 -40 4 -69q41 -4 81 -19v-8q0 -22 -6 -40q-29 2 -124 2q-22 0 -64 -1t-63 -1q-8 21 -8 48q39 4 87 19q5 30 5 95v305q0 76 -5 138z"/>
<glyph glyph-name="uni041A" horiz-adv-x="649" unicode="К" d="M522 0h-36l-194 312h-80v-163q0 -48 4 -83q41 -4 81 -19v-8q0 -22 -6 -40q-29 2 -124 2q-22 0 -64 -1t-63 -1q-8 21 -8 48q39 4 87 19q5 30 5 95v305q0 76 -5 138q-48 15 -87 19q0 27 8 48q21 0 63 -1t64 -1q95 0 124 2q6 -18 6 -40v-8q-40 -15 -81 -19q-4 -44 -4 -173 v-55h115l106 219q30 61 59 88q73 -9 122 -48q1 -4 1 -13q0 -32 -20 -55l-96 9l-111 -235l169 -275q52 -7 87 -19q0 -34 -7 -48q-34 1 -115 1z"/>
<glyph glyph-name="uni041B" horiz-adv-x="665" unicode="Л" d="M47 124l84 -35q28 33 47 79.5t32.5 124t20 134.5t17.5 175q-41 14 -87 21q0 27 8 48q21 0 63 -1t64 -1h202q95 0 124 2q6 -18 6 -40v-8q-40 -15 -81 -19q-4 -49 -4 -138v-317q0 -48 4 -83q41 -4 81 -19v-8q0 -22 -6 -40q-29 2 -124 2q-26 0 -73.5 -1t-72.5 -1 q-9 21 -9 48q47 4 107 19q5 24 5 61v478h-131q-8 -104 -14.5 -167.5t-20.5 -143t-33.5 -130.5t-52 -100t-76.5 -82q-84 23 -122 89q6 34 42 53z"/>
<glyph glyph-name="uni041C" horiz-adv-x="919" unicode="М" d="M719 66l-39 449l-3 90h-1l-182 -596q-41 -12 -91 -14l-165 520l-12 90h-1l-47 -539l84 -19v-8q0 -22 -6 -40q-29 2 -112 2q-17 0 -55 -1t-59 -1q-8 21 -8 48q39 4 90 20l48 537q-59 16 -92 19q0 27 8 48q22 0 61.5 -1t56.5 -1q55 0 98 -4l153 -483l2 -97h1l177 581 q32 3 92 3q97 0 126 2q6 -18 6 -40v-8q-34 -13 -84 -19l47 -538q46 -4 85 -19v-8q0 -22 -6 -40q-29 2 -127 2q-22 0 -64.5 -1t-63.5 -1q-8 21 -8 48z"/>
<glyph glyph-name="uni041D" horiz-adv-x="754" unicode="Н" d="M539 604q-48 15 -87 19q0 27 8 48q21 0 63 -1t64 -1q95 0 124 2q6 -18 6 -40v-8q-40 -15 -81 -19q-4 -44 -4 -173v-282q0 -48 4 -83q41 -4 81 -19v-8q0 -22 -6 -40q-29 2 -124 2q-22 0 -64 -1t-63 -1q-8 21 -8 48q39 4 87 19q5 30 5 95v154q-117 5 -206 5h-126v-171 q0 -48 4 -83q41 -4 81 -19v-8q0 -22 -6 -40q-29 2 -124 2q-22 0 -64 -1t-63 -1q-8 21 -8 48q39 4 87 19q5 30 5 95v305q0 76 -5 138q-48 15 -87 19q0 27 8 48q21 0 63 -1t64 -1q95 0 124 2q6 -18 6 -40v-8q-40 -15 -81 -19q-4 -44 -4 -173v-49h332v84q0 76 -5 138z"/>
<glyph glyph-name="uni041E" horiz-adv-x="690" unicode="О" d="M364 54q25 0 60.5 10.5t48.5 23.5q33 32 57 88t24 128q0 135 -57 223.5t-171 88.5q-25 0 -60.5 -10.5t-48.5 -23.5q-33 -32 -57 -88t-24 -128q0 -135 57 -223.5t171 -88.5zM336 -18q-138 0 -214.5 96t-76.5 245q0 89 36.5 171.5t109 138t163.5 55.5q137 0 214 -96 t77 -245q0 -89 -36.5 -171.5t-109 -138t-163.5 -55.5z"/>
<glyph glyph-name="uni041F" horiz-adv-x="734" unicode="П" d="M519 66q5 30 5 95v444h-312v-456q0 -48 4 -83q41 -4 81 -19v-8q0 -22 -6 -40q-29 2 -124 2q-22 0 -64 -1t-63 -1q-8 21 -8 48q39 4 87 19q5 30 5 95v305q0 76 -5 138q-48 15 -87 19q0 27 8 48q21 0 63 -1t64 -1h400q95 0 124 2q6 -18 6 -40v-8q-40 -15 -81 -19 q-4 -44 -4 -173v-282q0 -48 4 -83q41 -4 81 -19v-8q0 -22 -6 -40q-29 2 -124 2q-22 0 -64 -1t-63 -1q-8 21 -8 48q39 4 87 19z"/>
<glyph glyph-name="uni0420" horiz-adv-x="563" unicode="Р" d="M327 608q-13 0 -115 -3v-283q33 -4 88 -4q22 0 46.5 6t38.5 12.5t17 9.5q43 38 43 112q0 59 -29 104.5t-89 45.5zM167 669q38 0 102 2t85 2q94 0 138 -52.5t44 -134.5q0 -83 -68.5 -160.5t-155.5 -77.5q-59 0 -100 8v-107q0 -48 4 -83q52 -4 101 -19v-8q0 -22 -7 -40 q-33 2 -139 2q-23 0 -66 -1t-65 -1q-8 21 -8 48q39 4 87 19q5 24 5 61v339q0 76 -5 138q-48 15 -87 19q0 27 8 48q21 0 63 -1t64 -1z"/>
<glyph glyph-name="uni0421" horiz-adv-x="606" unicode="С" d="M462 607q-40 6 -112 6q-31 0 -74 -10.5t-59 -23.5q-81 -79 -81 -213q0 -64 13 -118t40.5 -97.5t76 -68.5t112.5 -25q54 0 97 9q11 59 14 122q15 6 32 6q14 0 21 -2q15 -80 15 -173q-106 -34 -206 -34q-148 0 -227 95t-79 243q0 90 36 171t111.5 136t175.5 55 q102 0 183 -27v-9q0 -79 -23 -156q-8 -2 -23 -2q-16 0 -28 6q-3 56 -15 110z"/>
<glyph glyph-name="uni0422" horiz-adv-x="606" unicode="Т" d="M512 605h-165v-456q0 -48 4 -83q52 -4 101 -19v-8q0 -22 -7 -40q-33 2 -143 2q-26 0 -73.5 -1t-72.5 -1q-9 21 -9 48q47 4 107 19q5 24 5 61v478h-165q-13 -57 -16 -122q-15 -5 -28 -5q-10 0 -25 5q-10 77 -10 143q0 6 0.5 18.5t0.5 18.5l8 8q62 -2 235 -2h88 q173 0 235 2l8 -8q0 -6 0.5 -18t0.5 -18q0 -64 -10 -144q-17 -5 -29 -5q-11 0 -24 5q-3 67 -16 122z"/>
<glyph glyph-name="uni0423" horiz-adv-x="654" unicode="У" d="M146 75q6 33 41 52l84 -35q18 24 38 70l-224 442q-46 15 -80 19q0 27 8 48q22 0 65 -1t66 -1q96 0 125 2q6 -18 6 -40v-8l-88 -19l169 -341l143 341l-94 19q0 27 8 48q23 0 61.5 -1t53.5 -1q81 0 110 2q6 -18 6 -40v-8q-36 -15 -74 -19l-206 -487q-35 -84 -93 -135 q-87 24 -125 93z"/>
<glyph glyph-name="uni0424" horiz-adv-x="718" unicode="Ф" d="M600 324q0 95 -51.5 145t-147.5 52v-369q105 3 134 26q28 19 46.5 60t18.5 86zM118 349q0 -95 51.5 -145t147.5 -52v369q-103 -3 -134 -26q-28 -19 -46.5 -60t-18.5 -86zM317 41v51q-134 0 -210.5 56.5t-76.5 168.5t85 187t202 77v47q-66 16 -112 20q0 27 9 48 q25 0 72.5 -1t71.5 -1q108 0 141 2q7 -18 7 -40v-8q-50 -15 -105 -19v-48q133 0 210 -56.5t77 -168.5t-85 -187.5t-202 -76.5v-51q55 -4 105 -19v-8q0 -22 -7 -40q-33 2 -141 2q-24 0 -71.5 -1t-72.5 -1q-9 21 -9 48q41 3 112 19z"/>
<glyph glyph-name="uni0425" horiz-adv-x="658" unicode="Х" d="M167 66l88 -19v-8q0 -22 -6 -40q-29 2 -114 2q-16 0 -57 -1t-66 -1q-8 21 -8 48q35 4 84 19l188 274l-183 264q-46 15 -80 19q0 27 8 48q22 0 65.5 -1t67.5 -1q97 0 125 2q6 -18 6 -48l-80 -19l135 -195l135 194l-87 19q0 28 8 49q22 0 59.5 -1t53.5 -1q85 0 116 2 q6 -18 6 -48q-36 -15 -74 -19l-178 -252l199 -286q38 -4 74 -19v-8q0 -22 -6 -40q-29 2 -132 2q-25 0 -69 -1t-65 -1q-8 21 -8 48l94 19l-150 216z"/>
<glyph glyph-name="uni0426" horiz-adv-x="713" unicode="Ц" d="M167 1q-22 0 -64 -1t-63 -1q-8 21 -8 48q39 4 87 19q5 30 5 95v305q0 76 -5 138q-48 15 -87 19q0 27 8 48q21 0 63 -1t64 -1q95 0 124 2q6 -18 6 -40v-8q-40 -15 -81 -19q-4 -44 -4 -173v-366h252h31v401q0 76 -5 138q-48 15 -87 19q0 27 8 48q21 0 63 -1t64 -1 q95 0 124 2q6 -18 6 -40v-8q-40 -15 -81 -19q-4 -44 -4 -173v-366q52 0 116 2l8 -8q0 -7 0.5 -21t0.5 -21q0 -78 -10 -180q-20 -5 -31 -5q-13 0 -26 5q-3 93 -17 164h-457z"/>
<glyph glyph-name="uni0427" horiz-adv-x="667" unicode="Ч" d="M452 604q-48 15 -87 19q0 27 8 48q21 0 63 -1t64 -1q95 0 124 2q6 -18 6 -40v-8q-40 -15 -81 -19q-4 -49 -4 -138v-317q0 -48 4 -83q41 -4 81 -19v-8q0 -22 -6 -40q-29 2 -124 2q-26 0 -73.5 -1t-72.5 -1q-9 21 -9 48q47 4 107 19q5 24 5 61v165q-82 -45 -180 -45 q-180 0 -180 200v156q-55 16 -92 20q0 27 8 48q21 0 63 -1t64 -1q91 0 119 2q6 -18 6 -40v-8q-39 -15 -80 -19v-133q0 -71 30 -111t81 -40q86 0 161 36v110q0 76 -5 138z"/>
<glyph glyph-name="uni0428" horiz-adv-x="974" unicode="Ш" d="M807 1h-640q-22 0 -64 -1t-63 -1q-8 21 -8 48q39 4 87 19q5 30 5 95v305q0 76 -5 138q-48 15 -87 19q0 27 8 48q21 0 63 -1t64 -1q95 0 124 2q6 -18 6 -40v-8q-40 -15 -81 -19q-4 -44 -4 -173v-366h232v401q0 76 -5 138q-48 15 -87 19q0 27 8 48q21 0 63 -1t64 -1 q95 0 124 2q6 -18 6 -40v-8q-40 -15 -81 -19q-4 -44 -4 -173v-366h232v401q0 76 -5 138q-48 15 -87 19q0 27 8 48q21 0 63 -1t64 -1q95 0 124 2q6 -18 6 -40v-8q-40 -15 -81 -19q-4 -49 -4 -138v-317q0 -48 4 -83q41 -4 81 -19v-8q0 -22 -6 -40q-29 2 -124 2z"/>
<glyph glyph-name="uni0429" horiz-adv-x="982" unicode="Щ" d="M167 1q-22 0 -64 -1t-63 -1q-8 21 -8 48q39 4 87 19q5 30 5 95v305q0 76 -5 138q-48 15 -87 19q0 27 8 48q21 0 63 -1t64 -1q95 0 124 2q6 -18 6 -40v-8q-40 -15 -81 -19q-4 -44 -4 -173v-366h232v401q0 76 -5 138q-48 15 -87 19q0 27 8 48q21 0 63 -1t64 -1q95 0 124 2 q6 -18 6 -40v-8q-40 -15 -81 -19q-4 -44 -4 -173v-366h201h31v401q0 76 -5 138q-48 15 -87 19q0 27 8 48q21 0 63 -1t64 -1q95 0 124 2q6 -18 6 -40v-8q-40 -15 -81 -19q-4 -44 -4 -173v-366q52 0 116 2l8 -8q0 -7 0.5 -22t0.5 -22q0 -80 -10 -178q-20 -5 -31 -5 q-13 0 -26 5q-3 92 -17 164h-726z"/>
<glyph glyph-name="uni042A" horiz-adv-x="682" unicode="Ъ" d="M419 326q-55 0 -104 -7v-255h95q30 0 57.5 4t41 8.5t17.5 8.5q44 39 44 114q0 54 -44 90.5t-107 36.5zM222 66q5 32 5 103v436h-133q-13 -57 -16 -122q-15 -5 -28 -5q-10 0 -25 5q-10 77 -10 143q0 6 0.5 18.5t0.5 18.5l8 8q62 -2 235 -2h11q110 0 144 2q6 -18 6 -40v-8 q-48 -15 -101 -19q-4 -49 -4 -138v-81q64 13 131 13q97 0 156 -52.5t59 -120.5q0 -58 -23.5 -108t-79 -85t-134.5 -35q-23 0 -73 2t-81 2q-22 0 -64 -1t-63 -1q-8 21 -8 48q39 4 87 19z"/>
<glyph glyph-name="uni042B" horiz-adv-x="858" unicode="Ы" d="M296 326q-49 0 -84 -5v-257h80q26 0 49 4t34.5 8.5t14.5 8.5q37 43 37 114q0 54 -38 90.5t-93 36.5zM643 604q-48 15 -87 19q0 27 8 48q21 0 63 -1t64 -1q95 0 124 2q6 -18 6 -40v-8q-40 -15 -81 -19q-4 -49 -4 -138v-317q0 -48 4 -83q41 -4 81 -19v-8q0 -22 -6 -40 q-29 2 -124 2q-22 0 -64 -1t-63 -1q-8 21 -8 48q39 4 87 19q5 24 5 61v339q0 76 -5 138zM124 169v297q0 76 -5 138q-48 15 -87 19q0 27 8 48q21 0 63 -1t64 -1q110 0 144 2q6 -18 6 -40v-8q-48 -15 -101 -19q-4 -49 -4 -138v-79q55 11 108 11q86 0 142 -53t56 -120 q0 -90 -57.5 -159t-160.5 -69q-20 0 -63 2t-70 2q-22 0 -64 -1t-63 -1q-8 21 -8 48q39 4 87 19q5 32 5 103z"/>
<glyph glyph-name="uni042C" horiz-adv-x="579" unicode="Ь" d="M316 326q-55 0 -104 -7v-255h95q30 0 57.5 4t41 8.5t17.5 8.5q44 39 44 114q0 54 -44 90.5t-107 36.5zM124 169v297q0 76 -5 138q-48 15 -87 19q0 27 8 48q21 0 63 -1t64 -1q110 0 144 2q6 -18 6 -40v-8q-48 -15 -101 -19q-4 -49 -4 -138v-81q64 13 131 13 q97 0 156 -52.5t59 -120.5q0 -58 -23.5 -108t-79 -85t-134.5 -35q-23 0 -73 2t-81 2q-22 0 -64 -1t-63 -1q-8 21 -8 48q39 4 87 19q5 32 5 103z"/>
<glyph glyph-name="uni042D" horiz-adv-x="603" unicode="Э" d="M225 308l-8 8v9q0 33 10 59l235 -7q-14 107 -70.5 171.5t-160.5 64.5q-52 0 -93 -9q-10 -46 -14 -102q-15 -6 -31 -6q-14 0 -21 2q-17 76 -17 137q100 50 207 50q143 0 219.5 -95t76.5 -243q0 -90 -36 -171t-111.5 -136t-175.5 -55q-102 0 -186 31q2 94 11 166q16 6 34 6 q7 0 21 -2q7 -68 21 -119q41 -10 117 -10q31 0 74 10.5t59 23.5q81 79 81 213v10z"/>
<glyph glyph-name="uni042E" horiz-adv-x="962" unicode="Ю" d="M655 54q23 0 54.5 10.5t43.5 23.5q73 80 73 216q0 135 -51 223.5t-154 88.5q-23 0 -54.5 -10.5t-43.5 -23.5q-73 -80 -73 -216q0 -135 51 -223.5t154 -88.5zM119 604q-48 15 -87 19q0 27 8 48q21 0 63 -1t64 -1q95 0 124 2q6 -18 6 -40v-8q-40 -15 -81 -19 q-4 -49 -4 -138v-89h150q16 126 93.5 218.5t190.5 92.5q127 0 199 -96t72 -245q0 -89 -34 -171.5t-101 -138t-152 -55.5q-125 0 -196.5 92.5t-74.5 236.5h-147v-162q0 -48 4 -83q41 -4 81 -19v-8q0 -22 -6 -40q-29 2 -124 2q-22 0 -64 -1t-63 -1q-8 21 -8 48q39 4 87 19 q5 24 5 61v339q0 76 -5 138z"/>
<glyph glyph-name="uni042F" horiz-adv-x="607" unicode="Я" d="M282 608q-56 0 -77 -16q-40 -33 -40 -105q0 -60 42.5 -97.5t103.5 -37.5q46 0 86 4v249q-55 3 -115 3zM290 282l-127 -282h-32q-79 0 -112 -1q-7 14 -7 48q35 12 87 19l118 225q-67 17 -105.5 63.5t-38.5 107.5q0 78 63 144.5t146 66.5q21 0 76.5 -2t81.5 -2q95 0 124 2 q6 -18 6 -40v-8q-40 -15 -81 -19q-4 -49 -4 -138v-317q0 -48 4 -83q41 -4 81 -19v-8q0 -22 -6 -40q-29 2 -124 2q-22 0 -64 -1t-63 -1q-8 21 -8 48q39 4 87 19q5 24 5 61v163q-45 -8 -104 -8h-3z"/>
<glyph glyph-name="uni0430" horiz-adv-x="487" unicode="а" d="M199 62q22 0 53.5 15t55.5 37v118q-57 -6 -105.5 -19t-58.5 -23q-20 -20 -20 -60q0 -30 18.5 -49t56.5 -19zM35 105q0 53 43.5 93.5t100.5 61t129 33.5q-1 63 -18.5 95.5t-65.5 32.5q-44 0 -79 -8q-7 -30 -7 -81q-22 -10 -39 -10q-10 0 -19 3q-24 50 -24 107 q84 51 178 51q26 0 50 -6t50.5 -21.5t42 -49t15.5 -81.5v-188q0 -51 5 -79q23 3 64 16q15 -15 15 -37q-59 -51 -114 -51q-15 0 -28.5 22t-20.5 57q-92 -79 -165 -79q-50 0 -81.5 32t-31.5 87z"/>
<glyph glyph-name="uni0431" horiz-adv-x="523" unicode="б" d="M281 53q51 0 69 18q50 50 50 138q0 71 -36 132.5t-102 61.5q-128 0 -128 -151q0 -42 14.5 -86t49.5 -78.5t83 -34.5zM174 575q-21 -9 -36 -57.5t-20 -117.5q68 70 156 70q104 0 157.5 -64.5t53.5 -169.5q0 -96 -61.5 -173t-160.5 -77q-215 0 -215 326q0 331 200 366 q68 12 98.5 30t30.5 48q0 2 -0.5 5t-0.5 4q14 12 38 12q27 -46 27 -95q0 -28 -31 -46t-70 -24t-89.5 -15.5t-76.5 -21.5z"/>
<glyph glyph-name="uni0432" horiz-adv-x="511" unicode="в" d="M272 411q-25 0 -73 -2v-136h53q50 0 76 19.5t26 49.5q0 32 -21 50.5t-61 18.5zM275 218h-76v-162h63q23 0 44 2.5t32 5.5t13 5q29 20 29 71q0 35 -28 56.5t-77 21.5zM159 1q-19 0 -60 -1t-61 -1q-7 21 -7 45q41 5 80 18q4 23 4 55v236q0 31 -4 55q-42 14 -80 18 q0 30 7 45q21 0 57 -1t50 -1q33 0 88.5 1t72.5 1q59 0 97 -30.5t38 -76.5q0 -70 -85 -103q54 -8 81.5 -38.5t27.5 -69.5q0 -62 -49 -109t-139 -47q-18 0 -55.5 2t-62.5 2z"/>
<glyph glyph-name="uni0433" horiz-adv-x="440" unicode="г" d="M351 414h-152v-274q0 -42 3 -78q55 -5 91 -18q0 -32 -7 -45q-60 2 -127 2q-19 0 -60 -1t-61 -1q-7 21 -7 45q41 5 80 18q4 23 4 55v236q0 31 -4 55q-42 14 -80 18q0 30 7 45q21 0 57 -1t50 -1h82q140 0 190 2l7 -8q0 -6 0.5 -18t0.5 -17q0 -54 -9 -106q-12 -3 -26 -3 t-26 3q-2 48 -13 92z"/>
<glyph glyph-name="uni0434" horiz-adv-x="564" unicode="д" d="M261 408q-23 -226 -85 -350h48h114h26v350h-103zM467 1h-372q-13 -84 -16 -146q-12 -3 -27 -3q-14 0 -27 3q-9 76 -9 171v26l8 8l77 -2q38 64 57.5 145t34.5 204q-48 15 -77 19q0 30 7 45q20 0 59 -1t58 -1h162q56 0 118 2q6 -16 6 -45q-32 -13 -75 -18q-3 -36 -3 -75 v-275q40 0 90 2l8 -8v-26q0 -95 -9 -171q-13 -3 -27 -3q-15 0 -27 3q-3 62 -16 146z"/>
<glyph glyph-name="uni0435" horiz-adv-x="480" unicode="е" d="M174 400q-38 -41 -48 -111h98q72 0 122 4q0 27 -4 47t-14.5 39.5t-32 29.5t-53.5 10q-49 0 -68 -19zM40 228q0 98 62 177t154 79q95 0 136.5 -51.5t41.5 -127.5q0 -40 -5 -62l-8 -8q-82 2 -181 2h-116q3 -45 15.5 -83t43.5 -67t77 -29q66 0 159 36q15 -12 17 -36 q-41 -28 -95 -50t-98 -22q-102 0 -152.5 66.5t-50.5 175.5z"/>
<glyph glyph-name="uni0436" horiz-adv-x="788" unicode="ж" d="M434 333v-65q79 0 88 15q15 25 37 81.5t43.5 86.5t53.5 30q43 0 88 -36q2 -36 -18 -57q-25 4 -53 4q-17 0 -25 -1l-72 -146q57 -110 92 -152q21 -24 37.5 -33.5t40.5 -9.5q16 0 31 3q11 -15 11 -31q0 -5 -1 -8q-13 -8 -51 -16t-67 -8q-44 0 -87.5 63t-74.5 156l-73 -1 v-68q0 -42 3 -78q41 -5 69 -18q0 -32 -6 -45q-50 2 -104 2q-18 0 -56.5 -1t-56.5 -1q-7 21 -7 45q38 5 74 18q4 23 4 55v91l-73 1q-32 -93 -75.5 -156t-86.5 -63q-29 0 -67 8t-51 16q-1 3 -1 8q0 16 11 31q15 -3 31 -3q24 0 40.5 9.5t37.5 33.5q35 42 92 152l-72 146 q-8 1 -25 1q-28 0 -53 -4q-20 21 -18 57q45 36 88 36q32 0 53.5 -30t43.5 -86.5t37 -81.5q9 -15 88 -15v85q0 31 -4 55q-39 14 -74 18q0 30 7 45q18 0 54 -1t53 -1q52 0 110 2q6 -16 6 -45q-29 -13 -69 -18q-3 -36 -3 -75z"/>
<glyph glyph-name="uni0437" horiz-adv-x="446" unicode="з" d="M167 206l-8 8q-2 12 -2 17q0 24 13 45l95 -3q37 24 37 75q0 30 -25 50.5t-66 20.5q-50 0 -89 -8q-7 -29 -7 -79q-22 -10 -39 -10q-10 0 -19 3q-24 50 -24 106q86 50 189 50q80 0 122 -30.5t42 -89.5q0 -63 -55 -104q69 -39 69 -106q0 -70 -57.5 -116t-142.5 -46 q-103 0 -167 31v5q0 47 31 77l8 3q73 -43 139 -43q63 0 80 15q22 20 22 60q0 53 -50 77z"/>
<glyph glyph-name="uni0438" horiz-adv-x="631" unicode="и" d="M38 -1q-7 21 -7 45q41 5 80 18q4 23 4 55v236q0 31 -4 55q-42 14 -80 18q0 30 7 45q20 0 58 -1t57 -1q56 0 118 2q6 -16 6 -45q-32 -13 -75 -18q-3 -36 -3 -75v-160l-11 -83h1l230 378q16 1 52 1q56 0 118 2q6 -16 6 -45q-32 -13 -75 -18q-3 -36 -3 -75v-193q0 -42 3 -78 q46 -5 75 -18q0 -32 -6 -45q-54 2 -112 2q-19 0 -60 -1t-61 -1q-7 21 -7 45q41 5 80 18q4 23 4 55v203l13 83h-1l-243 -401q-13 -1 -43 -1q-19 0 -60 -1t-61 -1z"/>
<glyph glyph-name="uni0439" horiz-adv-x="631" unicode="й" d="M325 598q35 0 51 18q14 18 14 65v9q14 2 25 2q43 0 61 -23q0 -49 -44.5 -86.5t-111.5 -37.5q-62 0 -103.5 35.5t-41.5 89.5q16 23 60 23q13 0 24 -3v-12q0 -34 17.5 -57t48.5 -23zM38 -1q-7 21 -7 45q41 5 80 18q4 23 4 55v236q0 31 -4 55q-42 14 -80 18q0 30 7 45 q20 0 58 -1t57 -1q56 0 118 2q6 -16 6 -45q-32 -13 -75 -18q-3 -36 -3 -75v-160l-11 -83h1l230 378q16 1 52 1q56 0 118 2q6 -16 6 -45q-32 -13 -75 -18q-3 -36 -3 -75v-193q0 -42 3 -78q46 -5 75 -18q0 -32 -6 -45q-54 2 -112 2q-19 0 -60 -1t-61 -1q-7 21 -7 45 q41 5 80 18q4 23 4 55v203l13 83h-1l-243 -401q-13 -1 -43 -1q-19 0 -60 -1t-61 -1z"/>
<glyph glyph-name="uni043A" horiz-adv-x="566" unicode="к" d="M199 333v-65h10q81 0 91 15q15 24 37 80.5t43.5 87t53.5 30.5q43 0 88 -36q2 -36 -18 -57q-25 4 -53 4q-17 0 -25 -1l-72 -146q57 -110 92 -152q21 -24 37.5 -33.5t40.5 -9.5q16 0 31 3q11 -15 11 -31q0 -5 -1 -8q-13 -8 -51 -16t-67 -8q-44 0 -87 63.5t-75 156.5l-86 -2 v-68q0 -42 3 -78q46 -5 75 -18q0 -32 -6 -45q-54 2 -112 2q-19 0 -60 -1t-61 -1q-7 21 -7 45q41 5 80 18q4 23 4 55v236q0 31 -4 55q-42 14 -80 18q0 30 7 45q20 0 58 -1t57 -1q56 0 118 2q6 -16 6 -45q-32 -13 -75 -18q-3 -36 -3 -75z"/>
<glyph glyph-name="uni043B" horiz-adv-x="545" unicode="л" d="M230 469h155q56 0 118 2q6 -16 6 -45q-32 -13 -75 -18q-3 -36 -3 -75v-193q0 -42 3 -78q46 -5 75 -18q0 -32 -6 -45q-54 2 -112 2q-20 0 -64.5 -1t-65.5 -1q-8 20 -8 45q47 5 90 18q4 23 4 55v291h-91q-14 -169 -60.5 -295.5t-87.5 -126.5q-28 0 -57 26t-46 60 q6 32 36 47q35 -22 70 -35q55 109 76 322q-46 15 -79 20q0 30 7 45q20 0 58 -1t57 -1z"/>
<glyph glyph-name="uni043C" horiz-adv-x="737" unicode="м" d="M556 62l-32 282v69h-2l-125 -406q-35 -9 -68 -11l-110 348l-14 69h-1l-39 -352l70 -17q0 -28 -6 -45q-26 2 -100 2q-15 0 -48.5 -1t-51.5 -1q-7 21 -7 45q37 4 80 18l39 346q-37 13 -80 18q0 28 7 45q18 0 54 -1t53 -1q49 0 75 -2l100 -307l10 -70h1l116 377q28 2 83 2 q49 0 111 2q6 -17 6 -45q-36 -14 -75 -18l38 -346q39 -4 75 -18q0 -29 -6 -45q-25 2 -109 2q-21 0 -59.5 -1t-57.5 -1q-7 18 -7 45z"/>
<glyph glyph-name="uni043D" horiz-adv-x="625" unicode="н" d="M511 333v-193q0 -42 3 -78q46 -5 75 -18q0 -32 -6 -45q-54 2 -112 2q-19 0 -60 -1t-61 -1q-7 21 -7 45q41 5 80 18q4 23 4 55v98q-78 3 -153 3h-75v-78q0 -42 3 -78q46 -5 75 -18q0 -32 -6 -45q-54 2 -112 2q-19 0 -60 -1t-61 -1q-7 21 -7 45q41 5 80 18q4 23 4 55v236 q0 31 -4 55q-42 14 -80 18q0 30 7 45q20 0 58 -1t57 -1q56 0 118 2q6 -16 6 -45q-32 -13 -75 -18q-3 -36 -3 -75v-62h228v82q0 31 -4 55q-42 14 -80 18q0 30 7 45q20 0 58 -1t57 -1q56 0 118 2q6 -16 6 -45q-32 -13 -75 -18q-3 -36 -3 -75z"/>
<glyph glyph-name="uni043E" horiz-adv-x="513" unicode="о" d="M269 53q50 0 69 19q50 54 50 143q0 47 -13 90.5t-47 77.5t-84 34t-69 -19q-50 -54 -50 -143q0 -47 13 -90.5t47 -77.5t84 -34zM262 484q104 0 157.5 -66.5t53.5 -174.5q0 -98 -61.5 -177.5t-160.5 -79.5q-103 0 -157 66t-54 175q0 98 61.5 177.5t160.5 79.5z"/>
<glyph glyph-name="uni043F" horiz-adv-x="603" unicode="п" d="M153 469h290q56 0 118 2q6 -16 6 -45q-32 -13 -75 -18q-3 -36 -3 -75v-193q0 -42 3 -78q46 -5 75 -18q0 -32 -6 -45q-54 2 -112 2q-18 0 -58 -1t-59 -1q-7 21 -7 45q38 4 76 18q4 23 4 55v297h-206v-274q0 -42 3 -78q43 -5 71 -18q0 -32 -6 -45q-52 2 -108 2 q-19 0 -60 -1t-61 -1q-7 21 -7 45q41 5 80 18q4 23 4 55v236q0 31 -4 55q-42 14 -80 18q0 30 7 45q20 0 58 -1t57 -1z"/>
<glyph glyph-name="uni0440" horiz-adv-x="560" unicode="р" d="M311 415q-57 0 -125 -43v-254q60 -62 136 -62q18 0 37.5 6.5t25.5 12.5q50 59 50 143q0 81 -33 139t-91 58zM169 474q3 -11 11 -53q67 63 159 63q81 0 131 -65t50 -173q0 -96 -61 -176.5t-148 -80.5q-58 0 -125 46v-149q0 -39 3 -75q66 -3 118 -18q0 -31 -6 -44 q-110 2 -155 2q-20 0 -60 -1t-61 -1q-7 14 -7 44q45 5 80 17q4 29 4 56v524q-36 11 -79 16q-5 17 -5 29q0 7 1 10q72 29 142 36z"/>
<glyph glyph-name="uni0441" horiz-adv-x="454" unicode="с" d="M256 414q-59 0 -81 -19q-50 -52 -50 -140q0 -47 11 -88.5t43.5 -75t81.5 -33.5q61 0 149 34q16 -14 17 -38q-37 -27 -89 -47.5t-94 -20.5q-103 0 -153.5 66.5t-50.5 174.5q0 96 62 175t158 79q94 0 159 -29q0 -72 -21 -130q-17 -5 -27 -5q-17 0 -32 9q-2 48 -8 83 q-28 5 -75 5z"/>
<glyph glyph-name="uni0442" horiz-adv-x="490" unicode="т" d="M204 469h82q127 0 180 2l8 -8v-20q0 -73 -9 -131q-13 -3 -27 -3q-15 0 -27 3q-3 43 -16 102h-108v-274q0 -42 3 -78q55 -5 91 -18q0 -32 -7 -45q-60 2 -127 2q-21 0 -67.5 -1t-68.5 -1q-8 20 -8 45q50 5 96 18q4 23 4 55v297h-108q-13 -59 -16 -102q-12 -3 -27 -3 q-14 0 -27 3q-9 58 -9 131v20l8 8q53 -2 180 -2z"/>
<glyph glyph-name="uni0443" horiz-adv-x="535" unicode="у" d="M221 0l-149 408q-21 12 -55 18q0 26 7 45q12 0 44.5 -1t52.5 -1q41 0 115 2q6 -15 6 -31q0 -9 -1 -14l-77 -18l100 -275l4 -73h1l125 350l-77 16q0 26 7 45q14 0 52 -1t61 -1t77 2q6 -15 6 -33q0 -8 -1 -12q-25 -13 -57 -18l-148 -400q-97 -264 -193 -264q-60 0 -97 26 q0 26 16 44h13q66 0 107.5 38.5t75.5 113.5l15 34h-30z"/>
<glyph glyph-name="uni0444" horiz-adv-x="644" unicode="ф" d="M121 254q0 -84 40.5 -140t121.5 -60v362h-7q-67 0 -91 -20q-27 -23 -45.5 -61t-18.5 -81zM523 216q0 83 -40.5 139.5t-121.5 60.5v-362h7q67 0 91 20q27 23 45.5 61t18.5 81zM40 226q0 92 61 167t182 83v200q-51 12 -92 16q-5 17 -5 29q0 7 1 10q76 27 171 35l8 -8 q-5 -163 -5 -281q91 -3 136 -25q54 -26 80.5 -81.5t26.5 -126.5q0 -42 -14 -83t-41.5 -78t-76 -61t-111.5 -28v-108q0 -39 3 -75q68 -4 119 -18q0 -31 -6 -44q-110 2 -153 2q-24 0 -73 -1t-74 -1q-7 14 -7 44q61 5 109 17q4 29 4 56v127q-92 3 -136 25q-54 26 -80.5 81.5 t-26.5 126.5z"/>
<glyph glyph-name="uni0445" horiz-adv-x="552" unicode="х" d="M195 414l92 -121l88 117l-64 16q0 26 7 45q14 0 51 -1t57 -1q48 0 74 2q6 -15 6 -33q0 -8 -1 -12q-28 -13 -62 -18l-121 -162l142 -186q47 -5 73 -16q1 -4 1 -12q0 -18 -6 -33q-72 2 -104 2q-28 0 -71 -1t-57 -1q-7 19 -7 45l70 14l-102 134l-100 -132l71 -16 q0 -32 -6 -45q-54 2 -102 2q-18 0 -53.5 -1t-50.5 -1q-7 15 -7 45q45 5 79 17l133 178l-128 169q-21 10 -73 18q0 26 7 45q12 0 53 -1t60 -1q70 0 108 2q6 -15 6 -31q0 -9 -1 -14z"/>
<glyph glyph-name="uni0446" horiz-adv-x="599" unicode="ц" d="M399 58v295q0 31 -4 55q-39 14 -73 18q0 30 7 45q18 0 54 -1t54 -1q56 0 118 2q6 -16 6 -45q-32 -13 -75 -18q-3 -36 -3 -75v-275q40 0 90 2l8 -8v-26q0 -95 -9 -171q-14 -3 -27 -3q-15 0 -27 3q-3 62 -16 146h-343q-19 0 -60 -1t-61 -1q-7 21 -7 45q41 5 80 18 q4 23 4 55v236q0 31 -4 55q-42 14 -80 18q0 30 7 45q20 0 58 -1t57 -1q53 0 111 2q6 -16 6 -45q-31 -13 -68 -18q-3 -36 -3 -75v-275h174h26z"/>
<glyph glyph-name="uni0447" horiz-adv-x="561" unicode="ч" d="M447 333v-193q0 -42 3 -78q46 -5 75 -18q0 -32 -6 -45q-54 2 -112 2q-21 0 -67.5 -1t-68.5 -1q-8 20 -8 45q49 5 95 18q5 21 5 55v101q-61 -34 -134 -34q-140 0 -140 141v82q-46 15 -84 19q0 28 7 45q19 0 58.5 -1t62.5 -1q49 0 99 2q6 -17 6 -45q-27 -14 -65 -18v-75 q0 -43 23.5 -65t65.5 -22q46 0 101 26v81q0 31 -4 55q-36 14 -69 18q0 30 7 45q17 0 52 -1t52 -1q56 0 118 2q6 -16 6 -45q-32 -13 -75 -18q-3 -36 -3 -75z"/>
<glyph glyph-name="uni0448" horiz-adv-x="861" unicode="ш" d="M473 333v-275h190v295q0 31 -4 55q-35 14 -69 18q0 30 7 45q18 0 52.5 -1t51.5 -1q56 0 118 2q6 -16 6 -45q-32 -13 -75 -18q-3 -36 -3 -75v-193q0 -42 3 -78q46 -5 75 -18q0 -32 -6 -45q-54 2 -112 2h-548q-19 0 -60 -1t-61 -1q-7 21 -7 45q41 5 80 18q4 23 4 55v236 q0 31 -4 55q-42 14 -80 18q0 30 7 45q20 0 58 -1t57 -1q52 0 106 2q6 -16 6 -45q-26 -13 -63 -18q-3 -36 -3 -75v-275h190v295q0 31 -4 55q-36 14 -68 18q0 30 7 45q17 0 51.5 -1t51.5 -1q52 0 106 2q6 -16 6 -45q-26 -13 -63 -18q-3 -36 -3 -75z"/>
<glyph glyph-name="uni0449" horiz-adv-x="863" unicode="щ" d="M389 58v295q0 31 -4 55q-36 14 -68 18q0 30 7 45q17 0 51.5 -1t51.5 -1q52 0 106 2q6 -16 6 -45q-26 -13 -63 -18q-3 -36 -3 -75v-275h164h26v295q0 31 -4 55q-36 14 -68 18q0 30 7 45q17 0 51.5 -1t51.5 -1q56 0 118 2q6 -16 6 -45q-32 -13 -75 -18q-3 -36 -3 -75v-275 q40 0 90 2l8 -8v-26q0 -95 -9 -171q-15 -3 -29 -3q-15 0 -27 3q-2 53 -17 146h-604q-19 0 -60 -1t-61 -1q-7 21 -7 45q41 5 80 18q4 23 4 55v236q0 31 -4 55q-42 14 -80 18q0 30 7 45q20 0 58 -1t57 -1q52 0 106 2q6 -16 6 -45q-26 -13 -63 -18q-3 -36 -3 -75v-275h190z"/>
<glyph glyph-name="uni044A" horiz-adv-x="575" unicode="ъ" d="M278 56h65q80 0 93 13q30 28 30 78q0 38 -34 62t-85 24q-23 0 -69 -4v-173zM375 297q81 0 131.5 -38.5t50.5 -94.5q0 -69 -54 -118t-148 -49q-18 0 -57.5 2t-64.5 2q-19 0 -57.5 -1t-58.5 -1q-7 21 -7 45q41 5 80 18q4 23 4 55v297h-99q-13 -52 -16 -102q-15 -3 -29 -3 q-13 0 -25 3q-10 63 -10 121q0 5 0.5 14.5t0.5 15.5l8 8q55 -2 208 -2q64 0 134 2q6 -16 6 -45q-38 -13 -91 -18q-3 -36 -3 -75v-46q53 10 97 10z"/>
<glyph glyph-name="uni044B" horiz-adv-x="762" unicode="ы" d="M257 233q-33 0 -58 -4v-173h57q26 0 52.5 4.5t29.5 8.5q27 31 27 78q0 38 -30.5 62t-77.5 24zM648 333v-193q0 -42 3 -78q46 -5 75 -18q0 -32 -6 -45q-54 2 -112 2q-19 0 -60 -1t-61 -1q-7 21 -7 45q41 5 80 18q4 23 4 55v236q0 31 -4 55q-42 14 -80 18q0 30 7 45 q20 0 58 -1t57 -1q56 0 118 2q6 -16 6 -45q-32 -13 -75 -18q-3 -36 -3 -75zM154 1q-19 0 -57.5 -1t-58.5 -1q-7 21 -7 45q41 5 80 18q4 23 4 55v236q0 31 -4 55q-42 14 -80 18q0 30 7 45q20 0 58 -1t57 -1q63 0 133 2q7 -15 7 -45q-40 -13 -91 -18q-3 -36 -3 -75v-45 q49 9 84 9q74 0 123.5 -39t49.5 -94q0 -67 -52.5 -117t-139.5 -50q-16 0 -52 2t-58 2z"/>
<glyph glyph-name="uni044C" horiz-adv-x="496" unicode="ь" d="M268 233q-23 0 -69 -4v-173h65q80 0 93 13q30 28 30 78q0 38 -34 62t-85 24zM154 1q-19 0 -57.5 -1t-58.5 -1q-7 21 -7 45q41 5 80 18q4 23 4 55v236q0 31 -4 55q-42 14 -80 18q0 30 7 45q20 0 58 -1t57 -1q63 0 133 2q7 -15 7 -45q-40 -13 -91 -18q-3 -36 -3 -75v-46 q53 10 97 10q81 0 131.5 -38.5t50.5 -94.5q0 -69 -54 -118t-148 -49q-18 0 -57.5 2t-64.5 2z"/>
<glyph glyph-name="uni044D" horiz-adv-x="464" unicode="э" d="M180 206l-8 8q-2 12 -2 17q0 24 13 45l151 -4q-11 63 -43.5 105t-88.5 42q-36 0 -76 -8q-7 -33 -7 -79q-20 -10 -38 -10q-9 0 -20 3q-22 45 -24 106q84 50 183 50q103 0 153.5 -66.5t50.5 -174.5q0 -96 -63.5 -173.5t-163.5 -77.5q-101 0 -160 31v8q0 45 31 74l8 3 q30 -20 69 -31.5t66 -11.5q62 0 79 16q49 47 49 137z"/>
<glyph glyph-name="uni044E" horiz-adv-x="780" unicode="ю" d="M544 53q47 0 64 19q47 52 47 143q0 47 -12 90.5t-43.5 77.5t-78.5 34t-64 -19q-47 -52 -47 -143q0 -47 12 -90.5t43.5 -77.5t78.5 -34zM538 484q100 0 151 -66.5t51 -174.5q0 -98 -59 -177.5t-154 -79.5q-97 0 -148.5 63t-53.5 168h-126v-77q0 -42 3 -78q46 -5 75 -18 q0 -32 -6 -45q-54 2 -112 2q-19 0 -60 -1t-61 -1q-7 21 -7 45q41 5 80 18q4 23 4 55v236q0 31 -4 55q-42 14 -80 18q0 30 7 45q20 0 58 -1t57 -1q56 0 118 2q6 -16 6 -45q-32 -13 -75 -18q-3 -36 -3 -75v-60h129q14 87 70 149t140 62z"/>
<glyph glyph-name="uni044F" horiz-adv-x="529" unicode="я" d="M247 411q-48 0 -59 -8q-26 -23 -26 -63t31.5 -64t72.5 -24q45 0 65 2v155q-56 2 -84 2zM254 194q-72 -202 -149 -202q-57 0 -94 26q-2 28 16 44h19q81 0 136 117l10 21q-54 11 -86 44.5t-32 82.5q0 48 46.5 96t109.5 48q19 0 66 -1t73 -1q56 0 118 2q6 -16 6 -45 q-32 -13 -75 -18q-3 -36 -3 -75v-193q0 -42 3 -78q46 -5 75 -18q0 -32 -6 -45q-54 2 -112 2q-19 0 -60 -1t-61 -1q-7 21 -7 45q41 5 80 18q4 23 4 55v82q-30 -5 -77 -5z"/>
<glyph glyph-name="uni0450" horiz-adv-x="480" unicode="ѐ" d="M276 526l-165 170l5 19q37 19 83 21l117 -184q-12 -21 -40 -26zM174 400q-38 -41 -48 -111h98q72 0 122 4q0 27 -4 47t-14.5 39.5t-32 29.5t-53.5 10q-49 0 -68 -19zM40 228q0 98 62 177t154 79q95 0 136.5 -51.5t41.5 -127.5q0 -40 -5 -62l-8 -8q-82 2 -181 2h-116 q3 -45 15.5 -83t43.5 -67t77 -29q66 0 159 36q15 -12 17 -36q-41 -28 -95 -50t-98 -22q-102 0 -152.5 66.5t-50.5 175.5z"/>
<glyph glyph-name="uni0451" horiz-adv-x="480" unicode="ё" d="M337 554q-18 0 -34 13.5t-16 31.5q0 24 17.5 45.5t41.5 21.5q20 0 35 -13.5t15 -33.5q0 -25 -17 -44.5t-42 -20.5zM156 554q-19 0 -34.5 13.5t-15.5 31.5q0 25 17 46t42 21q19 0 34.5 -13.5t15.5 -33.5q0 -25 -17.5 -44.5t-41.5 -20.5zM174 400q-38 -41 -48 -111h98 q72 0 122 4q0 27 -4 47t-14.5 39.5t-32 29.5t-53.5 10q-49 0 -68 -19zM40 228q0 98 62 177t154 79q95 0 136.5 -51.5t41.5 -127.5q0 -40 -5 -62l-8 -8q-82 2 -181 2h-116q3 -45 15.5 -83t43.5 -67t77 -29q66 0 159 36q15 -12 17 -36q-41 -28 -95 -50t-98 -22 q-102 0 -152.5 66.5t-50.5 175.5z"/>
<glyph glyph-name="uni0452" horiz-adv-x="552" unicode="ђ" d="M188 470v-70q75 64 142 64q75 0 124.5 -59t49.5 -180q0 -123 -32 -217t-82.5 -153t-128.5 -112q-18 10 -22 32q89 81 134.5 181.5t45.5 236.5q0 95 -32.5 148.5t-86.5 53.5q-53 0 -112 -44v-214q0 -39 3 -75q46 -5 75 -18q0 -32 -6 -45q-54 2 -112 2q-21 0 -61.5 -1 t-59.5 -1q-7 14 -7 45q45 5 80 17q4 29 4 56v417h-78q-3 13 -3 29q0 13 3 27h78v86q-45 12 -79 16q-5 17 -5 29q0 7 1 10q71 27 163 35l8 -8q-2 -65 -4 -168h147q3 -15 3 -28t-3 -28h-147v-64z"/>
<glyph glyph-name="uni0453" horiz-adv-x="440" unicode="ѓ" d="M175 550l110 167q44 12 99 12l8 -23l-179 -184q-25 6 -38 28zM351 414h-152v-274q0 -42 3 -78q55 -5 91 -18q0 -32 -7 -45q-60 2 -127 2q-19 0 -60 -1t-61 -1q-7 21 -7 45q41 5 80 18q4 23 4 55v236q0 31 -4 55q-42 14 -80 18q0 30 7 45q21 0 57 -1t50 -1h82q140 0 190 2 l7 -8q0 -6 0.5 -18t0.5 -17q0 -54 -9 -106q-12 -3 -26 -3t-26 3q-2 48 -13 92z"/>
<glyph glyph-name="uni0454" horiz-adv-x="454" unicode="є" d="M256 414q-59 0 -81 -19q-49 -50 -50 -134l169 11l8 -8q2 -12 2 -17q0 -24 -13 -45l-163 3q10 -62 42 -104.5t91 -42.5q61 0 149 34q16 -14 17 -38q-37 -27 -89 -47.5t-94 -20.5q-103 0 -153.5 66.5t-50.5 174.5q0 96 62 175t158 79q94 0 159 -29q0 -72 -21 -130 q-17 -5 -27 -5q-17 0 -32 9q-2 48 -8 83q-28 5 -75 5z"/>
<glyph glyph-name="uni0455" horiz-adv-x="424" unicode="ѕ" d="M198 -11q-96 0 -155 27q0 72 18 146q10 5 23 5q14 0 24 -5q1 -42 10 -100q28 -14 91 -14q49 0 68.5 15.5t19.5 58.5q0 42 -52 70q-17 9 -47.5 20.5t-52 21t-44 24t-34.5 37.5t-12 53q0 69 51.5 101t122.5 32q81 0 143 -19q0 -64 -18 -123q-12 -3 -23 -3q-13 0 -28 5 q-3 34 -13 77q-32 10 -64 10q-55 0 -71 -14t-16 -45q0 -28 25 -47t61 -32t72 -29t61 -46.5t25 -75.5q0 -70 -52.5 -110t-132.5 -40z"/>
<glyph glyph-name="uni0456" horiz-adv-x="305" unicode="і" d="M145 561q-21 0 -40.5 16t-19.5 38q0 28 20.5 53t48.5 25q23 0 41.5 -16t18.5 -39q0 -28 -20.5 -52.5t-48.5 -24.5zM199 187v-50q0 -39 3 -75q46 -5 75 -18q0 -32 -6 -45q-54 2 -112 2q-21 0 -61.5 -1t-59.5 -1q-7 14 -7 45q41 4 80 18q4 25 4 55v276q-45 12 -79 16 q-5 17 -5 29q0 7 1 10q71 27 163 35l8 -8q-4 -133 -4 -288z"/>
<glyph glyph-name="uni0457" horiz-adv-x="305" unicode="ї" d="M222 554q-18 0 -34 13.5t-16 31.5q0 24 17.5 45.5t41.5 21.5q20 0 35 -13.5t15 -33.5q0 -25 -17 -44.5t-42 -20.5zM67 554q-19 0 -34.5 13.5t-15.5 31.5q0 25 17 46t42 21q19 0 34.5 -13.5t15.5 -33.5q0 -25 -17.5 -44.5t-41.5 -20.5zM199 187v-50q0 -39 3 -75 q46 -5 75 -18q0 -32 -6 -45q-54 2 -112 2q-21 0 -61.5 -1t-59.5 -1q-7 14 -7 45q41 4 80 18q4 25 4 55v276q-45 12 -79 16q-5 17 -5 29q0 7 1 10q71 27 163 35l8 -8q-4 -133 -4 -288z"/>
<glyph glyph-name="uni0458" horiz-adv-x="273" unicode="ј" d="M133 561q-21 0 -40.5 16t-19.5 38q0 28 20.5 53t48.5 25q23 0 41.5 -16t18.5 -39q0 -28 -20.5 -52.5t-48.5 -24.5zM187 187v-174q0 -220 -168 -270q-21 11 -21 32q105 80 105 252v366q-45 12 -79 16q-5 17 -5 29q0 7 1 10q71 27 163 35l8 -8q-4 -133 -4 -288z"/>
<glyph glyph-name="uni0459" horiz-adv-x="701" unicode="љ" d="M484 233q-33 0 -58 -4v-173h57q30 0 54.5 4.5t27.5 8.5q27 31 27 78q0 38 -30.5 62t-77.5 24zM41 119q35 -22 70 -35q55 109 76 322q-46 15 -79 20q0 30 7 45q20 0 58 -1t57 -1h150q63 0 133 2q7 -15 7 -45q-40 -13 -91 -18q-3 -36 -3 -75v-45q49 9 84 9q74 0 123.5 -39 t49.5 -94q0 -67 -52.5 -117t-139.5 -50q-17 0 -52 2t-58 2q-19 0 -57.5 -1t-58.5 -1q-7 21 -7 45q41 5 80 18q4 23 4 55v291h-86q-14 -169 -60.5 -295.5t-87.5 -126.5q-28 0 -57 26t-46 60q6 32 36 47z"/>
<glyph glyph-name="uni045A" horiz-adv-x="781" unicode="њ" d="M564 233q-33 0 -58 -4v-173h57q30 0 54.5 4.5t27.5 8.5q27 31 27 78q0 38 -30.5 62t-77.5 24zM199 333v-62h223v82q0 31 -4 55q-42 14 -80 18q0 30 7 45q20 0 58 -1t57 -1q63 0 133 2q7 -15 7 -45q-40 -13 -91 -18q-3 -36 -3 -75v-45q49 9 84 9q74 0 123.5 -39t49.5 -94 q0 -67 -52.5 -117t-139.5 -50q-17 0 -52.5 2t-57.5 2q-19 0 -57.5 -1t-58.5 -1q-7 21 -7 45q41 5 80 18q4 23 4 55v98q-78 3 -153 3h-70v-78q0 -42 3 -78q46 -5 75 -18q0 -32 -6 -45q-54 2 -112 2q-19 0 -60 -1t-61 -1q-7 21 -7 45q41 5 80 18q4 23 4 55v236q0 31 -4 55 q-42 14 -80 18q0 30 7 45q20 0 58 -1t57 -1q56 0 118 2q6 -16 6 -45q-32 -13 -75 -18q-3 -36 -3 -75z"/>
<glyph glyph-name="uni045B" horiz-adv-x="583" unicode="ћ" d="M405 117v156q0 61 -18 91.5t-73 30.5q-65 0 -126 -29v-229q0 -39 3 -75q46 -5 75 -18q0 -32 -6 -45q-54 2 -112 2q-21 0 -61.5 -1t-59.5 -1q-7 14 -7 45q45 5 80 17q4 29 4 56v417h-78q-3 13 -3 29q0 13 3 27h78v86q-45 12 -79 16q-5 17 -5 29q0 7 1 10q71 27 163 35 l8 -8q-2 -65 -4 -168h147q3 -15 3 -28t-3 -28h-147v-64v-58q76 52 163 52q138 0 138 -151v-176q0 -39 3 -75q45 -5 76 -18q0 -32 -7 -45q-54 2 -112 2q-21 0 -61.5 -1t-59.5 -1q-7 14 -7 45q44 5 81 17q3 33 3 56z"/>
<glyph glyph-name="uni045C" horiz-adv-x="566" unicode="ќ" d="M232 550l110 167q44 12 99 12l8 -23l-179 -184q-25 6 -38 28zM199 333v-65h10q81 0 91 15q15 24 37 80.5t43.5 87t53.5 30.5q43 0 88 -36q2 -36 -18 -57q-25 4 -53 4q-17 0 -25 -1l-72 -146q57 -110 92 -152q21 -24 37.5 -33.5t40.5 -9.5q16 0 31 3q11 -15 11 -31 q0 -5 -1 -8q-13 -8 -51 -16t-67 -8q-44 0 -87 63.5t-75 156.5l-86 -2v-68q0 -42 3 -78q46 -5 75 -18q0 -32 -6 -45q-54 2 -112 2q-19 0 -60 -1t-61 -1q-7 21 -7 45q41 5 80 18q4 23 4 55v236q0 31 -4 55q-42 14 -80 18q0 30 7 45q20 0 58 -1t57 -1q56 0 118 2q6 -16 6 -45 q-32 -13 -75 -18q-3 -36 -3 -75z"/>
<glyph glyph-name="uni045D" horiz-adv-x="631" unicode="ѝ" d="M346 526l-165 170l5 19q37 19 83 21l117 -184q-12 -21 -40 -26zM38 -1q-7 21 -7 45q41 5 80 18q4 23 4 55v236q0 31 -4 55q-42 14 -80 18q0 30 7 45q20 0 58 -1t57 -1q56 0 118 2q6 -16 6 -45q-32 -13 -75 -18q-3 -36 -3 -75v-160l-11 -83h1l230 378q16 1 52 1 q56 0 118 2q6 -16 6 -45q-32 -13 -75 -18q-3 -36 -3 -75v-193q0 -42 3 -78q46 -5 75 -18q0 -32 -6 -45q-54 2 -112 2q-19 0 -60 -1t-61 -1q-7 21 -7 45q41 5 80 18q4 23 4 55v203l13 83h-1l-243 -401q-13 -1 -43 -1q-19 0 -60 -1t-61 -1z"/>
<glyph glyph-name="uni045E" horiz-adv-x="535" unicode="ў" d="M274 598q35 0 51 18q14 18 14 65v9q14 2 25 2q43 0 61 -23q0 -49 -44.5 -86.5t-111.5 -37.5q-62 0 -103.5 35.5t-41.5 89.5q16 23 60 23q14 0 24 -3v-12q0 -34 17.5 -57t48.5 -23zM221 0l-149 408q-21 12 -55 18q0 26 7 45q12 0 44.5 -1t52.5 -1q41 0 115 2q6 -15 6 -31 q0 -9 -1 -14l-77 -18l100 -275l4 -73h1l125 350l-77 16q0 26 7 45q14 0 52 -1t61 -1t77 2q6 -15 6 -33q0 -8 -1 -12q-25 -13 -57 -18l-148 -400q-97 -264 -193 -264q-60 0 -97 26q0 26 16 44h13q66 0 107.5 38.5t75.5 113.5l15 34h-30z"/>
<glyph glyph-name="uni045F" horiz-adv-x="597" unicode="џ" d="M252 1h-93q-19 0 -60 -1t-61 -1q-7 21 -7 45q41 5 80 18q4 23 4 55v236q0 31 -4 55q-42 14 -80 18q0 30 7 45q20 0 58 -1t57 -1q53 0 111 2q6 -16 6 -45q-31 -13 -68 -18q-3 -36 -3 -75v-275h200v295q0 31 -4 55q-39 14 -73 18q0 30 7 45q18 0 54 -1t54 -1q56 0 118 2 q6 -16 6 -45q-32 -13 -75 -18q-3 -36 -3 -75v-193q0 -42 3 -78q46 -5 75 -18q0 -32 -6 -45q-54 2 -112 2h-97q-12 -76 -17 -157q-15 -3 -30 -3t-30 3q-5 81 -17 157z"/>
</font>
</defs>
</svg>
