<?xml version="1.0" encoding="UTF-8"?>
<svg xmlns="http://www.w3.org/2000/svg" xmlns:xlink="http://www.w3.org/1999/xlink" version="1.2" >
<font id="abcAllegra Bold Italic">
<font-face  font-family="abcAllegra" units-per-em="1000" ascent="729" descent="-271" font-style="italic" font-weight="400" font-stretch="normal" slope="-9" cap-height="660" x-height="446" underline-position="-75" underline-thickness="50" />
<missing-glyph  horiz-adv-x="692" d="M364 30 C449 30 521 60 580 120 C639 179 669 251 669 335 C669 419 639 491 580 551 C521 610 449 640 364 640 C280 640 208 610 149 551 C90 491 60 419 60 335 C60 251 90 179 149 120 C208 60 280 30 364 30 L364 30 Z M274 269 C274 302 278 326 287 339 C295 352 313 366 341 380 C388 404 400 411 400 428 C400 445 383 453 350 453 C333 453 308 451 274 446 L258 542 C300 549 335 553 364 553 C467 553 519 512 519 431 C515 364 490 347 446 326 C399 303 392 298 392 269 L274 269 L274 269 Z M331 108 C292 108 262 137 262 177 C262 217 292 247 331 247 C371 247 400 217 400 177 C400 137 371 108 331 108 L331 108 Z " />
<glyph glyph-name="space" unicode="&#x20;" horiz-adv-x="172" d="" />
<glyph glyph-name="exclam" unicode="&#x21;" horiz-adv-x="379" d="M124 202 L250 202 L321 650 L194 650 L124 202 Z M248 76 C249 117 219 148 178 148 C130 148 89 109 88 60 C87 20 116 -11 156 -11 C205 -11 247 28 248 76 L248 76 Z " />
<glyph glyph-name="quotedbl" unicode="&#x22;" horiz-adv-x="393" d="M98 412 L185 412 L224 660 L137 660 L98 412 Z M272 412 L359 412 L399 660 L312 660 L272 412 Z " />
<glyph glyph-name="numbersign" unicode="&#x23;" horiz-adv-x="671" d="M654 463 L547 463 L614 660 L526 660 L459 463 L343 463 L410 660 L322 660 L255 463 L149 463 L123 382 L228 382 L191 274 L86 274 L61 194 L164 194 L98 0 L185 0 L251 194 L367 194 L301 0 L390 0 L456 194 L563 194 L589 274 L483 274 L520 382 L627 382 L654 463 Z M315 382 L431 382 L394 274 L279 274 L315 382 Z " />
<glyph glyph-name="dollar" unicode="&#x24;" horiz-adv-x="427" d="M254 456 C298 456 381 435 383 433 L407 529 L301 549 L312 621 L230 621 L219 551 C128 542 71 484 71 401 C68 371 84 342 96 324 C102 312 126 290 134 283 C139 278 180 243 185 239 C252 180 271 169 271 139 C271 111 244 89 189 89 C154 89 110 97 57 112 L34 18 C70 7 107 0 145 -5 L135 -75 L217 -75 L227 -8 C330 1 380 58 380 141 C380 172 372 198 355 221 C344 236 314 264 266 305 C261 309 255 314 247 321 C217 346 199 364 192 373 C185 382 181 393 181 408 C181 437 211 456 254 456 L254 456 Z " />
<glyph glyph-name="percent" unicode="&#x25;" horiz-adv-x="883" d="M256 670 C199 670 154 651 121 612 C88 573 71 522 71 460 C71 364 118 314 205 314 C259 314 304 334 339 374 C374 413 391 465 391 528 C391 623 346 670 256 670 L256 670 Z M692 660 L89 0 L192 0 L798 660 L692 660 Z M211 389 C173 389 154 413 154 462 C154 543 190 594 246 594 C287 594 304 574 304 522 C304 439 268 389 211 389 L211 389 Z M713 350 C656 350 611 331 578 292 C545 253 528 202 528 140 C528 44 575 -6 662 -6 C716 -6 761 14 796 54 C831 93 848 145 848 208 C848 303 803 350 713 350 L713 350 Z M668 69 C630 69 611 93 611 142 C611 223 647 274 703 274 C744 274 761 254 761 202 C761 119 725 69 668 69 L668 69 Z " />
<glyph glyph-name="ampersand" unicode="&#x26;" horiz-adv-x="790" d="M519 403 C530 455 535 496 535 527 C535 616 475 668 375 668 C276 668 198 625 140 540 C82 455 53 345 53 211 C53 58 127 -12 280 -12 C377 -12 455 18 512 79 C569 140 604 217 617 312 L789 312 L802 403 L519 403 Z M357 573 C405 573 429 552 429 509 C429 482 424 447 413 403 L193 403 C225 507 281 573 357 573 L357 573 Z M290 83 C203 83 166 120 166 211 C166 240 168 273 173 312 L507 312 C482 161 394 83 290 83 L290 83 Z " />
<glyph glyph-name="quotesingle" unicode="&#x27;" horiz-adv-x="226" d="M98 412 L185 412 L224 660 L137 660 L98 412 Z " />
<glyph glyph-name="parenleft" unicode="&#x28;" horiz-adv-x="333" d="M381 735 L271 735 C221 672 176 586 135 476 C94 366 74 251 74 132 C74 1 89 -120 118 -229 L226 -229 C213 -188 202 -135 192 -68 C182 -1 177 65 177 131 C177 248 198 362 240 473 C282 584 329 671 381 735 L381 735 Z " />
<glyph glyph-name="parenright" unicode="&#x29;" horiz-adv-x="333" d="M-38 -229 L72 -229 C122 -167 167 -81 208 30 C249 140 269 255 269 374 C269 505 254 626 225 735 L117 735 C130 694 141 641 151 574 C161 507 166 441 166 375 C166 258 145 144 103 33 C61 -78 14 -165 -38 -229 L-38 -229 Z " />
<glyph glyph-name="asterisk" unicode="&#x2a;" horiz-adv-x="430" d="M307 454 C328 459 340 462 343 463 L435 491 L420 567 L329 539 L293 526 C295 535 297 547 300 563 L311 655 L232 655 L220 564 L217 527 C214 528 204 533 185 540 L100 569 L66 493 L150 465 C157 462 168 459 184 455 C171 442 163 433 158 427 L94 352 L153 305 L216 379 C227 392 235 403 240 410 C245 399 250 389 255 379 L300 304 L371 351 L326 425 C321 434 314 443 307 454 L307 454 Z " />
<glyph glyph-name="plus" unicode="&#x2b;" horiz-adv-x="553" d="M331 284 L335 472 L239 472 L235 284 L46 284 L44 192 L233 192 L230 0 L327 0 L329 192 L515 192 L516 284 L331 284 Z " />
<glyph glyph-name="comma" unicode="&#x2c;" horiz-adv-x="276" d="M59 0 L2 -113 L78 -113 L149 -23 C150 -22 153 -19 158 -12 C168 1 171 5 180 20 C191 40 198 58 196 80 C191 124 158 148 109 148 C90 148 71 144 51 136 L59 0 Z " />
<glyph glyph-name="hyphen" unicode="&#x2d;" horiz-adv-x="362" d="M59 189 L293 189 L307 280 L73 280 L59 189 Z " />
<glyph glyph-name="period" unicode="&#x2e;" horiz-adv-x="269" d="M190 76 C191 117 161 148 120 148 C72 148 31 109 30 60 C29 20 58 -11 98 -11 C147 -11 189 28 190 76 L190 76 Z " />
<glyph glyph-name="slash" unicode="&#x2f;" horiz-adv-x="434" d="M-37 -229 L62 -229 L493 735 L389 735 L-37 -229 Z " />
<glyph glyph-name="zero" unicode="0" horiz-adv-x="542" d="M289 456 C136 456 42 360 42 204 C42 65 116 -9 253 -9 C409 -9 500 83 500 242 C500 381 426 456 289 456 L289 456 Z M255 86 C190 86 160 122 160 202 C160 305 204 359 284 359 C351 359 379 323 379 239 C379 137 338 86 255 86 L255 86 Z " />
<glyph glyph-name="one" unicode="1" horiz-adv-x="359" d="M32 408 L49 314 L178 339 L124 0 L242 0 L312 446 L219 446 L32 408 Z " />
<glyph glyph-name="two" unicode="2" horiz-adv-x="421" d="M286 172 C350 225 376 269 376 329 C376 410 321 458 225 458 C173 458 119 448 64 428 L88 336 C136 352 173 360 200 360 C243 360 265 343 265 308 C265 280 250 260 199 216 L34 75 L21 0 L349 0 L363 92 L191 92 L286 172 L286 172 Z " />
<glyph glyph-name="three" unicode="3" horiz-adv-x="421" d="M241 151 C320 158 371 219 371 298 C371 395 302 458 197 458 C154 458 108 450 59 435 L79 340 C114 351 147 357 177 357 C233 357 261 331 261 279 C261 224 218 197 131 197 L89 197 L73 99 L123 99 C202 99 233 77 233 25 C233 -27 191 -62 119 -62 C96 -62 60 -57 9 -46 L-10 -141 C41 -154 89 -161 133 -161 C198 -161 249 -144 288 -111 C327 -77 346 -33 346 20 C346 93 305 144 241 151 L241 151 Z " />
<glyph glyph-name="four" unicode="4" horiz-adv-x="540" d="M403 95 L460 446 L314 446 L1 84 L-11 0 L276 0 L250 -155 L362 -155 L388 0 L492 0 L508 95 L403 95 Z M332 331 L292 95 L131 95 L332 331 Z " />
<glyph glyph-name="five" unicode="5" horiz-adv-x="420" d="M401 446 L91 446 L36 94 C52 94 90 95 109 95 C206 95 242 78 242 27 C242 -30 202 -58 121 -58 C86 -58 50 -53 11 -43 L-9 -143 C32 -155 78 -161 128 -161 C276 -161 358 -86 358 41 C358 98 342 136 309 155 C276 174 225 184 156 185 L182 347 L385 347 L401 446 Z " />
<glyph glyph-name="six" unicode="6" horiz-adv-x="493" d="M392 507 C413 507 435 505 460 501 L472 601 C449 605 424 607 395 607 C291 607 207 572 143 502 C79 432 47 340 47 226 C47 69 111 -10 239 -10 C304 -10 355 10 394 49 C432 88 451 138 451 201 C451 306 391 364 292 364 C256 364 217 356 175 340 C204 445 279 507 392 507 L392 507 Z M259 273 C314 273 341 247 341 195 C341 132 301 88 244 88 C188 88 160 133 160 224 C160 235 160 244 161 249 C197 265 230 273 259 273 L259 273 Z " />
<glyph glyph-name="seven" unicode="7" horiz-adv-x="447" d="M42 347 L293 347 L-14 -155 L117 -155 L446 387 L456 446 L58 446 L42 347 Z " />
<glyph glyph-name="eight" unicode="8" horiz-adv-x="529" d="M350 309 C405 344 442 372 460 395 C478 418 487 446 487 479 C487 563 416 618 305 618 C174 618 97 559 97 459 C97 404 126 369 193 318 C134 281 95 249 74 223 C53 197 43 167 43 132 C43 44 118 -11 237 -11 C384 -11 466 53 466 154 C466 182 458 206 441 227 C424 248 394 275 350 309 L350 309 Z M297 530 C348 530 379 508 379 473 C379 437 355 413 274 365 C228 400 205 431 205 460 C205 504 240 530 297 530 L297 530 Z M249 79 C189 79 157 103 157 143 C157 164 165 183 181 199 C196 214 226 235 269 261 C329 214 353 191 353 158 C353 113 318 79 249 79 L249 79 Z " />
<glyph glyph-name="nine" unicode="9" horiz-adv-x="498" d="M254 459 C191 459 140 440 102 403 C64 365 45 316 45 255 C45 147 108 84 209 84 C244 84 283 91 324 105 C293 -4 220 -59 103 -59 C78 -59 54 -57 32 -53 L20 -153 C47 -157 73 -159 99 -159 C203 -159 287 -124 352 -55 C417 15 449 107 449 220 C449 388 374 459 254 459 L254 459 Z M243 175 C183 175 154 208 154 261 C154 321 190 361 249 361 C310 361 340 315 340 223 C340 216 339 204 339 197 C304 182 272 175 243 175 L243 175 Z " />
<glyph glyph-name="colon" unicode="&#x3a;" horiz-adv-x="296" d="M253 387 C254 428 224 459 183 459 C135 459 94 419 93 370 C90 330 120 299 161 299 C209 299 252 339 253 387 L253 387 Z M204 76 C205 117 175 148 134 148 C86 148 45 109 44 60 C41 20 71 -11 112 -11 C160 -11 203 28 204 76 L204 76 Z " />
<glyph glyph-name="semicolon" unicode="&#x3b;" horiz-adv-x="311" d="M255 386 C256 427 226 458 185 458 C137 458 96 418 95 369 C94 329 123 298 163 298 C212 298 254 338 255 386 L255 386 Z M81 -1 L23 -114 L100 -114 L171 -24 C172 -23 175 -20 180 -13 C190 0 192 4 201 19 C213 38 220 58 218 80 C213 124 179 147 131 147 C110 147 91 143 72 135 L81 -1 Z " />
<glyph glyph-name="less" unicode="&#x3c;" horiz-adv-x="629" d="M66 274 L64 177 L542 -24 L545 82 L197 223 L550 362 L551 468 L66 274 Z " />
<glyph glyph-name="equal" unicode="&#x3d;" horiz-adv-x="554" d="M49 360 L47 268 L511 268 L513 360 L49 360 Z M44 106 L508 106 L510 196 L46 196 L44 106 Z " />
<glyph glyph-name="greater" unicode="&#x3e;" horiz-adv-x="614" d="M82 363 L427 223 L77 82 L75 -24 L557 176 L559 273 L84 468 L82 363 Z " />
<glyph glyph-name="question" unicode="&#x3f;" horiz-adv-x="483" d="M163 540 C201 547 229 550 246 550 C305 550 335 529 335 486 C335 471 331 458 323 446 C307 421 295 413 248 382 C235 373 219 362 200 350 C181 337 168 329 163 326 C142 310 121 289 121 255 L114 202 L240 202 L244 233 C245 248 249 256 262 268 C268 273 274 278 279 281 C290 288 325 310 346 325 C388 354 418 382 437 408 C455 433 464 466 464 507 C464 544 454 575 434 599 C394 646 340 659 275 659 C226 659 185 654 152 645 L163 540 Z M240 76 C241 117 211 148 170 148 C122 148 81 109 80 60 C79 20 108 -11 148 -11 C197 -11 239 28 240 76 L240 76 Z " />
<glyph glyph-name="at" unicode="&#x40;" horiz-adv-x="698" d="M407 538 C337 538 273 521 216 486 C101 417 40 304 40 192 C40 114 66 49 117 -4 C168 -56 232 -82 309 -82 C360 -82 408 -72 452 -53 L430 7 C394 -10 356 -18 317 -18 C260 -18 211 2 170 42 C128 81 107 132 107 193 C107 256 136 323 184 379 C231 434 311 473 399 473 C519 473 595 400 595 289 C595 247 585 209 566 176 C546 142 520 125 489 125 C464 125 452 138 452 165 C452 176 454 187 458 200 L503 380 C477 386 452 389 427 389 C342 389 276 357 243 310 C210 263 195 217 195 174 C195 145 202 120 217 97 C231 74 257 63 294 63 C334 63 369 80 398 114 C407 83 438 63 477 63 C530 63 574 85 611 129 C647 173 665 227 665 291 C665 361 642 420 596 467 C550 514 487 538 407 538 L407 538 Z M393 211 C389 195 386 181 385 170 C362 141 337 127 311 127 C280 127 266 141 266 181 C266 261 317 327 413 327 L424 327 L393 211 L393 211 Z " />
<glyph glyph-name="A" unicode="A" horiz-adv-x="622" d="M583 0 L463 660 L308 660 L-31 0 L106 0 L176 144 L432 144 L455 0 L583 0 Z M369 541 L415 248 L227 248 L369 541 Z " />
<glyph glyph-name="B" unicode="B" horiz-adv-x="561" d="M368 335 C468 348 527 416 527 519 C527 613 468 660 349 660 C264 660 199 659 154 658 L50 3 C112 -2 180 -3 255 -2 C414 -2 503 66 503 189 C503 276 458 324 368 335 L368 335 Z M321 559 C377 559 401 539 401 494 C401 427 363 387 299 387 L226 387 L253 558 C269 559 292 559 321 559 L321 559 Z M262 96 C246 95 219 96 180 99 L210 285 L279 285 C347 285 376 260 376 203 C376 135 338 99 262 96 L262 96 Z " />
<glyph glyph-name="C" unicode="C" horiz-adv-x="572" d="M447 673 C324 673 228 635 161 560 C94 485 60 390 60 275 C60 84 160 -11 360 -11 C415 -11 469 -6 522 5 L512 115 C468 108 424 104 379 104 C238 104 187 166 187 275 C187 358 209 426 253 480 C296 533 362 560 450 560 C493 560 541 554 595 543 L617 653 C553 666 496 673 447 673 L447 673 Z " />
<glyph glyph-name="D" unicode="D" horiz-adv-x="694" d="M368 660 C352 660 281 659 154 658 L50 1 C72 1 111 1 168 -1 C224 -2 260 -2 277 -2 C526 -2 668 141 668 386 C668 569 568 660 368 660 L368 660 Z M347 553 C486 553 542 493 542 373 C542 186 445 105 294 105 C275 105 240 106 191 107 L261 551 C292 552 320 553 347 553 L347 553 Z " />
<glyph glyph-name="E" unicode="E" horiz-adv-x="523" d="M528 660 L154 660 L50 0 L438 0 L455 109 L189 109 L217 281 L453 281 L470 390 L234 390 L260 551 L510 551 L528 660 Z " />
<glyph glyph-name="F" unicode="F" horiz-adv-x="503" d="M522 660 L154 660 L50 0 L174 0 L214 257 L443 257 L459 366 L231 366 L260 551 L504 551 L522 660 Z " />
<glyph glyph-name="G" unicode="G" horiz-adv-x="675" d="M450 680 C199 680 62 534 62 283 C62 172 87 93 136 47 C185 1 257 -22 352 -22 C413 -22 485 -14 570 1 L619 312 L501 312 L466 97 C433 90 402 87 372 87 C303 87 254 102 227 132 C200 162 186 213 186 284 C186 475 273 570 447 570 C496 570 555 562 624 547 L648 656 C583 672 517 680 450 680 L450 680 Z " />
<glyph glyph-name="H" unicode="H" horiz-adv-x="717" d="M535 389 L232 389 L275 660 L154 660 L50 0 L171 0 L215 278 L518 278 L474 0 L597 0 L701 660 L578 660 L535 389 Z " />
<glyph glyph-name="I" unicode="I" horiz-adv-x="293" d="M154 660 L50 0 L173 0 L277 660 L154 660 Z " />
<glyph glyph-name="J" unicode="J" horiz-adv-x="297" d="M159 660 L54 0 C49 -29 39 -56 25 -79 C11 -102 -12 -129 -45 -162 L41 -245 C86 -204 117 -166 136 -131 C155 -96 169 -50 178 8 L282 660 L159 660 Z " />
<glyph glyph-name="K" unicode="K" horiz-adv-x="600" d="M50 0 L173 0 L277 660 L154 660 L50 0 Z M491 660 L233 339 L417 0 L561 0 L372 340 L638 660 L491 660 Z " />
<glyph glyph-name="L" unicode="L" horiz-adv-x="477" d="M154 660 L49 0 L438 0 L455 113 L192 113 L280 660 L154 660 Z " />
<glyph glyph-name="M" unicode="M" horiz-adv-x="867" d="M446 185 L425 131 L417 192 L344 660 L166 660 L39 0 L160 0 L239 444 C243 469 247 497 251 528 L329 6 L480 6 L710 528 C707 513 703 486 698 448 L638 0 L763 0 L845 660 L652 660 L446 185 Z " />
<glyph glyph-name="N" unicode="N" horiz-adv-x="733" d="M521 190 C517 162 514 141 513 126 L501 169 L338 660 L151 660 L47 0 L171 0 L242 448 C247 473 250 498 252 525 L426 0 L616 0 L720 660 L595 660 L521 190 Z " />
<glyph glyph-name="O" unicode="O" horiz-adv-x="752" d="M430 675 C314 675 224 640 159 569 C94 498 62 403 62 286 C62 83 167 -16 356 -16 C471 -16 561 19 626 88 C691 157 723 251 723 368 C723 573 621 675 430 675 L430 675 Z M427 566 C538 566 592 506 592 369 C592 200 508 94 359 94 C248 94 194 154 194 287 C194 456 278 566 427 566 L427 566 Z " />
<glyph glyph-name="P" unicode="P" horiz-adv-x="550" d="M333 660 C255 660 195 659 154 658 L50 0 L173 0 L209 229 C230 228 258 227 292 227 C449 227 552 316 552 480 C552 607 493 660 333 660 L333 660 Z M295 332 C275 332 252 333 225 334 L260 552 C271 553 286 553 305 553 C396 553 426 530 426 465 C426 382 376 332 295 332 L295 332 Z " />
<glyph glyph-name="Q" unicode="Q" horiz-adv-x="743" d="M722 379 C722 568 618 673 426 673 C310 673 220 637 156 564 C92 491 60 395 60 275 C60 108 142 6 302 -11 L628 -156 L685 -54 C620 -23 561 -1 510 13 C647 66 722 198 722 379 L722 379 Z M423 564 C535 564 591 503 591 380 C591 208 511 96 358 96 C247 96 192 156 192 277 C192 362 212 431 251 484 C290 537 348 564 423 564 L423 564 Z " />
<glyph glyph-name="R" unicode="R" horiz-adv-x="596" d="M427 269 C511 314 553 386 553 483 C553 603 477 661 342 661 C268 661 206 660 156 657 L50 0 L171 0 L208 234 C229 232 249 231 268 231 C286 231 303 232 320 234 L418 0 L557 0 L427 269 Z M259 555 C270 556 286 556 309 556 C392 556 423 531 423 466 C423 383 370 336 275 336 C260 336 244 337 225 339 L259 555 Z " />
<glyph glyph-name="S" unicode="S" horiz-adv-x="482" d="M294 670 C166 670 86 597 86 484 C86 441 93 412 121 378 C135 361 146 348 155 340 C164 331 180 317 203 296 C246 259 275 233 288 218 C301 203 307 189 307 174 C307 134 271 100 204 100 C169 100 124 107 67 121 L43 12 C104 -3 156 -10 200 -10 C274 -10 331 8 372 45 C412 82 432 128 432 183 C432 217 422 247 401 274 C390 288 359 318 308 364 C264 403 237 430 226 443 C215 456 210 470 210 485 C210 536 239 562 298 562 C329 562 372 555 427 542 L451 646 C395 662 343 670 294 670 L294 670 Z " />
<glyph glyph-name="T" unicode="T" horiz-adv-x="561" d="M73 660 L57 551 L274 551 L186 0 L310 0 L397 551 L610 551 L627 660 L73 660 Z " />
<glyph glyph-name="U" unicode="U" horiz-adv-x="714" d="M573 660 L502 220 C494 173 479 141 456 125 C433 109 393 101 338 101 C231 101 196 137 211 224 L280 660 L154 660 L82 200 C59 49 142 -11 330 -12 C426 -13 496 3 541 35 C586 66 613 117 624 188 L697 660 L573 660 Z " />
<glyph glyph-name="V" unicode="V" horiz-adv-x="613" d="M309 168 C300 151 293 135 288 122 L281 168 L208 660 L74 660 L185 0 L356 0 L679 660 L543 660 L309 168 Z " />
<glyph glyph-name="W" unicode="W" horiz-adv-x="891" d="M642 146 L592 660 L440 660 L224 151 L208 660 L89 660 L117 0 L274 0 L492 515 L546 0 L702 0 L941 660 L818 660 L642 146 Z " />
<glyph glyph-name="X" unicode="X" horiz-adv-x="601" d="M510 660 L333 432 L224 660 L81 660 L247 332 L-27 0 L126 0 L306 228 L416 0 L562 0 L391 328 L659 660 L510 660 Z " />
<glyph glyph-name="Y" unicode="Y" horiz-adv-x="600" d="M358 441 C338 415 326 399 321 392 L300 442 L208 660 L74 660 L242 280 L197 0 L325 0 L370 281 L666 660 L522 660 L358 441 Z " />
<glyph glyph-name="Z" unicode="Z" horiz-adv-x="552" d="M98 660 L80 550 L418 550 L-7 84 L-20 0 L502 0 L518 110 L172 110 L592 575 L606 660 L98 660 Z " />
<glyph glyph-name="bracketleft" unicode="&#x5b;" horiz-adv-x="341" d="M384 735 L160 735 L7 -229 L232 -229 L246 -143 L118 -143 L242 650 L371 650 L384 735 Z " />
<glyph glyph-name="backslash" unicode="&#x5c;" horiz-adv-x="465" d="M260 -229 L359 -229 L229 735 L126 735 L260 -229 Z " />
<glyph glyph-name="bracketright" unicode="&#x5d;" horiz-adv-x="341" d="M105 649 L233 649 L108 -144 L-20 -144 L-34 -229 L191 -229 L343 735 L119 735 L105 649 Z " />
<glyph glyph-name="asciicircum" unicode="&#x5e;" horiz-adv-x="515" d="M278 472 L179 472 L-20 0 L83 0 L225 351 L360 0 L465 0 L278 472 Z " />
<glyph glyph-name="underscore" unicode="&#x5f;" horiz-adv-x="582" d="M6 -145 L459 -145 L473 -55 L20 -55 L6 -145 Z " />
<glyph glyph-name="grave" unicode="&#x60;" horiz-adv-x="238" d="M162 521 L255 521 L205 660 L99 660 L162 521 Z " />
<glyph glyph-name="a" unicode="a" horiz-adv-x="515" d="M330 456 C238 456 165 428 112 372 C59 316 32 241 32 147 C32 41 78 -12 170 -12 C225 -12 271 11 309 58 L299 0 L412 0 L482 440 C431 451 381 456 330 456 L330 456 Z M207 84 C166 84 146 109 146 159 C146 217 161 265 192 302 C222 339 262 357 311 357 C320 357 334 356 353 355 L318 140 C282 103 245 84 207 84 L207 84 Z " />
<glyph glyph-name="b" unicode="b" horiz-adv-x="522" d="M352 457 C299 457 253 439 216 402 L257 660 L139 660 L37 10 C107 -5 166 -12 214 -12 C302 -12 370 17 419 75 C468 133 492 204 492 289 C492 401 445 457 352 457 L352 457 Z M223 85 C207 85 188 87 166 92 L203 321 C235 348 268 362 303 362 C356 362 375 331 375 272 C375 219 361 174 333 139 C305 103 268 85 223 85 L223 85 Z " />
<glyph glyph-name="c" unicode="c" horiz-adv-x="407" d="M416 442 C376 452 336 457 296 457 C218 457 155 432 108 381 C60 330 36 261 36 175 C36 50 97 -12 218 -12 C259 -12 305 -8 355 0 L346 96 C313 89 280 86 247 86 C174 86 149 116 149 187 C149 231 162 271 188 307 C213 342 248 360 292 360 C321 360 357 356 398 347 L416 442 Z " />
<glyph glyph-name="d" unicode="d" horiz-adv-x="516" d="M369 453 C348 455 330 456 313 456 C223 456 154 426 105 366 C56 306 31 232 31 144 C31 47 80 -12 163 -12 C220 -12 269 12 311 60 L301 0 L413 0 L518 660 L404 660 L369 453 Z M210 83 C167 83 145 110 145 163 C145 217 160 263 189 302 C218 341 257 360 307 360 C323 360 339 359 355 356 L319 136 C282 101 246 83 210 83 L210 83 Z " />
<glyph glyph-name="e" unicode="e" horiz-adv-x="478" d="M437 196 C442 224 445 256 445 293 C445 398 388 456 279 456 C206 456 148 430 103 378 C58 325 36 257 36 174 C36 51 99 -11 225 -11 C287 -11 348 -3 407 14 L391 100 C336 86 286 79 242 79 C173 79 149 104 149 176 C149 180 150 191 150 196 L437 196 L437 196 Z M270 367 C315 367 338 343 338 296 C338 287 337 279 336 274 L164 274 C185 336 221 367 270 367 L270 367 Z " />
<glyph glyph-name="f" unicode="f" horiz-adv-x="353" d="M332 570 C356 570 384 566 415 557 L442 648 C398 663 355 670 314 670 C211 670 155 625 136 510 L126 446 L53 446 L39 348 L110 348 L54 0 L169 0 L224 348 L356 348 L372 446 L239 446 L247 493 C255 548 277 570 332 570 L332 570 Z " />
<glyph glyph-name="g" unicode="g" horiz-adv-x="520" d="M327 455 C234 455 158 422 117 378 C96 356 79 331 66 302 C39 244 33 197 33 149 C33 48 81 -12 173 -12 C226 -12 272 10 311 53 L296 -45 C289 -99 246 -126 166 -126 C127 -126 83 -120 35 -108 L11 -207 C72 -222 128 -229 180 -229 C314 -229 389 -175 406 -66 L486 439 C423 450 370 455 327 455 L327 455 Z M213 82 C169 82 147 110 147 166 C147 217 162 263 191 302 C220 341 261 360 314 360 C319 360 334 359 358 358 L324 138 C288 101 251 82 213 82 L213 82 Z " />
<glyph glyph-name="h" unicode="h" horiz-adv-x="533" d="M361 456 C306 456 256 437 212 398 L253 660 L138 660 L34 0 L149 0 L198 313 C233 343 268 358 304 358 C349 358 368 341 361 302 L313 0 L428 0 L483 342 C495 413 448 456 361 456 L361 456 Z " />
<glyph glyph-name="i" unicode="i" horiz-adv-x="257" d="M253 596 C254 629 228 657 195 657 C156 657 121 624 120 584 C119 552 144 526 176 526 C216 526 252 557 253 596 L253 596 Z M105 446 L35 0 L153 0 L223 446 L105 446 Z " />
<glyph glyph-name="j" unicode="j" horiz-adv-x="273" d="M263 596 C264 629 238 657 205 657 C166 657 131 624 130 584 C129 552 154 526 186 526 C226 526 262 557 263 596 L263 596 Z M114 446 L44 4 C37 -49 11 -92 -61 -164 L20 -249 C68 -204 102 -165 121 -131 C140 -97 154 -52 163 5 L232 446 L114 446 Z " />
<glyph glyph-name="k" unicode="k" horiz-adv-x="492" d="M35 0 L153 0 L257 660 L139 660 L35 0 Z M366 446 L203 253 L321 0 L456 0 L329 247 L505 446 L366 446 Z " />
<glyph glyph-name="l" unicode="l" horiz-adv-x="257" d="M140 660 L34 0 L154 0 L258 660 L140 660 Z " />
<glyph glyph-name="m" unicode="m" horiz-adv-x="801" d="M639 457 C576 457 522 436 478 394 C467 436 429 457 366 457 C304 457 251 436 207 395 L215 446 L105 446 L34 0 L150 0 L200 315 C233 346 267 361 301 361 C344 361 363 340 356 307 L308 0 L424 0 L474 317 C508 346 542 361 575 361 C618 361 637 343 630 307 L582 0 L698 0 L753 345 C764 417 723 457 639 457 L639 457 Z " />
<glyph glyph-name="n" unicode="n" horiz-adv-x="533" d="M367 457 C304 457 251 433 206 385 L215 446 L105 446 L34 0 L150 0 L198 308 C233 343 270 361 307 361 C350 361 368 342 362 303 L314 0 L430 0 L484 344 C495 415 451 457 367 457 L367 457 Z " />
<glyph glyph-name="o" unicode="o" horiz-adv-x="526" d="M296 456 C217 456 154 430 107 379 C60 328 37 263 37 185 C37 57 105 -10 233 -10 C313 -10 376 14 422 63 C467 112 490 175 490 254 C490 387 420 456 296 456 L296 456 Z M243 85 C182 85 151 122 151 195 C151 291 203 361 284 361 C344 361 374 323 374 248 C374 149 326 85 243 85 L243 85 Z " />
<glyph glyph-name="p" unicode="p" horiz-adv-x="522" d="M357 456 C302 456 253 437 208 398 L216 446 L105 446 L0 -219 L115 -219 L151 7 C183 -6 216 -12 249 -12 C325 -12 384 17 427 75 C470 132 491 203 491 287 C491 400 446 456 357 456 L357 456 Z M232 85 C209 85 187 89 165 96 L201 323 C238 348 273 360 307 360 C354 360 375 332 375 269 C375 217 362 173 337 138 C311 103 276 85 232 85 L232 85 Z " />
<glyph glyph-name="q" unicode="q" horiz-adv-x="519" d="M329 456 C237 456 165 428 112 372 C59 316 32 243 32 154 C32 43 80 -12 175 -12 C226 -12 271 9 310 52 L268 -219 L380 -219 L486 440 C433 451 380 456 329 456 L329 456 Z M214 84 C169 84 146 112 146 168 C146 221 161 266 192 304 C223 341 264 360 317 360 C328 360 341 359 358 357 L324 139 C284 102 247 84 214 84 L214 84 Z " />
<glyph glyph-name="r" unicode="r" horiz-adv-x="348" d="M376 451 C364 453 350 454 333 454 C282 454 242 435 212 396 L220 446 L105 446 L35 0 L154 0 L203 304 C232 335 274 350 329 350 C338 350 348 349 360 348 L376 451 Z " />
<glyph glyph-name="s" unicode="s" horiz-adv-x="381" d="M212 457 C116 457 57 396 57 315 C57 183 220 189 220 130 C220 107 201 88 164 88 C133 88 95 95 49 109 L25 14 C78 -2 125 -10 164 -10 C269 -10 332 41 332 129 C332 273 164 254 164 320 C164 346 183 359 221 359 C250 359 288 352 333 339 L355 434 C297 449 249 457 212 457 L212 457 Z " />
<glyph glyph-name="t" unicode="t" horiz-adv-x="343" d="M340 348 L356 446 L238 446 L260 584 L148 584 L125 446 L52 446 L36 348 L109 348 L72 120 C58 35 94 -7 181 -7 C222 -7 262 -3 301 6 L292 101 C266 97 246 95 231 95 C194 95 186 106 191 146 L222 348 L340 348 Z " />
<glyph glyph-name="u" unicode="u" horiz-adv-x="530" d="M330 133 C296 101 262 85 228 85 C183 85 165 109 173 158 L221 446 L103 446 L50 108 C38 33 83 -11 170 -11 C230 -11 281 12 324 58 L315 0 L425 0 L496 446 L379 446 L330 133 Z " />
<glyph glyph-name="v" unicode="v" horiz-adv-x="440" d="M198 102 L151 446 L27 446 L110 0 L257 0 L477 446 L355 446 L198 102 Z " />
<glyph glyph-name="w" unicode="w" horiz-adv-x="721" d="M505 94 L479 446 L311 446 L175 95 L153 446 L37 446 L74 0 L241 0 L382 362 L406 0 L576 0 L749 446 L631 446 L505 94 Z " />
<glyph glyph-name="x" unicode="x" horiz-adv-x="465" d="M359 446 L241 297 L180 446 L56 446 L152 228 L-37 0 L101 0 L224 155 L289 0 L416 0 L313 228 L490 446 L359 446 Z " />
<glyph glyph-name="y" unicode="y" horiz-adv-x="465" d="M228 171 C208 128 198 105 197 104 C196 129 194 152 192 171 L164 446 L38 446 L109 -2 C70 -63 17 -107 -48 -133 L-6 -233 C109 -184 195 -106 253 1 L494 446 L362 446 L228 171 Z " />
<glyph glyph-name="z" unicode="z" horiz-adv-x="473" d="M78 446 L65 347 L286 347 L22 88 L9 0 L392 0 L406 99 L184 99 L439 354 L453 446 L78 446 Z " />
<glyph glyph-name="braceleft" unicode="&#x7b;" horiz-adv-x="404" d="M342 735 C291 735 251 709 243 654 L198 368 C189 316 182 307 73 301 L59 213 C111 212 143 207 154 200 C165 192 169 174 164 145 L122 -115 C110 -187 108 -229 190 -229 L298 -229 L313 -143 L249 -143 C212 -143 208 -132 213 -95 L254 162 C263 222 236 248 175 256 C238 265 274 295 283 345 L324 607 C329 639 338 650 371 650 L437 650 L451 735 L342 735 L342 735 Z " />
<glyph glyph-name="bar" unicode="&#x7c;" horiz-adv-x="299" d="M179 735 L26 -229 L129 -229 L282 735 L179 735 Z " />
<glyph glyph-name="braceright" unicode="&#x7d;" horiz-adv-x="404" d="M292 621 C304 693 305 735 223 735 L115 735 L101 649 L165 649 C201 649 207 637 200 601 L160 344 C151 284 177 258 240 250 C176 241 140 211 131 161 L89 -101 C85 -133 76 -144 43 -144 L-23 -144 L-37 -229 L72 -229 C129 -229 161 -202 170 -148 L216 138 C220 164 229 182 243 191 C257 200 289 204 340 205 L355 293 C303 294 271 299 260 306 C249 313 245 332 250 361 L292 621 Z " />
<glyph glyph-name="asciitilde" unicode="&#x7e;" horiz-adv-x="570" d="M161 316 C136 316 107 308 83 295 C70 288 67 288 54 280 C47 276 43 274 41 273 C36 271 17 259 16 258 L62 177 L78 186 C99 199 102 200 121 209 C140 217 155 220 171 220 C194 220 230 210 279 191 C328 171 366 161 393 161 C433 161 484 180 547 218 L501 300 C453 271 416 256 390 255 C369 255 333 265 282 286 C231 306 190 316 161 316 L161 316 Z " />
<glyph glyph-name="uni00A0" unicode="&#xa0;" horiz-adv-x="172" d="" />
<glyph glyph-name="exclamdown" unicode="&#xa1;" horiz-adv-x="380" d="M130 371 C129 330 159 299 200 299 C248 299 289 338 290 387 C291 427 262 458 222 458 C173 458 131 419 130 371 L130 371 Z M254 245 L128 245 L57 -203 L184 -203 L254 245 Z " />
<glyph glyph-name="cent" unicode="&#xa2;" horiz-adv-x="389" d="M287 360 C316 360 352 356 393 347 L411 442 C392 447 368 452 339 455 L350 528 L270 528 L257 455 C120 440 31 335 31 175 C31 62 81 0 181 -10 L168 -85 L250 -85 L262 -10 C285 -9 314 -5 350 0 L341 96 C308 89 275 86 242 86 C169 86 144 116 144 187 C144 231 157 271 183 307 C208 342 243 360 287 360 L287 360 Z " />
<glyph glyph-name="sterling" unicode="&#xa3;" horiz-adv-x="512" d="M398 451 C427 451 457 447 490 439 L512 538 L494 542 C471 547 421 554 378 554 C306 554 251 527 223 484 C195 440 184 405 177 364 L170 323 L101 323 L86 232 L156 232 L140 128 C137 109 124 96 116 90 C111 87 105 84 96 83 C78 80 79 81 63 81 L50 0 L421 0 L437 99 L281 99 C265 99 240 94 207 85 C208 86 211 88 216 92 C227 99 225 98 233 105 C244 114 252 127 255 145 L269 232 L430 232 L444 323 L283 323 L289 361 C296 402 309 427 332 439 C355 450 369 451 398 451 L398 451 Z " />
<glyph glyph-name="currency" unicode="&#xa4;" horiz-adv-x="567" d="M493 256 C493 286 487 313 475 337 L545 404 L482 471 L413 406 C384 424 351 433 314 433 C272 433 231 421 191 396 L121 472 L52 407 L122 333 C88 288 71 241 71 191 C71 164 77 138 88 114 L12 42 L76 -26 L150 44 C179 26 211 17 248 17 C293 17 336 30 376 55 L451 -26 L519 38 L445 118 C477 161 493 207 493 256 L493 256 Z M163 206 C163 240 177 272 206 301 C234 330 265 344 300 344 C356 344 402 296 402 240 C402 205 388 174 359 147 C330 120 297 106 262 106 C206 106 163 150 163 206 L163 206 Z " />
<glyph glyph-name="yen" unicode="&#xa5;" horiz-adv-x="578" d="M462 554 L316 364 L301 344 C298 349 294 361 293 365 L212 554 L77 554 L216 250 L90 250 L79 179 L222 179 L219 163 L214 133 L72 133 L61 62 L203 62 L193 0 L306 0 L315 62 L458 62 L470 133 L326 133 L330 163 L332 179 L477 179 L489 250 L361 250 L607 554 L462 554 Z " />
<glyph glyph-name="brokenbar" unicode="&#xa6;" horiz-adv-x="314" d="M186 735 L121 321 L224 321 L289 735 L186 735 Z M103 211 L33 -229 L136 -229 L206 211 L103 211 Z " />
<glyph glyph-name="section" unicode="&#xa7;" horiz-adv-x="500" d="M196 504 C194 562 229 591 301 591 C344 591 398 582 464 564 L483 641 C409 661 345 671 290 671 C173 671 108 615 111 524 L134 -122 C153 -122 171 -115 190 -102 C208 -88 217 -68 216 -41 L196 504 Z M303 -53 C305 -111 270 -140 198 -140 C155 -140 101 -131 35 -113 L16 -191 C90 -211 154 -221 209 -221 C326 -221 391 -165 388 -74 L365 571 C346 571 328 564 310 551 C291 538 282 517 283 490 L303 -53 Z " />
<glyph glyph-name="dieresis" unicode="&#xa8;" horiz-adv-x="395" d="M162 656 C122 656 88 623 88 583 C88 548 111 525 147 525 C187 525 221 557 221 597 C221 632 197 656 162 656 L162 656 Z M364 656 C323 656 290 623 290 583 C290 548 313 525 348 525 C389 525 424 557 424 598 C424 631 399 656 364 656 L364 656 Z " />
<glyph glyph-name="copyright" unicode="&#xa9;" horiz-adv-x="788" d="M625 -1 C682 57 711 133 711 227 C711 322 682 398 625 455 C567 512 491 541 396 541 C301 541 225 512 168 455 C110 398 81 322 81 227 C81 133 110 57 168 -1 C225 -58 301 -87 396 -87 C491 -87 567 -58 625 -1 L625 -1 Z M215 47 C169 92 146 152 146 227 C146 302 169 362 216 408 C263 454 323 477 397 477 C472 477 533 454 579 409 C624 363 647 302 647 227 C647 152 624 92 579 47 C533 1 472 -22 397 -22 C322 -22 261 1 215 47 L215 47 Z M407 66 C432 66 462 70 499 77 L488 139 C465 133 441 130 416 130 C351 130 314 165 314 228 C314 295 352 331 420 331 C445 331 469 328 492 323 L502 385 C474 392 444 395 413 395 C306 395 244 333 244 229 C244 126 304 66 407 66 L407 66 Z " />
<glyph glyph-name="ordfeminine" unicode="&#xaa;" horiz-adv-x="329" d="M266 672 C197 672 144 651 107 609 C70 567 51 516 51 455 C51 378 85 339 154 339 C195 339 221 353 249 393 L241 345 L310 345 L359 664 C334 669 303 672 266 672 L266 672 Z M172 400 C141 400 126 420 126 461 C126 499 137 533 158 563 C179 593 210 608 250 608 C261 608 270 608 277 607 L252 443 C223 414 196 400 172 400 L172 400 Z " />
<glyph glyph-name="guillemotleft" unicode="&#xab;" horiz-adv-x="548" d="M198 420 L66 258 L147 68 L258 68 L178 253 L319 420 L198 420 Z M406 420 L274 258 L355 68 L466 68 L386 254 L527 420 L406 420 Z " />
<glyph glyph-name="logicalnot" unicode="&#xac;" horiz-adv-x="627" d="M32 270 L484 270 L481 96 L575 96 L580 364 L34 364 L32 270 Z " />
<glyph glyph-name="uni00AD" unicode="&#xad;" horiz-adv-x="362" d="M59 189 L293 189 L307 280 L73 280 L59 189 Z " />
<glyph glyph-name="registered" unicode="&#xae;" horiz-adv-x="514" d="M295 679 C235 679 184 658 142 616 C100 574 79 523 79 463 C79 402 100 351 142 309 C184 267 235 246 295 246 C356 246 407 267 449 309 C491 351 512 402 512 463 C512 523 491 574 449 616 C407 658 356 679 295 679 L295 679 Z M295 294 C249 294 210 311 177 344 C144 377 128 416 128 462 C128 508 144 548 177 581 C210 614 249 630 295 630 C342 630 382 614 415 581 C448 548 464 508 464 462 C464 416 448 377 415 344 C382 311 342 294 295 294 L295 294 Z M373 511 C373 548 355 570 319 576 C308 578 291 579 269 579 L225 579 L221 360 L266 360 L268 438 C277 438 287 439 299 440 L343 360 L395 360 L340 452 C362 465 373 484 373 511 L373 511 Z M270 539 L287 539 C314 539 324 531 324 507 C324 480 310 475 282 475 L269 475 L270 539 Z " />
<glyph glyph-name="overscore" unicode="&#xaf;" horiz-adv-x="366" d="M96 632 L80 541 L385 542 L400 632 L96 632 Z " />
<glyph glyph-name="degree" unicode="&#xb0;" horiz-adv-x="318" d="M129 639 C106 616 94 587 94 554 C94 489 147 437 212 437 C277 437 329 489 329 554 C329 587 318 616 295 639 C272 662 245 673 212 673 C179 673 152 662 129 639 L129 639 Z M171 514 C160 525 154 539 154 554 C154 586 180 613 212 613 C244 613 269 586 269 554 C272 506 204 476 171 514 L171 514 Z " />
<glyph glyph-name="plusminus" unicode="&#xb1;" horiz-adv-x="587" d="M342 500 L244 500 L241 354 L57 354 L55 264 L240 264 L238 123 L335 123 L337 264 L525 264 L526 354 L339 354 L342 500 Z M520 0 L522 91 L52 91 L50 0 L520 0 Z " />
<glyph glyph-name="uni00B2" unicode="&#xb2;" horiz-adv-x="302" d="M267 475 C298 502 314 534 314 571 C314 636 269 672 201 672 C165 672 130 664 97 648 L104 585 C127 596 151 602 176 602 C213 602 231 589 231 562 C231 544 216 521 185 492 L59 372 L50 322 L289 322 L298 388 L168 388 L267 475 L267 475 Z " />
<glyph glyph-name="uni00B3" unicode="&#xb3;" horiz-adv-x="278" d="M117 596 C139 603 158 607 173 607 C205 607 221 595 221 570 C221 539 195 527 128 527 L119 465 C176 466 200 456 200 425 C200 398 180 385 139 385 C115 385 93 388 73 394 L55 331 C84 322 114 318 146 318 C229 318 278 358 278 423 C278 464 259 488 220 497 C268 506 297 542 297 589 C297 644 264 672 197 672 C167 672 137 667 106 656 L117 596 Z " />
<glyph glyph-name="acute" unicode="&#xb4;" horiz-adv-x="201" d="M240 660 L135 660 L77 521 L168 521 L240 660 Z " />
<glyph glyph-name="paragraph" unicode="&#xb6;" horiz-adv-x="525" d="M308 660 C241 660 185 640 140 601 C95 562 73 511 73 450 C73 401 88 359 119 325 C150 291 190 274 240 274 L182 -94 L258 -94 L366 588 L423 588 L315 -94 L391 -94 L509 660 L308 660 L308 660 Z " />
<glyph glyph-name="middot" unicode="&#xb7;" horiz-adv-x="295" d="M138 155 C187 155 230 196 230 245 C230 284 200 314 160 314 C111 314 69 274 69 223 C69 184 98 155 138 155 L138 155 Z " />
<glyph glyph-name="cedilla" unicode="&#xb8;" horiz-adv-x="218" d="M8 22 C3 10 0 -5 -2 -23 C-5 -48 1 -63 25 -82 C46 -97 56 -109 55 -118 C52 -137 35 -146 2 -146 C-11 -146 -20 -145 -27 -144 L-38 -213 C-30 -216 -16 -217 4 -217 C81 -217 124 -186 133 -123 C138 -93 125 -67 95 -45 C81 -34 75 -19 78 -2 C79 5 81 13 85 22 L8 22 Z " />
<glyph glyph-name="uni00B9" unicode="&#xb9;" horiz-adv-x="231" d="M74 646 L78 575 L151 589 L109 322 L195 322 L249 662 L172 662 L74 646 Z " />
<glyph glyph-name="ordmasculine" unicode="&#xba;" horiz-adv-x="335" d="M238 672 C181 672 136 654 104 617 C71 580 55 534 55 478 C55 385 100 339 189 339 C306 339 374 421 374 533 C374 626 329 672 238 672 L238 672 Z M197 401 C152 401 129 428 129 483 C129 558 166 611 233 611 C278 611 301 584 301 531 C301 458 262 401 197 401 L197 401 Z " />
<glyph glyph-name="guillemotright" unicode="&#xbb;" horiz-adv-x="548" d="M89 420 L164 244 L27 68 L147 68 L276 237 L199 420 L89 420 Z M302 420 L377 244 L240 68 L360 68 L489 237 L412 420 L302 420 Z " />
<glyph glyph-name="onequarter" unicode="&#xbc;" horiz-adv-x="718" d="M-11 0 L92 0 L698 660 L592 660 L-11 0 Z M108 320 L194 320 L248 660 L171 660 L73 644 L77 573 L150 587 L108 320 Z M554 340 L358 115 L350 61 L533 61 L524 0 L600 0 L610 61 L674 61 L683 124 L620 124 L654 340 L554 340 Z M563 257 L543 124 L451 124 L563 257 Z " />
<glyph glyph-name="onehalf" unicode="&#xbd;" horiz-adv-x="731" d="M-11 0 L92 0 L698 660 L592 660 L-11 0 Z M108 320 L194 320 L248 660 L171 660 L73 644 L77 573 L150 587 L108 320 Z M691 249 C691 314 646 350 578 350 C542 350 507 342 474 326 L481 263 C504 274 528 280 553 280 C590 280 608 267 608 240 C608 222 593 199 562 170 L436 50 L427 0 L666 0 L675 66 L545 66 L644 153 C675 180 691 212 691 249 L691 249 Z " />
<glyph glyph-name="threequarters" unicode="&#xbe;" horiz-adv-x="741" d="M273 421 C273 462 254 486 215 495 C263 504 292 540 292 587 C292 642 259 670 192 670 C162 670 132 665 101 654 L112 594 C134 601 153 605 168 605 C200 605 216 593 216 568 C216 537 190 525 123 525 L114 463 C171 464 195 454 195 423 C195 396 175 383 134 383 C110 383 88 386 68 392 L50 329 C79 320 109 316 141 316 C224 316 273 356 273 421 L273 421 Z M12 0 L115 0 L721 660 L615 660 L12 0 Z M576 340 L380 115 L372 61 L555 61 L546 0 L622 0 L632 61 L696 61 L705 124 L642 124 L676 340 L576 340 Z M585 257 L565 124 L473 124 L585 257 Z " />
<glyph glyph-name="questiondown" unicode="&#xbf;" horiz-adv-x="483" d="M244 368 C243 327 273 296 314 296 C362 296 403 336 404 385 C405 425 376 456 336 456 C287 456 245 416 244 368 L244 368 Z M319 -97 C282 -104 255 -107 237 -107 C177 -107 147 -86 147 -43 C147 -20 151 -5 171 14 C181 23 189 30 196 35 C203 40 215 48 234 61 C247 70 264 80 283 93 C302 106 315 114 320 118 C325 121 332 127 340 135 C356 151 357 163 361 188 L368 241 L242 241 L238 210 C237 195 233 187 221 176 C214 170 209 165 204 162 C195 155 158 133 137 118 C52 61 18 17 18 -64 C18 -181 118 -216 207 -216 C257 -216 298 -211 331 -202 L319 -97 Z " />
<glyph glyph-name="Agrave" unicode="&#xc0;" horiz-adv-x="622" d="M387 834 L282 834 L342 702 L434 702 L387 834 Z M583 0 L463 660 L308 660 L-31 0 L106 0 L176 144 L432 144 L455 0 L583 0 Z M369 541 L415 248 L227 248 L369 541 Z " />
<glyph glyph-name="Aacute" unicode="&#xc1;" horiz-adv-x="622" d="M401 839 L346 707 L437 707 L506 839 L401 839 Z M583 0 L463 660 L308 660 L-31 0 L106 0 L176 144 L432 144 L455 0 L583 0 Z M369 541 L415 248 L227 248 L369 541 Z " />
<glyph glyph-name="Acircumflex" unicode="&#xc2;" horiz-adv-x="622" d="M433 702 L531 702 L455 834 L358 834 L242 702 L345 702 L401 783 L433 702 Z M583 0 L463 660 L308 660 L-31 0 L106 0 L176 144 L432 144 L455 0 L583 0 Z M369 541 L415 248 L227 248 L369 541 Z " />
<glyph glyph-name="Atilde" unicode="&#xc3;" horiz-adv-x="622" d="M331 736 C344 736 366 730 398 718 C429 705 453 699 468 699 C503 699 541 718 580 755 L529 817 C502 792 480 780 463 780 C450 780 428 786 395 799 C362 812 338 818 322 818 C288 818 254 799 219 762 L271 702 C292 725 312 736 331 736 L331 736 Z M583 0 L463 660 L308 660 L-31 0 L106 0 L176 144 L432 144 L455 0 L583 0 Z M369 541 L415 248 L227 248 L369 541 Z " />
<glyph glyph-name="Adieresis" unicode="&#xc4;" horiz-adv-x="622" d="M294 709 C334 709 368 739 368 779 C368 814 344 838 309 838 C270 838 237 805 237 765 C237 732 259 709 294 709 L294 709 Z M489 709 C529 709 563 740 563 779 C563 814 539 838 504 838 C464 838 432 805 432 765 C432 732 456 709 489 709 L489 709 Z M583 0 L463 660 L308 660 L-31 0 L106 0 L176 144 L432 144 L455 0 L583 0 Z M369 541 L415 248 L227 248 L369 541 Z " />
<glyph glyph-name="Aring" unicode="&#xc5;" horiz-adv-x="622" d="M388 674 C447 674 495 721 495 781 C495 833 460 869 408 869 C349 869 301 822 301 762 C301 711 337 674 388 674 L388 674 Z M402 813 C427 813 439 800 439 774 C439 747 420 729 395 729 C374 729 358 744 358 767 C358 794 377 813 402 813 L402 813 Z M583 0 L466 644 L300 644 L-31 0 L106 0 L176 144 L432 144 L455 0 L583 0 Z M357 515 L369 542 L373 515 L416 248 L227 248 L357 515 Z " />
<glyph glyph-name="AE" unicode="&#xc6;" horiz-adv-x="896" d="M901 660 L624 660 L455 660 L-31 0 L111 0 L207 132 L443 132 L423 0 L810 0 L828 109 L562 109 L589 281 L826 281 L843 390 L607 390 L632 551 L883 551 L901 660 Z M510 554 L460 235 L281 235 L510 554 Z " />
<glyph glyph-name="Ccedilla" unicode="&#xc7;" horiz-adv-x="572" d="M450 560 C493 560 541 554 595 543 L617 653 C553 666 496 673 447 673 C324 673 228 635 161 560 C94 485 60 390 60 275 C60 102 143 7 308 -9 C307 -12 306 -20 306 -23 C303 -48 309 -63 333 -82 C354 -97 364 -109 363 -118 C360 -137 343 -146 310 -146 C297 -146 288 -145 281 -144 L270 -213 C278 -216 292 -217 312 -217 C389 -217 432 -186 441 -123 C446 -93 433 -67 403 -45 C391 -35 385 -24 385 -11 C434 -9 480 -4 522 5 L512 115 C468 108 424 104 379 104 C238 104 187 166 187 275 C187 358 209 426 253 480 C296 533 362 560 450 560 L450 560 Z " />
<glyph glyph-name="Egrave" unicode="&#xc8;" horiz-adv-x="523" d="M354 834 L249 834 L309 702 L401 702 L354 834 Z M528 660 L154 660 L50 0 L438 0 L455 109 L189 109 L217 281 L453 281 L470 390 L234 390 L260 551 L510 551 L528 660 Z " />
<glyph glyph-name="Eacute" unicode="&#xc9;" horiz-adv-x="523" d="M368 839 L313 707 L404 707 L473 839 L368 839 Z M528 660 L154 660 L50 0 L438 0 L455 109 L189 109 L217 281 L453 281 L470 390 L234 390 L260 551 L510 551 L528 660 Z " />
<glyph glyph-name="Ecircumflex" unicode="&#xca;" horiz-adv-x="523" d="M400 702 L498 702 L422 834 L325 834 L209 702 L312 702 L368 783 L400 702 Z M528 660 L154 660 L50 0 L438 0 L455 109 L189 109 L217 281 L453 281 L470 390 L234 390 L260 551 L510 551 L528 660 Z " />
<glyph glyph-name="Edieresis" unicode="&#xcb;" horiz-adv-x="523" d="M260 709 C300 709 334 739 334 779 C334 814 310 838 275 838 C236 838 203 805 203 765 C203 732 225 709 260 709 L260 709 Z M455 709 C495 709 529 740 529 779 C529 814 505 838 470 838 C430 838 398 805 398 765 C398 732 422 709 455 709 L455 709 Z M438 0 L455 109 L189 109 L217 281 L453 281 L470 390 L234 390 L260 551 L510 551 L528 660 L154 660 L50 0 L438 0 Z " />
<glyph glyph-name="Igrave" unicode="&#xcc;" horiz-adv-x="293" d="M172 702 L264 702 L217 834 L112 834 L172 702 Z M154 660 L50 0 L173 0 L277 660 L154 660 Z " />
<glyph glyph-name="Iacute" unicode="&#xcd;" horiz-adv-x="293" d="M336 839 L231 839 L176 707 L267 707 L336 839 Z M154 660 L50 0 L173 0 L277 660 L154 660 Z " />
<glyph glyph-name="Icircumflex" unicode="&#xce;" horiz-adv-x="293" d="M264 702 L362 702 L286 834 L189 834 L73 702 L176 702 L232 783 L264 702 Z M173 0 L277 660 L154 660 L50 0 L173 0 Z " />
<glyph glyph-name="Idieresis" unicode="&#xcf;" horiz-adv-x="293" d="M139 838 C100 838 67 805 67 765 C67 732 89 709 124 709 C164 709 198 739 198 779 C198 814 174 838 139 838 L139 838 Z M334 838 C294 838 262 805 262 765 C262 732 286 709 319 709 C359 709 393 740 393 779 C393 814 369 838 334 838 L334 838 Z M154 660 L50 0 L173 0 L277 660 L154 660 Z " />
<glyph glyph-name="Eth" unicode="&#xd0;" horiz-adv-x="697" d="M371 660 C355 660 284 659 157 658 L114 389 L62 389 L43 278 L97 278 L53 1 C75 1 114 1 171 -1 C227 -2 263 -2 280 -2 C529 -2 671 141 671 386 C671 569 571 660 371 660 L371 660 Z M297 105 C278 105 243 106 194 107 L221 278 L359 278 L377 389 L238 389 L264 551 C295 552 323 553 350 553 C489 553 545 493 545 373 C545 186 448 105 297 105 L297 105 Z " />
<glyph glyph-name="Ntilde" unicode="&#xd1;" horiz-adv-x="733" d="M378 736 C391 736 413 730 445 718 C476 705 500 699 515 699 C550 699 588 718 627 755 L576 817 C549 792 527 780 510 780 C497 780 475 786 442 799 C409 812 385 818 369 818 C335 818 301 799 266 762 L318 702 C339 725 359 736 378 736 L378 736 Z M521 190 C517 162 514 141 513 126 L501 169 L338 660 L151 660 L47 0 L171 0 L242 448 C247 473 250 498 252 525 L426 0 L616 0 L720 660 L595 660 L521 190 Z " />
<glyph glyph-name="Ograve" unicode="&#xd2;" horiz-adv-x="752" d="M393 702 L485 702 L438 834 L333 834 L393 702 Z M430 675 C314 675 224 640 159 569 C94 498 62 403 62 286 C62 83 167 -16 356 -16 C471 -16 561 19 626 88 C691 157 723 251 723 368 C723 573 621 675 430 675 L430 675 Z M427 566 C538 566 592 506 592 369 C592 200 508 94 359 94 C248 94 194 154 194 287 C194 456 278 566 427 566 L427 566 Z " />
<glyph glyph-name="Oacute" unicode="&#xd3;" horiz-adv-x="752" d="M557 839 L452 839 L397 707 L488 707 L557 839 Z M430 675 C314 675 224 640 159 569 C94 498 62 403 62 286 C62 83 167 -16 356 -16 C471 -16 561 19 626 88 C691 157 723 251 723 368 C723 573 621 675 430 675 L430 675 Z M427 566 C538 566 592 506 592 369 C592 200 508 94 359 94 C248 94 194 154 194 287 C194 456 278 566 427 566 L427 566 Z " />
<glyph glyph-name="Ocircumflex" unicode="&#xd4;" horiz-adv-x="752" d="M484 702 L582 702 L506 834 L409 834 L293 702 L396 702 L452 783 L484 702 Z M430 675 C314 675 224 640 159 569 C94 498 62 403 62 286 C62 83 167 -16 356 -16 C471 -16 561 19 626 88 C691 157 723 251 723 368 C723 573 621 675 430 675 L430 675 Z M359 94 C248 94 194 154 194 287 C194 456 278 566 427 566 C538 566 592 506 592 369 C592 200 508 94 359 94 L359 94 Z " />
<glyph glyph-name="Otilde" unicode="&#xd5;" horiz-adv-x="752" d="M579 817 C552 792 530 780 513 780 C500 780 478 786 445 799 C412 812 388 818 372 818 C338 818 304 799 269 762 L321 702 C342 725 362 736 381 736 C394 736 416 730 448 718 C479 705 503 699 518 699 C553 699 591 718 630 755 L579 817 L579 817 Z M430 675 C314 675 224 640 159 569 C94 498 62 403 62 286 C62 83 167 -16 356 -16 C471 -16 561 19 626 88 C691 157 723 251 723 368 C723 573 621 675 430 675 L430 675 Z M427 566 C538 566 592 506 592 369 C592 200 508 94 359 94 C248 94 194 154 194 287 C194 456 278 566 427 566 L427 566 Z " />
<glyph glyph-name="Odieresis" unicode="&#xd6;" horiz-adv-x="752" d="M359 838 C320 838 287 805 287 765 C287 732 309 709 344 709 C384 709 418 739 418 779 C418 814 394 838 359 838 L359 838 Z M554 838 C514 838 482 805 482 765 C482 732 506 709 539 709 C579 709 613 740 613 779 C613 814 589 838 554 838 L554 838 Z M430 675 C314 675 224 640 159 569 C94 498 62 403 62 286 C62 83 167 -16 356 -16 C471 -16 561 19 626 88 C691 157 723 251 723 368 C723 573 621 675 430 675 L430 675 Z M427 566 C538 566 592 506 592 369 C592 200 508 94 359 94 C248 94 194 154 194 287 C194 456 278 566 427 566 L427 566 Z " />
<glyph glyph-name="multiply" unicode="&#xd7;" horiz-adv-x="453" d="M285 221 L418 354 L353 420 L221 289 L87 426 L20 359 L154 222 L18 85 L83 19 L219 155 L353 19 L420 84 L285 221 Z " />
<glyph glyph-name="Oslash" unicode="&#xd8;" horiz-adv-x="810" d="M754 691 L665 608 C616 653 547 675 457 675 C341 675 251 640 186 569 C121 498 89 403 89 286 C89 215 102 156 127 111 L37 27 L93 -35 L180 46 C228 5 296 -16 383 -16 C498 -16 588 19 653 88 C718 157 750 251 750 368 C750 437 738 494 715 541 L810 629 L754 691 Z M221 287 C221 456 305 566 454 566 C507 566 547 552 573 524 L230 206 C224 229 221 256 221 287 L221 287 Z M619 369 C619 200 535 94 386 94 C336 94 298 106 271 130 L612 445 C617 424 619 399 619 369 L619 369 Z " />
<glyph glyph-name="Ugrave" unicode="&#xd9;" horiz-adv-x="714" d="M380 702 L472 702 L425 834 L320 834 L380 702 Z M573 660 L502 220 C494 173 479 141 456 125 C433 109 393 101 338 101 C231 101 196 137 211 224 L280 660 L154 660 L82 200 C59 49 142 -11 330 -12 C426 -13 496 3 541 35 C586 66 613 117 624 188 L697 660 L573 660 Z " />
<glyph glyph-name="Uacute" unicode="&#xda;" horiz-adv-x="714" d="M544 839 L439 839 L384 707 L475 707 L544 839 Z M573 660 L502 220 C494 173 479 141 456 125 C433 109 393 101 338 101 C231 101 196 137 211 224 L280 660 L154 660 L82 200 C59 49 142 -11 330 -12 C426 -13 496 3 541 35 C586 66 613 117 624 188 L697 660 L573 660 Z " />
<glyph glyph-name="Ucircumflex" unicode="&#xdb;" horiz-adv-x="714" d="M472 702 L570 702 L494 834 L397 834 L281 702 L384 702 L440 783 L472 702 Z M502 220 C494 173 479 141 456 125 C433 109 393 101 338 101 C231 101 196 137 211 224 L280 660 L154 660 L82 200 C59 49 142 -11 330 -12 C426 -13 496 3 541 35 C586 66 613 117 624 188 L697 660 L573 660 L502 220 Z " />
<glyph glyph-name="Udieresis" unicode="&#xdc;" horiz-adv-x="714" d="M347 838 C308 838 275 805 275 765 C275 732 297 709 332 709 C372 709 406 739 406 779 C406 814 382 838 347 838 L347 838 Z M542 838 C502 838 470 805 470 765 C470 732 494 709 527 709 C567 709 601 740 601 779 C601 814 577 838 542 838 L542 838 Z M573 660 L502 220 C494 173 479 141 456 125 C433 109 393 101 338 101 C231 101 196 137 211 224 L280 660 L154 660 L82 200 C59 49 142 -11 330 -12 C426 -13 496 3 541 35 C586 66 613 117 624 188 L697 660 L573 660 Z " />
<glyph glyph-name="Yacute" unicode="&#xdd;" horiz-adv-x="600" d="M374 839 L319 707 L410 707 L479 839 L374 839 Z M358 441 C338 415 326 399 321 392 L300 442 L208 660 L74 660 L242 280 L197 0 L325 0 L370 281 L666 660 L522 660 L358 441 Z " />
<glyph glyph-name="Thorn" unicode="&#xde;" horiz-adv-x="529" d="M257 549 L275 660 L156 660 L52 0 L170 0 L190 127 C220 125 246 124 269 124 C430 124 510 218 510 375 C510 504 443 549 324 549 L257 549 Z M263 227 C257 227 238 228 206 229 L241 446 L296 446 C365 446 397 424 397 363 C397 272 352 227 263 227 L263 227 Z " />
<glyph glyph-name="germandbls" unicode="&#xdf;" horiz-adv-x="542" d="M549 520 C549 611 469 669 352 669 C225 669 149 602 130 481 L125 446 L56 446 L40 348 L109 348 L54 0 L169 0 L242 462 C251 531 289 568 346 568 C420 568 446 502 400 445 C384 425 367 408 349 393 C312 364 274 321 274 282 C270 221 377 165 373 124 C373 102 356 91 321 91 C303 91 279 94 249 101 L232 5 C271 -4 306 -9 336 -9 C383 -9 421 4 450 30 C478 55 492 85 492 118 C496 189 388 256 393 284 C393 305 432 341 471 374 C510 406 549 464 549 520 L549 520 Z " />
<glyph glyph-name="agrave" unicode="&#xe0;" horiz-adv-x="515" d="M325 659 L219 659 L282 520 L375 520 L325 659 Z M330 456 C238 456 165 428 112 372 C59 316 32 241 32 147 C32 41 78 -12 170 -12 C225 -12 271 11 309 58 L299 0 L412 0 L482 440 C431 451 381 456 330 456 L330 456 Z M207 84 C166 84 146 109 146 159 C146 217 161 265 192 302 C222 339 262 357 311 357 C320 357 334 356 353 355 L318 140 C282 103 245 84 207 84 L207 84 Z " />
<glyph glyph-name="aacute" unicode="&#xe1;" horiz-adv-x="515" d="M343 659 L285 520 L376 520 L448 659 L343 659 Z M330 456 C238 456 165 428 112 372 C59 316 32 241 32 147 C32 41 78 -12 170 -12 C225 -12 271 11 309 58 L299 0 L412 0 L482 440 C431 451 381 456 330 456 L330 456 Z M207 84 C166 84 146 109 146 159 C146 217 161 265 192 302 C222 339 262 357 311 357 C320 357 334 356 353 355 L318 140 C282 103 245 84 207 84 L207 84 Z " />
<glyph glyph-name="acircumflex" unicode="&#xe2;" horiz-adv-x="515" d="M389 516 L487 516 L406 659 L297 659 L173 516 L276 516 L343 598 L389 516 Z M32 147 C32 41 78 -12 170 -12 C225 -12 271 11 309 58 L299 0 L412 0 L482 440 C431 451 381 456 330 456 C238 456 165 428 112 372 C59 316 32 241 32 147 L32 147 Z M207 84 C166 84 146 109 146 159 C146 217 161 265 192 302 C222 339 262 357 311 357 C320 357 334 356 353 355 L318 140 C282 103 245 84 207 84 L207 84 Z " />
<glyph glyph-name="atilde" unicode="&#xe3;" horiz-adv-x="515" d="M276 560 C289 560 311 554 343 542 C374 529 398 523 413 523 C450 523 487 542 525 580 L474 641 C447 616 425 604 408 604 C395 604 373 610 340 623 C307 636 283 642 267 642 C235 642 201 624 164 587 L216 526 C237 549 257 560 276 560 L276 560 Z M32 147 C32 41 78 -12 170 -12 C225 -12 271 11 309 58 L299 0 L412 0 L482 440 C431 451 381 456 330 456 C238 456 165 428 112 372 C59 316 32 241 32 147 L32 147 Z M207 84 C166 84 146 109 146 159 C146 217 161 265 192 302 C222 339 262 357 311 357 C320 357 334 356 353 355 L318 140 C282 103 245 84 207 84 L207 84 Z " />
<glyph glyph-name="adieresis" unicode="&#xe4;" horiz-adv-x="515" d="M233 524 C273 524 307 556 307 596 C307 631 283 655 248 655 C208 655 174 622 174 582 C174 547 197 524 233 524 L233 524 Z M450 655 C409 655 376 622 376 582 C376 547 399 524 434 524 C475 524 510 556 510 597 C510 630 485 655 450 655 L450 655 Z M32 147 C32 41 78 -12 170 -12 C225 -12 271 11 309 58 L299 0 L412 0 L482 440 C431 451 381 456 330 456 C238 456 165 428 112 372 C59 316 32 241 32 147 L32 147 Z M207 84 C166 84 146 109 146 159 C146 217 161 265 192 302 C222 339 262 357 311 357 C320 357 334 356 353 355 L318 140 C282 103 245 84 207 84 L207 84 Z " />
<glyph glyph-name="aring" unicode="&#xe5;" horiz-adv-x="515" d="M329 501 C385 501 436 548 441 608 C446 661 407 706 355 706 C291 706 240 654 239 593 C239 541 277 501 329 501 L329 501 Z M298 599 C299 626 319 647 346 647 C367 647 385 631 384 607 C383 579 361 559 337 559 C314 559 297 576 298 599 L298 599 Z M330 456 C238 456 165 428 112 372 C59 316 32 241 32 147 C32 41 78 -12 170 -12 C225 -12 271 11 309 58 L299 0 L412 0 L482 440 C431 451 381 456 330 456 L330 456 Z M207 84 C166 84 146 109 146 159 C146 217 161 265 192 302 C222 339 262 357 311 357 C320 357 334 356 353 355 L318 140 C282 103 245 84 207 84 L207 84 Z " />
<glyph glyph-name="ae" unicode="&#xe6;" horiz-adv-x="761" d="M719 196 C724 224 727 256 727 293 C727 402 672 456 561 456 C502 456 458 435 428 394 L436 442 C391 451 351 455 316 455 C231 455 163 427 111 370 C58 313 32 241 32 153 C32 44 78 -11 169 -11 C244 -11 310 24 350 80 C372 19 424 -11 507 -11 C569 -11 630 -3 689 14 L673 100 C618 86 568 79 525 79 C456 79 432 104 432 176 L432 196 L719 196 L719 196 Z M552 367 C597 367 620 343 620 296 C620 287 620 279 619 274 L446 274 C467 336 503 367 552 367 L552 367 Z M211 84 C164 84 146 108 146 167 C146 222 161 268 192 305 C222 342 263 360 316 360 C331 360 346 359 359 356 L331 164 C331 160 330 151 330 147 C292 105 252 84 211 84 L211 84 Z " />
<glyph glyph-name="ccedilla" unicode="&#xe7;" horiz-adv-x="407" d="M292 360 C321 360 357 356 398 347 L416 442 C376 452 336 457 296 457 C218 457 155 432 108 381 C60 330 36 261 36 175 C36 70 80 9 167 -8 C166 -11 166 -19 165 -23 C162 -48 168 -63 192 -82 C213 -97 223 -109 222 -118 C219 -137 202 -146 169 -146 C156 -146 147 -145 140 -144 L129 -213 C137 -216 151 -217 171 -217 C248 -217 291 -186 300 -123 C305 -93 292 -67 262 -45 C250 -35 244 -24 244 -12 C284 -10 321 -6 355 0 L346 96 C313 89 280 86 247 86 C174 86 149 116 149 187 C149 231 162 271 188 307 C213 342 248 360 292 360 L292 360 Z " />
<glyph glyph-name="egrave" unicode="&#xe8;" horiz-adv-x="478" d="M284 660 L178 660 L241 521 L334 521 L284 660 Z M437 196 C442 224 445 256 445 293 C445 398 388 456 279 456 C206 456 148 430 103 378 C58 325 36 257 36 174 C36 51 99 -11 225 -11 C287 -11 348 -3 407 14 L391 100 C336 86 286 79 242 79 C173 79 149 104 149 176 C149 180 150 191 150 196 L437 196 L437 196 Z M270 367 C315 367 338 343 338 296 C338 287 337 279 336 274 L164 274 C185 336 221 367 270 367 L270 367 Z " />
<glyph glyph-name="eacute" unicode="&#xe9;" horiz-adv-x="478" d="M303 660 L245 521 L336 521 L408 660 L303 660 Z M437 196 C442 224 445 256 445 293 C445 398 388 456 279 456 C206 456 148 430 103 378 C58 325 36 257 36 174 C36 51 99 -11 225 -11 C287 -11 348 -3 407 14 L391 100 C336 86 286 79 242 79 C173 79 149 104 149 176 C149 180 150 191 150 196 L437 196 L437 196 Z M270 367 C315 367 338 343 338 296 C338 287 337 279 336 274 L164 274 C185 336 221 367 270 367 L270 367 Z " />
<glyph glyph-name="ecircumflex" unicode="&#xea;" horiz-adv-x="478" d="M348 517 L446 517 L365 660 L256 660 L132 517 L235 517 L302 599 L348 517 Z M279 456 C206 456 148 430 103 378 C58 325 36 257 36 174 C36 51 99 -11 225 -11 C287 -11 348 -3 407 14 L391 100 C336 86 286 79 242 79 C173 79 149 104 149 176 C149 180 150 191 150 196 L437 196 C442 224 445 256 445 293 C445 398 388 456 279 456 L279 456 Z M270 367 C315 367 338 343 338 296 C338 287 337 279 336 274 L164 274 C185 336 221 367 270 367 L270 367 Z " />
<glyph glyph-name="edieresis" unicode="&#xeb;" horiz-adv-x="478" d="M192 525 C232 525 266 557 266 597 C266 632 242 656 207 656 C167 656 133 623 133 583 C133 548 156 525 192 525 L192 525 Z M409 656 C368 656 335 623 335 583 C335 548 358 525 393 525 C434 525 469 557 469 598 C469 631 444 656 409 656 L409 656 Z M279 456 C206 456 148 430 103 378 C58 325 36 257 36 174 C36 51 99 -11 225 -11 C287 -11 348 -3 407 14 L391 100 C336 86 286 79 242 79 C173 79 149 104 149 176 C149 180 150 191 150 196 L437 196 C442 224 445 256 445 293 C445 398 388 456 279 456 L279 456 Z M270 367 C315 367 338 343 338 296 C338 287 337 279 336 274 L164 274 C185 336 221 367 270 367 L270 367 Z " />
<glyph glyph-name="igrave" unicode="&#xec;" horiz-adv-x="257" d="M123 521 L216 521 L166 660 L60 660 L123 521 Z M105 446 L35 0 L153 0 L223 446 L105 446 Z " />
<glyph glyph-name="iacute" unicode="&#xed;" horiz-adv-x="257" d="M289 660 L184 660 L126 521 L217 521 L289 660 Z M105 446 L35 0 L153 0 L223 446 L105 446 Z " />
<glyph glyph-name="icircumflex" unicode="&#xee;" horiz-adv-x="257" d="M130 660 L13 517 L116 517 L179 599 L229 517 L327 517 L239 660 L130 660 Z M153 0 L223 446 L105 446 L35 0 L153 0 Z " />
<glyph glyph-name="idieresis" unicode="&#xef;" horiz-adv-x="257" d="M89 656 C49 656 15 623 15 583 C15 548 38 525 74 525 C114 525 148 557 148 597 C148 632 124 656 89 656 L89 656 Z M291 656 C250 656 217 623 217 583 C217 548 240 525 275 525 C316 525 351 557 351 598 C351 631 326 656 291 656 L291 656 Z M105 446 L35 0 L153 0 L223 446 L105 446 Z " />
<glyph glyph-name="eth" unicode="&#xf0;" horiz-adv-x="497" d="M495 627 L396 585 C383 612 367 642 348 673 L251 627 L293 542 L184 497 L210 431 L320 476 C337 433 347 388 351 342 C303 371 255 385 208 385 C157 385 115 367 82 330 C49 293 33 246 33 189 C33 129 51 81 88 44 C124 7 171 -11 230 -11 C303 -11 360 17 403 72 C446 127 467 202 467 297 C467 372 453 446 424 519 L522 559 L495 627 Z M235 85 C182 85 149 125 149 189 C149 257 184 300 240 300 C273 300 311 288 352 264 C345 151 303 85 235 85 L235 85 Z " />
<glyph glyph-name="ntilde" unicode="&#xf1;" horiz-adv-x="533" d="M253 561 C266 561 288 555 320 543 C351 530 375 524 390 524 C427 524 464 543 502 581 L451 642 C424 617 402 605 385 605 C372 605 350 611 317 624 C284 637 260 643 244 643 C212 643 178 625 141 588 L193 527 C214 550 234 561 253 561 L253 561 Z M367 457 C304 457 251 433 206 385 L215 446 L105 446 L34 0 L150 0 L198 308 C233 343 270 361 307 361 C350 361 368 342 362 303 L314 0 L430 0 L484 344 C495 415 451 457 367 457 L367 457 Z " />
<glyph glyph-name="ograve" unicode="&#xf2;" horiz-adv-x="526" d="M256 521 L349 521 L299 660 L193 660 L256 521 Z M296 456 C217 456 154 430 107 379 C60 328 37 263 37 185 C37 57 105 -10 233 -10 C313 -10 376 14 422 63 C467 112 490 175 490 254 C490 387 420 456 296 456 L296 456 Z M243 85 C182 85 151 122 151 195 C151 291 203 361 284 361 C344 361 374 323 374 248 C374 149 326 85 243 85 L243 85 Z " />
<glyph glyph-name="oacute" unicode="&#xf3;" horiz-adv-x="526" d="M422 660 L317 660 L259 521 L350 521 L422 660 Z M296 456 C217 456 154 430 107 379 C60 328 37 263 37 185 C37 57 105 -10 233 -10 C313 -10 376 14 422 63 C467 112 490 175 490 254 C490 387 420 456 296 456 L296 456 Z M243 85 C182 85 151 122 151 195 C151 291 203 361 284 361 C344 361 374 323 374 248 C374 149 326 85 243 85 L243 85 Z " />
<glyph glyph-name="ocircumflex" unicode="&#xf4;" horiz-adv-x="526" d="M363 517 L461 517 L380 660 L271 660 L147 517 L250 517 L317 599 L363 517 Z M296 456 C217 456 154 430 107 379 C60 328 37 263 37 185 C37 57 105 -10 233 -10 C313 -10 376 14 422 63 C467 112 490 175 490 254 C490 387 420 456 296 456 L296 456 Z M243 85 C182 85 151 122 151 195 C151 291 203 361 284 361 C344 361 374 323 374 248 C374 149 326 85 243 85 L243 85 Z " />
<glyph glyph-name="otilde" unicode="&#xf5;" horiz-adv-x="526" d="M448 642 C421 617 399 605 382 605 C369 605 347 611 314 624 C281 637 257 643 241 643 C209 643 175 625 138 588 L190 527 C211 550 231 561 250 561 C263 561 285 555 317 543 C348 530 372 524 387 524 C424 524 461 543 499 581 L448 642 L448 642 Z M296 456 C217 456 154 430 107 379 C60 328 37 263 37 185 C37 57 105 -10 233 -10 C313 -10 376 14 422 63 C467 112 490 175 490 254 C490 387 420 456 296 456 L296 456 Z M243 85 C182 85 151 122 151 195 C151 291 203 361 284 361 C344 361 374 323 374 248 C374 149 326 85 243 85 L243 85 Z " />
<glyph glyph-name="odieresis" unicode="&#xf6;" horiz-adv-x="526" d="M222 656 C182 656 148 623 148 583 C148 548 171 525 207 525 C247 525 281 557 281 597 C281 632 257 656 222 656 L222 656 Z M424 656 C383 656 350 623 350 583 C350 548 373 525 408 525 C449 525 484 557 484 598 C484 631 459 656 424 656 L424 656 Z M296 456 C217 456 154 430 107 379 C60 328 37 263 37 185 C37 57 105 -10 233 -10 C313 -10 376 14 422 63 C467 112 490 175 490 254 C490 387 420 456 296 456 L296 456 Z M243 85 C182 85 151 122 151 195 C151 291 203 361 284 361 C344 361 374 323 374 248 C374 149 326 85 243 85 L243 85 Z " />
<glyph glyph-name="divide" unicode="&#xf7;" horiz-adv-x="560" d="M276 474 C239 474 210 445 210 406 C210 369 239 339 276 339 C315 339 344 369 344 406 C344 445 315 474 276 474 L276 474 Z M38 275 L36 182 L506 182 L507 275 L38 275 Z M269 117 C232 117 203 88 203 49 C203 13 233 -18 269 -18 C308 -18 336 12 336 49 C336 88 308 117 269 117 L269 117 Z " />
<glyph glyph-name="oslash" unicode="&#xf8;" horiz-adv-x="546" d="M508 478 L441 416 C408 443 361 456 302 456 C224 456 161 431 114 380 C66 329 42 262 42 180 C42 137 51 100 68 71 L4 12 L42 -29 L104 29 C138 3 185 -10 244 -10 C325 -10 388 15 434 64 C480 113 503 178 503 261 C503 306 495 343 478 373 L547 437 L508 478 Z M152 194 C152 294 209 361 293 361 C320 361 342 354 359 340 L157 153 C154 166 152 180 152 194 L152 194 Z M391 252 C391 149 341 85 256 85 C226 85 203 91 186 104 L387 290 C390 275 391 263 391 252 L391 252 Z " />
<glyph glyph-name="ugrave" unicode="&#xf9;" horiz-adv-x="530" d="M301 660 L195 660 L258 521 L351 521 L301 660 Z M330 133 C296 101 262 85 228 85 C183 85 165 109 173 158 L221 446 L103 446 L50 108 C38 33 83 -11 170 -11 C230 -11 281 12 324 58 L315 0 L425 0 L496 446 L379 446 L330 133 Z " />
<glyph glyph-name="uacute" unicode="&#xfa;" horiz-adv-x="530" d="M319 660 L261 521 L352 521 L424 660 L319 660 Z M330 133 C296 101 262 85 228 85 C183 85 165 109 173 158 L221 446 L103 446 L50 108 C38 33 83 -11 170 -11 C230 -11 281 12 324 58 L315 0 L425 0 L496 446 L379 446 L330 133 Z " />
<glyph glyph-name="ucircumflex" unicode="&#xfb;" horiz-adv-x="530" d="M365 517 L463 517 L382 660 L273 660 L149 517 L252 517 L319 599 L365 517 Z M330 133 C296 101 262 85 228 85 C183 85 165 109 173 158 L221 446 L103 446 L50 108 C38 33 83 -11 170 -11 C230 -11 281 12 324 58 L315 0 L425 0 L496 446 L379 446 L330 133 Z " />
<glyph glyph-name="udieresis" unicode="&#xfc;" horiz-adv-x="530" d="M209 525 C249 525 283 557 283 597 C283 632 259 656 224 656 C184 656 150 623 150 583 C150 548 173 525 209 525 L209 525 Z M410 525 C451 525 486 557 486 598 C486 631 461 656 426 656 C385 656 352 623 352 583 C352 548 375 525 410 525 L410 525 Z M330 133 C296 101 262 85 228 85 C183 85 165 109 173 158 L221 446 L103 446 L50 108 C38 33 83 -11 170 -11 C230 -11 281 12 324 58 L315 0 L425 0 L496 446 L379 446 L330 133 Z " />
<glyph glyph-name="yacute" unicode="&#xfd;" horiz-adv-x="465" d="M281 660 L223 521 L314 521 L386 660 L281 660 Z M228 171 C208 128 198 105 197 104 C196 129 194 152 192 171 L164 446 L38 446 L109 -2 C70 -63 17 -107 -48 -133 L-6 -233 C109 -184 195 -106 253 1 L494 446 L362 446 L228 171 Z " />
<glyph glyph-name="thorn" unicode="&#xfe;" horiz-adv-x="523" d="M357 456 C302 456 252 437 209 399 C212 407 214 418 217 431 L254 660 L139 660 L0 -219 L116 -219 L152 7 C183 -6 216 -12 249 -12 C325 -12 384 17 427 75 C470 132 491 203 491 287 C491 400 446 456 357 456 L357 456 Z M234 85 C211 85 188 88 166 95 L202 324 C239 348 274 360 308 360 C357 360 375 334 375 271 C375 218 363 174 338 139 C313 103 279 85 234 85 L234 85 Z " />
<glyph glyph-name="ydieresis" unicode="&#xff;" horiz-adv-x="465" d="M170 525 C210 525 244 557 244 597 C244 632 220 656 185 656 C145 656 111 623 111 583 C111 548 134 525 170 525 L170 525 Z M371 525 C412 525 447 557 447 598 C447 631 422 656 387 656 C346 656 313 623 313 583 C313 548 336 525 371 525 L371 525 Z M228 171 C208 128 198 105 197 104 C196 129 194 152 192 171 L164 446 L38 446 L109 -2 C70 -63 17 -107 -48 -133 L-6 -233 C109 -184 195 -106 253 1 L494 446 L362 446 L228 171 Z " />
<glyph glyph-name="Amacron" unicode="&#x100;" horiz-adv-x="622" d="M261 818 L245 727 L550 728 L565 818 L261 818 Z M583 0 L463 660 L308 660 L-31 0 L106 0 L176 144 L432 144 L455 0 L583 0 Z M369 541 L415 248 L227 248 L369 541 Z " />
<glyph glyph-name="amacron" unicode="&#x101;" horiz-adv-x="515" d="M178 540 L483 541 L498 631 L194 631 L178 540 Z M32 147 C32 41 78 -12 170 -12 C225 -12 271 11 309 58 L299 0 L412 0 L482 440 C431 451 381 456 330 456 C238 456 165 428 112 372 C59 316 32 241 32 147 L32 147 Z M207 84 C166 84 146 109 146 159 C146 217 161 265 192 302 C222 339 262 357 311 357 C320 357 334 356 353 355 L318 140 C282 103 245 84 207 84 L207 84 Z " />
<glyph glyph-name="Abreve" unicode="&#x102;" horiz-adv-x="622" d="M389 699 C472 699 537 752 556 831 L462 831 C452 791 429 771 392 771 C358 771 342 791 343 831 L249 831 C246 756 298 699 389 699 L389 699 Z M583 0 L463 660 L308 660 L-31 0 L106 0 L176 144 L432 144 L455 0 L583 0 Z M369 541 L415 248 L227 248 L369 541 Z " />
<glyph glyph-name="abreve" unicode="&#x103;" horiz-adv-x="515" d="M328 520 C413 520 480 572 497 659 L404 659 C395 614 371 592 334 592 C297 592 278 616 283 659 L190 659 C178 576 239 520 328 520 L328 520 Z M32 147 C32 41 78 -12 170 -12 C225 -12 271 11 309 58 L299 0 L412 0 L482 440 C431 451 381 456 330 456 C238 456 165 428 112 372 C59 316 32 241 32 147 L32 147 Z M207 84 C166 84 146 109 146 159 C146 217 161 265 192 302 C222 339 262 357 311 357 C320 357 334 356 353 355 L318 140 C282 103 245 84 207 84 L207 84 Z " />
<glyph glyph-name="Aogonek" unicode="&#x104;" horiz-adv-x="622" d="M471 -117 C471 -88 494 -49 540 0 L583 0 L463 660 L308 660 L-31 0 L106 0 L176 144 L432 144 L454 2 C409 -56 386 -106 386 -147 C386 -207 439 -236 542 -217 L555 -146 C499 -157 471 -148 471 -117 L471 -117 Z M369 541 L415 248 L227 248 L369 541 Z " />
<glyph glyph-name="aogonek" unicode="&#x105;" horiz-adv-x="515" d="M482 440 C431 451 381 456 330 456 C238 456 165 428 112 372 C59 316 32 241 32 147 C32 41 78 -12 170 -12 C225 -12 271 11 309 58 L300 2 C255 -57 232 -107 232 -147 C232 -207 285 -236 388 -217 L401 -146 C345 -157 317 -148 317 -117 C317 -90 339 -51 383 0 L412 0 L482 440 Z M207 84 C166 84 146 109 146 159 C146 217 161 265 192 302 C222 339 262 357 311 357 C320 357 334 356 353 355 L318 140 C282 103 245 84 207 84 L207 84 Z " />
<glyph glyph-name="Cacute" unicode="&#x106;" horiz-adv-x="572" d="M562 839 L457 839 L402 707 L493 707 L562 839 Z M447 673 C324 673 228 635 161 560 C94 485 60 390 60 275 C60 84 160 -11 360 -11 C415 -11 469 -6 522 5 L512 115 C468 108 424 104 379 104 C238 104 187 166 187 275 C187 358 209 426 253 480 C296 533 362 560 450 560 C493 560 541 554 595 543 L617 653 C553 666 496 673 447 673 L447 673 Z " />
<glyph glyph-name="cacute" unicode="&#x107;" horiz-adv-x="407" d="M418 660 L313 660 L255 521 L346 521 L418 660 Z M416 442 C376 452 336 457 296 457 C218 457 155 432 108 381 C60 330 36 261 36 175 C36 50 97 -12 218 -12 C259 -12 305 -8 355 0 L346 96 C313 89 280 86 247 86 C174 86 149 116 149 187 C149 231 162 271 188 307 C213 342 248 360 292 360 C321 360 357 356 398 347 L416 442 Z " />
<glyph glyph-name="Cdotaccent" unicode="&#x10a;" horiz-adv-x="572" d="M466 838 C421 838 392 809 392 765 C392 732 413 709 448 709 C493 709 523 737 523 780 C523 815 501 838 466 838 L466 838 Z M447 673 C324 673 228 635 161 560 C94 485 60 390 60 275 C60 84 160 -11 360 -11 C415 -11 469 -6 522 5 L512 115 C468 108 424 104 379 104 C238 104 187 166 187 275 C187 358 209 426 253 480 C296 533 362 560 450 560 C493 560 541 554 595 543 L617 653 C553 666 496 673 447 673 L447 673 Z " />
<glyph glyph-name="cdotaccent" unicode="&#x10b;" horiz-adv-x="407" d="M382 596 C383 629 357 657 324 657 C285 657 250 624 249 584 C248 552 273 526 305 526 C345 526 381 557 382 596 L382 596 Z M416 442 C376 452 336 457 296 457 C218 457 155 432 108 381 C60 330 36 261 36 175 C36 50 97 -12 218 -12 C259 -12 305 -8 355 0 L346 96 C313 89 280 86 247 86 C174 86 149 116 149 187 C149 231 162 271 188 307 C213 342 248 360 292 360 C321 360 357 356 398 347 L416 442 Z " />
<glyph glyph-name="Ccaron" unicode="&#x10c;" horiz-adv-x="572" d="M595 835 L503 834 L453 757 L418 834 L331 834 L394 702 L500 702 L595 835 Z M450 560 C493 560 541 554 595 543 L617 653 C553 666 496 673 447 673 C324 673 228 635 161 560 C94 485 60 390 60 275 C60 84 160 -11 360 -11 C415 -11 469 -6 522 5 L512 115 C468 108 424 104 379 104 C238 104 187 166 187 275 C187 358 209 426 253 480 C296 533 362 560 450 560 L450 560 Z " />
<glyph glyph-name="ccaron" unicode="&#x10d;" horiz-adv-x="407" d="M459 660 L368 660 L311 575 L274 660 L186 660 L252 520 L358 520 L459 660 Z M36 175 C36 50 97 -12 218 -12 C259 -12 305 -8 355 0 L346 96 C313 89 280 86 247 86 C174 86 149 116 149 187 C149 231 162 271 188 307 C213 342 248 360 292 360 C321 360 357 356 398 347 L416 442 C376 452 336 457 296 457 C218 457 155 432 108 381 C60 330 36 261 36 175 L36 175 Z " />
<glyph glyph-name="Dcaron" unicode="&#x10e;" horiz-adv-x="694" d="M536 835 L444 834 L394 757 L359 834 L272 834 L335 702 L441 702 L536 835 Z M368 660 C352 660 281 659 154 658 L50 1 C72 1 111 1 168 -1 C224 -2 260 -2 277 -2 C526 -2 668 141 668 386 C668 569 568 660 368 660 L368 660 Z M294 105 C275 105 240 106 191 107 L261 551 C292 552 320 553 347 553 C486 553 542 493 542 373 C542 186 445 105 294 105 L294 105 Z " />
<glyph glyph-name="dcaron" unicode="&#x10f;" horiz-adv-x="516" d="M369 453 C348 455 330 456 313 456 C223 456 154 426 105 366 C56 306 31 232 31 144 C31 47 80 -12 163 -12 C220 -12 269 12 311 60 L301 0 L413 0 L518 660 L404 660 L369 453 L369 453 Z M550 483 L627 483 L678 660 L580 660 L550 483 Z M210 83 C167 83 145 110 145 163 C145 217 160 263 189 302 C218 341 257 360 307 360 C323 360 339 359 355 356 L319 136 C282 101 246 83 210 83 L210 83 Z " />
<glyph glyph-name="Dcroat" unicode="&#x110;" horiz-adv-x="697" d="M371 660 C355 660 284 659 157 658 L114 389 L62 389 L43 278 L97 278 L53 1 C74 1 113 1 170 -1 C227 -2 263 -2 280 -2 C529 -2 671 141 671 386 C671 569 571 660 371 660 L371 660 Z M297 105 C277 105 242 106 193 107 L220 278 L359 278 L377 389 L237 389 L263 551 C295 552 324 553 350 553 C489 553 545 493 545 373 C545 186 448 105 297 105 L297 105 Z " />
<glyph glyph-name="dslash" unicode="&#x111;" horiz-adv-x="517" d="M511 616 L518 660 L404 660 L396 616 L280 616 L267 541 L384 541 L369 453 C348 455 330 456 313 456 C223 456 154 426 105 366 C56 306 31 232 31 144 C31 47 80 -12 163 -12 C220 -12 269 12 311 60 L301 0 L413 0 L499 541 L557 541 L570 616 L511 616 Z M210 83 C167 83 145 110 145 163 C145 217 160 263 189 302 C218 341 257 360 307 360 C323 360 339 359 355 356 L319 136 C282 101 246 83 210 83 L210 83 Z " />
<glyph glyph-name="Emacron" unicode="&#x112;" horiz-adv-x="523" d="M228 818 L212 727 L517 728 L532 818 L228 818 Z M438 0 L455 109 L189 109 L217 281 L453 281 L470 390 L234 390 L260 551 L510 551 L528 660 L154 660 L50 0 L438 0 Z " />
<glyph glyph-name="emacron" unicode="&#x113;" horiz-adv-x="478" d="M153 632 L137 541 L442 542 L457 632 L153 632 Z M279 456 C206 456 148 430 103 378 C58 325 36 257 36 174 C36 51 99 -11 225 -11 C287 -11 348 -3 407 14 L391 100 C336 86 286 79 242 79 C173 79 149 104 149 176 C149 180 150 191 150 196 L437 196 C442 224 445 256 445 293 C445 398 388 456 279 456 L279 456 Z M270 367 C315 367 338 343 338 296 C338 287 337 279 336 274 L164 274 C185 336 221 367 270 367 L270 367 Z " />
<glyph glyph-name="Edotaccent" unicode="&#x116;" horiz-adv-x="523" d="M359 709 C404 709 434 737 434 780 C434 815 412 838 377 838 C332 838 303 809 303 765 C303 732 326 709 359 709 L359 709 Z M528 660 L154 660 L50 0 L438 0 L455 109 L189 109 L217 281 L453 281 L470 390 L234 390 L260 551 L510 551 L528 660 Z " />
<glyph glyph-name="edotaccent" unicode="&#x117;" horiz-adv-x="478" d="M294 526 C334 526 370 557 371 596 C372 629 346 657 313 657 C274 657 239 624 238 584 C237 552 262 526 294 526 L294 526 Z M437 196 C442 224 445 256 445 293 C445 398 388 456 279 456 C206 456 148 430 103 378 C58 325 36 257 36 174 C36 51 99 -11 225 -11 C287 -11 348 -3 407 14 L391 100 C336 86 286 79 242 79 C173 79 149 104 149 176 C149 180 150 191 150 196 L437 196 L437 196 Z M270 367 C315 367 338 343 338 296 C338 287 337 279 336 274 L164 274 C185 336 221 367 270 367 L270 367 Z " />
<glyph glyph-name="Eogonek" unicode="&#x118;" horiz-adv-x="523" d="M528 660 L154 660 L50 0 L352 0 C307 -59 285 -108 285 -147 C285 -207 338 -236 441 -217 L454 -146 C398 -157 370 -148 370 -117 C370 -90 392 -51 436 0 L438 0 L455 109 L189 109 L217 281 L453 281 L470 390 L234 390 L260 551 L510 551 L528 660 Z " />
<glyph glyph-name="eogonek" unicode="&#x119;" horiz-adv-x="478" d="M437 196 C442 224 445 256 445 293 C445 398 388 456 279 456 C206 456 148 430 103 378 C58 325 36 257 36 174 C36 51 99 -11 225 -11 C250 -11 276 -9 305 -6 C264 -61 244 -108 244 -147 C244 -206 296 -235 399 -216 L412 -145 C356 -157 328 -148 328 -117 C328 -90 354 -46 405 13 C406 13 406 14 407 14 L391 100 C336 86 286 79 242 79 C173 79 149 104 149 176 C149 180 150 191 150 196 L437 196 L437 196 Z M270 367 C315 367 338 343 338 296 C338 287 337 279 336 274 L164 274 C185 336 221 367 270 367 L270 367 Z " />
<glyph glyph-name="Ecaron" unicode="&#x11a;" horiz-adv-x="523" d="M506 835 L414 834 L364 757 L329 834 L242 834 L305 702 L411 702 L506 835 Z M528 660 L154 660 L50 0 L438 0 L455 109 L189 109 L217 281 L453 281 L470 390 L234 390 L260 551 L510 551 L528 660 Z " />
<glyph glyph-name="ecaron" unicode="&#x11b;" horiz-adv-x="478" d="M448 660 L357 660 L300 575 L263 660 L175 660 L241 520 L347 520 L448 660 Z M279 456 C206 456 148 430 103 378 C58 325 36 257 36 174 C36 51 99 -11 225 -11 C287 -11 348 -3 407 14 L391 100 C336 86 286 79 242 79 C173 79 149 104 149 176 C149 180 150 191 150 196 L437 196 C442 224 445 256 445 293 C445 398 388 456 279 456 L279 456 Z M270 367 C315 367 338 343 338 296 C338 287 337 279 336 274 L164 274 C185 336 221 367 270 367 L270 367 Z " />
<glyph glyph-name="Gbreve" unicode="&#x11e;" horiz-adv-x="675" d="M504 831 C494 791 471 771 434 771 C400 771 384 791 385 831 L291 831 C288 756 340 699 431 699 C514 699 579 752 598 831 L504 831 Z M450 680 C199 680 62 534 62 283 C62 172 87 93 136 47 C185 1 257 -22 352 -22 C413 -22 485 -14 570 1 L619 312 L501 312 L466 97 C433 90 402 87 372 87 C303 87 254 102 227 132 C200 162 186 213 186 284 C186 475 273 570 447 570 C496 570 555 562 624 547 L648 656 C583 672 517 680 450 680 L450 680 Z " />
<glyph glyph-name="gbreve" unicode="&#x11f;" horiz-adv-x="520" d="M311 521 C396 521 463 573 480 660 L387 660 C378 615 354 593 317 593 C280 593 261 617 266 660 L173 660 C161 577 222 521 311 521 L311 521 Z M327 455 C234 455 158 422 117 378 C96 356 79 331 66 302 C39 244 33 197 33 149 C33 48 81 -12 173 -12 C226 -12 272 10 311 53 L296 -45 C289 -99 246 -126 166 -126 C127 -126 83 -120 35 -108 L11 -207 C72 -222 128 -229 180 -229 C314 -229 389 -175 406 -66 L486 439 C423 450 370 455 327 455 L327 455 Z M213 82 C169 82 147 110 147 166 C147 217 162 263 191 302 C220 341 261 360 314 360 C319 360 334 359 358 358 L324 138 C288 101 251 82 213 82 L213 82 Z " />
<glyph glyph-name="Gdotaccent" unicode="&#x120;" horiz-adv-x="675" d="M452 838 C407 838 378 809 378 765 C378 732 399 709 434 709 C479 709 509 737 509 780 C509 815 487 838 452 838 L452 838 Z M450 680 C199 680 62 534 62 283 C62 172 87 93 136 47 C185 1 257 -22 352 -22 C413 -22 485 -14 570 1 L619 312 L501 312 L466 97 C433 90 402 87 372 87 C303 87 254 102 227 132 C200 162 186 213 186 284 C186 475 273 570 447 570 C496 570 555 562 624 547 L648 656 C583 672 517 680 450 680 L450 680 Z " />
<glyph glyph-name="gdotaccent" unicode="&#x121;" horiz-adv-x="520" d="M319 526 C359 526 395 557 396 596 C397 629 371 657 338 657 C299 657 264 624 263 584 C262 552 287 526 319 526 L319 526 Z M327 455 C234 455 158 422 117 378 C96 356 79 331 66 302 C39 244 33 197 33 149 C33 48 81 -12 173 -12 C226 -12 272 10 311 53 L296 -45 C289 -99 246 -126 166 -126 C127 -126 83 -120 35 -108 L11 -207 C72 -222 128 -229 180 -229 C314 -229 389 -175 406 -66 L486 439 C423 450 370 455 327 455 L327 455 Z M213 82 C169 82 147 110 147 166 C147 217 162 263 191 302 C220 341 261 360 314 360 C319 360 334 359 358 358 L324 138 C288 101 251 82 213 82 L213 82 Z " />
<glyph glyph-name="Gcommaaccent" unicode="&#x122;" horiz-adv-x="675" d="M450 680 C199 680 62 534 62 283 C62 172 87 93 136 47 C185 1 257 -22 352 -22 C413 -22 485 -14 570 1 L619 312 L501 312 L466 97 C433 90 402 87 372 87 C303 87 254 102 227 132 C200 162 186 213 186 284 C186 475 273 570 447 570 C496 570 555 562 624 547 L648 656 C583 672 517 680 450 680 L450 680 Z M359 -56 C346 -56 331 -59 313 -66 L320 -161 L281 -237 L339 -237 L380 -183 C403 -154 415 -130 415 -111 C415 -78 394 -56 359 -56 L359 -56 Z " />
<glyph glyph-name="gcommaaccent" unicode="&#x123;" horiz-adv-x="520" d="M312 502 C325 502 340 505 358 512 L351 607 L390 683 L332 683 L291 629 C268 600 256 576 256 557 C256 524 277 502 312 502 L312 502 Z M327 455 C234 455 158 422 117 378 C96 356 79 331 66 302 C39 244 33 197 33 149 C33 48 81 -12 173 -12 C226 -12 272 10 311 53 L296 -45 C289 -99 246 -126 166 -126 C127 -126 83 -120 35 -108 L11 -207 C72 -222 128 -229 180 -229 C314 -229 389 -175 406 -66 L486 439 C423 450 370 455 327 455 L327 455 Z M213 82 C169 82 147 110 147 166 C147 217 162 263 191 302 C220 341 261 360 314 360 C319 360 334 359 358 358 L324 138 C288 101 251 82 213 82 L213 82 Z " />
<glyph glyph-name="Hbar" unicode="&#x126;" horiz-adv-x="717" d="M689 584 L701 660 L578 660 L566 584 L263 584 L275 660 L154 660 L142 584 L104 584 L90 493 L128 493 L50 0 L171 0 L215 278 L518 278 L474 0 L597 0 L675 493 L714 493 L729 584 L689 584 Z M232 389 L249 493 L552 493 L535 389 L232 389 Z " />
<glyph glyph-name="hbar" unicode="&#x127;" horiz-adv-x="533" d="M361 456 C306 456 256 437 212 398 L234 541 L358 541 L371 616 L246 616 L253 660 L138 660 L131 616 L80 616 L68 541 L120 541 L34 0 L149 0 L198 313 C233 343 268 358 304 358 C349 358 368 341 361 302 L313 0 L428 0 L483 342 C495 413 448 456 361 456 L361 456 Z " />
<glyph glyph-name="Imacron" unicode="&#x12a;" horiz-adv-x="293" d="M91 818 L75 727 L380 728 L395 818 L91 818 Z M154 660 L50 0 L173 0 L277 660 L154 660 Z " />
<glyph glyph-name="imacron" unicode="&#x12b;" horiz-adv-x="257" d="M34 632 L18 541 L323 542 L338 632 L34 632 Z M105 446 L35 0 L153 0 L223 446 L105 446 Z " />
<glyph glyph-name="Iogonek" unicode="&#x12e;" horiz-adv-x="293" d="M107 -117 C107 -90 129 -51 173 0 L277 660 L154 660 L50 0 L88 0 C44 -59 22 -108 22 -147 C22 -207 75 -236 178 -217 L191 -146 C135 -157 107 -148 107 -117 L107 -117 Z " />
<glyph glyph-name="iogonek" unicode="&#x12f;" horiz-adv-x="257" d="M195 657 C156 657 121 624 120 584 C119 552 144 526 176 526 C216 526 252 557 253 596 C254 629 228 657 195 657 L195 657 Z M153 0 L223 446 L105 446 L35 0 L66 0 C22 -59 0 -108 0 -147 C0 -207 53 -236 156 -217 L169 -146 C112 -157 84 -148 85 -117 C85 -89 107 -50 152 0 L153 0 Z " />
<glyph glyph-name="Idot" unicode="&#x130;" horiz-adv-x="293" d="M240 838 C195 838 166 809 166 765 C166 732 187 709 222 709 C267 709 297 737 297 780 C297 815 275 838 240 838 L240 838 Z M154 660 L50 0 L173 0 L277 660 L154 660 Z " />
<glyph glyph-name="dotlessi" unicode="&#x131;" horiz-adv-x="257" d="M105 446 L35 0 L153 0 L223 446 L105 446 Z " />
<glyph glyph-name="IJ" unicode="&#x132;" horiz-adv-x="590" d="M154 660 L50 0 L173 0 L277 660 L154 660 Z M452 660 L347 0 C342 -29 332 -56 318 -79 C304 -102 281 -129 248 -162 L334 -245 C379 -204 410 -166 429 -131 C448 -96 462 -50 471 8 L575 660 L452 660 Z " />
<glyph glyph-name="ij" unicode="&#x133;" horiz-adv-x="527" d="M253 596 C254 629 228 657 195 657 C156 657 121 624 120 584 C119 552 144 526 176 526 C216 526 252 557 253 596 L253 596 Z M520 596 C521 629 495 657 462 657 C423 657 388 624 387 584 C386 552 411 526 443 526 C483 526 519 557 520 596 L520 596 Z M105 446 L35 0 L153 0 L223 446 L105 446 Z M371 446 L301 4 C294 -49 268 -92 196 -164 L277 -249 C325 -204 359 -165 378 -131 C397 -97 411 -52 420 5 L489 446 L371 446 Z " />
<glyph glyph-name="Kcommaaccent" unicode="&#x136;" horiz-adv-x="600" d="M50 0 L173 0 L277 660 L154 660 L50 0 Z M491 660 L233 339 L417 0 L561 0 L372 340 L638 660 L491 660 Z M271 -56 C258 -56 243 -59 225 -66 L232 -161 L193 -237 L251 -237 L292 -183 C315 -154 327 -130 327 -111 C327 -78 306 -56 271 -56 L271 -56 Z " />
<glyph glyph-name="kcommaaccent" unicode="&#x137;" horiz-adv-x="492" d="M35 0 L153 0 L257 660 L139 660 L35 0 Z M366 446 L203 253 L321 0 L456 0 L329 247 L505 446 L366 446 Z M232 -56 C219 -56 204 -59 186 -66 L193 -161 L154 -237 L212 -237 L253 -183 C276 -154 288 -130 288 -111 C288 -78 267 -56 232 -56 L232 -56 Z " />
<glyph glyph-name="Lacute" unicode="&#x139;" horiz-adv-x="477" d="M341 839 L236 839 L181 707 L272 707 L341 839 Z M154 660 L49 0 L438 0 L455 113 L192 113 L280 660 L154 660 Z " />
<glyph glyph-name="lacute" unicode="&#x13a;" horiz-adv-x="257" d="M342 867 L236 867 L182 735 L273 735 L342 867 Z M140 660 L34 0 L154 0 L258 660 L140 660 Z " />
<glyph glyph-name="Lcommaaccent" unicode="&#x13b;" horiz-adv-x="477" d="M154 660 L49 0 L438 0 L455 113 L192 113 L280 660 L154 660 Z M249 -56 C236 -56 221 -59 203 -66 L210 -161 L171 -237 L229 -237 L270 -183 C293 -154 305 -130 305 -111 C305 -78 284 -56 249 -56 L249 -56 Z " />
<glyph glyph-name="lcommaaccent" unicode="&#x13c;" horiz-adv-x="257" d="M140 660 L34 0 L154 0 L258 660 L140 660 Z M118 -56 C105 -56 90 -59 72 -66 L79 -161 L40 -237 L98 -237 L139 -183 C162 -154 174 -130 174 -111 C174 -78 153 -56 118 -56 L118 -56 Z " />
<glyph glyph-name="Lcaron" unicode="&#x13d;" horiz-adv-x="477" d="M154 660 L49 0 L438 0 L455 113 L192 113 L280 660 L154 660 Z M361 660 L331 483 L408 483 L459 660 L361 660 Z " />
<glyph glyph-name="lcaron" unicode="&#x13e;" horiz-adv-x="257" d="M140 660 L34 0 L154 0 L258 660 L140 660 Z M321 660 L291 483 L368 483 L419 660 L321 660 Z " />
<glyph glyph-name="Ldot" unicode="&#x13f;" horiz-adv-x="485" d="M154 660 L49 0 L438 0 L455 113 L192 113 L280 660 L154 660 Z M405 283 C460 283 487 328 487 371 C487 415 456 441 413 441 C361 441 330 403 330 356 C330 311 361 283 405 283 L405 283 Z " />
<glyph glyph-name="ldot" unicode="&#x140;" horiz-adv-x="364" d="M140 660 L34 0 L154 0 L258 660 L140 660 Z M321 251 C370 251 413 292 413 341 C413 381 384 411 343 411 C294 411 252 371 252 320 C252 281 281 251 321 251 L321 251 Z " />
<glyph glyph-name="Lslash" unicode="&#x141;" horiz-adv-x="518" d="M262 312 L389 363 L405 467 L279 416 L318 660 L196 660 L149 364 L20 312 L6 207 L132 259 L91 0 L479 0 L495 110 L230 110 L262 312 Z " />
<glyph glyph-name="lslash" unicode="&#x142;" horiz-adv-x="326" d="M264 443 L298 660 L179 660 L136 393 L37 353 L21 253 L120 292 L74 0 L194 0 L248 342 L345 380 L360 480 L264 443 Z " />
<glyph glyph-name="Nacute" unicode="&#x143;" horiz-adv-x="733" d="M448 839 L393 707 L484 707 L553 839 L448 839 Z M521 190 C517 162 514 141 513 126 L501 169 L338 660 L151 660 L47 0 L171 0 L242 448 C247 473 250 498 252 525 L426 0 L616 0 L720 660 L595 660 L521 190 Z " />
<glyph glyph-name="nacute" unicode="&#x144;" horiz-adv-x="533" d="M320 660 L262 521 L353 521 L425 660 L320 660 Z M367 457 C304 457 251 433 206 385 L215 446 L105 446 L34 0 L150 0 L198 308 C233 343 270 361 307 361 C350 361 368 342 362 303 L314 0 L430 0 L484 344 C495 415 451 457 367 457 L367 457 Z " />
<glyph glyph-name="Ncommaaccent" unicode="&#x145;" horiz-adv-x="733" d="M521 190 C517 162 514 141 513 126 L501 169 L338 660 L151 660 L47 0 L171 0 L242 448 C247 473 250 498 252 525 L426 0 L616 0 L720 660 L595 660 L521 190 Z M331 -56 C318 -56 303 -59 285 -66 L292 -161 L253 -237 L311 -237 L352 -183 C375 -154 387 -130 387 -111 C387 -78 366 -56 331 -56 L331 -56 Z " />
<glyph glyph-name="ncommaaccent" unicode="&#x146;" horiz-adv-x="533" d="M367 457 C304 457 251 433 206 385 L215 446 L105 446 L34 0 L150 0 L198 308 C233 343 270 361 307 361 C350 361 368 342 362 303 L314 0 L430 0 L484 344 C495 415 451 457 367 457 L367 457 Z M232 -56 C219 -56 204 -59 186 -66 L193 -161 L154 -237 L212 -237 L253 -183 C276 -154 288 -130 288 -111 C288 -78 267 -56 232 -56 L232 -56 Z " />
<glyph glyph-name="Ncaron" unicode="&#x147;" horiz-adv-x="733" d="M586 835 L494 834 L444 757 L409 834 L322 834 L385 702 L491 702 L586 835 Z M521 190 C517 162 514 141 513 126 L501 169 L338 660 L151 660 L47 0 L171 0 L242 448 C247 473 250 498 252 525 L426 0 L616 0 L720 660 L595 660 L521 190 Z " />
<glyph glyph-name="ncaron" unicode="&#x148;" horiz-adv-x="533" d="M465 660 L374 660 L317 575 L280 660 L192 660 L258 520 L364 520 L465 660 Z M367 457 C304 457 251 433 206 385 L215 446 L105 446 L34 0 L150 0 L198 308 C233 343 270 361 307 361 C350 361 368 342 362 303 L314 0 L430 0 L484 344 C495 415 451 457 367 457 L367 457 Z " />
<glyph glyph-name="Eng" unicode="&#x14a;" horiz-adv-x="733" d="M595 660 L521 190 C517 162 514 141 513 126 L501 169 L338 660 L151 660 L47 0 L171 0 L242 448 C247 473 250 498 252 525 L426 0 L498 0 C493 -52 466 -92 393 -167 L474 -251 C521 -207 555 -169 574 -136 C593 -103 606 -62 614 -12 L616 0 L720 660 L595 660 Z " />
<glyph glyph-name="eng" unicode="&#x14b;" horiz-adv-x="532" d="M367 457 C304 457 251 433 206 385 L215 446 L105 446 L34 0 L150 0 L198 308 C233 343 270 361 307 361 C350 361 368 342 362 303 L313 0 C305 -55 280 -96 208 -169 L288 -252 C336 -207 369 -168 388 -135 C406 -102 420 -56 429 1 L484 344 C496 413 451 457 367 457 L367 457 Z " />
<glyph glyph-name="Omacron" unicode="&#x14c;" horiz-adv-x="752" d="M312 818 L296 727 L601 728 L616 818 L312 818 Z M430 675 C314 675 224 640 159 569 C94 498 62 403 62 286 C62 83 167 -16 356 -16 C471 -16 561 19 626 88 C691 157 723 251 723 368 C723 573 621 675 430 675 L430 675 Z M427 566 C538 566 592 506 592 369 C592 200 508 94 359 94 C248 94 194 154 194 287 C194 456 278 566 427 566 L427 566 Z " />
<glyph glyph-name="omacron" unicode="&#x14d;" horiz-adv-x="526" d="M167 632 L151 541 L456 542 L471 632 L167 632 Z M296 456 C217 456 154 430 107 379 C60 328 37 263 37 185 C37 57 105 -10 233 -10 C313 -10 376 14 422 63 C467 112 490 175 490 254 C490 387 420 456 296 456 L296 456 Z M243 85 C182 85 151 122 151 195 C151 291 203 361 284 361 C344 361 374 323 374 248 C374 149 326 85 243 85 L243 85 Z " />
<glyph glyph-name="Ohungarumlaut" unicode="&#x150;" horiz-adv-x="752" d="M487 834 L382 834 L327 702 L419 702 L487 834 Z M638 834 L533 834 L478 702 L570 702 L638 834 Z M430 675 C314 675 224 640 159 569 C94 498 62 403 62 286 C62 83 167 -16 356 -16 C471 -16 561 19 626 88 C691 157 723 251 723 368 C723 573 621 675 430 675 L430 675 Z M427 566 C538 566 592 506 592 369 C592 200 508 94 359 94 C248 94 194 154 194 287 C194 456 278 566 427 566 L427 566 Z " />
<glyph glyph-name="ohungarumlaut" unicode="&#x151;" horiz-adv-x="526" d="M243 660 L185 521 L274 521 L346 660 L243 660 Z M394 660 L336 521 L425 521 L497 660 L394 660 Z M296 456 C217 456 154 430 107 379 C60 328 37 263 37 185 C37 57 105 -10 233 -10 C313 -10 376 14 422 63 C467 112 490 175 490 254 C490 387 420 456 296 456 L296 456 Z M243 85 C182 85 151 122 151 195 C151 291 203 361 284 361 C344 361 374 323 374 248 C374 149 326 85 243 85 L243 85 Z " />
<glyph glyph-name="OE" unicode="&#x152;" horiz-adv-x="929" d="M934 660 L564 660 C529 667 487 671 439 671 C174 671 60 489 60 276 C60 85 158 -11 355 -11 C395 -11 433 -7 470 0 L843 0 L861 109 L595 109 L622 281 L859 281 L876 390 L640 390 L665 551 L916 551 L934 660 Z M192 290 C192 370 211 436 250 487 C289 538 350 563 433 563 C470 563 506 558 542 549 L473 109 C436 100 399 96 364 96 C249 96 192 151 192 290 L192 290 Z " />
<glyph glyph-name="oe" unicode="&#x153;" horiz-adv-x="803" d="M759 196 C764 224 767 256 767 293 C767 398 711 456 602 456 C536 456 482 432 440 385 C409 432 357 456 286 456 C211 456 150 430 105 379 C60 328 37 263 37 184 C37 55 102 -10 232 -10 C301 -10 346 10 394 58 C421 12 472 -11 548 -11 C611 -11 671 -3 729 14 L714 100 C659 86 610 79 565 79 C496 79 472 104 472 176 C472 185 472 191 473 196 L759 196 L759 196 Z M593 367 C638 367 661 343 661 296 C661 292 660 285 659 274 L487 274 C507 336 542 367 593 367 L593 367 Z M242 85 C181 85 150 122 150 197 C150 296 201 361 282 361 C342 361 371 327 371 248 C371 148 323 85 242 85 L242 85 Z " />
<glyph glyph-name="Racute" unicode="&#x154;" horiz-adv-x="596" d="M338 839 L283 707 L374 707 L443 839 L338 839 Z M427 269 C511 314 553 386 553 483 C553 603 477 661 342 661 C268 661 206 660 156 657 L50 0 L171 0 L208 234 C229 232 249 231 268 231 C286 231 303 232 320 234 L418 0 L557 0 L427 269 Z M259 555 C270 556 286 556 309 556 C392 556 423 531 423 466 C423 383 370 336 275 336 C260 336 244 337 225 339 L259 555 Z " />
<glyph glyph-name="racute" unicode="&#x155;" horiz-adv-x="348" d="M355 660 L250 660 L192 521 L283 521 L355 660 Z M376 451 C364 453 350 454 333 454 C282 454 242 435 212 396 L220 446 L105 446 L35 0 L154 0 L203 304 C232 335 274 350 329 350 C338 350 348 349 360 348 L376 451 Z " />
<glyph glyph-name="Rcommaaccent" unicode="&#x156;" horiz-adv-x="596" d="M427 269 C511 314 553 386 553 483 C553 603 477 661 342 661 C268 661 206 660 156 657 L50 0 L171 0 L208 234 C229 232 249 231 268 231 C286 231 303 232 320 234 L418 0 L557 0 L427 269 Z M259 555 C270 556 286 556 309 556 C392 556 423 531 423 466 C423 383 370 336 275 336 C260 336 244 337 225 339 L259 555 Z M248 -56 C235 -56 220 -59 202 -66 L209 -161 L170 -237 L228 -237 L269 -183 C292 -154 304 -130 304 -111 C304 -78 283 -56 248 -56 L248 -56 Z " />
<glyph glyph-name="rcommaaccent" unicode="&#x157;" horiz-adv-x="348" d="M376 451 C364 453 350 454 333 454 C282 454 242 435 212 396 L220 446 L105 446 L35 0 L154 0 L203 304 C232 335 274 350 329 350 C338 350 348 349 360 348 L376 451 Z M89 -56 C76 -56 61 -59 43 -66 L50 -161 L11 -237 L69 -237 L110 -183 C133 -154 145 -130 145 -111 C145 -78 124 -56 89 -56 L89 -56 Z " />
<glyph glyph-name="Rcaron" unicode="&#x158;" horiz-adv-x="596" d="M476 835 L384 834 L334 757 L299 834 L212 834 L275 702 L381 702 L476 835 Z M427 269 C511 314 553 386 553 483 C553 603 477 661 342 661 C268 661 206 660 156 657 L50 0 L171 0 L208 234 C229 232 249 231 268 231 C286 231 303 232 320 234 L418 0 L557 0 L427 269 Z M259 555 C270 556 286 556 309 556 C392 556 423 531 423 466 C423 383 370 336 275 336 C260 336 244 337 225 339 L259 555 Z " />
<glyph glyph-name="rcaron" unicode="&#x159;" horiz-adv-x="348" d="M395 660 L304 660 L247 575 L210 660 L122 660 L188 520 L294 520 L395 660 Z M220 446 L105 446 L35 0 L154 0 L203 304 C232 335 274 350 329 350 C338 350 348 349 360 348 L376 451 C364 453 350 454 333 454 C282 454 242 435 212 396 L220 446 Z " />
<glyph glyph-name="Sacute" unicode="&#x15a;" horiz-adv-x="482" d="M418 839 L313 839 L258 707 L349 707 L418 839 Z M294 670 C166 670 86 597 86 484 C86 441 93 412 121 378 C135 361 146 348 155 340 C164 331 180 317 203 296 C246 259 275 233 288 218 C301 203 307 189 307 174 C307 134 271 100 204 100 C169 100 124 107 67 121 L43 12 C104 -3 156 -10 200 -10 C274 -10 331 8 372 45 C412 82 432 128 432 183 C432 217 422 247 401 274 C390 288 359 318 308 364 C264 403 237 430 226 443 C215 456 210 470 210 485 C210 536 239 562 298 562 C329 562 372 555 427 542 L451 646 C395 662 343 670 294 670 L294 670 Z " />
<glyph glyph-name="sacute" unicode="&#x15b;" horiz-adv-x="381" d="M349 660 L244 660 L186 521 L277 521 L349 660 Z M212 457 C116 457 57 396 57 315 C57 183 220 189 220 130 C220 107 201 88 164 88 C133 88 95 95 49 109 L25 14 C78 -2 125 -10 164 -10 C269 -10 332 41 332 129 C332 273 164 254 164 320 C164 346 183 359 221 359 C250 359 288 352 333 339 L355 434 C297 449 249 457 212 457 L212 457 Z " />
<glyph glyph-name="Scedilla" unicode="&#x15e;" horiz-adv-x="482" d="M308 364 C264 403 237 430 226 443 C215 456 210 470 210 485 C210 536 239 562 298 562 C329 562 372 555 427 542 L451 646 C395 662 343 670 294 670 C166 670 86 597 86 484 C86 441 93 412 121 378 C135 361 146 348 155 340 C164 331 180 317 203 296 C246 259 275 233 288 218 C301 203 307 189 307 174 C307 134 271 100 204 100 C169 100 124 107 67 121 L43 12 C81 3 117 -4 150 -7 C150 -11 148 -19 148 -23 C145 -48 151 -63 175 -82 C196 -97 206 -109 205 -118 C202 -137 185 -146 152 -146 C139 -146 130 -145 123 -144 L112 -213 C120 -216 134 -217 154 -217 C231 -217 274 -186 283 -123 C288 -93 275 -67 245 -45 C232 -35 226 -23 227 -9 C359 0 432 80 432 183 C432 217 422 247 401 274 C390 288 359 318 308 364 L308 364 Z " />
<glyph glyph-name="scedilla" unicode="&#x15f;" horiz-adv-x="381" d="M221 359 C250 359 288 352 333 339 L355 434 C297 449 249 457 212 457 C116 457 57 396 57 315 C57 183 220 189 220 130 C220 107 201 88 164 88 C133 88 95 95 49 109 L25 14 C54 5 83 -1 112 -6 L109 -23 C106 -48 112 -63 136 -82 C157 -97 167 -109 166 -118 C163 -137 146 -146 113 -146 C100 -146 91 -145 84 -144 L73 -213 C81 -216 95 -217 115 -217 C192 -217 235 -186 244 -123 C249 -93 236 -67 206 -45 C193 -35 187 -23 188 -9 C279 -1 332 48 332 129 C332 273 164 254 164 320 C164 346 183 359 221 359 L221 359 Z " />
<glyph glyph-name="Scaron" unicode="&#x160;" horiz-adv-x="482" d="M451 835 L359 834 L309 757 L274 834 L187 834 L250 702 L356 702 L451 835 Z M298 562 C329 562 372 555 427 542 L451 646 C395 662 343 670 294 670 C166 670 86 597 86 484 C86 441 93 412 121 378 C135 361 146 348 155 340 C164 331 180 317 203 296 C246 259 275 233 288 218 C301 203 307 189 307 174 C307 134 271 100 204 100 C169 100 124 107 67 121 L43 12 C104 -3 156 -10 200 -10 C274 -10 331 8 372 45 C412 82 432 128 432 183 C432 217 422 247 401 274 C390 288 359 318 308 364 C264 403 237 430 226 443 C215 456 210 470 210 485 C210 536 239 562 298 562 L298 562 Z " />
<glyph glyph-name="scaron" unicode="&#x161;" horiz-adv-x="381" d="M389 660 L298 660 L241 575 L204 660 L116 660 L182 520 L288 520 L389 660 Z M57 315 C57 183 220 189 220 130 C220 107 201 88 164 88 C133 88 95 95 49 109 L25 14 C78 -2 125 -10 164 -10 C269 -10 332 41 332 129 C332 273 164 254 164 320 C164 346 183 359 221 359 C250 359 288 352 333 339 L355 434 C297 449 249 457 212 457 C116 457 57 396 57 315 L57 315 Z " />
<glyph glyph-name="uni0162" unicode="&#x162;" horiz-adv-x="561" d="M310 0 L397 551 L610 551 L627 660 L73 660 L57 551 L274 551 L186 0 L207 0 C206 -5 204 -12 203 -23 C200 -48 206 -63 230 -82 C251 -97 261 -109 260 -118 C257 -137 240 -146 207 -146 C194 -146 185 -145 178 -144 L167 -213 C175 -216 189 -217 209 -217 C286 -217 329 -186 338 -123 C343 -93 330 -67 300 -45 C286 -34 280 -19 283 -2 L283 0 L310 0 Z " />
<glyph glyph-name="uni0163" unicode="&#x163;" horiz-adv-x="343" d="M340 348 L356 446 L238 446 L260 584 L148 584 L125 446 L52 446 L36 348 L109 348 L72 120 C61 57 78 17 125 1 C124 -4 122 -12 121 -23 C118 -48 124 -63 148 -82 C169 -97 179 -109 178 -118 C175 -137 158 -146 125 -146 C112 -146 103 -145 96 -144 L85 -213 C93 -216 107 -217 127 -217 C204 -217 247 -186 256 -123 C261 -93 248 -67 218 -45 C205 -34 199 -22 200 -7 C237 -5 271 -1 301 6 L292 101 C266 97 246 95 231 95 C194 95 186 106 191 146 L222 348 L340 348 Z " />
<glyph glyph-name="Tcaron" unicode="&#x164;" horiz-adv-x="561" d="M504 835 L412 834 L362 757 L327 834 L240 834 L303 702 L409 702 L504 835 Z M73 660 L57 551 L274 551 L186 0 L310 0 L397 551 L610 551 L627 660 L73 660 Z " />
<glyph glyph-name="tcaron" unicode="&#x165;" horiz-adv-x="343" d="M304 483 L381 483 L432 660 L334 660 L304 483 Z M148 584 L125 446 L52 446 L36 348 L109 348 L72 120 C58 35 94 -7 181 -7 C222 -7 262 -3 301 6 L292 101 C266 97 246 95 231 95 C194 95 186 106 191 146 L222 348 L340 348 L356 446 L238 446 L260 584 L148 584 Z " />
<glyph glyph-name="Tbar" unicode="&#x166;" horiz-adv-x="561" d="M627 660 L73 660 L57 551 L274 551 L245 371 L156 371 L140 280 L231 280 L186 0 L310 0 L355 281 L445 281 L460 371 L369 371 L397 551 L610 551 L627 660 Z " />
<glyph glyph-name="tbar" unicode="&#x167;" horiz-adv-x="343" d="M356 446 L238 446 L260 584 L148 584 L125 446 L52 446 L36 348 L109 348 L100 292 L34 292 L21 217 L88 217 L72 120 C58 35 94 -7 181 -7 C222 -7 262 -3 301 6 L292 101 C266 97 246 95 231 95 C194 95 186 106 191 146 L202 217 L309 217 L321 292 L214 292 L222 348 L340 348 L356 446 Z " />
<glyph glyph-name="Umacron" unicode="&#x16a;" horiz-adv-x="714" d="M299 818 L283 727 L588 728 L603 818 L299 818 Z M573 660 L502 220 C494 173 479 141 456 125 C433 109 393 101 338 101 C231 101 196 137 211 224 L280 660 L154 660 L82 200 C59 49 142 -11 330 -12 C426 -13 496 3 541 35 C586 66 613 117 624 188 L697 660 L573 660 Z " />
<glyph glyph-name="umacron" unicode="&#x16b;" horiz-adv-x="530" d="M169 632 L153 541 L458 542 L473 632 L169 632 Z M330 133 C296 101 262 85 228 85 C183 85 165 109 173 158 L221 446 L103 446 L50 108 C38 33 83 -11 170 -11 C230 -11 281 12 324 58 L315 0 L425 0 L496 446 L379 446 L330 133 Z " />
<glyph glyph-name="Uring" unicode="&#x16e;" horiz-adv-x="714" d="M448 869 C389 869 341 822 341 762 C341 711 377 674 428 674 C487 674 535 721 535 781 C535 833 500 869 448 869 L448 869 Z M435 729 C414 729 398 744 398 767 C398 794 417 813 442 813 C467 813 479 800 479 774 C479 747 460 729 435 729 L435 729 Z M573 660 L502 220 C494 173 479 141 456 125 C433 109 393 101 338 101 C231 101 196 137 211 224 L280 660 L154 660 L82 200 C59 49 142 -11 330 -12 C426 -13 496 3 541 35 C586 66 613 117 624 188 L697 660 L573 660 Z " />
<glyph glyph-name="uring" unicode="&#x16f;" horiz-adv-x="530" d="M304 502 C360 502 411 549 416 609 C421 662 382 707 330 707 C266 707 215 655 214 594 C214 542 252 502 304 502 L304 502 Z M273 600 C274 627 296 648 321 648 C342 648 360 632 359 608 C358 580 336 560 312 560 C289 560 272 577 273 600 L273 600 Z M330 133 C296 101 262 85 228 85 C183 85 165 109 173 158 L221 446 L103 446 L50 108 C38 33 83 -11 170 -11 C230 -11 281 12 324 58 L315 0 L425 0 L496 446 L379 446 L330 133 Z " />
<glyph glyph-name="Uhungarumlaut" unicode="&#x170;" horiz-adv-x="714" d="M474 834 L369 834 L314 702 L406 702 L474 834 Z M625 834 L520 834 L465 702 L557 702 L625 834 Z M573 660 L502 220 C494 173 479 141 456 125 C433 109 393 101 338 101 C231 101 196 137 211 224 L280 660 L154 660 L82 200 C59 49 142 -11 330 -12 C426 -13 496 3 541 35 C586 66 613 117 624 188 L697 660 L573 660 Z " />
<glyph glyph-name="uhungarumlaut" unicode="&#x171;" horiz-adv-x="530" d="M245 660 L187 521 L276 521 L348 660 L245 660 Z M499 660 L396 660 L338 521 L427 521 L499 660 Z M330 133 C296 101 262 85 228 85 C183 85 165 109 173 158 L221 446 L103 446 L50 108 C38 33 83 -11 170 -11 C230 -11 281 12 324 58 L315 0 L425 0 L496 446 L379 446 L330 133 L330 133 Z " />
<glyph glyph-name="Uogonek" unicode="&#x172;" horiz-adv-x="714" d="M502 220 C494 173 479 141 456 125 C433 109 393 101 338 101 C231 101 196 137 211 224 L280 660 L154 660 L82 200 C59 59 132 -3 295 -11 C256 -65 236 -110 236 -147 C236 -207 289 -236 392 -217 L405 -146 C349 -157 321 -148 321 -117 C321 -92 340 -57 378 -11 C535 -2 604 59 624 188 L697 660 L573 660 L502 220 Z " />
<glyph glyph-name="uogonek" unicode="&#x173;" horiz-adv-x="530" d="M496 446 L379 446 L330 133 C296 101 262 85 228 85 C183 85 165 109 173 158 L221 446 L103 446 L50 108 C38 33 83 -11 170 -11 C230 -11 281 12 324 58 L315 0 L316 0 C271 -59 249 -108 249 -147 C249 -207 302 -236 405 -217 L418 -146 C362 -157 334 -148 334 -117 C334 -90 356 -51 400 0 L425 0 L496 446 Z " />
<glyph glyph-name="Wcircumflex" unicode="&#x174;" horiz-adv-x="891" d="M565 702 L663 702 L587 834 L490 834 L374 702 L477 702 L533 783 L565 702 Z M642 146 L592 660 L440 660 L224 151 L208 660 L89 660 L117 0 L274 0 L492 515 L546 0 L702 0 L941 660 L818 660 L642 146 Z " />
<glyph glyph-name="wcircumflex" unicode="&#x175;" horiz-adv-x="721" d="M460 517 L558 517 L477 660 L368 660 L244 517 L347 517 L414 599 L460 517 Z M505 94 L479 446 L311 446 L175 95 L153 446 L37 446 L74 0 L241 0 L382 362 L406 0 L576 0 L749 446 L631 446 L505 94 Z " />
<glyph glyph-name="Ycircumflex" unicode="&#x176;" horiz-adv-x="600" d="M406 702 L504 702 L428 834 L331 834 L215 702 L318 702 L374 783 L406 702 Z M358 441 C338 415 326 399 321 392 L300 442 L208 660 L74 660 L242 280 L197 0 L325 0 L370 281 L666 660 L522 660 L358 441 Z " />
<glyph glyph-name="ycircumflex" unicode="&#x177;" horiz-adv-x="465" d="M326 517 L424 517 L343 660 L234 660 L110 517 L213 517 L280 599 L326 517 Z M228 171 C208 128 198 105 197 104 C196 129 194 152 192 171 L164 446 L38 446 L109 -2 C70 -63 17 -107 -48 -133 L-6 -233 C109 -184 195 -106 253 1 L494 446 L362 446 L228 171 Z " />
<glyph glyph-name="Ydieresis" unicode="&#x178;" horiz-adv-x="600" d="M266 709 C306 709 340 739 340 779 C340 814 316 838 281 838 C242 838 209 805 209 765 C209 732 231 709 266 709 L266 709 Z M461 709 C501 709 535 740 535 779 C535 814 511 838 476 838 C436 838 404 805 404 765 C404 732 428 709 461 709 L461 709 Z M358 441 C338 415 326 399 321 392 L300 442 L208 660 L74 660 L242 280 L197 0 L325 0 L370 281 L666 660 L522 660 L358 441 Z " />
<glyph glyph-name="Zacute" unicode="&#x179;" horiz-adv-x="552" d="M356 839 L301 707 L392 707 L461 839 L356 839 Z M98 660 L80 550 L418 550 L-7 84 L-20 0 L502 0 L518 110 L172 110 L592 575 L606 660 L98 660 Z " />
<glyph glyph-name="zacute" unicode="&#x17a;" horiz-adv-x="473" d="M285 660 L227 521 L318 521 L390 660 L285 660 Z M78 446 L65 347 L286 347 L22 88 L9 0 L392 0 L406 99 L184 99 L439 354 L453 446 L78 446 Z " />
<glyph glyph-name="Zdotaccent" unicode="&#x17b;" horiz-adv-x="552" d="M347 709 C392 709 422 737 422 780 C422 815 400 838 365 838 C320 838 291 809 291 765 C291 732 314 709 347 709 L347 709 Z M98 660 L80 550 L418 550 L-7 84 L-20 0 L502 0 L518 110 L172 110 L592 575 L606 660 L98 660 Z " />
<glyph glyph-name="zdotaccent" unicode="&#x17c;" horiz-adv-x="473" d="M277 526 C317 526 353 557 354 596 C355 629 329 657 296 657 C257 657 222 624 221 584 C220 552 245 526 277 526 L277 526 Z M78 446 L65 347 L286 347 L22 88 L9 0 L392 0 L406 99 L184 99 L439 354 L453 446 L78 446 Z " />
<glyph glyph-name="Zcaron" unicode="&#x17d;" horiz-adv-x="552" d="M494 835 L402 834 L352 757 L317 834 L230 834 L293 702 L399 702 L494 835 Z M98 660 L80 550 L418 550 L-7 84 L-20 0 L502 0 L518 110 L172 110 L592 575 L606 660 L98 660 Z " />
<glyph glyph-name="zcaron" unicode="&#x17e;" horiz-adv-x="473" d="M430 660 L339 660 L282 575 L245 660 L157 660 L223 520 L329 520 L430 660 Z M78 446 L65 347 L286 347 L22 88 L9 0 L392 0 L406 99 L184 99 L439 354 L453 446 L78 446 Z " />
<glyph glyph-name="florin" unicode="&#x192;" horiz-adv-x="468" d="M440 574 C463 574 489 569 519 560 L544 649 L528 654 C508 661 466 669 435 669 C336 669 274 616 249 511 L233 446 L139 446 L125 359 L212 359 L137 49 C125 1 103 -19 55 -19 C32 -19 5 -14 -24 -5 L-50 -94 L-34 -99 C-14 -106 28 -113 59 -113 C158 -113 220 -60 245 45 L322 359 L462 359 L476 446 L343 446 L358 507 C369 555 392 574 440 574 L440 574 Z " />
<glyph glyph-name="Scommaaccent" unicode="&#x218;" horiz-adv-x="482" d="M294 670 C166 670 86 597 86 484 C86 441 93 412 121 378 C135 361 146 348 155 340 C164 331 180 317 203 296 C246 259 275 233 288 218 C301 203 307 189 307 174 C307 134 271 100 204 100 C169 100 124 107 67 121 L43 12 C104 -3 156 -10 200 -10 C274 -10 331 8 372 45 C412 82 432 128 432 183 C432 217 422 247 401 274 C390 288 359 318 308 364 C264 403 237 430 226 443 C215 456 210 470 210 485 C210 536 239 562 298 562 C329 562 372 555 427 542 L451 646 C395 662 343 670 294 670 L294 670 Z M187 -56 C174 -56 159 -59 141 -66 L148 -161 L109 -237 L167 -237 L208 -183 C231 -154 243 -130 243 -111 C243 -78 222 -56 187 -56 L187 -56 Z " />
<glyph glyph-name="scommaaccent" unicode="&#x219;" horiz-adv-x="381" d="M212 457 C116 457 57 396 57 315 C57 183 220 189 220 130 C220 107 201 88 164 88 C133 88 95 95 49 109 L25 14 C78 -2 125 -10 164 -10 C269 -10 332 41 332 129 C332 273 164 254 164 320 C164 346 183 359 221 359 C250 359 288 352 333 339 L355 434 C297 449 249 457 212 457 L212 457 Z M148 -56 C135 -56 120 -59 102 -66 L109 -161 L70 -237 L128 -237 L169 -183 C192 -154 204 -130 204 -111 C204 -78 183 -56 148 -56 L148 -56 Z " />
<glyph glyph-name="uni021A" unicode="&#x21a;" horiz-adv-x="561" d="M73 660 L57 551 L274 551 L186 0 L310 0 L397 551 L610 551 L627 660 L73 660 Z M242 -56 C229 -56 214 -59 196 -66 L203 -161 L164 -237 L222 -237 L263 -183 C286 -154 298 -130 298 -111 C298 -78 277 -56 242 -56 L242 -56 Z " />
<glyph glyph-name="uni021B" unicode="&#x21b;" horiz-adv-x="343" d="M340 348 L356 446 L238 446 L260 584 L148 584 L125 446 L52 446 L36 348 L109 348 L72 120 C58 35 94 -7 181 -7 C222 -7 262 -3 301 6 L292 101 C266 97 246 95 231 95 C194 95 186 106 191 146 L222 348 L340 348 Z M160 -56 C147 -56 132 -59 114 -66 L121 -161 L82 -237 L140 -237 L181 -183 C204 -154 216 -130 216 -111 C216 -78 195 -56 160 -56 L160 -56 Z " />
<glyph glyph-name="uni0237" unicode="&#x237;" horiz-adv-x="273" d="M114 446 L44 4 C37 -49 11 -92 -61 -164 L20 -249 C68 -204 102 -165 121 -131 C140 -97 154 -52 163 5 L232 446 L114 446 Z " />
<glyph glyph-name="circumflex" unicode="&#x2c6;" horiz-adv-x="374" d="M309 660 L200 660 L76 517 L179 517 L246 599 L292 517 L390 517 L309 660 Z " />
<glyph glyph-name="caron" unicode="&#x2c7;" horiz-adv-x="333" d="M225 575 L187 660 L99 660 L165 520 L271 520 L372 660 L281 660 L225 575 Z " />
<glyph glyph-name="breve" unicode="&#x2d8;" horiz-adv-x="367" d="M313 660 C304 615 280 593 243 593 C206 593 187 617 192 660 L99 660 C87 577 148 521 237 521 C322 521 389 573 406 660 L313 660 Z " />
<glyph glyph-name="dotaccent" unicode="&#x2d9;" horiz-adv-x="193" d="M221 596 C222 629 196 657 163 657 C124 657 89 624 88 584 C87 552 112 526 144 526 C184 526 220 557 221 596 L221 596 Z " />
<glyph glyph-name="ring" unicode="&#x2da;" horiz-adv-x="261" d="M206 707 C142 707 91 655 90 594 C90 542 128 502 180 502 C236 502 287 549 292 609 C297 662 258 707 206 707 L206 707 Z M197 648 C218 648 236 632 235 608 C234 580 212 560 188 560 C165 560 148 577 149 600 C150 627 172 648 197 648 L197 648 Z " />
<glyph glyph-name="ogonek" unicode="&#x2db;" horiz-adv-x="229" d="M42 4 C-5 -57 -28 -107 -28 -147 C-28 -207 25 -236 128 -217 L141 -146 C85 -157 57 -148 57 -117 C57 -90 79 -51 123 0 L42 4 Z " />
<glyph glyph-name="tilde" unicode="&#x2dc;" horiz-adv-x="422" d="M398 642 C371 617 349 605 332 605 C319 605 297 611 264 624 C231 637 207 643 191 643 C159 643 125 625 88 588 L140 527 C161 550 181 561 200 561 C213 561 235 555 267 543 C298 530 322 524 337 524 C374 524 411 543 449 581 L398 642 L398 642 Z " />
<glyph glyph-name="hungarumlaut" unicode="&#x2dd;" horiz-adv-x="350" d="M135 660 L77 521 L166 521 L238 660 L135 660 Z M286 660 L228 521 L317 521 L389 660 L286 660 Z " />
<glyph glyph-name="gravecomb" unicode="&#x300;" d="M-76 521 L17 521 L-33 660 L-139 660 L-76 521 Z " />
<glyph glyph-name="acutecomb" unicode="&#x301;" d="M39 660 L-66 660 L-124 521 L-33 521 L39 660 Z " />
<glyph glyph-name="uni0302" unicode="&#x302;" d="M-65 660 L-174 660 L-298 517 L-195 517 L-128 599 L-82 517 L16 517 L-65 660 Z " />
<glyph glyph-name="tildecomb" unicode="&#x303;" d="M-24 642 C-51 617 -73 605 -90 605 C-103 605 -125 611 -158 624 C-191 637 -215 643 -231 643 C-263 643 -297 625 -334 588 L-282 527 C-261 550 -241 561 -222 561 C-209 561 -187 555 -156 543 C-124 530 -100 524 -85 524 C-48 524 -11 543 27 581 L-24 642 L-24 642 Z " />
<glyph glyph-name="uni0304" unicode="&#x304;" d="M-270 632 L-286 541 L19 542 L34 632 L-270 632 Z " />
<glyph glyph-name="uni0306" unicode="&#x306;" d="M-54 660 C-63 615 -87 593 -124 593 C-161 593 -180 617 -175 660 L-268 660 C-280 577 -219 521 -130 521 C-45 521 22 573 39 660 L-54 660 Z " />
<glyph glyph-name="uni0307" unicode="&#x307;" d="M28 596 C29 629 3 657 -30 657 C-69 657 -104 624 -105 584 C-106 552 -81 526 -49 526 C-9 526 27 557 28 596 L28 596 Z " />
<glyph glyph-name="uni0308" unicode="&#x308;" d="M-233 656 C-273 656 -307 623 -307 583 C-307 548 -284 525 -248 525 C-208 525 -174 557 -174 597 C-174 632 -198 656 -233 656 L-233 656 Z M-31 656 C-72 656 -105 623 -105 583 C-105 548 -82 525 -47 525 C-6 525 29 557 29 598 C29 631 4 656 -31 656 L-31 656 Z " />
<glyph glyph-name="uni030A" unicode="&#x30a;" d="M-55 707 C-119 707 -170 655 -171 594 C-171 542 -133 502 -81 502 C-25 502 26 549 31 609 C36 662 -3 707 -55 707 L-55 707 Z M-64 648 C-43 648 -25 632 -26 608 C-27 580 -49 560 -73 560 C-96 560 -113 577 -112 600 C-111 627 -91 648 -64 648 L-64 648 Z " />
<glyph glyph-name="uni030B" unicode="&#x30b;" d="M-215 660 L-273 521 L-184 521 L-112 660 L-215 660 Z M-64 660 L-122 521 L-33 521 L39 660 L-64 660 Z " />
<glyph glyph-name="uni030C" unicode="&#x30c;" d="M-108 575 L-146 660 L-234 660 L-168 520 L-62 520 L39 660 L-52 660 L-108 575 Z " />
<glyph glyph-name="uni0326" unicode="&#x326;" d="M-138 -56 C-151 -56 -166 -59 -184 -66 L-177 -161 L-216 -237 L-158 -237 L-117 -183 C-94 -154 -82 -130 -82 -111 C-82 -78 -103 -56 -138 -56 L-138 -56 Z " />
<glyph glyph-name="uni0327" unicode="&#x327;" d="M-210 22 C-215 10 -218 -5 -220 -23 C-223 -48 -217 -63 -193 -82 C-172 -97 -162 -109 -163 -118 C-166 -137 -183 -146 -216 -146 C-229 -146 -238 -145 -245 -144 L-256 -213 C-248 -216 -234 -217 -214 -217 C-137 -217 -94 -186 -85 -123 C-80 -93 -93 -67 -123 -45 C-137 -34 -143 -19 -140 -2 C-139 5 -137 13 -133 22 L-210 22 Z " />
<glyph glyph-name="uni0328" unicode="&#x328;" d="M-187 4 C-234 -57 -257 -107 -257 -147 C-257 -207 -204 -236 -101 -217 L-88 -146 C-144 -157 -172 -148 -172 -117 C-172 -90 -150 -51 -106 0 L-187 4 Z " />
<glyph glyph-name="uni0394" unicode="&#x394;" horiz-adv-x="589" d="M217 660 L-40 0 L560 0 L330 660 L217 660 Z M421 90 L103 90 L270 549 L421 90 Z " />
<glyph glyph-name="uni03A9" unicode="&#x3a9;" horiz-adv-x="869" d="M628 85 C707 142 747 226 747 336 C747 552 627 672 432 672 C335 672 258 642 199 583 C140 524 111 439 111 329 C111 210 156 125 231 85 L56 85 L54 0 L364 0 L366 84 C270 105 212 190 212 330 C212 505 300 578 431 578 C574 578 645 496 645 331 C645 182 577 104 482 84 L481 0 L790 0 L791 85 L628 85 L628 85 Z " />
<glyph glyph-name="uni03BC" unicode="&#x3bc;" horiz-adv-x="508" d="M327 149 C318 100 291 75 245 75 C214 75 184 90 155 119 L206 446 L105 446 L-1 -226 L100 -226 L142 39 C175 6 215 -10 263 -10 C352 -10 409 33 422 113 L475 446 L373 446 L327 149 Z " />
<glyph glyph-name="pi" unicode="&#x3c0;" horiz-adv-x="636" d="M57 446 L55 353 L137 353 L131 0 L234 0 L239 353 L435 353 L430 0 L532 0 L537 353 L621 353 L623 446 L57 446 Z " />
<glyph glyph-name="Wgrave" unicode="&#x1e80;" horiz-adv-x="891" d="M518 834 L413 834 L473 702 L565 702 L518 834 Z M642 146 L592 660 L440 660 L224 151 L208 660 L89 660 L117 0 L274 0 L492 515 L546 0 L702 0 L941 660 L818 660 L642 146 Z " />
<glyph glyph-name="wgrave" unicode="&#x1e81;" horiz-adv-x="721" d="M396 660 L290 660 L353 521 L446 521 L396 660 Z M505 94 L479 446 L311 446 L175 95 L153 446 L37 446 L74 0 L241 0 L382 362 L406 0 L576 0 L749 446 L631 446 L505 94 Z " />
<glyph glyph-name="Wacute" unicode="&#x1e82;" horiz-adv-x="891" d="M532 839 L477 707 L568 707 L637 839 L532 839 Z M642 146 L592 660 L440 660 L224 151 L208 660 L89 660 L117 0 L274 0 L492 515 L546 0 L702 0 L941 660 L818 660 L642 146 Z " />
<glyph glyph-name="wacute" unicode="&#x1e83;" horiz-adv-x="721" d="M414 660 L356 521 L447 521 L519 660 L414 660 Z M505 94 L479 446 L311 446 L175 95 L153 446 L37 446 L74 0 L241 0 L382 362 L406 0 L576 0 L749 446 L631 446 L505 94 Z " />
<glyph glyph-name="Wdieresis" unicode="&#x1e84;" horiz-adv-x="891" d="M425 709 C465 709 499 739 499 779 C499 814 475 838 440 838 C401 838 368 805 368 765 C368 732 390 709 425 709 L425 709 Z M620 709 C660 709 694 740 694 779 C694 814 670 838 635 838 C595 838 563 805 563 765 C563 732 587 709 620 709 L620 709 Z M642 146 L592 660 L440 660 L224 151 L208 660 L89 660 L117 0 L274 0 L492 515 L546 0 L702 0 L941 660 L818 660 L642 146 Z " />
<glyph glyph-name="wdieresis" unicode="&#x1e85;" horiz-adv-x="721" d="M304 525 C344 525 378 557 378 597 C378 632 354 656 319 656 C279 656 245 623 245 583 C245 548 268 525 304 525 L304 525 Z M505 525 C546 525 581 557 581 598 C581 631 556 656 521 656 C480 656 447 623 447 583 C447 548 470 525 505 525 L505 525 Z M505 94 L479 446 L311 446 L175 95 L153 446 L37 446 L74 0 L241 0 L382 362 L406 0 L576 0 L749 446 L631 446 L505 94 Z " />
<glyph glyph-name="Ygrave" unicode="&#x1ef2;" horiz-adv-x="600" d="M360 834 L255 834 L315 702 L407 702 L360 834 Z M358 441 C338 415 326 399 321 392 L300 442 L208 660 L74 660 L242 280 L197 0 L325 0 L370 281 L666 660 L522 660 L358 441 Z " />
<glyph glyph-name="ygrave" unicode="&#x1ef3;" horiz-adv-x="465" d="M262 660 L156 660 L219 521 L312 521 L262 660 Z M228 171 C208 128 198 105 197 104 C196 129 194 152 192 171 L164 446 L38 446 L109 -2 C70 -63 17 -107 -48 -133 L-6 -233 C109 -184 195 -106 253 1 L494 446 L362 446 L228 171 Z " />
<glyph glyph-name="uni2009" unicode="&#x2009;" horiz-adv-x="50" d="" />
<glyph glyph-name="figuredash" unicode="&#x2012;" horiz-adv-x="595" d="M58 189 L526 189 L540 280 L73 280 L58 189 Z " />
<glyph glyph-name="endash" unicode="&#x2013;" horiz-adv-x="569" d="M45 189 L513 189 L527 280 L59 280 L45 189 Z " />
<glyph glyph-name="emdash" unicode="&#x2014;" horiz-adv-x="1064" d="M62 189 L991 189 L1005 280 L76 280 L62 189 Z " />
<glyph glyph-name="quoteleft" unicode="&#x2018;" horiz-adv-x="279" d="M238 547 L296 660 L219 660 L148 570 C147 569 145 566 140 559 C130 546 126 542 118 527 C106 507 99 489 101 467 C106 423 139 399 188 399 C206 399 226 403 247 411 L238 547 Z " />
<glyph glyph-name="quoteright" unicode="&#x2019;" horiz-adv-x="279" d="M139 523 L82 410 L158 410 L230 500 C231 503 247 522 254 533 C266 552 278 580 276 604 C271 648 238 671 190 671 C169 671 149 667 131 659 L139 523 Z " />
<glyph glyph-name="quotesinglbase" unicode="&#x201a;" horiz-adv-x="276" d="M59 0 L2 -113 L78 -113 L149 -23 C150 -22 153 -19 158 -12 C168 1 171 5 180 20 C191 40 198 58 196 80 C191 124 158 148 109 148 C90 148 71 144 51 136 L59 0 Z " />
<glyph glyph-name="quotedblleft" unicode="&#x201c;" horiz-adv-x="466" d="M238 547 L295 660 L219 660 L148 570 C147 569 145 566 140 559 C130 546 126 542 118 527 C106 507 99 489 101 467 C106 423 139 399 188 399 C207 399 226 403 246 411 L238 547 Z M426 547 L483 660 L407 660 L336 570 C335 569 333 566 328 559 C318 546 314 542 306 527 C294 507 287 489 289 467 C294 423 327 399 376 399 C395 399 414 403 434 411 L426 547 Z " />
<glyph glyph-name="quotedblright" unicode="&#x201d;" horiz-adv-x="466" d="M139 523 L82 410 L158 410 L229 500 C230 501 233 504 238 511 C248 524 251 528 260 543 C271 563 278 581 276 603 C271 647 238 671 189 671 C170 671 151 667 131 659 L139 523 Z M326 523 L269 410 L345 410 L416 500 C417 501 420 504 425 511 C435 524 438 528 447 543 C458 563 465 581 463 603 C458 647 425 671 376 671 C357 671 338 667 318 659 L326 523 Z " />
<glyph glyph-name="quotedblbase" unicode="&#x201e;" horiz-adv-x="464" d="M59 0 L2 -113 L78 -113 L149 -23 C150 -22 153 -19 158 -12 C168 1 171 5 180 20 C191 40 198 58 196 80 C191 124 158 148 109 148 C90 148 71 144 51 136 L59 0 Z M247 0 L189 -113 L266 -113 L337 -23 C338 -22 341 -19 346 -12 C356 1 359 5 368 20 C379 40 386 58 384 80 C379 124 346 148 297 148 C279 148 259 144 238 136 L247 0 Z " />
<glyph glyph-name="dagger" unicode="&#x2020;" horiz-adv-x="608" d="M391 446 L425 660 L323 660 L289 446 L79 446 L65 352 L274 352 L182 -229 L285 -229 L377 352 L586 352 L600 446 L391 446 Z " />
<glyph glyph-name="daggerdbl" unicode="&#x2021;" horiz-adv-x="610" d="M601 446 L391 446 L425 660 L324 660 L290 446 L79 446 L65 353 L276 353 L232 81 L21 81 L7 -10 L218 -10 L183 -229 L285 -229 L319 -10 L530 -10 L544 81 L334 81 L377 353 L587 353 L601 446 Z " />
<glyph glyph-name="bullet" unicode="&#x2022;" horiz-adv-x="404" d="M326 249 C329 310 283 359 222 359 C186 359 154 346 127 321 C99 295 84 264 83 229 C80 166 123 119 186 119 C222 119 254 132 282 157 C309 182 324 213 326 249 L326 249 Z " />
<glyph glyph-name="ellipsis" unicode="&#x2026;" horiz-adv-x="942" d="M220 76 C221 117 191 148 150 148 C102 148 61 109 60 60 C59 20 88 -11 128 -11 C177 -11 219 28 220 76 L220 76 Z M526 76 C527 117 497 148 456 148 C408 148 367 109 366 60 C365 20 394 -11 434 -11 C483 -11 525 28 526 76 L526 76 Z M833 76 C836 117 805 148 764 148 C716 148 674 109 673 60 C672 20 701 -11 742 -11 C790 -11 832 28 833 76 L833 76 Z " />
<glyph glyph-name="perthousand" unicode="&#x2030;" horiz-adv-x="1259" d="M256 670 C199 670 154 651 121 612 C88 573 71 522 71 460 C71 364 118 314 205 314 C259 314 304 334 339 374 C374 413 391 465 391 528 C391 623 346 670 256 670 L256 670 Z M692 660 L89 0 L192 0 L798 660 L692 660 Z M211 389 C173 389 154 413 154 462 C154 543 190 594 246 594 C287 594 304 574 304 522 C304 439 268 389 211 389 L211 389 Z M713 350 C656 350 611 331 578 292 C545 253 528 202 528 140 C528 44 575 -6 662 -6 C716 -6 761 14 796 54 C831 93 848 145 848 208 C848 303 803 350 713 350 L713 350 Z M1088 350 C1031 350 986 331 953 292 C920 253 903 202 903 140 C903 44 950 -6 1037 -6 C1091 -6 1136 14 1171 54 C1206 93 1223 145 1223 208 C1223 303 1178 350 1088 350 L1088 350 Z M668 69 C630 69 611 93 611 142 C611 223 647 274 703 274 C744 274 761 254 761 202 C761 119 725 69 668 69 L668 69 Z M1043 69 C1005 69 986 93 986 142 C986 223 1022 274 1078 274 C1119 274 1136 254 1136 202 C1136 119 1100 69 1043 69 L1043 69 Z " />
<glyph glyph-name="guilsinglleft" unicode="&#x2039;" horiz-adv-x="340" d="M198 420 L66 258 L147 68 L258 68 L178 253 L319 420 L198 420 Z " />
<glyph glyph-name="guilsinglright" unicode="&#x203a;" horiz-adv-x="335" d="M89 420 L164 244 L27 68 L147 68 L276 237 L199 420 L89 420 Z " />
<glyph glyph-name="fraction" unicode="&#x2044;" horiz-adv-x="163" d="M347 660 L-256 0 L-153 0 L453 660 L347 660 Z " />
<glyph glyph-name="uni2070" unicode="&#x2070;" horiz-adv-x="375" d="M257 672 C200 672 155 653 122 614 C89 575 72 524 72 462 C72 366 119 316 206 316 C260 316 305 336 340 376 C375 415 392 467 392 530 C392 625 347 672 257 672 L257 672 Z M212 391 C174 391 155 415 155 464 C155 545 191 596 247 596 C288 596 305 576 305 524 C305 441 269 391 212 391 L212 391 Z " />
<glyph glyph-name="uni2074" unicode="&#x2074;" horiz-adv-x="369" d="M323 446 L357 662 L257 662 L61 437 L53 383 L236 383 L227 322 L303 322 L313 383 L377 383 L386 446 L323 446 Z M266 579 L246 446 L154 446 L266 579 Z " />
<glyph glyph-name="uni2075" unicode="&#x2075;" horiz-adv-x="277" d="M308 660 L113 660 L84 470 C175 473 202 465 202 434 C202 401 179 385 132 385 C114 385 95 388 76 395 L57 330 C86 321 115 316 143 316 C232 316 289 363 289 436 C289 495 250 524 173 525 L185 596 L297 596 L308 660 Z " />
<glyph glyph-name="uni2076" unicode="&#x2076;" horiz-adv-x="324" d="M239 536 C214 536 189 529 164 516 C181 575 220 604 280 604 C299 604 314 602 326 598 L340 663 C325 667 307 669 287 669 C228 669 177 650 135 611 C93 572 72 518 72 451 C72 358 118 316 191 316 C229 316 262 327 291 348 C320 369 334 400 334 441 C334 502 295 536 239 536 L239 536 Z M201 383 C170 383 155 404 155 447 L155 459 C170 470 188 475 207 475 C238 475 254 462 254 435 C254 406 233 383 201 383 L201 383 Z " />
<glyph glyph-name="uni2077" unicode="&#x2077;" horiz-adv-x="283" d="M83 594 L233 594 L43 322 L137 322 L329 606 L337 660 L93 660 L83 594 Z " />
<glyph glyph-name="uni2078" unicode="&#x2078;" horiz-adv-x="335" d="M275 496 C330 525 349 552 349 588 C349 641 301 672 234 672 C149 672 95 628 95 567 C95 542 111 518 142 496 C83 464 62 439 62 400 C62 341 105 312 191 312 C278 312 335 356 335 415 C335 444 315 471 275 496 L275 496 Z M226 610 C255 610 270 600 270 579 C270 563 252 546 217 528 C188 545 173 561 173 576 C173 596 194 610 226 610 L226 610 Z M196 374 C165 374 150 385 150 407 C150 425 166 443 199 461 C234 442 251 425 251 410 C251 390 229 374 196 374 L196 374 Z " />
<glyph glyph-name="uni2079" unicode="&#x2079;" horiz-adv-x="315" d="M214 672 C138 672 76 627 76 543 C76 479 112 446 171 446 C195 446 218 451 240 462 C216 393 154 368 85 387 L70 323 C195 285 340 377 337 532 C337 627 289 672 214 672 L214 672 Z M155 548 C155 581 176 604 207 604 C244 604 260 571 252 520 C237 511 221 506 203 506 C171 506 155 520 155 548 L155 548 Z " />
<glyph glyph-name="uni207F" unicode="&#x207f;" horiz-adv-x="410" d="M298 668 C255 668 219 652 188 619 L194 661 L121 661 L71 345 L148 345 L185 577 C212 596 239 606 267 606 C300 606 314 589 308 556 L275 345 L354 345 L390 580 C399 636 363 668 298 668 L298 668 Z " />
<glyph glyph-name="uni2080" unicode="&#x2080;" horiz-adv-x="375" d="M215 350 C158 350 113 331 80 292 C47 253 30 202 30 140 C30 44 77 -6 164 -6 C218 -6 263 14 298 54 C333 93 350 145 350 208 C350 303 305 350 215 350 L215 350 Z M170 69 C132 69 113 93 113 142 C113 223 149 274 205 274 C246 274 263 254 263 202 C263 119 227 69 170 69 L170 69 Z " />
<glyph glyph-name="uni2081" unicode="&#x2081;" horiz-adv-x="231" d="M32 324 L36 253 L109 267 L67 0 L153 0 L207 340 L130 340 L32 324 Z " />
<glyph glyph-name="uni2082" unicode="&#x2082;" horiz-adv-x="302" d="M225 153 C256 180 272 212 272 249 C272 314 227 350 159 350 C123 350 88 342 55 326 L62 263 C85 274 109 280 134 280 C171 280 189 267 189 240 C189 222 174 199 143 170 L17 50 L8 0 L247 0 L256 66 L126 66 L225 153 L225 153 Z " />
<glyph glyph-name="uni2083" unicode="&#x2083;" horiz-adv-x="278" d="M75 274 C97 281 116 285 131 285 C163 285 179 273 179 248 C179 217 153 205 86 205 L77 143 C134 144 158 134 158 103 C158 76 138 63 97 63 C73 63 51 66 31 72 L13 9 C42 0 72 -4 104 -4 C187 -4 236 36 236 101 C236 142 217 166 178 175 C226 184 255 220 255 267 C255 322 222 350 155 350 C125 350 95 345 64 334 L75 274 Z " />
<glyph glyph-name="uni2084" unicode="&#x2084;" horiz-adv-x="369" d="M281 124 L315 340 L215 340 L19 115 L11 61 L194 61 L185 0 L261 0 L271 61 L335 61 L344 124 L281 124 Z M224 257 L204 124 L112 124 L224 257 Z " />
<glyph glyph-name="uni2085" unicode="&#x2085;" horiz-adv-x="277" d="M266 338 L71 338 L42 148 C133 151 160 143 160 112 C160 79 137 63 90 63 C72 63 53 66 34 73 L15 8 C44 -1 73 -6 101 -6 C190 -6 247 41 247 114 C247 173 208 202 131 203 L143 274 L255 274 L266 338 Z " />
<glyph glyph-name="uni2086" unicode="&#x2086;" horiz-adv-x="324" d="M197 214 C172 214 147 207 122 194 C139 253 178 282 238 282 C257 282 272 280 284 276 L298 341 C283 345 265 347 245 347 C186 347 135 328 93 289 C51 250 30 196 30 129 C30 36 76 -6 149 -6 C187 -6 220 5 249 26 C278 47 292 78 292 119 C292 180 253 214 197 214 L197 214 Z M159 61 C128 61 113 82 113 125 L113 137 C128 148 146 153 165 153 C196 153 212 140 212 113 C212 84 191 61 159 61 L159 61 Z " />
<glyph glyph-name="uni2087" unicode="&#x2087;" horiz-adv-x="283" d="M41 272 L191 272 L1 0 L95 0 L287 284 L295 338 L51 338 L41 272 Z " />
<glyph glyph-name="uni2088" unicode="&#x2088;" horiz-adv-x="335" d="M233 174 C288 203 307 230 307 266 C307 319 259 350 192 350 C107 350 53 306 53 245 C53 220 69 196 100 174 C41 142 20 117 20 78 C20 19 63 -10 149 -10 C236 -10 293 34 293 93 C293 122 273 149 233 174 L233 174 Z M184 288 C213 288 228 278 228 257 C228 241 210 224 175 206 C146 223 131 239 131 254 C131 274 152 288 184 288 L184 288 Z M154 52 C123 52 108 63 108 85 C108 103 124 121 157 139 C192 120 209 103 209 88 C209 68 187 52 154 52 L154 52 Z " />
<glyph glyph-name="uni2089" unicode="&#x2089;" horiz-adv-x="315" d="M172 350 C96 350 34 305 34 221 C34 157 70 124 129 124 C153 124 176 129 198 140 C174 71 112 46 43 65 L28 1 C153 -37 298 55 295 210 C295 305 247 350 172 350 L172 350 Z M113 226 C113 259 134 282 165 282 C202 282 218 249 210 198 C195 189 179 184 161 184 C129 184 113 198 113 226 L113 226 Z " />
<glyph glyph-name="Euro" unicode="&#x20ac;" horiz-adv-x="567" d="M423 456 C464 456 503 451 540 442 L559 537 C522 548 474 553 416 553 C283 553 185 486 142 367 L69 367 L59 300 L124 300 C121 282 119 263 118 243 L51 243 L40 176 L120 176 C133 64 207 -10 336 -10 C382 -10 431 -4 483 8 L467 99 C427 91 390 87 357 87 C286 87 244 117 231 176 L465 176 L476 243 L227 243 C228 265 231 284 234 300 L484 300 L494 367 L258 367 C291 426 346 456 423 456 L423 456 Z " />
<glyph glyph-name="uni2113" unicode="&#x2113;" horiz-adv-x="434" d="M359 111 C323 71 285 51 245 51 C192 51 166 85 166 154 L166 168 C289 245 333 308 333 385 C333 457 297 502 229 502 C137 502 84 420 84 284 L84 178 C83 177 60 164 13 137 L30 91 C33 92 51 102 85 120 C92 33 136 -10 218 -10 C279 -10 334 19 384 76 L359 111 L359 111 Z M166 289 C166 390 187 440 229 440 C253 440 265 421 265 384 C265 329 239 285 166 232 L166 289 Z " />
<glyph glyph-name="trademark" unicode="&#x2122;" horiz-adv-x="865" d="M164 587 L118 345 L203 345 L249 587 L363 587 L376 660 L64 660 L50 587 L164 587 Z M595 434 L553 660 L445 660 L379 345 L455 345 L503 588 L546 351 L610 351 L740 585 L702 345 L780 345 L826 660 L707 660 L595 434 Z " />
<glyph glyph-name="estimated" unicode="&#x212e;" horiz-adv-x="566" d="M545 216 L545 223 C545 288 520 343 469 389 C418 434 356 457 283 457 C212 457 151 434 100 389 C49 343 23 288 23 223 C23 158 49 103 100 58 C151 12 212 -11 283 -11 C366 -11 442 23 490 79 L452 79 C407 27 351 1 284 1 C223 1 170 24 125 71 C121 75 119 80 119 86 L119 214 C119 215 120 216 122 216 L545 216 Z M449 233 C449 230 448 229 446 229 L122 229 C120 229 119 230 119 233 L119 359 C119 365 121 370 125 375 C171 421 224 444 284 444 C344 444 397 422 443 377 C447 372 449 367 449 361 L449 233 Z " />
<glyph glyph-name="uni2153" unicode="&#x2153;" horiz-adv-x="697" d="M-11 0 L92 0 L698 660 L592 660 L-11 0 Z M108 320 L194 320 L248 660 L171 660 L73 644 L77 573 L150 587 L108 320 Z M664 267 C664 322 631 350 564 350 C534 350 504 345 473 334 L484 274 C506 281 525 285 540 285 C572 285 588 273 588 248 C588 217 562 205 495 205 L486 143 C543 144 567 134 567 103 C567 76 547 63 506 63 C482 63 460 66 440 72 L422 9 C451 0 481 -4 513 -4 C596 -4 645 36 645 101 C645 142 626 166 587 175 C635 184 664 220 664 267 L664 267 Z " />
<glyph glyph-name="uni2154" unicode="&#x2154;" horiz-adv-x="774" d="M163 386 L262 473 C293 500 309 532 309 569 C309 634 264 670 196 670 C160 670 125 662 92 646 L99 583 C122 594 146 600 171 600 C208 600 226 587 226 560 C226 542 211 519 180 490 L54 370 L45 320 L284 320 L293 386 L163 386 Z M66 0 L169 0 L775 660 L669 660 L66 0 Z M740 267 C740 322 707 350 640 350 C610 350 580 345 549 334 L560 274 C582 281 601 285 616 285 C648 285 664 273 664 248 C664 217 638 205 571 205 L562 143 C619 144 643 134 643 103 C643 76 623 63 582 63 C558 63 536 66 516 72 L498 9 C527 0 557 -4 589 -4 C672 -4 721 36 721 101 C721 142 702 166 663 175 C711 184 740 220 740 267 L740 267 Z " />
<glyph glyph-name="oneeighth" unicode="&#x215b;" horiz-adv-x="744" d="M-11 0 L92 0 L698 660 L592 660 L-11 0 Z M108 320 L194 320 L248 660 L171 660 L73 644 L77 573 L150 587 L108 320 Z M632 174 C687 203 706 230 706 266 C706 319 658 350 591 350 C506 350 452 306 452 245 C452 220 468 196 499 174 C440 142 419 117 419 78 C419 19 462 -10 548 -10 C673 -15 753 101 632 174 L632 174 Z M583 288 C612 288 627 278 627 257 C627 241 609 224 574 206 C545 223 530 239 530 254 C530 274 551 288 583 288 L583 288 Z M553 52 C522 52 507 63 507 85 C507 103 523 121 556 139 C591 120 608 103 608 88 C608 68 586 52 553 52 L553 52 Z " />
<glyph glyph-name="threeeighths" unicode="&#x215c;" horiz-adv-x="766" d="M273 421 C273 462 254 486 215 495 C263 504 292 540 292 587 C292 642 259 670 192 670 C162 670 132 665 101 654 L112 594 C134 601 153 605 168 605 C200 605 216 593 216 568 C216 537 190 525 123 525 L114 463 C171 464 195 454 195 423 C195 396 175 383 134 383 C110 383 88 386 68 392 L50 329 C79 320 109 316 141 316 C224 316 273 356 273 421 L273 421 Z M12 0 L115 0 L721 660 L615 660 L12 0 Z M654 174 C709 203 728 230 728 266 C728 319 680 350 613 350 C528 350 474 306 474 245 C474 220 490 196 521 174 C462 142 441 117 441 78 C441 19 484 -10 570 -10 C695 -15 775 101 654 174 L654 174 Z M605 288 C634 288 649 278 649 257 C649 241 631 224 596 206 C567 223 552 239 552 254 C552 274 573 288 605 288 L605 288 Z M575 52 C544 52 529 63 529 85 C529 103 545 121 578 139 C613 120 630 103 630 88 C630 68 608 52 575 52 L575 52 Z " />
<glyph glyph-name="fiveeighths" unicode="&#x215d;" horiz-adv-x="775" d="M21 0 L124 0 L730 660 L624 660 L21 0 Z M281 434 C281 493 242 522 165 523 L177 594 L289 594 L300 658 L105 658 L76 468 C167 471 194 463 194 432 C194 399 171 383 124 383 C106 383 87 386 68 393 L49 328 C78 319 107 314 135 314 C224 314 281 361 281 434 L281 434 Z M664 174 C719 203 738 230 738 266 C738 319 690 350 623 350 C538 350 484 306 484 245 C484 220 500 196 531 174 C472 142 451 117 451 78 C451 19 494 -10 580 -10 C705 -15 785 101 664 174 L664 174 Z M615 288 C644 288 659 278 659 257 C659 241 641 224 606 206 C577 223 562 239 562 254 C562 274 583 288 615 288 L615 288 Z M585 52 C554 52 539 63 539 85 C539 103 555 121 588 139 C623 120 640 103 640 88 C640 68 618 52 585 52 L585 52 Z " />
<glyph glyph-name="seveneighths" unicode="&#x215e;" horiz-adv-x="731" d="M-23 0 L80 0 L686 660 L580 660 L-23 0 Z M327 604 L335 658 L91 658 L81 592 L231 592 L41 320 L135 320 L327 604 Z M619 174 C674 203 693 230 693 266 C693 319 645 350 578 350 C493 350 439 306 439 245 C439 220 455 196 486 174 C427 142 406 117 406 78 C406 19 449 -10 535 -10 C660 -15 740 101 619 174 L619 174 Z M570 288 C599 288 614 278 614 257 C614 241 596 224 561 206 C532 223 517 239 517 254 C517 274 538 288 570 288 L570 288 Z M540 52 C509 52 494 63 494 85 C494 103 510 121 543 139 C578 120 595 103 595 88 C595 68 573 52 540 52 L540 52 Z " />
<glyph glyph-name="arrowleft" unicode="&#x2190;" horiz-adv-x="1221" d="M262 271 L527 513 L467 582 L76 222 L390 -161 L460 -102 L228 178 L1129 178 L1143 271 L262 271 Z " />
<glyph glyph-name="arrowright" unicode="&#x2192;" horiz-adv-x="1221" d="M760 552 L992 271 L92 271 L77 178 L959 178 L693 -64 L753 -133 L1145 227 L831 610 L760 552 Z " />
<glyph glyph-name="partialdiff" unicode="&#x2202;" horiz-adv-x="433" d="M196 502 C145 502 103 489 68 462 L85 438 C120 460 156 471 194 471 C242 471 282 452 315 413 C347 374 363 321 363 255 C363 248 362 237 361 222 C328 262 271 302 202 302 C157 302 118 287 86 258 C53 228 37 191 37 146 C37 105 51 69 78 38 C105 6 144 -10 195 -10 C261 -10 312 17 349 71 C386 125 404 187 404 257 C404 330 384 389 345 434 C305 479 255 502 196 502 L196 502 Z M200 20 C128 20 79 76 79 145 C79 217 135 272 207 272 C270 272 329 229 356 185 C337 89 280 20 200 20 L200 20 Z " />
<glyph glyph-name="product" unicode="&#x220f;" horiz-adv-x="695" d="M99 -86 L200 -86 L212 566 L515 566 L503 -86 L604 -86 L617 660 L113 660 L99 -86 Z " />
<glyph glyph-name="summation" unicode="&#x2211;" horiz-adv-x="578" d="M95 660 L93 573 L279 293 L83 1 L81 -87 L532 -87 L534 6 L204 6 L399 294 L217 569 L544 569 L545 660 L95 660 Z " />
<glyph glyph-name="minus" unicode="&#x2212;" horiz-adv-x="524" d="M37 189 L490 189 L492 282 L39 282 L37 189 Z " />
<glyph glyph-name="radical" unicode="&#x221a;" horiz-adv-x="598" d="M296 104 C296 103 288 82 272 39 C269 47 253 97 250 104 L133 446 L25 446 L216 -88 L320 -88 L703 839 L597 839 L296 104 Z " />
<glyph glyph-name="infinity" unicode="&#x221e;" horiz-adv-x="702" d="M511 386 C480 386 454 378 432 362 C418 352 391 324 350 278 C315 318 286 346 264 362 C242 378 216 386 187 386 C150 386 116 372 87 344 C57 316 42 275 42 220 C42 166 57 126 86 99 C115 72 149 58 187 58 C208 58 229 63 249 74 C268 84 284 95 295 106 C306 117 325 136 351 164 C376 137 395 117 407 106 C430 83 473 57 514 57 C552 57 586 71 615 98 C644 125 659 167 659 222 C659 277 643 318 612 345 C581 372 547 386 511 386 L511 386 Z M190 143 C151 143 125 167 125 222 C125 275 147 301 191 301 C204 301 216 297 227 290 C236 283 259 260 295 220 C291 216 285 210 278 202 C263 186 261 183 249 171 C230 152 212 143 190 143 L190 143 Z M512 139 C497 139 485 143 469 156 C461 163 455 168 450 172 C443 178 410 213 404 220 C412 228 429 248 434 254 C439 260 452 274 457 278 C476 293 486 301 507 301 C550 301 575 272 575 223 C575 171 547 139 512 139 L512 139 Z " />
<glyph glyph-name="integral" unicode="&#x222b;" horiz-adv-x="433" d="M494 795 L481 798 C464 801 424 804 389 804 C265 804 200 733 197 612 L186 -40 C183 -111 165 -143 90 -143 C57 -143 23 -140 -11 -133 L-26 -226 L-9 -229 C14 -233 59 -237 94 -237 C221 -237 285 -173 287 -45 L297 592 C298 669 321 710 402 710 C427 710 453 708 479 703 L494 795 Z " />
<glyph glyph-name="approxequal" unicode="&#x2248;" horiz-adv-x="612" d="M520 387 C466 353 425 336 398 336 C378 336 344 346 297 367 C249 388 209 398 178 398 C161 398 144 396 127 391 C94 382 78 373 38 350 L78 268 C120 293 154 306 181 306 C206 306 243 295 292 274 C341 253 377 242 401 242 C438 242 493 264 565 308 L520 387 Z M521 204 C470 174 429 159 396 159 C374 159 339 170 290 193 C241 216 204 227 179 227 C162 227 144 223 121 211 C109 205 100 200 94 197 C88 194 78 187 63 178 C48 169 40 163 37 162 L81 85 C82 86 88 90 101 98 C113 106 123 112 130 116 C144 124 172 136 191 136 C206 136 239 125 288 102 C337 79 376 68 404 68 C442 68 495 88 563 127 L521 204 Z " />
<glyph glyph-name="notequal" unicode="&#x2260;" horiz-adv-x="570" d="M522 368 L377 368 L415 477 L325 477 L287 368 L56 368 L54 278 L257 278 L229 196 L53 196 L51 106 L200 106 L163 0 L252 0 L290 106 L519 106 L520 196 L319 196 L347 278 L521 278 L522 368 Z " />
<glyph glyph-name="lessequal" unicode="&#x2264;" horiz-adv-x="631" d="M219 305 L553 397 L552 491 L70 346 L70 267 L555 116 L554 210 L219 305 Z M554 0 L554 85 L72 85 L71 0 L554 0 Z " />
<glyph glyph-name="greaterequal" unicode="&#x2265;" horiz-adv-x="644" d="M86 212 L88 118 L569 269 L569 347 L84 491 L86 399 L421 305 L86 212 Z M567 0 L568 85 L87 85 L85 0 L567 0 Z " />
<glyph glyph-name="filledbox" unicode="&#x25a0;" horiz-adv-x="696" d="M627 0 L637 556 L81 556 L72 0 L627 0 Z " />
<glyph glyph-name="uni25B6" unicode="&#x25b6;" horiz-adv-x="596" d="M122 -179 L520 221 L136 606 L122 -179 Z " />
<glyph glyph-name="uni25C0" unicode="&#x25c0;" horiz-adv-x="594" d="M68 220 L453 -168 L467 621 L68 220 Z " />
<glyph glyph-name="uni25C6" unicode="&#x25c6;" horiz-adv-x="926" d="M459 -173 L852 221 L460 613 L67 220 L459 -173 Z " />
<glyph glyph-name="lozenge" unicode="&#x25ca;" horiz-adv-x="694" d="M50 305 L344 -32 L648 297 L356 631 L50 305 Z M348 117 L183 303 L353 485 L516 297 L348 117 Z " />
<glyph glyph-name="uni25CF" unicode="&#x25cf;" horiz-adv-x="909" d="M727 -46 C801 29 838 118 838 223 C838 328 801 418 727 493 C652 567 563 604 458 604 C353 604 263 567 189 492 C114 417 77 328 77 223 C77 118 114 29 189 -46 C264 -121 353 -158 458 -158 C563 -158 652 -121 727 -46 L727 -46 Z " />
<glyph glyph-name="uni25D6" unicode="&#x25d6;" horiz-adv-x="580" d="M462 605 C350 605 257 568 182 494 C107 419 69 329 69 223 C69 118 106 29 181 -46 C255 -121 344 -158 448 -158 L462 605 Z " />
<glyph glyph-name="uni25D7" unicode="&#x25d7;" horiz-adv-x="595" d="M125 -158 C232 -158 323 -121 398 -48 C473 25 511 116 511 223 C511 328 474 417 400 492 C326 567 238 604 137 604 L125 -158 Z " />
<glyph glyph-name="fi" unicode="&#xfb01;" horiz-adv-x="549" d="M242 468 C255 549 286 579 351 579 C380 579 414 572 453 559 L478 641 C431 660 385 669 339 669 C214 669 150 612 129 473 L125 446 L53 446 L39 350 L110 350 L54 0 L168 0 L224 350 L379 350 L324 0 L440 0 L509 446 L239 446 L242 468 Z " />
<glyph glyph-name="fl" unicode="&#xfb02;" horiz-adv-x="546" d="M545 641 C490 662 426 672 354 672 C218 672 150 609 130 481 L125 446 L53 446 L39 348 L109 348 L54 0 L169 0 L223 348 L322 348 L338 446 L238 446 L241 463 C256 552 282 586 351 586 C375 586 397 583 417 577 L326 0 L443 0 L545 641 L545 641 Z " />
<glyph glyph-name="uniFFE9" unicode="&#xffe9;" horiz-adv-x="879" d="M286 271 L551 513 L492 582 L100 222 L414 -161 L484 -102 L252 178 L782 178 L796 271 L286 271 Z " />
<glyph glyph-name="uniFFEB" unicode="&#xffeb;" horiz-adv-x="879" d="M389 552 L621 271 L92 271 L77 178 L588 178 L322 -64 L382 -133 L774 227 L460 610 L389 552 Z " />
</font>
</svg>
