<?xml version="1.0" encoding="UTF-8"?>
<svg xmlns="http://www.w3.org/2000/svg" xmlns:xlink="http://www.w3.org/1999/xlink" version="1.2" >
<font id="abc Allegra W00 Regular Italic">
<font-face  font-family="abcAllegraW00-RegularItalic" units-per-em="1000" ascent="867" descent="-266" font-style="italic" font-weight="400" font-stretch="normal" slope="-9" cap-height="660" x-height="446" underline-position="-100" underline-thickness="50" />
<missing-glyph  horiz-adv-x="500" d="M410 735 L93 735 L93 -265 L410 -265 L410 735 Z M333 668 L333 635 L267 635 L267 598 L333 598 L333 565 L167 565 L167 598 L233 598 L233 635 L168 635 L168 668 L333 668 Z M267 539 L267 469 L333 469 L333 435 L167 435 L167 539 L267 539 Z M233 505 L200 505 L200 469 L233 469 L233 505 Z M333 408 L333 375 L267 375 L267 305 L167 305 L167 338 L233 338 L233 375 L167 375 L167 408 L333 408 Z M333 348 L333 248 L167 248 L167 282 L300 282 L300 348 L333 348 Z M333 226 L333 113 L167 113 L167 226 L200 226 L200 146 L300 146 L300 193 L267 193 L267 170 L233 170 L233 226 L333 226 Z M333 53 L333 -60 L167 -60 L167 53 L333 53 Z M300 20 L200 20 L200 -27 L300 -27 L300 20 Z M333 -83 L333 -116 L301 -116 L231 -163 L333 -163 L333 -196 L167 -196 L167 -163 L237 -116 L167 -116 L167 -83 L333 -83 Z " />
<glyph glyph-name="NULL" d="" />
<glyph glyph-name="CR" unicode="&#xd;" horiz-adv-x="333" d="" />
<glyph glyph-name="space" unicode="&#x20;" horiz-adv-x="180" d="" />
<glyph glyph-name="exclam" unicode="&#x21;" horiz-adv-x="337" d="M196 627 L126 183 L198 183 L268 627 L196 627 Z M198 47 C200 61.6667 196.5 74.3333 187.5 85 C178.5 95.6667 166.333 101 151 101 C135.667 101 121.833 95.5 109.5 84.5 C97.1667 73.5 90 60.3333 88 45 C86 30.3333 89.5 17.6667 98.5 7 C107.5 -3.66667 119 -9 133 -9 C149 -9 163.333 -3.5 176 7.5 C188.667 18.5 196 31.6667 198 47 L198 47 Z " />
<glyph glyph-name="quotedbl" unicode="&#x22;" horiz-adv-x="301" d="M116 660 L77 412 L136 412 L175 660 L116 660 Z M255 660 L216 412 L275 412 L314 660 L255 660 Z " />
<glyph glyph-name="numbersign" unicode="&#x23;" horiz-adv-x="620" d="M600 397 L620 453 L515 453 L589 660 L525 660 L452 453 L302 453 L376 660 L312 660 L239 453 L135 453 L115 397 L219 397 L168 254 L67 254 L49 199 L149 199 L78 0 L140 0 L211 199 L362 199 L291 0 L354 0 L425 199 L529 199 L547 254 L444 254 L495 397 L600 397 Z M231 254 L282 397 L432 397 L381 254 L231 254 Z " />
<glyph glyph-name="dollar" unicode="&#x24;" horiz-adv-x="473" d="M411 469 L427 527 C399.667 538.333 363.667 546.333 319 551 L328 608 L269 608 L260 554 C203.333 552.667 159.333 540.5 128 517.5 C96.6667 494.5 81 463.333 81 424 C81 406.667 85 389.667 93 373 C101 356.333 112.667 340.667 128 326 C143.333 311.333 160.833 296.5 180.5 281.5 C200.167 266.5 211 258.333 213 257 L180 54 C144 57.3333 107 64.6667 69 76 L52 18 C102.667 4.66667 142.333 -4 171 -8 L161 -68 L219 -68 L228 -10 C262 -8.66667 291 -3.83333 315 4.5 C339 12.8333 358 23.6667 372 37 C386 50.3333 395.667 65 401 81 C406.333 97 409 112 409 126 C409 138.667 407.167 150.667 403.5 162 C399.833 173.333 394.667 183.833 388 193.5 C381.333 203.167 372.833 213 362.5 223 C352.167 233 323.667 255.667 277 291 L309 491 C345.667 487.669 379.667 480.335 411 469 L411 469 Z M148 429 C148 446.333 157 460.5 175 471.5 C193 482.5 218 489.333 250 492 L225 331 C201.667 348.333 184.667 362.167 174 372.5 C163.333 382.833 156.333 392.667 153 402 C149.667 411.333 148 420.333 148 429 L148 429 Z M344 117 C344 98.3333 334.5 83 315.5 71 C296.5 59 270.667 52.3333 238 51 L265 217 C290.333 197.667 308 183.333 318 174 C328 164.667 334.833 155.167 338.5 145.5 C342.167 135.833 344 126.333 344 117 L344 117 Z " />
<glyph glyph-name="percent" unicode="&#x25;" horiz-adv-x="860" d="M246 670 C196.667 670 156.833 650.167 126.5 610.5 C96.1667 570.833 81 519 81 455 C81 409.667 91.1667 375.167 111.5 351.5 C131.833 327.833 161.333 316 200 316 C249.333 316 289.5 337.167 320.5 379.5 C351.5 421.833 367 475.333 367 540 C367 582 356.667 614.167 336 636.5 C315.333 658.833 285.333 670 246 670 L246 670 Z M766 660 L691 660 L97 0 L172 0 L766 660 Z M200 366 C156.667 366 135 393.333 135 448 C135 499.333 144.833 540.667 164.5 572 C184.167 603.333 210 619 242 619 C264.667 619 281.5 612.333 292.5 599 C303.5 585.667 309 564.333 309 535 C309 483 299.333 441.833 280 411.5 C260.667 381.167 234 366 200 366 L200 366 Z M696 350 C646.667 350 606.833 330.167 576.5 290.5 C546.167 250.833 531 199 531 135 C531 89.6667 541.167 55.1667 561.5 31.5 C581.833 7.83333 611.333 -4 650 -4 C699.333 -4 739.5 17.1667 770.5 59.5 C801.5 101.833 817 155.333 817 220 C817 262 806.667 294.167 786 316.5 C765.333 338.833 735.333 350 696 350 L696 350 Z M650 46 C606.667 46 585 73.3333 585 128 C585 179.333 594.833 220.667 614.5 252 C634.167 283.333 660 299 692 299 C714.667 299 731.5 292.333 742.5 279 C753.5 265.667 759 244.333 759 215 C759 163 749.333 121.833 730 91.5 C710.667 61.1667 684 46 650 46 L650 46 Z " />
<glyph glyph-name="ampersand" unicode="&#x26;" horiz-adv-x="774" d="M787 402 L477 402 C483 430 487.667 457 491 483 C494.333 509 496 527.667 496 539 C496 580.332 484 612.166 460 634.5 C436 656.833 401.333 668 356 668 C306.667 668 262.667 655.667 224 631 C185.333 606.334 153.333 572.668 128 530 C102.667 487.333 83.6667 438.333 71 383 C58.3333 327.667 52 270 52 210 C52 157.333 58.5 115 71.5 83 C84.5 51 105.333 27 134 11 C162.667 -5 204.333 -13 259 -13 C282.333 -13 308.333 -9.83333 337 -3.5 C365.666 2.83333 396.333 15.8333 429 35.5 C461.667 55.1667 491.167 82.8333 517.5 118.5 C543.831 154.167 563.165 191.667 575.5 231 C587.829 270.333 595.662 307.333 599 342 L776 342 L787 402 Z M345 608 C373.667 608 394.5 600.833 407.5 586.5 C420.5 572.167 427 550 427 520 C427 506 424.833 487.167 420.5 463.5 C416.167 439.833 411.667 419.333 407 402 L146 402 C164.667 471.333 191.333 523 226 557 C260.666 591 300.333 608 345 608 L345 608 Z M264 47 C209.333 47 171.833 59 151.5 83 C131.167 107 121 150.667 121 214 C121 252 124.667 294.667 132 342 L533 342 C523 254 492.167 182.833 440.5 128.5 C388.833 74.1667 330 47 264 47 L264 47 Z " />
<glyph glyph-name="quotesingle" unicode="&#x27;" horiz-adv-x="162" d="M116 660 L77 412 L136 412 L175 660 L116 660 Z " />
<glyph glyph-name="parenleft" unicode="&#x28;" horiz-adv-x="341" d="M383 735 C355 703.667 325.167 659.667 293.5 603 C261.833 546.333 235.833 487.167 215.5 425.5 C195.167 363.833 181.333 306.333 174 253 C166.667 199.667 163 150 163 104 C163 38.6667 168.833 -26.6667 180.5 -92 C192.167 -157.333 205.333 -210.333 220 -251 L149 -251 C135.667 -207 123.667 -152 113 -86 C102.333 -20 97 44.3333 97 107 C97 173 103 237.333 115 300 C127 362.666 143.5 421.833 164.5 477.5 C185.5 533.167 209.5 584.333 236.5 631 C263.5 677.667 287 712.333 307 735 L383 735 Z " />
<glyph glyph-name="parenright" unicode="&#x29;" horiz-adv-x="341" d="M-36 -251 C-8 -219.667 21.8333 -175.667 53.5 -119 C85.1667 -62.3333 111.167 -3.16667 131.5 58.5 C151.833 120.167 165.667 177.667 173 231 C180.333 284.333 184 334 184 380 C184 445.333 178.167 510.667 166.5 576 C154.834 641.333 141.667 694.333 127 735 L198 735 C211.333 691 223.333 636 234 570 C244.667 504 250 439.667 250 377 C250 311 244 246.667 232 184 C220 121.333 203.5 62.1667 182.5 6.5 C161.5 -49.1667 137.5 -100.333 110.5 -147 C83.5 -193.667 60 -228.333 40 -251 L-36 -251 Z " />
<glyph glyph-name="asterisk" unicode="&#x2a;" horiz-adv-x="404" d="M268 465 C280 466.333 291.667 468.667 303 472 L418 507 L409 556 L295 522 L259 509 C263.663 520.329 266.329 531.663 267 543 L283 660 L231 660 L216 545 L213 509 C204.334 514.333 194.667 519 184 523 L77 560 L55 511 L160 474 L194 465 C184 457 175 448.667 167 440 L86 345 L124 315 L204 407 C215.333 420.333 223 430.667 227 438 C230.332 426.667 234.666 416.667 240 408 L297 312 L342 343 L287 437 L268 465 Z " />
<glyph glyph-name="plus" unicode="&#x2b;" horiz-adv-x="603" d="M549 273 L340 273 L344 472 L280 472 L276 273 L67 273 L66 210 L275 210 L271 0 L336 0 L339 210 L548 210 L549 273 Z " />
<glyph glyph-name="comma" unicode="&#x2c;" horiz-adv-x="248" d="M54 99 L61 -6 L7 -113 L59 -113 L135 -15 C151 10.3333 159 31.3333 159 48 C159 65.3333 153.5 79.5 142.5 90.5 C131.5 101.5 116.333 107 97 107 C81 107 66.6667 104.333 54 99 L54 99 Z " />
<glyph glyph-name="hyphen" unicode="&#x2d;" horiz-adv-x="378" d="M79 260 L68 199 L301 199 L312 260 L79 260 Z " />
<glyph glyph-name="period" unicode="&#x2e;" horiz-adv-x="230" d="M142 47 C144 61.6667 140.5 74.3333 131.5 85 C122.5 95.6667 110.333 101 95 101 C79.6667 101 65.8334 95.5 53.5 84.5 C41.1667 73.5 34 60.3333 32 45 C30 30.3333 33.5 17.6667 42.5 7 C51.5 -3.66667 63 -9 77 -9 C93 -9 107.333 -3.5 120 7.5 C132.667 18.5 140 31.6667 142 47 L142 47 Z " />
<glyph glyph-name="slash" unicode="&#x2f;" horiz-adv-x="356" d="M392 735 L-75 -251 L-4 -251 L465 735 L392 735 Z " />
<glyph glyph-name="zero" unicode="0" horiz-adv-x="530" d="M283 459 C248.333 459 216.167 452.833 186.5 440.5 C156.833 428.167 131.5 410.834 110.5 388.5 C89.5 366.167 73.3333 339 62 307 C50.6667 275 45 240.333 45 203 C45 137 63 85.1667 99 47.5 C135 9.83334 185 -8.99998 249 -9 C323 -9 380.833 13.1667 422.5 57.5 C464.167 101.833 485 163.333 485 242 C485 310 467.167 363.167 431.5 401.5 C395.833 439.833 346.333 459 283 459 L283 459 Z M249 52 C203.667 52 170.167 64.1667 148.5 88.5 C126.833 112.833 116 150.333 116 201 C116 265 129.833 313.667 157.5 347 C185.167 380.333 226 397 280 397 C326 397 360 384.333 382 359 C404 333.667 415 294 415 240 C415 178 401 131.167 373 99.5 C345 67.8333 303.667 52 249 52 L249 52 Z " />
<glyph glyph-name="one" unicode="1" horiz-adv-x="308" d="M199 446 L36 415 L46 356 L142 374 L175 380 L114 0 L185 0 L256 446 L199 446 Z " />
<glyph glyph-name="two" unicode="2" horiz-adv-x="405" d="M262 187 C295.333 217.667 318.667 243.833 332 265.5 C345.333 287.166 352 310.333 352 335 C352 373 339.333 403.167 314 425.5 C288.667 447.833 255 459 213 459 C193.667 459 170.5 456 143.5 450 C116.5 444 90.3333 436.333 65 427 L83 370 C132.333 388.667 173 398 205 398 C229.667 398 248.833 392.167 262.5 380.5 C276.167 368.833 283 352 283 330 C283 310 276.5 292 263.5 276 C250.5 260 233.667 242.667 213 224 L26 48 L18 0 L325 0 L334 60 L125 60 L262 187 Z " />
<glyph glyph-name="three" unicode="3" horiz-adv-x="399" d="M228 129 C256.667 136.333 281.167 149.167 301.5 167.5 C321.833 185.833 335.833 206.5 343.5 229.5 C351.167 252.5 355 274.333 355 295 C355 346.333 339.5 386.5 308.5 415.5 C277.5 444.5 235 459 181 459 C139 459 95 451.333 49 436 L65 377 C80.3333 382.333 98.1667 387 118.5 391 C138.833 395 156.667 397 172 397 C208.667 397 236.667 387.333 256 368 C275.333 348.667 285 320.667 285 284 C285 244.667 273.167 215.333 249.5 196 C225.833 176.667 190 166 142 164 L82 163 L70 100 L133 97 C167.667 95 196.333 84.5 219 65.5 C241.667 46.5 254 20.3333 256 -13 C257.333 -41.6667 251.667 -66.6667 239 -88 C226.334 -109.333 208.667 -125.833 186 -137.5 C163.333 -149.167 136.667 -155 106 -155 C70 -155 30.3333 -148.333 -13 -135 L-30 -197 C-8 -203.667 16.3333 -209.167 43 -213.5 C69.6667 -217.833 92.6667 -220 112 -220 C144 -220 175.167 -214.5 205.5 -203.5 C235.833 -192.5 260.667 -176.167 280 -154.5 C299.333 -132.833 312.5 -110.667 319.5 -88 C326.5 -65.3333 330 -43.6667 330 -23 C330 -4.33333 326.833 15.1667 320.5 35.5 C314.168 55.8333 302.835 74.3333 286.5 91 C270.167 107.667 250.667 120.333 228 129 L228 129 Z " />
<glyph glyph-name="four" unicode="4" horiz-adv-x="506" d="M467 61 L368 61 L428 446 L362 446 L-4 51 L-12 0 L291 0 L257 -211 L326 -211 L359 0 L456 0 L467 61 Z M301 61 L84 61 L345 340 L301 61 Z " />
<glyph glyph-name="five" unicode="5" horiz-adv-x="445" d="M393 381 L402 446 L101 446 L47 98 L112 98 C172.667 98 216.333 89.3333 243 72 C269.667 54.6667 283 26.3333 283 -13 C283 -57.6667 267.833 -92.6667 237.5 -118 C207.167 -143.333 165.667 -156 113 -156 C73 -156 36.6667 -150.333 4 -139 L-10 -202 C29.3333 -214.667 71.3333 -221 116 -221 C151.333 -221 186 -214.833 220 -202.5 C254 -190.167 282 -171.667 304 -147 C326 -122.333 340.833 -97.5 348.5 -72.5 C356.167 -47.5 360 -23.6667 360 -1 C360 51 342.333 90.5 307 117.5 C271.667 144.5 211.667 159.333 127 162 L161 381 L393 381 Z " />
<glyph glyph-name="six" unicode="6" horiz-adv-x="502" d="M406 608 C426.667 608 452 605.667 482 601 L491 662 C459.667 667.333 428.667 670 398 670 C353.333 670 310.167 660 268.5 640 C226.833 620 189.833 591.5 157.5 554.5 C125.167 517.5 99.8333 472.667 81.5 420 C63.1667 367.333 54 310 54 248 C54 162 71.3333 98 106 56 C140.667 14 188.333 -7 249 -7 C309.667 -7 358.667 12.1667 396 50.5 C433.333 88.8333 452 140 452 204 C452 262.667 436 309 404 343 C372 377 327.667 394 271 394 C251.667 394 229.5 391.5 204.5 386.5 C179.5 381.5 156.333 374.667 135 366 C145 409.333 159.833 446.667 179.5 478 C199.167 509.333 221.333 534.833 246 554.5 C270.666 574.167 296.833 588 324.5 596 C352.166 604 379.333 608 406 608 L406 608 Z M254 335 C298.666 335 331.833 323 353.5 299 C375.167 275 386 243.667 386 205 C386 160.333 374 124.333 350 97 C326 69.6667 294 56 254 56 C212 56 179.5 72.1667 156.5 104.5 C133.5 136.833 122 185.667 122 251 C122 271 123 290 125 308 C144.333 316 166 322.5 190 327.5 C214 332.5 235.333 335 254 335 L254 335 Z " />
<glyph glyph-name="seven" unicode="7" horiz-adv-x="413" d="M47 446 L36 383 L325 383 L-55 -211 L25 -211 L420 408 L426 446 L47 446 Z " />
<glyph glyph-name="eight" unicode="8" horiz-adv-x="514" d="M321 339 C380.333 371.667 421.167 401.667 443.5 429 C465.833 456.333 477 488 477 524 C477 550 471.833 572.667 461.5 592 C451.167 611.331 437.667 627.164 421 639.5 C404.333 651.833 385.5 660.5 364.5 665.5 C343.5 670.5 322.333 673 301 673 C242.333 673 195 657.5 159 626.5 C123 595.5 105 555 105 505 C105 483 108.167 463.833 114.5 447.5 C120.833 431.167 130.5 416 143.5 402 C156.5 388 178.333 369 209 345 C157 316.333 118.5 291 93.5 269 C68.5 247 52.8333 225.333 46.5 204 C40.1667 182.667 37 162.333 37 143 C37 95 54.3333 57.6667 89 31 C123.667 4.33333 171.667 -9 233 -9 C277.667 -9 316 -1.66667 348 13 C380 27.6667 405.333 48.1667 424 74.5 C442.667 100.833 452 131.333 452 166 C452 180.667 449.667 195.833 445 211.5 C440.333 227.167 430.5 243.667 415.5 261 C400.5 278.333 369 304.333 321 339 L321 339 Z M298 614 C314 614 331 611 349 605 C367 599 381.833 588.667 393.5 574 C405.167 559.333 411 543 411 525 C411 497.667 401 473 381 451 C361 429 323.667 403.667 269 375 C233 400.333 207.833 423.5 193.5 444.5 C179.167 465.5 172 487 172 509 C172 531.667 178.667 551.667 192 569 C205.333 586.332 222 598.166 242 604.5 C262 610.833 280.667 614 298 614 L298 614 Z M235 52 C194.333 52 162.5 61.1667 139.5 79.5 C116.5 97.8333 105 123.333 105 156 C105 186.667 117.833 212.833 143.5 234.5 C169.167 256.167 208.333 280.667 261 308 C297 280.667 323.5 259.334 340.5 244 C357.5 228.667 368.833 214.333 374.5 201 C380.167 187.667 383 175.333 383 164 C383 151.333 379.667 137.167 373 121.5 C366.333 105.833 355.5 92.5 340.5 81.5 C325.5 70.5 308.833 62.8333 290.5 58.5 C272.167 54.1667 253.667 52 235 52 L235 52 Z " />
<glyph glyph-name="nine" unicode="9" horiz-adv-x="499" d="M251 459 C221 459 193.5 454 168.5 444 C143.5 434 121.833 419.833 103.5 401.5 C85.1667 383.167 71.1667 361.167 61.5 335.5 C51.8333 309.833 47 282 47 252 C47 191.333 63 143.833 95 109.5 C127 75.1667 171 58 227 58 C247.667 58 270.333 60.5 295 65.5 C319.666 70.5 342.333 77 363 85 C345.667 11 314 -47.6667 268 -91 C222 -134.333 167.333 -156 104 -156 C77.3333 -156 48.3333 -153.667 17 -149 L8 -210 C40 -215.333 72 -218 104 -218 C165.333 -218 222.833 -199.333 276.5 -162 C330.167 -124.667 371.667 -73.8333 401 -9.5 C430.333 54.8333 445 126 445 204 C445 247.333 440.333 285.333 431 318 C421.667 350.666 408.334 377.333 391 398 C373.667 418.667 353.167 434 329.5 444 C305.833 454 279.667 459 251 459 L251 459 Z M246 117 C200.667 117 167.167 129 145.5 153 C123.833 177 113 210 113 252 C113 277.333 118.333 301.333 129 324 C139.667 346.666 154.833 364.333 174.5 377 C194.167 389.667 217.667 396 245 396 C286.333 396 318.667 379.833 342 347.5 C365.333 315.167 377 269.667 377 211 C377 185 375.667 162.333 373 143 C354.333 135.667 332.833 129.5 308.5 124.5 C284.167 119.5 263.334 117 246 117 L246 117 Z " />
<glyph glyph-name="colon" unicode="&#x3a;" horiz-adv-x="271" d="M220 404 C222 418.666 218.5 431.333 209.5 442 C200.5 452.667 188.333 458 173 458 C157.667 458 143.833 452.5 131.5 441.5 C119.167 430.5 112 417.333 110 402 C108 387.333 111.5 374.667 120.5 364 C129.5 353.333 141 348 155 348 C171 348 185.333 353.5 198 364.5 C210.667 375.5 218 388.667 220 404 L220 404 Z M162 47 C164 61.6667 160.5 74.3333 151.5 85 C142.5 95.6667 130.333 101 115 101 C99.6667 101 85.8334 95.5 73.5 84.5 C61.1667 73.5 54 60.3333 52 45 C50 30.3333 53.5 17.6667 62.5 7 C71.5 -3.66667 83 -9 97 -9 C113 -9 127.333 -3.5 140 7.5 C152.667 18.5 160 31.6667 162 47 L162 47 Z " />
<glyph glyph-name="semicolon" unicode="&#x3b;" horiz-adv-x="288" d="M227 403 C229 417.666 225.5 430.333 216.5 441 C207.5 451.667 195.333 457 180 457 C164.667 457 150.833 451.5 138.5 440.5 C126.167 429.5 119 416.333 117 401 C115 386.333 118.5 373.667 127.5 363 C136.5 352.333 148 347 162 347 C178 347 192.333 352.5 205 363.5 C217.667 374.5 225 387.667 227 403 L227 403 Z M74 99 L81 -6 L27 -113 L79 -113 L155 -15 C171 10.3333 179 31.3333 179 48 C179 65.3333 173.5 79.5 162.5 90.5 C151.5 101.5 136.333 107 117 107 C101 107 86.6667 104.333 74 99 L74 99 Z " />
<glyph glyph-name="less" unicode="&#x3c;" horiz-adv-x="607" d="M546 459 L70 249 L69 199 L537 -14 L538 59 L166 223 L545 387 L546 459 Z " />
<glyph glyph-name="equal" unicode="&#x3d;" horiz-adv-x="555" d="M513 348 L50 348 L50 286 L512 286 L513 348 Z M48 193 L47 131 L509 131 L510 193 L48 193 Z " />
<glyph glyph-name="greater" unicode="&#x3e;" horiz-adv-x="617" d="M84 459 L83 387 L452 221 L76 59 L75 -14 L551 196 L552 246 L84 459 Z " />
<glyph glyph-name="question" unicode="&#x3f;" horiz-adv-x="436" d="M156 627 L163 566 C191.667 571.333 215.333 574 234 574 C304.667 574 340 548.667 340 498 C340 462.667 314 424.334 262 383 C253.333 376.333 234.5 361.833 205.5 339.5 C176.5 317.167 158.5 299.834 151.5 287.5 C144.5 275.167 138.333 253 133 221 L127 183 L199 183 L205 221 C208.333 240.333 211.166 252.833 213.5 258.5 C215.833 264.167 219 269.167 223 273.5 C227 277.833 239.167 287.333 259.5 302 C279.833 316.667 291.333 325 294 327 C296.658 329 298.324 330.333 299 331 C374.333 387 412 444.333 412 503 C412 545.667 398 578.5 370 601.5 C342 624.5 304 636 256 636 C222.667 636 189.333 633 156 627 L156 627 Z M199 47 C201 61.6667 197.5 74.3333 188.5 85 C179.5 95.6667 167.333 101 152 101 C136.667 101 122.833 95.5 110.5 84.5 C98.1667 73.5 91 60.3333 89 45 C87 30.3333 90.5 17.6667 99.5 7 C108.5 -3.66667 120 -9 134 -9 C150 -9 164.333 -3.5 177 7.5 C189.667 18.5 197 31.6667 199 47 L199 47 Z " />
<glyph glyph-name="at" unicode="&#x40;" horiz-adv-x="711" d="M407 554 C366.333 554 325.833 546.333 285.5 531 C245.167 515.667 208.5 494.167 175.5 466.5 C142.5 438.833 115.333 405.667 94 367 C72.6667 328.333 59.3333 286.667 54 242 C49.3333 200 52.5 159.833 63.5 121.5 C74.5 83.1667 92.3333 49.6667 117 21 C141.667 -7.66667 172 -30 208 -46 C244 -62 283 -70 325 -70 C349.667 -70 375.167 -67 401.5 -61 C427.833 -55 451.667 -47 473 -37 L455 8 C437 -0.666672 416.667 -7.5 394 -12.5 C371.333 -17.5 349.667 -20 329 -20 C293.667 -20 261 -13.3333 231 0 C201 13.3333 175.833 32 155.5 56 C135.167 80 120.833 108.167 112.5 140.5 C104.167 172.833 102.334 206.667 107 242 C112.333 278 123.833 312.167 141.5 344.5 C159.167 376.833 181.5 405 208.5 429 C235.5 453 266 471.667 300 485 C334 498.333 369 505 405 505 C437.666 505 467.833 499.5 495.5 488.5 C523.167 477.5 546.5 462 565.5 442 C584.5 422 598.333 398.167 607 370.5 C615.667 342.833 618 313 614 281 C608 237 593.333 201.167 570 173.5 C546.667 145.833 520.333 132 491 132 C473.668 132 462.835 138.167 458.5 150.5 C454.167 162.833 455 181 461 205 L510 398 C508.667 398 502.167 399.167 490.5 401.5 C478.833 403.833 466.167 405.5 452.5 406.5 C438.833 407.5 428.333 408 421 408 C386.333 408 355.333 401.167 328 387.5 C300.667 373.833 278.167 356.333 260.5 335 C242.833 313.667 229.333 291 220 267 C210.667 243 204.667 220.333 202 199 C198.667 173 201 150 209 130 C217 110 228.833 96.5 244.5 89.5 C260.166 82.5 276.333 79 293 79 C333.667 79 371.667 95 407 127 C409.667 115.667 417.5 105.167 430.5 95.5 C443.5 85.8333 458.667 81 476 81 C528 81 571.5 98.8333 606.5 134.5 C641.5 170.167 662.333 218.333 669 279 C672.333 310.333 670.833 340 664.5 368 C658.167 396 647.833 420.833 633.5 442.5 C619.167 464.166 601.667 482.832 581 498.5 C560.333 514.167 535.333 527.333 506 538 C476.667 548.667 443.667 554 407 554 L407 554 Z M409 222 L400 173 C386.667 159.667 371.667 148.833 355 140.5 C338.333 132.167 324.667 128 314 128 C292 128 277 134.333 269 147 C261 159.667 259 180.333 263 209 C265.667 229.667 271.5 250.833 280.5 272.5 C289.5 294.167 301.667 311.5 317 324.5 C332.333 337.5 348 346.5 364 351.5 C380 356.5 395.667 359 411 359 L446 357 L409 222 Z " />
<glyph glyph-name="A" unicode="A" horiz-adv-x="575" d="M454 0 L530 0 L417 660 L329 660 L-24 0 L57 0 L150 179 L426 179 L454 0 Z M184 244 L363 587 L416 244 L184 244 Z " />
<glyph glyph-name="B" unicode="B" horiz-adv-x="527" d="M340 330 C382.667 338 416.167 358 440.5 390 C464.833 422 477 462.333 477 511 C477 563.667 462 601.667 432 625 C402 648.333 352.333 660 283 660 L164 658 L60 2 C125.333 -3.33333 176 -6 212 -6 C295.333 -6 358 11 400 45 C442 79 463 129 463 195 C463 235 453.333 265.5 434 286.5 C414.667 307.5 383.334 322 340 330 L340 330 Z M287 599 C328.333 599 358.333 592 377 578 C395.667 564 405 541.333 405 510 C405 464.667 393.667 429.333 371 404 C348.333 378.667 316.667 366 276 366 L187 366 L224 598 L287 599 Z M233 55 C207.667 55 176.333 56.3333 139 59 L177 302 L234 302 C286 302 324.5 292.667 349.5 274 C374.5 255.333 387 226.667 387 188 C387 144.667 373.833 111.667 347.5 89 C321.167 66.3333 283 55 233 55 L233 55 Z " />
<glyph glyph-name="C" unicode="C" horiz-adv-x="557" d="M445 672 C383.667 672 330 663.167 284 645.5 C238 627.833 198.667 602.5 166 569.5 C133.333 536.5 107.333 494.833 88 444.5 C68.6667 394.167 59 337.667 59 275 C59 179.667 84 108.167 134 60.5 C184 12.8333 262.333 -11 369 -11 C415 -11 461.333 -6 508 4 L498 70 C460 62 419.667 58 377 58 C324.333 58 279.167 65.1667 241.5 79.5 C203.833 93.8333 175.667 116.167 157 146.5 C138.333 176.833 129 217.667 129 269 C129 326.333 137.167 376.5 153.5 419.5 C169.833 462.5 192.166 498.167 220.5 526.5 C248.833 554.833 282 575 320 587 C358 599 397 605 437 605 C475.667 605 527.333 599 592 587 L605 652 C547 665.333 493.667 672 445 672 L445 672 Z " />
<glyph glyph-name="D" unicode="D" horiz-adv-x="675" d="M341 661 L164 658 L60 0 C134.667 -4 205.333 -6 272 -6 C331.333 -6 384.667 2.83333 432 20.5 C479.333 38.1666 519.167 64.1666 551.5 98.5 C583.833 132.833 608.333 175.333 625 226 C641.667 276.667 650 334 650 398 C650 482 623.167 546.833 569.5 592.5 C515.833 638.167 439.667 661 341 661 L341 661 Z M322 596 C407.333 596 471.167 579.167 513.5 545.5 C555.833 511.833 577 460.667 577 392 C577 286 550.333 204.167 497 146.5 C443.667 88.8333 368.334 60 271 60 L142 62 L225 595 L322 596 Z " />
<glyph glyph-name="E" unicode="E" horiz-adv-x="486" d="M473 594 L483 660 L164 660 L61 0 L401 0 L410 67 L143 67 L180 299 L417 299 L427 366 L191 366 L227 594 L473 594 Z " />
<glyph glyph-name="F" unicode="F" horiz-adv-x="458" d="M467 593 L478 660 L164 660 L61 0 L133 0 L178 287 L402 287 L413 354 L189 354 L227 593 L467 593 Z " />
<glyph glyph-name="G" unicode="G" horiz-adv-x="665" d="M433 679 C374.333 679 321.5 669.333 274.5 650 C227.5 630.667 188.167 603.167 156.5 567.5 C124.833 531.834 100.833 489 84.5 439 C68.1667 389 60 334.333 60 275 C60 175 83 100.5 129 51.5 C175 2.5 246 -22 342 -22 C370.667 -22 404.5 -19.6667 443.5 -15 C482.5 -10.3333 517.666 -4.66667 549 2 L598 320 L528 320 L486 59 C446 49 403 44 357 44 C281 44 224.5 60.6667 187.5 94 C150.5 127.333 132 187 132 273 C132 327.667 138.667 376.5 152 419.5 C165.333 462.5 184.833 498.167 210.5 526.5 C236.167 554.833 267.5 576.333 304.5 591 C341.5 605.667 383.333 613 430 613 C481.333 613 541.667 603.667 611 585 L629 648 C600.333 657.333 568 664.833 532 670.5 C496 676.167 463 679 433 679 L433 679 Z " />
<glyph glyph-name="H" unicode="H" horiz-adv-x="709" d="M615 660 L568 365 L186 365 L232 660 L160 660 L56 0 L128 0 L175 297 L557 297 L510 0 L583 0 L687 660 L615 660 Z " />
<glyph glyph-name="I" unicode="I" horiz-adv-x="261" d="M235 660 L164 660 L60 0 L130 0 L235 660 Z " />
<glyph glyph-name="J" unicode="J" horiz-adv-x="260" d="M234 660 L164 660 L52 -36 C46.6667 -72 35.8333 -103.5 19.5 -130.5 C3.16667 -157.5 -21.6667 -185.667 -55 -215 L-7 -266 C34.3333 -229.333 64.3333 -194.833 83 -162.5 C101.667 -130.167 115 -89.6667 123 -41 L234 660 Z " />
<glyph glyph-name="K" unicode="K" horiz-adv-x="542" d="M164 660 L60 0 L131 0 L235 660 L164 660 Z M558 660 L471 660 L197 336 L407 0 L497 0 L281 338 L558 660 Z " />
<glyph glyph-name="L" unicode="L" horiz-adv-x="444" d="M232 660 L160 660 L56 0 L399 0 L409 68 L138 68 L232 660 Z " />
<glyph glyph-name="M" unicode="M" horiz-adv-x="849" d="M702 660 L431 127 L406 75 L393 145 L287 660 L184 660 L49 0 L120 0 L221 514 C226.333 542.667 229.666 565 231 581 L345 17 L450 17 L735 583 L726 525 L665 0 L733 0 L809 660 L702 660 Z " />
<glyph glyph-name="N" unicode="N" horiz-adv-x="724" d="M628 660 L545 137 C541.667 118.333 539 98.3333 537 77 L518 122 L258 660 L161 660 L56 0 L127 0 L208 514 C212.667 540 215.333 561 216 577 L495 0 L596 0 L699 660 L628 660 Z " />
<glyph glyph-name="O" unicode="O" horiz-adv-x="721" d="M424 675 C413.333 675 393.333 673.5 364 670.5 C334.667 667.5 303 658.5 269 643.5 C235 628.5 205 608.833 179 584.5 C153 560.167 131 531.833 113 499.5 C95 467.167 81.5 431.667 72.5 393 C63.5 354.333 59 314.667 59 274 C59 176 83.1667 103 131.5 55 C179.833 7 248 -17 336 -17 C389.333 -17 438.333 -7.83333 483 10.5 C527.667 28.8333 565.667 55.3333 597 90 C628.333 124.667 652.333 166.333 669 215 C685.667 263.667 694 317.333 694 376 C694 476.666 671.667 551.666 627 601 C582.334 650.333 514.667 675 424 675 L424 675 Z M422 611 C554.667 611 621 533.333 621 378 C621 330.667 614.833 286.5 602.5 245.5 C590.167 204.5 571.833 169.333 547.5 140 C523.167 110.667 493.167 87.8333 457.5 71.5 C421.833 55.1667 381.667 47 337 47 C200.333 47 132 123.667 132 277 C132 323.667 138.5 367.5 151.5 408.5 C164.5 449.5 183.5 485.167 208.5 515.5 C233.5 545.833 264.167 569.333 300.5 586 C336.833 602.667 377.333 611 422 611 L422 611 Z " />
<glyph glyph-name="P" unicode="P" horiz-adv-x="520" d="M304 660 C246 660 199.333 659.333 164 658 L61 0 L134 0 L174 254 C206.667 251.333 235 250 259 250 C435 250 523 329.333 523 488 C523 535.333 514 571 496 595 C478 619 452.667 635.833 420 645.5 C387.333 655.167 348.667 660 304 660 L304 660 Z M286 317 C250.667 315.667 216.667 316.667 184 320 L227 592 C238.333 593.333 256 594 280 594 C330.666 594 367.333 589.833 390 581.5 C412.667 573.167 428.167 561.333 436.5 546 C444.833 530.667 449 509.667 449 483 C449 429.667 435.167 389.167 407.5 361.5 C379.833 333.833 339.333 319 286 317 L286 317 Z " />
<glyph glyph-name="Q" unicode="Q" horiz-adv-x="713" d="M694 376 C694 476.666 670.667 551.666 624 601 C577.333 650.333 510.667 675 424 675 C413.333 675 393.333 673.5 364 670.5 C334.667 667.5 303 658.5 269 643.5 C235 628.5 205 608.833 179 584.5 C153 560.167 131 531.833 113 499.5 C95 467.167 81.5 431.667 72.5 393 C63.5 354.333 59 314.667 59 274 C59 181.333 80.5 111.167 123.5 63.5 C166.5 15.8333 227.667 -10.6667 307 -16 L623 -146 L650 -83 C566 -48.3333 496.667 -22 442 -4 C522 16.6667 584 60.5 628 127.5 C672 194.5 694 277.333 694 376 L694 376 Z M133 277 C133 323.667 139.5 367.5 152.5 408.5 C165.5 449.5 184.333 485.167 209 515.5 C233.667 545.833 264.167 569.333 300.5 586 C336.833 602.667 377.333 611 422 611 C555.333 611 622 533.333 622 378 C622 330.667 615.667 286.5 603 245.5 C590.333 204.5 571.833 169.333 547.5 140 C523.167 110.667 493.167 87.8333 457.5 71.5 C421.833 55.1667 381.667 47 337 47 C201 47 133 123.667 133 277 L133 277 Z " />
<glyph glyph-name="R" unicode="R" horiz-adv-x="562" d="M517 0 L366 278 C396.667 289.333 423.667 306 447 328 C470.333 350 486.5 375.333 495.5 404 C504.5 432.667 509 460.667 509 488 C509 603.333 446.667 661 322 661 C260 661 207.333 660 164 658 L61 0 L133 0 L174 261 C196 259 219 258 243 258 C261.666 258 279.333 259 296 261 L432 0 L517 0 Z M184 324 L226 594 L297 596 C346.333 596 381.833 586.833 403.5 568.5 C425.167 550.167 436 520.667 436 480 C436 429.333 420.333 390.333 389 363 C357.667 335.667 312.334 322 253 322 L184 324 Z " />
<glyph glyph-name="S" unicode="S" horiz-adv-x="480" d="M288 672 C232 672 186.833 656.167 152.5 624.5 C118.167 592.833 101 551.333 101 500 C101 480 104.333 460.833 111 442.5 C117.667 424.167 128.333 406 143 388 C157.667 370 186 342 228 304 C284 253.333 317 220.5 327 205.5 C337 190.5 342 177 342 165 C342 148.333 337.833 131.333 329.5 114 C321.167 96.6667 307.834 82.5 289.5 71.5 C271.167 60.5 246.667 55 216 55 C172 55 120.333 63.6667 61 81 L45 15 C106.333 -3 163.667 -12 217 -12 C263.667 -12 301.667 -3 331 15 C360.333 33 381.667 55.6667 395 83 C408.333 110.333 415 138.667 415 168 C415 176.667 414.167 186 412.5 196 C410.833 206 407 216.833 401 228.5 C395 240.167 386.167 252.333 374.5 265 C362.833 277.667 344.5 295.667 319.5 319 C294.5 342.333 281.667 354.333 281 355 C225.667 406.333 193.833 439.667 185.5 455 C177.167 470.333 173 485.333 173 500 C173 524.667 178.667 545.5 190 562.5 C201.333 579.5 216.166 591.167 234.5 597.5 C252.833 603.833 270.333 607 287 607 C325.667 607 372.667 599.333 428 584 L443 647 C382.333 663.667 330.667 672 288 672 L288 672 Z " />
<glyph glyph-name="T" unicode="T" horiz-adv-x="543" d="M602 660 L81 660 L70 594 L296 594 L202 0 L274 0 L369 594 L592 594 L602 660 Z " />
<glyph glyph-name="U" unicode="U" horiz-adv-x="703" d="M676 660 L604 660 L529 189 C520.334 138.333 500.834 103.333 470.5 84 C440.167 64.6667 394.334 55 333 55 C261.667 55 213.5 65.8333 188.5 87.5 C163.5 109.167 155 143.667 163 191 L236 660 L164 660 L89 187 C79 117.667 92.6666 67.5 130 36.5 C167.333 5.5 230.667 -10.6667 320 -12 C378.666 -12.6667 426.833 -7.33333 464.5 4 C502.167 15.3333 532.333 34.8333 555 62.5 C577.667 90.1666 593 130.667 601 184 L676 660 Z " />
<glyph glyph-name="V" unicode="V" horiz-adv-x="579" d="M558 660 L273 111 L251 66 L245 111 L161 660 L81 660 L192 0 L291 0 L639 660 L558 660 Z " />
<glyph glyph-name="W" unicode="W" horiz-adv-x="862" d="M832 660 L616 68 L556 660 L450 660 L198 81 L169 660 L96 660 L132 0 L236 0 L493 591 L553 0 L661 0 L907 660 L832 660 Z " />
<glyph glyph-name="X" unicode="X" horiz-adv-x="553" d="M610 660 L526 660 L312 399 L187 660 L104 660 L261 337 L-22 0 L67 0 L292 271 L424 0 L508 0 L344 335 L610 660 Z " />
<glyph glyph-name="Y" unicode="Y" horiz-adv-x="556" d="M531 660 L340 403 C318.667 373.667 305.667 354.334 301 345 C298.333 353 290.333 372.667 277 404 L163 660 L81 660 L252 283 L207 0 L280 0 L326 282 L616 660 L531 660 Z " />
<glyph glyph-name="Z" unicode="Z" horiz-adv-x="532" d="M578 660 L103 660 L93 594 L465 594 L-7 47 L-14 0 L476 0 L486 67 L99 67 L572 616 L578 660 Z " />
<glyph glyph-name="bracketleft" unicode="&#x5b;" horiz-adv-x="294" d="M326 680 L335 735 L158 735 L2 -251 L179 -251 L187 -195 L78 -195 L216 680 L326 680 Z " />
<glyph glyph-name="backslash" unicode="&#x5c;" horiz-adv-x="344" d="M82 735 L202 -251 L271 -251 L154 735 L82 735 Z " />
<glyph glyph-name="bracketright" unicode="&#x5d;" horiz-adv-x="294" d="M121 735 L113 679 L222 679 L84 -196 L-26 -196 L-35 -251 L142 -251 L298 735 L121 735 Z " />
<glyph glyph-name="asciicircum" unicode="&#x5e;" horiz-adv-x="510" d="M505 0 L313 472 L257 472 L43 0 L116 0 L281 379 L430 0 L505 0 Z " />
<glyph glyph-name="underscore" unicode="&#x5f;" horiz-adv-x="524" d="M8 -56 L-2 -117 L418 -117 L428 -56 L8 -56 Z " />
<glyph glyph-name="grave" unicode="&#x60;" horiz-adv-x="188" d="M84 660 L156 521 L222 521 L156 660 L84 660 Z " />
<glyph glyph-name="a" unicode="a" horiz-adv-x="503" d="M325 457 C285 457 248 449.333 214 434 C180 418.667 150.833 397.167 126.5 369.5 C102.167 341.833 83.5 309.5 70.5 272.5 C57.5 235.5 51 196 51 154 C51 44 97 -11 189 -11 C219.667 -11 246.167 -4.83333 268.5 7.5 C290.833 19.8333 312.667 39 334 65 L322 0 L389 0 L460 441 C440.667 445.667 417.667 449.5 391 452.5 C364.333 455.5 342.333 457 325 457 L325 457 Z M198 50 C171.333 50 151.5 58.8333 138.5 76.5 C125.5 94.1667 119 121.333 119 158 C119 199.333 125.5 235.667 138.5 267 C151.5 298.333 167.833 323.833 187.5 343.5 C207.167 363.167 228.5 377.167 251.5 385.5 C274.5 393.833 297 398 319 398 C341 398 362.333 395.667 383 391 L341 139 C295 79.6667 247.333 50 198 50 L198 50 Z " />
<glyph glyph-name="b" unicode="b" horiz-adv-x="506" d="M306 457 C254.667 457 212.667 439.667 180 405 L233 735 L164 735 L52 13 C112 -3 162.667 -11 204 -11 C242.667 -11 278 -3 310 13 C342 29 369 50.6667 391 78 C413 105.333 429.667 136.667 441 172 C452.333 207.333 458 244 458 282 C458 314.667 453.833 342.5 445.5 365.5 C437.167 388.5 425.834 406.833 411.5 420.5 C397.167 434.167 380.667 443.667 362 449 C343.333 454.333 324.667 457 306 457 L306 457 Z M208 51 C184.667 51 157.333 54.6667 126 62 L170 341 C204 377.667 243.667 396 289 396 C323 396 347.833 386 363.5 366 C379.167 346 387 316.667 387 278 C387 232 378.667 191.833 362 157.5 C345.333 123.167 323.833 96.8333 297.5 78.5 C271.167 60.1667 241.333 51 208 51 L208 51 Z " />
<glyph glyph-name="c" unicode="c" horiz-adv-x="408" d="M401 378 L417 436 C401.667 441.333 382 446 358 450 C334 454 312.333 456 293 456 C264.333 456 237.667 451.667 213 443 C188.333 434.333 166.5 422 147.5 406 C128.5 390 112.5 371.167 99.5 349.5 C86.5 327.833 75.5 301.833 66.5 271.5 C57.5 241.167 53 206.667 53 168 C53 107.333 66.5 62.3333 93.5 33 C120.5 3.66667 162.333 -11 219 -11 C239 -11 262 -9.33333 288 -6 C314 -2.66667 336 1.66667 354 7 L344 66 C301.333 55.3333 264 50 232 50 C196 50 168.5 58.8333 149.5 76.5 C130.5 94.1667 121 124.333 121 167 C121 212.333 128.667 253.167 144 289.5 C159.333 325.833 179.667 352.667 205 370 C230.333 387.333 259.333 396 292 396 C326.667 396 363 390 401 378 L401 378 Z " />
<glyph glyph-name="d" unicode="d" horiz-adv-x="507" d="M442 735 L397 448 C366.333 454 337.667 457 311 457 C271 457 234.5 448.833 201.5 432.5 C168.5 416.167 141 393.834 119 365.5 C97 337.167 80.1667 305 68.5 269 C56.8333 233 51 195.667 51 157 C51 101 63 58.6667 87 30 C111 1.33333 143.667 -13 185 -13 C238.333 -13 289.333 12.6667 338 64 L327 0 L394 0 L510 735 L442 735 Z M200 49 C146.667 49 120 88 120 166 C120 198.667 125.167 230.833 135.5 262.5 C145.833 294.167 161.667 320.5 183 341.5 C204.333 362.5 226.5 376.833 249.5 384.5 C272.5 392.167 295 396 317 396 C337.667 396 361.333 392.667 388 386 L348 138 C327.333 112 303.667 90.6667 277 74 C250.333 57.3333 224.667 49 200 49 L200 49 Z " />
<glyph glyph-name="e" unicode="e" horiz-adv-x="473" d="M420 229 C425.333 252.333 428 282 428 318 C428 360 416.167 393.667 392.5 419 C368.833 444.333 333 457 285 457 C250.333 457 218.5 449.667 189.5 435 C160.5 420.333 136 400 116 374 C96 348 80.6667 317.5 70 282.5 C59.3333 247.5 54 210.333 54 171 C54 109 67.8333 63.1667 95.5 33.5 C123.167 3.83333 167 -11 227 -11 C249.667 -11 276.167 -8.5 306.5 -3.5 C336.833 1.5 362 7.66667 382 15 L368 70 C317.333 56 271.667 49 231 49 C187 49 157.833 59.6667 143.5 81 C129.167 102.333 122 133.667 122 175 C122 195.667 123.333 213.667 126 229 L420 229 Z M282 398 C295.333 398 308.333 395.667 321 391 C333.667 386.333 343 377.667 349 365 C355 352.333 358.333 336 359 316 C359 306 357.667 295.667 355 285 L139 285 C151 319.667 169.5 347.167 194.5 367.5 C219.5 387.833 248.667 398 282 398 L282 398 Z " />
<glyph glyph-name="f" unicode="f" horiz-adv-x="321" d="M333 682 C361.667 682 390.667 674.667 420 660 L444 715 C403.333 734.333 364.333 744 327 744 C293.667 744 265.334 737.167 242 723.5 C218.667 709.836 200 691.669 186 669 C172 646.333 162.333 619 157 587 L135 446 L60 446 L50 386 L125 386 L63 0 L129 0 L190 386 L340 386 L350 446 L200 446 L221 583 C231.667 649 269 682 333 682 L333 682 Z " />
<glyph glyph-name="g" unicode="g" horiz-adv-x="501" d="M312 454 C278 454 246.833 448.333 218.5 437 C190.167 425.667 165.833 410.167 145.5 390.5 C125.167 370.833 108.333 348.833 95 324.5 C81.6667 300.167 70.8334 272.833 62.5 242.5 C54.1667 212.167 50 180.667 50 148 C50 111.333 56.3333 80.5 69 55.5 C81.6667 30.5 99 13.1667 121 3.5 C143 -6.16667 165.667 -11 189 -11 C217 -11 243.333 -5 268 7 C292.667 19 313.667 36 331 58 L308 -87 C301.333 -122.333 285.167 -150.167 259.5 -170.5 C233.833 -190.833 201.667 -201 163 -201 C117 -201 70 -195 22 -183 L5 -243 C56.3333 -255 110.333 -261 167 -261 C222.333 -261 268.333 -246.167 305 -216.5 C341.667 -186.833 364.333 -146 373 -94 L457 438 C404.333 448.667 356 454 312 454 L312 454 Z M344 138 C322 109.333 298.333 86.8333 273 70.5 C247.667 54.1667 223.333 46 200 46 C176.667 46 157.333 54.5 142 71.5 C126.667 88.5 119 116 119 154 C119 184 123.5 214.333 132.5 245 C141.5 275.667 154.5 302.833 171.5 326.5 C188.5 350.167 209.5 367.667 234.5 379 C259.5 390.333 285.667 396 313 396 C339.667 396 363.333 394 384 390 L344 138 Z " />
<glyph glyph-name="h" unicode="h" horiz-adv-x="525" d="M351 457 C321 457 290.833 451 260.5 439 C230.167 427 202.333 408.333 177 383 L232 735 L164 735 L48 0 L117 0 L168 328 C220 375.333 273 399 327 399 C353 399 371.5 392.333 382.5 379 C393.5 365.667 396.667 344 392 314 L343 0 L412 0 L465 338 C470.333 374.667 463 403.667 443 425 C423 446.333 392.333 457 351 457 L351 457 Z " />
<glyph glyph-name="i" unicode="i" horiz-adv-x="239" d="M226 592 C228 605.333 224.833 616.833 216.5 626.5 C208.167 636.167 197.333 641 184 641 C170 641 157.833 636.333 147.5 627 C137.167 617.667 131 606 129 592 C127 578.667 129.833 567.333 137.5 558 C145.167 548.667 156 544 170 544 C183.333 544 195.5 548.667 206.5 558 C217.5 567.329 224 578.662 226 592 L226 592 Z M191 446 L118 446 L49 0 L121 0 L191 446 Z " />
<glyph glyph-name="j" unicode="j" horiz-adv-x="253" d="M239 592 C241 605.333 237.833 616.833 229.5 626.5 C221.167 636.167 210.333 641 197 641 C183 641 170.833 636.333 160.5 627 C150.167 617.667 144 606 142 592 C140 578.667 142.833 567.333 150.5 558 C158.167 548.667 169 544 183 544 C196.333 544 208.5 548.667 219.5 558 C230.5 567.329 237 578.662 239 592 L239 592 Z M202 446 L131 446 L55 -32 C47.6667 -97.3334 11.6667 -157.333 -53 -212 L-5 -263 C37 -225.667 66.8333 -191.667 84.5 -161 C102.167 -130.333 115.667 -89.3333 125 -38 L202 446 Z " />
<glyph glyph-name="k" unicode="k" horiz-adv-x="463" d="M164 735 L48 0 L117 0 L233 735 L164 735 Z M459 446 L366 446 L171 267 L333 0 L415 0 L251 260 L459 446 Z " />
<glyph glyph-name="l" unicode="l" horiz-adv-x="231" d="M234 735 L164 735 L48 0 L118 0 L234 735 Z " />
<glyph glyph-name="m" unicode="m" horiz-adv-x="788" d="M599 457 C537.667 457 486.333 435.667 445 393 C437.667 413 423 428.667 401 440 C379 451.333 353 457 323 457 C267.667 457 219.333 437.333 178 398 L186 446 L118 446 L48 0 L116 0 L169 336 L169 339 C212.333 379 258 399 306 399 C319.333 399 332.5 396.833 345.5 392.5 C358.5 388.167 367.667 380.667 373 370 C378.333 359.333 379.667 347.333 377 334 L326 0 L395 0 L448 338 L449 341 C491 379.667 536.666 399 586 399 C612 399 631.333 393.667 644 383 C656.667 372.333 661 356 657 334 L606 0 L675 0 L728 338 C734 374 725.167 402.833 701.5 424.5 C677.835 446.167 643.668 457 599 457 L599 457 Z " />
<glyph glyph-name="n" unicode="n" horiz-adv-x="525" d="M347 457 C283 457 226 432.333 176 383 L186 446 L118 446 L48 0 L116 0 L166 326 C219.333 374.667 271.667 399 323 399 C349 399 368.333 392.833 381 380.5 C393.667 368.167 398 349.334 394 324 L343 0 L412 0 L465 338 C471 372.667 463.667 401.167 443 423.5 C422.333 445.833 390.333 457 347 457 L347 457 Z " />
<glyph glyph-name="o" unicode="o" horiz-adv-x="529" d="M301 457 C261 457 225.167 449 193.5 433 C161.833 417 135.833 395.667 115.5 369 C95.1667 342.333 79.8334 312.333 69.5 279 C59.1667 245.667 54 211.667 54 177 C54 116.333 69 69.8333 99 37.5 C129 5.16667 172.667 -11 230 -11 C267.333 -11 301.5 -4 332.5 10 C363.5 24 389.833 43.3333 411.5 68 C433.167 92.6667 449.667 122 461 156 C472.333 190 478 226 478 264 C478 326.667 462.833 374.5 432.5 407.5 C402.167 440.5 358.333 457 301 457 L301 457 Z M237 49 C161.667 49 124 93 124 181 C124 217 129.333 249 140 277 C150.667 305 164.333 328.167 181 346.5 C197.667 364.833 216.333 377.833 237 385.5 C257.667 393.167 278 397 298 397 C371.333 397 408 351.333 408 260 C408 222.667 402.667 190.167 392 162.5 C381.333 134.833 367.833 112.5 351.5 95.5 C335.167 78.5 317 66.5 297 59.5 C277 52.5 257 49 237 49 L237 49 Z " />
<glyph glyph-name="p" unicode="p" horiz-adv-x="510" d="M321 455 C292.333 455 265.167 449.167 239.5 437.5 C213.833 425.833 192.333 408.667 175 386 L183 446 L118 446 L8 -251 L77 -251 L118 13 C152 -4.33333 186.333 -13 221 -13 C257 -13 290.167 -4.83333 320.5 11.5 C350.833 27.8333 376.5 50.1667 397.5 78.5 C418.5 106.833 434.5 139 445.5 175 C456.5 211 462 248 462 286 C462 325.333 455.667 358.333 443 385 C430.333 411.667 412.833 430 390.5 440 C368.167 450 345 455 321 455 L321 455 Z M216 49 C188.667 49 159 56.3333 127 71 L166 323 C184.667 347 205.833 364.833 229.5 376.5 C253.167 388.167 277.333 394 302 394 C361.333 394 391 357.667 391 285 C391 241 382.833 200.833 366.5 164.5 C350.167 128.167 329.167 99.8333 303.5 79.5 C277.833 59.1667 248.667 49 216 49 L216 49 Z " />
<glyph glyph-name="q" unicode="q" horiz-adv-x="508" d="M297 456 C261.667 454 227 443.667 193 425 C159 406.333 130.833 379.833 108.5 345.5 C86.1667 311.167 71 277.334 63 244 C55 210.667 50.6667 179 50 149 C49.3333 97.6667 61.8333 57.8333 87.5 29.5 C113.167 1.16667 150 -13 198 -13 C224.667 -13 249.167 -7.66667 271.5 3 C293.833 13.6667 315.333 31.3333 336 56 L288 -250 L354 -250 L465 441 C439.667 447 411.334 451.333 380 454 C348.667 456.66 321 457.326 297 456 L297 456 Z M206 50 C178 50 156.5 59 141.5 77 C126.5 95 119 122 119 158 C119 189.333 124.667 221.5 136 254.5 C147.333 287.5 163.833 315.167 185.5 337.5 C207.167 359.833 228.167 375.167 248.5 383.5 C268.833 391.833 288 396 306 396 C343.333 396 371.333 394 390 390 L349 137 C322.333 106.333 297.5 84.1667 274.5 70.5 C251.5 56.8333 228.667 50 206 50 L206 50 Z " />
<glyph glyph-name="r" unicode="r" horiz-adv-x="311" d="M322 384 L332 448 C316 450 301.333 451 288 451 C236.667 451 200.333 433.667 179 399 L187 446 L118 446 L48 0 L116 0 L172 346 C190.667 372 227.333 385.333 282 386 L322 384 Z " />
<glyph glyph-name="s" unicode="s" horiz-adv-x="354" d="M207 456 C181 456 157.667 451 137 441 C116.333 431 99 415.833 85 395.5 C71 375.167 64 351.667 64 325 C64 307 66.8333 292 72.5 280 C78.1665 268 83.8332 258.5 89.5 251.5 C95.1667 244.5 102.5 237.167 111.5 229.5 C120.5 221.834 137.833 210.167 163.5 194.5 C189.167 178.834 206.667 165.667 216 155 C225.333 144.333 230 132 230 118 C230 105.333 225.833 93.1667 217.5 81.5 C209.167 69.8333 198.5 61.5 185.5 56.5 C172.5 51.5 160 49 148 49 C136 49 119.833 50.8333 99.5 54.5 C79.1667 58.1667 60.6667 62.6667 44 68 L28 11 C46 5 66.8333 -0.166672 90.5 -4.5 C114.167 -8.83334 134 -11 150 -11 C167.333 -11 187.667 -7.5 211 -0.5 C234.333 6.5 254.5 20.3333 271.5 41 C288.5 61.6667 297 87.6667 297 119 C297 138.333 294.167 154.167 288.5 166.5 C282.833 178.833 277.167 188.5 271.5 195.5 C265.833 202.5 258.5 209.833 249.5 217.5 C240.5 225.167 221.5 237.667 192.5 255 C163.5 272.333 146.167 286.333 140.5 297 C134.834 307.667 131.668 315.667 131 321 C130.333 326.333 130 330 130 332 C130 350 137 365.333 151 378 C165 390.667 184.667 397 210 397 C234 397 266 391.333 306 380 L321 437 C277 449.667 239 456 207 456 L207 456 Z " />
<glyph glyph-name="t" unicode="t" horiz-adv-x="336" d="M188 384 L318 384 L327 446 L198 446 L220 584 L151 584 L129 446 L58 446 L48 384 L119 384 L76 110 C70 69.3333 75.8333 39.5 93.5 20.5 C111.167 1.5 141.667 -8 185 -8 C198.333 -8 214.333 -6.66667 233 -4 C251.667 -1.33333 267.667 1.66667 281 5 L270 63 C260 60.3333 248 58 234 56 C220 54 210 53 204 53 C180 53 163.333 57.1667 154 65.5 C144.667 73.8333 141.333 87.3333 144 106 L188 384 Z " />
<glyph glyph-name="u" unicode="u" horiz-adv-x="518" d="M402 446 L350 114 C300 69.3333 248.667 47 196 47 C142.667 47 120.667 75 130 131 L182 446 L113 446 L59 107 C53 71 60 42.3333 80 21 C100 -0.333328 130.667 -11 172 -11 C200.667 -11 229.833 -5.33333 259.5 6 C289.166 17.3333 316.333 34.6667 341 58 L332 0 L400 0 L470 446 L402 446 Z " />
<glyph glyph-name="v" unicode="v" horiz-adv-x="412" d="M361 446 L178 68 L111 446 L41 446 L124 0 L216 0 L437 446 L361 446 Z " />
<glyph glyph-name="w" unicode="w" horiz-adv-x="703" d="M647 446 L491 57 L436 446 L342 446 L143 58 L117 446 L51 446 L82 0 L183 0 L377 380 L432 0 L536 0 L718 446 L647 446 Z " />
<glyph glyph-name="x" unicode="x" horiz-adv-x="431" d="M452 446 L369 446 L224 280 L135 446 L61 446 L177 229 L-21 0 L63 0 L209 169 L299 0 L375 0 L255 221 L452 446 Z " />
<glyph glyph-name="y" unicode="y" horiz-adv-x="444" d="M385 446 L207 125 C195 102.333 184.667 80 176 58 L168 126 L130 446 L56 446 L124 -18 C94.6667 -71.3333 67.3333 -111 42 -137 C16.6667 -163 -15 -183.333 -53 -198 L-29 -256 C23 -232 63.6667 -205.167 93 -175.5 C122.333 -145.833 155.667 -97.3333 193 -30 L461 446 L385 446 Z " />
<glyph glyph-name="z" unicode="z" horiz-adv-x="455" d="M425 446 L89 446 L83 384 L324 384 L23 50 L19 0 L369 0 L379 62 L120 62 L419 393 L425 446 Z " />
<glyph glyph-name="braceleft" unicode="&#x7b;" horiz-adv-x="367" d="M320 735 C302.667 735 286.334 731.333 271 724 C255.667 716.667 244.167 706.333 236.5 693 C228.833 679.667 224 666.667 222 654 L175 353 C169.667 321.667 158 301.334 140 292 C122 282.667 96.6667 277.334 64 276 L53 212 C79 210 98.3333 207 111 203 C123.667 199 132.5 191.667 137.5 181 C142.5 170.333 143 152.333 139 127 L97 -137 C91 -174.333 90.8333 -199.833 96.5 -213.5 C102.167 -227.167 113.667 -236.834 131 -242.5 C148.333 -248.167 170.667 -251 198 -251 L251 -251 L261 -194 L205 -194 C195 -194 185.667 -192.833 177 -190.5 C168.333 -188.167 162.5 -183.5 159.5 -176.5 C156.5 -169.5 156.667 -155 160 -133 L205 150 C209.667 179.333 207.833 201.167 199.5 215.5 C191.167 229.833 170.333 238.666 137 242 C193 248 225.333 278.333 234 333 L282 636 C285.333 654.667 292.333 666.5 303 671.5 C313.667 676.5 326.333 679 341 679 L397 679 L407 735 L320 735 Z " />
<glyph glyph-name="bar" unicode="&#x7c;" horiz-adv-x="283" d="M256 735 L189 735 L33 -251 L100 -251 L256 735 Z " />
<glyph glyph-name="braceright" unicode="&#x7d;" horiz-adv-x="367" d="M234 357 L276 621 C282 658.333 282.167 683.833 276.5 697.5 C270.833 711.167 259.333 720.833 242 726.5 C224.667 732.167 202.333 735 175 735 L122 735 L112 678 L168 678 C178 678 187.333 676.833 196 674.5 C204.667 672.167 210.5 667.5 213.5 660.5 C216.5 653.5 216.333 639 213 617 L168 334 C163.332 304.667 165.165 282.834 173.5 268.5 C181.833 254.167 202.667 245.333 236 242 C180 236 147.667 205.667 139 151 L91 -152 C87.6667 -170.667 80.6667 -182.5 70 -187.5 C59.3334 -192.5 46.6667 -195 32 -195 L-24 -195 L-34 -251 L53 -251 C70.3333 -251 86.6667 -247.333 102 -240 C117.333 -232.666 128.833 -222.333 136.5 -209 C144.167 -195.667 149 -182.667 151 -170 L198 131 C203.333 162.333 215 182.667 233 192 C251 201.333 276.333 206.666 309 208 L320 272 C294 274 274.667 277 262 281 C249.333 285 240.5 292.333 235.5 303 C230.5 313.667 230 331.667 234 357 L234 357 Z " />
<glyph glyph-name="asciitilde" unicode="&#x7e;" horiz-adv-x="569" d="M184 304 C164 304 141.667 299.833 117 291.5 C92.3333 283.167 59 266.667 17 242 L45 187 C89 212.333 120.667 227.666 140 233 C159.333 238.333 174.667 241 186 241 C194 241 205.167 239.5 219.5 236.5 C233.833 233.5 262 222.833 304 204.5 C346 186.167 378.333 177 401 177 C418.333 177 438 181.167 460 189.5 C482 197.833 514.666 215 558 241 L528 294 C526.667 293.333 521.167 290.167 511.5 284.5 C501.833 278.833 491.5 273 480.5 267 C469.5 261 458.5 256 447.5 252 C436.5 248 426.833 245.333 418.5 244 C410.168 242.667 403.335 242 398 242 C390 242 379.5 243.5 366.5 246.5 C353.5 249.5 326.833 259.833 286.5 277.5 C246.167 295.167 212 304 184 304 L184 304 Z " />
<glyph glyph-name="uni00A0" unicode="&#xa0;" horiz-adv-x="180" d="" />
<glyph glyph-name="exclamdown" unicode="&#xa1;" horiz-adv-x="341" d="M137 404 C135 389.333 138.5 376.667 147.5 366 C156.5 355.333 168.667 350 184 350 C199.333 350 213.166 355.5 225.5 366.5 C237.833 377.5 245 390.667 247 406 C249 420.665 245.5 433.332 236.5 444 C227.5 454.667 216 460 202 460 C186 460 171.667 454.5 159 443.5 C146.333 432.5 139 419.333 137 404 L137 404 Z M139 -176 L209 268 L137 268 L67 -176 L139 -176 Z " />
<glyph glyph-name="cent" unicode="&#xa2;" horiz-adv-x="442" d="M354 454 L364 518 L309 518 L299 456 C279.667 455.333 258.5 452.167 235.5 446.5 C212.5 440.833 188.833 430.167 164.5 414.5 C140.167 398.833 119 376.833 101 348.5 C83 320.167 70.6667 290.667 64 260 C57.3333 229.333 54 200.333 54 173 C54 54.3333 111 -7 225 -11 L216 -64 L271 -64 L280 -9 C316.667 -6.33333 351.667 -1 385 7 L372 66 C346 60 318.667 55.3333 290 52 L344 394 C362 392 380.167 389.167 398.5 385.5 C416.833 381.833 427.333 379.333 430 378 L448 436 C418.667 444 387.334 450 354 454 L354 454 Z M124 171 C124 206.333 128.833 238.5 138.5 267.5 C148.167 296.5 161.333 320.833 178 340.5 C194.667 360.166 213.333 373.833 234 381.5 C254.667 389.167 273 393.667 289 395 L234 50 C198 52 170.667 62.6667 152 82 C133.333 101.333 124 131 124 171 L124 171 Z " />
<glyph glyph-name="sterling" unicode="&#xa3;" horiz-adv-x="456" d="M385 609 C417.666 609 445.333 604.667 468 596 L485 657 C456.333 666.333 425.333 671 392 671 C278 671 212 609 194 485 L177 375 L112 375 L102 314 L167 314 L133 97 C130.334 81 123.834 69 113.5 61 C103.167 53 85.6667 49 61 49 L53 0 L378 0 L386 63 L227 63 C221.667 63 215.333 62.5 208 61.5 C200.667 60.5 190.833 58.1667 178.5 54.5 C166.167 50.8334 158.333 48.6668 155 48 C175.667 64 188.333 76.5 193 85.5 C197.667 94.5 200.667 103 202 111 L234 314 L409 314 L418 375 L244 375 L261 485 C272.333 567.667 313.667 609 385 609 L385 609 Z " />
<glyph glyph-name="currency" unicode="&#xa4;" horiz-adv-x="596" d="M498 224 C504.667 270.667 497 312.667 475 350 L553 425 L510 470 L433 397 C419 407.665 402 416.332 382 423 C362 429.667 342 433 322 433 C271.333 433 225.333 417.667 184 387 L107 471 L60 428 L137 344 C123.667 328 112 309.167 102 287.5 C92 265.833 85.3333 244.667 82 224 C78.6655 201.333 78.8321 179.167 82.5 157.5 C86.1665 135.833 93.3332 116.333 104 99 L21 22 L64 -24 L146 52 C160 41.3333 176.833 32.8333 196.5 26.5 C216.167 20.1667 236 17 256 17 C280.667 17 305 21 329 29 C353 37 375 48 395 62 L474 -24 L520 19 L442 105 C456 121 468 139.667 478 161 C488 182.333 494.667 203.333 498 224 L498 224 Z M265 79 C237 79 212.167 87.3333 190.5 104 C168.833 120.667 154.833 140 148.5 162 C142.167 184 140.667 204.333 144 223 C148 251 160.333 277.333 181 302 C201.667 326.666 223.667 344.333 247 355 C270.333 365.667 291.667 371 311 371 C334.333 371 355 365.5 373 354.5 C391 343.5 405.167 330.333 415.5 315 C425.833 299.667 432.333 284 435 268 C437.667 252 438 237 436 223 C429.333 185 408.833 151.5 374.5 122.5 C340.167 93.5 303.667 79 265 79 L265 79 Z " />
<glyph glyph-name="yen" unicode="&#xa5;" horiz-adv-x="575" d="M336 309 L625 660 L537 660 L320 385 L307 365 C306.333 371 304.333 377.667 301 385 L175 660 L91 660 L262 309 L261 301 L99 301 L90 242 L250 242 L237 159 L78 159 L69 100 L228 100 L212 0 L287 0 L303 100 L463 100 L472 159 L312 159 L325 242 L485 242 L494 301 L335 301 L336 309 Z " />
<glyph glyph-name="brokenbar" unicode="&#xa6;" horiz-adv-x="287" d="M260 735 L192 735 L122 309 L191 309 L260 735 Z M175 202 L107 202 L34 -251 L103 -251 L175 202 Z " />
<glyph glyph-name="section" unicode="&#xa7;" horiz-adv-x="477" d="M195 -90 L177 508 C175.667 546 184.5 573.333 203.5 590 C222.5 606.667 255.333 615 302 615 C320.666 615 343.333 612.833 370 608.5 C396.666 604.167 420.333 599.333 441 594 L455 650 C433 656 406.5 661.333 375.5 666 C344.5 670.667 316.333 673 291 673 C231.667 673 187.333 660.333 158 635 C128.667 609.667 114.667 574.333 116 529 L135 -153 C145.667 -153 156.167 -149.833 166.5 -143.5 C176.833 -137.167 184.166 -129 188.5 -119 C192.833 -109 195 -99.3333 195 -90 L195 -90 Z M293 543 L311 -56 C312.333 -94 303.5 -121.333 284.5 -138 C265.5 -154.667 232.667 -163 186 -163 C167.333 -163 144.667 -160.833 118 -156.5 C91.3333 -152.166 67.6667 -147.333 47 -142 L33 -198 C55 -204 81.5 -209.333 112.5 -214 C143.5 -218.667 171.667 -221 197 -221 C256.333 -221 300.667 -208.333 330 -183 C359.333 -157.667 373.333 -122.333 372 -77 L353 606 C342.333 606 331.833 602.833 321.5 596.5 C311.168 590.167 303.835 582 299.5 572 C295.167 562 293 552.333 293 543 L293 543 Z " />
<glyph glyph-name="dieresis" unicode="&#xa8;" horiz-adv-x="304" d="M133 639 C117.667 639 104.667 633.667 94 623 C83.3333 612.336 78 599.669 78 585 C78 572.333 82 562 90 554 C98 546 108.333 542 121 542 C135.667 542 148.667 547.333 160 558 C171.333 568.667 177 581.333 177 596 C177 608.667 173 619 165 627 C157 635 146.333 639 133 639 L133 639 Z M298 639 C282.667 639 269.5 633.5 258.5 622.5 C247.5 611.5 242 598.667 242 584 C242 571.338 246 561.171 254 553.5 C262 545.833 272.333 542 285 542 C299.667 542 312.667 547.333 324 558 C335.333 568.667 341 581.667 341 597 C341 609 337 619 329 627 C321 635 310.667 639 298 639 L298 639 Z " />
<glyph glyph-name="copyright" unicode="&#xa9;" horiz-adv-x="780" d="M393 553 C351 553 310.5 545 271.5 529 C232.5 513 198.5 490.667 169.5 462 C140.5 433.333 117.833 399.833 101.5 361.5 C85.1667 323.167 77 283 77 241 C77 199.667 85.1667 159.833 101.5 121.5 C117.833 83.1667 140.5 49.6667 169.5 21 C198.5 -7.66667 232.5 -30.1667 271.5 -46.5 C310.5 -62.8333 351 -71 393 -71 C435 -71 475.333 -62.8333 514 -46.5 C552.667 -30.1667 586.333 -7.66667 615 21 C643.667 49.6667 666.167 83.1667 682.5 121.5 C698.833 159.833 707 199.667 707 241 C707 283 698.833 323.167 682.5 361.5 C666.167 399.833 643.667 433.333 615 462 C586.334 490.667 552.668 513 514 529 C475.333 545 435 553 393 553 L393 553 Z M393 500 C427.667 500 461 493.333 493 480 C525 466.667 553 448 577 424 C601 400 619.667 372.167 633 340.5 C646.333 308.833 653 275.667 653 241 C653 206.333 646.333 173.333 633 142 C619.667 110.667 601 83 577 59 C553 35 525 16.3333 493 3 C461 -10.3333 427.667 -17 393 -17 C357.667 -17 324 -10.3333 292 3 C260 16.3333 232 35 208 59 C184 83 165.167 110.667 151.5 142 C137.833 173.333 131 206.333 131 241 C131 275.666 137.833 308.833 151.5 340.5 C165.167 372.167 184 400 208 424 C232 448 260 466.667 292 480 C324 493.333 357.667 500 393 500 L393 500 Z M409 409 C357.667 409 317.667 393.5 289 362.5 C260.333 331.5 246 291.333 246 242 C246 222.667 249.167 201.833 255.5 179.5 C261.833 157.167 273 138.5 289 123.5 C305 108.5 322.667 98.1667 342 92.5 C361.333 86.8333 381 84 401 84 C435 84 468 88.6667 500 98 L490 144 C462 136 435 132 409 132 C375 132 348.333 141.5 329 160.5 C309.667 179.5 300 207 300 243 C300 265.667 303.667 285 311 301 C318.333 317 327 328.833 337 336.5 C347 344.167 358.333 350 371 354 C383.666 358 398.333 360 415 360 C439 360 465 357 493 351 L502 397 C469.333 405 438.333 409 409 409 L409 409 Z " />
<glyph glyph-name="ordfeminine" unicode="&#xaa;" horiz-adv-x="360" d="M266 673 C230 673 198.833 666 172.5 652 C146.167 638 125.333 619.833 110 597.5 C94.6667 575.167 83.6667 551.5 77 526.5 C70.3333 501.5 67 477.333 67 454 C67 414.667 76.1667 385.834 94.5 367.5 C112.833 349.167 137.333 340 168 340 C208.667 340 243 356.333 271 389 L263 346 L323 346 L373 662 C359.667 664.667 342 667.167 320 669.5 C298 671.833 280 673 266 673 L266 673 Z M180 392 C144 392 126 415.333 126 462 C126 487.333 130.833 512.333 140.5 537 C150.167 561.667 165.333 581.833 186 597.5 C206.667 613.167 233.333 621 266 621 C278 621 292 620 308 618 L281 450 C267 432 251 417.833 233 407.5 C215 397.167 197.333 392 180 392 L180 392 Z " />
<glyph glyph-name="guillemotleft" unicode="&#xab;" horiz-adv-x="503" d="M287 420 L209 420 L80 259 L158 68 L229 68 L151 253 L287 420 Z M460 420 L382 420 L253 259 L331 68 L402 68 L324 253 L460 420 Z " />
<glyph glyph-name="logicalnot" unicode="&#xac;" horiz-adv-x="629" d="M36 330 L35 267 L509 267 L506 88 L572 88 L576 330 L36 330 Z " />
<glyph glyph-name="uni00AD" unicode="&#xad;" horiz-adv-x="337" d="M58 260 L48 199 L281 199 L291 260 L58 260 Z " />
<glyph glyph-name="registered" unicode="&#xae;" horiz-adv-x="498" d="M292 684 C254.667 684 218.333 674.333 183 655 C147.667 635.667 120.333 608.333 101 573 C81.6667 537.667 72 501.667 72 465 C72 435.667 77.6667 407.5 89 380.5 C100.333 353.5 116.167 329.833 136.5 309.5 C156.833 289.167 180.5 273.334 207.5 262 C234.5 250.667 262.667 245 292 245 C328.667 245 364.667 254.667 400 274 C435.333 293.333 462.667 320.667 482 356 C501.333 391.333 511 427.667 511 465 C511 501.667 501.333 537.667 482 573 C462.667 608.332 435.333 635.665 400 655 C364.667 674.333 328.667 684 292 684 L292 684 Z M292 284 C262 284 232.5 292 203.5 308 C174.5 324 152 346.5 136 375.5 C120 404.5 112 434 112 464 C112 488 117.333 512.5 128 537.5 C138.667 562.5 154.167 583.333 174.5 600 C194.833 616.667 215 628.167 235 634.5 C255 640.833 274 644 292 644 C322 644 348.833 637.667 372.5 625 C396.167 612.333 415.5 596.833 430.5 578.5 C445.5 560.167 456.167 541 462.5 521 C468.833 501 472 482 472 464 C472 434 464 404.5 448 375.5 C432 346.5 409.5 324 380.5 308 C351.5 292 322 284 292 284 L292 284 Z M370 516 C370 527.333 367.5 538.333 362.5 549 C357.5 559.667 349.833 567.833 339.5 573.5 C329.167 579.167 319 582.667 309 584 L268 586 L219 586 L215 353 L254 353 L256 442 L292 442 L346 353 L392 353 L329 452 C335.667 454.663 342.5 458.83 349.5 464.5 C356.5 470.167 361.667 477.667 365 487 C368.333 496.333 370 506 370 516 L370 516 Z M256 475 L258 550 L277 550 C299 550 313.167 546.667 319.5 540 C325.833 533.333 329 524 329 512 C329 508.671 328.167 503.337 326.5 496 C324.833 488.67 320 483.337 312 480 C304 476.667 288 475 264 475 L256 475 Z " />
<glyph glyph-name="macron" unicode="&#xaf;" horiz-adv-x="297" d="M341 621 L72 622 L62 559 L332 559 L341 621 Z " />
<glyph glyph-name="degree" unicode="&#xb0;" horiz-adv-x="273" d="M159 672 C144.333 672 127.833 668.167 109.5 660.5 C91.1667 652.833 75.3334 639 62 619 C48.6667 599 42 577.333 42 554 C42 522 53.5 494.5 76.5 471.5 C99.5 448.5 127 437 159 437 C191 437 218.5 448.5 241.5 471.5 C264.5 494.5 276 522 276 554 C276 577.333 269.333 599 256 619 C242.667 639 226.833 652.833 208.5 660.5 C190.167 668.167 173.667 672 159 672 L159 672 Z M159 481 C139 481 121.833 488.167 107.5 502.5 C93.1667 516.833 86 534 86 554 C86 574 93.1667 591.5 107.5 606.5 C121.833 621.5 139 629 159 629 C179 629 196.167 621.5 210.5 606.5 C224.833 591.5 232 574 232 554 C232 534 224.833 516.833 210.5 502.5 C196.167 488.167 179 481 159 481 L159 481 Z " />
<glyph glyph-name="plusminus" unicode="&#xb1;" horiz-adv-x="619" d="M336 306 L339 473 L276 473 L274 306 L72 306 L71 243 L273 243 L270 84 L332 84 L335 243 L544 243 L545 306 L336 306 Z M66 0 L540 0 L541 61 L67 61 L66 0 Z " />
<glyph glyph-name="uni00B2" unicode="&#xb2;" horiz-adv-x="283" d="M248 476 C265.333 492.666 277.5 508.332 284.5 523 C291.5 537.667 295 554 295 572 C295 604.667 285.333 629.333 266 646 C246.667 662.667 220 671 186 671 C156.667 671 126.667 663.333 96 648 L99 602 C125.667 616.667 151.667 624 177 624 C195 624 209.5 619 220.5 609 C231.5 599 237 585.333 237 568 C237 553.333 232.833 539.5 224.5 526.5 C216.167 513.5 202 497.333 182 478 L54 353 L48 321 L267 321 L274 370 L139 370 L248 476 Z " />
<glyph glyph-name="uni00B3" unicode="&#xb3;" horiz-adv-x="283" d="M108 653 L110 608 C142.667 619.333 166.333 625 181 625 C217.667 625 236 610 236 580 C236 562 226.333 547.667 207 537 C187.667 526.333 161.333 521 128 521 L120 473 C185.333 473 218 454 218 416 C218 400.667 212.667 388.667 202 380 C191.334 371.333 175.667 367 155 367 C136.333 367 111 371.667 79 381 L65 331 C96.3333 321 127 316 157 316 C183 316 205.333 321.167 224 331.5 C242.667 341.833 255.333 355 262 371 C268.667 387 272 402.333 272 417 C272 439.667 266.333 457.833 255 471.5 C243.667 485.167 227.667 493.667 207 497 C231 500.333 251 510.333 267 527 C283 543.667 290.333 565 289 591 C287.667 617 279 636.833 263 650.5 C247 664.167 224.333 671 195 671 C169 671 140 665 108 653 L108 653 Z " />
<glyph glyph-name="acute" unicode="&#xb4;" horiz-adv-x="161" d="M128 521 L215 660 L142 660 L62 521 L128 521 Z " />
<glyph glyph-name="paragraph" unicode="&#xb6;" horiz-adv-x="499" d="M306 660 C265.333 660 230.167 654.5 200.5 643.5 C170.833 632.5 146.5 617.667 127.5 599 C108.5 580.333 95 558.5 87 533.5 C79 508.5 75 483 75 457 C75 429 82.3333 402 97 376 C111.667 350 133 330 161 316 C189 302 218 295 248 295 L187 -94 L238 -94 L350 612 L418 612 L307 -94 L358 -94 L476 660 L306 660 Z " />
<glyph glyph-name="periodcentered" unicode="&#xb7;" horiz-adv-x="270" d="M127 180 C143.667 180 158.667 186.333 172 199 C185.333 211.667 192 226.667 192 244 C192 256.667 187.5 267.5 178.5 276.5 C169.5 285.5 158.333 290 145 290 C128.333 290 113.5 283.667 100.5 271 C87.5 258.333 81 243.333 81 226 C81 213.333 85.3333 202.5 94 193.5 C102.667 184.5 113.667 180 127 180 L127 180 Z " />
<glyph glyph-name="cedilla" unicode="&#xb8;" horiz-adv-x="180" d="M69 12 L10 12 C7.33333 6.66667 4.66667 0.166672 2 -7.5 C-0.666672 -15.1667 -2.33333 -22 -3 -28 C-5.66666 -41.3333 -5 -52.1667 -1 -60.5 C3 -68.8333 11.3333 -78.3333 24 -89 C36.6667 -99.6667 43.8333 -107.833 45.5 -113.5 C47.1667 -119.167 47.6667 -124 47 -128 C42.3333 -154 24 -167 -8 -167 C-22.6667 -167 -35.3333 -166 -46 -164 L-55 -218 C-39.6667 -220.667 -25.3333 -222 -12 -222 C22.6667 -222 50.1667 -214.333 70.5 -199 C90.8333 -183.667 103.333 -162 108 -134 C112.667 -104 103.333 -78.6667 80 -58 C67.3333 -46.6667 60.6667 -38.1667 60 -32.5 C59.3333 -26.8333 59.3333 -21.3333 60 -16 C60.6667 -8.66667 63.6667 0.666672 69 12 L69 12 Z " />
<glyph glyph-name="uni00B9" unicode="&#xb9;" horiz-adv-x="237" d="M178 660 L90 648 L93 595 L169 608 L123 321 L182 321 L236 660 L178 660 Z " />
<glyph glyph-name="ordmasculine" unicode="&#xba;" horiz-adv-x="360" d="M246 670 C208.667 670 177 661.5 151 644.5 C125 627.5 104.833 603.833 90.5 573.5 C76.1667 543.167 69 509 69 471 C69 427 79.6667 394.167 101 372.5 C122.333 350.833 153.333 340 194 340 C231.333 340 264.667 349.333 294 368 C323.333 386.667 344.667 412 358 444 C371.333 476 378 507.333 378 538 C378 565.333 372.833 589.5 362.5 610.5 C352.167 631.5 336.5 646.667 315.5 656 C294.5 665.333 271.333 670 246 670 L246 670 Z M202 391 C151.333 391 126 419.333 126 476 C126 501.333 131.333 526.333 142 551 C152.667 575.667 167.5 593.167 186.5 603.5 C205.5 613.833 225.333 619 246 619 C296.667 619 322 591 322 535 C322 517.667 319 499 313 479 C307 459 297.833 442 285.5 428 C273.167 414 259.834 404.333 245.5 399 C231.167 393.667 216.667 391 202 391 L202 391 Z " />
<glyph glyph-name="guillemotright" unicode="&#xbb;" horiz-adv-x="495" d="M176 420 L105 420 L184 250 L51 68 L128 68 L255 247 L176 420 Z M346 420 L275 420 L354 250 L221 68 L298 68 L425 247 L346 420 Z " />
<glyph glyph-name="onequarter" unicode="&#xbc;" horiz-adv-x="693" d="M598 660 L4 0 L79 0 L673 660 L598 660 Z M169 607 L123 320 L182 320 L236 659 L178 659 L90 647 L93 594 L169 607 Z M622 340 L550 340 L362 107 L357 69 L528 69 L517 0 L568 0 L579 69 L642 69 L648 114 L586 114 L622 340 Z M429 114 L560 278 L535 114 L429 114 Z " />
<glyph glyph-name="onehalf" unicode="&#xbd;" horiz-adv-x="710" d="M598 660 L4 0 L79 0 L673 660 L598 660 Z M169 607 L123 320 L182 320 L236 659 L178 659 L90 647 L93 594 L169 607 Z M672 251 C672 283.666 662.333 308.333 643 325 C623.667 341.667 597 350 563 350 C533.667 350 503.667 342.333 473 327 L476 281 C502.667 295.667 528.667 303 554 303 C572 303 586.5 298 597.5 288 C608.5 278 614 264.333 614 247 C614 232.333 609.833 218.5 601.5 205.5 C593.167 192.5 579 176.333 559 157 L431 32 L425 0 L644 0 L651 49 L515 49 L625 155 C642.333 171.667 654.5 187.333 661.5 202 C668.5 216.667 672 233 672 251 L672 251 Z " />
<glyph glyph-name="threequarters" unicode="&#xbe;" horiz-adv-x="728" d="M272 416 C272 438.667 266.333 456.833 255 470.5 C243.667 484.167 227.667 492.667 207 496 C231 499.333 251 509.333 267 526 C283 542.667 290.333 564 289 590 C287.667 616 279 635.833 263 649.5 C247 663.167 224.333 670 195 670 C169 670 140 664 108 652 L110 607 C142.667 618.333 166.333 624 181 624 C217.667 624 236 609 236 579 C236 561 226.333 546.667 207 536 C187.667 525.333 161.333 520 128 520 L120 472 C185.333 472 218 453 218 415 C218 399.667 212.667 387.667 202 379 C191.334 370.333 175.667 366 155 366 C136.333 366 111 370.667 79 380 L65 330 C96.3333 320 127 315 157 315 C183 315 205.333 320.167 224 330.5 C242.667 340.833 255.333 354 262 370 C268.667 386 272 401.333 272 416 L272 416 Z M634 660 L40 0 L115 0 L709 660 L634 660 Z M657 340 L585 340 L397 107 L392 69 L563 69 L552 0 L603 0 L614 69 L677 69 L683 114 L621 114 L657 340 Z M464 114 L595 278 L570 114 L464 114 Z " />
<glyph glyph-name="questiondown" unicode="&#xbf;" horiz-adv-x="436" d="M235 401 C233 386.333 236.5 373.667 245.5 363 C254.5 352.333 266.667 347 282 347 C297.333 347 311.167 352.5 323.5 363.5 C335.833 374.5 343 387.667 345 403 C347 417.666 343.5 430.333 334.5 441 C325.5 451.667 314 457 300 457 C284 457 269.667 451.5 257 440.5 C244.333 429.5 237 416.333 235 401 L235 401 Z M280 -184 L273 -123 C244.334 -128.333 220.667 -131 202 -131 C131.333 -131 96 -105.667 96 -55 C96 -19.6666 122 18.6667 174 60 C182.667 66.6667 201.5 81.1667 230.5 103.5 C259.5 125.833 277.5 143.167 284.5 155.5 C291.5 167.833 297.667 190 303 222 L309 260 L237 260 L231 222 C227.667 202.667 224.833 190.167 222.5 184.5 C220.167 178.833 217 173.833 213 169.5 C209 165.167 196.833 155.667 176.5 141 C156.167 126.333 144.667 118 142 116 C139.335 114 137.669 112.667 137 112 C61.6667 56 24 -1.33333 24 -60 C24 -102.667 38 -135.5 66 -158.5 C94 -181.5 132 -193 180 -193 C214 -193 247.333 -190 280 -184 L280 -184 Z " />
<glyph glyph-name="Agrave" unicode="&#xc0;" horiz-adv-x="575" d="M410 707 L347 839 L277 839 L346 707 L410 707 Z M454 0 L530 0 L417 660 L329 660 L-24 0 L57 0 L150 179 L426 179 L454 0 Z M184 244 L363 587 L416 244 L184 244 Z " />
<glyph glyph-name="Aacute" unicode="&#xc1;" horiz-adv-x="575" d="M495 859 L422 859 L346 727 L412 727 L495 859 Z M454 0 L530 0 L417 660 L329 660 L-24 0 L57 0 L150 179 L426 179 L454 0 Z M184 244 L363 587 L416 244 L184 244 Z " />
<glyph glyph-name="Acircumflex" unicode="&#xc2;" horiz-adv-x="575" d="M393 802 L442 707 L514 707 L437 839 L351 839 L229 707 L310 707 L393 802 Z M454 0 L530 0 L417 660 L329 660 L-24 0 L57 0 L150 179 L426 179 L454 0 Z M184 244 L363 587 L416 244 L184 244 Z " />
<glyph glyph-name="Atilde" unicode="&#xc3;" horiz-adv-x="575" d="M335 761 C343.667 761 362.167 755 390.5 743 C418.833 731 440.333 725 455 725 C471 725 489 730.333 509 741 C529 751.667 546.333 763.667 561 777 L525 822 C509 808 494.333 798.167 481 792.5 C467.667 786.833 457.667 784 451 784 C441 784 422.333 790.167 395 802.5 C367.667 814.833 347 821 333 821 C318.333 821 301.333 816.333 282 807 C262.667 797.667 246 787 232 775 L267 729 C281.667 741 295.167 749.333 307.5 754 C319.833 758.667 329 761 335 761 L335 761 Z M329 660 L-24 0 L57 0 L150 179 L426 179 L454 0 L530 0 L417 660 L329 660 Z M184 244 L363 587 L416 244 L184 244 Z " />
<glyph glyph-name="Adieresis" unicode="&#xc4;" horiz-adv-x="575" d="M297 725 C311.667 725 324.5 730.167 335.5 740.5 C346.5 750.833 352 763.333 352 778 C352 790 348 800 340 808 C332 816 321.667 820 309 820 C294.333 820 281.667 814.667 271 804 C260.333 793.339 255 780.673 255 766 C255 754 259 744.167 267 736.5 C275 728.833 285 725 297 725 L297 725 Z M472 725 C486.665 725 499.331 730.167 510 740.5 C520.667 750.833 526 763.333 526 778 C526 790 522 800 514 808 C506 816 495.667 820 483 820 C468.333 820 455.667 814.667 445 804 C434.333 793.339 429 780.673 429 766 C429 753.333 433.167 743.333 441.5 736 C449.833 728.667 460 725 472 725 L472 725 Z M454 0 L530 0 L417 660 L329 660 L-24 0 L57 0 L150 179 L426 179 L454 0 Z M184 244 L363 587 L416 244 L184 244 Z " />
<glyph glyph-name="Aring" unicode="&#xc5;" horiz-adv-x="575" d="M381 674 C394.333 674 408.833 677.667 424.5 685 C440.167 692.333 453.5 705 464.5 723 C475.5 741 481 760.333 481 781 C481 806.333 473 827 457 843 C441 859 421.333 867 398 867 C370 867 346.333 856.667 327 836 C307.667 815.334 298 790.667 298 762 C298 736 306 714.833 322 698.5 C338 682.167 357.667 674 381 674 L381 674 Z M393 818 C405 818 414.5 813.833 421.5 805.5 C428.5 797.167 432 786.667 432 774 C432 760 427.5 748.167 418.5 738.5 C409.5 728.833 398.667 724 386 724 C374.667 724 365.5 728 358.5 736 C351.5 744 348 754.333 348 767 C348 781.667 352.333 793.833 361 803.5 C369.666 813.167 380.333 818 393 818 L393 818 Z M454 0 L530 0 L419 646 L321 646 L-24 0 L57 0 L151 179 L426 179 L454 0 Z M184 244 L349 559 L363 591 L368 557 L416 244 L184 244 Z " />
<glyph glyph-name="AE" unicode="&#xc6;" horiz-adv-x="826" d="M813 594 L823 660 L464 660 L-24 0 L62 0 L177 159 L426 159 L401 0 L741 0 L750 67 L483 67 L520 299 L757 299 L767 366 L531 366 L567 594 L813 594 Z M436 223 L223 223 L494 598 L436 223 Z " />
<glyph glyph-name="Ccedilla" unicode="&#xc7;" horiz-adv-x="557" d="M437 605 C475.667 605 527.333 599 592 587 L605 652 C547 665.333 493.667 672 445 672 C383.667 672 330 663.167 284 645.5 C238 627.833 198.667 602.5 166 569.5 C133.333 536.5 107.333 494.833 88 444.5 C68.6667 394.167 59 337.667 59 275 C59 213.667 69 163 89 123 C109 83 137.333 52.1667 174 30.5 C210.667 8.83333 257.667 -4.33333 315 -9 L310 -28 C307.333 -41.3333 308 -52.1667 312 -60.5 C316 -68.8333 324.333 -78.3333 337 -89 C349.665 -99.6667 356.832 -107.833 358.5 -113.5 C360.167 -119.167 360.667 -124 360 -128 C355.333 -154 337 -167 305 -167 C290.333 -167 277.667 -166 267 -164 L258 -218 C273.333 -220.667 287.667 -222 301 -222 C335.667 -222 363.167 -214.333 383.5 -199 C403.833 -183.667 416.333 -162 421 -134 C425.668 -104 416.335 -78.6667 393 -58 C380.333 -46.6667 373.667 -38.1667 373 -32.5 C372.333 -26.8333 372.333 -21.3333 373 -16 L374 -11 C418 -11 462.667 -6 508 4 L498 70 C460 62 419.667 58 377 58 C324.333 58 279.167 65.1667 241.5 79.5 C203.833 93.8333 175.667 116.167 157 146.5 C138.333 176.833 129 217.667 129 269 C129 326.333 137.167 376.5 153.5 419.5 C169.833 462.5 192.166 498.167 220.5 526.5 C248.833 554.833 282 575 320 587 C358 599 397 605 437 605 L437 605 Z " />
<glyph glyph-name="Egrave" unicode="&#xc8;" horiz-adv-x="486" d="M374 707 L311 839 L241 839 L310 707 L374 707 Z M473 594 L483 660 L164 660 L61 0 L401 0 L410 67 L143 67 L180 299 L417 299 L427 366 L191 366 L227 594 L473 594 Z " />
<glyph glyph-name="Eacute" unicode="&#xc9;" horiz-adv-x="486" d="M459 859 L386 859 L310 727 L376 727 L459 859 Z M473 594 L483 660 L164 660 L61 0 L401 0 L410 67 L143 67 L180 299 L417 299 L427 366 L191 366 L227 594 L473 594 Z " />
<glyph glyph-name="Ecircumflex" unicode="&#xca;" horiz-adv-x="486" d="M357 802 L406 707 L478 707 L401 839 L315 839 L193 707 L274 707 L357 802 Z M473 594 L483 660 L164 660 L61 0 L401 0 L410 67 L143 67 L180 299 L417 299 L427 366 L191 366 L227 594 L473 594 Z " />
<glyph glyph-name="Edieresis" unicode="&#xcb;" horiz-adv-x="486" d="M261 725 C275.667 725 288.5 730.167 299.5 740.5 C310.5 750.833 316 763.333 316 778 C316 790 312 800 304 808 C296 816 285.667 820 273 820 C258.333 820 245.667 814.667 235 804 C224.333 793.339 219 780.673 219 766 C219 754 223 744.167 231 736.5 C239 728.833 249 725 261 725 L261 725 Z M436 725 C450.666 725 463.332 730.167 474 740.5 C484.667 750.833 490 763.333 490 778 C490 790 486 800 478 808 C470 816 459.667 820 447 820 C432.333 820 419.667 814.667 409 804 C398.333 793.339 393 780.673 393 766 C393 753.333 397.167 743.333 405.5 736 C413.833 728.667 424 725 436 725 L436 725 Z M61 0 L401 0 L410 67 L143 67 L180 299 L417 299 L427 366 L191 366 L227 594 L473 594 L483 660 L164 660 L61 0 Z " />
<glyph glyph-name="Igrave" unicode="&#xcc;" horiz-adv-x="261" d="M103 839 L172 707 L236 707 L173 839 L103 839 Z M235 660 L164 660 L60 0 L130 0 L235 660 Z " />
<glyph glyph-name="Iacute" unicode="&#xcd;" horiz-adv-x="261" d="M238 727 L321 859 L248 859 L172 727 L238 727 Z M235 660 L164 660 L60 0 L130 0 L235 660 Z " />
<glyph glyph-name="Icircumflex" unicode="&#xce;" horiz-adv-x="261" d="M263 839 L177 839 L55 707 L136 707 L219 802 L268 707 L340 707 L263 839 Z M60 0 L130 0 L235 660 L164 660 L60 0 Z " />
<glyph glyph-name="Idieresis" unicode="&#xcf;" horiz-adv-x="261" d="M135 820 C120.333 820 107.667 814.667 97 804 C86.3333 793.339 81 780.673 81 766 C81 754 85 744.167 93 736.5 C101 728.833 111 725 123 725 C137.667 725 150.5 730.167 161.5 740.5 C172.5 750.833 178 763.333 178 778 C178 790 174 800 166 808 C158 816 147.667 820 135 820 L135 820 Z M309 820 C294.333 820 281.667 814.667 271 804 C260.333 793.339 255 780.673 255 766 C255 753.333 259.167 743.333 267.5 736 C275.833 728.667 286 725 298 725 C312.667 725 325.333 730.167 336 740.5 C346.667 750.833 352 763.333 352 778 C352 790 348 800 340 808 C332 816 321.667 820 309 820 L309 820 Z M235 660 L164 660 L60 0 L130 0 L235 660 Z " />
<glyph glyph-name="Eth" unicode="&#xd0;" horiz-adv-x="683" d="M339 661 L162 658 L116 365 L67 365 L57 297 L105 297 L58 0 C132.667 -4 203.333 -6 270 -6 C329.333 -6 382.667 2.83333 430 20.5 C477.333 38.1666 517.167 64.1666 549.5 98.5 C581.833 132.833 606.333 175.333 623 226 C639.667 276.667 648 334 648 398 C648 482 621.167 546.833 567.5 592.5 C513.833 638.167 437.667 661 339 661 L339 661 Z M269 60 L140 62 L177 297 L359 297 L369 365 L187 365 L223 595 L320 596 C405.333 596 469.167 579.167 511.5 545.5 C553.833 511.833 575 460.667 575 392 C575 286 548.333 204.167 495 146.5 C441.667 88.8333 366.334 60 269 60 L269 60 Z " />
<glyph glyph-name="Ntilde" unicode="&#xd1;" horiz-adv-x="724" d="M392 761 C400.667 761 419.167 755 447.5 743 C475.833 731 497.333 725 512 725 C528 725 546 730.333 566 741 C586 751.667 603.333 763.667 618 777 L582 822 C566 808 551.333 798.167 538 792.5 C524.667 786.833 514.667 784 508 784 C498 784 479.333 790.167 452 802.5 C424.667 814.833 404 821 390 821 C375.333 821 358.333 816.333 339 807 C319.667 797.667 303 787 289 775 L324 729 C338.667 741 352.167 749.333 364.5 754 C376.833 758.667 386 761 392 761 L392 761 Z M628 660 L545 137 C541.667 118.333 539 98.3333 537 77 L518 122 L258 660 L161 660 L56 0 L127 0 L208 514 C212.667 540 215.333 561 216 577 L495 0 L596 0 L699 660 L628 660 Z " />
<glyph glyph-name="Ograve" unicode="&#xd2;" horiz-adv-x="721" d="M327 839 L396 707 L460 707 L397 839 L327 839 Z M424 675 C413.333 675 393.333 673.5 364 670.5 C334.667 667.5 303 658.5 269 643.5 C235 628.5 205 608.833 179 584.5 C153 560.167 131 531.833 113 499.5 C95 467.167 81.5 431.667 72.5 393 C63.5 354.333 59 314.667 59 274 C59 176 83.1667 103 131.5 55 C179.833 7 248 -17 336 -17 C389.333 -17 438.333 -7.83333 483 10.5 C527.667 28.8333 565.667 55.3333 597 90 C628.333 124.667 652.333 166.333 669 215 C685.667 263.667 694 317.333 694 376 C694 476.666 671.667 551.666 627 601 C582.334 650.333 514.667 675 424 675 L424 675 Z M422 611 C554.667 611 621 533.333 621 378 C621 330.667 614.833 286.5 602.5 245.5 C590.167 204.5 571.833 169.333 547.5 140 C523.167 110.667 493.167 87.8333 457.5 71.5 C421.833 55.1667 381.667 47 337 47 C200.333 47 132 123.667 132 277 C132 323.667 138.5 367.5 151.5 408.5 C164.5 449.5 183.5 485.167 208.5 515.5 C233.5 545.833 264.167 569.333 300.5 586 C336.833 602.667 377.333 611 422 611 L422 611 Z " />
<glyph glyph-name="Oacute" unicode="&#xd3;" horiz-adv-x="721" d="M462 727 L545 859 L472 859 L396 727 L462 727 Z M424 675 C413.333 675 393.333 673.5 364 670.5 C334.667 667.5 303 658.5 269 643.5 C235 628.5 205 608.833 179 584.5 C153 560.167 131 531.833 113 499.5 C95 467.167 81.5 431.667 72.5 393 C63.5 354.333 59 314.667 59 274 C59 176 83.1667 103 131.5 55 C179.833 7 248 -17 336 -17 C389.333 -17 438.333 -7.83333 483 10.5 C527.667 28.8333 565.667 55.3333 597 90 C628.333 124.667 652.333 166.333 669 215 C685.667 263.667 694 317.333 694 376 C694 476.666 671.667 551.666 627 601 C582.334 650.333 514.667 675 424 675 L424 675 Z M422 611 C554.667 611 621 533.333 621 378 C621 330.667 614.833 286.5 602.5 245.5 C590.167 204.5 571.833 169.333 547.5 140 C523.167 110.667 493.167 87.8333 457.5 71.5 C421.833 55.1667 381.667 47 337 47 C200.333 47 132 123.667 132 277 C132 323.667 138.5 367.5 151.5 408.5 C164.5 449.5 183.5 485.167 208.5 515.5 C233.5 545.833 264.167 569.333 300.5 586 C336.833 602.667 377.333 611 422 611 L422 611 Z " />
<glyph glyph-name="Ocircumflex" unicode="&#xd4;" horiz-adv-x="721" d="M443 802 L492 707 L564 707 L487 839 L401 839 L279 707 L360 707 L443 802 Z M424 675 C413.333 675 393.333 673.5 364 670.5 C334.667 667.5 303 658.5 269 643.5 C235 628.5 205 608.833 179 584.5 C153 560.167 131 531.833 113 499.5 C95 467.167 81.5 431.667 72.5 393 C63.5 354.333 59 314.667 59 274 C59 176 83.1667 103 131.5 55 C179.833 7 248 -17 336 -17 C389.333 -17 438.333 -7.83333 483 10.5 C527.667 28.8333 565.667 55.3333 597 90 C628.333 124.667 652.333 166.333 669 215 C685.667 263.667 694 317.333 694 376 C694 476.666 671.667 551.666 627 601 C582.334 650.333 514.667 675 424 675 L424 675 Z M337 47 C200.333 47 132 123.667 132 277 C132 323.667 138.5 367.5 151.5 408.5 C164.5 449.5 183.5 485.167 208.5 515.5 C233.5 545.833 264.167 569.333 300.5 586 C336.833 602.667 377.333 611 422 611 C554.667 611 621 533.333 621 378 C621 330.667 614.833 286.5 602.5 245.5 C590.167 204.5 571.833 169.333 547.5 140 C523.167 110.667 493.167 87.8333 457.5 71.5 C421.833 55.1667 381.667 47 337 47 L337 47 Z " />
<glyph glyph-name="Otilde" unicode="&#xd5;" horiz-adv-x="721" d="M575 822 C559 808 544.333 798.167 531 792.5 C517.667 786.833 507.667 784 501 784 C491 784 472.333 790.167 445 802.5 C417.667 814.833 397 821 383 821 C368.333 821 351.333 816.333 332 807 C312.667 797.667 296 787 282 775 L317 729 C331.667 741 345.167 749.333 357.5 754 C369.833 758.667 379 761 385 761 C393.667 761 412.167 755 440.5 743 C468.833 731 490.333 725 505 725 C521 725 539 730.333 559 741 C579 751.667 596.333 763.667 611 777 L575 822 Z M424 675 C413.333 675 393.333 673.5 364 670.5 C334.667 667.5 303 658.5 269 643.5 C235 628.5 205 608.833 179 584.5 C153 560.167 131 531.833 113 499.5 C95 467.167 81.5 431.667 72.5 393 C63.5 354.333 59 314.667 59 274 C59 176 83.1667 103 131.5 55 C179.833 7 248 -17 336 -17 C389.333 -17 438.333 -7.83333 483 10.5 C527.667 28.8333 565.667 55.3333 597 90 C628.333 124.667 652.333 166.333 669 215 C685.667 263.667 694 317.333 694 376 C694 476.666 671.667 551.666 627 601 C582.334 650.333 514.667 675 424 675 L424 675 Z M422 611 C554.667 611 621 533.333 621 378 C621 330.667 614.833 286.5 602.5 245.5 C590.167 204.5 571.833 169.333 547.5 140 C523.167 110.667 493.167 87.8333 457.5 71.5 C421.833 55.1667 381.667 47 337 47 C200.333 47 132 123.667 132 277 C132 323.667 138.5 367.5 151.5 408.5 C164.5 449.5 183.5 485.167 208.5 515.5 C233.5 545.833 264.167 569.333 300.5 586 C336.833 602.667 377.333 611 422 611 L422 611 Z " />
<glyph glyph-name="Odieresis" unicode="&#xd6;" horiz-adv-x="721" d="M359 820 C344.333 820 331.667 814.667 321 804 C310.333 793.339 305 780.673 305 766 C305 754 309 744.167 317 736.5 C325 728.833 335 725 347 725 C361.667 725 374.5 730.167 385.5 740.5 C396.5 750.833 402 763.333 402 778 C402 790 398 800 390 808 C382 816 371.667 820 359 820 L359 820 Z M533 820 C518.333 820 505.667 814.667 495 804 C484.333 793.339 479 780.673 479 766 C479 753.333 483.167 743.333 491.5 736 C499.833 728.667 510 725 522 725 C536.667 725 549.333 730.167 560 740.5 C570.667 750.833 576 763.333 576 778 C576 790 572 800 564 808 C556 816 545.667 820 533 820 L533 820 Z M424 675 C413.333 675 393.333 673.5 364 670.5 C334.667 667.5 303 658.5 269 643.5 C235 628.5 205 608.833 179 584.5 C153 560.167 131 531.833 113 499.5 C95 467.167 81.5 431.667 72.5 393 C63.5 354.333 59 314.667 59 274 C59 176 83.1667 103 131.5 55 C179.833 7 248 -17 336 -17 C389.333 -17 438.333 -7.83333 483 10.5 C527.667 28.8333 565.667 55.3333 597 90 C628.333 124.667 652.333 166.333 669 215 C685.667 263.667 694 317.333 694 376 C694 476.666 671.667 551.666 627 601 C582.334 650.333 514.667 675 424 675 L424 675 Z M422 611 C554.667 611 621 533.333 621 378 C621 330.667 614.833 286.5 602.5 245.5 C590.167 204.5 571.833 169.333 547.5 140 C523.167 110.667 493.167 87.8333 457.5 71.5 C421.833 55.1667 381.667 47 337 47 C200.333 47 132 123.667 132 277 C132 323.667 138.5 367.5 151.5 408.5 C164.5 449.5 183.5 485.167 208.5 515.5 C233.5 545.833 264.167 569.333 300.5 586 C336.833 602.667 377.333 611 422 611 L422 611 Z " />
<glyph glyph-name="multiply" unicode="&#xd7;" horiz-adv-x="469" d="M430 372 L385 417 L234 265 L82 417 L38 372 L189 220 L38 69 L82 24 L234 176 L385 24 L430 69 L278 220 L430 372 Z " />
<glyph glyph-name="Oslash" unicode="&#xd8;" horiz-adv-x="818" d="M822 653 L780 697 L672 597 C626.667 649 558.667 675 468 675 C457.333 675 437.333 673.5 408 670.5 C378.667 667.5 347 658.5 313 643.5 C279 628.5 249 608.833 223 584.5 C197 560.167 175 531.833 157 499.5 C139 467.167 125.5 431.667 116.5 393 C107.5 354.333 103 314.667 103 274 C103 205.333 115.333 148.333 140 103 L29 0 L71 -45 L177 53 C223.667 6.33333 291.333 -17 380 -17 C435.333 -17 485.5 -7.66667 530.5 11 C575.5 29.6667 613.333 56.3333 644 91 C674.667 125.667 698 167.333 714 216 C730 264.667 738 318 738 376 C738 444 727.333 500.333 706 545 L822 653 Z M177 277 C177 323.667 183.5 367.5 196.5 408.5 C209.5 449.5 228.333 485.167 253 515.5 C277.667 545.833 308.167 569.333 344.5 586 C380.833 602.667 421.333 611 466 611 C535.332 611 586.666 590.333 620 549 L197 156 C183.667 188.667 177 229 177 277 L177 277 Z M666 378 C666 330.667 659.667 286.5 647 245.5 C634.333 204.5 615.833 169.333 591.5 140 C567.167 110.667 537.167 87.8333 501.5 71.5 C465.833 55.1667 425.667 47 381 47 C313 47 262.667 65.3333 230 102 L650 493 C660.667 459.667 666 421.334 666 378 L666 378 Z " />
<glyph glyph-name="Ugrave" unicode="&#xd9;" horiz-adv-x="703" d="M324 839 L393 707 L457 707 L394 839 L324 839 Z M676 660 L604 660 L529 189 C520.334 138.333 500.834 103.333 470.5 84 C440.167 64.6667 394.334 55 333 55 C261.667 55 213.5 65.8333 188.5 87.5 C163.5 109.167 155 143.667 163 191 L236 660 L164 660 L89 187 C79 117.667 92.6666 67.5 130 36.5 C167.333 5.5 230.667 -10.6667 320 -12 C378.666 -12.6667 426.833 -7.33333 464.5 4 C502.167 15.3333 532.333 34.8333 555 62.5 C577.667 90.1666 593 130.667 601 184 L676 660 Z " />
<glyph glyph-name="Uacute" unicode="&#xda;" horiz-adv-x="703" d="M459 727 L542 859 L469 859 L393 727 L459 727 Z M676 660 L604 660 L529 189 C520.334 138.333 500.834 103.333 470.5 84 C440.167 64.6667 394.334 55 333 55 C261.667 55 213.5 65.8333 188.5 87.5 C163.5 109.167 155 143.667 163 191 L236 660 L164 660 L89 187 C79 117.667 92.6666 67.5 130 36.5 C167.333 5.5 230.667 -10.6667 320 -12 C378.666 -12.6667 426.833 -7.33333 464.5 4 C502.167 15.3333 532.333 34.8333 555 62.5 C577.667 90.1666 593 130.667 601 184 L676 660 Z " />
<glyph glyph-name="Ucircumflex" unicode="&#xdb;" horiz-adv-x="703" d="M440 802 L489 707 L561 707 L484 839 L398 839 L276 707 L357 707 L440 802 Z M604 660 L529 189 C520.334 138.333 500.834 103.333 470.5 84 C440.167 64.6667 394.334 55 333 55 C261.667 55 213.5 65.8333 188.5 87.5 C163.5 109.167 155 143.667 163 191 L236 660 L164 660 L89 187 C79 117.667 92.6666 67.5 130 36.5 C167.333 5.5 230.667 -10.6667 320 -12 C378.666 -12.6667 426.833 -7.33333 464.5 4 C502.167 15.3333 532.333 34.8333 555 62.5 C577.667 90.1666 593 130.667 601 184 L676 660 L604 660 Z " />
<glyph glyph-name="Udieresis" unicode="&#xdc;" horiz-adv-x="703" d="M356 820 C341.333 820 328.667 814.667 318 804 C307.333 793.339 302 780.673 302 766 C302 754 306 744.167 314 736.5 C322 728.833 332 725 344 725 C358.667 725 371.5 730.167 382.5 740.5 C393.5 750.833 399 763.333 399 778 C399 790 395 800 387 808 C379 816 368.667 820 356 820 L356 820 Z M530 820 C515.333 820 502.667 814.667 492 804 C481.333 793.339 476 780.673 476 766 C476 753.333 480.167 743.333 488.5 736 C496.833 728.667 507 725 519 725 C533.667 725 546.333 730.167 557 740.5 C567.667 750.833 573 763.333 573 778 C573 790 569 800 561 808 C553 816 542.667 820 530 820 L530 820 Z M676 660 L604 660 L529 189 C520.334 138.333 500.834 103.333 470.5 84 C440.167 64.6667 394.334 55 333 55 C261.667 55 213.5 65.8333 188.5 87.5 C163.5 109.167 155 143.667 163 191 L236 660 L164 660 L89 187 C79 117.667 92.6666 67.5 130 36.5 C167.333 5.5 230.667 -10.6667 320 -12 C378.666 -12.6667 426.833 -7.33333 464.5 4 C502.167 15.3333 532.333 34.8333 555 62.5 C577.667 90.1666 593 130.667 601 184 L676 660 Z " />
<glyph glyph-name="Yacute" unicode="&#xdd;" horiz-adv-x="556" d="M463 859 L390 859 L314 727 L380 727 L463 859 Z M531 660 L340 403 C318.667 373.667 305.667 354.334 301 345 C298.333 353 290.333 372.667 277 404 L163 660 L81 660 L252 283 L207 0 L280 0 L326 282 L616 660 L531 660 Z " />
<glyph glyph-name="Thorn" unicode="&#xde;" horiz-adv-x="497" d="M286 536 L210 536 L230 660 L164 660 L61 0 L126 0 L147 132 C177 128 206 126 234 126 C273.333 126 308.5 132 339.5 144 C370.5 156 396 172.667 416 194 C436 215.333 451.167 240.667 461.5 270 C471.833 299.333 477.333 331.333 478 366 C478.667 404.667 473 436.167 461 460.5 C449 484.833 429.333 503.5 402 516.5 C374.667 529.5 336 536 286 536 L286 536 Z M237 185 C215 185 188 186.667 156 190 L201 477 L273 477 C325 477 361.167 468.833 381.5 452.5 C401.833 436.167 412 406.667 412 364 C412 308.667 397.333 265 368 233 C338.667 201 295 185 237 185 L237 185 Z " />
<glyph glyph-name="germandbls" unicode="&#xdf;" horiz-adv-x="506" d="M373 226 C347.667 250.667 332.5 267.167 327.5 275.5 C322.5 283.833 320 291 320 297 C320 299.667 321.5 304.667 324.5 312 C327.5 319.333 334.167 328.667 344.5 340 C354.833 351.333 375 371.833 405 401.5 C435 431.167 458.667 457.5 476 480.5 C493.333 503.5 505.5 525 512.5 545 C519.5 565 523 582.333 523 597 C523 641.667 506.833 677.333 474.5 704 C442.167 730.667 399.667 744 347 744 C293 744 249.333 728.333 216 697 C182.667 665.667 161 618.667 151 556 L134 446 L63 446 L52 385 L124 385 L63 0 L129 0 L216 550 C222.667 592.667 236.833 625.333 258.5 648 C280.167 670.667 309 682 345 682 C360.333 682 376.5 679.333 393.5 674 C410.5 668.667 424.667 658.667 436 644 C447.333 629.333 453 612.333 453 593 C453 575.667 447.833 556.833 437.5 536.5 C427.167 516.167 401.5 486.667 360.5 448 C319.5 409.333 294.833 385.167 286.5 375.5 C278.167 365.833 270.667 355.333 264 344 C257.333 332.667 252.833 322.167 250.5 312.5 C248.167 302.833 247 294.667 247 288 C247 269.333 253.167 252.833 265.5 238.5 C277.833 224.167 294.333 207.333 315 188 C342.333 162.667 359.833 145.167 367.5 135.5 C375.167 125.833 379 115.333 379 104 C379 69.3333 354.333 52 305 52 C283.667 52 264.667 53.8333 248 57.5 C231.334 61.1667 220.667 63.6667 216 65 L203 9 C244.333 -1 280 -6 310 -6 C340 -6 366.167 0.166672 388.5 12.5 C410.833 24.8333 426.333 40.1667 435 58.5 C443.667 76.8333 448 95 448 113 C448 130.333 443.333 145.833 434 159.5 C424.667 173.167 404.334 195.333 373 226 L373 226 Z " />
<glyph glyph-name="agrave" unicode="&#xe0;" horiz-adv-x="503" d="M356 521 L290 660 L218 660 L290 521 L356 521 Z M325 457 C285 457 248 449.333 214 434 C180 418.667 150.833 397.167 126.5 369.5 C102.167 341.833 83.5 309.5 70.5 272.5 C57.5 235.5 51 196 51 154 C51 44 97 -11 189 -11 C219.667 -11 246.167 -4.83333 268.5 7.5 C290.833 19.8333 312.667 39 334 65 L322 0 L389 0 L460 441 C440.667 445.667 417.667 449.5 391 452.5 C364.333 455.5 342.333 457 325 457 L325 457 Z M198 50 C171.333 50 151.5 58.8333 138.5 76.5 C125.5 94.1667 119 121.333 119 158 C119 199.333 125.5 235.667 138.5 267 C151.5 298.333 167.833 323.833 187.5 343.5 C207.167 363.167 228.5 377.167 251.5 385.5 C274.5 393.833 297 398 319 398 C341 398 362.333 395.667 383 391 L341 139 C295 79.6667 247.333 50 198 50 L198 50 Z " />
<glyph glyph-name="aacute" unicode="&#xe1;" horiz-adv-x="503" d="M446 660 L373 660 L293 521 L359 521 L446 660 Z M325 457 C285 457 248 449.333 214 434 C180 418.667 150.833 397.167 126.5 369.5 C102.167 341.833 83.5 309.5 70.5 272.5 C57.5 235.5 51 196 51 154 C51 44 97 -11 189 -11 C219.667 -11 246.167 -4.83333 268.5 7.5 C290.833 19.8333 312.667 39 334 65 L322 0 L389 0 L460 441 C440.667 445.667 417.667 449.5 391 452.5 C364.333 455.5 342.333 457 325 457 L325 457 Z M198 50 C171.333 50 151.5 58.8333 138.5 76.5 C125.5 94.1667 119 121.333 119 158 C119 199.333 125.5 235.667 138.5 267 C151.5 298.333 167.833 323.833 187.5 343.5 C207.167 363.167 228.5 377.167 251.5 385.5 C274.5 393.833 297 398 319 398 C341 398 362.333 395.667 383 391 L341 139 C295 79.6667 247.333 50 198 50 L198 50 Z " />
<glyph glyph-name="acircumflex" unicode="&#xe2;" horiz-adv-x="503" d="M341 616 L390 521 L462 521 L381 660 L307 660 L178 521 L258 521 L341 616 Z M51 154 C51 44 97 -11 189 -11 C219.667 -11 246.167 -4.83333 268.5 7.5 C290.833 19.8333 312.667 39 334 65 L322 0 L389 0 L460 441 C440.667 445.667 417.667 449.5 391 452.5 C364.333 455.5 342.333 457 325 457 C285 457 248 449.333 214 434 C180 418.667 150.833 397.167 126.5 369.5 C102.167 341.833 83.5 309.5 70.5 272.5 C57.5 235.5 51 196 51 154 L51 154 Z M198 50 C171.333 50 151.5 58.8333 138.5 76.5 C125.5 94.1667 119 121.333 119 158 C119 199.333 125.5 235.667 138.5 267 C151.5 298.333 167.833 323.833 187.5 343.5 C207.167 363.167 228.5 377.167 251.5 385.5 C274.5 393.833 297 398 319 398 C341 398 362.333 395.667 383 391 L341 139 C295 79.6667 247.333 50 198 50 L198 50 Z " />
<glyph glyph-name="atilde" unicode="&#xe3;" horiz-adv-x="503" d="M276 579 C284.667 579 303.167 573 331.5 561 C359.833 549 381.333 543 396 543 C412 543 430 548.333 450 559 C470 569.667 487.333 581.667 502 595 L466 640 C450 626 435.333 616.167 422 610.5 C408.667 604.833 398.667 602 392 602 C382 602 363.333 608.167 336 620.5 C308.667 632.833 288 639 274 639 C259.333 639 242.333 634.333 223 625 C203.667 615.667 187 605 173 593 L208 547 C222.667 559 236.167 567.333 248.5 572 C260.833 576.667 270 579 276 579 L276 579 Z M51 154 C51 44 97 -11 189 -11 C219.667 -11 246.167 -4.83333 268.5 7.5 C290.833 19.8333 312.667 39 334 65 L322 0 L389 0 L460 441 C440.667 445.667 417.667 449.5 391 452.5 C364.333 455.5 342.333 457 325 457 C285 457 248 449.333 214 434 C180 418.667 150.833 397.167 126.5 369.5 C102.167 341.833 83.5 309.5 70.5 272.5 C57.5 235.5 51 196 51 154 L51 154 Z M198 50 C171.333 50 151.5 58.8333 138.5 76.5 C125.5 94.1667 119 121.333 119 158 C119 199.333 125.5 235.667 138.5 267 C151.5 298.333 167.833 323.833 187.5 343.5 C207.167 363.167 228.5 377.167 251.5 385.5 C274.5 393.833 297 398 319 398 C341 398 362.333 395.667 383 391 L341 139 C295 79.6667 247.333 50 198 50 L198 50 Z " />
<glyph glyph-name="adieresis" unicode="&#xe4;" horiz-adv-x="503" d="M248 542 C262.667 542 275.667 547.333 287 558 C298.333 568.667 304 581.333 304 596 C304 608.667 300 619 292 627 C284 635 273.333 639 260 639 C244.667 639 231.667 633.667 221 623 C210.333 612.336 205 599.669 205 585 C205 572.333 209 562 217 554 C225 546 235.333 542 248 542 L248 542 Z M412 542 C426.667 542 439.667 547.333 451 558 C462.333 568.667 468 581.667 468 597 C468 609 464 619 456 627 C448 635 437.667 639 425 639 C409.667 639 396.5 633.5 385.5 622.5 C374.5 611.5 369 598.667 369 584 C369 571.338 373 561.171 381 553.5 C389 545.833 399.333 542 412 542 L412 542 Z M51 154 C51 44 97 -11 189 -11 C219.667 -11 246.167 -4.83333 268.5 7.5 C290.833 19.8333 312.667 39 334 65 L322 0 L389 0 L460 441 C440.667 445.667 417.667 449.5 391 452.5 C364.333 455.5 342.333 457 325 457 C285 457 248 449.333 214 434 C180 418.667 150.833 397.167 126.5 369.5 C102.167 341.833 83.5 309.5 70.5 272.5 C57.5 235.5 51 196 51 154 L51 154 Z M198 50 C171.333 50 151.5 58.8333 138.5 76.5 C125.5 94.1667 119 121.333 119 158 C119 199.333 125.5 235.667 138.5 267 C151.5 298.333 167.833 323.833 187.5 343.5 C207.167 363.167 228.5 377.167 251.5 385.5 C274.5 393.833 297 398 319 398 C341 398 362.333 395.667 383 391 L341 139 C295 79.6667 247.333 50 198 50 L198 50 Z " />
<glyph glyph-name="aring" unicode="&#xe5;" horiz-adv-x="503" d="M322 503 C338.666 503 354.833 508.5 370.5 519.5 C386.167 530.5 397.5 543.167 404.5 557.5 C411.5 571.831 415.667 584.664 417 596 C419 614 416.167 630.333 408.5 645 C400.833 659.667 390.833 669.833 378.5 675.5 C366.167 681.167 354.334 684 343 684 C319 684 297.5 674.5 278.5 655.5 C259.5 636.5 249 614.667 247 590 C245.667 572.667 248.833 556.667 256.5 542 C264.167 527.337 274.167 517.171 286.5 511.5 C298.833 505.833 310.667 503 322 503 L322 503 Z M297 592 C298.333 603.333 302.833 613 310.5 621 C318.167 629 327.667 633 339 633 C347.667 633 355 629.167 361 621.5 C367 613.838 369.333 604.671 368 594 C366.668 582.667 361.835 573 353.5 565 C345.167 557 335.667 553 325 553 C318.333 553 312.5 555.167 307.5 559.5 C302.5 563.833 299.333 569.333 298 576 C296.676 582.667 296.342 588 297 592 L297 592 Z M325 457 C285 457 248 449.333 214 434 C180 418.667 150.833 397.167 126.5 369.5 C102.167 341.833 83.5 309.5 70.5 272.5 C57.5 235.5 51 196 51 154 C51 44 97 -11 189 -11 C219.667 -11 246.167 -4.83333 268.5 7.5 C290.833 19.8333 312.667 39 334 65 L322 0 L389 0 L460 441 C440.667 445.667 417.667 449.5 391 452.5 C364.333 455.5 342.333 457 325 457 L325 457 Z M198 50 C171.333 50 151.5 58.8333 138.5 76.5 C125.5 94.1667 119 121.333 119 158 C119 199.333 125.5 235.667 138.5 267 C151.5 298.333 167.833 323.833 187.5 343.5 C207.167 363.167 228.5 377.167 251.5 385.5 C274.5 393.833 297 398 319 398 C341 398 362.333 395.667 383 391 L341 139 C295 79.6667 247.333 50 198 50 L198 50 Z " />
<glyph glyph-name="ae" unicode="&#xe6;" horiz-adv-x="758" d="M707 229 C712.333 252.333 715 282 715 318 C715 360 703.167 393.667 679.5 419 C655.833 444.333 620 457 572 457 C542.667 457 517 451.333 495 440 C473 428.667 452 412 432 390 L442 443 C400.667 452.333 360.667 457 322 457 C282.667 457 246.167 449.167 212.5 433.5 C178.833 417.833 150 396.167 126 368.5 C102 340.833 83.5 308.5 70.5 271.5 C57.5 234.5 51 195.333 51 154 C51 44 98 -11 192 -11 C230.667 -11 264.5 -1.83333 293.5 16.5 C322.5 34.8333 345.333 60 362 92 C371.333 60 388.667 34.8333 414 16.5 C439.333 -1.83333 472.667 -11 514 -11 C536.667 -11 563.167 -8.5 593.5 -3.5 C623.833 1.5 649 7.66667 669 15 L655 70 C604.334 56 558.667 49 518 49 C474 49 444.833 59.6667 430.5 81 C416.167 102.333 409 133.667 409 175 C409 195.667 410.333 213.667 413 229 L707 229 Z M201 50 C173 50 152.5 58.6667 139.5 76 C126.5 93.3333 120 121.333 120 160 C120 194 124.333 225.667 133 255 C141.667 284.333 154.5 309.667 171.5 331 C188.5 352.333 209.667 368.833 235 380.5 C260.333 392.167 288.667 398 320 398 C336 398 356 396 380 392 L350 191 C346.667 167 346 147.667 348 133 C326.667 105.667 303.167 85 277.5 71 C251.833 57 226.333 50 201 50 L201 50 Z M569 398 C582.333 398 595.333 395.667 608 391 C620.667 386.333 630 377.667 636 365 C642 352.333 645.333 336 646 316 C646 306 644.667 295.667 642 285 L426 285 C438 319.667 456.5 347.167 481.5 367.5 C506.5 387.833 535.667 398 569 398 L569 398 Z " />
<glyph glyph-name="ccedilla" unicode="&#xe7;" horiz-adv-x="408" d="M292 396 C326.667 396 363 390 401 378 L417 436 C401.667 441.333 382 446 358 450 C334 454 312.333 456 293 456 C264.333 456 237.667 451.667 213 443 C188.333 434.333 166.5 422 147.5 406 C128.5 390 112.5 371.167 99.5 349.5 C86.5 327.833 75.5 301.833 66.5 271.5 C57.5 241.167 53 206.667 53 168 C53 64.6667 93 6.33333 173 -7 L168 -28 C165.333 -41.3333 166 -52.1667 170 -60.5 C174 -68.8333 182.333 -78.3333 195 -89 C207.667 -99.6667 214.833 -107.833 216.5 -113.5 C218.167 -119.167 218.667 -124 218 -128 C213.333 -154 195 -167 163 -167 C148.333 -167 135.667 -166 125 -164 L116 -218 C131.333 -220.667 145.667 -222 159 -222 C193.667 -222 221.167 -214.333 241.5 -199 C261.833 -183.667 274.333 -162 279 -134 C283.668 -104 274.334 -78.6667 251 -58 C238.334 -46.6667 231.667 -38.1667 231 -32.5 C230.333 -26.8333 230.333 -21.3333 231 -16 L232 -11 C251.333 -10.3333 273 -8.16667 297 -4.5 C321 -0.833328 340 3 354 7 L344 66 C301.333 55.3333 264 50 232 50 C196 50 168.5 58.8333 149.5 76.5 C130.5 94.1667 121 124.333 121 167 C121 212.333 128.667 253.167 144 289.5 C159.333 325.833 179.667 352.667 205 370 C230.333 387.333 259.333 396 292 396 L292 396 Z " />
<glyph glyph-name="egrave" unicode="&#xe8;" horiz-adv-x="473" d="M327 521 L261 660 L189 660 L261 521 L327 521 Z M420 229 C425.333 252.333 428 282 428 318 C428 360 416.167 393.667 392.5 419 C368.833 444.333 333 457 285 457 C250.333 457 218.5 449.667 189.5 435 C160.5 420.333 136 400 116 374 C96 348 80.6667 317.5 70 282.5 C59.3333 247.5 54 210.333 54 171 C54 109 67.8333 63.1667 95.5 33.5 C123.167 3.83333 167 -11 227 -11 C249.667 -11 276.167 -8.5 306.5 -3.5 C336.833 1.5 362 7.66667 382 15 L368 70 C317.333 56 271.667 49 231 49 C187 49 157.833 59.6667 143.5 81 C129.167 102.333 122 133.667 122 175 C122 195.667 123.333 213.667 126 229 L420 229 Z M282 398 C295.333 398 308.333 395.667 321 391 C333.667 386.333 343 377.667 349 365 C355 352.333 358.333 336 359 316 C359 306 357.667 295.667 355 285 L139 285 C151 319.667 169.5 347.167 194.5 367.5 C219.5 387.833 248.667 398 282 398 L282 398 Z " />
<glyph glyph-name="eacute" unicode="&#xe9;" horiz-adv-x="473" d="M417 660 L344 660 L264 521 L330 521 L417 660 Z M420 229 C425.333 252.333 428 282 428 318 C428 360 416.167 393.667 392.5 419 C368.833 444.333 333 457 285 457 C250.333 457 218.5 449.667 189.5 435 C160.5 420.333 136 400 116 374 C96 348 80.6667 317.5 70 282.5 C59.3333 247.5 54 210.333 54 171 C54 109 67.8333 63.1667 95.5 33.5 C123.167 3.83333 167 -11 227 -11 C249.667 -11 276.167 -8.5 306.5 -3.5 C336.833 1.5 362 7.66667 382 15 L368 70 C317.333 56 271.667 49 231 49 C187 49 157.833 59.6667 143.5 81 C129.167 102.333 122 133.667 122 175 C122 195.667 123.333 213.667 126 229 L420 229 Z M282 398 C295.333 398 308.333 395.667 321 391 C333.667 386.333 343 377.667 349 365 C355 352.333 358.333 336 359 316 C359 306 357.667 295.667 355 285 L139 285 C151 319.667 169.5 347.167 194.5 367.5 C219.5 387.833 248.667 398 282 398 L282 398 Z " />
<glyph glyph-name="ecircumflex" unicode="&#xea;" horiz-adv-x="473" d="M312 616 L361 521 L433 521 L352 660 L278 660 L149 521 L229 521 L312 616 Z M285 457 C250.333 457 218.5 449.667 189.5 435 C160.5 420.333 136 400 116 374 C96 348 80.6667 317.5 70 282.5 C59.3333 247.5 54 210.333 54 171 C54 109 67.8333 63.1667 95.5 33.5 C123.167 3.83333 167 -11 227 -11 C249.667 -11 276.167 -8.5 306.5 -3.5 C336.833 1.5 362 7.66667 382 15 L368 70 C317.333 56 271.667 49 231 49 C187 49 157.833 59.6667 143.5 81 C129.167 102.333 122 133.667 122 175 C122 195.667 123.333 213.667 126 229 L420 229 C425.333 252.333 428 282 428 318 C428 360 416.167 393.667 392.5 419 C368.833 444.333 333 457 285 457 L285 457 Z M282 398 C295.333 398 308.333 395.667 321 391 C333.667 386.333 343 377.667 349 365 C355 352.333 358.333 336 359 316 C359 306 357.667 295.667 355 285 L139 285 C151 319.667 169.5 347.167 194.5 367.5 C219.5 387.833 248.667 398 282 398 L282 398 Z " />
<glyph glyph-name="edieresis" unicode="&#xeb;" horiz-adv-x="473" d="M219 542 C233.667 542 246.667 547.333 258 558 C269.333 568.667 275 581.333 275 596 C275 608.667 271 619 263 627 C255 635 244.333 639 231 639 C215.667 639 202.667 633.667 192 623 C181.333 612.336 176 599.669 176 585 C176 572.333 180 562 188 554 C196 546 206.333 542 219 542 L219 542 Z M383 542 C397.667 542 410.667 547.333 422 558 C433.333 568.667 439 581.667 439 597 C439 609 435 619 427 627 C419 635 408.667 639 396 639 C380.667 639 367.5 633.5 356.5 622.5 C345.5 611.5 340 598.667 340 584 C340 571.338 344 561.171 352 553.5 C360 545.833 370.333 542 383 542 L383 542 Z M285 457 C250.333 457 218.5 449.667 189.5 435 C160.5 420.333 136 400 116 374 C96 348 80.6667 317.5 70 282.5 C59.3333 247.5 54 210.333 54 171 C54 109 67.8333 63.1667 95.5 33.5 C123.167 3.83333 167 -11 227 -11 C249.667 -11 276.167 -8.5 306.5 -3.5 C336.833 1.5 362 7.66667 382 15 L368 70 C317.333 56 271.667 49 231 49 C187 49 157.833 59.6667 143.5 81 C129.167 102.333 122 133.667 122 175 C122 195.667 123.333 213.667 126 229 L420 229 C425.333 252.333 428 282 428 318 C428 360 416.167 393.667 392.5 419 C368.833 444.333 333 457 285 457 L285 457 Z M282 398 C295.333 398 308.333 395.667 321 391 C333.667 386.333 343 377.667 349 365 C355 352.333 358.333 336 359 316 C359 306 357.667 295.667 355 285 L139 285 C151 319.667 169.5 347.167 194.5 367.5 C219.5 387.833 248.667 398 282 398 L282 398 Z " />
<glyph glyph-name="igrave" unicode="&#xec;" horiz-adv-x="239" d="M56 660 L128 521 L194 521 L128 660 L56 660 Z M191 446 L118 446 L49 0 L121 0 L191 446 Z " />
<glyph glyph-name="iacute" unicode="&#xed;" horiz-adv-x="239" d="M197 521 L284 660 L211 660 L131 521 L197 521 Z M191 446 L118 446 L49 0 L121 0 L191 446 Z " />
<glyph glyph-name="icircumflex" unicode="&#xee;" horiz-adv-x="492" d="M226 592 C228 605.333 224.833 616.833 216.5 626.5 C208.167 636.167 197.333 641 184 641 C170 641 157.833 636.333 147.5 627 C137.167 617.667 131 606 129 592 C127 578.667 129.833 567.333 137.5 558 C145.167 548.667 156 544 170 544 C183.333 544 195.5 548.667 206.5 558 C217.5 567.329 224 578.662 226 592 L226 592 Z M478 592 C480 605.333 476.833 616.833 468.5 626.5 C460.168 636.167 449.334 641 436 641 C422 641 409.833 636.333 399.5 627 C389.167 617.667 383 606 381 592 C379 578.667 381.833 567.333 389.5 558 C397.167 548.667 408 544 422 544 C435.333 544 447.5 548.667 458.5 558 C469.5 567.329 476 578.662 478 592 L478 592 Z M191 446 L118 446 L49 0 L121 0 L191 446 Z M441 446 L370 446 L294 -32 C286.667 -97.3334 250.667 -157.333 186 -212 L234 -263 C276 -225.667 305.833 -191.667 323.5 -161 C341.167 -130.333 354.667 -89.3333 364 -38 L441 446 Z " />
<glyph glyph-name="idieresis" unicode="&#xef;" horiz-adv-x="239" d="M98 639 C82.6667 639 69.6667 633.667 59 623 C48.3333 612.336 43 599.669 43 585 C43 572.333 47 562 55 554 C63 546 73.3333 542 86 542 C100.667 542 113.667 547.333 125 558 C136.333 568.667 142 581.333 142 596 C142 608.667 138 619 130 627 C122 635 111.333 639 98 639 L98 639 Z M263 639 C247.667 639 234.5 633.5 223.5 622.5 C212.5 611.5 207 598.667 207 584 C207 571.338 211 561.171 219 553.5 C227 545.833 237.333 542 250 542 C264.667 542 277.667 547.333 289 558 C300.333 568.667 306 581.667 306 597 C306 609 302 619 294 627 C286 635 275.667 639 263 639 L263 639 Z M191 446 L118 446 L49 0 L121 0 L191 446 Z " />
<glyph glyph-name="eth" unicode="&#xf0;" horiz-adv-x="502" d="M520 576 L495 632 L390 582 C370 620.667 346 660.333 318 701 L262 667 C287.333 631 310.333 593.667 331 555 L205 495 L230 441 L357 500 C379.667 444 394 388.667 400 334 C378 350 352.5 363.167 323.5 373.5 C294.5 383.833 266.667 389 240 389 C207.333 389 176 380.5 146 363.5 C116 346.5 93.1667 321.5 77.5 288.5 C61.8333 255.5 54 220.333 54 183 C54 123.667 71.1666 76.3333 105.5 41 C139.833 5.66667 185.667 -12 243 -12 C279 -12 311.167 -4.66667 339.5 10 C367.833 24.6667 391.5 45.3333 410.5 72 C429.5 98.6666 443.667 130.167 453 166.5 C462.333 202.833 467 241.667 467 283 C467 365 449.667 446.333 415 527 L520 576 Z M246 51 C207.333 51 177.667 64 157 90 C136.333 116 126 148.333 126 187 C126 217.667 132.5 244.333 145.5 267 C158.5 289.667 174.333 305 193 313 C211.667 321 230 325 248 325 C272 325 298.167 319.833 326.5 309.5 C354.833 299.167 380 286 402 270 C400.668 222.667 392.835 182.667 378.5 150 C364.167 117.333 346 92.6667 324 76 C302 59.3333 276 51 246 51 L246 51 Z " />
<glyph glyph-name="ntilde" unicode="&#xf1;" horiz-adv-x="525" d="M250 579 C258.667 579 277.167 573 305.5 561 C333.833 549 355.333 543 370 543 C386 543 404 548.333 424 559 C444 569.667 461.333 581.667 476 595 L440 640 C424 626 409.333 616.167 396 610.5 C382.667 604.833 372.667 602 366 602 C356 602 337.333 608.167 310 620.5 C282.667 632.833 262 639 248 639 C233.333 639 216.333 634.333 197 625 C177.667 615.667 161 605 147 593 L182 547 C196.667 559 210.167 567.333 222.5 572 C234.833 576.667 244 579 250 579 L250 579 Z M347 457 C283 457 226 432.333 176 383 L186 446 L118 446 L48 0 L116 0 L166 326 C219.333 374.667 271.667 399 323 399 C349 399 368.333 392.833 381 380.5 C393.667 368.167 398 349.334 394 324 L343 0 L412 0 L465 338 C471 372.667 463.667 401.167 443 423.5 C422.333 445.833 390.333 457 347 457 L347 457 Z " />
<glyph glyph-name="ograve" unicode="&#xf2;" horiz-adv-x="529" d="M204 660 L276 521 L342 521 L276 660 L204 660 Z M301 457 C261 457 225.167 449 193.5 433 C161.833 417 135.833 395.667 115.5 369 C95.1667 342.333 79.8334 312.333 69.5 279 C59.1667 245.667 54 211.667 54 177 C54 116.333 69 69.8333 99 37.5 C129 5.16667 172.667 -11 230 -11 C267.333 -11 301.5 -4 332.5 10 C363.5 24 389.833 43.3333 411.5 68 C433.167 92.6667 449.667 122 461 156 C472.333 190 478 226 478 264 C478 326.667 462.833 374.5 432.5 407.5 C402.167 440.5 358.333 457 301 457 L301 457 Z M237 49 C161.667 49 124 93 124 181 C124 217 129.333 249 140 277 C150.667 305 164.333 328.167 181 346.5 C197.667 364.833 216.333 377.833 237 385.5 C257.667 393.167 278 397 298 397 C371.333 397 408 351.333 408 260 C408 222.667 402.667 190.167 392 162.5 C381.333 134.833 367.833 112.5 351.5 95.5 C335.167 78.5 317 66.5 297 59.5 C277 52.5 257 49 237 49 L237 49 Z " />
<glyph glyph-name="oacute" unicode="&#xf3;" horiz-adv-x="529" d="M345 521 L432 660 L359 660 L279 521 L345 521 Z M301 457 C261 457 225.167 449 193.5 433 C161.833 417 135.833 395.667 115.5 369 C95.1667 342.333 79.8334 312.333 69.5 279 C59.1667 245.667 54 211.667 54 177 C54 116.333 69 69.8333 99 37.5 C129 5.16667 172.667 -11 230 -11 C267.333 -11 301.5 -4 332.5 10 C363.5 24 389.833 43.3333 411.5 68 C433.167 92.6667 449.667 122 461 156 C472.333 190 478 226 478 264 C478 326.667 462.833 374.5 432.5 407.5 C402.167 440.5 358.333 457 301 457 L301 457 Z M237 49 C161.667 49 124 93 124 181 C124 217 129.333 249 140 277 C150.667 305 164.333 328.167 181 346.5 C197.667 364.833 216.333 377.833 237 385.5 C257.667 393.167 278 397 298 397 C371.333 397 408 351.333 408 260 C408 222.667 402.667 190.167 392 162.5 C381.333 134.833 367.833 112.5 351.5 95.5 C335.167 78.5 317 66.5 297 59.5 C277 52.5 257 49 237 49 L237 49 Z " />
<glyph glyph-name="ocircumflex" unicode="&#xf4;" horiz-adv-x="529" d="M327 616 L376 521 L448 521 L367 660 L293 660 L164 521 L244 521 L327 616 Z M301 457 C261 457 225.167 449 193.5 433 C161.833 417 135.833 395.667 115.5 369 C95.1667 342.333 79.8334 312.333 69.5 279 C59.1667 245.667 54 211.667 54 177 C54 116.333 69 69.8333 99 37.5 C129 5.16667 172.667 -11 230 -11 C267.333 -11 301.5 -4 332.5 10 C363.5 24 389.833 43.3333 411.5 68 C433.167 92.6667 449.667 122 461 156 C472.333 190 478 226 478 264 C478 326.667 462.833 374.5 432.5 407.5 C402.167 440.5 358.333 457 301 457 L301 457 Z M237 49 C161.667 49 124 93 124 181 C124 217 129.333 249 140 277 C150.667 305 164.333 328.167 181 346.5 C197.667 364.833 216.333 377.833 237 385.5 C257.667 393.167 278 397 298 397 C371.333 397 408 351.333 408 260 C408 222.667 402.667 190.167 392 162.5 C381.333 134.833 367.833 112.5 351.5 95.5 C335.167 78.5 317 66.5 297 59.5 C277 52.5 257 49 237 49 L237 49 Z " />
<glyph glyph-name="otilde" unicode="&#xf5;" horiz-adv-x="529" d="M452 640 C436 626 421.333 616.167 408 610.5 C394.667 604.833 384.667 602 378 602 C368 602 349.333 608.167 322 620.5 C294.667 632.833 274 639 260 639 C245.333 639 228.333 634.333 209 625 C189.667 615.667 173 605 159 593 L194 547 C208.667 559 222.167 567.333 234.5 572 C246.833 576.667 256 579 262 579 C270.667 579 289.167 573 317.5 561 C345.833 549 367.333 543 382 543 C398 543 416 548.333 436 559 C456 569.667 473.333 581.667 488 595 L452 640 Z M301 457 C261 457 225.167 449 193.5 433 C161.833 417 135.833 395.667 115.5 369 C95.1667 342.333 79.8334 312.333 69.5 279 C59.1667 245.667 54 211.667 54 177 C54 116.333 69 69.8333 99 37.5 C129 5.16667 172.667 -11 230 -11 C267.333 -11 301.5 -4 332.5 10 C363.5 24 389.833 43.3333 411.5 68 C433.167 92.6667 449.667 122 461 156 C472.333 190 478 226 478 264 C478 326.667 462.833 374.5 432.5 407.5 C402.167 440.5 358.333 457 301 457 L301 457 Z M237 49 C161.667 49 124 93 124 181 C124 217 129.333 249 140 277 C150.667 305 164.333 328.167 181 346.5 C197.667 364.833 216.333 377.833 237 385.5 C257.667 393.167 278 397 298 397 C371.333 397 408 351.333 408 260 C408 222.667 402.667 190.167 392 162.5 C381.333 134.833 367.833 112.5 351.5 95.5 C335.167 78.5 317 66.5 297 59.5 C277 52.5 257 49 237 49 L237 49 Z " />
<glyph glyph-name="odieresis" unicode="&#xf6;" horiz-adv-x="529" d="M246 639 C230.667 639 217.667 633.667 207 623 C196.333 612.336 191 599.669 191 585 C191 572.333 195 562 203 554 C211 546 221.333 542 234 542 C248.667 542 261.667 547.333 273 558 C284.333 568.667 290 581.333 290 596 C290 608.667 286 619 278 627 C270 635 259.333 639 246 639 L246 639 Z M411 639 C395.667 639 382.5 633.5 371.5 622.5 C360.5 611.5 355 598.667 355 584 C355 571.338 359 561.171 367 553.5 C375 545.833 385.333 542 398 542 C412.667 542 425.667 547.333 437 558 C448.333 568.667 454 581.667 454 597 C454 609 450 619 442 627 C434 635 423.667 639 411 639 L411 639 Z M301 457 C261 457 225.167 449 193.5 433 C161.833 417 135.833 395.667 115.5 369 C95.1667 342.333 79.8334 312.333 69.5 279 C59.1667 245.667 54 211.667 54 177 C54 116.333 69 69.8333 99 37.5 C129 5.16667 172.667 -11 230 -11 C267.333 -11 301.5 -4 332.5 10 C363.5 24 389.833 43.3333 411.5 68 C433.167 92.6667 449.667 122 461 156 C472.333 190 478 226 478 264 C478 326.667 462.833 374.5 432.5 407.5 C402.167 440.5 358.333 457 301 457 L301 457 Z M237 49 C161.667 49 124 93 124 181 C124 217 129.333 249 140 277 C150.667 305 164.333 328.167 181 346.5 C197.667 364.833 216.333 377.833 237 385.5 C257.667 393.167 278 397 298 397 C371.333 397 408 351.333 408 260 C408 222.667 402.667 190.167 392 162.5 C381.333 134.833 367.833 112.5 351.5 95.5 C335.167 78.5 317 66.5 297 59.5 C277 52.5 257 49 237 49 L237 49 Z " />
<glyph glyph-name="divide" unicode="&#xf7;" horiz-adv-x="578" d="M288 480 C273.333 480 260.833 474.833 250.5 464.5 C240.167 454.167 235 441.667 235 427 C235 412.333 240.167 399.667 250.5 389 C260.833 378.333 273.333 373 288 373 C303.333 373 316.167 378.333 326.5 389 C336.833 399.666 342 412.333 342 427 C342 441.667 336.833 454.167 326.5 464.5 C316.167 474.833 303.334 480 288 480 L288 480 Z M519 269 L47 269 L46 206 L518 206 L519 269 Z M281 100 C267 100 254.667 94.6667 244 84 C233.333 73.3333 228 60.6667 228 46 C228 31.3333 233.333 18.6667 244 8 C254.667 -2.66667 267 -8 281 -8 C296.333 -8 309.167 -2.66667 319.5 8 C329.833 18.6667 335 31.3333 335 46 C335 60.6667 329.833 73.3333 319.5 84 C309.167 94.6667 296.334 100 281 100 L281 100 Z " />
<glyph glyph-name="oslash" unicode="&#xf8;" horiz-adv-x="556" d="M582 449 L542 490 L451 411 C420.333 441.667 370.667 457 302 457 C266.667 457 234 449.833 204 435.5 C174 421.167 148.333 401 127 375 C105.667 349 89.3334 317.5 78 280.5 C66.6667 243.5 61.0001 203.333 61 160 C60.9999 130 65.3333 104.333 74 83 L-14 7 L24 -34 L104 36 C135.333 4.66667 182.333 -11 245 -11 C322.333 -11 382.833 15.3333 426.5 68 C470.167 120.667 492 193.667 492 287 C492 313.667 488.333 338.667 481 362 L582 449 Z M131 171 C131 238.333 147 292.833 179 334.5 C211 376.167 253 397 305 397 C345.667 397 375.667 385.667 395 363 L134 135 C132 146.333 131 158.333 131 171 L131 171 Z M421 279 C421 207 406.333 150.667 377 110 C347.667 69.3333 307 49 255 49 C210.333 49 178 60 158 82 L419 308 L421 279 Z " />
<glyph glyph-name="ugrave" unicode="&#xf9;" horiz-adv-x="518" d="M330 521 L264 660 L192 660 L264 521 L330 521 Z M402 446 L350 114 C300 69.3333 248.667 47 196 47 C142.667 47 120.667 75 130 131 L182 446 L113 446 L59 107 C53 71 60 42.3333 80 21 C100 -0.333328 130.667 -11 172 -11 C200.667 -11 229.833 -5.33333 259.5 6 C289.166 17.3333 316.333 34.6667 341 58 L332 0 L400 0 L470 446 L402 446 Z " />
<glyph glyph-name="uacute" unicode="&#xfa;" horiz-adv-x="518" d="M420 660 L347 660 L267 521 L333 521 L420 660 Z M402 446 L350 114 C300 69.3333 248.667 47 196 47 C142.667 47 120.667 75 130 131 L182 446 L113 446 L59 107 C53 71 60 42.3333 80 21 C100 -0.333328 130.667 -11 172 -11 C200.667 -11 229.833 -5.33333 259.5 6 C289.166 17.3333 316.333 34.6667 341 58 L332 0 L400 0 L470 446 L402 446 Z " />
<glyph glyph-name="ucircumflex" unicode="&#xfb;" horiz-adv-x="518" d="M315 616 L364 521 L436 521 L355 660 L281 660 L152 521 L232 521 L315 616 Z M402 446 L350 114 C300 69.3333 248.667 47 196 47 C142.667 47 120.667 75 130 131 L182 446 L113 446 L59 107 C53 71 60 42.3333 80 21 C100 -0.333328 130.667 -11 172 -11 C200.667 -11 229.833 -5.33333 259.5 6 C289.166 17.3333 316.333 34.6667 341 58 L332 0 L400 0 L470 446 L402 446 Z " />
<glyph glyph-name="udieresis" unicode="&#xfc;" horiz-adv-x="518" d="M222 542 C236.667 542 249.667 547.333 261 558 C272.333 568.667 278 581.333 278 596 C278 608.667 274 619 266 627 C258 635 247.333 639 234 639 C218.667 639 205.667 633.667 195 623 C184.333 612.336 179 599.669 179 585 C179 572.333 183 562 191 554 C199 546 209.333 542 222 542 L222 542 Z M386 542 C400.667 542 413.667 547.333 425 558 C436.333 568.667 442 581.667 442 597 C442 609 438 619 430 627 C422 635 411.667 639 399 639 C383.667 639 370.5 633.5 359.5 622.5 C348.5 611.5 343 598.667 343 584 C343 571.338 347 561.171 355 553.5 C363 545.833 373.333 542 386 542 L386 542 Z M402 446 L350 114 C300 69.3333 248.667 47 196 47 C142.667 47 120.667 75 130 131 L182 446 L113 446 L59 107 C53 71 60 42.3333 80 21 C100 -0.333328 130.667 -11 172 -11 C200.667 -11 229.833 -5.33333 259.5 6 C289.166 17.3333 316.333 34.6667 341 58 L332 0 L400 0 L470 446 L402 446 Z " />
<glyph glyph-name="yacute" unicode="&#xfd;" horiz-adv-x="444" d="M379 660 L306 660 L226 521 L292 521 L379 660 Z M385 446 L207 125 C195 102.333 184.667 80 176 58 L168 126 L130 446 L56 446 L124 -18 C94.6667 -71.3333 67.3333 -111 42 -137 C16.6667 -163 -15 -183.333 -53 -198 L-29 -256 C23 -232 63.6667 -205.167 93 -175.5 C122.333 -145.833 155.667 -97.3333 193 -30 L461 446 L385 446 Z " />
<glyph glyph-name="thorn" unicode="&#xfe;" horiz-adv-x="510" d="M321 455 C293 455 266.5 449.333 241.5 438 C216.5 426.667 195 410.667 177 390 L179 397 L232 735 L164 735 L8 -251 L79 -251 L120 12 C153.333 -4.66667 187 -13 221 -13 C257 -13 290.167 -4.83333 320.5 11.5 C350.833 27.8333 376.5 50.1667 397.5 78.5 C418.5 106.833 434.5 139 445.5 175 C456.5 211 462 248 462 286 C462 325.333 455.667 358.333 443 385 C430.333 411.667 412.833 430 390.5 440 C368.167 450 345 455 321 455 L321 455 Z M216 49 C188 49 159 56 129 70 L169 328 C187.667 350 208.667 366.5 232 377.5 C255.333 388.5 278.667 394 302 394 C361.333 394 391 357.667 391 285 C391 241 382.833 200.833 366.5 164.5 C350.167 128.167 329.167 99.8333 303.5 79.5 C277.833 59.1667 248.667 49 216 49 L216 49 Z " />
<glyph glyph-name="ydieresis" unicode="&#xff;" horiz-adv-x="444" d="M181 542 C195.667 542 208.667 547.333 220 558 C231.333 568.667 237 581.333 237 596 C237 608.667 233 619 225 627 C217 635 206.333 639 193 639 C177.667 639 164.667 633.667 154 623 C143.333 612.336 138 599.669 138 585 C138 572.333 142 562 150 554 C158 546 168.333 542 181 542 L181 542 Z M345 542 C359.667 542 372.667 547.333 384 558 C395.333 568.667 401 581.667 401 597 C401 609 397 619 389 627 C381 635 370.667 639 358 639 C342.667 639 329.5 633.5 318.5 622.5 C307.5 611.5 302 598.667 302 584 C302 571.338 306 561.171 314 553.5 C322 545.833 332.333 542 345 542 L345 542 Z M385 446 L207 125 C195 102.333 184.667 80 176 58 L168 126 L130 446 L56 446 L124 -18 C94.6667 -71.3333 67.3333 -111 42 -137 C16.6667 -163 -15 -183.333 -53 -198 L-29 -256 C23 -232 63.6667 -205.167 93 -175.5 C122.333 -145.833 155.667 -97.3333 193 -30 L461 446 L385 446 Z " />
<glyph glyph-name="Amacron" unicode="&#x100;" horiz-adv-x="575" d="M535 802 L266 803 L256 740 L526 740 L535 802 Z M329 660 L-24 0 L57 0 L150 179 L426 179 L454 0 L530 0 L417 660 L329 660 Z M184 244 L363 587 L416 244 L184 244 Z " />
<glyph glyph-name="amacron" unicode="&#x101;" horiz-adv-x="503" d="M201 622 L191 559 L461 559 L470 621 L201 622 Z M51 154 C51 44 97 -11 189 -11 C219.667 -11 246.167 -4.83333 268.5 7.5 C290.833 19.8333 312.667 39 334 65 L322 0 L389 0 L460 441 C440.667 445.667 417.667 449.5 391 452.5 C364.333 455.5 342.333 457 325 457 C285 457 248 449.333 214 434 C180 418.667 150.833 397.167 126.5 369.5 C102.167 341.833 83.5 309.5 70.5 272.5 C57.5 235.5 51 196 51 154 L51 154 Z M198 50 C171.333 50 151.5 58.8333 138.5 76.5 C125.5 94.1667 119 121.333 119 158 C119 199.333 125.5 235.667 138.5 267 C151.5 298.333 167.833 323.833 187.5 343.5 C207.167 363.167 228.5 377.167 251.5 385.5 C274.5 393.833 297 398 319 398 C341 398 362.333 395.667 383 391 L341 139 C295 79.6667 247.333 50 198 50 L198 50 Z " />
<glyph glyph-name="Abreve" unicode="&#x102;" horiz-adv-x="575" d="M379 707 C419.667 707 454.5 719.667 483.5 745 C512.5 770.332 532.333 801.665 543 839 L479 839 C473.667 825 465.667 811.167 455 797.5 C444.333 783.833 432 774 418 768 C404 762 390.333 759 377 759 C355.667 759 339.667 764.167 329 774.5 C318.333 784.833 313.333 806.333 314 839 L253 839 C253 789 263.833 754.5 285.5 735.5 C307.166 716.5 338.333 707 379 707 L379 707 Z M329 660 L-24 0 L57 0 L150 179 L426 179 L454 0 L530 0 L417 660 L329 660 Z M184 244 L363 587 L416 244 L184 244 Z " />
<glyph glyph-name="abreve" unicode="&#x103;" horiz-adv-x="503" d="M329 521 C372.333 521 408.5 533 437.5 557 C466.5 581 487 615.333 499 660 L435 660 C426.333 628.667 413.833 606.333 397.5 593 C381.167 579.667 361 573 337 573 C281 573 258 602 268 660 L207 660 C199 617.333 206 583.5 228 558.5 C250 533.5 283.667 521 329 521 L329 521 Z M51 154 C51 44 97 -11 189 -11 C219.667 -11 246.167 -4.83333 268.5 7.5 C290.833 19.8333 312.667 39 334 65 L322 0 L389 0 L460 441 C440.667 445.667 417.667 449.5 391 452.5 C364.333 455.5 342.333 457 325 457 C285 457 248 449.333 214 434 C180 418.667 150.833 397.167 126.5 369.5 C102.167 341.833 83.5 309.5 70.5 272.5 C57.5 235.5 51 196 51 154 L51 154 Z M198 50 C171.333 50 151.5 58.8333 138.5 76.5 C125.5 94.1667 119 121.333 119 158 C119 199.333 125.5 235.667 138.5 267 C151.5 298.333 167.833 323.833 187.5 343.5 C207.167 363.167 228.5 377.167 251.5 385.5 C274.5 393.833 297 398 319 398 C341 398 362.333 395.667 383 391 L341 139 C295 79.6667 247.333 50 198 50 L198 50 Z " />
<glyph glyph-name="Aogonek" unicode="&#x104;" horiz-adv-x="575" d="M451 -131 C451 -105.667 477.333 -62 530 0 L417 660 L329 660 L-24 0 L57 0 L150 179 L426 179 L454 0 C406.667 -64.6667 383 -117 383 -157 C383 -182.333 394.5 -200.5 417.5 -211.5 C440.5 -222.5 477 -225 527 -219 L537 -160 C479.667 -169.333 451 -159.667 451 -131 L451 -131 Z M184 244 L363 587 L416 244 L184 244 Z " />
<glyph glyph-name="aogonek" unicode="&#x105;" horiz-adv-x="503" d="M317 -131 C317 -105.667 341 -62 389 0 L460 441 C440.667 445.667 417.667 449.5 391 452.5 C364.333 455.5 342.333 457 325 457 C285 457 248 449.333 214 434 C180 418.667 150.833 397.167 126.5 369.5 C102.167 341.833 83.5 309.5 70.5 272.5 C57.5 235.5 51 196 51 154 C51 44 97 -11 189 -11 C219.667 -11 246.167 -4.83333 268.5 7.5 C290.833 19.8333 312.667 39 334 65 L323 4 L322 4 C293.333 -34.6667 274 -67.3333 264 -94 C254 -120.667 249 -141.667 249 -157 C249 -182.333 260.5 -200.5 283.5 -211.5 C306.5 -222.5 343 -225 393 -219 L403 -160 C345.667 -169.333 317 -159.667 317 -131 L317 -131 Z M198 50 C171.333 50 151.5 58.8333 138.5 76.5 C125.5 94.1667 119 121.333 119 158 C119 199.333 125.5 235.667 138.5 267 C151.5 298.333 167.833 323.833 187.5 343.5 C207.167 363.167 228.5 377.167 251.5 385.5 C274.5 393.833 297 398 319 398 C341 398 362.333 395.667 383 391 L341 139 C295 79.6667 247.333 50 198 50 L198 50 Z " />
<glyph glyph-name="Cacute" unicode="&#x106;" horiz-adv-x="557" d="M467 727 L550 859 L477 859 L401 727 L467 727 Z M445 672 C383.667 672 330 663.167 284 645.5 C238 627.833 198.667 602.5 166 569.5 C133.333 536.5 107.333 494.833 88 444.5 C68.6667 394.167 59 337.667 59 275 C59 179.667 84 108.167 134 60.5 C184 12.8333 262.333 -11 369 -11 C415 -11 461.333 -6 508 4 L498 70 C460 62 419.667 58 377 58 C324.333 58 279.167 65.1667 241.5 79.5 C203.833 93.8333 175.667 116.167 157 146.5 C138.333 176.833 129 217.667 129 269 C129 326.333 137.167 376.5 153.5 419.5 C169.833 462.5 192.166 498.167 220.5 526.5 C248.833 554.833 282 575 320 587 C358 599 397 605 437 605 C475.667 605 527.333 599 592 587 L605 652 C547 665.333 493.667 672 445 672 L445 672 Z " />
<glyph glyph-name="cacute" unicode="&#x107;" horiz-adv-x="408" d="M340 521 L427 660 L354 660 L274 521 L340 521 Z M401 378 L417 436 C401.667 441.333 382 446 358 450 C334 454 312.333 456 293 456 C264.333 456 237.667 451.667 213 443 C188.333 434.333 166.5 422 147.5 406 C128.5 390 112.5 371.167 99.5 349.5 C86.5 327.833 75.5 301.833 66.5 271.5 C57.5 241.167 53 206.667 53 168 C53 107.333 66.5 62.3333 93.5 33 C120.5 3.66667 162.333 -11 219 -11 C239 -11 262 -9.33333 288 -6 C314 -2.66667 336 1.66667 354 7 L344 66 C301.333 55.3333 264 50 232 50 C196 50 168.5 58.8333 149.5 76.5 C130.5 94.1667 121 124.333 121 167 C121 212.333 128.667 253.167 144 289.5 C159.333 325.833 179.667 352.667 205 370 C230.333 387.333 259.333 396 292 396 C326.667 396 363 390 401 378 L401 378 Z " />
<glyph glyph-name="Cdotaccent" unicode="&#x10a;" horiz-adv-x="557" d="M452 820 C439.333 820 427.667 815.333 417 806 C406.333 796.667 400 785.333 398 772 C396 758.667 399 747.5 407 738.5 C415 729.5 425.333 725 438 725 C451.333 725 463.333 729.5 474 738.5 C484.667 747.5 491 758.667 493 772 C495 785.33 492 796.664 484 806 C476 815.333 465.333 820 452 820 L452 820 Z M445 672 C383.667 672 330 663.167 284 645.5 C238 627.833 198.667 602.5 166 569.5 C133.333 536.5 107.333 494.833 88 444.5 C68.6667 394.167 59 337.667 59 275 C59 179.667 84 108.167 134 60.5 C184 12.8333 262.333 -11 369 -11 C415 -11 461.333 -6 508 4 L498 70 C460 62 419.667 58 377 58 C324.333 58 279.167 65.1667 241.5 79.5 C203.833 93.8333 175.667 116.167 157 146.5 C138.333 176.833 129 217.667 129 269 C129 326.333 137.167 376.5 153.5 419.5 C169.833 462.5 192.166 498.167 220.5 526.5 C248.833 554.833 282 575 320 587 C358 599 397 605 437 605 C475.667 605 527.333 599 592 587 L605 652 C547 665.333 493.667 672 445 672 L445 672 Z " />
<glyph glyph-name="cdotaccent" unicode="&#x10b;" horiz-adv-x="408" d="M369 592 C371 605.333 367.833 616.833 359.5 626.5 C351.168 636.167 340.335 641 327 641 C313 641 300.833 636.333 290.5 627 C280.167 617.667 274 606 272 592 C270 578.667 272.833 567.333 280.5 558 C288.167 548.667 299 544 313 544 C326.333 544 338.5 548.667 349.5 558 C360.5 567.329 367 578.662 369 592 L369 592 Z M401 378 L417 436 C401.667 441.333 382 446 358 450 C334 454 312.333 456 293 456 C264.333 456 237.667 451.667 213 443 C188.333 434.333 166.5 422 147.5 406 C128.5 390 112.5 371.167 99.5 349.5 C86.5 327.833 75.5 301.833 66.5 271.5 C57.5 241.167 53 206.667 53 168 C53 107.333 66.5 62.3333 93.5 33 C120.5 3.66667 162.333 -11 219 -11 C239 -11 262 -9.33333 288 -6 C314 -2.66667 336 1.66667 354 7 L344 66 C301.333 55.3333 264 50 232 50 C196 50 168.5 58.8333 149.5 76.5 C130.5 94.1667 121 124.333 121 167 C121 212.333 128.667 253.167 144 289.5 C159.333 325.833 179.667 352.667 205 370 C230.333 387.333 259.333 396 292 396 C326.667 396 363 390 401 378 L401 378 Z " />
<glyph glyph-name="Ccaron" unicode="&#x10c;" horiz-adv-x="557" d="M477 707 L580 839 L501 839 L436 749 L397 838 L325 839 L384 706 L477 707 Z M437 605 C475.667 605 527.333 599 592 587 L605 652 C547 665.333 493.667 672 445 672 C383.667 672 330 663.167 284 645.5 C238 627.833 198.667 602.5 166 569.5 C133.333 536.5 107.333 494.833 88 444.5 C68.6667 394.167 59 337.667 59 275 C59 179.667 84 108.167 134 60.5 C184 12.8333 262.333 -11 369 -11 C415 -11 461.333 -6 508 4 L498 70 C460 62 419.667 58 377 58 C324.333 58 279.167 65.1667 241.5 79.5 C203.833 93.8333 175.667 116.167 157 146.5 C138.333 176.833 129 217.667 129 269 C129 326.333 137.167 376.5 153.5 419.5 C169.833 462.5 192.166 498.167 220.5 526.5 C248.833 554.833 282 575 320 587 C358 599 397 605 437 605 L437 605 Z " />
<glyph glyph-name="ccaron" unicode="&#x10d;" horiz-adv-x="408" d="M355 521 L462 660 L383 660 L314 564 L273 660 L201 660 L262 521 L355 521 Z M53 168 C53 107.333 66.5 62.3333 93.5 33 C120.5 3.66667 162.333 -11 219 -11 C239 -11 262 -9.33333 288 -6 C314 -2.66667 336 1.66667 354 7 L344 66 C301.333 55.3333 264 50 232 50 C196 50 168.5 58.8333 149.5 76.5 C130.5 94.1667 121 124.333 121 167 C121 212.333 128.667 253.167 144 289.5 C159.333 325.833 179.667 352.667 205 370 C230.333 387.333 259.333 396 292 396 C326.667 396 363 390 401 378 L417 436 C401.667 441.333 382 446 358 450 C334 454 312.333 456 293 456 C264.333 456 237.667 451.667 213 443 C188.333 434.333 166.5 422 147.5 406 C128.5 390 112.5 371.167 99.5 349.5 C86.5 327.833 75.5 301.833 66.5 271.5 C57.5 241.167 53 206.667 53 168 L53 168 Z " />
<glyph glyph-name="Dcaron" unicode="&#x10e;" horiz-adv-x="675" d="M424 707 L527 839 L448 839 L383 749 L344 838 L272 839 L331 706 L424 707 Z M341 661 L164 658 L60 0 C134.667 -4 205.333 -6 272 -6 C331.333 -6 384.667 2.83333 432 20.5 C479.333 38.1666 519.167 64.1666 551.5 98.5 C583.833 132.833 608.333 175.333 625 226 C641.667 276.667 650 334 650 398 C650 482 623.167 546.833 569.5 592.5 C515.833 638.167 439.667 661 341 661 L341 661 Z M271 60 L142 62 L225 595 L322 596 C407.333 596 471.167 579.167 513.5 545.5 C555.833 511.833 577 460.667 577 392 C577 286 550.333 204.167 497 146.5 C443.667 88.8333 368.334 60 271 60 L271 60 Z " />
<glyph glyph-name="dcaron" unicode="&#x10f;" horiz-adv-x="507" d="M397 448 C366.333 454 337.667 457 311 457 C271 457 234.5 448.833 201.5 432.5 C168.5 416.167 141 393.834 119 365.5 C97 337.167 80.1667 305 68.5 269 C56.8333 233 51 195.667 51 157 C51 101 63 58.6667 87 30 C111 1.33333 143.667 -13 185 -13 C238.333 -13 289.333 12.6667 338 64 L327 0 L394 0 L510 735 L442 735 L397 448 Z M592 734 L563 557 L621 557 L677 734 L592 734 Z M200 49 C146.667 49 120 88 120 166 C120 198.667 125.167 230.833 135.5 262.5 C145.833 294.167 161.667 320.5 183 341.5 C204.333 362.5 226.5 376.833 249.5 384.5 C272.5 392.167 295 396 317 396 C337.667 396 361.333 392.667 388 386 L348 138 C327.333 112 303.667 90.6667 277 74 C250.333 57.3333 224.667 49 200 49 L200 49 Z " />
<glyph glyph-name="Dcroat" unicode="&#x110;" horiz-adv-x="683" d="M339 661 L162 658 L116 365 L67 365 L57 297 L105 297 L58 0 C132.667 -4 203.333 -6 270 -6 C329.333 -6 382.667 2.83333 430 20.5 C477.333 38.1666 517.167 64.1666 549.5 98.5 C581.833 132.833 606.333 175.333 623 226 C639.667 276.667 648 334 648 398 C648 482 621.167 546.833 567.5 592.5 C513.833 638.167 437.667 661 339 661 L339 661 Z M269 60 L140 62 L177 297 L359 297 L369 365 L187 365 L223 595 L320 596 C405.333 596 469.167 579.167 511.5 545.5 C553.833 511.833 575 460.667 575 392 C575 286 548.333 204.167 495 146.5 C441.667 88.8333 366.334 60 269 60 L269 60 Z " />
<glyph glyph-name="dcroat" unicode="&#x111;" horiz-adv-x="507" d="M563 617 L492 617 L510 735 L442 735 L424 617 L294 617 L284 555 L414 555 L397 448 C366.333 454 337.667 457 311 457 C271 457 234.5 448.833 201.5 432.5 C168.5 416.167 141 393.834 119 365.5 C97 337.167 80.1667 305 68.5 269 C56.8333 233 51 195.667 51 157 C51 101 63 58.6667 87 30 C111 1.33333 143.667 -13 185 -13 C238.333 -13 289.333 12.6667 338 64 L327 0 L394 0 L482 555 L554 555 L563 617 Z M200 49 C146.667 49 120 88 120 166 C120 198.667 125.167 230.833 135.5 262.5 C145.833 294.167 161.667 320.5 183 341.5 C204.333 362.5 226.5 376.833 249.5 384.5 C272.5 392.167 295 396 317 396 C337.667 396 361.333 392.667 388 386 L348 138 C327.333 112 303.667 90.6667 277 74 C250.333 57.3333 224.667 49 200 49 L200 49 Z " />
<glyph glyph-name="Emacron" unicode="&#x112;" horiz-adv-x="486" d="M230 803 L220 740 L490 740 L499 802 L230 803 Z M61 0 L401 0 L410 67 L143 67 L180 299 L417 299 L427 366 L191 366 L227 594 L473 594 L483 660 L164 660 L61 0 Z " />
<glyph glyph-name="emacron" unicode="&#x113;" horiz-adv-x="473" d="M172 622 L162 559 L432 559 L441 621 L172 622 Z M285 457 C250.333 457 218.5 449.667 189.5 435 C160.5 420.333 136 400 116 374 C96 348 80.6667 317.5 70 282.5 C59.3333 247.5 54 210.333 54 171 C54 109 67.8333 63.1667 95.5 33.5 C123.167 3.83333 167 -11 227 -11 C249.667 -11 276.167 -8.5 306.5 -3.5 C336.833 1.5 362 7.66667 382 15 L368 70 C317.333 56 271.667 49 231 49 C187 49 157.833 59.6667 143.5 81 C129.167 102.333 122 133.667 122 175 C122 195.667 123.333 213.667 126 229 L420 229 C425.333 252.333 428 282 428 318 C428 360 416.167 393.667 392.5 419 C368.833 444.333 333 457 285 457 L285 457 Z M282 398 C295.333 398 308.333 395.667 321 391 C333.667 386.333 343 377.667 349 365 C355 352.333 358.333 336 359 316 C359 306 357.667 295.667 355 285 L139 285 C151 319.667 169.5 347.167 194.5 367.5 C219.5 387.833 248.667 398 282 398 L282 398 Z " />
<glyph glyph-name="Edotaccent" unicode="&#x116;" horiz-adv-x="486" d="M347 725 C360.333 725 372.333 729.5 383 738.5 C393.667 747.5 400 758.667 402 772 C404 785.33 401 796.664 393 806 C385 815.333 374.333 820 361 820 C348.333 820 336.667 815.333 326 806 C315.333 796.667 309 785.333 307 772 C305 758.667 308 747.5 316 738.5 C324 729.5 334.333 725 347 725 L347 725 Z M473 594 L483 660 L164 660 L61 0 L401 0 L410 67 L143 67 L180 299 L417 299 L427 366 L191 366 L227 594 L473 594 Z " />
<glyph glyph-name="edotaccent" unicode="&#x117;" horiz-adv-x="473" d="M303 544 C316.333 544 328.5 548.667 339.5 558 C350.5 567.329 357 578.662 359 592 C361 605.333 357.833 616.833 349.5 626.5 C341.167 636.167 330.334 641 317 641 C303 641 290.833 636.333 280.5 627 C270.167 617.667 264 606 262 592 C260 578.667 262.833 567.333 270.5 558 C278.167 548.667 289 544 303 544 L303 544 Z M420 229 C425.333 252.333 428 282 428 318 C428 360 416.167 393.667 392.5 419 C368.833 444.333 333 457 285 457 C250.333 457 218.5 449.667 189.5 435 C160.5 420.333 136 400 116 374 C96 348 80.6667 317.5 70 282.5 C59.3333 247.5 54 210.333 54 171 C54 109 67.8333 63.1667 95.5 33.5 C123.167 3.83333 167 -11 227 -11 C249.667 -11 276.167 -8.5 306.5 -3.5 C336.833 1.5 362 7.66667 382 15 L368 70 C317.333 56 271.667 49 231 49 C187 49 157.833 59.6667 143.5 81 C129.167 102.333 122 133.667 122 175 C122 195.667 123.333 213.667 126 229 L420 229 Z M282 398 C295.333 398 308.333 395.667 321 391 C333.667 386.333 343 377.667 349 365 C355 352.333 358.333 336 359 316 C359 306 357.667 295.667 355 285 L139 285 C151 319.667 169.5 347.167 194.5 367.5 C219.5 387.833 248.667 398 282 398 L282 398 Z " />
<glyph glyph-name="Eogonek" unicode="&#x118;" horiz-adv-x="486" d="M473 594 L483 660 L164 660 L61 0 L334 0 C285.333 -66.6667 261 -119 261 -157 C261 -182.333 272.5 -200.5 295.5 -211.5 C318.5 -222.5 355 -225 405 -219 L415 -160 C357.667 -169.333 329 -159.667 329 -131 C329 -105.667 353 -62 401 0 L410 67 L143 67 L180 299 L417 299 L427 366 L191 366 L227 594 L473 594 Z " />
<glyph glyph-name="eogonek" unicode="&#x119;" horiz-adv-x="484" d="M431 229 C436.333 252.333 439 282 439 318 C439 360 427.167 393.667 403.5 419 C379.833 444.333 344 457 296 457 C261.333 457 229.5 449.667 200.5 435 C171.5 420.333 147 400 127 374 C107 348 91.6667 317.5 81 282.5 C70.3333 247.5 65 210.333 65 171 C65 109 78.8333 63.1667 106.5 33.5 C134.167 3.83333 178 -11 238 -11 C261.333 -11 285.333 -9 310 -5 C283.333 -41.6667 265.333 -72.3333 256 -97 C246.667 -121.667 242 -141 242 -155 C242 -180.333 253.5 -198.5 276.5 -209.5 C299.5 -220.5 336 -223 386 -217 L396 -158 C338.667 -167.333 310 -157.667 310 -129 C310 -114.333 317.833 -93.8333 333.5 -67.5 C349.167 -41.1667 368.667 -14 392 14 L393 15 L379 70 C328.333 56 282.667 49 242 49 C198 49 168.833 59.6667 154.5 81 C140.167 102.333 133 133.667 133 175 C133 195.667 134.333 213.667 137 229 L431 229 Z M293 398 C306.333 398 319.333 395.667 332 391 C344.667 386.333 354 377.667 360 365 C366 352.333 369.333 336 370 316 C370 306 368.667 295.667 366 285 L150 285 C162 319.667 180.5 347.167 205.5 367.5 C230.5 387.833 259.667 398 293 398 L293 398 Z " />
<glyph glyph-name="Ecaron" unicode="&#x11a;" horiz-adv-x="486" d="M386 707 L489 839 L410 839 L345 749 L306 838 L234 839 L293 706 L386 707 Z M61 0 L401 0 L410 67 L143 67 L180 299 L417 299 L427 366 L191 366 L227 594 L473 594 L483 660 L164 660 L61 0 Z " />
<glyph glyph-name="ecaron" unicode="&#x11b;" horiz-adv-x="473" d="M345 521 L452 660 L373 660 L304 564 L263 660 L191 660 L252 521 L345 521 Z M285 457 C250.333 457 218.5 449.667 189.5 435 C160.5 420.333 136 400 116 374 C96 348 80.6667 317.5 70 282.5 C59.3333 247.5 54 210.333 54 171 C54 109 67.8333 63.1667 95.5 33.5 C123.167 3.83333 167 -11 227 -11 C249.667 -11 276.167 -8.5 306.5 -3.5 C336.833 1.5 362 7.66667 382 15 L368 70 C317.333 56 271.667 49 231 49 C187 49 157.833 59.6667 143.5 81 C129.167 102.333 122 133.667 122 175 C122 195.667 123.333 213.667 126 229 L420 229 C425.333 252.333 428 282 428 318 C428 360 416.167 393.667 392.5 419 C368.833 444.333 333 457 285 457 L285 457 Z M282 398 C295.333 398 308.333 395.667 321 391 C333.667 386.333 343 377.667 349 365 C355 352.333 358.333 336 359 316 C359 306 357.667 295.667 355 285 L139 285 C151 319.667 169.5 347.167 194.5 367.5 C219.5 387.833 248.667 398 282 398 L282 398 Z " />
<glyph glyph-name="Gbreve" unicode="&#x11e;" horiz-adv-x="665" d="M585 839 L521 839 C515.667 825 507.667 811.167 497 797.5 C486.333 783.833 474 774 460 768 C446 762 432.333 759 419 759 C397.667 759 381.667 764.167 371 774.5 C360.333 784.833 355.333 806.333 356 839 L295 839 C295 789 305.833 754.5 327.5 735.5 C349.166 716.5 380.333 707 421 707 C461.667 707 496.5 719.667 525.5 745 C554.5 770.332 574.333 801.665 585 839 L585 839 Z M433 679 C374.333 679 321.5 669.333 274.5 650 C227.5 630.667 188.167 603.167 156.5 567.5 C124.833 531.834 100.833 489 84.5 439 C68.1667 389 60 334.333 60 275 C60 175 83 100.5 129 51.5 C175 2.5 246 -22 342 -22 C370.667 -22 404.5 -19.6667 443.5 -15 C482.5 -10.3333 517.666 -4.66667 549 2 L598 320 L528 320 L486 59 C446 49 403 44 357 44 C281 44 224.5 60.6667 187.5 94 C150.5 127.333 132 187 132 273 C132 327.667 138.667 376.5 152 419.5 C165.333 462.5 184.833 498.167 210.5 526.5 C236.167 554.833 267.5 576.333 304.5 591 C341.5 605.667 383.333 613 430 613 C481.333 613 541.667 603.667 611 585 L629 648 C600.333 657.333 568 664.833 532 670.5 C496 676.167 463 679 433 679 L433 679 Z " />
<glyph glyph-name="gbreve" unicode="&#x11f;" horiz-adv-x="501" d="M312 521 C355.333 521 391.5 533 420.5 557 C449.5 581 470 615.333 482 660 L418 660 C409.333 628.667 396.833 606.333 380.5 593 C364.167 579.667 344 573 320 573 C264 573 241 602 251 660 L190 660 C182 617.333 189 583.5 211 558.5 C233 533.5 266.667 521 312 521 L312 521 Z M50 148 C50 111.333 56.3333 80.5 69 55.5 C81.6667 30.5 99 13.1667 121 3.5 C143 -6.16667 165.667 -11 189 -11 C217 -11 243.333 -5 268 7 C292.667 19 313.667 36 331 58 L308 -87 C301.333 -122.333 285.167 -150.167 259.5 -170.5 C233.833 -190.833 201.667 -201 163 -201 C117 -201 70 -195 22 -183 L5 -243 C56.3333 -255 110.333 -261 167 -261 C222.333 -261 268.333 -246.167 305 -216.5 C341.667 -186.833 364.333 -146 373 -94 L457 438 C404.333 448.667 356 454 312 454 C278 454 246.833 448.333 218.5 437 C190.167 425.667 165.833 410.167 145.5 390.5 C125.167 370.833 108.333 348.833 95 324.5 C81.6667 300.167 70.8334 272.833 62.5 242.5 C54.1667 212.167 50 180.667 50 148 L50 148 Z M384 390 L344 138 C322 109.333 298.333 86.8333 273 70.5 C247.667 54.1667 223.333 46 200 46 C176.667 46 157.333 54.5 142 71.5 C126.667 88.5 119 116 119 154 C119 184 123.5 214.333 132.5 245 C141.5 275.667 154.5 302.833 171.5 326.5 C188.5 350.167 209.5 367.667 234.5 379 C259.5 390.333 285.667 396 313 396 C339.667 396 363.333 394 384 390 L384 390 Z " />
<glyph glyph-name="Gdotaccent" unicode="&#x120;" horiz-adv-x="665" d="M439 820 C426.333 820 414.667 815.333 404 806 C393.333 796.667 387 785.333 385 772 C383 758.667 386 747.5 394 738.5 C402 729.5 412.333 725 425 725 C438.333 725 450.333 729.5 461 738.5 C471.667 747.5 478 758.667 480 772 C482 785.33 479 796.664 471 806 C463 815.333 452.333 820 439 820 L439 820 Z M433 679 C374.333 679 321.5 669.333 274.5 650 C227.5 630.667 188.167 603.167 156.5 567.5 C124.833 531.834 100.833 489 84.5 439 C68.1667 389 60 334.333 60 275 C60 175 83 100.5 129 51.5 C175 2.5 246 -22 342 -22 C370.667 -22 404.5 -19.6667 443.5 -15 C482.5 -10.3333 517.666 -4.66667 549 2 L598 320 L528 320 L486 59 C446 49 403 44 357 44 C281 44 224.5 60.6667 187.5 94 C150.5 127.333 132 187 132 273 C132 327.667 138.667 376.5 152 419.5 C165.333 462.5 184.833 498.167 210.5 526.5 C236.167 554.833 267.5 576.333 304.5 591 C341.5 605.667 383.333 613 430 613 C481.333 613 541.667 603.667 611 585 L629 648 C600.333 657.333 568 664.833 532 670.5 C496 676.167 463 679 433 679 L433 679 Z " />
<glyph glyph-name="gdotaccent" unicode="&#x121;" horiz-adv-x="501" d="M315 544 C328.333 544 340.5 548.667 351.5 558 C362.5 567.329 369 578.662 371 592 C373 605.333 369.833 616.833 361.5 626.5 C353.168 636.167 342.335 641 329 641 C315 641 302.833 636.333 292.5 627 C282.167 617.667 276 606 274 592 C272 578.667 274.833 567.333 282.5 558 C290.167 548.667 301 544 315 544 L315 544 Z M312 454 C278 454 246.833 448.333 218.5 437 C190.167 425.667 165.833 410.167 145.5 390.5 C125.167 370.833 108.333 348.833 95 324.5 C81.6667 300.167 70.8334 272.833 62.5 242.5 C54.1667 212.167 50 180.667 50 148 C50 111.333 56.3333 80.5 69 55.5 C81.6667 30.5 99 13.1667 121 3.5 C143 -6.16667 165.667 -11 189 -11 C217 -11 243.333 -5 268 7 C292.667 19 313.667 36 331 58 L308 -87 C301.333 -122.333 285.167 -150.167 259.5 -170.5 C233.833 -190.833 201.667 -201 163 -201 C117 -201 70 -195 22 -183 L5 -243 C56.3333 -255 110.333 -261 167 -261 C222.333 -261 268.333 -246.167 305 -216.5 C341.667 -186.833 364.333 -146 373 -94 L457 438 C404.333 448.667 356 454 312 454 L312 454 Z M344 138 C322 109.333 298.333 86.8333 273 70.5 C247.667 54.1667 223.333 46 200 46 C176.667 46 157.333 54.5 142 71.5 C126.667 88.5 119 116 119 154 C119 184 123.5 214.333 132.5 245 C141.5 275.667 154.5 302.833 171.5 326.5 C188.5 350.167 209.5 367.667 234.5 379 C259.5 390.333 285.667 396 313 396 C339.667 396 363.333 394 384 390 L344 138 Z " />
<glyph glyph-name="Gcommaaccent" unicode="&#x122;" horiz-adv-x="665" d="M433 679 C374.333 679 321.5 669.333 274.5 650 C227.5 630.667 188.167 603.167 156.5 567.5 C124.833 531.834 100.833 489 84.5 439 C68.1667 389 60 334.333 60 275 C60 175 83 100.5 129 51.5 C175 2.5 246 -22 342 -22 C370.667 -22 404.5 -19.6667 443.5 -15 C482.5 -10.3333 517.666 -4.66667 549 2 L598 320 L528 320 L486 59 C446 49 403 44 357 44 C281 44 224.5 60.6667 187.5 94 C150.5 127.333 132 187 132 273 C132 327.667 138.667 376.5 152 419.5 C165.333 462.5 184.833 498.167 210.5 526.5 C236.167 554.833 267.5 576.333 304.5 591 C341.5 605.667 383.333 613 430 613 C481.333 613 541.667 603.667 611 585 L629 648 C600.333 657.333 568 664.833 532 670.5 C496 676.167 463 679 433 679 L433 679 Z M318 -51 C307.333 -51 295 -53.6667 281 -59 L288 -154 L249 -231 L301 -231 L352 -163 C368 -142.333 376 -123.333 376 -106 C376 -88 371 -74.3333 361 -65 C351 -55.6667 336.667 -51 318 -51 L318 -51 Z " />
<glyph glyph-name="gcommaaccent" unicode="&#x123;" horiz-adv-x="501" d="M308 497 C318.667 497 331 499.667 345 505 L338 600 L377 677 L325 677 L274 609 C258 588.333 250 569.333 250 552 C250 534 255 520.333 265 511 C275 501.667 289.333 497 308 497 L308 497 Z M312 454 C278 454 246.833 448.333 218.5 437 C190.167 425.667 165.833 410.167 145.5 390.5 C125.167 370.833 108.333 348.833 95 324.5 C81.6667 300.167 70.8334 272.833 62.5 242.5 C54.1667 212.167 50 180.667 50 148 C50 111.333 56.3333 80.5 69 55.5 C81.6667 30.5 99 13.1667 121 3.5 C143 -6.16667 165.667 -11 189 -11 C217 -11 243.333 -5 268 7 C292.667 19 313.667 36 331 58 L308 -87 C301.333 -122.333 285.167 -150.167 259.5 -170.5 C233.833 -190.833 201.667 -201 163 -201 C117 -201 70 -195 22 -183 L5 -243 C56.3333 -255 110.333 -261 167 -261 C222.333 -261 268.333 -246.167 305 -216.5 C341.667 -186.833 364.333 -146 373 -94 L457 438 C404.333 448.667 356 454 312 454 L312 454 Z M344 138 C322 109.333 298.333 86.8333 273 70.5 C247.667 54.1667 223.333 46 200 46 C176.667 46 157.333 54.5 142 71.5 C126.667 88.5 119 116 119 154 C119 184 123.5 214.333 132.5 245 C141.5 275.667 154.5 302.833 171.5 326.5 C188.5 350.167 209.5 367.667 234.5 379 C259.5 390.333 285.667 396 313 396 C339.667 396 363.333 394 384 390 L344 138 Z " />
<glyph glyph-name="Hbar" unicode="&#x126;" horiz-adv-x="709" d="M711 561 L671 561 L687 660 L615 660 L599 561 L216 561 L232 660 L160 660 L144 561 L108 561 L97 500 L135 500 L56 0 L128 0 L175 297 L557 297 L510 0 L583 0 L662 500 L700 500 L711 561 Z M568 365 L186 365 L207 500 L590 500 L568 365 Z " />
<glyph glyph-name="hbar" unicode="&#x127;" horiz-adv-x="525" d="M351 457 C321 457 290.833 451 260.5 439 C230.167 427 202.333 408.333 177 383 L204 555 L354 555 L363 617 L213 617 L232 735 L164 735 L145 617 L94 617 L84 555 L135 555 L48 0 L117 0 L168 328 C220 375.333 273 399 327 399 C353 399 371.5 392.333 382.5 379 C393.5 365.667 396.667 344 392 314 L343 0 L412 0 L465 338 C470.333 374.667 463 403.667 443 425 C423 446.333 392.333 457 351 457 L351 457 Z " />
<glyph glyph-name="Imacron" unicode="&#x12a;" horiz-adv-x="261" d="M361 802 L92 803 L82 740 L352 740 L361 802 Z M235 660 L164 660 L60 0 L130 0 L235 660 Z " />
<glyph glyph-name="imacron" unicode="&#x12b;" horiz-adv-x="239" d="M308 621 L39 622 L29 559 L299 559 L308 621 Z M191 446 L118 446 L49 0 L121 0 L191 446 Z " />
<glyph glyph-name="Iogonek" unicode="&#x12e;" horiz-adv-x="261" d="M59 -131 C59 -105.667 83 -62 131 0 L130 0 L235 660 L164 660 L60 0 L61 0 C39 -30 21.8333 -58.6667 9.5 -86 C-2.83333 -113.333 -9 -137 -9 -157 C-9 -182.333 2.5 -200.5 25.5 -211.5 C48.5 -222.5 85 -225 135 -219 L145 -160 C87.6667 -169.333 59 -159.667 59 -131 L59 -131 Z " />
<glyph glyph-name="iogonek" unicode="&#x12f;" horiz-adv-x="239" d="M184 641 C170 641 157.833 636.333 147.5 627 C137.167 617.667 131 606 129 592 C127 578.667 129.833 567.333 137.5 558 C145.167 548.667 156 544 170 544 C183.333 544 195.5 548.667 206.5 558 C217.5 567.329 224 578.662 226 592 C228 605.333 224.833 616.833 216.5 626.5 C208.167 636.167 197.333 641 184 641 L184 641 Z M121 0 L191 446 L118 446 L49 0 C27 -30 9.83333 -58.6667 -2.5 -86 C-14.8333 -113.333 -21 -137 -21 -157 C-21 -182.333 -9.5 -200.5 13.5 -211.5 C36.5 -222.5 73 -225 123 -219 L133 -160 C103.667 -164.664 81.6667 -164.331 67 -159 C52.3334 -153.666 45.6667 -144.333 47 -131 C48.3333 -105 73 -61.3333 121 0 L121 0 Z " />
<glyph glyph-name="Idotaccent" unicode="&#x130;" horiz-adv-x="261" d="M223 820 C210.334 820 198.667 815.333 188 806 C177.333 796.667 171 785.333 169 772 C167 758.667 170 747.5 178 738.5 C186 729.5 196.333 725 209 725 C222.333 725 234.333 729.5 245 738.5 C255.667 747.5 262 758.667 264 772 C266 785.33 263 796.664 255 806 C247 815.333 236.333 820 223 820 L223 820 Z M235 660 L164 660 L60 0 L130 0 L235 660 Z " />
<glyph glyph-name="dotlessi" unicode="&#x131;" horiz-adv-x="239" d="M191 446 L118 446 L49 0 L121 0 L191 446 Z " />
<glyph glyph-name="IJ" unicode="&#x132;" horiz-adv-x="521" d="M235 660 L164 660 L60 0 L130 0 L235 660 Z M495 660 L425 660 L313 -36 C307.668 -72 296.834 -103.5 280.5 -130.5 C264.167 -157.5 239.333 -185.667 206 -215 L254 -266 C295.333 -229.333 325.333 -194.833 344 -162.5 C362.667 -130.167 376 -89.6667 384 -41 L495 660 Z " />
<glyph glyph-name="ij" unicode="&#x133;" horiz-adv-x="492" d="M226 592 C228 605.333 224.833 616.833 216.5 626.5 C208.167 636.167 197.333 641 184 641 C170 641 157.833 636.333 147.5 627 C137.167 617.667 131 606 129 592 C127 578.667 129.833 567.333 137.5 558 C145.167 548.667 156 544 170 544 C183.333 544 195.5 548.667 206.5 558 C217.5 567.329 224 578.662 226 592 L226 592 Z M478 592 C480 605.333 476.833 616.833 468.5 626.5 C460.168 636.167 449.334 641 436 641 C422 641 409.833 636.333 399.5 627 C389.167 617.667 383 606 381 592 C379 578.667 381.833 567.333 389.5 558 C397.167 548.667 408 544 422 544 C435.333 544 447.5 548.667 458.5 558 C469.5 567.329 476 578.662 478 592 L478 592 Z M191 446 L118 446 L49 0 L121 0 L191 446 Z M441 446 L370 446 L294 -32 C286.667 -97.3334 250.667 -157.333 186 -212 L234 -263 C276 -225.667 305.833 -191.667 323.5 -161 C341.167 -130.333 354.667 -89.3333 364 -38 L441 446 Z " />
<glyph glyph-name="Kcommaaccent" unicode="&#x136;" horiz-adv-x="542" d="M164 660 L60 0 L131 0 L235 660 L164 660 Z M558 660 L471 660 L197 336 L407 0 L497 0 L281 338 L558 660 Z M230 -51 C219.333 -51 207 -53.6667 193 -59 L200 -154 L161 -231 L213 -231 L264 -163 C280 -142.333 288 -123.333 288 -106 C288 -88 283 -74.3333 273 -65 C263 -55.6667 248.667 -51 230 -51 L230 -51 Z " />
<glyph glyph-name="kcommaaccent" unicode="&#x137;" horiz-adv-x="463" d="M233 735 L164 735 L48 0 L117 0 L233 735 Z M459 446 L366 446 L171 267 L333 0 L415 0 L251 260 L459 446 Z M185 -51 C174.333 -51 162 -53.6667 148 -59 L155 -154 L116 -231 L168 -231 L219 -163 C235 -142.333 243 -123.333 243 -106 C243 -88 238 -74.3333 228 -65 C218 -55.6667 203.667 -51 185 -51 L185 -51 Z " />
<glyph glyph-name="Lacute" unicode="&#x139;" horiz-adv-x="444" d="M247 727 L330 859 L257 859 L181 727 L247 727 Z M232 660 L160 660 L56 0 L399 0 L409 68 L138 68 L232 660 Z " />
<glyph glyph-name="lacute" unicode="&#x13a;" horiz-adv-x="232" d="M232 735 L315 867 L242 867 L166 735 L232 735 Z M222 660 L152 660 L47 0 L117 0 L222 660 Z " />
<glyph glyph-name="Lcommaaccent" unicode="&#x13b;" horiz-adv-x="444" d="M232 660 L160 660 L56 0 L399 0 L409 68 L138 68 L232 660 Z M217 -51 C206.333 -51 194 -53.6667 180 -59 L187 -154 L148 -231 L200 -231 L251 -163 C267 -142.333 275 -123.333 275 -106 C275 -88 270 -74.3333 260 -65 C250 -55.6667 235.667 -51 217 -51 L217 -51 Z " />
<glyph glyph-name="lcommaaccent" unicode="&#x13c;" horiz-adv-x="231" d="M234 735 L164 735 L48 0 L118 0 L234 735 Z M73 -51 C62.3333 -51 50 -53.6667 36 -59 L43 -154 L4 -231 L56 -231 L107 -163 C123 -142.333 131 -123.333 131 -106 C131 -88 126 -74.3333 116 -65 C106 -55.6667 91.6667 -51 73 -51 L73 -51 Z " />
<glyph glyph-name="Lcaron" unicode="&#x13d;" horiz-adv-x="444" d="M232 660 L160 660 L56 0 L399 0 L409 68 L138 68 L232 660 Z M404 660 L320 660 L290 473 L347 473 L404 660 Z " />
<glyph glyph-name="lcaron" unicode="&#x13e;" horiz-adv-x="231" d="M234 735 L164 735 L48 0 L118 0 L234 735 Z M401 734 L316 734 L287 557 L345 557 L401 734 Z " />
<glyph glyph-name="Ldot" unicode="&#x13f;" horiz-adv-x="444" d="M232 660 L160 660 L56 0 L399 0 L409 68 L138 68 L232 660 Z M367 290 C383.667 290 398.667 296.333 412 309 C425.333 321.667 432 336.667 432 354 C432 366.667 427.5 377.5 418.5 386.5 C409.5 395.5 398.333 400 385 400 C368.333 400 353.5 393.667 340.5 381 C327.5 368.333 321 353.333 321 336 C321 323.333 325.333 312.5 334 303.5 C342.667 294.5 353.667 290 367 290 L367 290 Z " />
<glyph glyph-name="ldot" unicode="&#x140;" horiz-adv-x="300" d="M234 735 L164 735 L48 0 L118 0 L234 735 Z M278 302 C294.667 302 309.667 308.333 323 321 C336.333 333.667 343 348.667 343 366 C343 378.667 338.5 389.5 329.5 398.5 C320.5 407.5 309.333 412 296 412 C279.333 412 264.5 405.667 251.5 393 C238.5 380.333 232 365.333 232 348 C232 335.333 236.333 324.5 245 315.5 C253.667 306.5 264.667 302 278 302 L278 302 Z " />
<glyph glyph-name="Lslash" unicode="&#x141;" horiz-adv-x="470" d="M163 62 L204 323 L320 372 L332 443 L216 394 L258 660 L189 660 L142 363 L30 316 L20 245 L130 292 L84 0 L425 0 L433 62 L163 62 Z " />
<glyph glyph-name="lslash" unicode="&#x142;" horiz-adv-x="305" d="M334 488 L227 444 L273 735 L203 735 L152 413 L46 369 L36 299 L141 342 L87 0 L157 0 L216 374 L323 418 L334 488 Z " />
<glyph glyph-name="Nacute" unicode="&#x143;" horiz-adv-x="724" d="M552 859 L479 859 L403 727 L469 727 L552 859 Z M628 660 L545 137 C541.667 118.333 539 98.3333 537 77 L518 122 L258 660 L161 660 L56 0 L127 0 L208 514 C212.667 540 215.333 561 216 577 L495 0 L596 0 L699 660 L628 660 Z " />
<glyph glyph-name="nacute" unicode="&#x144;" horiz-adv-x="525" d="M420 660 L347 660 L267 521 L333 521 L420 660 Z M347 457 C283 457 226 432.333 176 383 L186 446 L118 446 L48 0 L116 0 L166 326 C219.333 374.667 271.667 399 323 399 C349 399 368.333 392.833 381 380.5 C393.667 368.167 398 349.334 394 324 L343 0 L412 0 L465 338 C471 372.667 463.667 401.167 443 423.5 C422.333 445.833 390.333 457 347 457 L347 457 Z " />
<glyph glyph-name="Ncommaaccent" unicode="&#x145;" horiz-adv-x="724" d="M628 660 L545 137 C541.667 118.333 539 98.3333 537 77 L518 122 L258 660 L161 660 L56 0 L127 0 L208 514 C212.667 540 215.333 561 216 577 L495 0 L596 0 L699 660 L628 660 Z M334 -51 C323.333 -51 311 -53.6667 297 -59 L304 -154 L265 -231 L317 -231 L368 -163 C384 -142.333 392 -123.333 392 -106 C392 -88 387 -74.3333 377 -65 C367 -55.6667 352.667 -51 334 -51 L334 -51 Z " />
<glyph glyph-name="ncommaaccent" unicode="&#x146;" horiz-adv-x="525" d="M347 457 C283 457 226 432.333 176 383 L186 446 L118 446 L48 0 L116 0 L166 326 C219.333 374.667 271.667 399 323 399 C349 399 368.333 392.833 381 380.5 C393.667 368.167 398 349.334 394 324 L343 0 L412 0 L465 338 C471 372.667 463.667 401.167 443 423.5 C422.333 445.833 390.333 457 347 457 L347 457 Z M220 -51 C209.333 -51 197 -53.6667 183 -59 L190 -154 L151 -231 L203 -231 L254 -163 C270 -142.333 278 -123.333 278 -106 C278 -88 273 -74.3333 263 -65 C253 -55.6667 238.667 -51 220 -51 L220 -51 Z " />
<glyph glyph-name="Ncaron" unicode="&#x147;" horiz-adv-x="724" d="M479 707 L582 839 L503 839 L438 749 L399 838 L327 839 L386 706 L479 707 Z M628 660 L545 137 C541.667 118.333 539 98.3333 537 77 L518 122 L258 660 L161 660 L56 0 L127 0 L208 514 C212.667 540 215.333 561 216 577 L495 0 L596 0 L699 660 L628 660 Z " />
<glyph glyph-name="ncaron" unicode="&#x148;" horiz-adv-x="525" d="M348 521 L455 660 L376 660 L307 564 L266 660 L194 660 L255 521 L348 521 Z M347 457 C283 457 226 432.333 176 383 L186 446 L118 446 L48 0 L116 0 L166 326 C219.333 374.667 271.667 399 323 399 C349 399 368.333 392.833 381 380.5 C393.667 368.167 398 349.334 394 324 L343 0 L412 0 L465 338 C471 372.667 463.667 401.167 443 423.5 C422.333 445.833 390.333 457 347 457 L347 457 Z " />
<glyph glyph-name="Eng" unicode="&#x14a;" horiz-adv-x="724" d="M628 660 L545 137 C541.667 118.333 539 98.3333 537 77 L518 122 L258 660 L161 660 L56 0 L127 0 L208 514 C212.667 540 215.333 561 216 577 L495 0 L525 0 L520 -32 C512.667 -97.3334 476.667 -157.333 412 -212 L460 -263 C502 -225.667 531.833 -191.667 549.5 -161 C567.167 -130.333 580.667 -89.3333 590 -38 L596 0 L699 660 L628 660 Z " />
<glyph glyph-name="eng" unicode="&#x14b;" horiz-adv-x="524" d="M347 457 C283 457 226 432.333 176 383 L186 446 L118 446 L48 0 L116 0 L166 326 C219.333 374.667 271.667 399 323 399 C349 399 368.333 392.833 381 380.5 C393.667 368.167 398 349.334 394 324 L337 -32 C326.333 -100 290.333 -160 229 -212 L276 -262 C327.333 -216 360 -177 374 -145 C388 -113 398 -77.6667 404 -39 L465 338 C471 372.667 463.667 401.167 443 423.5 C422.333 445.833 390.333 457 347 457 L347 457 Z " />
<glyph glyph-name="Omacron" unicode="&#x14c;" horiz-adv-x="721" d="M585 802 L316 803 L306 740 L576 740 L585 802 Z M424 675 C413.333 675 393.333 673.5 364 670.5 C334.667 667.5 303 658.5 269 643.5 C235 628.5 205 608.833 179 584.5 C153 560.167 131 531.833 113 499.5 C95 467.167 81.5 431.667 72.5 393 C63.5 354.333 59 314.667 59 274 C59 176 83.1667 103 131.5 55 C179.833 7 248 -17 336 -17 C389.333 -17 438.333 -7.83333 483 10.5 C527.667 28.8333 565.667 55.3333 597 90 C628.333 124.667 652.333 166.333 669 215 C685.667 263.667 694 317.333 694 376 C694 476.666 671.667 551.666 627 601 C582.334 650.333 514.667 675 424 675 L424 675 Z M422 611 C554.667 611 621 533.333 621 378 C621 330.667 614.833 286.5 602.5 245.5 C590.167 204.5 571.833 169.333 547.5 140 C523.167 110.667 493.167 87.8333 457.5 71.5 C421.833 55.1667 381.667 47 337 47 C200.333 47 132 123.667 132 277 C132 323.667 138.5 367.5 151.5 408.5 C164.5 449.5 183.5 485.167 208.5 515.5 C233.5 545.833 264.167 569.333 300.5 586 C336.833 602.667 377.333 611 422 611 L422 611 Z " />
<glyph glyph-name="omacron" unicode="&#x14d;" horiz-adv-x="529" d="M456 621 L187 622 L177 559 L447 559 L456 621 Z M301 457 C261 457 225.167 449 193.5 433 C161.833 417 135.833 395.667 115.5 369 C95.1667 342.333 79.8334 312.333 69.5 279 C59.1667 245.667 54 211.667 54 177 C54 116.333 69 69.8333 99 37.5 C129 5.16667 172.667 -11 230 -11 C267.333 -11 301.5 -4 332.5 10 C363.5 24 389.833 43.3333 411.5 68 C433.167 92.6667 449.667 122 461 156 C472.333 190 478 226 478 264 C478 326.667 462.833 374.5 432.5 407.5 C402.167 440.5 358.333 457 301 457 L301 457 Z M237 49 C161.667 49 124 93 124 181 C124 217 129.333 249 140 277 C150.667 305 164.333 328.167 181 346.5 C197.667 364.833 216.333 377.833 237 385.5 C257.667 393.167 278 397 298 397 C371.333 397 408 351.333 408 260 C408 222.667 402.667 190.167 392 162.5 C381.333 134.833 367.833 112.5 351.5 95.5 C335.167 78.5 317 66.5 297 59.5 C277 52.5 257 49 237 49 L237 49 Z " />
<glyph glyph-name="Ohungarumlaut" unicode="&#x150;" horiz-adv-x="721" d="M397 707 L480 839 L407 839 L331 707 L397 707 Z M528 707 L611 839 L538 839 L462 707 L528 707 Z M424 675 C413.333 675 393.333 673.5 364 670.5 C334.667 667.5 303 658.5 269 643.5 C235 628.5 205 608.833 179 584.5 C153 560.167 131 531.833 113 499.5 C95 467.167 81.5 431.667 72.5 393 C63.5 354.333 59 314.667 59 274 C59 176 83.1667 103 131.5 55 C179.833 7 248 -17 336 -17 C389.333 -17 438.333 -7.83333 483 10.5 C527.667 28.8333 565.667 55.3333 597 90 C628.333 124.667 652.333 166.333 669 215 C685.667 263.667 694 317.333 694 376 C694 476.666 671.667 551.666 627 601 C582.334 650.333 514.667 675 424 675 L424 675 Z M422 611 C554.667 611 621 533.333 621 378 C621 330.667 614.833 286.5 602.5 245.5 C590.167 204.5 571.833 169.333 547.5 140 C523.167 110.667 493.167 87.8333 457.5 71.5 C421.833 55.1667 381.667 47 337 47 C200.333 47 132 123.667 132 277 C132 323.667 138.5 367.5 151.5 408.5 C164.5 449.5 183.5 485.167 208.5 515.5 C233.5 545.833 264.167 569.333 300.5 586 C336.833 602.667 377.333 611 422 611 L422 611 Z " />
<glyph glyph-name="ohungarumlaut" unicode="&#x151;" horiz-adv-x="529" d="M355 660 L288 660 L208 521 L268 521 L355 660 Z M493 660 L426 660 L346 521 L406 521 L493 660 Z M301 457 C261 457 225.167 449 193.5 433 C161.833 417 135.833 395.667 115.5 369 C95.1667 342.333 79.8334 312.333 69.5 279 C59.1667 245.667 54 211.667 54 177 C54 116.333 69 69.8333 99 37.5 C129 5.16667 172.667 -11 230 -11 C267.333 -11 301.5 -4 332.5 10 C363.5 24 389.833 43.3333 411.5 68 C433.167 92.6667 449.667 122 461 156 C472.333 190 478 226 478 264 C478 326.667 462.833 374.5 432.5 407.5 C402.167 440.5 358.333 457 301 457 L301 457 Z M237 49 C161.667 49 124 93 124 181 C124 217 129.333 249 140 277 C150.667 305 164.333 328.167 181 346.5 C197.667 364.833 216.333 377.833 237 385.5 C257.667 393.167 278 397 298 397 C371.333 397 408 351.333 408 260 C408 222.667 402.667 190.167 392 162.5 C381.333 134.833 367.833 112.5 351.5 95.5 C335.167 78.5 317 66.5 297 59.5 C277 52.5 257 49 237 49 L237 49 Z " />
<glyph glyph-name="OE" unicode="&#x152;" horiz-adv-x="887" d="M874 594 L884 660 L573 660 C555 664 533.333 667.167 508 669.5 C482.667 671.833 460.667 673 442 673 C382 673 328 663.667 280 645 C232 626.333 191.667 599.5 159 564.5 C126.333 529.5 101.5 487.167 84.5 437.5 C67.5 387.833 59 333 59 273 C59 215.667 66.1667 168.833 80.5 132.5 C94.8333 96.1667 114.667 67.1667 140 45.5 C165.333 23.8333 195.333 8.83333 230 0.5 C264.666 -7.83333 300.333 -12 337 -12 C357.666 -12 380.333 -10.8333 405 -8.5 C429.667 -6.16667 449.667 -3.33333 465 0 L802 0 L811 67 L544 67 L581 299 L818 299 L828 366 L592 366 L628 594 L874 594 Z M472 63 C454.668 59 433.334 55.5 408 52.5 C382.667 49.5 360.667 48 342 48 C202 48 132 124 132 276 C132 314.667 136.667 353.167 146 391.5 C155.333 429.833 171.167 465.5 193.5 498.5 C215.833 531.5 247 558.333 287 579 C327 599.667 375.333 610 432 610 C450.667 610 472.167 608.833 496.5 606.5 C520.831 604.167 540.665 601 556 597 L472 63 Z " />
<glyph glyph-name="oe" unicode="&#x153;" horiz-adv-x="809" d="M755 229 C760.333 252.333 763 282 763 318 C763 360 751.167 393.667 727.5 419 C703.833 444.333 668 457 620 457 C548 457 490 424.333 446 359 C436 389.667 417.167 413.667 389.5 431 C361.833 448.333 328.667 457 290 457 C254 457 221.167 449.333 191.5 434 C161.833 418.667 138 399.334 120 376 C102 352.667 88.1667 328.834 78.5 304.5 C68.8333 280.167 62.3333 256.334 59 233 C55.6667 209.667 54 189.333 54 172 C54 110.667 68.6667 65 98 35 C127.333 5 172.333 -10 233 -10 C271 -10 304.167 -2.66667 332.5 12 C360.833 26.6667 386 52.3333 408 89 C420 54.3333 438.333 29 463 13 C487.666 -3 520.666 -11 562 -11 C584.667 -11 611.167 -8.5 641.5 -3.5 C671.833 1.5 697 7.66667 717 15 L703 70 C652.335 56 606.668 49 566 49 C522 49 492.833 59.6667 478.5 81 C464.167 102.333 457 133.667 457 175 C457 195.667 458.333 213.667 461 229 L755 229 Z M617 398 C645 398 664.833 391 676.5 377 C688.167 363 694 342.667 694 316 C694 306 692.667 295.667 690 285 L474 285 C486 319.667 504.5 347.167 529.5 367.5 C554.5 387.833 583.667 398 617 398 L617 398 Z M233 49 C195 49 167.167 60 149.5 82 C131.834 104 123 138.333 123 185 C123 217 126.833 246.167 134.5 272.5 C142.167 298.833 153.5 321.167 168.5 339.5 C183.5 357.833 201.667 372 223 382 C244.333 392 268 397 294 397 C331.333 397 358.333 386.333 375 365 C391.667 343.667 400 309.667 400 263 C400 196.333 385.167 144 355.5 106 C325.833 68 285 49 233 49 L233 49 Z " />
<glyph glyph-name="Racute" unicode="&#x154;" horiz-adv-x="562" d="M429 859 L356 859 L280 727 L346 727 L429 859 Z M517 0 L366 278 C396.667 289.333 423.667 306 447 328 C470.333 350 486.5 375.333 495.5 404 C504.5 432.667 509 460.667 509 488 C509 603.333 446.667 661 322 661 C260 661 207.333 660 164 658 L61 0 L133 0 L174 261 C196 259 219 258 243 258 C261.666 258 279.333 259 296 261 L432 0 L517 0 Z M184 324 L226 594 L297 596 C346.333 596 381.833 586.833 403.5 568.5 C425.167 550.167 436 520.667 436 480 C436 429.333 420.333 390.333 389 363 C357.667 335.667 312.334 322 253 322 L184 324 Z " />
<glyph glyph-name="racute" unicode="&#x155;" horiz-adv-x="311" d="M253 521 L340 660 L267 660 L187 521 L253 521 Z M322 384 L332 448 C316 450 301.333 451 288 451 C236.667 451 200.333 433.667 179 399 L187 446 L118 446 L48 0 L116 0 L172 346 C190.667 372 227.333 385.333 282 386 L322 384 Z " />
<glyph glyph-name="Rcommaaccent" unicode="&#x156;" horiz-adv-x="562" d="M517 0 L366 278 C396.667 289.333 423.667 306 447 328 C470.333 350 486.5 375.333 495.5 404 C504.5 432.667 509 460.667 509 488 C509 603.333 446.667 661 322 661 C260 661 207.333 660 164 658 L61 0 L133 0 L174 261 C196 259 219 258 243 258 C261.666 258 279.333 259 296 261 L432 0 L517 0 Z M184 324 L226 594 L297 596 C346.333 596 381.833 586.833 403.5 568.5 C425.167 550.167 436 520.667 436 480 C436 429.333 420.333 390.333 389 363 C357.667 335.667 312.334 322 253 322 L184 324 Z M229 -51 C218.333 -51 206 -53.6667 192 -59 L199 -154 L160 -231 L212 -231 L263 -163 C279 -142.333 287 -123.333 287 -106 C287 -88 282 -74.3333 272 -65 C262 -55.6667 247.667 -51 229 -51 L229 -51 Z " />
<glyph glyph-name="rcommaaccent" unicode="&#x157;" horiz-adv-x="311" d="M322 384 L332 448 C316 450 301.333 451 288 451 C236.667 451 200.333 433.667 179 399 L187 446 L118 446 L48 0 L116 0 L172 346 C190.667 372 227.333 385.333 282 386 L322 384 Z M73 -51 C62.3333 -51 50 -53.6667 36 -59 L43 -154 L4 -231 L56 -231 L107 -163 C123 -142.333 131 -123.333 131 -106 C131 -88 126 -74.3333 116 -65 C106 -55.6667 91.6667 -51 73 -51 L73 -51 Z " />
<glyph glyph-name="Rcaron" unicode="&#x158;" horiz-adv-x="562" d="M356 707 L459 839 L380 839 L315 749 L276 838 L204 839 L263 706 L356 707 Z M517 0 L366 278 C396.667 289.333 423.667 306 447 328 C470.333 350 486.5 375.333 495.5 404 C504.5 432.667 509 460.667 509 488 C509 603.333 446.667 661 322 661 C260 661 207.333 660 164 658 L61 0 L133 0 L174 261 C196 259 219 258 243 258 C261.666 258 279.333 259 296 261 L432 0 L517 0 Z M184 324 L226 594 L297 596 C346.333 596 381.833 586.833 403.5 568.5 C425.167 550.167 436 520.667 436 480 C436 429.333 420.333 390.333 389 363 C357.667 335.667 312.334 322 253 322 L184 324 Z " />
<glyph glyph-name="rcaron" unicode="&#x159;" horiz-adv-x="311" d="M268 521 L375 660 L296 660 L227 564 L186 660 L114 660 L175 521 L268 521 Z M179 399 L187 446 L118 446 L48 0 L116 0 L172 346 C190.667 372 227.333 385.333 282 386 L322 384 L332 448 C316 450 301.333 451 288 451 C236.667 451 200.333 433.667 179 399 L179 399 Z " />
<glyph glyph-name="Sacute" unicode="&#x15a;" horiz-adv-x="480" d="M330 727 L413 859 L340 859 L264 727 L330 727 Z M288 672 C232 672 186.833 656.167 152.5 624.5 C118.167 592.833 101 551.333 101 500 C101 480 104.333 460.833 111 442.5 C117.667 424.167 128.333 406 143 388 C157.667 370 186 342 228 304 C284 253.333 317 220.5 327 205.5 C337 190.5 342 177 342 165 C342 148.333 337.833 131.333 329.5 114 C321.167 96.6667 307.834 82.5 289.5 71.5 C271.167 60.5 246.667 55 216 55 C172 55 120.333 63.6667 61 81 L45 15 C106.333 -3 163.667 -12 217 -12 C263.667 -12 301.667 -3 331 15 C360.333 33 381.667 55.6667 395 83 C408.333 110.333 415 138.667 415 168 C415 176.667 414.167 186 412.5 196 C410.833 206 407 216.833 401 228.5 C395 240.167 386.167 252.333 374.5 265 C362.833 277.667 344.5 295.667 319.5 319 C294.5 342.333 281.667 354.333 281 355 C225.667 406.333 193.833 439.667 185.5 455 C177.167 470.333 173 485.333 173 500 C173 524.667 178.667 545.5 190 562.5 C201.333 579.5 216.166 591.167 234.5 597.5 C252.833 603.833 270.333 607 287 607 C325.667 607 372.667 599.333 428 584 L443 647 C382.333 663.667 330.667 672 288 672 L288 672 Z " />
<glyph glyph-name="sacute" unicode="&#x15b;" horiz-adv-x="354" d="M255 521 L342 660 L269 660 L189 521 L255 521 Z M207 456 C181 456 157.667 451 137 441 C116.333 431 99 415.833 85 395.5 C71 375.167 64 351.667 64 325 C64 307 66.8333 292 72.5 280 C78.1665 268 83.8332 258.5 89.5 251.5 C95.1667 244.5 102.5 237.167 111.5 229.5 C120.5 221.834 137.833 210.167 163.5 194.5 C189.167 178.834 206.667 165.667 216 155 C225.333 144.333 230 132 230 118 C230 105.333 225.833 93.1667 217.5 81.5 C209.167 69.8333 198.5 61.5 185.5 56.5 C172.5 51.5 160 49 148 49 C136 49 119.833 50.8333 99.5 54.5 C79.1667 58.1667 60.6667 62.6667 44 68 L28 11 C46 5 66.8333 -0.166672 90.5 -4.5 C114.167 -8.83334 134 -11 150 -11 C167.333 -11 187.667 -7.5 211 -0.5 C234.333 6.5 254.5 20.3333 271.5 41 C288.5 61.6667 297 87.6667 297 119 C297 138.333 294.167 154.167 288.5 166.5 C282.833 178.833 277.167 188.5 271.5 195.5 C265.833 202.5 258.5 209.833 249.5 217.5 C240.5 225.167 221.5 237.667 192.5 255 C163.5 272.333 146.167 286.333 140.5 297 C134.834 307.667 131.668 315.667 131 321 C130.333 326.333 130 330 130 332 C130 350 137 365.333 151 378 C165 390.667 184.667 397 210 397 C234 397 266 391.333 306 380 L321 437 C277 449.667 239 456 207 456 L207 456 Z " />
<glyph glyph-name="Scedilla" unicode="&#x15e;" horiz-adv-x="480" d="M287 607 C325.667 607 372.667 599.333 428 584 L443 647 C382.333 663.667 330.667 672 288 672 C232 672 186.833 656.167 152.5 624.5 C118.167 592.833 101 551.333 101 500 C101 480 104.333 460.833 111 442.5 C117.667 424.167 128.333 406 143 388 C157.667 370 186 342 228 304 C284 253.333 317 220.5 327 205.5 C337 190.5 342 177 342 165 C342 148.333 337.833 131.333 329.5 114 C321.167 96.6667 307.834 82.5 289.5 71.5 C271.167 60.5 246.667 55 216 55 C172 55 120.333 63.6667 61 81 L45 15 C86.3333 3 126.667 -5 166 -9 L161 -28 C158.333 -41.3333 159 -52.1667 163 -60.5 C167 -68.8333 175.333 -78.3333 188 -89 C200.667 -99.6667 207.833 -107.833 209.5 -113.5 C211.167 -119.167 211.667 -124 211 -128 C206.333 -154 188 -167 156 -167 C141.333 -167 128.667 -166 118 -164 L109 -218 C124.333 -220.667 138.667 -222 152 -222 C186.667 -222 214.167 -214.333 234.5 -199 C254.833 -183.667 267.333 -162 272 -134 C276.667 -104 267.334 -78.6667 244 -58 C231.334 -46.6667 224.667 -38.1667 224 -32.5 C223.333 -26.8333 223.333 -21.3333 224 -16 L225 -12 C252.333 -11.3333 278.333 -6.66667 303 2 C327.666 10.6667 349.333 24.8333 368 44.5 C386.667 64.1667 399.167 85.6667 405.5 109 C411.833 132.333 415 152 415 168 C415 176.667 414.167 186 412.5 196 C410.833 206 407 216.833 401 228.5 C395 240.167 386.167 252.333 374.5 265 C362.833 277.667 344.5 295.667 319.5 319 C294.5 342.333 281.667 354.333 281 355 C225.667 406.333 193.833 439.667 185.5 455 C177.167 470.333 173 485.333 173 500 C173 524.667 178.667 545.5 190 562.5 C201.333 579.5 216.166 591.167 234.5 597.5 C252.833 603.833 270.333 607 287 607 L287 607 Z " />
<glyph glyph-name="scedilla" unicode="&#x15f;" horiz-adv-x="354" d="M210 397 C234 397 266 391.333 306 380 L321 437 C277 449.667 239 456 207 456 C181 456 157.667 451 137 441 C116.333 431 99 415.833 85 395.5 C71 375.167 64 351.667 64 325 C64 307 66.8333 292 72.5 280 C78.1665 268 83.8332 258.5 89.5 251.5 C95.1667 244.5 102.5 237.167 111.5 229.5 C120.5 221.834 137.833 210.167 163.5 194.5 C189.167 178.834 206.667 165.667 216 155 C225.333 144.333 230 132 230 118 C230 105.333 225.833 93.1667 217.5 81.5 C209.167 69.8333 198.5 61.5 185.5 56.5 C172.5 51.5 160 49 148 49 C136 49 119.833 50.8333 99.5 54.5 C79.1667 58.1667 60.6667 62.6667 44 68 L28 11 C54 2.33333 80 -4 106 -8 L101 -28 C98.3333 -41.3333 99 -52.1667 103 -60.5 C107 -68.8333 115.333 -78.3333 128 -89 C140.667 -99.6667 147.833 -107.833 149.5 -113.5 C151.167 -119.167 151.667 -124 151 -128 C146.333 -154 128 -167 96 -167 C81.3333 -167 68.6667 -166 58 -164 L49 -218 C64.3333 -220.667 78.6667 -222 92 -222 C126.667 -222 154.167 -214.333 174.5 -199 C194.833 -183.667 207.333 -162 212 -134 C216.667 -104 207.333 -78.6667 184 -58 C171.333 -46.6667 164.667 -38.1667 164 -32.5 C163.333 -26.8333 163.333 -21.3333 164 -16 L165 -10 C191 -8 215.167 -0.5 237.5 12.5 C259.833 25.5 275.333 41.5 284 60.5 C292.667 79.5 297 99 297 119 C297 138.333 294.167 154.167 288.5 166.5 C282.833 178.833 277.167 188.5 271.5 195.5 C265.833 202.5 258.5 209.833 249.5 217.5 C240.5 225.167 221.5 237.667 192.5 255 C163.5 272.333 146.167 286.333 140.5 297 C134.834 307.667 131.668 315.667 131 321 C130.333 326.333 130 330 130 332 C130 350 137 365.333 151 378 C165 390.667 184.667 397 210 397 L210 397 Z " />
<glyph glyph-name="Scaron" unicode="&#x160;" horiz-adv-x="480" d="M340 707 L443 839 L364 839 L299 749 L260 838 L188 839 L247 706 L340 707 Z M101 500 C101 480 104.333 460.833 111 442.5 C117.667 424.167 128.333 406 143 388 C157.667 370 186 342 228 304 C284 253.333 317 220.5 327 205.5 C337 190.5 342 177 342 165 C342 148.333 337.833 131.333 329.5 114 C321.167 96.6667 307.834 82.5 289.5 71.5 C271.167 60.5 246.667 55 216 55 C172 55 120.333 63.6667 61 81 L45 15 C106.333 -3 163.667 -12 217 -12 C263.667 -12 301.667 -3 331 15 C360.333 33 381.667 55.6667 395 83 C408.333 110.333 415 138.667 415 168 C415 176.667 414.167 186 412.5 196 C410.833 206 407 216.833 401 228.5 C395 240.167 386.167 252.333 374.5 265 C362.833 277.667 344.5 295.667 319.5 319 C294.5 342.333 281.667 354.333 281 355 C225.667 406.333 193.833 439.667 185.5 455 C177.167 470.333 173 485.333 173 500 C173 524.667 178.667 545.5 190 562.5 C201.333 579.5 216.166 591.167 234.5 597.5 C252.833 603.833 270.333 607 287 607 C325.667 607 372.667 599.333 428 584 L443 647 C382.333 663.667 330.667 672 288 672 C232 672 186.833 656.167 152.5 624.5 C118.167 592.833 101 551.333 101 500 L101 500 Z " />
<glyph glyph-name="scaron" unicode="&#x161;" horiz-adv-x="354" d="M270 521 L377 660 L298 660 L229 564 L188 660 L116 660 L177 521 L270 521 Z M64 325 C64 307 66.8333 292 72.5 280 C78.1665 268 83.8332 258.5 89.5 251.5 C95.1667 244.5 102.5 237.167 111.5 229.5 C120.5 221.834 137.833 210.167 163.5 194.5 C189.167 178.834 206.667 165.667 216 155 C225.333 144.333 230 132 230 118 C230 105.333 225.833 93.1667 217.5 81.5 C209.167 69.8333 198.5 61.5 185.5 56.5 C172.5 51.5 160 49 148 49 C136 49 119.833 50.8333 99.5 54.5 C79.1667 58.1667 60.6667 62.6667 44 68 L28 11 C46 5 66.8333 -0.166672 90.5 -4.5 C114.167 -8.83334 134 -11 150 -11 C167.333 -11 187.667 -7.5 211 -0.5 C234.333 6.5 254.5 20.3333 271.5 41 C288.5 61.6667 297 87.6667 297 119 C297 138.333 294.167 154.167 288.5 166.5 C282.833 178.833 277.167 188.5 271.5 195.5 C265.833 202.5 258.5 209.833 249.5 217.5 C240.5 225.167 221.5 237.667 192.5 255 C163.5 272.333 146.167 286.333 140.5 297 C134.834 307.667 131.668 315.667 131 321 C130.333 326.333 130 330 130 332 C130 350 137 365.333 151 378 C165 390.667 184.667 397 210 397 C234 397 266 391.333 306 380 L321 437 C277 449.667 239 456 207 456 C181 456 157.667 451 137 441 C116.333 431 99 415.833 85 395.5 C71 375.167 64 351.667 64 325 L64 325 Z " />
<glyph glyph-name="Tcommaaccent" unicode="&#x162;" horiz-adv-x="543" d="M264 0 L274 0 L369 594 L592 594 L602 660 L81 660 L70 594 L296 594 L202 0 L205 0 C202.335 -5.33333 199.668 -14.6667 197 -28 C194.333 -41.3333 195 -52.1667 199 -60.5 C203 -68.8333 211.333 -78.3333 224 -89 C236.667 -99.6667 243.833 -107.833 245.5 -113.5 C247.167 -119.167 247.667 -124 247 -128 C242.333 -154 224 -167 192 -167 C177.334 -167 164.667 -166 154 -164 L145 -218 C160.333 -220.667 174.667 -222 188 -222 C222.667 -222 250.167 -214.333 270.5 -199 C290.833 -183.667 303.333 -162 308 -134 C312.668 -104 303.335 -78.6667 280 -58 C267.333 -46.6667 260.667 -38.1667 260 -32.5 C259.333 -26.8333 259.333 -21.3333 260 -16 L264 0 Z " />
<glyph glyph-name="tcommaaccent" unicode="&#x163;" horiz-adv-x="336" d="M188 384 L318 384 L327 446 L198 446 L220 584 L151 584 L129 446 L58 446 L48 384 L119 384 L76 110 C68 53.3333 83 17.3333 121 2 C117.667 -6 114.667 -16 112 -28 C109.333 -41.3333 110 -52.1667 114 -60.5 C118 -68.8333 126.333 -78.3333 139 -89 C151.667 -99.6667 158.833 -107.833 160.5 -113.5 C162.167 -119.167 162.667 -124 162 -128 C157.333 -154 139 -167 107 -167 C92.3333 -167 79.6667 -166 69 -164 L60 -218 C75.3333 -220.667 89.6667 -222 103 -222 C137.667 -222 165.167 -214.333 185.5 -199 C205.833 -183.667 218.333 -162 223 -134 C227.667 -104 218.333 -78.6667 195 -58 C182.334 -46.6667 175.667 -38.1667 175 -32.5 C174.333 -26.8333 174.333 -21.3333 175 -16 L177 -8 L185 -8 C198.333 -8 214.333 -6.66667 233 -4 C251.667 -1.33333 267.667 1.66667 281 5 L270 63 C260 60.3333 248 58 234 56 C220 54 210 53 204 53 C180 53 163.333 57.1667 154 65.5 C144.667 73.8333 141.333 87.3333 144 106 L188 384 Z " />
<glyph glyph-name="Tcaron" unicode="&#x164;" horiz-adv-x="543" d="M396 707 L499 839 L420 839 L355 749 L316 838 L244 839 L303 706 L396 707 Z M602 660 L81 660 L70 594 L296 594 L202 0 L274 0 L369 594 L592 594 L602 660 Z " />
<glyph glyph-name="tcaron" unicode="&#x165;" horiz-adv-x="336" d="M311 734 L282 557 L340 557 L396 734 L311 734 Z M220 584 L151 584 L129 446 L58 446 L48 384 L119 384 L76 110 C70 69.3333 75.8333 39.5 93.5 20.5 C111.167 1.5 141.667 -8 185 -8 C198.333 -8 214.333 -6.66667 233 -4 C251.667 -1.33333 267.667 1.66667 281 5 L270 63 C260 60.3333 248 58 234 56 C220 54 210 53 204 53 C180 53 163.333 57.1667 154 65.5 C144.667 73.8333 141.333 87.3333 144 106 L188 384 L318 384 L327 446 L198 446 L220 584 Z " />
<glyph glyph-name="Tbar" unicode="&#x166;" horiz-adv-x="543" d="M592 594 L602 660 L81 660 L70 594 L296 594 L259 361 L160 361 L150 298 L249 298 L202 0 L274 0 L322 298 L420 298 L429 360 L332 361 L369 594 L592 594 Z " />
<glyph glyph-name="tbar" unicode="&#x167;" horiz-adv-x="336" d="M318 384 L327 446 L198 446 L220 584 L151 584 L129 446 L58 446 L48 384 L119 384 L109 318 L43 318 L33 255 L99 255 L76 110 C70 69.3333 75.8333 39.5 93.5 20.5 C111.167 1.5 141.667 -8 185 -8 C198.333 -8 214.333 -6.66667 233 -4 C251.667 -1.33333 267.667 1.66667 281 5 L270 63 C260 60.3333 248 58 234 56 C220 54 210 53 204 53 C180 53 163.333 57.1667 154 65.5 C144.667 73.8333 141.333 87.3333 144 106 L168 255 L293 255 L302 318 L178 318 L188 384 L318 384 Z " />
<glyph glyph-name="Umacron" unicode="&#x16a;" horiz-adv-x="703" d="M582 802 L313 803 L303 740 L573 740 L582 802 Z M676 660 L604 660 L529 189 C520.334 138.333 500.834 103.333 470.5 84 C440.167 64.6667 394.334 55 333 55 C261.667 55 213.5 65.8333 188.5 87.5 C163.5 109.167 155 143.667 163 191 L236 660 L164 660 L89 187 C79 117.667 92.6666 67.5 130 36.5 C167.333 5.5 230.667 -10.6667 320 -12 C378.666 -12.6667 426.833 -7.33333 464.5 4 C502.167 15.3333 532.333 34.8333 555 62.5 C577.667 90.1666 593 130.667 601 184 L676 660 Z " />
<glyph glyph-name="umacron" unicode="&#x16b;" horiz-adv-x="518" d="M444 621 L175 622 L165 559 L435 559 L444 621 Z M402 446 L350 114 C300 69.3333 248.667 47 196 47 C142.667 47 120.667 75 130 131 L182 446 L113 446 L59 107 C53 71 60 42.3333 80 21 C100 -0.333328 130.667 -11 172 -11 C200.667 -11 229.833 -5.33333 259.5 6 C289.166 17.3333 316.333 34.6667 341 58 L332 0 L400 0 L470 446 L402 446 Z " />
<glyph glyph-name="Uring" unicode="&#x16e;" horiz-adv-x="703" d="M447 867 C419 867 395.333 856.667 376 836 C356.667 815.334 347 790.667 347 762 C347 736 355 714.833 371 698.5 C387 682.167 406.667 674 430 674 C443.333 674 457.833 677.667 473.5 685 C489.167 692.333 502.5 705 513.5 723 C524.5 741 530 760.333 530 781 C530 806.333 522 827 506 843 C490 859 470.333 867 447 867 L447 867 Z M435 724 C423.667 724 414.5 728 407.5 736 C400.5 744 397 754.333 397 767 C397 781.667 401.333 793.833 410 803.5 C418.666 813.167 429.333 818 442 818 C454 818 463.5 813.833 470.5 805.5 C477.5 797.167 481 786.667 481 774 C481 760 476.5 748.167 467.5 738.5 C458.5 728.833 447.667 724 435 724 L435 724 Z M676 660 L604 660 L529 189 C520.334 138.333 500.834 103.333 470.5 84 C440.167 64.6667 394.334 55 333 55 C261.667 55 213.5 65.8333 188.5 87.5 C163.5 109.167 155 143.667 163 191 L236 660 L164 660 L89 187 C79 117.667 92.6666 67.5 130 36.5 C167.333 5.5 230.667 -10.6667 320 -12 C378.666 -12.6667 426.833 -7.33333 464.5 4 C502.167 15.3333 532.333 34.8333 555 62.5 C577.667 90.1666 593 130.667 601 184 L676 660 Z " />
<glyph glyph-name="uring" unicode="&#x16f;" horiz-adv-x="518" d="M296 503 C312.666 503 328.833 508.5 344.5 519.5 C360.167 530.5 371.5 543.167 378.5 557.5 C385.5 571.831 389.667 584.664 391 596 C393 614 390.167 630.333 382.5 645 C374.833 659.667 364.833 669.833 352.5 675.5 C340.167 681.167 328.334 684 317 684 C293 684 271.5 674.5 252.5 655.5 C233.5 636.5 223 614.667 221 590 C219.667 572.667 222.833 556.667 230.5 542 C238.167 527.337 248.167 517.171 260.5 511.5 C272.833 505.833 284.667 503 296 503 L296 503 Z M271 592 C272.333 603.333 276.833 613 284.5 621 C292.167 629 301.667 633 313 633 C321.667 633 329 629.167 335 621.5 C341 613.838 343.333 604.671 342 594 C340.669 582.667 335.836 573 327.5 565 C319.167 557 309.667 553 299 553 C292.333 553 286.5 555.167 281.5 559.5 C276.5 563.833 273.333 569.333 272 576 C270.675 582.667 270.342 588 271 592 L271 592 Z M402 446 L350 114 C300 69.3333 248.667 47 196 47 C142.667 47 120.667 75 130 131 L182 446 L113 446 L59 107 C53 71 60 42.3333 80 21 C100 -0.333328 130.667 -11 172 -11 C200.667 -11 229.833 -5.33333 259.5 6 C289.166 17.3333 316.333 34.6667 341 58 L332 0 L400 0 L470 446 L402 446 Z " />
<glyph glyph-name="Uhungarumlaut" unicode="&#x170;" horiz-adv-x="703" d="M394 707 L477 839 L404 839 L328 707 L394 707 Z M525 707 L608 839 L535 839 L459 707 L525 707 Z M676 660 L604 660 L529 189 C520.334 138.333 500.834 103.333 470.5 84 C440.167 64.6667 394.334 55 333 55 C261.667 55 213.5 65.8333 188.5 87.5 C163.5 109.167 155 143.667 163 191 L236 660 L164 660 L89 187 C79 117.667 92.6666 67.5 130 36.5 C167.333 5.5 230.667 -10.6667 320 -12 C378.666 -12.6667 426.833 -7.33333 464.5 4 C502.167 15.3333 532.333 34.8333 555 62.5 C577.667 90.1666 593 130.667 601 184 L676 660 Z " />
<glyph glyph-name="uhungarumlaut" unicode="&#x171;" horiz-adv-x="518" d="M343 660 L276 660 L196 521 L256 521 L343 660 Z M394 521 L481 660 L414 660 L334 521 L394 521 Z M350 114 C300 69.3333 248.667 47 196 47 C142.667 47 120.667 75 130 131 L182 446 L113 446 L59 107 C53 71 60 42.3333 80 21 C100 -0.333328 130.667 -11 172 -11 C200.667 -11 229.833 -5.33333 259.5 6 C289.166 17.3333 316.333 34.6667 341 58 L332 0 L400 0 L470 446 L402 446 L350 114 Z " />
<glyph glyph-name="Uogonek" unicode="&#x172;" horiz-adv-x="703" d="M604 660 L529 189 C520.334 138.333 500.834 103.333 470.5 84 C440.167 64.6667 394.334 55 333 55 C261.667 55 213.5 65.8333 188.5 87.5 C163.5 109.167 155 143.667 163 191 L236 660 L164 660 L89 187 C79 119.667 91.5 70.5 126.5 39.5 C161.5 8.5 220.333 -8.66667 303 -12 C283 -40 267.167 -66.6667 255.5 -92 C243.833 -117.333 238 -139 238 -157 C238 -182.333 249.5 -200.5 272.5 -211.5 C295.5 -222.5 332 -225 382 -219 L392 -160 C334.667 -169.333 306 -159.667 306 -131 C306 -117.667 311.5 -101.167 322.5 -81.5 C333.5 -61.8333 349 -38.3333 369 -11 C416.333 -8.33333 455.5 -0.5 486.5 12.5 C517.5 25.5 542.5 45.1667 561.5 71.5 C580.5 97.8333 593.667 135.333 601 184 L676 660 L604 660 Z " />
<glyph glyph-name="uogonek" unicode="&#x173;" horiz-adv-x="518" d="M329 -131 C329 -105.667 353 -62 401 0 L400 0 L470 446 L402 446 L350 114 C300 69.3333 248.667 47 196 47 C142.667 47 120.667 75 130 131 L182 446 L113 446 L59 107 C53 71 60 42.3333 80 21 C100 -0.333328 130.667 -11 172 -11 C200.667 -11 229.833 -5.33333 259.5 6 C289.166 17.3333 316.333 34.6667 341 58 L332 0 L334 0 C285.333 -66.6667 261 -119 261 -157 C261 -182.333 272.5 -200.5 295.5 -211.5 C318.5 -222.5 355 -225 405 -219 L415 -160 C357.667 -169.333 329 -159.667 329 -131 L329 -131 Z " />
<glyph glyph-name="Wcircumflex" unicode="&#x174;" horiz-adv-x="862" d="M526 802 L575 707 L647 707 L570 839 L484 839 L362 707 L443 707 L526 802 Z M832 660 L616 68 L556 660 L450 660 L198 81 L169 660 L96 660 L132 0 L236 0 L493 591 L553 0 L661 0 L907 660 L832 660 Z " />
<glyph glyph-name="wcircumflex" unicode="&#x175;" horiz-adv-x="703" d="M411 616 L460 521 L532 521 L451 660 L377 660 L248 521 L328 521 L411 616 Z M647 446 L491 57 L436 446 L342 446 L143 58 L117 446 L51 446 L82 0 L183 0 L377 380 L432 0 L536 0 L718 446 L647 446 Z " />
<glyph glyph-name="Ycircumflex" unicode="&#x176;" horiz-adv-x="556" d="M361 802 L410 707 L482 707 L405 839 L319 839 L197 707 L278 707 L361 802 Z M531 660 L340 403 C318.667 373.667 305.667 354.334 301 345 C298.333 353 290.333 372.667 277 404 L163 660 L81 660 L252 283 L207 0 L280 0 L326 282 L616 660 L531 660 Z " />
<glyph glyph-name="ycircumflex" unicode="&#x177;" horiz-adv-x="444" d="M274 616 L323 521 L395 521 L314 660 L240 660 L111 521 L191 521 L274 616 Z M385 446 L207 125 C195 102.333 184.667 80 176 58 L168 126 L130 446 L56 446 L124 -18 C94.6667 -71.3333 67.3333 -111 42 -137 C16.6667 -163 -15 -183.333 -53 -198 L-29 -256 C23 -232 63.6667 -205.167 93 -175.5 C122.333 -145.833 155.667 -97.3333 193 -30 L461 446 L385 446 Z " />
<glyph glyph-name="Ydieresis" unicode="&#x178;" horiz-adv-x="556" d="M265 725 C279.667 725 292.5 730.167 303.5 740.5 C314.5 750.833 320 763.333 320 778 C320 790 316 800 308 808 C300 816 289.667 820 277 820 C262.333 820 249.667 814.667 239 804 C228.333 793.339 223 780.673 223 766 C223 754 227 744.167 235 736.5 C243 728.833 253 725 265 725 L265 725 Z M440 725 C454.665 725 467.332 730.167 478 740.5 C488.667 750.833 494 763.333 494 778 C494 790 490 800 482 808 C474 816 463.667 820 451 820 C436.333 820 423.667 814.667 413 804 C402.333 793.339 397 780.673 397 766 C397 753.333 401.167 743.333 409.5 736 C417.833 728.667 428 725 440 725 L440 725 Z M531 660 L340 403 C318.667 373.667 305.667 354.334 301 345 C298.333 353 290.333 372.667 277 404 L163 660 L81 660 L252 283 L207 0 L280 0 L326 282 L616 660 L531 660 Z " />
<glyph glyph-name="Zacute" unicode="&#x179;" horiz-adv-x="532" d="M450 859 L377 859 L301 727 L367 727 L450 859 Z M578 660 L103 660 L93 594 L465 594 L-7 47 L-14 0 L476 0 L486 67 L99 67 L572 616 L578 660 Z " />
<glyph glyph-name="zacute" unicode="&#x17a;" horiz-adv-x="455" d="M378 660 L305 660 L225 521 L291 521 L378 660 Z M425 446 L89 446 L83 384 L324 384 L23 50 L19 0 L369 0 L379 62 L120 62 L419 393 L425 446 Z " />
<glyph glyph-name="Zdotaccent" unicode="&#x17b;" horiz-adv-x="532" d="M338 725 C351.333 725 363.333 729.5 374 738.5 C384.667 747.5 391 758.667 393 772 C395 785.33 392 796.664 384 806 C376 815.333 365.333 820 352 820 C339.333 820 327.667 815.333 317 806 C306.333 796.667 300 785.333 298 772 C296 758.667 299 747.5 307 738.5 C315 729.5 325.333 725 338 725 L338 725 Z M578 660 L103 660 L93 594 L465 594 L-7 47 L-14 0 L476 0 L486 67 L99 67 L572 616 L578 660 Z " />
<glyph glyph-name="zdotaccent" unicode="&#x17c;" horiz-adv-x="455" d="M264 544 C277.333 544 289.5 548.667 300.5 558 C311.5 567.329 318 578.662 320 592 C322 605.333 318.833 616.833 310.5 626.5 C302.167 636.167 291.334 641 278 641 C264 641 251.833 636.333 241.5 627 C231.167 617.667 225 606 223 592 C221 578.667 223.833 567.333 231.5 558 C239.167 548.667 250 544 264 544 L264 544 Z M425 446 L89 446 L83 384 L324 384 L23 50 L19 0 L369 0 L379 62 L120 62 L419 393 L425 446 Z " />
<glyph glyph-name="Zcaron" unicode="&#x17d;" horiz-adv-x="532" d="M377 707 L480 839 L401 839 L336 749 L297 838 L225 839 L284 706 L377 707 Z M578 660 L103 660 L93 594 L465 594 L-7 47 L-14 0 L476 0 L486 67 L99 67 L572 616 L578 660 Z " />
<glyph glyph-name="zcaron" unicode="&#x17e;" horiz-adv-x="455" d="M306 521 L413 660 L334 660 L265 564 L224 660 L152 660 L213 521 L306 521 Z M425 446 L89 446 L83 384 L324 384 L23 50 L19 0 L369 0 L379 62 L120 62 L419 393 L425 446 Z " />
<glyph glyph-name="florin" unicode="&#x192;" horiz-adv-x="425" d="M408 610 C429.333 610 454.333 603.667 483 591 L505 645 C485 654.333 465.667 660.833 447 664.5 C428.333 668.167 413.667 670 403 670 C372.333 670 347.5 663 328.5 649 C309.5 635 295 616.833 285 594.5 C275 572.167 265.667 542.667 257 506 L242 446 L149 446 L140 386 L228 386 L149 66 C136.333 20 123.667 -8.5 111 -19.5 C98.3333 -30.5 83 -36 65 -36 C43.6667 -36 18.6667 -29.6667 -10 -17 L-32 -71 C-12 -80.3333 7.33333 -86.8333 26 -90.5 C44.6667 -94.1667 59.3333 -96 70 -96 C100.667 -96 125.5 -89 144.5 -75 C163.5 -61 178 -42.8333 188 -20.5 C198 1.83333 207.333 31.3333 216 68 L294 386 L428 386 L438 446 L309 446 L324 508 C335.333 554 347.5 582.5 360.5 593.5 C373.5 604.5 389.333 610 408 610 L408 610 Z " />
<glyph glyph-name="Scommaaccent" unicode="&#x218;" horiz-adv-x="480" d="M288 672 C232 672 186.833 656.167 152.5 624.5 C118.167 592.833 101 551.333 101 500 C101 480 104.333 460.833 111 442.5 C117.667 424.167 128.333 406 143 388 C157.667 370 186 342 228 304 C284 253.333 317 220.5 327 205.5 C337 190.5 342 177 342 165 C342 148.333 337.833 131.333 329.5 114 C321.167 96.6667 307.834 82.5 289.5 71.5 C271.167 60.5 246.667 55 216 55 C172 55 120.333 63.6667 61 81 L45 15 C106.333 -3 163.667 -12 217 -12 C263.667 -12 301.667 -3 331 15 C360.333 33 381.667 55.6667 395 83 C408.333 110.333 415 138.667 415 168 C415 176.667 414.167 186 412.5 196 C410.833 206 407 216.833 401 228.5 C395 240.167 386.167 252.333 374.5 265 C362.833 277.667 344.5 295.667 319.5 319 C294.5 342.333 281.667 354.333 281 355 C225.667 406.333 193.833 439.667 185.5 455 C177.167 470.333 173 485.333 173 500 C173 524.667 178.667 545.5 190 562.5 C201.333 579.5 216.166 591.167 234.5 597.5 C252.833 603.833 270.333 607 287 607 C325.667 607 372.667 599.333 428 584 L443 647 C382.333 663.667 330.667 672 288 672 L288 672 Z M193 -51 C182.333 -51 170 -53.6667 156 -59 L163 -154 L124 -231 L176 -231 L227 -163 C243 -142.333 251 -123.333 251 -106 C251 -88 246 -74.3333 236 -65 C226 -55.6667 211.667 -51 193 -51 L193 -51 Z " />
<glyph glyph-name="scommaaccent" unicode="&#x219;" horiz-adv-x="354" d="M207 456 C181 456 157.667 451 137 441 C116.333 431 99 415.833 85 395.5 C71 375.167 64 351.667 64 325 C64 307 66.8333 292 72.5 280 C78.1665 268 83.8332 258.5 89.5 251.5 C95.1667 244.5 102.5 237.167 111.5 229.5 C120.5 221.834 137.833 210.167 163.5 194.5 C189.167 178.834 206.667 165.667 216 155 C225.333 144.333 230 132 230 118 C230 105.333 225.833 93.1667 217.5 81.5 C209.167 69.8333 198.5 61.5 185.5 56.5 C172.5 51.5 160 49 148 49 C136 49 119.833 50.8333 99.5 54.5 C79.1667 58.1667 60.6667 62.6667 44 68 L28 11 C46 5 66.8333 -0.166672 90.5 -4.5 C114.167 -8.83334 134 -11 150 -11 C167.333 -11 187.667 -7.5 211 -0.5 C234.333 6.5 254.5 20.3333 271.5 41 C288.5 61.6667 297 87.6667 297 119 C297 138.333 294.167 154.167 288.5 166.5 C282.833 178.833 277.167 188.5 271.5 195.5 C265.833 202.5 258.5 209.833 249.5 217.5 C240.5 225.167 221.5 237.667 192.5 255 C163.5 272.333 146.167 286.333 140.5 297 C134.834 307.667 131.668 315.667 131 321 C130.333 326.333 130 330 130 332 C130 350 137 365.333 151 378 C165 390.667 184.667 397 210 397 C234 397 266 391.333 306 380 L321 437 C277 449.667 239 456 207 456 L207 456 Z M133 -51 C122.333 -51 110 -53.6667 96 -59 L103 -154 L64 -231 L116 -231 L167 -163 C183 -142.333 191 -123.333 191 -106 C191 -88 186 -74.3333 176 -65 C166 -55.6667 151.667 -51 133 -51 L133 -51 Z " />
<glyph glyph-name="uni021A" unicode="&#x21a;" horiz-adv-x="543" d="M602 660 L81 660 L70 594 L296 594 L202 0 L274 0 L369 594 L592 594 L602 660 Z M229 -51 C218.333 -51 206 -53.6667 192 -59 L199 -154 L160 -231 L212 -231 L263 -163 C279 -142.333 287 -123.333 287 -106 C287 -88 282 -74.3333 272 -65 C262 -55.6667 247.667 -51 229 -51 L229 -51 Z " />
<glyph glyph-name="uni021B" unicode="&#x21b;" horiz-adv-x="336" d="M188 384 L318 384 L327 446 L198 446 L220 584 L151 584 L129 446 L58 446 L48 384 L119 384 L76 110 C70 69.3333 75.8333 39.5 93.5 20.5 C111.167 1.5 141.667 -8 185 -8 C198.333 -8 214.333 -6.66667 233 -4 C251.667 -1.33333 267.667 1.66667 281 5 L270 63 C260 60.3333 248 58 234 56 C220 54 210 53 204 53 C180 53 163.333 57.1667 154 65.5 C144.667 73.8333 141.333 87.3333 144 106 L188 384 Z M144 -51 C133.333 -51 121 -53.6667 107 -59 L114 -154 L75 -231 L127 -231 L178 -163 C194 -142.333 202 -123.333 202 -106 C202 -88 197 -74.3333 187 -65 C177 -55.6667 162.667 -51 144 -51 L144 -51 Z " />
<glyph glyph-name="uni0237" unicode="&#x237;" horiz-adv-x="253" d="M202 446 L131 446 L55 -32 C47.6667 -97.3334 11.6667 -157.333 -53 -212 L-5 -263 C37 -225.667 66.8333 -191.667 84.5 -161 C102.167 -130.333 115.667 -89.3333 125 -38 L202 446 Z " />
<glyph glyph-name="circumflex" unicode="&#x2c6;" horiz-adv-x="315" d="M347 521 L266 660 L192 660 L63 521 L143 521 L226 616 L275 521 L347 521 Z " />
<glyph glyph-name="caron" unicode="&#x2c7;" horiz-adv-x="315" d="M275 660 L206 564 L165 660 L93 660 L154 521 L247 521 L354 660 L275 660 Z " />
<glyph glyph-name="breve" unicode="&#x2d8;" horiz-adv-x="322" d="M376 660 L312 660 C303.333 628.667 290.833 606.333 274.5 593 C258.167 579.667 238 573 214 573 C158 573 135 602 145 660 L84 660 C76 617.333 83 583.5 105 558.5 C127 533.5 160.667 521 206 521 C249.333 521 285.5 533 314.5 557 C343.5 581 364 615.333 376 660 L376 660 Z " />
<glyph glyph-name="dotaccent" unicode="&#x2d9;" horiz-adv-x="128" d="M170 592 C172 605.333 168.833 616.833 160.5 626.5 C152.167 636.167 141.333 641 128 641 C114 641 101.833 636.333 91.5 627 C81.1667 617.667 75 606 73 592 C71 578.667 73.8333 567.333 81.5 558 C89.1667 548.667 100 544 114 544 C127.333 544 139.5 548.667 150.5 558 C161.5 567.329 168 578.662 170 592 L170 592 Z " />
<glyph glyph-name="ring" unicode="&#x2da;" horiz-adv-x="194" d="M164 684 C140 684 118.5 674.5 99.5 655.5 C80.5 636.5 70 614.667 68 590 C66.6666 572.667 69.8333 556.667 77.5 542 C85.1667 527.337 95.1667 517.171 107.5 511.5 C119.833 505.833 131.667 503 143 503 C159.667 503 175.833 508.5 191.5 519.5 C207.167 530.5 218.5 543.167 225.5 557.5 C232.5 571.831 236.667 584.664 238 596 C240 614 237.167 630.333 229.5 645 C221.833 659.667 211.833 669.833 199.5 675.5 C187.167 681.167 175.333 684 164 684 L164 684 Z M160 633 C168.667 633 176 629.167 182 621.5 C188 613.838 190.333 604.671 189 594 C187.667 582.667 182.833 573 174.5 565 C166.167 557 156.667 553 146 553 C139.333 553 133.5 555.167 128.5 559.5 C123.5 563.833 120.333 569.333 119 576 C117.668 582.667 117.334 588 118 592 C119.333 603.333 123.833 613 131.5 621 C139.167 629 148.667 633 160 633 L160 633 Z " />
<glyph glyph-name="ogonek" unicode="&#x2db;" horiz-adv-x="186" d="M96 0 L32 4 C-18.6667 -63.3333 -44 -117 -44 -157 C-44 -182.333 -32.5 -200.5 -9.5 -211.5 C13.5 -222.5 50 -225 100 -219 L110 -160 C52.6667 -169.333 24 -159.667 24 -131 C24 -105.667 48 -62 96 0 L96 0 Z " />
<glyph glyph-name="tilde" unicode="&#x2dc;" horiz-adv-x="359" d="M367 640 C351 626 336.333 616.167 323 610.5 C309.667 604.833 299.667 602 293 602 C283 602 264.333 608.167 237 620.5 C209.667 632.833 189 639 175 639 C160.333 639 143.333 634.333 124 625 C104.667 615.667 88 605 74 593 L109 547 C123.667 559 137.167 567.333 149.5 572 C161.833 576.667 171 579 177 579 C185.667 579 204.167 573 232.5 561 C260.833 549 282.333 543 297 543 C313 543 331 548.333 351 559 C371 569.667 388.333 581.667 403 595 L367 640 Z " />
<glyph glyph-name="hungarumlaut" unicode="&#x2dd;" horiz-adv-x="293" d="M209 660 L142 660 L62 521 L122 521 L209 660 Z M347 660 L280 660 L200 521 L260 521 L347 660 Z " />
<glyph glyph-name="gravecomb" unicode="&#x300;" d="M-104 660 L-32 521 L34 521 L-32 660 L-104 660 Z " />
<glyph glyph-name="acutecomb" unicode="&#x301;" d="M-33 521 L54 660 L-19 660 L-99 521 L-33 521 Z " />
<glyph glyph-name="uni0302" unicode="&#x302;" d="M32 521 L-49 660 L-123 660 L-252 521 L-172 521 L-89 616 L-40 521 L32 521 Z " />
<glyph glyph-name="tildecomb" unicode="&#x303;" d="M8 640 C-8 626 -22.6667 616.167 -36 610.5 C-49.3333 604.833 -59.3333 602 -66 602 C-76 602 -94.6667 608.167 -122 620.5 C-149.333 632.833 -170 639 -184 639 C-198.667 639 -215.667 634.333 -235 625 C-254.333 615.667 -271 605 -285 593 L-250 547 C-235.333 559 -221.833 567.333 -209.5 572 C-197.167 576.667 -188 579 -182 579 C-173.333 579 -154.833 573 -126.5 561 C-98.1667 549 -76.6667 543 -62 543 C-46 543 -28 548.333 -8 559 C12 569.667 29.3333 581.667 44 595 L8 640 Z " />
<glyph glyph-name="uni0304" unicode="&#x304;" d="M44 622 L-225 622 L-235 559 L35 559 L44 622 Z " />
<glyph glyph-name="uni0306" unicode="&#x306;" d="M54 660 L-10 660 C-18.6667 628.667 -31.1667 606.333 -47.5 593 C-63.8333 579.667 -84 573 -108 573 C-164 573 -187 602 -177 660 L-238 660 C-246 617.333 -239 583.5 -217 558.5 C-195 533.5 -161.333 521 -116 521 C-72.6667 521 -36.5 533 -7.5 557 C21.5 581 42 615.333 54 660 L54 660 Z " />
<glyph glyph-name="uni0307" unicode="&#x307;" d="M42 592 C44 605.333 40.8333 616.833 32.5 626.5 C24.1667 636.167 13.3333 641 0 641 C-14 641 -26.1667 636.333 -36.5 627 C-46.8333 617.667 -53 606 -55 592 C-57 578.667 -54.1667 567.333 -46.5 558 C-38.8333 548.667 -28 544 -14 544 C-0.666672 544 11.5 548.667 22.5 558 C33.5 567.329 40 578.662 42 592 L42 592 Z " />
<glyph glyph-name="uni0308" unicode="&#x308;" d="M-171 639 C-186.333 639 -199.333 633.667 -210 623 C-220.667 612.336 -226 599.669 -226 585 C-226 572.333 -222 562 -214 554 C-206 546 -195.667 542 -183 542 C-168.333 542 -155.333 547.333 -144 558 C-132.667 568.667 -127 581.333 -127 596 C-127 608.667 -131 619 -139 627 C-147 635 -157.667 639 -171 639 L-171 639 Z M-6 639 C-21.3333 639 -34.5 633.5 -45.5 622.5 C-56.5 611.5 -62 598.667 -62 584 C-62 571.338 -58 561.171 -50 553.5 C-42 545.833 -31.6667 542 -19 542 C-4.33333 542 8.66667 547.333 20 558 C31.3333 568.667 37 581.667 37 597 C37 609 33 619 25 627 C17 635 6.66667 639 -6 639 L-6 639 Z " />
<glyph glyph-name="uni030A" unicode="&#x30a;" d="M-30 684 C-54 684 -75.5 674.5 -94.5 655.5 C-113.5 636.5 -124 614.667 -126 590 C-127.333 572.667 -124.166 556.667 -116.5 542 C-108.833 527.337 -98.8333 517.171 -86.5 511.5 C-74.1667 505.833 -62.3333 503 -51 503 C-34.3333 503 -18.1667 508.5 -2.5 519.5 C13.1667 530.5 24.5 543.167 31.5 557.5 C38.5 571.831 42.6667 584.664 44 596 C46 614 43.1667 630.333 35.5 645 C27.8333 659.667 17.8333 669.833 5.5 675.5 C-6.83333 681.167 -18.6667 684 -30 684 L-30 684 Z M-34 633 C-25.3333 633 -18 629.167 -12 621.5 C-6 613.838 -3.66667 604.671 -5 594 C-6.33333 582.667 -11.1667 573 -19.5 565 C-27.8333 557 -37.3333 553 -48 553 C-54.6667 553 -60.5 555.167 -65.5 559.5 C-70.5 563.833 -73.6667 569.333 -75 576 C-76.3339 582.667 -76.6673 588 -76 592 C-74.6667 603.333 -70.1667 613 -62.5 621 C-54.8333 629 -45.3333 633 -34 633 L-34 633 Z " />
<glyph glyph-name="uni030B" unicode="&#x30b;" d="M-84 660 L-151 660 L-231 521 L-171 521 L-84 660 Z M54 660 L-13 660 L-93 521 L-33 521 L54 660 Z " />
<glyph glyph-name="uni030C" unicode="&#x30c;" d="M-40 660 L-109 564 L-150 660 L-222 660 L-161 521 L-68 521 L39 660 L-40 660 Z " />
<glyph glyph-name="uni0326" unicode="&#x326;" d="M-351 -51 C-361.667 -51 -374 -53.6667 -388 -59 L-381 -154 L-420 -231 L-368 -231 L-317 -163 C-301 -142.333 -293 -123.333 -293 -106 C-293 -88 -298 -74.3333 -308 -65 C-318 -55.6667 -332.333 -51 -351 -51 L-351 -51 Z " />
<glyph glyph-name="uni0327" unicode="&#x327;" d="M-111 12 L-170 12 C-172.667 6.66667 -175.334 0.166672 -178 -7.5 C-180.669 -15.1667 -182.336 -22 -183 -28 C-185.667 -41.3333 -185 -52.1667 -181 -60.5 C-177 -68.8333 -168.667 -78.3333 -156 -89 C-143.333 -99.6667 -136.167 -107.833 -134.5 -113.5 C-132.833 -119.167 -132.333 -124 -133 -128 C-137.667 -154 -156 -167 -188 -167 C-202.667 -167 -215.333 -166 -226 -164 L-235 -218 C-219.666 -220.667 -205.333 -222 -192 -222 C-157.333 -222 -129.833 -214.333 -109.5 -199 C-89.1667 -183.667 -76.6667 -162 -72 -134 C-67.3334 -104 -76.6667 -78.6667 -100 -58 C-112.667 -46.6667 -119.333 -38.1667 -120 -32.5 C-120.667 -26.8333 -120.667 -21.3333 -120 -16 C-119.333 -8.66667 -116.333 0.666672 -111 12 L-111 12 Z " />
<glyph glyph-name="uni0328" unicode="&#x328;" d="M-90 0 L-154 4 C-204.667 -63.3333 -230 -117 -230 -157 C-230 -182.333 -218.5 -200.5 -195.5 -211.5 C-172.5 -222.5 -136 -225 -86 -219 L-76 -160 C-133.333 -169.333 -162 -159.667 -162 -131 C-162 -105.667 -138 -62 -90 0 L-90 0 Z " />
<glyph glyph-name="Delta" unicode="&#x394;" horiz-adv-x="572" d="M303 660 L221 660 L-25 0 L528 0 L303 660 Z M257 575 L427 68 L79 68 L257 575 Z " />
<glyph glyph-name="Omega" unicode="&#x3a9;" horiz-adv-x="790" d="M570 67 C660 114.333 705 203.333 705 334 C705 388 697.5 436.333 682.5 479 C667.5 521.667 646.333 557.167 619 585.5 C591.667 613.833 558.833 635.333 520.5 650 C482.167 664.667 440.334 672 395 672 C349.667 672 307.334 664.833 268 650.5 C228.667 636.167 194.667 614.5 166 585.5 C137.333 556.5 115 520.333 99 477 C83 433.667 75 384.667 75 330 C75 297.333 78.6667 263.833 86 229.5 C93.3333 195.167 107.333 163.833 128 135.5 C148.667 107.167 175 84.3333 207 67 L38 67 L38 0 L315 0 L315 70 C263 84 222.5 113.333 193.5 158 C164.5 202.667 150 260.333 150 331 C150 375.667 156.167 415.5 168.5 450.5 C180.833 485.5 198 514.333 220 537 C242 559.667 268 576.667 298 588 C328 599.333 360.333 605 395 605 C429.667 605 461.667 599.167 491 587.5 C520.333 575.836 545.333 558.669 566 536 C586.667 513.333 602.5 484.667 613.5 450 C624.5 415.333 630 376 630 332 C630 284.667 623.667 243.333 611 208 C598.333 172.667 579.333 143 554 119 C528.667 95 496.333 78.3333 457 69 L457 0 L733 0 L733 67 L570 67 Z " />
<glyph glyph-name="mu" unicode="&#x3bc;" horiz-adv-x="538" d="M427 446 L377 131 C368.333 75.6667 334.333 48 275 48 C221.667 48 175 69 135 111 L188 446 L118 446 L8 -251 L77 -251 L124 45 C140.667 28.3333 162.5 15.3333 189.5 6 C216.5 -3.33333 245 -8 275 -8 C322.333 -8 360.167 1.66667 388.5 21 C416.833 40.3333 434 68.3333 440 105 L495 446 L427 446 Z " />
<glyph glyph-name="pi" unicode="&#x3c0;" horiz-adv-x="623" d="M591 446 L62 446 L61 379 L134 379 L128 0 L200 0 L206 379 L441 379 L435 0 L507 0 L513 379 L590 379 L591 446 Z " />
<glyph glyph-name="Wgrave" unicode="&#x1e80;" horiz-adv-x="862" d="M543 707 L480 839 L410 839 L479 707 L543 707 Z M832 660 L616 68 L556 660 L450 660 L198 81 L169 660 L96 660 L132 0 L236 0 L493 591 L553 0 L661 0 L907 660 L832 660 Z " />
<glyph glyph-name="wgrave" unicode="&#x1e81;" horiz-adv-x="703" d="M426 521 L360 660 L288 660 L360 521 L426 521 Z M647 446 L491 57 L436 446 L342 446 L143 58 L117 446 L51 446 L82 0 L183 0 L377 380 L432 0 L536 0 L718 446 L647 446 Z " />
<glyph glyph-name="Wacute" unicode="&#x1e82;" horiz-adv-x="862" d="M628 859 L555 859 L479 727 L545 727 L628 859 Z M832 660 L616 68 L556 660 L450 660 L198 81 L169 660 L96 660 L132 0 L236 0 L493 591 L553 0 L661 0 L907 660 L832 660 Z " />
<glyph glyph-name="wacute" unicode="&#x1e83;" horiz-adv-x="703" d="M516 660 L443 660 L363 521 L429 521 L516 660 Z M647 446 L491 57 L436 446 L342 446 L143 58 L117 446 L51 446 L82 0 L183 0 L377 380 L432 0 L536 0 L718 446 L647 446 Z " />
<glyph glyph-name="Wdieresis" unicode="&#x1e84;" horiz-adv-x="862" d="M430 725 C444.667 725 457.5 730.167 468.5 740.5 C479.5 750.833 485 763.333 485 778 C485 790 481 800 473 808 C465 816 454.667 820 442 820 C427.333 820 414.667 814.667 404 804 C393.333 793.339 388 780.673 388 766 C388 754 392 744.167 400 736.5 C408 728.833 418 725 430 725 L430 725 Z M605 725 C619.667 725 632.333 730.167 643 740.5 C653.667 750.833 659 763.333 659 778 C659 790 655 800 647 808 C639 816 628.667 820 616 820 C601.338 820 588.671 814.667 578 804 C567.333 793.339 562 780.673 562 766 C562 753.333 566.167 743.333 574.5 736 C582.833 728.667 593 725 605 725 L605 725 Z M832 660 L616 68 L556 660 L450 660 L198 81 L169 660 L96 660 L132 0 L236 0 L493 591 L553 0 L661 0 L907 660 L832 660 Z " />
<glyph glyph-name="wdieresis" unicode="&#x1e85;" horiz-adv-x="703" d="M318 542 C332.667 542 345.667 547.333 357 558 C368.333 568.667 374 581.333 374 596 C374 608.667 370 619 362 627 C354 635 343.333 639 330 639 C314.667 639 301.667 633.667 291 623 C280.333 612.336 275 599.669 275 585 C275 572.333 279 562 287 554 C295 546 305.333 542 318 542 L318 542 Z M482 542 C496.667 542 509.667 547.333 521 558 C532.333 568.667 538 581.667 538 597 C538 609 534 619 526 627 C518 635 507.667 639 495 639 C479.667 639 466.5 633.5 455.5 622.5 C444.5 611.5 439 598.667 439 584 C439 571.338 443 561.171 451 553.5 C459 545.833 469.333 542 482 542 L482 542 Z M647 446 L491 57 L436 446 L342 446 L143 58 L117 446 L51 446 L82 0 L183 0 L377 380 L432 0 L536 0 L718 446 L647 446 Z " />
<glyph glyph-name="Ygrave" unicode="&#x1ef2;" horiz-adv-x="556" d="M378 707 L315 839 L245 839 L314 707 L378 707 Z M531 660 L340 403 C318.667 373.667 305.667 354.334 301 345 C298.333 353 290.333 372.667 277 404 L163 660 L81 660 L252 283 L207 0 L280 0 L326 282 L616 660 L531 660 Z " />
<glyph glyph-name="ygrave" unicode="&#x1ef3;" horiz-adv-x="444" d="M289 521 L223 660 L151 660 L223 521 L289 521 Z M385 446 L207 125 C195 102.333 184.667 80 176 58 L168 126 L130 446 L56 446 L124 -18 C94.6667 -71.3333 67.3333 -111 42 -137 C16.6667 -163 -15 -183.333 -53 -198 L-29 -256 C23 -232 63.6667 -205.167 93 -175.5 C122.333 -145.833 155.667 -97.3333 193 -30 L461 446 L385 446 Z " />
<glyph glyph-name="uni2009" unicode="&#x2009;" horiz-adv-x="50" d="" />
<glyph glyph-name="figuredash" unicode="&#x2012;" horiz-adv-x="530" d="M37 260 L27 199 L491 199 L501 260 L37 260 Z " />
<glyph glyph-name="endash" unicode="&#x2013;" horiz-adv-x="568" d="M58 260 L48 199 L512 199 L522 260 L58 260 Z " />
<glyph glyph-name="emdash" unicode="&#x2014;" horiz-adv-x="1073" d="M78 260 L68 199 L997 199 L1007 260 L78 260 Z " />
<glyph glyph-name="quoteleft" unicode="&#x2018;" horiz-adv-x="247" d="M213 448 L206 553 L260 660 L208 660 L132 562 C116 536.667 108 515.667 108 499 C108 481.667 113.5 467.5 124.5 456.5 C135.5 445.5 150.667 440 170 440 C186 440 200.333 442.667 213 448 L213 448 Z " />
<glyph glyph-name="quoteright" unicode="&#x2019;" horiz-adv-x="247" d="M139 660 L146 555 L92 448 L144 448 L220 546 C236 571.333 244 592.333 244 609 C244 626.333 238.5 640.5 227.5 651.5 C216.5 662.5 201.333 668 182 668 C166 668 151.667 665.333 139 660 L139 660 Z " />
<glyph glyph-name="quotesinglbase" unicode="&#x201a;" horiz-adv-x="248" d="M54 99 L61 -6 L7 -113 L59 -113 L135 -15 C151 10.3333 159 31.3333 159 48 C159 65.3333 153.5 79.5 142.5 90.5 C131.5 101.5 116.333 107 97 107 C81 107 66.6667 104.333 54 99 L54 99 Z " />
<glyph glyph-name="quotedblleft" unicode="&#x201c;" horiz-adv-x="402" d="M213 448 L206 553 L260 660 L208 660 L132 562 C116 536.667 108 515.667 108 499 C108 481.667 113.5 467.5 124.5 456.5 C135.5 445.5 150.667 440 170 440 C186 440 200.333 442.667 213 448 L213 448 Z M368 448 L361 553 L415 660 L363 660 L287 562 C271 536.667 263 515.667 263 499 C263 481.667 268.5 467.5 279.5 456.5 C290.5 445.5 305.667 440 325 440 C341 440 355.333 442.667 368 448 L368 448 Z " />
<glyph glyph-name="quotedblright" unicode="&#x201d;" horiz-adv-x="402" d="M129 660 L136 555 L82 448 L134 448 L210 546 C226 571.333 234 592.333 234 609 C234 626.333 228.5 640.5 217.5 651.5 C206.5 662.5 191.333 668 172 668 C156 668 141.667 665.333 129 660 L129 660 Z M284 660 L291 555 L237 448 L289 448 L365 546 C381 571.333 389 592.333 389 609 C389 626.333 383.5 640.5 372.5 651.5 C361.5 662.5 346.333 668 327 668 C311 668 296.667 665.333 284 660 L284 660 Z " />
<glyph glyph-name="quotedblbase" unicode="&#x201e;" horiz-adv-x="403" d="M54 99 L61 -6 L7 -113 L59 -113 L135 -15 C151 10.3333 159 31.3333 159 48 C159 65.3333 153.5 79.5 142.5 90.5 C131.5 101.5 116.333 107 97 107 C81 107 66.6667 104.333 54 99 L54 99 Z M209 99 L216 -6 L162 -113 L214 -113 L290 -15 C306 10.3333 314 31.3333 314 48 C314 65.3333 308.5 79.5 297.5 90.5 C286.5 101.5 271.333 107 252 107 C236 107 221.667 104.333 209 99 L209 99 Z " />
<glyph glyph-name="dagger" unicode="&#x2020;" horiz-adv-x="590" d="M577 446 L364 446 L398 660 L334 660 L300 446 L84 446 L74 385 L290 385 L189 -251 L253 -251 L354 385 L568 385 L577 446 Z " />
<glyph glyph-name="daggerdbl" unicode="&#x2021;" horiz-adv-x="591" d="M568 387 L577 446 L363 446 L397 660 L335 660 L301 446 L84 446 L74 387 L292 387 L234 26 L19 26 L9 -33 L225 -33 L190 -251 L252 -251 L287 -33 L503 -33 L512 26 L296 26 L354 387 L568 387 Z " />
<glyph glyph-name="bullet" unicode="&#x2022;" horiz-adv-x="449" d="M340 237 C343.333 259 340.167 279.5 330.5 298.5 C320.833 317.5 307.667 330.833 291 338.5 C274.333 346.167 259 350 245 350 C222.333 350 200.5 343.5 179.5 330.5 C158.5 317.5 142.833 302.167 132.5 284.5 C122.167 266.833 116 251 114 237 C112 223 113.167 207.167 117.5 189.5 C121.833 171.833 132.5 156.5 149.5 143.5 C166.5 130.5 186.333 124 209 124 C231 124 252.667 130.5 274 143.5 C295.333 156.5 311.167 171.833 321.5 189.5 C331.833 207.167 338 223 340 237 L340 237 Z " />
</font>
</svg>
