<?xml version="1.0" encoding="UTF-8"?>
<svg xmlns="http://www.w3.org/2000/svg" xmlns:xlink="http://www.w3.org/1999/xlink" version="1.2" >
<font id="abc Allegra W00 Medium Italic">
<font-face  font-family="abcAllegraW00-MediumItalic" units-per-em="1000" ascent="868" descent="-265" font-style="italic" font-weight="500" font-stretch="normal" slope="-9" cap-height="660" x-height="446" underline-position="-100" underline-thickness="50" />
<missing-glyph  horiz-adv-x="500" d="M410 735 L93 735 L93 -265 L410 -265 L410 735 Z M333 668 L333 635 L267 635 L267 598 L333 598 L333 565 L167 565 L167 598 L233 598 L233 635 L168 635 L168 668 L333 668 Z M267 539 L267 469 L333 469 L333 435 L167 435 L167 539 L267 539 Z M233 505 L200 505 L200 469 L233 469 L233 505 Z M333 408 L333 375 L267 375 L267 305 L167 305 L167 338 L233 338 L233 375 L167 375 L167 408 L333 408 Z M333 348 L333 248 L167 248 L167 282 L300 282 L300 348 L333 348 Z M333 226 L333 113 L167 113 L167 226 L200 226 L200 146 L300 146 L300 193 L267 193 L267 170 L233 170 L233 226 L333 226 Z M333 53 L333 -60 L167 -60 L167 53 L333 53 Z M300 20 L200 20 L200 -27 L300 -27 L300 20 Z M333 -83 L333 -116 L301 -116 L231 -163 L333 -163 L333 -196 L167 -196 L167 -163 L237 -116 L167 -116 L167 -83 L333 -83 Z " />
<glyph glyph-name="NULL" d="" />
<glyph glyph-name="CR" unicode="&#xd;" horiz-adv-x="333" d="" />
<glyph glyph-name="space" unicode="&#x20;" horiz-adv-x="175" d="" />
<glyph glyph-name="exclam" unicode="&#x21;" horiz-adv-x="360" d="M195 640 L125 194 L227 194 L298 640 L195 640 Z M226 63 C226.667 81 221.333 96.1667 210 108.5 C198.667 120.833 184 127 166 127 C151.333 127 137.5 122.833 124.5 114.5 C111.5 106.167 102.333 96.1667 97 84.5 C91.6667 72.8333 88.6667 62.3333 88 53 C87.3333 35.6667 92.5 20.8333 103.5 8.5 C114.5 -3.83333 128.667 -10 146 -10 C160.667 -10 174.667 -5.83333 188 2.5 C201.333 10.8333 210.833 20.6667 216.5 32 C222.167 43.3333 225.333 53.6667 226 63 L226 63 Z " />
<glyph glyph-name="quotedbl" unicode="&#x22;" horiz-adv-x="353" d="M128 660 L89 412 L163 412 L203 660 L128 660 Z M287 660 L247 412 L322 412 L362 660 L287 660 Z " />
<glyph glyph-name="numbersign" unicode="&#x23;" horiz-adv-x="649" d="M615 389 L639 459 L533 459 L603 660 L525 660 L456 459 L325 459 L395 660 L318 660 L248 459 L143 459 L119 389 L224 389 L181 265 L78 265 L56 196 L157 196 L89 0 L165 0 L234 196 L364 196 L296 0 L374 0 L442 196 L548 196 L570 265 L466 265 L509 389 L615 389 Z M258 265 L301 389 L431 389 L388 265 L258 265 Z " />
<glyph glyph-name="dollar" unicode="&#x24;" horiz-adv-x="421" d="M249 473 C268.333 473 292.5 470 321.5 464 C350.5 458 368 453.667 374 451 L394 529 C361.333 538.333 328 545 294 549 L304 615 L233 615 L223 552 C193.667 550 167.667 543.5 145 532.5 C122.333 521.5 103.667 505.667 89 485 C74.3333 464.333 67 439 67 409 C67 391 70.1667 374.5 76.5 359.5 C82.8333 344.5 91.8333 330.333 103.5 317 C115.167 303.667 143.667 278 189 240 C193.667 236 204.833 226.667 222.5 212 C240.167 197.333 254.333 184.167 265 172.5 C275.667 160.833 281 146.667 281 130 C281 119.333 276.833 109.167 268.5 99.5 C260.167 89.8333 248 82.8333 232 78.5 C216 74.1667 200 72 184 72 C150 72 106 79.6667 52 95 L32 17 C76.6667 4.33333 115 -3.33333 147 -6 L137 -71 L208 -71 L219 -8 C270.333 -3.33333 308.167 12.5 332.5 39.5 C356.833 66.5 369 99 369 137 C369 149.667 367.5 161.333 364.5 172 C361.5 182.667 356.667 193.333 350 204 C343.333 214.667 334.167 225.833 322.5 237.5 C310.833 249.167 296 262.5 278 277.5 C260 292.5 249.333 301.667 246 305 C244 307 234.833 314.833 218.5 328.5 C202.167 342.167 189.333 353.667 180 363 C170.667 372.333 164.5 381.167 161.5 389.5 C158.5 397.833 157 406.667 157 416 C157 435.333 165.667 449.667 183 459 C200.333 468.333 222.333 473 249 473 L249 473 Z " />
<glyph glyph-name="percent" unicode="&#x25;" horiz-adv-x="873" d="M251 670 C225 670 201 664.833 179 654.5 C157 644.167 138.333 629.667 123 611 C107.667 592.333 95.8334 569.833 87.5 543.5 C79.1667 517.167 75 488.667 75 458 C75 410.667 86 375 108 351 C130 327 161.667 315 203 315 C228.333 315 252 320.333 274 331 C296 341.667 314.833 356.667 330.5 376 C346.167 395.333 358.333 418.5 367 445.5 C375.667 472.5 380 501.667 380 533 C380 577.667 369.167 611.667 347.5 635 C325.833 658.333 293.667 670 251 670 L251 670 Z M784 660 L692 660 L93 0 L184 0 L784 660 Z M206 379 C165.333 379 145.333 404.667 146 456 C146.667 500.667 155.833 536.667 173.5 564 C191.167 591.333 214.667 605 244 605 C266 605 281.833 599 291.5 587 C301.167 575 306 555.333 306 528 C306 482.667 297 446.5 279 419.5 C261 392.5 236.667 379 206 379 L206 379 Z M705 350 C679 350 655 344.833 633 334.5 C611 324.167 592.333 309.667 577 291 C561.667 272.333 549.833 249.833 541.5 223.5 C533.167 197.167 529 168.667 529 138 C529 91.3333 539.833 55.8333 561.5 31.5 C583.167 7.16667 614.667 -5 656 -5 C708 -5 750.667 15.3333 784 56 C817.333 96.6667 834 149 834 213 C834 257 823.167 290.833 801.5 314.5 C779.835 338.167 747.668 350 705 350 L705 350 Z M660 59 C619.333 59 599.333 84.6667 600 136 C600 180.667 609 216.667 627 244 C645 271.333 668.667 285 698 285 C719.333 285 735 278.833 745 266.5 C755 254.167 760 234.667 760 208 C760 162.667 751 126.5 733 99.5 C715 72.5 690.667 59 660 59 L660 59 Z " />
<glyph glyph-name="ampersand" unicode="&#x26;" horiz-adv-x="783" d="M796 403 L501 403 C512.333 461 518 504 518 532 C518 574.667 504.833 608 478.5 632 C452.167 656 415 668 367 668 C305 668 250.167 649.167 202.5 611.5 C154.833 573.833 118 519.5 92 448.5 C66 377.5 53 298 53 210 C53 130.667 70.6666 73.6667 106 39 C141.333 4.33333 196.333 -13 271 -13 C319.667 -13 364 -4.16667 404 13.5 C444 31.1667 478.333 55.6667 507 87 C535.667 118.333 558.5 154.5 575.5 195.5 C592.5 236.5 603.667 279.667 609 325 L783 325 L796 403 Z M352 588 C402.667 588 428 563.333 428 514 C428 501.333 426 483.667 422 461 C418 438.333 414 419 410 403 L172 403 C183.333 441 197.833 474 215.5 502 C233.167 530 253.333 551.333 276 566 C298.667 580.667 324 588 352 588 L352 588 Z M279 67 C231 67 197 77.8333 177 99.5 C157 121.167 147 158.667 147 212 C147 253.333 149.667 291 155 325 L518 325 C510.668 274.333 497.334 232 478 198 C458.667 164 439 138.5 419 121.5 C399 104.5 377.5 91.1667 354.5 81.5 C331.5 71.8333 306.333 67 279 67 L279 67 Z " />
<glyph glyph-name="quotesingle" unicode="&#x27;" horiz-adv-x="198" d="M128 660 L89 412 L163 412 L203 660 L128 660 Z " />
<glyph glyph-name="parenleft" unicode="&#x28;" horiz-adv-x="337" d="M382 735 C355.333 703 326.667 658.833 296 602.5 C265.333 546.167 240.5 488.333 221.5 429 C202.5 369.667 189.333 313.5 182 260.5 C174.667 207.5 171 160.333 171 119 C171 53.6667 176.333 -11.8333 187 -77.5 C197.667 -143.167 209.667 -197 223 -239 L132 -239 C119.333 -195 108.167 -139.833 98.5 -73.5 C88.8333 -7.16666 84 57.6667 84 121 C84 204.333 94.5 287.333 115.5 370 C136.5 452.667 163.833 526.333 197.5 591 C231.167 655.667 261 703.667 287 735 L382 735 Z " />
<glyph glyph-name="parenright" unicode="&#x29;" horiz-adv-x="337" d="M-37 -239 C-10.3333 -207 18.3333 -162.833 49 -106.5 C79.6667 -50.1667 104.5 7.66667 123.5 67 C142.5 126.333 155.667 182.5 163 235.5 C170.333 288.5 174 335.667 174 377 C174 442.333 168.667 507.833 158 573.5 C147.333 639.167 135 693 121 735 L213 735 C227.667 681.667 239.167 621.833 247.5 555.5 C255.833 489.167 260 429 260 375 C260 291.667 249.5 208.667 228.5 126 C207.5 43.3333 180.333 -30.3333 147 -95 C113.667 -159.667 84 -207.667 58 -239 L-37 -239 Z " />
<glyph glyph-name="asterisk" unicode="&#x2a;" horiz-adv-x="419" d="M290 459 C306 461.66 317.667 464.326 325 467 L428 498 L415 562 L314 532 L278 519 C282 535.667 284.333 547.333 285 554 L299 657 L231 657 L218 555 L215 519 L184 533 L90 565 L61 501 L154 469 L188 459 C178 449.667 169.333 440.667 162 432 L90 349 L140 309 L211 391 L234 422 C238 411.333 243 401.333 249 392 L299 308 L358 347 L309 430 L290 459 Z " />
<glyph glyph-name="plus" unicode="&#x2b;" horiz-adv-x="575" d="M531 279 L335 279 L339 472 L257 472 L253 279 L55 279 L54 200 L251 200 L248 0 L331 0 L334 200 L529 200 L531 279 Z " />
<glyph glyph-name="comma" unicode="&#x2c;" horiz-adv-x="264" d="M52 120 L60 -3 L4 -113 L70 -113 L143 -20 C161.667 6.66667 172.667 25.8333 176 37.5 C179.333 49.1667 180.666 58.6667 180 66 C178.667 86 171.167 101.667 157.5 113 C143.833 124.333 126 130 104 130 C85.3333 130 68 126.667 52 120 L52 120 Z " />
<glyph glyph-name="hyphen" unicode="&#x2d;" horiz-adv-x="370" d="M76 271 L63 194 L296 194 L309 271 L76 271 Z " />
<glyph glyph-name="period" unicode="&#x2e;" horiz-adv-x="252" d="M169 63 C169.667 81 164.333 96.1667 153 108.5 C141.667 120.833 127 127 109 127 C94.3333 127 80.5 122.833 67.5 114.5 C54.5 106.167 45.3333 96.1667 40 84.5 C34.6667 72.8333 31.6667 62.3333 31 53 C29.6667 35.6667 34.6667 20.8333 46 8.5 C57.3333 -3.83333 71.6667 -10 89 -10 C98.3333 -10 109 -7.5 121 -2.5 C133 2.5 143.667 11 153 23 C162.333 35 167.666 48.3333 169 63 L169 63 Z " />
<glyph glyph-name="slash" unicode="&#x2f;" horiz-adv-x="400" d="M390 735 L-54 -239 L33 -239 L481 735 L390 735 Z " />
<glyph glyph-name="zero" unicode="0" horiz-adv-x="537" d="M286 457 C212 457 153 434 109 388 C65 342 43 280.333 43 203 C43 135.667 61.1667 83.5 97.5 46.5 C133.833 9.5 185 -9 251 -9 C327 -9 386.333 13.1667 429 57.5 C471.667 101.833 493 163.333 493 242 C493 310.667 475 363.667 439 401 C403 438.333 352 457 286 457 L286 457 Z M252 71 C214 71 186 81.6667 168 103 C150 124.333 141 157.333 141 202 C141 258.666 153 301.833 177 331.5 C201 361.167 236 376 282 376 C320.667 376 349.167 365 367.5 343 C385.833 321 395 286.667 395 240 C395 184.667 382.833 142.667 358.5 114 C334.167 85.3333 298.667 71 252 71 L252 71 Z " />
<glyph glyph-name="one" unicode="1" horiz-adv-x="337" d="M210 446 L34 411 L48 333 L152 353 L176 357 L120 0 L217 0 L287 446 L210 446 Z " />
<glyph glyph-name="two" unicode="2" horiz-adv-x="414" d="M275 179 C307.667 207 330.833 232.5 344.5 255.5 C358.167 278.5 365 304 365 332 C365 371.333 352.167 402.333 326.5 425 C300.833 447.667 265.333 459 220 459 C198.667 459 173.5 456.167 144.5 450.5 C115.5 444.833 88.6667 437.333 64 428 L86 351 C134.667 368.333 173.333 377 202 377 C224.667 377 242.167 372 254.5 362 C266.833 352 273 337.333 273 318 C273 300 266.667 283.5 254 268.5 C241.333 253.5 225 237.333 205 220 L30 63 L20 0 L338 0 L350 78 L162 78 L275 179 Z " />
<glyph glyph-name="three" unicode="3" horiz-adv-x="414" d="M236 130 C275.333 137.333 306.667 156 330 186 C353.333 216 365 253 365 297 C365 347 349.333 386.5 318 415.5 C286.667 444.5 244.333 459 191 459 C171.667 459 149.5 456.833 124.5 452.5 C99.5 448.17 76.3333 442.337 55 435 L74 356 C88.6666 361.333 105.833 365.833 125.5 369.5 C145.167 373.167 162 375 176 375 C207.333 375 231.166 366.833 247.5 350.5 C263.833 334.167 272 311 272 281 C272 243 260.667 215.333 238 198 C215.333 180.667 183.333 171.667 142 171 L87 171 L72 89 L141 86 C207.667 82 242 49.6667 244 -11 C244.667 -27 241.833 -44 235.5 -62 C229.167 -80 218.833 -94.6667 204.5 -106 C190.167 -117.333 174.667 -125.167 158 -129.5 C141.333 -133.833 125 -136 109 -136 C75 -136 37 -130 -5 -118 L-23 -199 C0.333328 -205 25.1667 -210 51.5 -214 C77.8333 -218 100.333 -220 119 -220 C151.667 -220 181.833 -215 209.5 -205 C237.167 -195 260.667 -181 280 -163 C299.333 -145 314.167 -123.5 324.5 -98.5 C334.833 -73.5 340 -46.6667 340 -18 C340 20.6667 330.5 52.8333 311.5 78.5 C292.5 104.167 267.333 121.333 236 130 L236 130 Z " />
<glyph glyph-name="four" unicode="4" horiz-adv-x="525" d="M490 80 L388 80 L446 446 L335 446 L-1 69 L-12 0 L283 0 L247 -214 L341 -214 L375 0 L476 0 L490 80 Z M111 80 L338 335 L296 80 L111 80 Z " />
<glyph glyph-name="five" unicode="5" horiz-adv-x="433" d="M389 362 L402 446 L96 446 L42 95 L105 95 C161.667 95 201.833 87.1667 225.5 71.5 C249.167 55.8333 261 29.3333 261 -8 C261 -49.3333 248.333 -80.8333 223 -102.5 C197.667 -124.167 160.667 -135 112 -135 C77.3333 -135 41 -129.667 3 -119 L-15 -203 C27.6667 -215 72 -221 118 -221 C191.333 -221 250 -200.5 294 -159.5 C338 -118.5 360 -64 360 4 C360 41.3333 351.667 73 335 99 C318.333 125 293.167 143.5 259.5 154.5 C225.833 165.5 187.333 171.667 144 173 L173 362 L389 362 Z " />
<glyph glyph-name="six" unicode="6" horiz-adv-x="497" d="M409 586 C434.333 586 458.667 584 482 580 L493 663 C465.667 667.667 437 670 407 670 C357.667 670 311.167 659.667 267.5 639 C223.833 618.333 185.833 589 153.5 551 C121.167 513 96 467.5 78 414.5 C60 361.5 51 304.333 51 243 C51 199 55.6667 160.833 65 128.5 C74.3333 96.1667 87.5 69.8333 104.5 49.5 C121.5 29.1667 141.833 14.3333 165.5 5 C189.167 -4.33333 215.333 -9 244 -9 C307.333 -9.00002 357.833 10.6667 395.5 50 C433.167 89.3333 452 141.333 452 206 C452 264.667 436.333 310.667 405 344 C373.667 377.333 331 394 277 394 C241.667 394 202 386.333 158 371 C170 420.333 188.167 460.667 212.5 492 C236.833 523.333 265.333 546.833 298 562.5 C330.667 578.167 367.667 586 409 586 L409 586 Z M251 317 C287.667 317 315.167 306.667 333.5 286 C351.833 265.333 361 237.667 361 203 C361 174.333 355 149.5 343 128.5 C331 107.5 316.167 93.1667 298.5 85.5 C280.833 77.8333 264.667 74 250 74 C179.333 74 144 132.333 144 249 L146 295 C182.667 309.667 217.667 317 251 317 L251 317 Z " />
<glyph glyph-name="seven" unicode="7" horiz-adv-x="432" d="M53 446 L39 363 L307 363 L-51 -211 L57 -211 L434 396 L443 446 L53 446 Z " />
<glyph glyph-name="eight" unicode="8" horiz-adv-x="522" d="M338 335 C396 371 434.833 401.833 454.5 427.5 C474.167 453.167 484 483 484 517 C484 564.332 468.333 602.166 437 630.5 C405.667 658.833 361.333 673 304 673 C243.333 673 194.5 657.333 157.5 626 C120.5 594.667 102 553.333 102 502 C102 470 109.5 443 124.5 421 C139.5 399 165.333 373 202 343 C132.667 300.333 88.5 265.167 69.5 237.5 C50.5 209.833 41 178.667 41 144 C41 96 58.6667 58.3333 94 31 C129.333 3.66667 178 -10 240 -10 C283.333 -10 321 -3.16667 353 10.5 C385 24.1667 411 44.3333 431 71 C451 97.6667 461 129.333 461 166 C461 188 457.333 206.667 450 222 C442.667 237.333 432.5 251.833 419.5 265.5 C406.5 279.167 379.333 302.333 338 335 L338 335 Z M300 598 C328.667 598 351.5 590.333 368.5 575 C385.5 559.667 394 540.667 394 518 C394 494 385.333 472.333 368 453 C350.667 433.667 319 410.334 273 383 C243 406.333 222 427.5 210 446.5 C198 465.5 192 484.667 192 504 C192 531.333 202 553.833 222 571.5 C242 589.167 268 598 300 598 L300 598 Z M243 67 C209 67 182.5 75 163.5 91 C144.5 107 135 128.667 135 156 C135 180 144.5 201.833 163.5 221.5 C182.5 241.167 216.667 265.333 266 294 C312.667 257.333 341.167 230.833 351.5 214.5 C361.833 198.167 367 182 367 166 C367 139.333 356.5 116.167 335.5 96.5 C314.5 76.8333 283.667 67 243 67 L243 67 Z " />
<glyph glyph-name="nine" unicode="9" horiz-adv-x="499" d="M253 459 C222.333 459 194.167 453.833 168.5 443.5 C142.833 433.167 120.833 418.5 102.5 399.5 C84.1667 380.5 70 357.667 60 331 C50 304.333 45 275.667 45 245 C45 186.333 60.1667 140.5 90.5 107.5 C120.833 74.5 162.667 58 216 58 C256.666 58 298.333 66 341 82 C329.667 33.3333 312.167 -7 288.5 -39 C264.833 -71 237.333 -95 206 -111 C174.667 -127 139 -135 99 -135 C77 -135 50.6667 -132.667 20 -128 L10 -211 C34.6667 -215.667 63.6667 -218 97 -218 C145 -218 190.5 -208 233.5 -188 C276.5 -168 313.833 -139.333 345.5 -102 C377.167 -64.6667 402 -19.8333 420 32.5 C438 84.8333 447 141.667 447 203 C447 259 439.667 305.5 425 342.5 C410.333 379.5 388.833 408.167 360.5 428.5 C332.167 448.833 296.334 459 253 459 L253 459 Z M244 135 C207.333 135 180.167 145 162.5 165 C144.833 185 136 212.667 136 248 C136 282.667 145.833 312.667 165.5 338 C185.167 363.333 212.333 376 247 376 C281.666 376 308.333 361.833 327 333.5 C345.667 305.167 355 263 355 207 L353 159 C335 151.667 316.333 145.833 297 141.5 C277.667 137.167 260 135 244 135 L244 135 Z " />
<glyph glyph-name="colon" unicode="&#x3a;" horiz-adv-x="285" d="M238 394 C239.333 412 234.333 427.167 223 439.5 C211.667 451.833 197 458 179 458 C159 458 141.167 450.833 125.5 436.5 C109.833 422.167 101.333 404.667 100 384 C99.3333 366.667 104.5 351.834 115.5 339.5 C126.5 327.167 140.667 321 158 321 C173.333 321 187.5 325.167 200.5 333.5 C213.5 341.833 222.833 351.667 228.5 363 C234.167 374.333 237.333 384.667 238 394 L238 394 Z M185 63 C186.333 81 181.333 96.1667 170 108.5 C158.667 120.833 144 127 126 127 C106 127 88.1667 119.833 72.5 105.5 C56.8333 91.1667 48.3333 73.6667 47 53 C46.3333 35.6667 51.5 20.8333 62.5 8.5 C73.5 -3.83333 87.6667 -10 105 -10 C120.333 -10 134.5 -5.83333 147.5 2.5 C160.5 10.8333 169.833 20.6667 175.5 32 C181.167 43.3333 184.333 53.6667 185 63 L185 63 Z " />
<glyph glyph-name="semicolon" unicode="&#x3b;" horiz-adv-x="301" d="M243 393 C243.667 411 238.333 426.167 227 438.5 C215.667 450.833 201 457 183 457 C168.333 457 154.5 452.833 141.5 444.5 C128.5 436.167 119.333 426.167 114 414.5 C108.667 402.833 105.667 392.333 105 383 C103.667 365.667 108.667 350.834 120 338.5 C131.333 326.167 145.667 320 163 320 C172.333 320 183 322.5 195 327.5 C207 332.5 217.667 341 227 353 C236.332 365 241.666 378.333 243 393 L243 393 Z M73 119 L81 -3 L25 -113 L91 -113 L164 -20 C182.667 7.33333 193.667 26.6667 197 38 C200.332 49.3333 201.665 58.6666 201 66 C199.667 85.3333 192.167 100.833 178.5 112.5 C164.833 124.167 147 130 125 130 C108.333 130 91 126.333 73 119 L73 119 Z " />
<glyph glyph-name="less" unicode="&#x3c;" horiz-adv-x="619" d="M549 464 L68 263 L66 187 L540 -19 L542 72 L183 223 L548 373 L549 464 Z " />
<glyph glyph-name="equal" unicode="&#x3d;" horiz-adv-x="554" d="M513 355 L49 355 L48 276 L512 276 L513 355 Z M47 195 L45 117 L509 117 L510 195 L47 195 Z " />
<glyph glyph-name="greater" unicode="&#x3e;" horiz-adv-x="615" d="M84 464 L83 374 L439 223 L77 72 L75 -20 L554 185 L556 261 L84 464 Z " />
<glyph glyph-name="question" unicode="&#x3f;" horiz-adv-x="462" d="M154 637 L163 551 C196.333 557.667 222.333 561 241 561 C273.667 561 297.833 554.833 313.5 542.5 C329.167 530.167 337 513 337 491 C337 471 330.5 453.167 317.5 437.5 C304.5 421.833 283.333 403.333 254 382 C240.667 372.667 224 360.834 204 346.5 C184 332.167 169.333 321.167 160 313.5 C150.667 305.833 143.5 296.5 138.5 285.5 C133.5 274.5 129.333 259.333 126 240 L120 194 L222 194 L227 228 C228.332 236.667 230.165 244.167 232.5 250.5 C234.832 256.833 238.666 262.833 244 268.5 C249.333 274.167 261.5 283.5 280.5 296.5 C299.5 309.5 311.167 317.667 315.5 321 C319.833 324.333 323 326.667 325 328 C353.667 348.667 377 368.667 395 388 C413 407.333 425.167 427.167 431.5 447.5 C437.833 467.833 441 487 441 505 C441 529.667 436.333 551.333 427 570 C417.668 588.667 404.835 604 388.5 616 C372.167 628 353.167 636.5 331.5 641.5 C309.833 646.5 288.333 649 267 649 C226.333 649 188.667 645 154 637 L154 637 Z M222 63 C222.667 81 217.333 96.1667 206 108.5 C194.667 120.833 180 127 162 127 C147.333 127 133.5 122.833 120.5 114.5 C107.5 106.167 98.3333 96.1667 93 84.5 C87.6667 72.8333 84.6667 62.3333 84 53 C83.3333 35.6667 88.5 20.8333 99.5 8.5 C110.5 -3.83333 124.667 -10 142 -10 C156.667 -10 170.667 -5.83333 184 2.5 C197.333 10.8333 206.833 20.6667 212.5 32 C218.167 43.3333 221.333 53.6667 222 63 L222 63 Z " />
<glyph glyph-name="at" unicode="&#x40;" horiz-adv-x="704" d="M402 545 C358 545 315.167 536.833 273.5 520.5 C231.833 504.167 194.5 481.334 161.5 452 C128.5 422.667 101.833 388 81.5 348 C61.1667 308 49.3333 265.333 46 220 C43.3333 180 48 141.667 60 105 C72 68.3333 90.3333 36.5 115 9.5 C139.667 -17.5 169.333 -38.6667 204 -54 C238.667 -69.3333 276.333 -77 317 -77 C343.667 -77 370.167 -73.8333 396.5 -67.5 C422.833 -61.1667 444.333 -54 461 -46 L441 7 C425.667 0.333328 407 -5.66667 385 -11 C363 -16.3333 342 -19 322 -19 C290.667 -19 261.167 -13 233.5 -1 C205.833 11 182 27.8333 162 49.5 C142 71.1667 127.167 96.8333 117.5 126.5 C107.833 156.167 104.667 188 108 222 C111.333 256.667 121 290.167 137 322.5 C153 354.833 174 383.333 200 408 C226 432.667 256 452 290 466 C324 480 359.667 487 397 487 C429 487 458.5 481.5 485.5 470.5 C512.5 459.5 535.167 444.333 553.5 425 C571.833 405.667 585.333 383 594 357 C602.667 331 605.667 304 603 276 C599.667 248.667 592.333 223.333 581 200 C569.667 176.667 556.333 158.833 541 146.5 C525.667 134.167 508.667 128 490 128 C456.668 128 446.335 152.667 459 202 L507 390 C501.667 391.333 490 392.833 472 394.5 C454 396.167 438 397 424 397 C395.333 397 367.333 392.333 340 383 C312.667 373.667 288.834 359.167 268.5 339.5 C248.167 319.833 231.833 296.667 219.5 270 C207.167 243.333 200 216 198 188 C196.667 161.333 200.5 138.333 209.5 119 C218.5 99.6667 230.667 86.6667 246 80 C261.333 73.3333 277 70 293 70 C335 70 371.333 86.6666 402 120 C405.333 106.667 414 95.1667 428 85.5 C442 75.8333 458 71 476 71 C507.333 71 535 78 559 92 C583 106 601.833 121.667 615.5 139 C629.167 156.333 640.5 176.333 649.5 199 C658.5 221.667 664 247.667 666 277 C668.667 315.667 663.833 351.667 651.5 385 C639.167 418.333 620.667 446.833 596 470.5 C571.334 494.167 542.168 512.5 508.5 525.5 C474.833 538.5 439.333 545 402 545 L402 545 Z M400 216 L391 171 C380.333 159 367.667 148.667 353 140 C338.333 131.333 324.667 127 312 127 C293.333 127 280.167 132.5 272.5 143.5 C264.833 154.5 262.333 172.333 265 197 C268.333 239.667 281.833 273.667 305.5 299 C329.167 324.333 358 337.667 392 339 C406 341.667 420 342 434 340 L400 216 Z " />
<glyph glyph-name="A" unicode="A" horiz-adv-x="601" d="M454 0 L560 0 L443 660 L317 660 L-28 0 L85 0 L165 159 L429 159 L454 0 Z M208 246 L366 561 L416 246 L208 246 Z " />
<glyph glyph-name="B" unicode="B" horiz-adv-x="547" d="M357 333 C403.667 339.667 440.167 359.167 466.5 391.5 C492.833 423.833 506 465.333 506 516 C506 564.667 491 600.833 461 624.5 C431 648.167 384.333 660 321 660 L159 658 L55 2 C122.333 -2 183 -4 237 -4 C317.667 -4 379.333 12.8333 422 46.5 C464.667 80.1667 486 128.667 486 192 C486 233.333 475.5 265.5 454.5 288.5 C433.5 311.5 401 326.333 357 333 L357 333 Z M307 577 C341 577 365.667 571 381 559 C396.333 547 404 527.667 404 501 C404 483 400.667 464.167 394 444.5 C387.333 424.833 374.833 408.833 356.5 396.5 C338.167 384.167 316 378 290 378 L210 378 L241 576 L307 577 Z M250 78 C220 78 191 79 163 81 L197 292 L260 292 C301.333 292 332 284.167 352 268.5 C372 252.833 382 228.667 382 196 C382 158 370.667 129 348 109 C325.333 89 292.667 78.6667 250 78 L250 78 Z " />
<glyph glyph-name="C" unicode="C" horiz-adv-x="565" d="M446 672 C394.667 672 349 665.5 309 652.5 C269 639.5 234.167 622 204.5 600 C174.833 578 149.667 551.833 129 521.5 C108.333 491.167 91.5 455.334 78.5 414 C65.5 372.667 59 326.333 59 275 C59 84.3333 160.667 -11 364 -11 C410.666 -11 461.333 -6 516 4 L506 95 C463.333 87.6667 420.667 84 378 84 C304 84 249.5 99.1667 214.5 129.5 C179.5 159.833 162 207.333 162 272 C162 336.666 173.333 391.833 196 437.5 C218.667 483.167 250.667 518.333 292 543 C333.333 567.667 384 580 444 580 C484 580 534 574 594 562 L612 652 C555.333 665.333 500 672 446 672 L446 672 Z " />
<glyph glyph-name="D" unicode="D" horiz-adv-x="687" d="M357 661 L159 658 L55 1 C178.333 -2.33333 252 -4 276 -4 C336.667 -4 391 4.83333 439 22.5 C487 40.1667 527.5 65.8333 560.5 99.5 C593.5 133.167 618.5 174.833 635.5 224.5 C652.5 274.167 661 329.667 661 391 C661 479 635.167 546 583.5 592 C531.834 638 456.334 661 357 661 L357 661 Z M337 572 C413.666 572 469.833 556.167 505.5 524.5 C541.167 492.833 559 445 559 381 C559 331.667 552.5 288.167 539.5 250.5 C526.5 212.833 508 181.833 484 157.5 C460 133.167 431 115 397 103 C363 91 325.667 85 285 85 L170 87 L246 570 L337 572 Z " />
<glyph glyph-name="E" unicode="E" horiz-adv-x="508" d="M495 570 L509 660 L160 660 L56 0 L423 0 L436 90 L170 90 L202 289 L438 289 L452 379 L216 379 L246 570 L495 570 Z " />
<glyph glyph-name="F" unicode="F" horiz-adv-x="484" d="M489 569 L504 660 L159 660 L56 0 L157 0 L199 270 L426 270 L440 361 L214 361 L247 569 L489 569 Z " />
<glyph glyph-name="G" unicode="G" horiz-adv-x="671" d="M442 680 C381.333 680 327.167 670.667 279.5 652 C231.833 633.333 191.833 606.5 159.5 571.5 C127.167 536.5 102.667 494.167 86 444.5 C69.3333 394.833 61 340 61 280 C60.3333 237.333 64.8333 196.5 74.5 157.5 C84.1667 118.5 100.5 85.6667 123.5 59 C146.5 32.3333 176.167 12.1667 212.5 -1.5 C248.833 -15.1667 293.667 -22 347 -22 C411 -22 482.333 -14.3333 561 1 L610 316 L512 316 L475 80 C438.333 72 401.667 68 365 68 C316.333 68 277.5 74.8333 248.5 88.5 C219.5 102.167 197.833 123.5 183.5 152.5 C169.167 181.5 162 223.667 162 279 C162 381.667 185.5 459 232.5 511 C279.5 563 348.333 589 439 589 C491 589 550.667 580.667 618 564 L639 652 C609 660.667 575.667 667.5 539 672.5 C502.333 677.5 470 680 442 680 L442 680 Z " />
<glyph glyph-name="H" unicode="H" horiz-adv-x="714" d="M594 660 L550 378 L212 378 L256 660 L157 660 L53 0 L152 0 L197 286 L535 286 L490 0 L591 0 L695 660 L594 660 Z " />
<glyph glyph-name="I" unicode="I" horiz-adv-x="281" d="M260 660 L159 660 L55 0 L155 0 L260 660 Z " />
<glyph glyph-name="J" unicode="J" horiz-adv-x="282" d="M261 660 L161 660 L53 -16 C46.3333 -55.3333 33.6667 -87.6667 15 -113 C-3.66667 -138.333 -25 -162.333 -49 -185 L20 -254 C63.3333 -215.333 94.3333 -179 113 -145 C131.667 -111 145.333 -67 154 -13 L261 660 Z " />
<glyph glyph-name="K" unicode="K" horiz-adv-x="575" d="M159 660 L55 0 L156 0 L260 660 L159 660 Z M604 660 L483 660 L218 338 L414 0 L534 0 L333 339 L604 660 Z " />
<glyph glyph-name="L" unicode="L" horiz-adv-x="463" d="M259 660 L157 660 L53 0 L421 0 L435 93 L168 93 L259 660 Z " />
<glyph glyph-name="M" unicode="M" horiz-adv-x="861" d="M675 660 L440 160 L418 106 L407 171 L320 660 L175 660 L45 0 L143 0 L232 475 C238 511.667 241.667 537.333 243 552 L337 11 L468 11 L722 554 L711 482 L651 0 L750 0 L830 660 L675 660 Z " />
<glyph glyph-name="N" unicode="N" horiz-adv-x="731" d="M610 660 L532 167 L524 104 L509 148 L303 660 L156 660 L51 0 L152 0 L228 477 L237 550 L457 0 L608 0 L711 660 L610 660 Z " />
<glyph glyph-name="O" unicode="O" horiz-adv-x="738" d="M427 675 C348.333 675 281 657.167 225 621.5 C169 585.833 127.667 538 101 478 C74.3333 418 61 352.333 61 281 C60.9999 243.667 65.3333 207 74 171 C82.6667 135 96.5 104.833 115.5 80.5 C134.5 56.1667 155.333 37.3333 178 24 C200.667 10.6667 226.333 0.666672 255 -6 C283.666 -12.6667 314.333 -16 347 -16 C402.333 -16 452.667 -6.83333 498 11.5 C543.332 29.8333 581.666 56 613 90 C644.333 124 668.333 165 685 213 C701.667 261 710 314 710 372 C710 473.333 686.167 549.167 638.5 599.5 C590.833 649.833 520.333 675 427 675 L427 675 Z M425 586 C484.333 586 529.167 569 559.5 535 C589.833 501 605 447 605 373 C605 329 599.5 288.5 588.5 251.5 C577.5 214.5 561 182.667 539 156 C517 129.333 490 108.833 458 94.5 C426 80.1667 389.667 73 349 73 C289.667 73 244.5 89.8333 213.5 123.5 C182.5 157.167 167 210.333 167 283 C167 326.333 172.667 366.667 184 404 C195.333 441.333 212 473.5 234 500.5 C256 527.5 283.333 548.5 316 563.5 C348.667 578.5 385 586 425 586 L425 586 Z " />
<glyph glyph-name="P" unicode="P" horiz-adv-x="538" d="M321 660 C252.333 660 198.333 659.333 159 658 L56 0 L157 0 L195 240 C229 238 256.667 237 278 237 C361.333 237 425.833 258.167 471.5 300.5 C517.167 342.833 540 403.667 540 483 C540 527 532.333 561.5 517 586.5 C501.667 611.5 478.167 630 446.5 642 C414.833 654 373 660 321 660 L321 660 Z M292 326 C270.667 325.333 242.667 325.667 208 327 L246 570 L295 571 C349.667 571 387 563.833 407 549.5 C427 535.167 437 509.667 437 473 C437 443.667 432.5 419.5 423.5 400.5 C414.5 381.5 403 366.667 389 356 C375 345.333 359.5 337.833 342.5 333.5 C325.5 329.167 308.667 326.667 292 326 L292 326 Z " />
<glyph glyph-name="Q" unicode="Q" horiz-adv-x="730" d="M708 352 C712.667 457.333 690.667 537.333 642 592 C593.333 646.667 521 674 425 674 C370.333 674 320.667 664.833 276 646.5 C231.333 628.167 193.5 602.333 162.5 569 C131.5 535.667 107.333 495.833 90 449.5 C72.6667 403.167 63 353 61 299 C56.3333 205 74.8333 131.333 116.5 78 C158.167 24.6667 221 -5.66667 305 -13 L626 -151 L670 -66 C592.667 -32.6667 529.667 -9 481 5 C549 28.3333 602.667 69.6667 642 129 C681.333 188.333 703.333 262.667 708 352 L708 352 Z M349 75 C303 75 266.833 83.6667 240.5 101 C214.167 118.333 195 142.833 183 174.5 C171 206.167 165.667 245.667 167 293 C168.333 335.667 175 375 187 411 C199 447 215.833 478 237.5 504 C259.166 530 285.833 550 317.5 564 C349.166 578 384.333 585 423 585 C545.667 585 606 512.333 604 367 C602 277 578.667 205.833 534 153.5 C489.333 101.167 427.667 75 349 75 L349 75 Z " />
<glyph glyph-name="R" unicode="R" horiz-adv-x="582" d="M541 0 L402 273 C442 291.667 474 319 498 355 C522 391 534 434.333 534 485 C534 543.667 517 587.667 483 617 C449 646.333 399.333 661 334 661 C269.333 661 211.333 660 160 658 L56 0 L155 0 L194 246 C216 244 237.333 243 258 243 C276.666 243 294.333 244 311 246 L425 0 L541 0 Z M208 332 L245 572 L305 574 C349.667 574 381.667 566.167 401 550.5 C420.333 534.833 430 508.667 430 472 C430 426.667 415.833 391.667 387.5 367 C359.167 342.333 319 330 267 330 L208 332 Z " />
<glyph glyph-name="S" unicode="S" horiz-adv-x="481" d="M291 671 C231 671 183 654.5 147 621.5 C111 588.5 93 545 93 491 C93 470.333 96.1667 450.667 102.5 432 C108.833 413.333 119 395.5 133 378.5 C147 361.5 174 335 214 299 C266.666 253 297.833 222.833 307.5 208.5 C317.167 194.167 322 181.333 322 170 C322 154.667 317.667 140 309 126 C300.333 112 287.833 100.833 271.5 92.5 C255.167 84.1667 234.333 80 209 80 C173.667 80 125.333 87.6667 64 103 L44 13 C106 -3 160.333 -11 207 -11 C244.333 -11 277.167 -5.5 305.5 5.5 C333.833 16.5 356.667 31.1667 374 49.5 C391.333 67.8333 404.167 88 412.5 110 C420.833 132 425 154 425 176 C425 189.333 423.5 201.666 420.5 213 C417.5 224.333 412.667 235.833 406 247.5 C399.333 259.167 389.833 271.167 377.5 283.5 C365.167 295.833 349.5 310.667 330.5 328 C311.5 345.333 300 356 296 360 C250 402.667 221.5 431.167 210.5 445.5 C199.5 459.833 194 475.333 194 492 C194 520.667 202.667 542.833 220 558.5 C237.333 574.167 261.667 582 293 582 C328.333 582 373.333 574.667 428 560 L447 646 C387.667 662.667 335.667 671 291 671 L291 671 Z " />
<glyph glyph-name="T" unicode="T" horiz-adv-x="553" d="M616 660 L77 660 L63 570 L284 570 L193 0 L294 0 L385 570 L602 570 L616 660 Z " />
<glyph glyph-name="U" unicode="U" horiz-adv-x="711" d="M689 660 L588 660 L515 206 C509.669 175.333 500.335 150.333 487 131 C473.667 111.667 454.334 98.5 429 91.5 C403.667 84.5 373 81 337 81 C298.333 81 267.667 85 245 93 C222.334 101 206.167 113.833 196.5 131.5 C186.833 149.167 185 175 191 209 L262 660 L159 660 L86 194 C78.6667 148 81.8333 110.333 95.5 81 C109.167 51.6667 134 29 170 13 C206 -3 258.333 -11.3333 327 -12 C398.333 -12.6667 453.167 -5 491.5 11 C529.833 27 558.333 49.1667 577 77.5 C595.667 105.833 608.333 142 615 186 L689 660 Z " />
<glyph glyph-name="V" unicode="V" horiz-adv-x="598" d="M549 660 L293 143 L272 97 L265 143 L187 660 L77 660 L188 0 L327 0 L661 660 L549 660 Z " />
<glyph glyph-name="W" unicode="W" horiz-adv-x="878" d="M824 660 L630 112 L576 660 L444 660 L213 120 L191 660 L92 660 L123 0 L257 0 L493 548 L549 0 L684 0 L926 660 L824 660 Z " />
<glyph glyph-name="X" unicode="X" horiz-adv-x="580" d="M637 660 L517 660 L323 417 L208 660 L91 660 L253 335 L-25 0 L100 0 L300 247 L420 0 L538 0 L370 331 L637 660 Z " />
<glyph glyph-name="Y" unicode="Y" horiz-adv-x="581" d="M526 660 L350 424 C347.333 420 341.333 411.833 332 399.5 C322.667 387.167 316 377.667 312 371 C308.668 381 301.335 399 290 425 L188 660 L77 660 L246 281 L202 0 L305 0 L351 281 L644 660 L526 660 Z " />
<glyph glyph-name="Z" unicode="Z" horiz-adv-x="543" d="M593 660 L100 660 L86 569 L438 569 L-7 68 L-17 0 L490 0 L504 91 L140 91 L583 593 L593 660 Z " />
<glyph glyph-name="bracketleft" unicode="&#x5b;" horiz-adv-x="320" d="M351 663 L363 735 L159 735 L5 -239 L209 -239 L220 -166 L100 -166 L231 663 L351 663 Z " />
<glyph glyph-name="backslash" unicode="&#x5c;" horiz-adv-x="412" d="M107 735 L235 -239 L320 -239 L196 735 L107 735 Z " />
<glyph glyph-name="bracketright" unicode="&#x5d;" horiz-adv-x="320" d="M120 735 L108 662 L228 662 L98 -167 L-23 -167 L-34 -239 L169 -239 L323 735 L120 735 Z " />
<glyph glyph-name="asciicircum" unicode="&#x5e;" horiz-adv-x="515" d="M497 0 L308 472 L227 472 L22 0 L112 0 L264 364 L405 0 L497 0 Z " />
<glyph glyph-name="underscore" unicode="&#x5f;" horiz-adv-x="549" d="M11 -55 L-1 -133 L437 -133 L450 -55 L11 -55 Z " />
<glyph glyph-name="grave" unicode="&#x60;" horiz-adv-x="198" d="M84 660 L151 521 L232 521 L174 660 L84 660 Z " />
<glyph glyph-name="a" unicode="a" horiz-adv-x="510" d="M328 456 C285.333 456 246 448.5 210 433.5 C174 418.5 143.333 397.333 118 370 C92.6667 342.667 73.3334 310.167 60 272.5 C46.6667 234.833 40 194 40 150 C40 42.6667 86 -11 178 -11 C234 -11 281.333 13.3333 320 62 L309 0 L402 0 L472 441 C452 445 428 448.5 400 451.5 C372 454.5 348 456 328 456 L328 456 Z M203 69 C157 69 134 99 134 159 C134 221 150.667 272.5 184 313.5 C217.333 354.5 260.667 375 314 375 C333.333 375 351 373.667 367 371 L328 139 C288 92.3333 246.333 69 203 69 L203 69 Z " />
<glyph glyph-name="b" unicode="b" horiz-adv-x="515" d="M331 457 C279 457 235.333 439 200 403 L253 735 L156 735 L43 11 C110.333 -3.66667 165.667 -11 209 -11 C250.333 -11 288 -3 322 13 C356 29 384.5 50.8333 407.5 78.5 C430.5 106.167 447.833 138 459.5 174 C471.167 210 477 247.333 477 286 C477 324 470.833 356.5 458.5 383.5 C446.167 410.5 428.5 429.5 405.5 440.5 C382.5 451.5 357.667 457 331 457 L331 457 Z M214 70 C195.333 70 173.333 72.6667 148 78 L188 331 C221.333 361.667 257.333 377 296 377 C326 377 347.5 368.167 360.5 350.5 C373.5 332.833 380 307.333 380 274 C380 239.333 374.667 208.667 364 182 C353.333 155.333 340 133.5 324 116.5 C308 99.5 290.333 87.5 271 80.5 C251.667 73.5 232.667 70 214 70 L214 70 Z " />
<glyph glyph-name="c" unicode="c" horiz-adv-x="408" d="M399 361 L417 439 C379 451 338.333 457 295 457 C257 457 222.167 450 190.5 436 C158.833 422 132.167 402.167 110.5 376.5 C88.8333 350.833 72.1667 320.5 60.5 285.5 C48.8333 250.5 43 212.667 43 172 C43 49.3333 101.333 -12 218 -12 C261.333 -12 306.667 -7 354 3 L345 83 C307.667 74.3333 272.667 70 240 70 C203.333 70 177 78.6667 161 96 C145 113.333 137 140.667 137 178 C137 209.333 142.833 240.667 154.5 272 C166.167 303.333 183.667 328.5 207 347.5 C230.333 366.5 258.667 376 292 376 C323.333 376 359 371 399 361 L399 361 Z " />
<glyph glyph-name="d" unicode="d" horiz-adv-x="513" d="M428 735 L382 452 C361.333 454.667 338.333 456 313 456 C269.667 456 230.667 447.667 196 431 C161.333 414.333 132.5 391.833 109.5 363.5 C86.5 335.167 69.1667 302.667 57.5 266 C45.8333 229.333 40 191.333 40 152 C40 98.6667 51.6667 57.8333 75 29.5 C98.3333 1.16667 130.667 -13 172 -13 C228.667 -13 279 12.3333 323 63 L313 0 L405 0 L522 735 L428 735 Z M206 68 C158 68 134 100.333 134 165 C134 193 138.5 221.5 147.5 250.5 C156.5 279.5 170.667 304 190 324 C209.333 344 229.5 357.667 250.5 365 C271.5 372.333 292 376 312 376 C330 376 349.333 373.667 370 369 L332 136 C314 116 293.667 99.6667 271 87 C248.333 74.3333 226.667 68 206 68 L206 68 Z " />
<glyph glyph-name="e" unicode="e" horiz-adv-x="476" d="M429 211 C434.333 236.333 437 267.333 437 304 C437 352 424.167 389.333 398.5 416 C372.833 442.667 334 456 282 456 C246.667 456 214.167 449 184.5 435 C154.833 421 129.5 401.167 108.5 375.5 C87.5 349.833 71.5 319.667 60.5 285 C49.5 250.333 44 213 44 173 C44 111.667 59 65.6667 89 35 C119 4.33333 164.667 -11 226 -11 C252 -11 280.667 -8.66666 312 -4 C343.333 0.666672 371.333 6.66667 396 14 L381 87 C329.667 73 281.667 66 237 66 C201 66 175.333 74.1667 160 90.5 C144.667 106.833 137 135.333 137 176 L139 211 L429 211 Z M275 381 C323 381 347 355.667 347 305 L345 279 L154 279 C158.667 293 165.833 308 175.5 324 C185.167 340 198.667 353.5 216 364.5 C233.333 375.5 253 381 275 381 L275 381 Z " />
<glyph glyph-name="f" unicode="f" horiz-adv-x="339" d="M338 662 C367.333 662 396 656 424 644 L450 720 C406.667 737.333 365 746 325 746 C225.667 746 168 694 152 590 L129 446 L56 446 L44 365 L116 365 L58 0 L151 0 L209 365 L349 365 L363 446 L222 446 L242 576 C247.333 605.333 257.5 627 272.5 641 C287.5 655 309.333 662 338 662 L338 662 Z " />
<glyph glyph-name="g" unicode="g" horiz-adv-x="512" d="M319 454 C267.667 454 223.333 444 186 424 C148.667 404 119.5 378.333 98.5 347 C77.5 315.667 62.3333 282.5 53 247.5 C43.6667 212.5 39 179.667 39 149 C39 95.6667 51.6667 55.6667 77 29 C102.333 2.33333 136 -11 178 -11 C235.333 -11 282.667 11.6667 320 57 L299 -81 C294.333 -112.333 280.167 -136.167 256.5 -152.5 C232.833 -168.833 201.667 -177 163 -177 C119.667 -177 74.6667 -170.667 28 -158 L7 -241 C63.6667 -254.333 119 -261 173 -261 C234.333 -261 283.833 -246.667 321.5 -218 C359.167 -189.333 382 -148.667 390 -96 L472 439 C412 449 361.333 454 320 454 L319 454 Z M206 66 C158 66 134 97.6667 134 161 C134 191 140 223.333 152 258 C164 292.667 184.167 321 212.5 343 C240.833 365 274 376 312 376 C329.333 376 348.333 374.667 369 372 L333 139 C313.667 115.667 293 97.6667 271 85 C249 72.3333 227.333 66 206 66 L206 66 Z " />
<glyph glyph-name="h" unicode="h" horiz-adv-x="529" d="M361 456 C299.667 456 244.667 433.667 196 389 L251 735 L157 735 L40 0 L135 0 L185 318 C229 357.333 272.667 377 316 377 C339.333 377 356 371.333 366 360 C376 348.667 379 330.667 375 306 L327 0 L422 0 L476 341 C481.333 376.333 473.833 404.333 453.5 425 C433.167 445.667 402.334 456 361 456 L361 456 Z " />
<glyph glyph-name="i" unicode="i" horiz-adv-x="249" d="M241 594 C241.667 609.333 237.167 622.5 227.5 633.5 C217.833 644.5 205.333 650 190 650 C178 650 166.5 646.5 155.5 639.5 C144.5 632.5 136.667 624.167 132 614.5 C127.333 604.833 124.667 596 124 588 C122.667 573.336 126.667 560.669 136 550 C145.333 539.333 157.667 534 173 534 C190.333 534 205.666 539.833 219 551.5 C232.333 563.167 239.666 577.333 241 594 L241 594 Z M209 446 L111 446 L41 0 L139 0 L209 446 Z " />
<glyph glyph-name="j" unicode="j" horiz-adv-x="262" d="M252 594 C253.333 609.333 249 622.5 239 633.5 C229 644.5 216.333 650 201 650 C189 650 177.667 646.5 167 639.5 C156.333 632.5 148.5 624.167 143.5 614.5 C138.5 604.833 135.667 596 135 588 C134.333 573.336 138.666 560.669 148 550 C157.333 539.333 169.666 534 185 534 C197 534 208.667 537.333 220 544 C231.333 550.667 239.333 558.667 244 568 C248.667 577.333 251.333 586 252 594 L252 594 Z M219 446 L121 446 L48 -20 C44.6667 -48.6667 34.5 -76.6667 17.5 -104 C0.5 -131.333 -24.6667 -161 -58 -193 L8 -263 C52.6667 -222.333 84.3333 -185.5 103 -152.5 C121.667 -119.5 135.667 -76 145 -22 L219 446 Z " />
<glyph glyph-name="k" unicode="k" horiz-adv-x="479" d="M156 735 L40 0 L137 0 L253 735 L156 735 Z M484 446 L366 446 L189 259 L326 0 L438 0 L295 252 L484 446 Z " />
<glyph glyph-name="l" unicode="l" horiz-adv-x="245" d="M254 735 L157 735 L40 0 L138 0 L254 735 Z " />
<glyph glyph-name="m" unicode="m" horiz-adv-x="795" d="M621 457 C588.334 457 559.168 451.833 533.5 441.5 C507.833 431.167 484.333 415.334 463 394 C457 414 443.833 429.5 423.5 440.5 C403.167 451.5 377.667 457 347 457 C317.667 457 290.667 452.167 266 442.5 C241.333 432.833 217.333 417.333 194 396 L202 446 L111 446 L40 0 L135 0 L186 325 C224.667 360.333 263.667 378 303 378 C315 378 326.5 376.167 337.5 372.5 C348.5 368.833 356.5 362.167 361.5 352.5 C366.5 342.833 367.667 331.667 365 319 L316 0 L411 0 L463 327 C501 361 540 378 580 378 C603.333 378 620.333 373 631 363 C641.667 353 645.333 338.333 642 319 L593 0 L688 0 L742 342 C747.333 378 739.333 406.167 718 426.5 C696.667 446.833 664.333 457 621 457 L621 457 Z " />
<glyph glyph-name="n" unicode="n" horiz-adv-x="529" d="M358 457 C296 457 241 432.333 193 383 L202 446 L111 446 L40 0 L135 0 L184 315 C228 357 271.333 378 314 378 C336.667 378 353.5 372.5 364.5 361.5 C375.5 350.5 379.333 334.333 376 313 L327 0 L422 0 L476 341 C481.333 375.667 473.5 403.667 452.5 425 C431.5 446.333 400 457 358 457 L358 457 Z " />
<glyph glyph-name="o" unicode="o" horiz-adv-x="527" d="M298 456 C258.667 456 222.833 448.667 190.5 434 C158.167 419.333 131.167 399.167 109.5 373.5 C87.8333 347.833 71.5 318.5 60.5 285.5 C49.5 252.5 44 218 44 182 C44 119.333 60.1667 71.5 92.5 38.5 C124.833 5.5 171.333 -11 232 -11 C270 -11 304.833 -4.33333 336.5 9 C368.167 22.3333 395 41.1667 417 65.5 C439 89.8333 455.833 118.667 467.5 152 C479.167 185.333 485 221 485 259 C485 323 468.833 371.833 436.5 405.5 C404.167 439.167 358 456 298 456 L298 456 Z M240 69 C206.667 69 181.5 79.1667 164.5 99.5 C147.5 119.833 139 149.667 139 189 C139 228.333 145.833 262 159.5 290 C173.167 318 191 339.5 213 354.5 C235 369.5 260.667 377 290 377 C356 377 389 335.667 389 253 C389 199 375.833 154.833 349.5 120.5 C323.167 86.1667 286.667 69 240 69 L240 69 Z " />
<glyph glyph-name="p" unicode="p" horiz-adv-x="517" d="M341 456 C313.667 456 287.167 450.667 261.5 440 C235.833 429.333 213.333 414 194 394 L201 446 L111 446 L1 -251 L95 -251 L136 9 C168 -5 201.667 -12 237 -12 C273.666 -12 307.333 -4 338 12 C368.667 28 394.333 50 415 78 C435.666 106 451.332 138 462 174 C472.667 210 478 247.333 478 286 C478 399.333 432.333 456 341 456 L341 456 Z M226 69 C201.333 69 175.333 74 148 84 L186 326 C204.667 342 224.333 354.167 245 362.5 C265.667 370.833 285.667 375 305 375 C332.333 375 352 366.833 364 350.5 C376 334.167 382 309.667 382 277 C382 243.667 377.167 213.5 367.5 186.5 C357.833 159.5 345.5 137 330.5 119 C315.5 101 298.833 88.1667 280.5 80.5 C262.167 72.8333 244 69 226 69 L226 69 Z " />
<glyph glyph-name="q" unicode="q" horiz-adv-x="514" d="M310 456 C270 454.667 233.333 446.167 200 430.5 C166.667 414.833 139.5 395 118.5 371 C97.5 347 81.3333 322.167 70 296.5 C58.6667 270.833 50.8333 245.333 46.5 220 C42.1667 194.667 40 172 40 152 C39.3333 98 51.5 57 76.5 29 C101.5 1 137.667 -12.6667 185 -12 C237 -12 282.667 9.66667 322 53 L274 -250 L366 -250 L477 441 C452.333 445.667 424 449.5 392 452.5 C360 455.5 332.667 456.667 310 456 L310 456 Z M210 69 C159.333 69 134 100.333 134 163 C134 198.333 141.667 233.333 157 268 C172.333 302.666 194 329.333 222 348 C250 366.667 278.667 376 308 376 C330.667 376 352 374.667 372 372 L335 137 C311 113 289.167 95.6667 269.5 85 C249.833 74.3333 230 69 210 69 L210 69 Z " />
<glyph glyph-name="r" unicode="r" horiz-adv-x="332" d="M343 364 L357 450 C343 452 328.333 453 313 453 C263 453 224.333 434.333 197 397 L205 446 L111 446 L41 0 L137 0 L189 322 C213.667 350.667 253.333 365 308 365 L343 364 Z " />
<glyph glyph-name="s" unicode="s" horiz-adv-x="369" d="M210 456 C164 456 127.5 443 100.5 417 C73.5 391 60 358.667 60 320 C60 301.333 62.8333 286 68.5 274 C74.1665 262 79.8332 252.333 85.5 245 C91.1667 237.667 98.6667 230.167 108 222.5 C117.333 214.833 136.167 203.167 164.5 187.5 C192.833 171.833 209.666 160 215 152 C220.333 144 223.333 137.833 224 133.5 C224.667 129.167 225 126.333 225 125 C225 111 219 98.5 207 87.5 C195 76.5 178.333 71 157 71 C144.333 71 126.833 73 104.5 77 C82.1667 81 63 85.6667 47 91 L26 13 C76 -2.33333 120 -10 158 -10 C192 -10 222 -3.5 248 9.5 C274 22.5 292 39.5 302 60.5 C312 81.5 317 102.667 317 124 C317 144.667 313.833 161.833 307.5 175.5 C301.168 189.167 293.334 201 284 211 C274.667 221 265 229.167 255 235.5 C245 241.833 227.833 251.5 203.5 264.5 C179.167 277.5 164 288.667 158 298 C152 307.333 149 316.333 149 325 C149 339 154.667 351 166 361 C177.333 371 194 376 216 376 C242 376 277 369.667 321 357 L340 435 C292 449 248.667 456 210 456 L210 456 Z " />
<glyph glyph-name="t" unicode="t" horiz-adv-x="340" d="M207 364 L330 364 L343 446 L220 446 L242 584 L149 584 L127 446 L55 446 L41 364 L114 364 L74 115 C67.3333 73.6667 73 42.8333 91 22.5 C109 2.16667 139.667 -8 183 -8 C218.333 -8 254.667 -3.66667 292 5 L282 84 C256.667 78.6667 235.667 76 219 76 C198.333 76 184.333 80 177 88 C169.667 96 167.333 109.667 170 129 L207 364 Z " />
<glyph glyph-name="u" unicode="u" horiz-adv-x="525" d="M389 446 L338 125 C297.333 87 256 68 214 68 C165.333 68 145.333 94 154 146 L203 446 L107 446 L54 108 C48 71.3333 55.3333 42.3333 76 21 C96.6667 -0.333328 128.333 -11 171 -11 C231 -11 284.667 12.6667 332 60 L322 0 L414 0 L484 446 L389 446 Z " />
<glyph glyph-name="v" unicode="v" horiz-adv-x="428" d="M358 446 L189 86 L134 446 L33 446 L116 0 L239 0 L460 446 L358 446 Z " />
<glyph glyph-name="w" unicode="w" horiz-adv-x="713" d="M638 446 L499 77 L460 446 L325 446 L161 77 L137 446 L43 446 L78 0 L215 0 L380 371 L417 0 L559 0 L735 446 L638 446 Z " />
<glyph glyph-name="x" unicode="x" horiz-adv-x="450" d="M473 446 L363 446 L234 289 L160 446 L58 446 L163 228 L-30 0 L84 0 L218 162 L294 0 L398 0 L288 225 L473 446 Z " />
<glyph glyph-name="y" unicode="y" horiz-adv-x="456" d="M372 446 L219 151 C209 131.667 198.333 109 187 83 C186.333 97 184.333 119.667 181 151 L149 446 L46 446 L116 -9 C92.6667 -51 68 -84.3333 42 -109 C16 -133.667 -14.6667 -153 -50 -167 L-16 -248 C37.3333 -224 82.8333 -193.833 120.5 -157.5 C158.167 -121.167 193.333 -73 226 -13 L479 446 L372 446 Z " />
<glyph glyph-name="z" unicode="z" horiz-adv-x="465" d="M441 446 L83 446 L73 363 L303 363 L22 71 L13 0 L382 0 L394 83 L155 83 L430 371 L441 446 Z " />
<glyph glyph-name="braceleft" unicode="&#x7b;" horiz-adv-x="388" d="M332 735 C314.667 735 298.334 731.333 283 724 C267.667 716.667 256.167 706.333 248.5 693 C240.833 679.667 236 666.667 234 654 L188 362 C185.334 343.333 180.167 328.833 172.5 318.5 C164.833 308.167 151.833 301 133.5 297 C115.167 293 93.6667 290.667 69 290 L56 213 C92.6667 211 117.667 207.5 131 202.5 C144.333 197.5 151.833 189.167 153.5 177.5 C155.167 165.833 155 152.333 153 137 L111 -125 C105 -161.667 104.167 -187 108.5 -201 C112.833 -215 122.333 -224.833 137 -230.5 C151.667 -236.167 170.667 -239 194 -239 L277 -239 L290 -166 L230 -166 C216 -166 205.833 -164.167 199.5 -160.5 C193.167 -156.833 189.5 -151.667 188.5 -145 C187.5 -138.333 188 -127.333 190 -112 L232 157 C236.667 186.333 233 208.166 221 222.5 C209 236.833 187 246 155 250 C217.667 258.667 253 288.667 261 340 L306 620 C308.667 638.667 314.5 650.5 323.5 655.5 C332.5 660.5 344 663 358 663 L419 663 L432 735 L332 735 Z " />
<glyph glyph-name="bar" unicode="&#x7c;" horiz-adv-x="292" d="M271 735 L183 735 L29 -239 L116 -239 L271 735 Z " />
<glyph glyph-name="braceright" unicode="&#x7d;" horiz-adv-x="388" d="M243 359 L285 621 C291 657.667 291.833 683 287.5 697 C283.167 711 273.667 720.833 259 726.5 C244.333 732.167 225.333 735 202 735 L118 735 L106 662 L166 662 C180 662 190.167 660.167 196.5 656.5 C202.833 652.843 206.5 647.677 207.5 641 C208.5 634.333 208 623.333 206 608 L164 340 C159.333 310.667 163 288.667 175 274 C187 259.333 209 250 241 246 C178.333 237.333 143 207.333 135 156 L90 -123 C86.6667 -142.333 80.6667 -154.333 72 -159 C63.3333 -163.667 52 -166 38 -166 L-23 -166 L-36 -239 L64 -239 C81.3333 -239 97.6667 -235.333 113 -228 C128.333 -220.666 139.833 -210.333 147.5 -197 C155.167 -183.667 160 -170.667 162 -158 L208 135 C210.667 153.667 215.833 168 223.5 178 C231.167 188 244.167 195 262.5 199 C280.833 203 302.333 205.333 327 206 L340 283 C288 285.667 257.667 292.167 249 302.5 C240.333 312.833 238.333 331.667 243 359 L243 359 Z " />
<glyph glyph-name="asciitilde" unicode="&#x7e;" horiz-adv-x="569" d="M171 311 C153 311 133 307 111 299 C89 291 57.6667 275 17 251 L55 181 C92.3333 203.667 119.5 217.333 136.5 222 C153.5 226.667 167.333 229 178 229 C186 229 197.167 227.5 211.5 224.5 C225.833 221.5 253.833 211.333 295.5 194 C337.167 176.667 370.667 168 396 168 C409.333 168 426.667 170.833 448 176.5 C469.333 182.167 504 199.333 552 228 L513 297 C512.337 296.333 507.337 293.333 498 288 C488.669 282.667 478.835 277.334 468.5 272 C458.167 266.667 448 262.167 438 258.5 C428 254.833 419.333 252.333 412 251 C404.667 249.667 398.667 249 394 249 C386 249 375.333 250.5 362 253.5 C348.667 256.5 320.667 266.833 278 284.5 C235.333 302.167 199.667 311 171 311 L171 311 Z " />
<glyph glyph-name="uni00A0" unicode="&#xa0;" horiz-adv-x="175" d="" />
<glyph glyph-name="exclamdown" unicode="&#xa1;" horiz-adv-x="363" d="M133 385 C132.333 367 137.666 351.833 149 339.5 C160.333 327.167 175 321 193 321 C202.333 321 212.833 323.5 224.5 328.5 C236.167 333.5 246.667 342.167 256 354.5 C265.333 366.833 270.333 380.333 271 395 C272.333 413 267.5 428.167 256.5 440.5 C245.5 452.833 231 459 213 459 C193 459 175 451.667 159 437 C143 422.333 134.333 405 133 385 L133 385 Z M164 -191 L234 255 L132 255 L62 -191 L164 -191 Z " />
<glyph glyph-name="cent" unicode="&#xa2;" horiz-adv-x="448" d="M428 358 L448 439 C419.333 445.667 389.667 450.667 359 454 L370 518 L300 518 L290 456 C252.667 454 218.5 445.833 187.5 431.5 C156.5 417.167 130.333 397.5 109 372.5 C87.6667 347.5 71.5 318.167 60.5 284.5 C49.5 250.833 44 214.333 44 175 C44 128.333 52.3333 91.5 69 64.5 C85.6667 37.5 106.333 18.5 131 7.5 C155.667 -3.5 183.333 -9.66667 214 -11 L205 -67 L275 -67 L284 -10 C320 -6.66667 353.667 -2.33333 385 3 L374 84 C350 79.3333 324.667 75.6667 298 73 L346 372 C375.333 369.333 402.667 364.667 428 358 L428 358 Z M140 181 C140 199 142.833 219.833 148.5 243.5 C154.167 267.166 163.667 288.333 177 307 C190.333 325.667 205.5 340 222.5 350 C239.5 360 257.333 366.667 276 370 L228 74 C196.667 78 174.167 88.5 160.5 105.5 C146.833 122.5 140 147.667 140 181 L140 181 Z " />
<glyph glyph-name="sterling" unicode="&#xa3;" horiz-adv-x="478" d="M393 586 C423 586 452.333 581.667 481 573 L501 655 C465 665.667 426.333 671 385 671 C349 671 317 664.167 289 650.5 C261 636.833 238.167 615.833 220.5 587.5 C202.833 559.167 191 524 185 482 L169 381 L101 381 L88 303 L156 303 L126 114 C124 100 118.167 88.6667 108.5 80 C98.8333 71.3333 79.6667 67 51 67 L41 0 L391 0 L404 83 L247 83 C235.667 83 211.333 78.3333 174 69 C190 81.6667 200.5 90.5 205.5 95.5 C210.5 100.5 214.167 106.667 216.5 114 C218.833 121.333 220.333 126.667 221 130 L249 303 L416 303 L428 381 L261 381 L278 481 C282.667 515 293.5 541 310.5 559 C327.5 577 355 586 393 586 L393 586 Z " />
<glyph glyph-name="currency" unicode="&#xa4;" horiz-adv-x="580" d="M494 224 C497.333 246 497 267.333 493 288 C489 308.667 483 327 475 343 L549 413 L494 471 L422 402 C408 411.333 391.833 418.833 373.5 424.5 C355.167 430.167 336.667 433 318 433 C294 433 270.667 429.167 248 421.5 C225.333 413.833 205.333 404 188 392 L115 471 L56 416 L128 338 C115.333 322 104.5 303.833 95.5 283.5 C86.5 263.167 80.6667 243.333 78 224 C74.6667 204 74.6667 183.5 78 162.5 C81.3333 141.5 87 123 95 107 L16 33 L71 -25 L148 48 C161.333 38.6667 177.333 31.1667 196 25.5 C214.667 19.8333 233.333 17 252 17 C274 17 297 20.8333 321 28.5 C345 36.1667 366.333 46 385 58 L461 -25 L519 30 L444 112 C456 127.333 466.5 145.167 475.5 165.5 C484.5 185.833 490.667 205.333 494 224 L494 224 Z M155 223 C159 247.667 170.333 271.333 189 294 C207.667 316.667 227.667 332.667 249 342 C270.333 351.333 289 356 305 356 C339 356 367.333 342.333 390 315 C412.665 287.667 421.332 257 416 223 C412 197.667 400.5 174.167 381.5 152.5 C362.5 130.833 342 115.667 320 107 C298 98.3333 279 94 263 94 C229.667 94 202 107 180 133 C158 159 149.667 189 155 223 L155 223 Z " />
<glyph glyph-name="yen" unicode="&#xa5;" horiz-adv-x="601" d="M359 297 L655 660 L534 660 L334 404 L320 384 L313 405 L200 660 L87 660 L258 297 L258 286 L107 286 L97 220 L248 220 L236 147 L86 147 L76 81 L225 81 L212 0 L308 0 L321 81 L472 81 L483 147 L332 147 L343 220 L494 220 L505 286 L355 286 L359 297 Z " />
<glyph glyph-name="brokenbar" unicode="&#xa6;" horiz-adv-x="302" d="M276 735 L189 735 L121 316 L209 316 L276 735 Z M193 207 L105 207 L34 -239 L122 -239 L193 207 Z " />
<glyph glyph-name="section" unicode="&#xa7;" horiz-adv-x="490" d="M207 -65 L188 506 C187.333 538.667 196.167 562.833 214.5 578.5 C232.833 594.167 262 602 302 602 C320.667 602 344.667 599.5 374 594.5 C403.333 589.5 430 583.667 454 577 L471 645 C433.667 655 398.667 662 366 666 C333.333 670 308.333 672 291 672 C232.333 672 187.667 659 157 633 C126.333 607 111.667 571.333 113 526 L134 -138 C145.333 -138 157.5 -134.5 170.5 -127.5 C183.5 -120.5 192.833 -111.167 198.5 -99.5 C204.167 -87.8333 207 -76.3333 207 -65 L207 -65 Z M288 517 L306 -54 C306.668 -86.6667 297.834 -110.833 279.5 -126.5 C261.167 -142.167 232.333 -150 193 -150 C173.667 -150 149.333 -147.5 120 -142.5 C90.6667 -137.5 64 -132 40 -126 L23 -194 C60.3333 -204 95.5 -211 128.5 -215 C161.5 -219 186.667 -221 204 -221 C262 -221 306.333 -208 337 -182 C367.666 -156 382.333 -120.333 381 -75 L360 590 C348.667 590 336.5 586.5 323.5 579.5 C310.5 572.5 301.167 563.167 295.5 551.5 C289.833 539.833 287.333 528.333 288 517 L288 517 Z " />
<glyph glyph-name="dieresis" unicode="&#xa8;" horiz-adv-x="334" d="M138 649 C120 649 104.5 642.5 91.5 629.5 C78.5 616.5 72 601.333 72 584 C72 569.333 76.8333 557 86.5 547 C96.1667 537 108.667 532 124 532 C141.333 532 156.667 538.5 170 551.5 C183.333 564.5 190 579.667 190 597 C190 611.667 185.167 624 175.5 634 C165.833 644 153.333 649 138 649 L138 649 Z M323 649 C305 649 289.5 642.333 276.5 629 C263.5 615.667 257 600.333 257 583 C257 568.338 261.833 556.171 271.5 546.5 C281.167 536.833 293.667 532 309 532 C327 532 342.667 538.5 356 551.5 C369.333 564.5 376 579.667 376 597 C376 611.667 371 624 361 634 C351 644 338.333 649 323 649 L323 649 Z " />
<glyph glyph-name="copyright" unicode="&#xa9;" horiz-adv-x="784" d="M396 546 C353.333 546 312.667 538 274 522 C235.333 506 201.5 483.5 172.5 454.5 C143.5 425.5 120.833 391.833 104.5 353.5 C88.1667 315.167 80 275 80 233 C80 191.667 88.1667 151.833 104.5 113.5 C120.833 75.1667 143.5 41.5 172.5 12.5 C201.5 -16.5 235.5 -39.1667 274.5 -55.5 C313.5 -71.8333 354 -80 396 -80 C427.333 -80 460.5 -74.5 495.5 -63.5 C530.5 -52.5 561.833 -35.6667 589.5 -13 C617.167 9.66667 639.5 33.6667 656.5 59 C673.5 84.3333 686.667 112 696 142 C705.333 172 710 202.333 710 233 C710 275 701.833 315.167 685.5 353.5 C669.167 391.833 646.667 425.5 618 454.5 C589.334 483.5 555.668 506 517 522 C478.333 538 438 546 396 546 L396 546 Z M396 487 C430 487 464.5 479.5 499.5 464.5 C534.5 449.5 564 427.5 588 398.5 C612 369.5 628.333 340.833 637 312.5 C645.667 284.167 650 257.667 650 233 C650 199.667 643.5 167.5 630.5 136.5 C617.5 105.5 599.333 78.3333 576 55 C552.667 31.6667 525.333 13.3333 494 0 C462.667 -13.3333 430 -20 396 -20 C362 -20 331.167 -14.1667 303.5 -2.5 C275.833 9.16667 252.5 22.8333 233.5 38.5 C214.5 54.1667 198 72.1667 184 92.5 C170 112.833 159.167 135.167 151.5 159.5 C143.833 183.833 140 208.333 140 233 C140 266.333 147.5 300.5 162.5 335.5 C177.5 370.5 199.5 400 228.5 424 C257.5 448 286.333 464.5 315 473.5 C343.667 482.5 370.667 487 396 487 L396 487 Z M411 401 C358.333 401 317.667 385.667 289 355 C260.333 324.333 246 284 246 234 C246 200 252.5 171.167 265.5 147.5 C278.5 123.833 296.5 105.667 319.5 93 C342.5 80.3333 371 74 405 74 C436.333 74 468 78 500 86 L490 141 C463.333 134.333 438 131 414 131 C384 131 359 139.5 339 156.5 C319 173.5 309 199.667 309 235 C309 265.667 318 291.5 336 312.5 C354 333.5 381.333 344 418 344 C441.333 344 466.333 341 493 335 L503 390 C471 397.333 440.333 401 411 401 L411 401 Z " />
<glyph glyph-name="ordfeminine" unicode="&#xaa;" horiz-adv-x="343" d="M266 673 C230.667 673 199.5 666.667 172.5 654 C145.5 641.333 123.667 624.333 107 603 C90.3333 581.667 78 558.167 70 532.5 C62 506.833 58 481 58 455 C58 415.667 67 386.667 85 368 C103 349.333 128 340 160 340 C180.667 340 198.833 344 214.5 352 C230.167 360 245 373 259 391 L251 346 L316 346 L365 663 C352.333 665.667 335.833 668 315.5 670 C295.167 672 278.667 673 266 673 L266 673 Z M175 397 C142.333 397 126 418.667 126 462 C126 487.333 130.833 511.833 140.5 535.5 C150.167 559.167 164.833 578.167 184.5 592.5 C204.167 606.833 228.333 614 257 614 L291 612 L265 446 C234.333 413.333 204.333 397 175 397 L175 397 Z " />
<glyph glyph-name="guillemotleft" unicode="&#xab;" horiz-adv-x="528" d="M305 420 L203 420 L72 258 L152 68 L245 68 L166 253 L305 420 Z M498 420 L395 420 L265 258 L344 68 L438 68 L359 253 L498 420 Z " />
<glyph glyph-name="logicalnot" unicode="&#xac;" horiz-adv-x="628" d="M35 349 L33 269 L495 269 L492 93 L574 93 L578 349 L35 349 Z " />
<glyph glyph-name="uni00AD" unicode="&#xad;" horiz-adv-x="340" d="M59 271 L46 194 L280 194 L292 271 L59 271 Z " />
<glyph glyph-name="registered" unicode="&#xae;" horiz-adv-x="507" d="M288 681 C258.667 681 230.667 675.333 204 664 C177.333 652.667 154 637 134 617 C114 597 98.3333 573.833 87 547.5 C75.6667 521.167 70 493.333 70 464 C70 434.667 76.3333 405 89 375 C101.667 345 120.333 319.833 145 299.5 C169.667 279.167 194.167 265.167 218.5 257.5 C242.833 249.833 266 246 288 246 C317.333 246 346.833 252.333 376.5 265 C406.167 277.667 431.167 296.333 451.5 321 C471.833 345.667 485.833 370.167 493.5 394.5 C501.167 418.833 505 442 505 464 C505 493.333 499.333 521.167 488 547.5 C476.667 573.833 461 597 441 617 C421 637 397.833 652.667 371.5 664 C345.167 675.333 317.334 681 288 681 L288 681 Z M288 290 C259.333 290 231 297.667 203 313 C175 328.333 153.333 350 138 378 C122.667 406 115 434.333 115 463 C115 486.333 120 509.833 130 533.5 C140 557.167 155 577.167 175 593.5 C195 609.833 214.5 621 233.5 627 C252.5 633 270.667 636 288 636 C316.667 636 342.5 629.833 365.5 617.5 C388.5 605.167 407.167 590.333 421.5 573 C435.833 555.667 446 537.333 452 518 C458 498.668 461 480.334 461 463 C461 434.333 453.333 406 438 378 C422.667 350 401 328.333 373 313 C345 297.667 316.667 290 288 290 L288 290 Z M365 513 C365 530.331 360.333 545.165 351 557.5 C341.667 569.833 327.667 577.333 309 580 C297.667 581.333 282.334 582 263 582 L216 582 L212 357 L255 357 L257 440 L290 441 L338 357 L387 357 L329 452 C353 462 365 482.333 365 513 L365 513 Z M257 475 L259 544 L276 544 C294.667 544 306.667 540.833 312 534.5 C317.333 528.167 320 519.667 320 509 C320 497.667 317 489.167 311 483.5 C305 477.833 290.667 475 268 475 L257 475 Z " />
<glyph glyph-name="macron" unicode="&#xaf;" horiz-adv-x="307" d="M357 627 L68 627 L55 549 L344 549 L357 627 Z " />
<glyph glyph-name="degree" unicode="&#xb0;" horiz-adv-x="287" d="M162 672 C129.333 672 101.5 660.5 78.5 637.5 C55.5 614.5 44 586.667 44 554 C44 539.333 47.8333 522.833 55.5 504.5 C63.1667 486.168 77 470.334 97 457 C117 443.667 138.667 437 162 437 C194 437 221.5 448.5 244.5 471.5 C267.5 494.5 279 522 279 554 C279 577.333 272.333 599 259 619 C245.667 639 229.833 652.833 211.5 660.5 C193.167 668.167 176.667 672 162 672 L162 672 Z M162 490 C144.667 490 129.667 496.333 117 509 C104.333 521.667 98 536.667 98 554 C98 572 104.333 587.5 117 600.5 C129.667 613.5 144.667 620 162 620 C179.333 620 194.333 613.5 207 600.5 C219.667 587.5 226 572 226 554 C226 536.667 219.667 521.667 207 509 C194.333 496.333 179.333 490 162 490 L162 490 Z " />
<glyph glyph-name="plusminus" unicode="&#xb1;" horiz-adv-x="601" d="M338 333 L341 488 L258 488 L256 333 L64 333 L62 255 L254 255 L252 106 L334 106 L336 255 L533 255 L534 333 L338 333 Z M57 0 L529 0 L530 78 L59 78 L57 0 Z " />
<glyph glyph-name="uni00B2" unicode="&#xb2;" horiz-adv-x="294" d="M259 475 C290.333 503.667 306 535.667 306 571 C306 603.667 296 628.5 276 645.5 C256 662.5 229 671 195 671 C163 671 130.333 663.333 97 648 L102 592 C112.667 598 125 602.833 139 606.5 C153 610.167 165.667 612 177 612 C195 612 209 607.833 219 599.5 C229 591.167 234 579.667 234 565 C234 552.338 230.167 540.171 222.5 528.5 C214.833 516.833 202 502.667 184 486 L57 364 L49 321 L280 321 L288 380 L155 380 L259 475 Z " />
<glyph glyph-name="uni00B3" unicode="&#xb3;" horiz-adv-x="280" d="M107 655 L114 601 C143.333 610.333 164.333 615 177 615 C211 615 228 601.333 228 574 C228 540.667 195 524 129 524 L120 468 C178.667 469.333 208 453.667 208 421 C208 391.667 187.333 377 146 377 C123.333 377 100 380.667 76 388 L60 331 C90 321.667 120.333 317 151 317 C179 317 203.167 322.333 223.5 333 C243.833 343.667 257.667 357.167 265 373.5 C272.333 389.833 276 405.333 276 420 C276 462 255.667 487.667 215 497 C239 501 258.333 511.5 273 528.5 C287.667 545.5 294.667 566.333 294 591 C293.333 603.667 290.167 616.333 284.5 629 C278.833 641.667 268.333 651.833 253 659.5 C237.667 667.167 218.667 671 196 671 C168.667 671 139 665.667 107 655 L107 655 Z " />
<glyph glyph-name="acute" unicode="&#xb4;" horiz-adv-x="166" d="M142 521 L220 660 L129 660 L62 521 L142 521 Z " />
<glyph glyph-name="paragraph" unicode="&#xb6;" horiz-adv-x="514" d="M307 660 C274.333 660 243.833 655.333 215.5 646 C187.167 636.667 162.333 623.167 141 605.5 C119.667 587.833 103.167 566 91.5 540 C79.8333 514 74 485 74 453 C74 424.333 79.6667 398.833 91 376.5 C102.333 354.167 115.167 336.834 129.5 324.5 C143.833 312.167 160.333 302.167 179 294.5 C197.667 286.833 219 283 243 283 L184 -94 L249 -94 L359 599 L421 599 L311 -94 L376 -94 L494 660 L307 660 Z " />
<glyph glyph-name="periodcentered" unicode="&#xb7;" horiz-adv-x="284" d="M133 166 C148.333 166 162.833 170.5 176.5 179.5 C190.167 188.5 199.667 199 205 211 C210.333 223 213 234 213 244 C213 260.667 207.333 274.667 196 286 C184.667 297.333 170.333 303 153 303 C132.333 303 114.167 295.333 98.5 280 C82.8333 264.667 75 246.333 75 225 C75 208.333 80.5 194.333 91.5 183 C102.5 171.667 116.333 166 133 166 L133 166 Z " />
<glyph glyph-name="cedilla" unicode="&#xb8;" horiz-adv-x="185" d="M71 17 L2 17 C-4 5.66667 -8 -8.33333 -10 -25 C-11.3333 -37 -10.1667 -47.5 -6.5 -56.5 C-2.83333 -65.5 5 -75 17 -85 C31.6667 -96.3333 40 -104.5 42 -109.5 C44 -114.5 44.6667 -118.667 44 -122 C42.6667 -132.667 37.1667 -140.834 27.5 -146.5 C17.8333 -152.167 5.33333 -155 -10 -155 L-43 -153 L-53 -215 C-51.6666 -215.667 -46.3333 -216.5 -37 -217.5 C-27.6667 -218.5 -18.6667 -219 -10 -219 C63.3333 -219 105 -188.667 115 -128 C117 -114 115.833 -101 111.5 -89 C107.167 -77 97 -64.3333 81 -51 C73 -43.6667 67.6667 -37 65 -31 C62.3334 -25 61.6667 -17.3333 63 -8 C64.3333 0 67 8.33333 71 17 L71 17 Z " />
<glyph glyph-name="uni00B9" unicode="&#xb9;" horiz-adv-x="234" d="M175 661 L81 647 L85 583 L159 598 L115 321 L190 321 L244 661 L175 661 Z " />
<glyph glyph-name="ordmasculine" unicode="&#xba;" horiz-adv-x="346" d="M241 671 C205 671 173.833 663 147.5 647 C121.167 631 100.167 608.333 84.5 579 C68.8333 549.667 61 515 61 475 C61 385 104.333 340 191 340 C227.667 340 260.833 348.833 290.5 366.5 C320.166 384.167 341.833 408.667 355.5 440 C369.167 471.333 376 503 376 535 C376 579.667 364.167 613.5 340.5 636.5 C316.833 659.5 283.667 671 241 671 L241 671 Z M199 396 C151.667 396 128 424 128 480 C128 506 132.667 529.5 142 550.5 C151.333 571.5 164 587.5 180 598.5 C196 609.5 215.667 615 239 615 C286.333 615 310 587.667 310 533 C310 506.333 304.5 481.333 293.5 458 C282.5 434.667 268.5 418.5 251.5 409.5 C234.5 400.5 217 396 199 396 L199 396 Z " />
<glyph glyph-name="guillemotright" unicode="&#xbb;" horiz-adv-x="525" d="M189 420 L96 420 L173 246 L38 68 L139 68 L267 241 L189 420 Z M383 420 L290 420 L367 246 L232 68 L333 68 L461 241 L383 420 Z " />
<glyph glyph-name="onequarter" unicode="&#xbc;" horiz-adv-x="707" d="M595 660 L-4 0 L87 0 L688 660 L595 660 Z M159 596 L115 320 L189 320 L243 659 L174 659 L80 645 L84 582 L159 596 Z M639 340 L552 340 L360 112 L353 65 L531 65 L521 0 L586 0 L596 65 L660 65 L667 119 L605 119 L639 340 Z M441 119 L562 266 L539 119 L441 119 Z " />
<glyph glyph-name="onehalf" unicode="&#xbd;" horiz-adv-x="722" d="M595 660 L-4 0 L87 0 L688 660 L595 660 Z M159 596 L115 320 L189 320 L243 659 L174 659 L80 645 L84 582 L159 596 Z M683 250 C683 282.667 672.833 307.5 652.5 324.5 C632.167 341.5 605 350 571 350 C537.667 350 505 342 473 326 L479 271 C502.999 283.667 527.666 290 553 290 C571 290 585.167 286 595.5 278 C605.833 270 611 258.333 611 243 C611 231 607.167 219.167 599.5 207.5 C591.833 195.833 579 181.333 561 164 L433 42 L426 0 L656 0 L664 59 L532 59 L636 154 C667.333 183.333 683 215.333 683 250 L683 250 Z " />
<glyph glyph-name="threequarters" unicode="&#xbe;" horiz-adv-x="735" d="M273 419 C273 461.667 252.667 487 212 495 C236 499.667 255.333 510.5 270 527.5 C284.667 544.5 291.667 565.333 291 590 C290.333 602.667 287.167 615.333 281.5 628 C275.833 640.667 265.333 650.833 250 658.5 C234.667 666.167 215.667 670 193 670 C167.667 670 138 664.333 104 653 L111 600 C138.333 608.667 159.333 613 174 613 C208 613 225 599.667 225 573 C225 539.667 192 523 126 523 L117 467 C175.667 468.333 205 452.667 205 420 C205 390.667 184.333 376 143 376 C120.333 376 97 379.667 73 387 L57 330 C89 320 119.333 315 148 315 C176.667 315 201 320.333 221 331 C241 341.665 254.667 355.332 262 372 C269.333 388.666 273 404.333 273 419 L273 419 Z M623 660 L24 0 L115 0 L716 660 L623 660 Z M668 340 L580 340 L388 112 L381 65 L559 65 L549 0 L614 0 L624 65 L688 65 L696 119 L633 119 L668 340 Z M469 119 L590 266 L567 119 L469 119 Z " />
<glyph glyph-name="questiondown" unicode="&#xbf;" horiz-adv-x="462" d="M240 383 C239.332 365 244.666 349.833 256 337.5 C267.333 325.167 282 319 300 319 C314.667 319 328.5 323.167 341.5 331.5 C354.5 339.833 363.667 349.833 369 361.5 C374.333 373.167 377.333 383.667 378 393 C378.667 410.333 373.5 425.167 362.5 437.5 C351.5 449.833 337.333 456 320 456 C305.333 456 291.333 451.833 278 443.5 C264.667 435.168 255.167 425.335 249.5 414 C243.834 402.668 240.668 392.335 240 383 L240 383 Z M308 -194 L299 -108 C265.667 -114.667 239.667 -118 221 -118 C188.333 -118 164 -111.833 148 -99.5 C132 -87.1667 124 -70 124 -48 C124 -28 130.5 -10.1667 143.5 5.5 C156.5 21.1667 177.667 39.6667 207 61 C219.667 70.3333 235 81.1667 253 93.5 C271 105.833 284.5 115.5 293.5 122.5 C302.5 129.5 310.667 138.167 318 148.5 C325.333 158.833 331 177 335 203 L342 249 L240 249 L235 215 C233.667 206.333 231.833 198.833 229.5 192.5 C227.167 186.167 223.333 180.167 218 174.5 C212.667 168.833 200.5 159.5 181.5 146.5 C162.5 133.5 150.833 125.333 146.5 122 C142.167 118.667 139 116.334 137 115 C108.333 94.3333 85 74.3333 67 55 C49 35.6667 36.8333 15.8333 30.5 -4.5 C24.1667 -24.8333 21 -44 21 -62 C21 -86.6667 25.6667 -108.333 35 -127 C44.3333 -145.667 57.1667 -161 73.5 -173 C89.8333 -185 108.833 -193.5 130.5 -198.5 C152.167 -203.5 173.667 -206 195 -206 C235.667 -206 273.333 -202 308 -194 L308 -194 Z " />
<glyph glyph-name="Agrave" unicode="&#xc0;" horiz-adv-x="601" d="M423 706 L369 838 L280 838 L344 706 L423 706 Z M454 0 L560 0 L443 660 L317 660 L-28 0 L85 0 L165 159 L429 159 L454 0 Z M208 246 L366 561 L416 246 L208 246 Z " />
<glyph glyph-name="Aacute" unicode="&#xc1;" horiz-adv-x="601" d="M501 851 L410 851 L346 719 L426 719 L501 851 Z M454 0 L560 0 L443 660 L317 660 L-28 0 L85 0 L165 159 L429 159 L454 0 Z M208 246 L366 561 L416 246 L208 246 Z " />
<glyph glyph-name="Acircumflex" unicode="&#xc2;" horiz-adv-x="601" d="M398 794 L437 707 L524 707 L447 839 L355 839 L237 707 L330 707 L398 794 Z M454 0 L560 0 L443 660 L317 660 L-28 0 L85 0 L165 159 L429 159 L454 0 Z M208 246 L366 561 L416 246 L208 246 Z " />
<glyph glyph-name="Atilde" unicode="&#xc3;" horiz-adv-x="601" d="M332 755 C343.333 755 364.167 748.833 394.5 736.5 C424.833 724.167 447.333 718 462 718 C478 718 496.167 723.167 516.5 733.5 C536.833 743.833 555 757 571 773 L527 827 C498.333 802.333 475.333 790 458 790 C446.667 790 425.667 796.333 395 809 C364.333 821.667 341.333 828 326 828 C311.333 828 294.333 823 275 813 C255.667 803 238.667 790.667 224 776 L269 722 C278.333 731.328 289 739.161 301 745.5 C313 751.833 323.333 755 332 755 L332 755 Z M317 660 L-28 0 L85 0 L165 159 L429 159 L454 0 L560 0 L443 660 L317 660 Z M208 246 L366 561 L416 246 L208 246 Z " />
<glyph glyph-name="Adieresis" unicode="&#xc4;" horiz-adv-x="601" d="M295 716 C312.333 716 327.667 722.167 341 734.5 C354.333 746.83 361 761.664 361 779 C361 793.667 356 805.833 346 815.5 C336 825.167 323.667 830 309 830 C291.667 830 276.667 823.667 264 811 C251.333 798.333 245 783.333 245 766 C245 751.333 249.667 739.333 259 730 C268.333 720.667 280.333 716 295 716 L295 716 Z M481 716 C498.333 716 513.5 722.167 526.5 734.5 C539.5 746.83 546 761.664 546 779 C546 793.667 541.167 805.833 531.5 815.5 C521.833 825.167 509.667 830 495 830 C477 830 461.667 823.667 449 811 C436.333 798.333 430 783.333 430 766 C430 750.667 434.833 738.5 444.5 729.5 C454.165 720.5 466.332 716 481 716 L481 716 Z M454 0 L560 0 L443 660 L318 660 L-28 0 L85 0 L165 159 L429 159 L454 0 Z M208 246 L366 561 L416 246 L208 246 Z " />
<glyph glyph-name="Aring" unicode="&#xc5;" horiz-adv-x="601" d="M385 674 C413.667 674 438.167 684.5 458.5 705.5 C478.833 726.5 489 751.667 489 781 C489 806.332 480.833 827.165 464.5 843.5 C448.167 859.833 428 868 404 868 C383.333 868 364.167 862 346.5 850 C328.833 838 316.5 823.667 309.5 807 C302.5 790.333 299 775.333 299 762 C299 736.667 307.167 715.667 323.5 699 C339.833 682.333 360.333 674 385 674 L385 674 Z M398 815 C409.333 815 418.5 811.167 425.5 803.5 C432.5 795.833 436 786 436 774 C436 760.667 431.667 749.5 423 740.5 C414.333 731.5 403.667 727 391 727 C379.667 727 370.667 730.667 364 738 C357.333 745.333 354 755 354 767 C354 781 358.167 792.5 366.5 801.5 C374.833 810.5 385.333 815 398 815 L398 815 Z M454 0 L560 0 L445 645 L309 645 L-28 0 L85 0 L165 159 L429 159 L454 0 Z M209 246 L354 534 L367 564 L371 534 L416 246 L209 246 Z " />
<glyph glyph-name="AE" unicode="&#xc6;" horiz-adv-x="865" d="M852 570 L867 660 L459 660 L-28 0 L90 0 L194 144 L436 144 L413 0 L780 0 L794 90 L527 90 L559 289 L796 289 L809 379 L573 379 L604 570 L852 570 Z M255 230 L503 573 L449 230 L255 230 Z " />
<glyph glyph-name="Ccedilla" unicode="&#xc7;" horiz-adv-x="565" d="M444 580 C484 580 534 574 594 562 L612 652 C555.333 665.333 500 672 446 672 C394.667 672 349 665.5 309 652.5 C269 639.5 234.167 622 204.5 600 C174.833 578 149.667 551.833 129 521.5 C108.333 491.167 91.5 455.334 78.5 414 C65.5 372.667 59 326.333 59 275 C59 101.667 143 7 311 -9 L308 -25 C306 -37.6667 307 -48.3334 311 -57 C315 -65.6667 323 -75 335 -85 C349 -95.6667 357.167 -103.667 359.5 -109 C361.833 -114.334 362.667 -118.667 362 -122 C358 -144 340 -155 308 -155 L275 -153 L265 -215 C266.333 -215.667 271.667 -216.5 281 -217.5 C290.333 -218.5 299 -219 307 -219 C381 -219 423 -188.667 433 -128 C435 -110 433 -95.1667 427 -83.5 C421 -71.8333 411.667 -61 399 -51 C387.667 -41.6667 381.5 -33.5 380.5 -26.5 C379.5 -19.5 379.333 -14.3333 380 -11 C420.667 -10.3333 466 -5.33333 516 4 L506 95 C463.333 87.6667 420.667 84 378 84 C304 84 249.5 99.1667 214.5 129.5 C179.5 159.833 162 207.333 162 272 C162 336.666 173.333 391.833 196 437.5 C218.667 483.167 250.667 518.333 292 543 C333.333 567.667 384 580 444 580 L444 580 Z " />
<glyph glyph-name="Egrave" unicode="&#xc8;" horiz-adv-x="508" d="M390 706 L336 838 L246 838 L310 706 L390 706 Z M495 570 L509 660 L160 660 L56 0 L423 0 L436 90 L170 90 L202 289 L438 289 L452 379 L216 379 L246 570 L495 570 Z " />
<glyph glyph-name="Eacute" unicode="&#xc9;" horiz-adv-x="508" d="M468 851 L377 851 L312 719 L393 719 L468 851 Z M495 570 L509 660 L160 660 L56 0 L423 0 L436 90 L170 90 L202 289 L438 289 L452 379 L216 379 L246 570 L495 570 Z " />
<glyph glyph-name="Ecircumflex" unicode="&#xca;" horiz-adv-x="508" d="M364 794 L403 707 L490 707 L414 839 L322 839 L203 707 L296 707 L364 794 Z M495 570 L509 660 L160 660 L56 0 L423 0 L436 90 L170 90 L202 289 L438 289 L452 379 L216 379 L246 570 L495 570 Z " />
<glyph glyph-name="Edieresis" unicode="&#xcb;" horiz-adv-x="508" d="M448 716 C465.333 716 480.5 722.167 493.5 734.5 C506.5 746.83 513 761.664 513 779 C513 793.667 508 805.833 498 815.5 C488 825.167 475.667 830 461 830 C443.667 830 428.667 823.667 416 811 C403.333 798.333 397 783.333 397 766 C397 750.667 401.833 738.5 411.5 729.5 C421.165 720.5 433.332 716 448 716 L448 716 Z M262 716 C279.333 716 294.5 722.167 307.5 734.5 C320.5 746.83 327 761.664 327 779 C327 793.667 322.167 805.833 312.5 815.5 C302.833 825.167 290.333 830 275 830 C257.667 830 242.667 823.667 230 811 C217.333 798.333 211 783.333 211 766 C211 751.333 215.667 739.333 225 730 C234.333 720.667 246.667 716 262 716 L262 716 Z M56 0 L423 0 L436 90 L170 90 L202 289 L438 289 L452 379 L216 379 L246 570 L495 570 L509 660 L160 660 L56 0 Z " />
<glyph glyph-name="Igrave" unicode="&#xcc;" horiz-adv-x="281" d="M109 838 L173 706 L253 706 L199 838 L109 838 Z M260 660 L159 660 L55 0 L155 0 L260 660 Z " />
<glyph glyph-name="Iacute" unicode="&#xcd;" horiz-adv-x="281" d="M256 719 L331 851 L240 851 L175 719 L256 719 Z M260 660 L159 660 L55 0 L155 0 L260 660 Z " />
<glyph glyph-name="Icircumflex" unicode="&#xce;" horiz-adv-x="281" d="M277 839 L185 839 L66 707 L159 707 L227 794 L266 707 L353 707 L277 839 Z M55 0 L155 0 L260 660 L159 660 L55 0 Z " />
<glyph glyph-name="Idieresis" unicode="&#xcf;" horiz-adv-x="281" d="M138 830 C120.667 830 105.667 823.667 93 811 C80.3333 798.333 74 783.333 74 766 C74 751.333 78.6667 739.333 88 730 C97.3333 720.667 109.667 716 125 716 C142.333 716 157.5 722.167 170.5 734.5 C183.5 746.83 190 761.664 190 779 C190 793.667 185.167 805.833 175.5 815.5 C165.833 825.167 153.333 830 138 830 L138 830 Z M324 830 C306.667 830 291.667 823.667 279 811 C266.333 798.333 260 783.333 260 766 C260 750.667 264.833 738.5 274.5 729.5 C284.166 720.5 296.332 716 311 716 C328.333 716 343.5 722.167 356.5 734.5 C369.5 746.83 376 761.664 376 779 C376 793.667 371 805.833 361 815.5 C351 825.167 338.667 830 324 830 L324 830 Z M260 660 L159 660 L55 0 L155 0 L260 660 Z " />
<glyph glyph-name="Eth" unicode="&#xd0;" horiz-adv-x="714" d="M378 661 L180 658 L136 378 L88 378 L73 286 L121 286 L76 1 C199.333 -2.33333 273 -4 297 -4 C357.667 -4 412 4.83333 460 22.5 C508 40.1667 548.5 65.8333 581.5 99.5 C614.5 133.167 639.5 174.833 656.5 224.5 C673.5 274.167 682 329.667 682 391 C682 479 656.167 546 604.5 592 C552.834 638 477.334 661 378 661 L378 661 Z M306 85 L191 87 L223 286 L383 286 L397 378 L237 378 L267 570 L358 572 C434.666 572 490.833 556.167 526.5 524.5 C562.167 492.833 580 445 580 381 C580 331.667 573.5 288.167 560.5 250.5 C547.5 212.833 529 181.833 505 157.5 C481 133.167 452 115 418 103 C384 91 346.667 85 306 85 L306 85 Z " />
<glyph glyph-name="Ntilde" unicode="&#xd1;" horiz-adv-x="731" d="M384 755 C395.333 755 416.167 748.833 446.5 736.5 C476.833 724.167 499.333 718 514 718 C530 718 548.167 723.167 568.5 733.5 C588.833 743.833 607 757 623 773 L579 827 C550.333 802.333 527.333 790 510 790 C498.667 790 477.667 796.333 447 809 C416.333 821.667 393.333 828 378 828 C363.333 828 346.333 823 327 813 C307.667 803 290.667 790.667 276 776 L321 722 C330.333 731.328 341 739.161 353 745.5 C365 751.833 375.333 755 384 755 L384 755 Z M610 660 L532 167 L524 104 L509 148 L303 660 L156 660 L51 0 L152 0 L228 477 L237 550 L457 0 L608 0 L711 660 L610 660 Z " />
<glyph glyph-name="Ograve" unicode="&#xd2;" horiz-adv-x="738" d="M330 838 L394 706 L474 706 L420 838 L330 838 Z M427 675 C348.333 675 281 657.167 225 621.5 C169 585.833 127.667 538 101 478 C74.3333 418 61 352.333 61 281 C60.9999 243.667 65.3333 207 74 171 C82.6667 135 96.5 104.833 115.5 80.5 C134.5 56.1667 155.333 37.3333 178 24 C200.667 10.6667 226.333 0.666672 255 -6 C283.666 -12.6667 314.333 -16 347 -16 C402.333 -16 452.667 -6.83333 498 11.5 C543.332 29.8333 581.666 56 613 90 C644.333 124 668.333 165 685 213 C701.667 261 710 314 710 372 C710 473.333 686.167 549.167 638.5 599.5 C590.833 649.833 520.333 675 427 675 L427 675 Z M425 586 C484.333 586 529.167 569 559.5 535 C589.833 501 605 447 605 373 C605 329 599.5 288.5 588.5 251.5 C577.5 214.5 561 182.667 539 156 C517 129.333 490 108.833 458 94.5 C426 80.1667 389.667 73 349 73 C289.667 73 244.5 89.8333 213.5 123.5 C182.5 157.167 167 210.333 167 283 C167 326.333 172.667 366.667 184 404 C195.333 441.333 212 473.5 234 500.5 C256 527.5 283.333 548.5 316 563.5 C348.667 578.5 385 586 425 586 L425 586 Z " />
<glyph glyph-name="Oacute" unicode="&#xd3;" horiz-adv-x="738" d="M477 719 L552 851 L460 851 L396 719 L477 719 Z M427 675 C348.333 675 281 657.167 225 621.5 C169 585.833 127.667 538 101 478 C74.3333 418 61 352.333 61 281 C60.9999 243.667 65.3333 207 74 171 C82.6667 135 96.5 104.833 115.5 80.5 C134.5 56.1667 155.333 37.3333 178 24 C200.667 10.6667 226.333 0.666672 255 -6 C283.666 -12.6667 314.333 -16 347 -16 C402.333 -16 452.667 -6.83333 498 11.5 C543.332 29.8333 581.666 56 613 90 C644.333 124 668.333 165 685 213 C701.667 261 710 314 710 372 C710 473.333 686.167 549.167 638.5 599.5 C590.833 649.833 520.333 675 427 675 L427 675 Z M425 586 C484.333 586 529.167 569 559.5 535 C589.833 501 605 447 605 373 C605 329 599.5 288.5 588.5 251.5 C577.5 214.5 561 182.667 539 156 C517 129.333 490 108.833 458 94.5 C426 80.1667 389.667 73 349 73 C289.667 73 244.5 89.8333 213.5 123.5 C182.5 157.167 167 210.333 167 283 C167 326.333 172.667 366.667 184 404 C195.333 441.333 212 473.5 234 500.5 C256 527.5 283.333 548.5 316 563.5 C348.667 578.5 385 586 425 586 L425 586 Z " />
<glyph glyph-name="Ocircumflex" unicode="&#xd4;" horiz-adv-x="738" d="M448 794 L487 707 L574 707 L498 839 L406 839 L287 707 L380 707 L448 794 Z M427 675 C348.333 675 281 657.167 225 621.5 C169 585.833 127.667 538 101 478 C74.3333 418 61 352.333 61 281 C60.9999 243.667 65.3333 207 74 171 C82.6667 135 96.5 104.833 115.5 80.5 C134.5 56.1667 155.333 37.3333 178 24 C200.667 10.6667 226.333 0.666672 255 -6 C283.666 -12.6667 314.333 -16 347 -16 C402.333 -16 452.667 -6.83333 498 11.5 C543.332 29.8333 581.666 56 613 90 C644.333 124 668.333 165 685 213 C701.667 261 710 314 710 372 C710 473.333 686.167 549.167 638.5 599.5 C590.833 649.833 520.333 675 427 675 L427 675 Z M349 73 C289.667 73 244.5 89.8333 213.5 123.5 C182.5 157.167 167 210.333 167 283 C167 326.333 172.667 366.667 184 404 C195.333 441.333 212 473.5 234 500.5 C256 527.5 283.333 548.5 316 563.5 C348.667 578.5 385 586 425 586 C484.333 586 529.167 569 559.5 535 C589.833 501 605 447 605 373 C605 329 599.5 288.5 588.5 251.5 C577.5 214.5 561 182.667 539 156 C517 129.333 490 108.833 458 94.5 C426 80.1667 389.667 73 349 73 L349 73 Z " />
<glyph glyph-name="Otilde" unicode="&#xd5;" horiz-adv-x="738" d="M577 827 C548.333 802.333 525.333 790 508 790 C496.668 790 475.834 796.333 445.5 809 C415.167 821.667 392.334 828 377 828 C367 828 355.167 825.333 341.5 820 C327.833 814.667 314.5 807.167 301.5 797.5 C288.5 787.835 279.667 780.668 275 776 L319 722 C328.333 731.328 339.167 739.161 351.5 745.5 C363.833 751.833 374.333 755 383 755 C393.667 755 414.167 748.833 444.5 736.5 C474.833 724.167 497.333 718 512 718 C528 718 546.5 723.333 567.5 734 C588.5 744.667 606.667 757.667 622 773 L577 827 Z M427 675 C348.333 675 281 657.167 225 621.5 C169 585.833 127.667 538 101 478 C74.3333 418 61 352.333 61 281 C60.9999 243.667 65.3333 207 74 171 C82.6667 135 96.5 104.833 115.5 80.5 C134.5 56.1667 155.333 37.3333 178 24 C200.667 10.6667 226.333 0.666672 255 -6 C283.666 -12.6667 314.333 -16 347 -16 C402.333 -16 452.667 -6.83333 498 11.5 C543.332 29.8333 581.666 56 613 90 C644.333 124 668.333 165 685 213 C701.667 261 710 314 710 372 C710 473.333 686.167 549.167 638.5 599.5 C590.833 649.833 520.333 675 427 675 L427 675 Z M425 586 C484.333 586 529.167 569 559.5 535 C589.833 501 605 447 605 373 C605 329 599.5 288.5 588.5 251.5 C577.5 214.5 561 182.667 539 156 C517 129.333 490 108.833 458 94.5 C426 80.1667 389.667 73 349 73 C289.667 73 244.5 89.8333 213.5 123.5 C182.5 157.167 167 210.333 167 283 C167 326.333 172.667 366.667 184 404 C195.333 441.333 212 473.5 234 500.5 C256 527.5 283.333 548.5 316 563.5 C348.667 578.5 385 586 425 586 L425 586 Z " />
<glyph glyph-name="Odieresis" unicode="&#xd6;" horiz-adv-x="738" d="M359 830 C341.667 830 326.667 823.667 314 811 C301.333 798.333 295 783.333 295 766 C295 751.333 299.667 739.333 309 730 C318.333 720.667 330.333 716 345 716 C363 716 378.5 722.167 391.5 734.5 C404.5 746.83 411 761.664 411 779 C411 793.667 406.167 805.833 396.5 815.5 C386.833 825.167 374.333 830 359 830 L359 830 Z M545 830 C527.667 830 512.667 823.667 500 811 C487.333 798.333 481 783.333 481 766 C481 750.667 485.833 738.5 495.5 729.5 C505.167 720.5 517.333 716 532 716 C549.333 716 564.5 722.167 577.5 734.5 C590.5 746.83 597 761.664 597 779 C597 793.667 592 805.833 582 815.5 C572 825.167 559.667 830 545 830 L545 830 Z M427 675 C348.333 675 281 657.167 225 621.5 C169 585.833 127.667 538 101 478 C74.3333 418 61 352.333 61 281 C60.9999 243.667 65.3333 207 74 171 C82.6667 135 96.5 104.833 115.5 80.5 C134.5 56.1667 155.333 37.3333 178 24 C200.667 10.6667 226.333 0.666672 255 -6 C283.666 -12.6667 314.333 -16 347 -16 C402.333 -16 452.667 -6.83333 498 11.5 C543.332 29.8333 581.666 56 613 90 C644.333 124 668.333 165 685 213 C701.667 261 710 314 710 372 C710 473.333 686.167 549.167 638.5 599.5 C590.833 649.833 520.333 675 427 675 L427 675 Z M425 586 C484.333 586 529.167 569 559.5 535 C589.833 501 605 447 605 373 C605 329 599.5 288.5 588.5 251.5 C577.5 214.5 561 182.667 539 156 C517 129.333 490 108.833 458 94.5 C426 80.1667 389.667 73 349 73 C289.667 73 244.5 89.8333 213.5 123.5 C182.5 157.167 167 210.333 167 283 C167 326.333 172.667 366.667 184 404 C195.333 441.333 212 473.5 234 500.5 C256 527.5 283.333 548.5 316 563.5 C348.667 578.5 385 586 425 586 L425 586 Z " />
<glyph glyph-name="multiply" unicode="&#xd7;" horiz-adv-x="460" d="M425 77 L282 221 L423 362 L367 419 L227 278 L85 422 L28 365 L169 221 L27 78 L82 21 L226 164 L367 21 L425 77 Z " />
<glyph glyph-name="Oslash" unicode="&#xd8;" horiz-adv-x="815" d="M816 640 L766 694 L669 604 C645.667 626.667 616.667 644 582 656 C547.333 668 509 674 467 674 C411.667 674 361.333 665 316 647 C270.667 629 232.167 603.5 200.5 570.5 C168.833 537.5 144.167 497.833 126.5 451.5 C108.833 405.167 98.6667 354.333 96 299 C92 222.333 104.333 158.333 133 107 L34 15 L84 -39 L179 50 C227.667 6.66667 293.667 -15 377 -15 C433 -15 483.667 -6.66667 529 10 C574.333 26.6667 612.5 50.8333 643.5 82.5 C674.5 114.167 698.667 152.833 716 198.5 C733.333 244.167 743.333 295.333 746 352 C750 428 739 492 713 544 L816 640 Z M202 293 C203.333 331.667 209.333 368.667 220 404 C230.667 439.333 246.5 470.5 267.5 497.5 C288.5 524.5 315.167 545.833 347.5 561.5 C379.833 577.167 416.667 585 458 585 C518 585 563.333 568 594 534 L216 184 C205.334 212.667 200.667 249 202 293 L202 293 Z M642 367 C640.667 321.667 634.167 280.834 622.5 244.5 C610.833 208.167 594.333 177.5 573 152.5 C551.667 127.5 525 108.333 493 95 C461 81.6667 424.667 75 384 75 C328.667 75 285.667 89.6667 255 119 L630 468 C639.333 438.667 643.333 405 642 367 L642 367 Z " />
<glyph glyph-name="Ugrave" unicode="&#xd9;" horiz-adv-x="711" d="M323 838 L387 706 L467 706 L412 838 L323 838 Z M689 660 L588 660 L515 206 C509.669 175.333 500.335 150.333 487 131 C473.667 111.667 454.334 98.5 429 91.5 C403.667 84.5 373 81 337 81 C298.333 81 267.667 85 245 93 C222.334 101 206.167 113.833 196.5 131.5 C186.833 149.167 185 175 191 209 L262 660 L159 660 L86 194 C78.6667 148 81.8333 110.333 95.5 81 C109.167 51.6667 134 29 170 13 C206 -3 258.333 -11.3333 327 -12 C398.333 -12.6667 453.167 -5 491.5 11 C529.833 27 558.333 49.1667 577 77.5 C595.667 105.833 608.333 142 615 186 L689 660 Z " />
<glyph glyph-name="Uacute" unicode="&#xda;" horiz-adv-x="711" d="M469 719 L544 851 L453 851 L389 719 L469 719 Z M689 660 L588 660 L515 206 C509.669 175.333 500.335 150.333 487 131 C473.667 111.667 454.334 98.5 429 91.5 C403.667 84.5 373 81 337 81 C298.333 81 267.667 85 245 93 C222.334 101 206.167 113.833 196.5 131.5 C186.833 149.167 185 175 191 209 L262 660 L159 660 L86 194 C78.6667 148 81.8333 110.333 95.5 81 C109.167 51.6667 134 29 170 13 C206 -3 258.333 -11.3333 327 -12 C398.333 -12.6667 453.167 -5 491.5 11 C529.833 27 558.333 49.1667 577 77.5 C595.667 105.833 608.333 142 615 186 L689 660 Z " />
<glyph glyph-name="Ucircumflex" unicode="&#xdb;" horiz-adv-x="711" d="M441 794 L480 707 L567 707 L491 839 L398 839 L280 707 L373 707 L441 794 Z M588 660 L515 206 C509.669 175.333 500.335 150.333 487 131 C473.667 111.667 454.334 98.5 429 91.5 C403.667 84.5 373 81 337 81 C298.333 81 267.667 85 245 93 C222.334 101 206.167 113.833 196.5 131.5 C186.833 149.167 185 175 191 209 L262 660 L159 660 L86 194 C78.6667 148 81.8333 110.333 95.5 81 C109.167 51.6667 134 29 170 13 C206 -3 258.333 -11.3333 327 -12 C398.333 -12.6667 453.167 -5 491.5 11 C529.833 27 558.333 49.1667 577 77.5 C595.667 105.833 608.333 142 615 186 L689 660 L588 660 Z " />
<glyph glyph-name="Udieresis" unicode="&#xdc;" horiz-adv-x="711" d="M352 830 C334.667 830 319.667 823.667 307 811 C294.333 798.333 288 783.333 288 766 C288 751.333 292.667 739.333 302 730 C311.333 720.667 323.333 716 338 716 C356 716 371.5 722.167 384.5 734.5 C397.5 746.83 404 761.664 404 779 C404 793.667 399.167 805.833 389.5 815.5 C379.833 825.167 367.333 830 352 830 L352 830 Z M538 830 C520 830 504.667 823.667 492 811 C479.333 798.333 473 783.333 473 766 C473 751.333 477.833 739.333 487.5 730 C497.166 720.667 509.332 716 524 716 C541.331 716 556.665 722.167 570 734.5 C583.333 746.83 590 761.664 590 779 C590 793.667 585 805.833 575 815.5 C565 825.167 552.667 830 538 830 L538 830 Z M689 660 L588 660 L515 206 C509.669 175.333 500.335 150.333 487 131 C473.667 111.667 454.334 98.5 429 91.5 C403.667 84.5 373 81 337 81 C298.333 81 267.667 85 245 93 C222.334 101 206.167 113.833 196.5 131.5 C186.833 149.167 185 175 191 209 L262 660 L159 660 L86 194 C78.6667 148 81.8333 110.333 95.5 81 C109.167 51.6667 134 29 170 13 C206 -3 258.333 -11.3333 327 -12 C398.333 -12.6667 453.167 -5 491.5 11 C529.833 27 558.333 49.1667 577 77.5 C595.667 105.833 608.333 142 615 186 L689 660 Z " />
<glyph glyph-name="Yacute" unicode="&#xdd;" horiz-adv-x="581" d="M472 851 L381 851 L317 719 L397 719 L472 851 Z M526 660 L350 424 C347.333 420 341.333 411.833 332 399.5 C322.667 387.167 316 377.667 312 371 C308.668 381 301.335 399 290 425 L188 660 L77 660 L246 281 L202 0 L305 0 L351 281 L644 660 L526 660 Z " />
<glyph glyph-name="Thorn" unicode="&#xde;" horiz-adv-x="515" d="M307 543 L236 543 L255 660 L159 660 L56 0 L151 0 L171 129 C197.667 126.333 225.333 125 254 125 C285.333 125 317 130 349 140 C381 150 408.333 167 431 191 C453.666 215 469.832 241.5 479.5 270.5 C489.167 299.5 494.667 329.333 496 360 C497.333 402.667 492.333 436 481 460 C469.667 484 455 501.833 437 513.5 C419 525.167 398.5 533 375.5 537 C352.5 541 329.667 543 307 543 L307 543 Z M403 354 C400.333 305.333 385.833 268.833 359.5 244.5 C333.167 220.167 297.334 208 252 208 C242.667 208 220 209.333 184 212 L223 460 L286 460 C334.666 460 366.833 451 382.5 433 C398.167 415 405 388.667 403 354 L403 354 Z " />
<glyph glyph-name="germandbls" unicode="&#xdf;" horiz-adv-x="526" d="M401 228 C379.668 249.333 366.835 263.333 362.5 270 C358.167 276.666 356 282.333 356 287 C356 301 372.5 325.5 405.5 360.5 C438.5 395.5 462.333 421.5 477 438.5 C491.666 455.5 504.832 474 516.5 494 C528.167 514 536 532 540 548 C544 564 546 578 546 590 C546 636.667 528.667 674 494 702 C459.333 730 414 744 358 744 C299.333 744 251.833 728 215.5 696 C179.167 664 156 616.667 146 554 L129 446 L59 446 L46 364 L116 364 L58 0 L151 0 L236 537 C248.667 618.333 287.333 659 352 659 C380 659 402.5 651.5 419.5 636.5 C436.5 621.5 445 602 445 578 C445 542.667 422.667 501.5 378 454.5 C333.333 407.5 306.833 379 298.5 369 C290.168 359 282.334 347.667 275 335 C267.667 322.333 263 311.333 261 302 C259 292.667 258 285 258 279 C258 265 262.167 252 270.5 240 C278.833 228 294.667 211.333 318 190 C350.666 160 368.333 141.167 371 133.5 C373.667 125.833 375 119.333 375 114 C375 85.3333 354 71 312 71 C288.667 71 262.667 74.3333 234 81 L220 6 C252 -2 284.333 -6 317 -6 C365 -6 402.5 4.83333 429.5 26.5 C456.5 48.1667 470 78.3333 470 117 C470 137 465.333 153.833 456 167.5 C446.668 181.167 428.334 201.333 401 228 L401 228 Z " />
<glyph glyph-name="agrave" unicode="&#xe0;" horiz-adv-x="510" d="M367 521 L310 660 L219 660 L286 521 L367 521 Z M328 456 C285.333 456 246 448.5 210 433.5 C174 418.5 143.333 397.333 118 370 C92.6667 342.667 73.3334 310.167 60 272.5 C46.6667 234.833 40 194 40 150 C40 42.6667 86 -11 178 -11 C234 -11 281.333 13.3333 320 62 L309 0 L402 0 L472 441 C452 445 428 448.5 400 451.5 C372 454.5 348 456 328 456 L328 456 Z M203 69 C157 69 134 99 134 159 C134 221 150.667 272.5 184 313.5 C217.333 354.5 260.667 375 314 375 C333.333 375 351 373.667 367 371 L328 139 C288 92.3333 246.333 69 203 69 L203 69 Z " />
<glyph glyph-name="aacute" unicode="&#xe1;" horiz-adv-x="510" d="M448 660 L357 660 L289 521 L369 521 L448 660 Z M328 456 C285.333 456 246 448.5 210 433.5 C174 418.5 143.333 397.333 118 370 C92.6667 342.667 73.3334 310.167 60 272.5 C46.6667 234.833 40 194 40 150 C40 42.6667 86 -11 178 -11 C234 -11 281.333 13.3333 320 62 L309 0 L402 0 L472 441 C452 445 428 448.5 400 451.5 C372 454.5 348 456 328 456 L328 456 Z M203 69 C157 69 134 99 134 159 C134 221 150.667 272.5 184 313.5 C217.333 354.5 260.667 375 314 375 C333.333 375 351 373.667 367 371 L328 139 C288 92.3333 246.333 69 203 69 L203 69 Z " />
<glyph glyph-name="acircumflex" unicode="&#xe2;" horiz-adv-x="510" d="M339 606 L390 518 L476 518 L391 660 L297 660 L175 518 L268 518 L339 606 Z M40 150 C40 42.6667 86 -11 178 -11 C234 -11 281.333 13.3333 320 62 L309 0 L402 0 L472 441 C452 445 428 448.5 400 451.5 C372 454.5 348 456 328 456 C285.333 456 246 448.5 210 433.5 C174 418.5 143.333 397.333 118 370 C92.6667 342.667 73.3334 310.167 60 272.5 C46.6667 234.833 40 194 40 150 L40 150 Z M203 69 C157 69 134 99 134 159 C134 221 150.667 272.5 184 313.5 C217.333 354.5 260.667 375 314 375 C333.333 375 351 373.667 367 371 L328 139 C288 92.3333 246.333 69 203 69 L203 69 Z " />
<glyph glyph-name="atilde" unicode="&#xe3;" horiz-adv-x="510" d="M276 569 C287.333 569 308.167 562.833 338.5 550.5 C368.833 538.167 391.333 532 406 532 C422 532 440.167 537.167 460.5 547.5 C480.833 557.833 499 571 515 587 L471 641 C460.333 630.333 448.333 621.333 435 614 C421.667 606.667 410.334 603 401 603 C389.667 603 368.834 609.333 338.5 622 C308.167 634.667 285.334 641 270 641 C240.667 641 206.667 624 168 590 L213 535 C219 543 228.833 550.667 242.5 558 C256.166 565.333 267.332 569 276 569 L276 569 Z M40 150 C40 42.6667 86 -11 178 -11 C234 -11 281.333 13.3333 320 62 L309 0 L402 0 L472 441 C452 445 428 448.5 400 451.5 C372 454.5 348 456 328 456 C285.333 456 246 448.5 210 433.5 C174 418.5 143.333 397.333 118 370 C92.6667 342.667 73.3334 310.167 60 272.5 C46.6667 234.833 40 194 40 150 L40 150 Z M203 69 C157 69 134 99 134 159 C134 221 150.667 272.5 184 313.5 C217.333 354.5 260.667 375 314 375 C333.333 375 351 373.667 367 371 L328 139 C288 92.3333 246.333 69 203 69 L203 69 Z " />
<glyph glyph-name="adieresis" unicode="&#xe4;" horiz-adv-x="510" d="M439 648 C421 648 405.5 641.5 392.5 628.5 C379.5 615.5 373 600.333 373 583 C373 568.338 377.833 556.171 387.5 546.5 C397.167 536.833 409.667 532 425 532 C442.333 532 457.667 538.333 471 551 C484.333 563.667 491 579 491 597 C491 611.667 486.167 623.833 476.5 633.5 C466.833 643.167 454.333 648 439 648 L439 648 Z M240 532 C257.333 532 272.667 538.333 286 551 C299.333 563.667 306 578.667 306 596 C306 610.667 301 623 291 633 C281 643 268.333 648 253 648 C235 648 219.667 641.667 207 629 C194.333 616.333 188 601 188 583 C188 568.338 192.833 556.171 202.5 546.5 C212.167 536.833 224.667 532 240 532 L240 532 Z M40 150 C40 42.6667 86 -11 178 -11 C234 -11 281.333 13.3333 320 62 L309 0 L402 0 L472 441 C452 445 428 448.5 400 451.5 C372 454.5 348 456 328 456 C285.333 456 246 448.5 210 433.5 C174 418.5 143.333 397.333 118 370 C92.6667 342.667 73.3334 310.167 60 272.5 C46.6667 234.833 40 194 40 150 L40 150 Z M203 69 C157 69 134 99 134 159 C134 221 150.667 272.5 184 313.5 C217.333 354.5 260.667 375 314 375 C333.333 375 351 373.667 367 371 L328 139 C288 92.3333 246.333 69 203 69 L203 69 Z " />
<glyph glyph-name="aring" unicode="&#xe5;" horiz-adv-x="510" d="M326 502 C338 502 351.667 505.333 367 512 C382.333 518.667 396.167 530.5 408.5 547.5 C420.833 564.5 428 583 430 603 C432 621.667 428.833 638.833 420.5 654.5 C412.167 670.167 401.334 681.167 388 687.5 C374.667 693.833 362 697 350 697 C329.333 697 310 690.833 292 678.5 C274 666.167 261.333 651.833 254 635.5 C246.667 619.167 242.667 604.667 242 592 C241.333 567.335 249 546.169 265 528.5 C281 510.833 301.333 502 326 502 L326 502 Z M297 596 C297.667 608.667 302.5 619.333 311.5 628 C320.5 636.667 331 641 343 641 C353 641 361.333 637.167 368 629.5 C374.667 621.833 377.667 612.333 377 601 C376.333 589 371.333 578.5 362 569.5 C352.668 560.5 342.335 556 331 556 C321 556 312.667 560 306 568 C299.333 576 296.333 585.333 297 596 L297 596 Z M328 456 C285.333 456 246 448.5 210 433.5 C174 418.5 143.333 397.333 118 370 C92.6667 342.667 73.3334 310.167 60 272.5 C46.6667 234.833 40 194 40 150 C40 42.6667 86 -11 178 -11 C234 -11 281.333 13.3333 320 62 L309 0 L402 0 L472 441 C452 445 428 448.5 400 451.5 C372 454.5 348 456 328 456 L328 456 Z M203 69 C157 69 134 99 134 159 C134 221 150.667 272.5 184 313.5 C217.333 354.5 260.667 375 314 375 C333.333 375 351 373.667 367 371 L328 139 C288 92.3333 246.333 69 203 69 L203 69 Z " />
<glyph glyph-name="ae" unicode="&#xe6;" horiz-adv-x="760" d="M714 211 C719.333 236.333 722 267.333 722 304 C722 352 709 389.333 683 416 C657 442.667 618 456 566 456 C508.667 456 463 434.333 429 391 L439 442 C397.667 451.333 357.667 456 319 456 C278.333 456 240.667 448.333 206 433 C171.333 417.667 141.667 396.334 117 369 C92.3333 341.667 73.3333 309.5 60 272.5 C46.6667 235.5 40 196 40 154 C40 98.6667 52 57.3333 76 30 C100 2.66667 134.333 -11 179 -11 C217 -11 251.167 -2.33333 281.5 15 C311.833 32.3333 336.333 55.6667 355 85 C362.333 63.6667 373.667 45.5 389 30.5 C404.333 15.5 422.667 4.83333 444 -1.5 C465.333 -7.83333 487.333 -11 510 -11 C536 -11 564.667 -8.66666 596 -4 C627.333 0.666672 655.333 6.66667 680 14 L665 87 C614.334 73 566.668 66 522 66 C486 66 460.333 74.1667 445 90.5 C429.667 106.833 422 135.333 422 176 L423 211 L714 211 Z M560 381 C584.667 381 602.667 374.5 614 361.5 C625.333 348.5 631.333 329.667 632 305 C632 297 631 288.333 629 279 L438 279 C446 301 456.667 320.333 470 337 C483.333 353.667 498 365.167 514 371.5 C530 377.833 545.333 381 560 381 L560 381 Z M207 69 C181.667 69 163.333 76.5 152 91.5 C140.667 106.5 135 130.667 135 164 C135 193.333 139 221 147 247 C155 273 166.833 295.667 182.5 315 C198.167 334.333 217.5 349.5 240.5 360.5 C263.5 371.5 289.333 377 318 377 C331.333 377 348 375.333 368 372 L340 176 C338 163.333 337 151.333 337 140 C297 92.6667 253.667 69 207 69 L207 69 Z " />
<glyph glyph-name="ccedilla" unicode="&#xe7;" horiz-adv-x="408" d="M292 376 C323.333 376 359 371 399 361 L417 439 C379 451 338.333 457 295 457 C257 457 222.167 450 190.5 436 C158.833 422 132.167 402.167 110.5 376.5 C88.8333 350.833 72.1667 320.5 60.5 285.5 C48.8333 250.5 43 212.667 43 172 C43 139.333 47.5 110.333 56.5 85 C65.5 59.6667 79.5 39.1667 98.5 23.5 C117.5 7.83333 141.333 -2.66667 170 -8 C168 -12.6667 167 -18.3333 167 -25 C165 -37.6667 166 -48.3334 170 -57 C174 -65.6667 182 -75 194 -85 C208 -96.3333 216 -104.5 218 -109.5 C220 -114.5 220.667 -118.667 220 -122 C218.667 -132.667 213.167 -140.834 203.5 -146.5 C193.833 -152.167 181.333 -155 166 -155 L134 -153 L123 -215 C124.333 -215.667 129.667 -216.5 139 -217.5 C148.333 -218.5 157.333 -219 166 -219 C239.333 -219 281 -188.667 291 -128 C293 -114 291.833 -101 287.5 -89 C283.167 -77 273 -64.3333 257 -51 C245.667 -41 239.5 -32.6667 238.5 -26 C237.5 -19.3333 237.333 -14.3333 238 -11 C276 -10.3333 314.667 -5.66667 354 3 L345 83 C307.667 74.3333 272.667 70 240 70 C203.333 70 177 78.6667 161 96 C145 113.333 137 140.667 137 178 C137 209.333 142.833 240.667 154.5 272 C166.167 303.333 183.667 328.5 207 347.5 C230.333 366.5 258.667 376 292 376 L292 376 Z " />
<glyph glyph-name="egrave" unicode="&#xe8;" horiz-adv-x="476" d="M331 521 L274 660 L183 660 L250 521 L331 521 Z M429 211 C434.333 236.333 437 267.333 437 304 C437 352 424.167 389.333 398.5 416 C372.833 442.667 334 456 282 456 C246.667 456 214.167 449 184.5 435 C154.833 421 129.5 401.167 108.5 375.5 C87.5 349.833 71.5 319.667 60.5 285 C49.5 250.333 44 213 44 173 C44 111.667 59 65.6667 89 35 C119 4.33333 164.667 -11 226 -11 C252 -11 280.667 -8.66666 312 -4 C343.333 0.666672 371.333 6.66667 396 14 L381 87 C329.667 73 281.667 66 237 66 C201 66 175.333 74.1667 160 90.5 C144.667 106.833 137 135.333 137 176 L139 211 L429 211 Z M275 381 C323 381 347 355.667 347 305 L345 279 L154 279 C158.667 293 165.833 308 175.5 324 C185.167 340 198.667 353.5 216 364.5 C233.333 375.5 253 381 275 381 L275 381 Z " />
<glyph glyph-name="eacute" unicode="&#xe9;" horiz-adv-x="476" d="M412 660 L321 660 L253 521 L333 521 L412 660 Z M429 211 C434.333 236.333 437 267.333 437 304 C437 352 424.167 389.333 398.5 416 C372.833 442.667 334 456 282 456 C246.667 456 214.167 449 184.5 435 C154.833 421 129.5 401.167 108.5 375.5 C87.5 349.833 71.5 319.667 60.5 285 C49.5 250.333 44 213 44 173 C44 111.667 59 65.6667 89 35 C119 4.33333 164.667 -11 226 -11 C252 -11 280.667 -8.66666 312 -4 C343.333 0.666672 371.333 6.66667 396 14 L381 87 C329.667 73 281.667 66 237 66 C201 66 175.333 74.1667 160 90.5 C144.667 106.833 137 135.333 137 176 L139 211 L429 211 Z M275 381 C323 381 347 355.667 347 305 L345 279 L154 279 C158.667 293 165.833 308 175.5 324 C185.167 340 198.667 353.5 216 364.5 C233.333 375.5 253 381 275 381 L275 381 Z " />
<glyph glyph-name="ecircumflex" unicode="&#xea;" horiz-adv-x="476" d="M303 606 L354 519 L441 519 L355 660 L262 660 L140 519 L232 519 L303 606 Z M282 456 C246.667 456 214.167 449 184.5 435 C154.833 421 129.5 401.167 108.5 375.5 C87.5 349.833 71.5 319.667 60.5 285 C49.5 250.333 44 213 44 173 C44 111.667 59 65.6667 89 35 C119 4.33333 164.667 -11 226 -11 C252 -11 280.667 -8.66666 312 -4 C343.333 0.666672 371.333 6.66667 396 14 L381 87 C329.667 73 281.667 66 237 66 C201 66 175.333 74.1667 160 90.5 C144.667 106.833 137 135.333 137 176 L139 211 L429 211 C434.333 235.667 437 266.667 437 304 C437 352 424.167 389.333 398.5 416 C372.833 442.667 334 456 282 456 L282 456 Z M275 381 C323 381 347 355.667 347 305 L345 279 L154 279 C158.667 293 165.833 308 175.5 324 C185.167 340 198.667 353.5 216 364.5 C233.333 375.5 253 381 275 381 L275 381 Z " />
<glyph glyph-name="edieresis" unicode="&#xeb;" horiz-adv-x="476" d="M204 532 C222 532 237.5 538.5 250.5 551.5 C263.5 564.5 270 579.667 270 597 C270 611.667 265.167 624 255.5 634 C245.833 644 233.333 649 218 649 C200 649 184.5 642.5 171.5 629.5 C158.5 616.5 152 601.333 152 584 C152 569.333 156.833 557 166.5 547 C176.167 537 188.667 532 204 532 L204 532 Z M389 532 C407 532 422.667 538.5 436 551.5 C449.333 564.5 456 579.667 456 597 C456 611.667 451 624 441 634 C431 644 418.667 649 404 649 C385.333 649 369.667 642.333 357 629 C344.333 615.667 338 600.333 338 583 C338 568.338 342.667 556.171 352 546.5 C361.333 536.833 373.667 532 389 532 L389 532 Z M282 456 C246.667 456 214.167 449 184.5 435 C154.833 421 129.5 401.167 108.5 375.5 C87.5 349.833 71.5 319.667 60.5 285 C49.5 250.333 44 213 44 173 C44 111.667 59 65.6667 89 35 C119 4.33333 164.667 -11 226 -11 C252 -11 280.667 -8.66666 312 -4 C343.333 0.666672 371.333 6.66667 396 14 L381 87 C329.667 73 281.667 66 237 66 C201 66 175.333 74.1667 160 90.5 C144.667 106.833 137 135.333 137 176 L139 211 L429 211 C434.333 235.667 437 266.667 437 304 C437 352 424.167 389.333 398.5 416 C372.833 442.667 334 456 282 456 L282 456 Z M275 381 C323 381 347 355.667 347 305 L345 279 L154 279 C158.667 293 165.833 308 175.5 324 C185.167 340 198.667 353.5 216 364.5 C233.333 375.5 253 381 275 381 L275 381 Z " />
<glyph glyph-name="igrave" unicode="&#xec;" horiz-adv-x="249" d="M58 660 L125 521 L206 521 L149 660 L58 660 Z M209 446 L111 446 L41 0 L139 0 L209 446 Z " />
<glyph glyph-name="iacute" unicode="&#xed;" horiz-adv-x="249" d="M208 521 L287 660 L196 660 L128 521 L208 521 Z M209 446 L111 446 L41 0 L139 0 L209 446 Z " />
<glyph glyph-name="icircumflex" unicode="&#xee;" horiz-adv-x="511" d="M241 594 C241.667 609.333 237.167 622.5 227.5 633.5 C217.833 644.5 205.333 650 190 650 C178 650 166.5 646.5 155.5 639.5 C144.5 632.5 136.667 624.167 132 614.5 C127.333 604.833 124.667 596 124 588 C122.667 573.336 126.667 560.669 136 550 C145.333 539.333 157.667 534 173 534 C190.333 534 205.666 539.833 219 551.5 C232.333 563.167 239.666 577.333 241 594 L241 594 Z M501 594 C502.333 609.333 498.167 622.5 488.5 633.5 C478.833 644.5 466.333 650 451 650 C434.333 650 419.333 644 406 632 C392.668 620 385.335 605.333 384 588 C383.333 573.336 387.667 560.669 397 550 C406.333 539.333 418.667 534 434 534 C446 534 457.667 537.333 469 544 C480.333 550.667 488.333 558.667 493 568 C497.659 577.333 500.326 586 501 594 L501 594 Z M209 446 L111 446 L41 0 L139 0 L209 446 Z M468 446 L371 446 L297 -20 C293.667 -48.6667 283.5 -76.6667 266.5 -104 C249.5 -131.333 224.333 -161 191 -193 L257 -263 C301.666 -222.333 333.333 -185.5 352 -152.5 C370.667 -119.5 384.667 -76 394 -22 L468 446 Z " />
<glyph glyph-name="idieresis" unicode="&#xef;" horiz-adv-x="249" d="M93 649 C75 649 59.5 642.5 46.5 629.5 C33.5 616.5 27 601.333 27 584 C27 569.333 31.8333 557 41.5 547 C51.1667 537 63.6667 532 79 532 C97 532 112.5 538.5 125.5 551.5 C138.5 564.5 145 579.667 145 597 C145 611.667 140.167 624 130.5 634 C120.833 644 108.333 649 93 649 L93 649 Z M279 649 C260.333 649 244.667 642.333 232 629 C219.333 615.667 213 600.333 213 583 C213 568.338 217.667 556.171 227 546.5 C236.333 536.833 248.666 532 264 532 C282 532 297.667 538.5 311 551.5 C324.333 564.5 331 579.667 331 597 C331 611.667 326 624 316 634 C306 644 293.667 649 279 649 L279 649 Z M209 446 L111 446 L41 0 L139 0 L209 446 Z " />
<glyph glyph-name="eth" unicode="&#xf0;" horiz-adv-x="497" d="M526 565 L500 628 L397 582 C375 627.333 352.667 667.333 330 702 L251 662 C277 618.667 298.333 579.667 315 545 L193 491 L219 430 L340 484 C358.667 432.667 370 383.334 374 336 C352.667 350 328.334 361.333 301 370 C273.667 378.667 248 383 224 383 C191.333 383 163.167 376.167 139.5 362.5 C115.833 348.833 97.8333 333.5 85.5 316.5 C73.1667 299.5 63.1667 280.167 55.5 258.5 C47.8333 236.833 44 212 44 184 C44 124.667 61.5 77.1667 96.5 41.5 C131.5 5.83333 177.667 -12 235 -12 C271 -12 303.667 -4.5 333 10.5 C362.333 25.5 387 46.5 407 73.5 C427 100.5 442.167 132.833 452.5 170.5 C462.833 208.167 468 249 468 293 C468 367.666 453 443.333 423 520 L526 565 Z M237 70 C206.333 70 182.667 80.3333 166 101 C149.334 121.667 140.667 149.667 140 185 C140.667 221.667 150.167 251.167 168.5 273.5 C186.833 295.833 212 307 244 307 C264 307 286 302.667 310 294 C334 285.333 355.333 274.667 374 262 C370.668 203.333 356.835 156.667 332.5 122 C308.167 87.3334 276.334 70 237 70 L237 70 Z " />
<glyph glyph-name="ntilde" unicode="&#xf1;" horiz-adv-x="529" d="M251 569 C262.333 569 283.167 562.833 313.5 550.5 C343.833 538.167 366.333 532 381 532 C397 532 415.167 537.167 435.5 547.5 C455.833 557.833 474 571 490 587 L446 641 C417.333 616.333 394 604 376 604 C364.667 604 343.833 610.167 313.5 622.5 C283.167 634.833 260.334 641 245 641 C230.334 641 213.167 636 193.5 626 C173.833 616 157 604 143 590 L188 536 C197.333 545.329 208 553.162 220 559.5 C232 565.833 242.333 569 251 569 L251 569 Z M358 457 C296 457 241 432.333 193 383 L202 446 L111 446 L40 0 L135 0 L184 315 C228 357 271.333 378 314 378 C336.667 378 353.5 372.5 364.5 361.5 C375.5 350.5 379.333 334.333 376 313 L327 0 L422 0 L476 341 C481.333 375.667 473.5 403.667 452.5 425 C431.5 446.333 400 457 358 457 L358 457 Z " />
<glyph glyph-name="ograve" unicode="&#xf2;" horiz-adv-x="527" d="M198 660 L265 521 L346 521 L289 660 L198 660 Z M298 456 C258.667 456 222.833 448.667 190.5 434 C158.167 419.333 131.167 399.167 109.5 373.5 C87.8333 347.833 71.5 318.5 60.5 285.5 C49.5 252.5 44 218 44 182 C44 119.333 60.1667 71.5 92.5 38.5 C124.833 5.5 171.333 -11 232 -11 C270 -11 304.833 -4.33333 336.5 9 C368.167 22.3333 395 41.1667 417 65.5 C439 89.8333 455.833 118.667 467.5 152 C479.167 185.333 485 221 485 259 C485 323 468.833 371.833 436.5 405.5 C404.167 439.167 358 456 298 456 L298 456 Z M240 69 C206.667 69 181.5 79.1667 164.5 99.5 C147.5 119.833 139 149.667 139 189 C139 228.333 145.833 262 159.5 290 C173.167 318 191 339.5 213 354.5 C235 369.5 260.667 377 290 377 C356 377 389 335.667 389 253 C389 199 375.833 154.833 349.5 120.5 C323.167 86.1667 286.667 69 240 69 L240 69 Z " />
<glyph glyph-name="oacute" unicode="&#xf3;" horiz-adv-x="527" d="M348 521 L427 660 L336 660 L268 521 L348 521 Z M298 456 C258.667 456 222.833 448.667 190.5 434 C158.167 419.333 131.167 399.167 109.5 373.5 C87.8333 347.833 71.5 318.5 60.5 285.5 C49.5 252.5 44 218 44 182 C44 119.333 60.1667 71.5 92.5 38.5 C124.833 5.5 171.333 -11 232 -11 C270 -11 304.833 -4.33333 336.5 9 C368.167 22.3333 395 41.1667 417 65.5 C439 89.8333 455.833 118.667 467.5 152 C479.167 185.333 485 221 485 259 C485 323 468.833 371.833 436.5 405.5 C404.167 439.167 358 456 298 456 L298 456 Z M240 69 C206.667 69 181.5 79.1667 164.5 99.5 C147.5 119.833 139 149.667 139 189 C139 228.333 145.833 262 159.5 290 C173.167 318 191 339.5 213 354.5 C235 369.5 260.667 377 290 377 C356 377 389 335.667 389 253 C389 199 375.833 154.833 349.5 120.5 C323.167 86.1667 286.667 69 240 69 L240 69 Z " />
<glyph glyph-name="ocircumflex" unicode="&#xf4;" horiz-adv-x="527" d="M318 606 L369 519 L455 519 L370 660 L277 660 L154 519 L247 519 L318 606 Z M298 456 C258.667 456 222.833 448.667 190.5 434 C158.167 419.333 131.167 399.167 109.5 373.5 C87.8333 347.833 71.5 318.5 60.5 285.5 C49.5 252.5 44 218 44 182 C44 119.333 60.1667 71.5 92.5 38.5 C124.833 5.5 171.333 -11 232 -11 C270 -11 304.833 -4.33333 336.5 9 C368.167 22.3333 395 41.1667 417 65.5 C439 89.8333 455.833 118.667 467.5 152 C479.167 185.333 485 221 485 259 C485 323 468.833 371.833 436.5 405.5 C404.167 439.167 358 456 298 456 L298 456 Z M240 69 C206.667 69 181.5 79.1667 164.5 99.5 C147.5 119.833 139 149.667 139 189 C139 228.333 145.833 262 159.5 290 C173.167 318 191 339.5 213 354.5 C235 369.5 260.667 377 290 377 C356 377 389 335.667 389 253 C389 199 375.833 154.833 349.5 120.5 C323.167 86.1667 286.667 69 240 69 L240 69 Z " />
<glyph glyph-name="otilde" unicode="&#xf5;" horiz-adv-x="527" d="M450 641 C421.333 616.333 398 604 380 604 C368.667 604 347.834 610.167 317.5 622.5 C287.167 634.833 264.334 641 249 641 C234.334 641 217.167 636 197.5 626 C177.833 616 161 604 147 590 L192 536 C196.667 541.329 205.5 548.162 218.5 556.5 C231.5 564.833 243.667 569 255 569 C266.333 569 287.167 562.833 317.5 550.5 C347.833 538.167 370.333 532 385 532 C401 532 419.167 537.167 439.5 547.5 C459.833 557.833 478 571 494 587 L450 641 Z M298 456 C258.667 456 222.833 448.667 190.5 434 C158.167 419.333 131.167 399.167 109.5 373.5 C87.8333 347.833 71.5 318.5 60.5 285.5 C49.5 252.5 44 218 44 182 C44 119.333 60.1667 71.5 92.5 38.5 C124.833 5.5 171.333 -11 232 -11 C270 -11 304.833 -4.33333 336.5 9 C368.167 22.3333 395 41.1667 417 65.5 C439 89.8333 455.833 118.667 467.5 152 C479.167 185.333 485 221 485 259 C485 323 468.833 371.833 436.5 405.5 C404.167 439.167 358 456 298 456 L298 456 Z M240 69 C206.667 69 181.5 79.1667 164.5 99.5 C147.5 119.833 139 149.667 139 189 C139 228.333 145.833 262 159.5 290 C173.167 318 191 339.5 213 354.5 C235 369.5 260.667 377 290 377 C356 377 389 335.667 389 253 C389 199 375.833 154.833 349.5 120.5 C323.167 86.1667 286.667 69 240 69 L240 69 Z " />
<glyph glyph-name="odieresis" unicode="&#xf6;" horiz-adv-x="527" d="M233 649 C215 649 199.5 642.5 186.5 629.5 C173.5 616.5 167 601.333 167 584 C167 569.333 171.833 557 181.5 547 C191.167 537 203.667 532 219 532 C236.333 532 251.666 538.5 265 551.5 C278.333 564.5 285 579.667 285 597 C285 611.667 280.167 624 270.5 634 C260.833 644 248.333 649 233 649 L233 649 Z M418 649 C400 649 384.5 642.333 371.5 629 C358.5 615.667 352 600.333 352 583 C352 568.338 356.833 556.171 366.5 546.5 C376.167 536.833 388.667 532 404 532 C422 532 437.667 538.5 451 551.5 C464.333 564.5 471 579.667 471 597 C471 611.667 466 624 456 634 C446 644 433.333 649 418 649 L418 649 Z M298 456 C258.667 456 222.833 448.667 190.5 434 C158.167 419.333 131.167 399.167 109.5 373.5 C87.8333 347.833 71.5 318.5 60.5 285.5 C49.5 252.5 44 218 44 182 C44 119.333 60.1667 71.5 92.5 38.5 C124.833 5.5 171.333 -11 232 -11 C270 -11 304.833 -4.33333 336.5 9 C368.167 22.3333 395 41.1667 417 65.5 C439 89.8333 455.833 118.667 467.5 152 C479.167 185.333 485 221 485 259 C485 323 468.833 371.833 436.5 405.5 C404.167 439.167 358 456 298 456 L298 456 Z M240 69 C206.667 69 181.5 79.1667 164.5 99.5 C147.5 119.833 139 149.667 139 189 C139 228.333 145.833 262 159.5 290 C173.167 318 191 339.5 213 354.5 C235 369.5 260.667 377 290 377 C356 377 389 335.667 389 253 C389 199 375.833 154.833 349.5 120.5 C323.167 86.1667 286.667 69 240 69 L240 69 Z " />
<glyph glyph-name="divide" unicode="&#xf7;" horiz-adv-x="568" d="M282 477 C264.667 477 250.167 471 238.5 459 C226.833 447 221 432.333 221 415 C221 398.333 226.833 384 238.5 372 C250.167 360 264.667 354 282 354 C299.333 354 313.833 360 325.5 372 C337.167 384 343 398.333 343 415 C343 432.333 337.167 447 325.5 459 C313.833 471 299.333 477 282 477 L282 477 Z M513 272 L42 272 L41 193 L511 193 L513 272 Z M275 110 C258.333 110 244 104 232 92 C220 80 214 65.3333 214 48 C214 31.3333 220 16.8333 232 4.5 C244 -7.83333 258.333 -14 275 -14 C292.333 -14 306.833 -7.83333 318.5 4.5 C330.167 16.8333 336 31.3333 336 48 C336 65.3333 330.167 80 318.5 92 C306.833 104 292.333 110 275 110 L275 110 Z " />
<glyph glyph-name="oslash" unicode="&#xf8;" horiz-adv-x="551" d="M562 442 L523 483 L446 414 C413.333 442 365.333 456 302 456 C265.333 456 231.333 449.167 200 435.5 C168.667 421.833 141.833 402.333 119.5 377 C97.1667 351.667 80 321.334 68 286 C56 250.667 50 212.333 50 171 C50 134.333 56.6667 102.667 70 76 L-4 10 L34 -31 L104 32 C138 3.33333 184.667 -11 244 -11 C272.667 -11 299.833 -7.16667 325.5 0.5 C351.167 8.16667 374 19 394 33 C414 47 431.333 64.3333 446 85 C460.667 105.667 473 131.333 483 162 C493 192.667 498 229.333 498 272 C498 310 492 342 480 368 L562 442 Z M143 184 C143 241.333 157.333 287.833 186 323.5 C214.667 359.167 252 377 298 377 C313.333 377 327.833 374.667 341.5 370 C355.166 365.333 366.333 358.667 375 350 L146 145 C144 156.333 143 169.333 143 184 L143 184 Z M404 264 C404 204 390.833 156.5 364.5 121.5 C338.167 86.5 301.667 69 255 69 C238.333 69 222.833 71.1667 208.5 75.5 C194.167 79.8333 182.667 86 174 94 L401 298 C403 288 404 276.667 404 264 L404 264 Z " />
<glyph glyph-name="ugrave" unicode="&#xf9;" horiz-adv-x="525" d="M341 521 L284 660 L194 660 L261 521 L341 521 Z M389 446 L338 125 C297.333 87 256 68 214 68 C165.333 68 145.333 94 154 146 L203 446 L107 446 L54 108 C48 71.3333 55.3333 42.3333 76 21 C96.6667 -0.333328 128.333 -11 171 -11 C231 -11 284.667 12.6667 332 60 L322 0 L414 0 L484 446 L389 446 Z " />
<glyph glyph-name="uacute" unicode="&#xfa;" horiz-adv-x="525" d="M422 660 L331 660 L264 521 L344 521 L422 660 Z M389 446 L338 125 C297.333 87 256 68 214 68 C165.333 68 145.333 94 154 146 L203 446 L107 446 L54 108 C48 71.3333 55.3333 42.3333 76 21 C96.6667 -0.333328 128.333 -11 171 -11 C231 -11 284.667 12.6667 332 60 L322 0 L414 0 L484 446 L389 446 Z " />
<glyph glyph-name="ucircumflex" unicode="&#xfb;" horiz-adv-x="525" d="M314 606 L364 519 L451 519 L366 660 L272 660 L150 519 L243 519 L314 606 Z M389 446 L338 125 C297.333 87 256 68 214 68 C165.333 68 145.333 94 154 146 L203 446 L107 446 L54 108 C48 71.3333 55.3333 42.3333 76 21 C96.6667 -0.333328 128.333 -11 171 -11 C231 -11 284.667 12.6667 332 60 L322 0 L414 0 L484 446 L389 446 Z " />
<glyph glyph-name="udieresis" unicode="&#xfc;" horiz-adv-x="525" d="M399 532 C417 532 432.667 538.5 446 551.5 C459.333 564.5 466 579.667 466 597 C466 611.667 461.167 624 451.5 634 C441.833 644 429.333 649 414 649 C396 649 380.5 642.333 367.5 629 C354.5 615.667 348 600.333 348 583 C348 568.338 352.833 556.171 362.5 546.5 C372.165 536.833 384.332 532 399 532 L399 532 Z M214 532 C232 532 247.667 538.5 261 551.5 C274.333 564.5 281 579.667 281 597 C281 611.667 276 624 266 634 C256 644 243.333 649 228 649 C210.667 649 195.5 642.5 182.5 629.5 C169.5 616.5 163 601.333 163 584 C163 569.333 167.667 557 177 547 C186.333 537 198.667 532 214 532 L214 532 Z M389 446 L338 125 C297.333 87 256 68 214 68 C165.333 68 145.333 94 154 146 L203 446 L107 446 L54 108 C48 71.3333 55.3333 42.3333 76 21 C96.6667 -0.333328 128.333 -11 171 -11 C231 -11 284.667 12.6667 332 60 L322 0 L414 0 L484 446 L389 446 Z " />
<glyph glyph-name="yacute" unicode="&#xfd;" horiz-adv-x="456" d="M383 660 L292 660 L224 521 L304 521 L383 660 Z M372 446 L219 151 C209 131.667 198.333 109 187 83 C186.333 97 184.333 119.667 181 151 L149 446 L46 446 L116 -9 C92.6667 -51 68 -84.3333 42 -109 C16 -133.667 -14.6667 -153 -50 -167 L-16 -248 C37.3333 -224 82.8333 -193.833 120.5 -157.5 C158.167 -121.167 193.333 -73 226 -13 L479 446 L372 446 Z " />
<glyph glyph-name="thorn" unicode="&#xfe;" horiz-adv-x="517" d="M341 456 C314.333 456 288.333 450.833 263 440.5 C237.667 430.167 215.333 415.334 196 396 L200 416 L251 735 L157 735 L0 -251 L97 -251 L138 9 C168.667 -5 201.667 -12 237 -12 C273.666 -12 307.333 -4 338 12 C368.667 28 394.333 50 415 78 C435.666 106 451.332 138 462 174 C472.667 210 478 247.333 478 286 C478 399.333 432.333 456 341 456 L341 456 Z M226 69 C201.333 69 176 74 150 84 L188 328 C206 343.333 225.167 355 245.5 363 C265.833 371 285.667 375 305 375 C332.333 375 352 366.833 364 350.5 C376 334.167 382 309.667 382 277 C382 243.667 377.167 213.5 367.5 186.5 C357.833 159.5 345.5 137 330.5 119 C315.5 101 298.833 88.1667 280.5 80.5 C262.167 72.8333 244 69 226 69 L226 69 Z " />
<glyph glyph-name="ydieresis" unicode="&#xff;" horiz-adv-x="456" d="M360 532 C378 532 393.667 538.5 407 551.5 C420.333 564.5 427 579.667 427 597 C427 611.667 422 624 412 634 C402 644 389.667 649 375 649 C356.333 649 340.667 642.333 328 629 C315.333 615.667 309 600.333 309 583 C309 568.338 313.667 556.171 323 546.5 C332.333 536.833 344.667 532 360 532 L360 532 Z M175 532 C193 532 208.5 538.5 221.5 551.5 C234.5 564.5 241 579.667 241 597 C241 611.667 236.167 624 226.5 634 C216.833 644 204.333 649 189 649 C171 649 155.5 642.5 142.5 629.5 C129.5 616.5 123 601.333 123 584 C123 569.333 127.833 557 137.5 547 C147.167 537 159.667 532 175 532 L175 532 Z M372 446 L219 151 C209 131.667 198.333 109 187 83 C186.333 97 184.333 119.667 181 151 L149 446 L46 446 L116 -9 C92.6667 -51 68 -84.3333 42 -109 C16 -133.667 -14.6667 -153 -50 -167 L-16 -248 C37.3333 -224 82.8333 -193.833 120.5 -157.5 C158.167 -121.167 193.333 -73 226 -13 L479 446 L372 446 Z " />
<glyph glyph-name="Amacron" unicode="&#x100;" horiz-adv-x="601" d="M551 811 L263 811 L249 733 L539 733 L551 811 Z M454 0 L560 0 L443 660 L318 660 L-28 0 L85 0 L165 159 L429 159 L454 0 Z M208 246 L366 561 L416 246 L208 246 Z " />
<glyph glyph-name="amacron" unicode="&#x101;" horiz-adv-x="510" d="M197 627 L184 549 L473 549 L486 627 L197 627 Z M40 150 C40 42.6667 86 -11 178 -11 C234 -11 281.333 13.3333 320 62 L309 0 L402 0 L472 441 C452 445 428 448.5 400 451.5 C372 454.5 348 456 328 456 C285.333 456 246 448.5 210 433.5 C174 418.5 143.333 397.333 118 370 C92.6667 342.667 73.3334 310.167 60 272.5 C46.6667 234.833 40 194 40 150 L40 150 Z M203 69 C157 69 134 99 134 159 C134 221 150.667 272.5 184 313.5 C217.333 354.5 260.667 375 314 375 C333.333 375 351 373.667 367 371 L328 139 C288 92.3333 246.333 69 203 69 L203 69 Z " />
<glyph glyph-name="Abreve" unicode="&#x102;" horiz-adv-x="601" d="M385 707 C425.666 707 460.833 719.333 490.5 744 C520.167 768.667 540 800.333 550 839 L470 839 C464 820.336 453.833 804.17 439.5 790.5 C425.167 776.833 407.334 770 386 770 C369.333 770 355.667 774.667 345 784 C334.333 793.33 329.333 811.664 330 839 L251 839 C250.332 814.333 255.166 790.833 265.5 768.5 C275.833 746.167 292.167 730.333 314.5 721 C336.833 711.667 360.333 707 385 707 L385 707 Z M454 0 L560 0 L443 660 L317 660 L-28 0 L85 0 L165 159 L429 159 L454 0 Z M208 246 L366 561 L416 246 L208 246 Z " />
<glyph glyph-name="abreve" unicode="&#x103;" horiz-adv-x="510" d="M328 521 C348 521 370 525 394 533 C418 541 439.5 556.167 458.5 578.5 C477.5 600.833 490.667 628 498 660 L417 660 C411 633.333 401.167 614 387.5 602 C373.833 590 356.333 584 335 584 C313 584 296.667 590.333 286 603 C275.333 615.667 272 634.667 276 660 L197 660 C193 634 194.833 611.833 202.5 593.5 C210.167 575.167 220.667 560.667 234 550 C247.333 539.333 262.333 531.833 279 527.5 C295.667 523.167 312 521 328 521 L328 521 Z M40 150 C40 42.6667 86 -11 178 -11 C234 -11 281.333 13.3333 320 62 L309 0 L402 0 L472 441 C452 445 428 448.5 400 451.5 C372 454.5 348 456 328 456 C285.333 456 246 448.5 210 433.5 C174 418.5 143.333 397.333 118 370 C92.6667 342.667 73.3334 310.167 60 272.5 C46.6667 234.833 40 194 40 150 L40 150 Z M203 69 C157 69 134 99 134 159 C134 221 150.667 272.5 184 313.5 C217.333 354.5 260.667 375 314 375 C333.333 375 351 373.667 367 371 L328 139 C288 92.3333 246.333 69 203 69 L203 69 Z " />
<glyph glyph-name="Aogonek" unicode="&#x104;" horiz-adv-x="601" d="M462 -123 C462 -96.3333 486.333 -55.3333 535 0 L560 0 L443 660 L317 660 L-28 0 L85 0 L165 159 L429 159 L454 1 C432 -27 415 -54.5 403 -81.5 C391 -108.5 385 -132 385 -152 C385 -168.667 389.667 -182.667 399 -194 C408.333 -205.333 423.833 -213.667 445.5 -219 C467.167 -224.333 497 -224 535 -218 L547 -152 C490.333 -162 462 -152.333 462 -123 L462 -123 Z M208 246 L366 561 L416 246 L208 246 Z " />
<glyph glyph-name="aogonek" unicode="&#x105;" horiz-adv-x="510" d="M317 -123 C317 -96.3333 340 -55.3333 386 0 L402 0 L472 441 C452 445 428 448.5 400 451.5 C372 454.5 348 456 328 456 C285.333 456 246 448.5 210 433.5 C174 418.5 143.333 397.333 118 370 C92.6667 342.667 73.3334 310.167 60 272.5 C46.6667 234.833 40 194 40 150 C40 42.6667 86 -11 178 -11 C234 -11 281.333 13.3333 320 62 L310 3 C288 -25.6667 270.833 -53.6667 258.5 -81 C246.167 -108.333 240 -132 240 -152 C240 -168.667 244.667 -182.667 254 -194 C263.333 -205.333 278.833 -213.667 300.5 -219 C322.167 -224.333 352 -224 390 -218 L402 -152 C345.333 -162 317 -152.333 317 -123 L317 -123 Z M203 69 C157 69 134 99 134 159 C134 221 150.667 272.5 184 313.5 C217.333 354.5 260.667 375 314 375 C333.333 375 351 373.667 367 371 L328 139 C288 92.3333 246.333 69 203 69 L203 69 Z " />
<glyph glyph-name="Cacute" unicode="&#x106;" horiz-adv-x="565" d="M482 719 L557 851 L465 851 L401 719 L482 719 Z M446 672 C394.667 672 349 665.5 309 652.5 C269 639.5 234.167 622 204.5 600 C174.833 578 149.667 551.833 129 521.5 C108.333 491.167 91.5 455.334 78.5 414 C65.5 372.667 59 326.333 59 275 C59 84.3333 160.667 -11 364 -11 C410.666 -11 461.333 -6 516 4 L506 95 C463.333 87.6667 420.667 84 378 84 C304 84 249.5 99.1667 214.5 129.5 C179.5 159.833 162 207.333 162 272 C162 336.666 173.333 391.833 196 437.5 C218.667 483.167 250.667 518.333 292 543 C333.333 567.667 384 580 444 580 C484 580 534 574 594 562 L612 652 C555.333 665.333 500 672 446 672 L446 672 Z " />
<glyph glyph-name="cacute" unicode="&#x107;" horiz-adv-x="408" d="M344 521 L422 660 L331 660 L264 521 L344 521 Z M399 361 L417 439 C379 451 338.333 457 295 457 C257 457 222.167 450 190.5 436 C158.833 422 132.167 402.167 110.5 376.5 C88.8333 350.833 72.1667 320.5 60.5 285.5 C48.8333 250.5 43 212.667 43 172 C43 49.3333 101.333 -12 218 -12 C261.333 -12 306.667 -7 354 3 L345 83 C307.667 74.3333 272.667 70 240 70 C203.333 70 177 78.6667 161 96 C145 113.333 137 140.667 137 178 C137 209.333 142.833 240.667 154.5 272 C166.167 303.333 183.667 328.5 207 347.5 C230.333 366.5 258.667 376 292 376 C323.333 376 359 371 399 361 L399 361 Z " />
<glyph glyph-name="Cdotaccent" unicode="&#x10a;" horiz-adv-x="565" d="M460 830 C448 830 436.667 826.5 426 819.5 C415.333 812.5 407.667 804.333 403 795 C398.333 785.667 395.667 777 395 769 C393.667 754.333 397.667 741.833 407 731.5 C416.333 721.167 428.333 716 443 716 C459.667 716 474.667 721.833 488 733.5 C501.333 745.167 508.333 759 509 775 C510.333 790.333 506.167 803.333 496.5 814 C486.833 824.667 474.667 830 460 830 L460 830 Z M446 672 C394.667 672 349 665.5 309 652.5 C269 639.5 234.167 622 204.5 600 C174.833 578 149.667 551.833 129 521.5 C108.333 491.167 91.5 455.334 78.5 414 C65.5 372.667 59 326.333 59 275 C59 84.3333 160.667 -11 364 -11 C410.666 -11 461.333 -6 516 4 L506 95 C463.333 87.6667 420.667 84 378 84 C304 84 249.5 99.1667 214.5 129.5 C179.5 159.833 162 207.333 162 272 C162 336.666 173.333 391.833 196 437.5 C218.667 483.167 250.667 518.333 292 543 C333.333 567.667 384 580 444 580 C484 580 534 574 594 562 L612 652 C555.333 665.333 500 672 446 672 L446 672 Z " />
<glyph glyph-name="cdotaccent" unicode="&#x10b;" horiz-adv-x="408" d="M376 594 C377.333 609.333 373 622.5 363 633.5 C353 644.5 340.333 650 325 650 C313 650 301.667 646.5 291 639.5 C280.333 632.5 272.5 624.167 267.5 614.5 C262.5 604.833 259.667 596 259 588 C258.333 573.336 262.667 560.669 272 550 C281.333 539.333 293.667 534 309 534 C321 534 332.667 537.333 344 544 C355.333 550.667 363.333 558.667 368 568 C372.664 577.333 375.33 586 376 594 L376 594 Z M399 361 L417 439 C379 451 338.333 457 295 457 C257 457 222.167 450 190.5 436 C158.833 422 132.167 402.167 110.5 376.5 C88.8333 350.833 72.1667 320.5 60.5 285.5 C48.8333 250.5 43 212.667 43 172 C43 49.3333 101.333 -12 218 -12 C261.333 -12 306.667 -7 354 3 L345 83 C307.667 74.3333 272.667 70 240 70 C203.333 70 177 78.6667 161 96 C145 113.333 137 140.667 137 178 C137 209.333 142.833 240.667 154.5 272 C166.167 303.333 183.667 328.5 207 347.5 C230.333 366.5 258.667 376 292 376 C323.333 376 359 371 399 361 L399 361 Z " />
<glyph glyph-name="Ccaron" unicode="&#x10c;" horiz-adv-x="565" d="M490 707 L588 839 L502 839 L446 756 L409 839 L328 839 L389 707 L490 707 Z M444 580 C484 580 534 574 594 562 L612 652 C555.333 665.333 500 672 446 672 C394.667 672 349 665.5 309 652.5 C269 639.5 234.167 622 204.5 600 C174.833 578 149.667 551.833 129 521.5 C108.333 491.167 91.5 455.334 78.5 414 C65.5 372.667 59 326.333 59 275 C59 84.3333 160.667 -11 364 -11 C410.666 -11 461.333 -6 516 4 L506 95 C463.333 87.6667 420.667 84 378 84 C304 84 249.5 99.1667 214.5 129.5 C179.5 159.833 162 207.333 162 272 C162 336.666 173.333 391.833 196 437.5 C218.667 483.167 250.667 518.333 292 543 C333.333 567.667 384 580 444 580 L444 580 Z " />
<glyph glyph-name="ccaron" unicode="&#x10d;" horiz-adv-x="408" d="M357 521 L460 660 L375 660 L313 570 L273 660 L192 660 L256 520 L357 521 Z M43 172 C43 49.3333 101.333 -12 218 -12 C261.333 -12 306.667 -7 354 3 L345 83 C307.667 74.3333 272.667 70 240 70 C203.333 70 177 78.6667 161 96 C145 113.333 137 140.667 137 178 C137 209.333 142.833 240.667 154.5 272 C166.167 303.333 183.667 328.5 207 347.5 C230.333 366.5 258.667 376 292 376 C323.333 376 359 371 399 361 L417 439 C379 451 338 457 294 457 C256 457 221.333 450 190 436 C158.667 422 132.167 402.167 110.5 376.5 C88.8333 350.833 72.1667 320.5 60.5 285.5 C48.8333 250.5 43 212.667 43 172 L43 172 Z " />
<glyph glyph-name="Dcaron" unicode="&#x10e;" horiz-adv-x="687" d="M435 707 L533 839 L447 839 L390 756 L353 839 L273 839 L334 707 L435 707 Z M357 661 L159 658 L55 1 C178.333 -2.33333 252 -4 276 -4 C336.667 -4 391 4.83333 439 22.5 C487 40.1667 527.5 65.8333 560.5 99.5 C593.5 133.167 618.5 174.833 635.5 224.5 C652.5 274.167 661 329.667 661 391 C661 479 635.167 546 583.5 592 C531.834 638 456.334 661 357 661 L357 661 Z M285 85 L170 87 L246 570 L337 572 C413.666 572 469.833 556.167 505.5 524.5 C541.167 492.833 559 445 559 381 C559 331.667 552.5 288.167 539.5 250.5 C526.5 212.833 508 181.833 484 157.5 C460 133.167 431 115 397 103 C363 91 325.667 85 285 85 L285 85 Z " />
<glyph glyph-name="dcaron" unicode="&#x10f;" horiz-adv-x="513" d="M382 452 C361.333 454.667 338.333 456 313 456 C269.667 456 230.667 447.667 196 431 C161.333 414.333 132.5 391.833 109.5 363.5 C86.5 335.167 69.1667 302.667 57.5 266 C45.8333 229.333 40 191.333 40 152 C40 98.6667 51.6667 57.8333 75 29.5 C98.3333 1.16667 130.667 -13 172 -13 C228.667 -13 279 12.3333 323 63 L313 0 L405 0 L522 735 L427 735 L382 452 Z M595 735 L566 558 L634 558 L687 735 L595 735 Z M206 68 C158 68 134 100.333 134 165 C134 193 138.5 221.5 147.5 250.5 C156.5 279.5 170.667 304 190 324 C209.333 344 229.5 357.667 250.5 365 C271.5 372.333 292 376 312 376 C330 376 349.333 373.667 370 369 L332 136 C314 116 293.667 99.6667 271 87 C248.333 74.3333 226.667 68 206 68 L206 68 Z " />
<glyph glyph-name="Dcroat" unicode="&#x110;" horiz-adv-x="714" d="M378 661 L180 658 L136 378 L88 378 L73 286 L121 286 L76 1 C199.333 -2.33333 273 -4 297 -4 C357.667 -4 412 4.83333 460 22.5 C508 40.1667 548.5 65.8333 581.5 99.5 C614.5 133.167 639.5 174.833 656.5 224.5 C673.5 274.167 682 329.667 682 391 C682 479 656.167 546 604.5 592 C552.834 638 477.334 661 378 661 L378 661 Z M306 85 L191 87 L223 286 L383 286 L397 378 L237 378 L267 570 L358 572 C434.666 572 490.833 556.167 526.5 524.5 C562.167 492.833 580 445 580 381 C580 331.667 573.5 288.167 560.5 250.5 C547.5 212.833 529 181.833 505 157.5 C481 133.167 452 115 418 103 C384 91 346.667 85 306 85 L306 85 Z " />
<glyph glyph-name="dcroat" unicode="&#x111;" horiz-adv-x="512" d="M567 616 L503 616 L522 735 L428 735 L408 616 L286 616 L274 547 L397 547 L382 452 C361.333 454.667 338.333 456 313 456 C269.667 456 230.667 447.667 196 431 C161.333 414.333 132.5 391.833 109.5 363.5 C86.5 335.167 69.1667 302.667 57.5 266 C45.8333 229.333 40 191.333 40 152 C40 98.6667 51.6667 57.8333 75 29.5 C98.3333 1.16667 130.667 -13 172 -13 C228.667 -13 279 12.3333 323 63 L313 0 L405 0 L492 547 L556 547 L567 616 Z M206 68 C158 68 134 100.333 134 165 C134 193 138.5 221.5 147.5 250.5 C156.5 279.5 170.667 304 190 324 C209.333 344 229.5 357.667 250.5 365 C271.5 372.333 292 376 312 376 C330 376 349.333 373.667 370 369 L332 136 C314 116 293.667 99.6667 271 87 C248.333 74.3333 226.667 68 206 68 L206 68 Z " />
<glyph glyph-name="Emacron" unicode="&#x112;" horiz-adv-x="508" d="M518 811 L229 811 L216 733 L505 733 L518 811 Z M56 0 L423 0 L436 90 L170 90 L202 289 L438 289 L452 379 L216 379 L246 570 L495 570 L509 660 L160 660 L56 0 Z " />
<glyph glyph-name="emacron" unicode="&#x113;" horiz-adv-x="476" d="M450 627 L161 627 L148 549 L437 549 L450 627 Z M282 456 C246.667 456 214.167 449 184.5 435 C154.833 421 129.5 401.167 108.5 375.5 C87.5 349.833 71.5 319.667 60.5 285 C49.5 250.333 44 213 44 173 C44 111.667 59 65.6667 89 35 C119 4.33333 164.667 -11 226 -11 C252 -11 280.667 -8.66666 312 -4 C343.333 0.666672 371.333 6.66667 396 14 L381 87 C329.667 73 281.667 66 237 66 C201 66 175.333 74.1667 160 90.5 C144.667 106.833 137 135.333 137 176 L139 211 L429 211 C434.333 236.333 437 267.333 437 304 C437 352 424.167 389.333 398.5 416 C372.833 442.667 334 456 282 456 L282 456 Z M275 381 C323 381 347 355.667 347 305 L345 279 L154 279 C158.667 293 165.833 308 175.5 324 C185.167 340 198.667 353.5 216 364.5 C233.333 375.5 253 381 275 381 L275 381 Z " />
<glyph glyph-name="Edotaccent" unicode="&#x116;" horiz-adv-x="508" d="M354 716 C370.667 716 385.667 721.833 399 733.5 C412.333 745.167 419.667 759 421 775 C421.67 790.333 417.337 803.333 408 814 C398.667 824.667 386.334 830 371 830 C359 830 347.667 826.5 337 819.5 C326.333 812.5 318.667 804.333 314 795 C309.333 785.667 306.667 777 306 769 C304.667 754.333 308.667 741.833 318 731.5 C327.333 721.167 339.333 716 354 716 L354 716 Z M495 570 L509 660 L160 660 L56 0 L423 0 L436 90 L170 90 L202 289 L438 289 L452 379 L216 379 L246 570 L495 570 Z " />
<glyph glyph-name="edotaccent" unicode="&#x117;" horiz-adv-x="476" d="M298 534 C315.333 534 330.667 539.833 344 551.5 C357.333 563.167 364.667 577.333 366 594 C366.667 609.333 362.167 622.5 352.5 633.5 C342.833 644.5 330.333 650 315 650 C303 650 291.5 646.5 280.5 639.5 C269.5 632.5 261.667 624.167 257 614.5 C252.335 604.833 249.669 596 249 588 C247.667 573.336 251.667 560.669 261 550 C270.333 539.333 282.667 534 298 534 L298 534 Z M429 211 C434.333 236.333 437 267.333 437 304 C437 352 424.167 389.333 398.5 416 C372.833 442.667 334 456 282 456 C246.667 456 214.167 449 184.5 435 C154.833 421 129.5 401.167 108.5 375.5 C87.5 349.833 71.5 319.667 60.5 285 C49.5 250.333 44 213 44 173 C44 111.667 59 65.6667 89 35 C119 4.33333 164.667 -11 226 -11 C252 -11 280.667 -8.66666 312 -4 C343.333 0.666672 371.333 6.66667 396 14 L381 87 C329.667 73 281.667 66 237 66 C201 66 175.333 74.1667 160 90.5 C144.667 106.833 137 135.333 137 176 L139 211 L429 211 Z M275 381 C323 381 347 355.667 347 305 L345 279 L154 279 C158.667 293 165.833 308 175.5 324 C185.167 340 198.667 353.5 216 364.5 C233.333 375.5 253 381 275 381 L275 381 Z " />
<glyph glyph-name="Eogonek" unicode="&#x118;" horiz-adv-x="508" d="M495 570 L509 660 L160 660 L56 0 L345 0 C317.667 -36.6667 299.334 -67.5 290 -92.5 C280.667 -117.5 276 -137.333 276 -152 C276 -168.667 280.667 -182.667 290 -194 C299.333 -205.333 314.833 -213.667 336.5 -219 C358.167 -224.333 388 -224 426 -218 L438 -152 C381.333 -162 353 -152.333 353 -123 C353 -96.3333 376 -55.3333 422 0 L423 0 L436 90 L170 90 L202 289 L438 289 L452 379 L216 379 L246 570 L495 570 Z " />
<glyph glyph-name="eogonek" unicode="&#x119;" horiz-adv-x="483" d="M436 211 C441.333 236.333 444 267.333 444 304 C444 352 431 389.333 405 416 C379 442.667 340.333 456 289 456 C253.667 456 221.167 449 191.5 435 C161.833 421 136.5 401.167 115.5 375.5 C94.5 349.833 78.5 319.667 67.5 285 C56.5 250.333 51 213 51 173 C51 111.667 66 65.6667 96 35 C126 4.33333 171.667 -11 233 -11 C255 -11 280.333 -9.33333 309 -6 C289 -32.6667 273.333 -58.6667 262 -84 C250.667 -109.333 245 -131.333 245 -150 C245 -162.667 248.167 -174.833 254.5 -186.5 C260.833 -198.167 272 -206.834 288 -212.5 C304 -218.167 321.167 -221 339.5 -221 C357.833 -221 376.333 -219.667 395 -217 L407 -151 C350.333 -161 322 -151.333 322 -122 C322 -108 329.833 -88.1667 345.5 -62.5 C361.167 -36.8333 380 -11.3333 402 14 L388 87 C336.667 73 288.667 66 244 66 C208 66 182.333 74.1667 167 90.5 C151.667 106.833 144 135.333 144 176 L146 211 L436 211 Z M282 381 C307.333 381 325.5 374.5 336.5 361.5 C347.5 348.5 353.333 329.667 354 305 C354 297 353 288.333 351 279 L160 279 C168 301 178.667 320.333 192 337 C205.333 353.667 220 365.167 236 371.5 C252 377.833 267.333 381 282 381 L282 381 Z " />
<glyph glyph-name="Ecaron" unicode="&#x11a;" horiz-adv-x="508" d="M401 707 L499 839 L413 839 L357 756 L320 839 L239 839 L301 707 L401 707 Z M495 570 L509 660 L160 660 L56 0 L423 0 L436 90 L170 90 L202 289 L438 289 L452 379 L216 379 L246 570 L495 570 Z " />
<glyph glyph-name="ecaron" unicode="&#x11b;" horiz-adv-x="476" d="M346 521 L450 660 L364 660 L302 570 L262 660 L182 660 L246 520 L346 521 Z M282 456 C246.667 456 214.167 449 184.5 435 C154.833 421 129.5 401.167 108.5 375.5 C87.5 349.833 71.5 319.667 60.5 285 C49.5 250.333 44 213 44 173 C44 111.667 59 65.6667 89 35 C119 4.33333 164.667 -11 226 -11 C252 -11 280.667 -8.66666 312 -4 C343.333 0.666672 371.333 6.66667 396 14 L381 87 C329.667 73 281.667 66 237 66 C201 66 175.333 74.1667 160 90.5 C144.667 106.833 137 135.333 137 176 L139 211 L429 211 C434.333 236.333 437 267.333 437 304 C437 352 424.167 389.333 398.5 416 C372.833 442.667 334 456 282 456 L282 456 Z M275 381 C323 381 347 355.667 347 305 L345 279 L154 279 C158.667 293 165.833 308 175.5 324 C185.167 340 198.667 353.5 216 364.5 C233.333 375.5 253 381 275 381 L275 381 Z " />
<glyph glyph-name="Gbreve" unicode="&#x11e;" horiz-adv-x="671" d="M592 839 L511 839 C503 814.336 491.167 796.67 475.5 786 C459.833 775.333 443.667 770 427 770 C410.333 770 396.667 774.667 386 784 C375.333 793.33 370.333 811.664 371 839 L292 839 C291.333 814.333 295.667 791.833 305 771.5 C314.333 751.167 329.167 735.333 349.5 724 C369.833 712.667 395.333 707 426 707 C467.333 707 502.833 719.333 532.5 744 C562.167 768.667 582 800.333 592 839 L592 839 Z M442 680 C381.333 680 327.167 670.667 279.5 652 C231.833 633.333 191.833 606.5 159.5 571.5 C127.167 536.5 102.667 494.167 86 444.5 C69.3333 394.833 61 340 61 280 C60.3333 237.333 64.8333 196.5 74.5 157.5 C84.1667 118.5 100.5 85.6667 123.5 59 C146.5 32.3333 176.167 12.1667 212.5 -1.5 C248.833 -15.1667 293.667 -22 347 -22 C411 -22 482.333 -14.3333 561 1 L610 316 L512 316 L475 80 C438.333 72 401.667 68 365 68 C316.333 68 277.5 74.8333 248.5 88.5 C219.5 102.167 197.833 123.5 183.5 152.5 C169.167 181.5 162 223.667 162 279 C162 381.667 185.5 459 232.5 511 C279.5 563 348.333 589 439 589 C491 589 550.667 580.667 618 564 L639 652 C609 660.667 575.667 667.5 539 672.5 C502.333 677.5 470 680 442 680 L442 680 Z " />
<glyph glyph-name="gbreve" unicode="&#x11f;" horiz-adv-x="512" d="M311 521 C342.333 521 370.667 528 396 542 C421.333 556 440.5 574 453.5 596 C466.5 618 475.333 639.333 480 660 L400 660 C388 609.333 360.667 584 318 584 C296 584 279.667 590.5 269 603.5 C258.333 616.5 254.667 635.333 258 660 L180 660 C173.333 618.667 182.333 585.167 207 559.5 C231.667 533.833 266.333 521 311 521 L311 521 Z M39 149 C39 95.6667 51.6667 55.6667 77 29 C102.333 2.33333 136 -11 178 -11 C235.333 -11 282.667 11.6667 320 57 L299 -81 C294.333 -112.333 280.167 -136.167 256.5 -152.5 C232.833 -168.833 201.667 -177 163 -177 C119.667 -177 74.6667 -170.667 28 -158 L7 -241 C63.6667 -254.333 119 -261 173 -261 C234.333 -261 283.833 -246.667 321.5 -218 C359.167 -189.333 382 -148.667 390 -96 L472 439 C412 449 361.333 454 320 454 C281.333 454 246.167 448 214.5 436 C182.833 424 156.333 408 135 388 C113.667 368 96.3334 345.833 83 321.5 C69.6667 297.167 59 270 51 240 C43 210 39 179.667 39 149 L39 149 Z M206 66 C158 66 134 97.6667 134 161 C134 191 140 223.333 152 258 C164 292.667 184.167 321 212.5 343 C240.833 365 274 376 312 376 C329.333 376 348.333 374.667 369 372 L333 139 C313.667 115.667 293 97.6667 271 85 C249 72.3333 227.333 66 206 66 L206 66 Z " />
<glyph glyph-name="Gdotaccent" unicode="&#x120;" horiz-adv-x="671" d="M446 830 C430 830 415.333 824 402 812 C388.668 800 381.335 785.667 380 769 C379.333 754.333 383.667 741.833 393 731.5 C402.333 721.167 414.333 716 429 716 C445.667 716 460.667 721.833 474 733.5 C487.333 745.167 494.333 759 495 775 C496.333 790.333 492.167 803.333 482.5 814 C472.833 824.667 460.667 830 446 830 L446 830 Z M442 680 C381.333 680 327.167 670.667 279.5 652 C231.833 633.333 191.833 606.5 159.5 571.5 C127.167 536.5 102.667 494.167 86 444.5 C69.3333 394.833 61 340 61 280 C60.3333 237.333 64.8333 196.5 74.5 157.5 C84.1667 118.5 100.5 85.6667 123.5 59 C146.5 32.3333 176.167 12.1667 212.5 -1.5 C248.833 -15.1667 293.667 -22 347 -22 C411 -22 482.333 -14.3333 561 1 L610 316 L512 316 L475 80 C438.333 72 401.667 68 365 68 C316.333 68 277.5 74.8333 248.5 88.5 C219.5 102.167 197.833 123.5 183.5 152.5 C169.167 181.5 162 223.667 162 279 C162 381.667 185.5 459 232.5 511 C279.5 563 348.333 589 439 589 C491 589 550.667 580.667 618 564 L639 652 C609 660.667 575.667 667.5 539 672.5 C502.333 677.5 470 680 442 680 L442 680 Z " />
<glyph glyph-name="gdotaccent" unicode="&#x121;" horiz-adv-x="512" d="M316 534 C333.333 534 348.667 539.833 362 551.5 C375.333 563.167 382.667 577.333 384 594 C384.667 609.333 380.167 622.5 370.5 633.5 C360.833 644.5 348.333 650 333 650 C321 650 309.5 646.5 298.5 639.5 C287.5 632.5 279.667 624.167 275 614.5 C270.333 604.833 267.667 596 267 588 C265.667 573.336 269.667 560.669 279 550 C288.333 539.333 300.667 534 316 534 L316 534 Z M320 454 C281.333 454 246.167 448 214.5 436 C182.833 424 156.333 408 135 388 C113.667 368 96.3334 345.833 83 321.5 C69.6667 297.167 59 270 51 240 C43 210 39 179.667 39 149 C39 95.6667 51.6667 55.6667 77 29 C102.333 2.33333 136 -11 178 -11 C206 -11 232.333 -5.16667 257 6.5 C281.667 18.1667 302.667 35 320 57 L299 -81 C294.333 -112.333 280.167 -136.167 256.5 -152.5 C232.833 -168.833 201.667 -177 163 -177 C119.667 -177 74.6667 -170.667 28 -158 L7 -241 C63.6667 -254.333 119 -261 173 -261 C234.333 -261 283.833 -246.667 321.5 -218 C359.167 -189.333 382 -148.667 390 -96 L472 439 C412 449 361.333 454 320 454 L320 454 Z M206 66 C158 66 134 97.6667 134 161 C134 191 140 223.333 152 258 C164 292.667 184.167 321 212.5 343 C240.833 365 274 376 312 376 C329.333 376 348.333 374.667 369 372 L333 139 C313.667 115.667 293 97.6667 271 85 C249 72.3333 227.333 66 206 66 L206 66 Z " />
<glyph glyph-name="Gcommaaccent" unicode="&#x122;" horiz-adv-x="671" d="M442 680 C381.333 680 327.167 670.667 279.5 652 C231.833 633.333 191.833 606.5 159.5 571.5 C127.167 536.5 102.667 494.167 86 444.5 C69.3333 394.833 61 340 61 280 C60.3333 237.333 64.8333 196.5 74.5 157.5 C84.1667 118.5 100.5 85.6667 123.5 59 C146.5 32.3333 176.167 12.1667 212.5 -1.5 C248.833 -15.1667 293.667 -22 347 -22 C411 -22 482.333 -14.3333 561 1 L610 316 L512 316 L475 80 C438.333 72 401.667 68 365 68 C316.333 68 277.5 74.8333 248.5 88.5 C219.5 102.167 197.833 123.5 183.5 152.5 C169.167 181.5 162 223.667 162 279 C162 381.667 185.5 459 232.5 511 C279.5 563 348.333 589 439 589 C491 589 550.667 580.667 618 564 L639 652 C609 660.667 575.667 667.5 539 672.5 C502.333 677.5 470 680 442 680 L442 680 Z M337 -51 C325 -51 312 -54 298 -60 L305 -155 L266 -232 L321 -232 L372 -164 C388.667 -142.667 397 -123.333 397 -106 C397 -88.6667 391.833 -75.1667 381.5 -65.5 C371.168 -55.8333 356.335 -51 337 -51 L337 -51 Z " />
<glyph glyph-name="gcommaaccent" unicode="&#x123;" horiz-adv-x="512" d="M313 497 C324.333 497 337.333 500 352 506 L345 601 L384 678 L328 678 L277 610 C261 588 253 568.667 253 552 C253 534.667 258.167 521.167 268.5 511.5 C278.833 501.833 293.667 497 313 497 L313 497 Z M319 454 C267.667 454 223.333 444 186 424 C148.667 404 119.5 378.333 98.5 347 C77.5 315.667 62.3333 282.5 53 247.5 C43.6667 212.5 39 179.667 39 149 C39 95.6667 51.6667 55.6667 77 29 C102.333 2.33333 136 -11 178 -11 C235.333 -11 282.667 11.6667 320 57 L299 -81 C294.333 -112.333 280.167 -136.167 256.5 -152.5 C232.833 -168.833 201.667 -177 163 -177 C119.667 -177 74.6667 -170.667 28 -158 L7 -241 C63.6667 -254.333 119 -261 173 -261 C234.333 -261 283.833 -246.667 321.5 -218 C359.167 -189.333 382 -148.667 390 -96 L472 439 C412 449 361.333 454 320 454 L319 454 Z M206 66 C183.333 66 165.667 73.6667 153 89 C140.333 104.333 134 128.333 134 161 C134 191 140 223.333 152 258 C164 292.667 184.167 321 212.5 343 C240.833 365 274 376 312 376 C329.333 376 348.333 374.667 369 372 L333 139 C313.667 115.667 293 97.6667 271 85 C249 72.3333 227.333 66 206 66 L206 66 Z " />
<glyph glyph-name="Hbar" unicode="&#x126;" horiz-adv-x="714" d="M721 574 L681 574 L695 660 L594 660 L581 574 L243 574 L256 660 L157 660 L143 574 L106 574 L93 496 L131 496 L53 0 L152 0 L197 286 L535 286 L490 0 L591 0 L669 496 L708 496 L721 574 Z M550 378 L212 378 L230 496 L568 496 L550 378 Z " />
<glyph glyph-name="hbar" unicode="&#x127;" horiz-adv-x="529" d="M361 456 C299.667 456 244.667 433.667 196 389 L221 547 L356 547 L367 616 L232 616 L251 735 L157 735 L138 616 L86 616 L75 547 L127 547 L40 0 L135 0 L185 318 C229 357.333 272.667 377 316 377 C339.333 377 356 371.333 366 360 C376 348.667 379 330.667 375 306 L327 0 L422 0 L476 341 C481.333 376.333 473.833 404.333 453.5 425 C433.167 445.667 402.334 456 361 456 L361 456 Z " />
<glyph glyph-name="Imacron" unicode="&#x12a;" horiz-adv-x="281" d="M381 811 L92 811 L79 733 L368 733 L381 811 Z M260 660 L159 660 L55 0 L155 0 L260 660 Z " />
<glyph glyph-name="imacron" unicode="&#x12b;" horiz-adv-x="249" d="M325 627 L37 627 L23 549 L312 549 L325 627 Z M209 446 L111 446 L41 0 L139 0 L209 446 Z " />
<glyph glyph-name="Iogonek" unicode="&#x12e;" horiz-adv-x="281" d="M86 -123 C86 -96.3333 109 -55.3333 155 0 L260 660 L159 660 L55 0 L76 0 C54.6667 -28 38.1667 -55.3333 26.5 -82 C14.8333 -108.667 9 -132 9 -152 C9 -168.667 13.6667 -182.667 23 -194 C32.3333 -205.333 47.8333 -213.667 69.5 -219 C91.1667 -224.333 121 -224 159 -218 L171 -152 C114.333 -162 86 -152.333 86 -123 L86 -123 Z " />
<glyph glyph-name="iogonek" unicode="&#x12f;" horiz-adv-x="249" d="M190 650 C178 650 166.5 646.5 155.5 639.5 C144.5 632.5 136.667 624.167 132 614.5 C127.333 604.833 124.667 596 124 588 C122.667 573.336 126.667 560.669 136 550 C145.333 539.333 157.667 534 173 534 C190.333 534 205.666 539.833 219 551.5 C232.333 563.167 239.666 577.333 241 594 C241.667 609.333 237.167 622.5 227.5 633.5 C217.833 644.5 205.333 650 190 650 L190 650 Z M209 446 L111 446 L41 0 L59 0 C37.6667 -28 21 -55.3333 9 -82 C-3 -108.667 -9 -132 -9 -152 C-9 -179.333 3.5 -199.167 28.5 -211.5 C53.5 -223.833 91.3333 -226 142 -218 L153 -152 C123.667 -157.333 102 -157.333 88 -152 C74 -146.667 67.3333 -137 68 -123 C70 -94.3333 93.6667 -53.3333 139 0 L138 0 L139 0 L209 446 Z " />
<glyph glyph-name="Idotaccent" unicode="&#x130;" horiz-adv-x="281" d="M234 830 C222 830 210.667 826.5 200 819.5 C189.334 812.5 181.667 804.333 177 795 C172.335 785.667 169.668 777 169 769 C167.667 754.333 171.667 741.833 181 731.5 C190.333 721.167 202.333 716 217 716 C233.667 716 248.667 721.833 262 733.5 C275.333 745.167 282.667 759 284 775 C284.669 790.333 280.335 803.333 271 814 C261.667 824.667 249.333 830 234 830 L234 830 Z M260 660 L159 660 L55 0 L155 0 L260 660 Z " />
<glyph glyph-name="dotlessi" unicode="&#x131;" horiz-adv-x="249" d="M209 446 L111 446 L41 0 L139 0 L209 446 Z " />
<glyph glyph-name="IJ" unicode="&#x132;" horiz-adv-x="562" d="M260 660 L159 660 L55 0 L155 0 L260 660 Z M541 660 L441 660 L334 -16 C328.668 -48 318.335 -76.5 303 -101.5 C287.667 -126.5 263.667 -154.333 231 -185 L300 -254 C343.333 -215.333 374.333 -179 393 -145 C411.666 -111 425.333 -67 434 -13 L541 660 Z " />
<glyph glyph-name="ij" unicode="&#x133;" horiz-adv-x="511" d="M241 594 C241.667 609.333 237.167 622.5 227.5 633.5 C217.833 644.5 205.333 650 190 650 C178 650 166.5 646.5 155.5 639.5 C144.5 632.5 136.667 624.167 132 614.5 C127.333 604.833 124.667 596 124 588 C122.667 573.336 126.667 560.669 136 550 C145.333 539.333 157.667 534 173 534 C190.333 534 205.666 539.833 219 551.5 C232.333 563.167 239.666 577.333 241 594 L241 594 Z M501 594 C502.333 609.333 498.167 622.5 488.5 633.5 C478.833 644.5 466.333 650 451 650 C434.333 650 419.333 644 406 632 C392.668 620 385.335 605.333 384 588 C383.333 573.336 387.667 560.669 397 550 C406.333 539.333 418.667 534 434 534 C446 534 457.667 537.333 469 544 C480.333 550.667 488.333 558.667 493 568 C497.659 577.333 500.326 586 501 594 L501 594 Z M209 446 L111 446 L41 0 L139 0 L209 446 Z M468 446 L371 446 L297 -20 C293.667 -48.6667 283.5 -76.6667 266.5 -104 C249.5 -131.333 224.333 -161 191 -193 L257 -263 C301.666 -222.333 333.333 -185.5 352 -152.5 C370.667 -119.5 384.667 -76 394 -22 L468 446 Z " />
<glyph glyph-name="Kcommaaccent" unicode="&#x136;" horiz-adv-x="575" d="M159 660 L55 0 L156 0 L260 660 L159 660 Z M604 660 L483 660 L218 338 L414 0 L534 0 L333 339 L604 660 Z M250 -51 C238.667 -51 226 -54 212 -60 L219 -155 L180 -232 L235 -232 L286 -164 C302 -142 310 -122.667 310 -106 C310 -88.6667 304.833 -75.1667 294.5 -65.5 C284.167 -55.8333 269.334 -51 250 -51 L250 -51 Z " />
<glyph glyph-name="kcommaaccent" unicode="&#x137;" horiz-adv-x="479" d="M253 735 L156 735 L40 0 L137 0 L253 735 Z M484 446 L366 446 L189 259 L326 0 L438 0 L295 252 L484 446 Z M204 -51 C192.667 -51 180 -54 166 -60 L173 -155 L134 -232 L189 -232 L240 -164 C256 -142 264 -122.667 264 -106 C264 -88.6667 258.833 -75.1667 248.5 -65.5 C238.167 -55.8333 223.333 -51 204 -51 L204 -51 Z " />
<glyph glyph-name="Lacute" unicode="&#x139;" horiz-adv-x="463" d="M262 719 L337 851 L246 851 L182 719 L262 719 Z M259 660 L157 660 L53 0 L421 0 L435 93 L168 93 L259 660 Z " />
<glyph glyph-name="lacute" unicode="&#x13a;" horiz-adv-x="246" d="M246 720 L321 852 L230 852 L166 720 L246 720 Z M242 660 L145 660 L40 0 L138 0 L242 660 Z " />
<glyph glyph-name="Lcommaaccent" unicode="&#x13b;" horiz-adv-x="463" d="M259 660 L157 660 L53 0 L421 0 L435 93 L168 93 L259 660 Z M231 -51 C219.667 -51 207 -54 193 -60 L200 -155 L161 -232 L216 -232 L267 -164 C283 -142 291 -122.667 291 -106 C291 -88.6667 285.833 -75.1667 275.5 -65.5 C265.167 -55.8333 250.333 -51 231 -51 L231 -51 Z " />
<glyph glyph-name="lcommaaccent" unicode="&#x13c;" horiz-adv-x="245" d="M254 735 L157 735 L40 0 L138 0 L254 735 Z M78 -51 C66.6667 -51 54 -54 40 -60 L47 -155 L8 -232 L63 -232 L114 -164 C130 -142 138 -122.667 138 -106 C138 -88.6667 132.833 -75.1667 122.5 -65.5 C112.167 -55.8333 97.3334 -51 78 -51 L78 -51 Z " />
<glyph glyph-name="Lcaron" unicode="&#x13d;" horiz-adv-x="463" d="M259 660 L157 660 L53 0 L421 0 L435 93 L168 93 L259 660 Z M434 660 L342 660 L312 473 L380 473 L434 660 Z " />
<glyph glyph-name="lcaron" unicode="&#x13e;" horiz-adv-x="245" d="M254 735 L157 735 L40 0 L138 0 L254 735 Z M420 734 L327 734 L298 557 L367 557 L420 734 Z " />
<glyph glyph-name="Ldot" unicode="&#x13f;" horiz-adv-x="463" d="M259 660 L157 660 L53 0 L421 0 L435 93 L168 93 L259 660 Z M382 286 C397.333 286 411.833 290.5 425.5 299.5 C439.167 308.5 448.667 319 454 331 C459.333 343 462 354 462 364 C462 380.667 456.333 394.667 445 406 C433.667 417.333 419.334 423 402 423 C381.333 423 363.167 415.333 347.5 400 C331.833 384.667 324 366.334 324 345 C324 328.333 329.5 314.333 340.5 303 C351.5 291.667 365.333 286 382 286 L382 286 Z " />
<glyph glyph-name="ldot" unicode="&#x140;" horiz-adv-x="336" d="M254 735 L157 735 L40 0 L138 0 L254 735 Z M305 294 C325.667 294 344.167 301.833 360.5 317.5 C376.833 333.166 385 351.333 385 372 C385 388.667 379.333 402.667 368 414 C356.667 425.333 342.334 431 325 431 C304.333 431 286 423.167 270 407.5 C254 391.833 246 373.333 246 352 C246 336 251.667 322.333 263 311 C274.333 299.667 288.333 294 305 294 L305 294 Z " />
<glyph glyph-name="Lslash" unicode="&#x141;" horiz-adv-x="497" d="M201 89 L237 317 L359 367 L373 456 L251 407 L292 660 L193 660 L146 363 L25 314 L12 224 L131 273 L88 0 L455 0 L468 89 L201 89 Z " />
<glyph glyph-name="lslash" unicode="&#x142;" horiz-adv-x="309" d="M345 484 L244 443 L290 735 L192 735 L139 401 L37 360 L24 273 L126 314 L76 0 L174 0 L230 356 L332 397 L345 484 Z " />
<glyph glyph-name="Nacute" unicode="&#x143;" horiz-adv-x="731" d="M553 851 L462 851 L398 719 L478 719 L553 851 Z M610 660 L532 167 L524 104 L509 148 L303 660 L156 660 L51 0 L152 0 L228 477 L237 550 L457 0 L608 0 L711 660 L610 660 Z " />
<glyph glyph-name="nacute" unicode="&#x144;" horiz-adv-x="529" d="M423 660 L332 660 L264 521 L344 521 L423 660 Z M358 457 C296 457 241 432.333 193 383 L202 446 L111 446 L40 0 L135 0 L184 315 C228 357 271.333 378 314 378 C336.667 378 353.5 372.5 364.5 361.5 C375.5 350.5 379.333 334.333 376 313 L327 0 L422 0 L476 341 C481.333 375.667 473.5 403.667 452.5 425 C431.5 446.333 400 457 358 457 L358 457 Z " />
<glyph glyph-name="Ncommaaccent" unicode="&#x145;" horiz-adv-x="731" d="M610 660 L532 167 L524 104 L509 148 L303 660 L156 660 L51 0 L152 0 L228 477 L237 550 L457 0 L608 0 L711 660 L610 660 Z M329 -51 C317 -51 304 -54 290 -60 L297 -155 L258 -232 L313 -232 L364 -164 C380.667 -142.667 389 -123.333 389 -106 C389 -88.6667 383.833 -75.1667 373.5 -65.5 C363.168 -55.8333 348.335 -51 329 -51 L329 -51 Z " />
<glyph glyph-name="ncommaaccent" unicode="&#x146;" horiz-adv-x="529" d="M358 457 C296 457 241 432.333 193 383 L202 446 L111 446 L40 0 L135 0 L184 315 C228 357 271.333 378 314 378 C336.667 378 353.5 372.5 364.5 361.5 C375.5 350.5 379.333 334.333 376 313 L327 0 L422 0 L476 341 C481.333 375.667 473.5 403.667 452.5 425 C431.5 446.333 400 457 358 457 L358 457 Z M223 -51 C212.333 -51 199.333 -54 184 -60 L191 -155 L152 -232 L207 -232 L258 -164 C274.667 -142.667 283 -123.333 283 -106 C283 -88.6667 277.833 -75.1667 267.5 -65.5 C257.167 -55.8333 242.333 -51 223 -51 L223 -51 Z " />
<glyph glyph-name="Ncaron" unicode="&#x147;" horiz-adv-x="731" d="M487 707 L585 839 L499 839 L442 756 L405 839 L325 839 L386 707 L487 707 Z M610 660 L532 167 L524 104 L509 148 L303 660 L156 660 L51 0 L152 0 L228 477 L237 550 L457 0 L608 0 L711 660 L610 660 Z " />
<glyph glyph-name="ncaron" unicode="&#x148;" horiz-adv-x="529" d="M357 521 L461 660 L375 660 L313 570 L273 660 L193 660 L256 520 L357 521 Z M358 457 C296 457 241 432.333 193 383 L202 446 L111 446 L40 0 L135 0 L184 315 C228 357 271.333 378 314 378 C336.667 378 353.5 372.5 364.5 361.5 C375.5 350.5 379.333 334.333 376 313 L327 0 L422 0 L476 341 C481.333 375.667 473.5 403.667 452.5 425 C431.5 446.333 400 457 358 457 L358 457 Z " />
<glyph glyph-name="Eng" unicode="&#x14a;" horiz-adv-x="731" d="M712 660 L610 660 L533 167 C529.667 150.333 527 129.333 525 104 L509 148 L304 660 L156 660 L52 0 L153 0 L228 477 L237 550 L457 0 L511 0 L509 -14 C505.667 -42.6667 495.5 -70.8333 478.5 -98.5 C461.5 -126.167 436 -156 402 -188 L469 -258 C513.667 -216.667 545.333 -179.5 564 -146.5 C582.667 -113.5 596.667 -70 606 -16 L611 16 L712 660 Z " />
<glyph glyph-name="eng" unicode="&#x14b;" horiz-adv-x="529" d="M358 457 C296 457 241 432.333 193 383 L202 446 L111 446 L40 0 L135 0 L184 315 C228 357 271.333 378 314 378 C336.667 378 353.667 372.5 365 361.5 C376.333 350.5 380 334 376 312 L324 -14 C318.667 -44 307.834 -72.6667 291.5 -100 C275.167 -127.333 250.333 -156.667 217 -188 L283 -257 C327.667 -215.667 359.167 -178.833 377.5 -146.5 C395.833 -114.167 409.333 -71 418 -17 L476 341 C481.333 375.667 473.5 403.667 452.5 425 C431.5 446.333 400 457 358 457 L358 457 Z " />
<glyph glyph-name="Omacron" unicode="&#x14c;" horiz-adv-x="738" d="M602 811 L313 811 L300 733 L589 733 L602 811 Z M427 675 C348.333 675 281 657.167 225 621.5 C169 585.833 127.667 538 101 478 C74.3333 418 61 352.333 61 281 C60.9999 243.667 65.3333 207 74 171 C82.6667 135 96.5 104.833 115.5 80.5 C134.5 56.1667 155.333 37.3333 178 24 C200.667 10.6667 226.333 0.666672 255 -6 C283.666 -12.6667 314.333 -16 347 -16 C402.333 -16 452.667 -6.83333 498 11.5 C543.332 29.8333 581.666 56 613 90 C644.333 124 668.333 165 685 213 C701.667 261 710 314 710 372 C710 473.333 686.167 549.167 638.5 599.5 C590.833 649.833 520.333 675 427 675 L427 675 Z M425 586 C484.333 586 529.167 569 559.5 535 C589.833 501 605 447 605 373 C605 329 599.5 288.5 588.5 251.5 C577.5 214.5 561 182.667 539 156 C517 129.333 490 108.833 458 94.5 C426 80.1667 389.667 73 349 73 C289.667 73 244.5 89.8333 213.5 123.5 C182.5 157.167 167 210.333 167 283 C167 326.333 172.667 366.667 184 404 C195.333 441.333 212 473.5 234 500.5 C256 527.5 283.333 548.5 316 563.5 C348.667 578.5 385 586 425 586 L425 586 Z " />
<glyph glyph-name="omacron" unicode="&#x14d;" horiz-adv-x="527" d="M465 627 L176 627 L163 549 L452 549 L465 627 Z M298 456 C258.667 456 222.833 448.667 190.5 434 C158.167 419.333 131.167 399.167 109.5 373.5 C87.8333 347.833 71.5 318.5 60.5 285.5 C49.5 252.5 44 218 44 182 C44 119.333 60.1667 71.5 92.5 38.5 C124.833 5.5 171.333 -11 232 -11 C270 -11 304.833 -4.33333 336.5 9 C368.167 22.3333 395 41.1667 417 65.5 C439 89.8333 455.833 118.667 467.5 152 C479.167 185.333 485 221 485 259 C485 323 468.833 371.833 436.5 405.5 C404.167 439.167 358 456 298 456 L298 456 Z M240 69 C206.667 69 181.5 79.1667 164.5 99.5 C147.5 119.833 139 149.667 139 189 C139 228.333 145.833 262 159.5 290 C173.167 318 191 339.5 213 354.5 C235 369.5 260.667 377 290 377 C356 377 389 335.667 389 253 C389 199 375.833 154.833 349.5 120.5 C323.167 86.1667 286.667 69 240 69 L240 69 Z " />
<glyph glyph-name="Ohungarumlaut" unicode="&#x150;" horiz-adv-x="738" d="M409 707 L484 839 L393 839 L329 707 L409 707 Z M551 707 L626 839 L535 839 L471 707 L551 707 Z M427 675 C348.333 675 281 657.167 225 621.5 C169 585.833 127.667 538 101 478 C74.3333 418 61 352.333 61 281 C60.9999 243.667 65.3333 207 74 171 C82.6667 135 96.5 104.833 115.5 80.5 C134.5 56.1667 155.333 37.3333 178 24 C200.667 10.6667 226.333 0.666672 255 -6 C283.666 -12.6667 314.333 -16 347 -16 C402.333 -16 452.667 -6.83333 498 11.5 C543.332 29.8333 581.666 56 613 90 C644.333 124 668.333 165 685 213 C701.667 261 710 314 710 372 C710 473.333 686.167 549.167 638.5 599.5 C590.833 649.833 520.333 675 427 675 L427 675 Z M425 586 C484.333 586 529.167 569 559.5 535 C589.833 501 605 447 605 373 C605 329 599.5 288.5 588.5 251.5 C577.5 214.5 561 182.667 539 156 C517 129.333 490 108.833 458 94.5 C426 80.1667 389.667 73 349 73 C289.667 73 244.5 89.8333 213.5 123.5 C182.5 157.167 167 210.333 167 283 C167 326.333 172.667 366.667 184 404 C195.333 441.333 212 473.5 234 500.5 C256 527.5 283.333 548.5 316 563.5 C348.667 578.5 385 586 425 586 L425 586 Z " />
<glyph glyph-name="ohungarumlaut" unicode="&#x151;" horiz-adv-x="527" d="M350 660 L263 660 L195 521 L271 521 L350 660 Z M495 660 L408 660 L340 521 L417 521 L495 660 Z M298 456 C258.667 456 222.833 448.667 190.5 434 C158.167 419.333 131.167 399.167 109.5 373.5 C87.8333 347.833 71.5 318.5 60.5 285.5 C49.5 252.5 44 218 44 182 C44 119.333 60.1667 71.5 92.5 38.5 C124.833 5.5 171.333 -11 232 -11 C270 -11 304.833 -4.33333 336.5 9 C368.167 22.3333 395 41.1667 417 65.5 C439 89.8333 455.833 118.667 467.5 152 C479.167 185.333 485 221 485 259 C485 323 468.833 371.833 436.5 405.5 C404.167 439.167 358 456 298 456 L298 456 Z M240 69 C206.667 69 181.5 79.1667 164.5 99.5 C147.5 119.833 139 149.667 139 189 C139 228.333 145.833 262 159.5 290 C173.167 318 191 339.5 213 354.5 C235 369.5 260.667 377 290 377 C356 377 389 335.667 389 253 C389 199 375.833 154.833 349.5 120.5 C323.167 86.1667 286.667 69 240 69 L240 69 Z " />
<glyph glyph-name="OE" unicode="&#x152;" horiz-adv-x="911" d="M898 570 L912 660 L567 660 C529.667 668 487.667 672 441 672 C379 672 323.833 662.167 275.5 642.5 C227.167 622.833 187 595 155 559 C123 523 99.1667 480.667 83.5 432 C67.8333 383.333 60 331 60 275 C60 229 65.6667 188.167 77 152.5 C88.3333 116.833 105.667 86.8334 129 62.5 C152.333 38.1667 182.333 19.6667 219 7 C255.667 -5.66667 298.667 -12 348 -12 C386 -12 425.667 -8 467 0 L826 0 L839 90 L573 90 L605 289 L841 289 L855 379 L619 379 L649 570 L898 570 Z M166 284 C166 332.667 172.5 376 185.5 414 C198.5 452 217 484 241 510 C265 536 293.833 554.833 327.5 566.5 C361.166 578.167 396.333 584 433 584 C474.333 584 512.667 579.333 548 570 L473 89 C436.333 79.6667 397 75 355 75 C291.667 75 244.333 92 213 126 C181.667 160 166 212.667 166 284 L166 284 Z " />
<glyph glyph-name="oe" unicode="&#x153;" horiz-adv-x="806" d="M758 211 C763.333 236.333 766 267.333 766 304 C766 352 753 389.333 727 416 C701 442.667 662 456 610 456 C541.333 456 485.667 428.667 443 374 C430.333 399.333 410.5 419.333 383.5 434 C356.5 448.667 324.667 456 288 456 C251.333 456 217.667 448.833 187 434.5 C156.333 420.167 130.333 400.167 109 374.5 C87.6667 348.833 71.5 319.167 60.5 285.5 C49.5 251.833 44 216.333 44 179 C44 53 107 -10 233 -10 C269 -10 300.167 -3.83333 326.5 8.5 C352.833 20.8333 377.333 42 400 72 C413.333 43.3333 432.333 22.3333 457 9 C481.667 -4.33333 514 -11 554 -11 C580 -11 608.667 -8.66666 640 -4 C671.333 0.666672 699.333 6.66667 724 14 L709 87 C657.667 73 609.667 66 565 66 C529 66 503.333 74.1667 488 90.5 C472.667 106.833 465 135.333 465 176 L467 211 L758 211 Z M603 381 C651 381 675 355.667 675 305 C675 293.667 674.333 285 673 279 L482 279 C486.663 293 493.83 308 503.5 324 C513.167 340 526.667 353.5 544 364.5 C561.333 375.5 581 381 603 381 L603 381 Z M238 69 C171.333 69 138 110 138 192 C138 248 151.333 292.833 178 326.5 C204.667 360.167 241.333 377 288 377 C320 377 344 367.167 360 347.5 C376 327.833 384 297 384 255 C384 197.667 371.167 152.333 345.5 119 C319.833 85.6667 284 69 238 69 L238 69 Z " />
<glyph glyph-name="Racute" unicode="&#x154;" horiz-adv-x="582" d="M438 851 L347 851 L283 719 L363 719 L438 851 Z M541 0 L402 273 C442 291.667 474 319 498 355 C522 391 534 434.333 534 485 C534 543.667 517 587.667 483 617 C449 646.333 399.333 661 334 661 C269.333 661 211.333 660 160 658 L56 0 L155 0 L194 246 C216 244 237.333 243 258 243 C276.666 243 294.333 244 311 246 L425 0 L541 0 Z M208 332 L245 572 L305 574 C349.667 574 381.667 566.167 401 550.5 C420.333 534.833 430 508.667 430 472 C430 426.667 415.833 391.667 387.5 367 C359.167 342.333 319 330 267 330 L208 332 Z " />
<glyph glyph-name="racute" unicode="&#x155;" horiz-adv-x="332" d="M270 521 L349 660 L258 660 L190 521 L270 521 Z M343 364 L357 450 C343 452 328.333 453 313 453 C263 453 224.333 434.333 197 397 L205 446 L111 446 L41 0 L137 0 L189 322 C213.667 350.667 253.333 365 308 365 L343 364 Z " />
<glyph glyph-name="Rcommaaccent" unicode="&#x156;" horiz-adv-x="582" d="M541 0 L402 273 C442 291.667 474 319 498 355 C522 391 534 434.333 534 485 C534 543.667 517 587.667 483 617 C449 646.333 399.333 661 334 661 C269.333 661 211.333 660 160 658 L56 0 L155 0 L194 246 C216 244 237.333 243 258 243 C276.666 243 294.333 244 311 246 L425 0 L541 0 Z M208 332 L245 572 L305 574 C349.667 574 381.667 566.167 401 550.5 C420.333 534.833 430 508.667 430 472 C430 426.667 415.833 391.667 387.5 367 C359.167 342.333 319 330 267 330 L208 332 Z M237 -51 C225 -51 212 -54 198 -60 L205 -155 L166 -232 L221 -232 L272 -164 C288.667 -142.667 297 -123.333 297 -106 C297 -88.6667 291.833 -75.1667 281.5 -65.5 C271.167 -55.8333 256.334 -51 237 -51 L237 -51 Z " />
<glyph glyph-name="rcommaaccent" unicode="&#x157;" horiz-adv-x="332" d="M343 364 L357 450 C343 452 328.333 453 313 453 C263 453 224.333 434.333 197 397 L205 446 L111 446 L41 0 L137 0 L189 322 C213.667 350.667 253.333 365 308 365 L343 364 Z M78 -51 C66.6667 -51 54 -54 40 -60 L47 -155 L8 -232 L63 -232 L114 -164 C130 -142 138 -122.667 138 -106 C138 -88.6667 132.833 -75.1667 122.5 -65.5 C112.167 -55.8333 97.3334 -51 78 -51 L78 -51 Z " />
<glyph glyph-name="Rcaron" unicode="&#x158;" horiz-adv-x="582" d="M372 707 L470 839 L384 839 L327 756 L290 839 L210 839 L271 707 L372 707 Z M541 0 L402 273 C442 291.667 474 319 498 355 C522 391 534 434.333 534 485 C534 543.667 517 587.667 483 617 C449 646.333 399.333 661 334 661 C269.333 661 211.333 660 160 658 L56 0 L155 0 L194 246 C216 244 237.333 243 258 243 C276.666 243 294.333 244 311 246 L425 0 L541 0 Z M208 332 L245 572 L305 574 C349.667 574 381.667 566.167 401 550.5 C420.333 534.833 430 508.667 430 472 C430 426.667 415.833 391.667 387.5 367 C359.167 342.333 319 330 267 330 L208 332 Z " />
<glyph glyph-name="rcaron" unicode="&#x159;" horiz-adv-x="332" d="M283 521 L387 660 L301 660 L239 570 L199 660 L119 660 L182 520 L283 521 Z M197 397 L205 446 L111 446 L41 0 L137 0 L189 322 C213.667 350.667 253.333 365 308 365 L343 364 L357 450 C343 452 328.333 453 313 453 C263 453 224.333 434.333 197 397 L197 397 Z " />
<glyph glyph-name="Sacute" unicode="&#x15a;" horiz-adv-x="481" d="M341 719 L416 851 L325 851 L261 719 L341 719 Z M291 671 C231 671 183 654.5 147 621.5 C111 588.5 93 545 93 491 C93 470.333 96.1667 450.667 102.5 432 C108.833 413.333 119 395.5 133 378.5 C147 361.5 174 335 214 299 C266.666 253 297.833 222.833 307.5 208.5 C317.167 194.167 322 181.333 322 170 C322 154.667 317.667 140 309 126 C300.333 112 287.833 100.833 271.5 92.5 C255.167 84.1667 234.333 80 209 80 C173.667 80 125.333 87.6667 64 103 L44 13 C106 -3 160.333 -11 207 -11 C244.333 -11 277.167 -5.5 305.5 5.5 C333.833 16.5 356.667 31.1667 374 49.5 C391.333 67.8333 404.167 88 412.5 110 C420.833 132 425 154 425 176 C425 189.333 423.5 201.666 420.5 213 C417.5 224.333 412.667 235.833 406 247.5 C399.333 259.167 389.833 271.167 377.5 283.5 C365.167 295.833 349.5 310.667 330.5 328 C311.5 345.333 300 356 296 360 C250 402.667 221.5 431.167 210.5 445.5 C199.5 459.833 194 475.333 194 492 C194 520.667 202.667 542.833 220 558.5 C237.333 574.167 261.667 582 293 582 C328.333 582 373.333 574.667 428 560 L447 646 C387.667 662.667 335.667 671 291 671 L291 671 Z " />
<glyph glyph-name="sacute" unicode="&#x15b;" horiz-adv-x="369" d="M267 521 L346 660 L255 660 L187 521 L267 521 Z M210 456 C164 456 127.5 443 100.5 417 C73.5 391 60 358.667 60 320 C60 301.333 62.8333 286 68.5 274 C74.1665 262 79.8332 252.333 85.5 245 C91.1667 237.667 98.6667 230.167 108 222.5 C117.333 214.833 136.167 203.167 164.5 187.5 C192.833 171.833 209.666 160 215 152 C220.333 144 223.333 137.833 224 133.5 C224.667 129.167 225 126.333 225 125 C225 111 219 98.5 207 87.5 C195 76.5 178.333 71 157 71 C144.333 71 126.833 73 104.5 77 C82.1667 81 63 85.6667 47 91 L26 13 C76 -2.33333 120 -10 158 -10 C192 -10 222 -3.5 248 9.5 C274 22.5 292 39.5 302 60.5 C312 81.5 317 102.667 317 124 C317 144.667 313.833 161.833 307.5 175.5 C301.168 189.167 293.334 201 284 211 C274.667 221 265 229.167 255 235.5 C245 241.833 227.833 251.5 203.5 264.5 C179.167 277.5 164 288.667 158 298 C152 307.333 149 316.333 149 325 C149 339 154.667 351 166 361 C177.333 371 194 376 216 376 C242 376 277 369.667 321 357 L340 435 C292 449 248.667 456 210 456 L210 456 Z " />
<glyph glyph-name="Scedilla" unicode="&#x15e;" horiz-adv-x="481" d="M293 582 C328.333 582 373.333 574.667 428 560 L447 646 C387.667 662.667 335.667 671 291 671 C231 671 183 654.5 147 621.5 C111 588.5 93 545 93 491 C93 470.333 96.1667 450.667 102.5 432 C108.833 413.333 119 395.5 133 378.5 C147 361.5 174 335 214 299 C266.666 253 297.833 222.833 307.5 208.5 C317.167 194.167 322 181.333 322 170 C322 154.667 317.667 140 309 126 C300.333 112 287.833 100.833 271.5 92.5 C255.167 84.1667 234.333 80 209 80 C173.667 80 125.333 87.6667 64 103 L44 13 C92 1.66667 129.667 -5.33333 157 -8 L154 -25 C152 -37.6667 153 -48.3334 157 -57 C161 -65.6667 169 -75 181 -85 C195.667 -96.3333 204 -104.5 206 -109.5 C208 -114.5 208.667 -118.667 208 -122 C204 -144 185.667 -155 153 -155 L121 -153 L111 -215 C112.333 -215.667 117.5 -216.5 126.5 -217.5 C135.5 -218.5 144.333 -219 153 -219 C187 -219 215.167 -211.833 237.5 -197.5 C259.833 -183.167 273.333 -160 278 -128 C280 -114 278.833 -101 274.5 -89 C270.167 -77 260 -64.3333 244 -51 C232.667 -41 226.667 -32.5 226 -25.5 C225.333 -18.5 225.333 -13.3333 226 -10 C260 -8.66667 290 -2.16667 316 9.5 C342 21.1667 362.833 35.8333 378.5 53.5 C394.166 71.1667 405.833 90.6667 413.5 112 C421.167 133.333 425 154.667 425 176 C425 189.333 423.5 201.666 420.5 213 C417.5 224.333 412.667 235.833 406 247.5 C399.333 259.167 389.833 271.167 377.5 283.5 C365.167 295.833 349.5 310.667 330.5 328 C311.5 345.333 300 356 296 360 C250 402.667 221.5 431.167 210.5 445.5 C199.5 459.833 194 475.333 194 492 C194 520.667 202.667 542.833 220 558.5 C237.333 574.167 261.667 582 293 582 L293 582 Z " />
<glyph glyph-name="scedilla" unicode="&#x15f;" horiz-adv-x="369" d="M216 376 C242 376 277 369.667 321 357 L340 435 C292 449 248.667 456 210 456 C164 456 127.5 443 100.5 417 C73.5 391 60 358.667 60 320 C60 301.333 62.8333 286 68.5 274 C74.1665 262 79.8332 252.333 85.5 245 C91.1667 237.667 98.6667 230.167 108 222.5 C117.333 214.833 136.167 203.167 164.5 187.5 C192.833 171.833 209.666 160 215 152 C220.333 144 223.333 137.833 224 133.5 C224.667 129.167 225 126.333 225 125 C225 111 219 98.5 207 87.5 C195 76.5 178.333 71 157 71 C144.333 71 126.833 73 104.5 77 C82.1667 81 63 85.6667 47 91 L26 13 C58 3 85.6667 -3.33333 109 -6 L106 -25 C104 -37.6667 105 -48.3334 109 -57 C113 -65.6667 121 -75 133 -85 C147.667 -96.3333 156 -104.5 158 -109.5 C160 -114.5 160.667 -118.667 160 -122 C158 -133.333 152.167 -141.833 142.5 -147.5 C132.833 -153.167 120.333 -156 105 -156 C93.6667 -156 83 -155 73 -153 L63 -215 C77.6667 -217.667 91.6667 -219 105 -219 C139 -219 167.167 -211.833 189.5 -197.5 C211.833 -183.167 225.333 -160 230 -128 C232 -114 230.833 -101 226.5 -89 C222.167 -77 212 -64.3333 196 -51 C188 -43.6667 182.667 -37 180 -31 C177.335 -25 176.668 -17.6667 178 -9 C196.667 -7.66667 216 -3.16667 236 4.5 C256 12.1667 272.167 22.8333 284.5 36.5 C296.833 50.1667 305.333 64.5 310 79.5 C314.667 94.5 317 109.333 317 124 C317 144.667 313.833 161.833 307.5 175.5 C301.168 189.167 293.334 201 284 211 C274.667 221 265 229.167 255 235.5 C245 241.833 227.833 251.5 203.5 264.5 C179.167 277.5 164 288.667 158 298 C152 307.333 149 316.333 149 325 C149 339 154.667 351 166 361 C177.333 371 194 376 216 376 L216 376 Z " />
<glyph glyph-name="Scaron" unicode="&#x160;" horiz-adv-x="481" d="M349 707 L447 839 L362 839 L305 756 L268 839 L187 839 L249 707 L349 707 Z M93 491 C93 470.333 96.1667 450.667 102.5 432 C108.833 413.333 119 395.5 133 378.5 C147 361.5 174 335 214 299 C266.666 253 297.833 222.833 307.5 208.5 C317.167 194.167 322 181.333 322 170 C322 154.667 317.667 140 309 126 C300.333 112 287.833 100.833 271.5 92.5 C255.167 84.1667 234.333 80 209 80 C173.667 80 125.333 87.6667 64 103 L44 13 C106 -3 160.333 -11 207 -11 C244.333 -11 277.167 -5.5 305.5 5.5 C333.833 16.5 356.667 31.1667 374 49.5 C391.333 67.8333 404.167 88 412.5 110 C420.833 132 425 154 425 176 C425 189.333 423.5 201.666 420.5 213 C417.5 224.333 412.667 235.833 406 247.5 C399.333 259.167 389.833 271.167 377.5 283.5 C365.167 295.833 349.5 310.667 330.5 328 C311.5 345.333 300 356 296 360 C250 402.667 221.5 431.167 210.5 445.5 C199.5 459.833 194 475.333 194 492 C194 520.667 202.667 542.833 220 558.5 C237.333 574.167 261.667 582 293 582 C328.333 582 373.333 574.667 428 560 L447 646 C387.667 662.667 335.667 671 291 671 C231 671 183 654.5 147 621.5 C111 588.5 93 545 93 491 L93 491 Z " />
<glyph glyph-name="scaron" unicode="&#x161;" horiz-adv-x="369" d="M280 521 L384 660 L298 660 L236 570 L196 660 L116 660 L180 520 L280 521 Z M60 320 C60 301.333 62.8333 286 68.5 274 C74.1665 262 79.8332 252.333 85.5 245 C91.1667 237.667 98.6667 230.167 108 222.5 C117.333 214.833 136.167 203.167 164.5 187.5 C192.833 171.833 209.666 160 215 152 C220.333 144 223.333 137.833 224 133.5 C224.667 129.167 225 126.333 225 125 C225 111 219 98.5 207 87.5 C195 76.5 178.333 71 157 71 C144.333 71 126.833 73 104.5 77 C82.1667 81 63 85.6667 47 91 L26 13 C76 -2.33333 120 -10 158 -10 C192 -10 222 -3.5 248 9.5 C274 22.5 292 39.5 302 60.5 C312 81.5 317 102.667 317 124 C317 144.667 313.833 161.833 307.5 175.5 C301.168 189.167 293.334 201 284 211 C274.667 221 265 229.167 255 235.5 C245 241.833 227.833 251.5 203.5 264.5 C179.167 277.5 164 288.667 158 298 C152 307.333 149 316.333 149 325 C149 339 154.667 351 166 361 C177.333 371 194 376 216 376 C242 376 277 369.667 321 357 L340 435 C292 449 248.667 456 210 456 C164 456 127.5 443 100.5 417 C73.5 391 60 358.667 60 320 L60 320 Z " />
<glyph glyph-name="Tcommaaccent" unicode="&#x162;" horiz-adv-x="553" d="M275 0 L294 0 L385 570 L602 570 L616 660 L77 660 L63 570 L284 570 L193 0 L206 0 L201 -25 C199 -37.6667 200 -48.3334 204 -57 C208 -65.6667 216 -75 228 -85 C242.667 -96.3333 251 -104.5 253 -109.5 C255 -114.5 255.667 -118.667 255 -122 C251 -144 233 -155 201 -155 L168 -153 L158 -215 C159.333 -215.667 164.5 -216.5 173.5 -217.5 C182.5 -218.5 191.333 -219 200 -219 C274.666 -219 316.333 -188.667 325 -128 C327.667 -110 326 -95.3333 320 -84 C314 -72.6667 304.667 -61.6667 292 -51 C280 -41 273.667 -32.3333 273 -25 C272.333 -17.6667 272.333 -12 273 -8 L275 0 Z " />
<glyph glyph-name="tcommaaccent" unicode="&#x163;" horiz-adv-x="340" d="M207 364 L330 364 L343 446 L220 446 L242 584 L149 584 L127 446 L55 446 L41 364 L114 364 L74 115 C64 55 80.3333 17 123 1 L118 -25 C116 -37.6667 117 -48.3334 121 -57 C125 -65.6667 133 -75 145 -85 C159 -96.3333 167 -104.5 169 -109.5 C171 -114.5 171.667 -118.667 171 -122 C169.667 -132.667 164.167 -140.834 154.5 -146.5 C144.833 -152.167 132.333 -155 117 -155 L85 -153 L74 -215 C75.3333 -215.667 80.6667 -216.5 90 -217.5 C99.3333 -218.5 108.333 -219 117 -219 C190.333 -219 232 -188.667 242 -128 C244 -114 242.833 -101 238.5 -89 C234.167 -77 224 -64.3333 208 -51 C200 -43.6667 194.667 -37 192 -31 C189.335 -25 188.668 -17.3333 190 -8 C222 -7.33333 256 -3 292 5 L282 84 C256.667 78.6667 235.667 76 219 76 C198.333 76 184.333 80 177 88 C169.667 96 167.333 109.667 170 129 L207 364 Z " />
<glyph glyph-name="Tcaron" unicode="&#x164;" horiz-adv-x="553" d="M404 707 L502 839 L416 839 L359 756 L322 839 L242 839 L303 707 L404 707 Z M616 660 L77 660 L63 570 L284 570 L193 0 L294 0 L385 570 L602 570 L616 660 Z " />
<glyph glyph-name="tcaron" unicode="&#x165;" horiz-adv-x="340" d="M330 734 L301 557 L370 557 L423 734 L330 734 Z M242 584 L149 584 L127 446 L55 446 L41 364 L114 364 L74 115 C67.3333 73.6667 73 42.8333 91 22.5 C109 2.16667 139.667 -8 183 -8 C218.333 -8 254.667 -3.66667 292 5 L282 84 C256.667 78.6667 235.667 76 219 76 C198.333 76 184.333 80 177 88 C169.667 96 167.333 109.667 170 129 L207 364 L330 364 L343 446 L220 446 L242 584 Z " />
<glyph glyph-name="Tbar" unicode="&#x166;" horiz-adv-x="553" d="M602 570 L616 660 L77 660 L63 570 L284 570 L251 367 L158 367 L144 288 L239 289 L193 0 L294 0 L340 289 L433 289 L446 366 L353 367 L385 570 L602 570 Z " />
<glyph glyph-name="tbar" unicode="&#x167;" horiz-adv-x="340" d="M330 364 L343 446 L220 446 L242 584 L149 584 L127 446 L55 446 L41 364 L114 364 L104 303 L38 303 L26 234 L93 234 L74 115 C67.3333 73.6667 73 42.8333 91 22.5 C109 2.16667 139.667 -8 183 -8 C218.333 -8 254.667 -3.66667 292 5 L282 84 C256.667 78.6667 235.667 76 219 76 C198.333 76 184.333 80 177 88 C169.667 96 167.333 109.667 170 129 L187 234 L302 234 L313 303 L198 303 L207 364 L330 364 Z " />
<glyph glyph-name="Umacron" unicode="&#x16a;" horiz-adv-x="711" d="M595 811 L306 811 L293 733 L582 733 L595 811 Z M689 660 L588 660 L515 206 C509.669 175.333 500.335 150.333 487 131 C473.667 111.667 454.334 98.5 429 91.5 C403.667 84.5 373 81 337 81 C298.333 81 267.667 85 245 93 C222.334 101 206.167 113.833 196.5 131.5 C186.833 149.167 185 175 191 209 L262 660 L159 660 L86 194 C78.6667 148 81.8333 110.333 95.5 81 C109.167 51.6667 134 29 170 13 C206 -3 258.333 -11.3333 327 -12 C398.333 -12.6667 453.167 -5 491.5 11 C529.833 27 558.333 49.1667 577 77.5 C595.667 105.833 608.333 142 615 186 L689 660 Z " />
<glyph glyph-name="umacron" unicode="&#x16b;" horiz-adv-x="525" d="M460 627 L172 627 L158 549 L448 549 L460 627 Z M389 446 L338 125 C297.333 87 256 68 214 68 C165.333 68 145.333 94 154 146 L203 446 L107 446 L54 108 C48 71.3333 55.3333 42.3333 76 21 C96.6667 -0.333328 128.333 -11 171 -11 C231 -11 284.667 12.6667 332 60 L322 0 L414 0 L484 446 L389 446 Z " />
<glyph glyph-name="Uring" unicode="&#x16e;" horiz-adv-x="711" d="M449 868 C435.668 868 420.835 864.5 404.5 857.5 C388.167 850.5 374.167 838.167 362.5 820.5 C350.833 802.833 345 783.333 345 762 C345 736.667 353.167 715.667 369.5 699 C385.833 682.333 406 674 430 674 C458.667 674 483.167 684.5 503.5 705.5 C523.833 726.5 534 751.667 534 781 C534 806.332 526 827.165 510 843.5 C494 859.833 473.667 868 449 868 L449 868 Z M436 727 C424.667 727 415.667 730.667 409 738 C402.333 745.333 399 755 399 767 C399 781 403.167 792.5 411.5 801.5 C419.833 810.5 430.333 815 443 815 C454.333 815 463.5 811.167 470.5 803.5 C477.5 795.833 481 786 481 774 C481 760.667 476.667 749.5 468 740.5 C459.333 731.5 448.667 727 436 727 L436 727 Z M689 660 L588 660 L515 206 C509.669 175.333 500.335 150.333 487 131 C473.667 111.667 454.334 98.5 429 91.5 C403.667 84.5 373 81 337 81 C298.333 81 267.667 85 245 93 C222.334 101 206.167 113.833 196.5 131.5 C186.833 149.167 185 175 191 209 L262 660 L159 660 L86 194 C78.6667 148 81.8333 110.333 95.5 81 C109.167 51.6667 134 29 170 13 C206 -3 258.333 -11.3333 327 -12 C398.333 -12.6667 453.167 -5 491.5 11 C529.833 27 558.333 49.1667 577 77.5 C595.667 105.833 608.333 142 615 186 L689 660 Z " />
<glyph glyph-name="uring" unicode="&#x16f;" horiz-adv-x="525" d="M301 503 C319 503 336.667 508.667 354 520 C371.333 531.333 383.833 544.833 391.5 560.5 C399.167 576.167 403.667 590.333 405 603 C406.333 615 404.833 628.333 400.5 643 C396.167 657.667 387 670.333 373 681 C359 691.667 342.667 697 324 697 C295.333 697 270.667 686.5 250 665.5 C229.333 644.5 218.333 620 217 592 C216.333 567.333 224 546.333 240 529 C256 511.667 276.333 503 301 503 L301 503 Z M272 596 C272.665 608.667 277.331 619.5 286 628.5 C294.667 637.5 305 642 317 642 C327 642 335.5 638.167 342.5 630.5 C349.5 622.833 352.667 613.333 352 602 C351.333 589.336 346.333 578.669 337 570 C327.668 561.333 317.335 557 306 557 C296 557 287.667 560.833 281 568.5 C274.333 576.167 271.333 585.333 272 596 L272 596 Z M389 446 L338 125 C297.333 87 256 68 214 68 C165.333 68 145.333 94 154 146 L203 446 L107 446 L54 108 C48 71.3333 55.3333 42.3333 76 21 C96.6667 -0.333328 128.333 -11 171 -11 C231 -11 284.667 12.6667 332 60 L322 0 L414 0 L484 446 L389 446 Z " />
<glyph glyph-name="Uhungarumlaut" unicode="&#x170;" horiz-adv-x="711" d="M402 707 L477 839 L386 839 L321 707 L402 707 Z M544 707 L619 839 L528 839 L464 707 L544 707 Z M689 660 L588 660 L515 206 C509.669 175.333 500.335 150.333 487 131 C473.667 111.667 454.334 98.5 429 91.5 C403.667 84.5 373 81 337 81 C298.333 81 267.667 85 245 93 C222.334 101 206.167 113.833 196.5 131.5 C186.833 149.167 185 175 191 209 L262 660 L159 660 L86 194 C78.6667 148 81.8333 110.333 95.5 81 C109.167 51.6667 134 29 170 13 C206 -3 258.333 -11.3333 327 -12 C398.333 -12.6667 453.167 -5 491.5 11 C529.833 27 558.333 49.1667 577 77.5 C595.667 105.833 608.333 142 615 186 L689 660 Z " />
<glyph glyph-name="uhungarumlaut" unicode="&#x171;" horiz-adv-x="525" d="M346 660 L258 660 L191 521 L267 521 L346 660 Z M412 521 L491 660 L404 660 L336 521 L412 521 Z M338 125 C297.333 87 256 68 214 68 C165.333 68 145.333 94 154 146 L203 446 L107 446 L54 108 C48 71.3333 55.3333 42.3333 76 21 C96.6667 -0.333328 128.333 -11 171 -11 C231 -11 284.667 12.6667 332 60 L322 0 L414 0 L484 446 L389 446 L338 125 Z " />
<glyph glyph-name="Uogonek" unicode="&#x172;" horiz-adv-x="711" d="M588 660 L515 206 C509.669 175.333 500.335 150.333 487 131 C473.667 111.667 454.334 98.5 429 91.5 C403.667 84.5 373 81 337 81 C298.333 81 267.667 85 245 93 C222.334 101 206.167 113.833 196.5 131.5 C186.833 149.167 185 175 191 209 L262 660 L159 660 L86 194 C75.9999 125.333 88.6666 74.8333 124 42.5 C159.333 10.1667 217.667 -7.66667 299 -11 C258.333 -67.6667 238 -114.667 238 -152 C238 -179.333 250.5 -199.167 275.5 -211.5 C300.5 -223.833 338.333 -226 389 -218 L400 -152 C343.333 -162 315 -152.333 315 -123 C315 -98.3333 335 -61 375 -11 C451.667 -6.33333 508.5 11.5 545.5 42.5 C582.5 73.5 605.667 121.333 615 186 L689 660 L588 660 Z " />
<glyph glyph-name="uogonek" unicode="&#x173;" horiz-adv-x="525" d="M331 -123 C331 -96.3333 354 -55.3333 400 0 L414 0 L484 446 L389 446 L338 125 C297.333 87 256 68 214 68 C165.333 68 145.333 94 154 146 L203 446 L107 446 L54 108 C48 71.3333 55.3333 42.3333 76 21 C96.6667 -0.333328 128.333 -11 171 -11 C231 -11 284.667 12.6667 332 60 L322 0 L324 0 C277.333 -60.6667 254 -111.333 254 -152 C254 -179.333 266.5 -199.167 291.5 -211.5 C316.5 -223.833 354.333 -226 405 -218 L416 -152 C359.333 -162 331 -152.333 331 -123 L331 -123 Z " />
<glyph glyph-name="Wcircumflex" unicode="&#x174;" horiz-adv-x="878" d="M530 794 L569 707 L655 707 L579 839 L487 839 L368 707 L461 707 L530 794 Z M824 660 L630 112 L576 660 L444 660 L213 120 L191 660 L92 660 L123 0 L257 0 L493 548 L549 0 L684 0 L926 660 L824 660 Z " />
<glyph glyph-name="wcircumflex" unicode="&#x175;" horiz-adv-x="713" d="M410 606 L460 519 L547 519 L461 660 L368 660 L246 519 L338 519 L410 606 Z M638 446 L499 77 L460 446 L325 446 L161 77 L137 446 L43 446 L78 0 L215 0 L380 371 L417 0 L559 0 L735 446 L638 446 Z " />
<glyph glyph-name="Ycircumflex" unicode="&#x176;" horiz-adv-x="581" d="M369 794 L408 707 L494 707 L418 839 L326 839 L208 707 L300 707 L369 794 Z M526 660 L350 424 C347.333 420 341.333 411.833 332 399.5 C322.667 387.167 316 377.667 312 371 C308.668 381 301.335 399 290 425 L188 660 L77 660 L246 281 L202 0 L305 0 L351 281 L644 660 L526 660 Z " />
<glyph glyph-name="ycircumflex" unicode="&#x177;" horiz-adv-x="456" d="M274 606 L325 519 L411 519 L326 660 L233 660 L111 519 L203 519 L274 606 Z M372 446 L219 151 C209 131.667 198.333 109 187 83 C186.333 97 184.333 119.667 181 151 L149 446 L46 446 L116 -9 C92.6667 -51 68 -84.3333 42 -109 C16 -133.667 -14.6667 -153 -50 -167 L-16 -248 C37.3333 -224 82.8333 -193.833 120.5 -157.5 C158.167 -121.167 193.333 -73 226 -13 L479 446 L372 446 Z " />
<glyph glyph-name="Ydieresis" unicode="&#x178;" horiz-adv-x="581" d="M452 716 C469.333 716 484.5 722.167 497.5 734.5 C510.5 746.83 517 761.664 517 779 C517 793.667 512.167 805.833 502.5 815.5 C492.833 825.167 480.333 830 465 830 C447.667 830 432.667 823.667 420 811 C407.333 798.333 401 783.333 401 766 C401 750.667 405.833 738.5 415.5 729.5 C425.166 720.5 437.333 716 452 716 L452 716 Z M266 716 C283.333 716 298.667 722.167 312 734.5 C325.333 746.83 332 761.664 332 779 C332 793.667 327 805.833 317 815.5 C307 825.167 294.667 830 280 830 C262.667 830 247.667 823.667 235 811 C222.333 798.333 216 783.333 216 766 C216 751.333 220.667 739.333 230 730 C239.333 720.667 251.333 716 266 716 L266 716 Z M526 660 L350 424 C347.333 420 341.333 411.833 332 399.5 C322.667 387.167 316 377.667 312 371 C308.668 381 301.335 399 290 425 L188 660 L77 660 L246 281 L202 0 L305 0 L351 281 L644 660 L526 660 Z " />
<glyph glyph-name="Zacute" unicode="&#x179;" horiz-adv-x="543" d="M456 851 L365 851 L301 719 L381 719 L456 851 Z M593 660 L100 660 L86 569 L438 569 L-7 68 L-17 0 L490 0 L504 91 L140 91 L583 593 L593 660 Z " />
<glyph glyph-name="zacute" unicode="&#x17a;" horiz-adv-x="465" d="M385 660 L294 660 L226 521 L306 521 L385 660 Z M441 446 L83 446 L73 363 L303 363 L22 71 L13 0 L382 0 L394 83 L155 83 L430 371 L441 446 Z " />
<glyph glyph-name="Zdotaccent" unicode="&#x17b;" horiz-adv-x="543" d="M342 716 C358.667 716 373.667 721.833 387 733.5 C400.333 745.167 407.667 759 409 775 C409.67 790.333 405.336 803.333 396 814 C386.668 824.667 374.335 830 359 830 C347.667 830 336.5 826.5 325.5 819.5 C314.5 812.5 306.667 804.333 302 795 C297.333 785.667 294.667 777 294 769 C292.667 754.333 296.667 741.833 306 731.5 C315.333 721.167 327.333 716 342 716 L342 716 Z M593 660 L100 660 L86 569 L438 569 L-7 68 L-17 0 L490 0 L504 91 L140 91 L583 593 L593 660 Z " />
<glyph glyph-name="zdotaccent" unicode="&#x17c;" horiz-adv-x="465" d="M271 534 C288.333 534 303.667 539.833 317 551.5 C330.333 563.167 337.667 577.333 339 594 C339.667 609.333 335.167 622.5 325.5 633.5 C315.833 644.5 303.333 650 288 650 C276 650 264.5 646.5 253.5 639.5 C242.5 632.5 234.667 624.167 230 614.5 C225.333 604.833 222.667 596 222 588 C220.667 573.336 224.667 560.669 234 550 C243.333 539.333 255.666 534 271 534 L271 534 Z M441 446 L83 446 L73 363 L303 363 L22 71 L13 0 L382 0 L394 83 L155 83 L430 371 L441 446 Z " />
<glyph glyph-name="Zcaron" unicode="&#x17d;" horiz-adv-x="543" d="M389 707 L487 839 L402 839 L345 756 L308 839 L227 839 L289 707 L389 707 Z M593 660 L100 660 L86 569 L438 569 L-7 68 L-17 0 L490 0 L504 91 L140 91 L583 593 L593 660 Z " />
<glyph glyph-name="zcaron" unicode="&#x17e;" horiz-adv-x="465" d="M319 521 L423 660 L337 660 L275 570 L236 660 L155 660 L219 520 L319 521 Z M441 446 L83 446 L73 363 L303 363 L22 71 L13 0 L382 0 L394 83 L155 83 L430 371 L441 446 Z " />
<glyph glyph-name="florin" unicode="&#x192;" horiz-adv-x="449" d="M426 590 C447.333 590 473 584.667 503 574 L527 647 C506.333 655 486.333 660.667 467 664 C447.668 667.333 432.334 669 421 669 C375.667 669 339.5 656 312.5 630 C285.5 604 265.333 563.667 252 509 L237 446 L143 446 L132 371 L219 371 L142 56 C132 20 120.167 -2.66667 106.5 -12 C92.8333 -21.3333 77 -26 59 -26 C37 -26 11.3333 -20.6667 -18 -10 L-42 -84 C-21.3333 -92 -1.33333 -97.6667 18 -101 C37.3333 -104.333 52.6667 -106 64 -106 C109.333 -106 145.333 -93 172 -67 C198.667 -41 218.667 -0.333328 232 55 L310 371 L447 371 L459 446 L328 446 L343 507 C350.333 536.333 360 557.5 372 570.5 C384 583.5 402 590 426 590 L426 590 Z " />
<glyph glyph-name="Scommaaccent" unicode="&#x218;" horiz-adv-x="481" d="M291 671 C231 671 183 654.5 147 621.5 C111 588.5 93 545 93 491 C93 470.333 96.1667 450.667 102.5 432 C108.833 413.333 119 395.5 133 378.5 C147 361.5 174 335 214 299 C266.666 253 297.833 222.833 307.5 208.5 C317.167 194.167 322 181.333 322 170 C322 154.667 317.667 140 309 126 C300.333 112 287.833 100.833 271.5 92.5 C255.167 84.1667 234.333 80 209 80 C173.667 80 125.333 87.6667 64 103 L44 13 C106 -3 160.333 -11 207 -11 C244.333 -11 277.167 -5.5 305.5 5.5 C333.833 16.5 356.667 31.1667 374 49.5 C391.333 67.8333 404.167 88 412.5 110 C420.833 132 425 154 425 176 C425 189.333 423.5 201.666 420.5 213 C417.5 224.333 412.667 235.833 406 247.5 C399.333 259.167 389.833 271.167 377.5 283.5 C365.167 295.833 349.5 310.667 330.5 328 C311.5 345.333 300 356 296 360 C250 402.667 221.5 431.167 210.5 445.5 C199.5 459.833 194 475.333 194 492 C194 520.667 202.667 542.833 220 558.5 C237.333 574.167 261.667 582 293 582 C328.333 582 373.333 574.667 428 560 L447 646 C387.667 662.667 335.667 671 291 671 L291 671 Z M186 -51 C174 -51 161 -54 147 -60 L154 -155 L115 -232 L170 -232 L221 -164 C237 -143.333 245 -124 245 -106 C245 -88.6667 240 -75.1667 230 -65.5 C220 -55.8333 205.333 -51 186 -51 L186 -51 Z " />
<glyph glyph-name="scommaaccent" unicode="&#x219;" horiz-adv-x="369" d="M210 456 C164 456 127.5 443 100.5 417 C73.5 391 60 358.667 60 320 C60 301.333 62.8333 286 68.5 274 C74.1665 262 79.8332 252.333 85.5 245 C91.1667 237.667 98.6667 230.167 108 222.5 C117.333 214.833 136.167 203.167 164.5 187.5 C192.833 171.833 209.666 160 215 152 C220.333 144 223.333 137.833 224 133.5 C224.667 129.167 225 126.333 225 125 C225 111 219 98.5 207 87.5 C195 76.5 178.333 71 157 71 C144.333 71 126.833 73 104.5 77 C82.1667 81 63 85.6667 47 91 L26 13 C76 -2.33333 120 -10 158 -10 C192 -10 222 -3.5 248 9.5 C274 22.5 292 39.5 302 60.5 C312 81.5 317 102.667 317 124 C317 144.667 313.833 161.833 307.5 175.5 C301.168 189.167 293.334 201 284 211 C274.667 221 265 229.167 255 235.5 C245 241.833 227.833 251.5 203.5 264.5 C179.167 277.5 164 288.667 158 298 C152 307.333 149 316.333 149 325 C149 339 154.667 351 166 361 C177.333 371 194 376 216 376 C242 376 277 369.667 321 357 L340 435 C292 449 248.667 456 210 456 L210 456 Z M137 -51 C125.667 -51 113 -54 99 -60 L106 -155 L67 -232 L122 -232 L173 -164 C189 -143.333 197 -124 197 -106 C197 -88.6667 191.833 -75.1667 181.5 -65.5 C171.167 -55.8333 156.333 -51 137 -51 L137 -51 Z " />
<glyph glyph-name="uni021A" unicode="&#x21a;" horiz-adv-x="553" d="M616 660 L77 660 L63 570 L284 570 L193 0 L294 0 L385 570 L602 570 L616 660 Z M233 -51 C221 -51 208 -54 194 -60 L201 -155 L162 -232 L217 -232 L268 -164 C284.667 -142.667 293 -123.333 293 -106 C293 -88.6667 287.833 -75.1667 277.5 -65.5 C267.167 -55.8333 252.333 -51 233 -51 L233 -51 Z " />
<glyph glyph-name="uni021B" unicode="&#x21b;" horiz-adv-x="340" d="M207 364 L330 364 L343 446 L220 446 L242 584 L149 584 L127 446 L55 446 L41 364 L114 364 L74 115 C67.3333 73.6667 73 42.8333 91 22.5 C109 2.16667 139.667 -8 183 -8 C218.333 -8 254.667 -3.66667 292 5 L282 84 C256.667 78.6667 235.667 76 219 76 C198.333 76 184.333 80 177 88 C169.667 96 167.333 109.667 170 129 L207 364 Z M149 -51 C137.667 -51 125 -54 111 -60 L118 -155 L79 -232 L134 -232 L185 -164 C201 -143.333 209 -124 209 -106 C209 -88.6667 203.833 -75.1667 193.5 -65.5 C183.167 -55.8333 168.333 -51 149 -51 L149 -51 Z " />
<glyph glyph-name="uni0237" unicode="&#x237;" horiz-adv-x="262" d="M219 446 L121 446 L48 -20 C44.6667 -48.6667 34.5 -76.6667 17.5 -104 C0.5 -131.333 -24.6667 -161 -58 -193 L8 -263 C52.6667 -222.333 84.3333 -185.5 103 -152.5 C121.667 -119.5 135.667 -76 145 -22 L219 446 Z " />
<glyph glyph-name="circumflex" unicode="&#x2c6;" horiz-adv-x="315" d="M359 519 L274 660 L180 660 L58 519 L151 519 L222 606 L272 519 L359 519 Z " />
<glyph glyph-name="caron" unicode="&#x2c7;" horiz-adv-x="328" d="M289 660 L227 570 L188 660 L107 660 L171 520 L271 521 L375 660 L289 660 Z " />
<glyph glyph-name="breve" unicode="&#x2d8;" horiz-adv-x="330" d="M384 660 L304 660 C290.667 609.333 263.334 584 222 584 C200 584 183.5 590.5 172.5 603.5 C161.5 616.5 158 635.333 162 660 L84 660 C77.3333 618.667 86.1667 585.167 110.5 559.5 C134.833 533.833 169.333 521 214 521 C234 521 256 525 280 533 C304 541 325.5 556.167 344.5 578.5 C363.5 600.833 376.667 628 384 660 L384 660 Z " />
<glyph glyph-name="dotaccent" unicode="&#x2d9;" horiz-adv-x="146" d="M190 594 C190.667 609.333 186.167 622.5 176.5 633.5 C166.833 644.5 154.333 650 139 650 C127 650 115.5 646.5 104.5 639.5 C93.5 632.5 85.6667 624.167 81 614.5 C76.3333 604.833 73.6667 596 73 588 C71.6667 573.336 75.6667 560.669 85 550 C94.3333 539.333 106.667 534 122 534 C138.667 534 153.833 539.833 167.5 551.5 C181.167 563.167 188.667 577.333 190 594 L190 594 Z " />
<glyph glyph-name="ring" unicode="&#x2da;" horiz-adv-x="197" d="M169 697 C140.333 697 115.667 686.5 95 665.5 C74.3333 644.5 63.3333 620 62 592 C61.3333 567.333 68.8333 546.333 84.5 529 C100.167 511.667 120.333 503 145 503 C163.667 503 181.667 508.667 199 520 C216.333 531.333 228.833 544.833 236.5 560.5 C244.167 576.167 248.667 590.333 250 603 C252 621.667 248.667 638.833 240 654.5 C231.333 670.167 220.333 681.167 207 687.5 C193.667 693.833 181 697 169 697 L169 697 Z M162 642 C171.333 642 179.5 638.167 186.5 630.5 C193.5 622.833 196.667 613.333 196 602 C195.333 589.336 190.5 578.669 181.5 570 C172.5 561.333 162.333 557 151 557 C141 557 132.667 560.833 126 568.5 C119.333 576.167 116.333 585.333 117 596 C117.667 608.667 122.333 619.5 131 628.5 C139.667 637.5 150 642 162 642 L162 642 Z " />
<glyph glyph-name="ogonek" unicode="&#x2db;" horiz-adv-x="193" d="M103 0 L29 4 C-19 -58.6667 -43 -110.667 -43 -152 C-43 -168.667 -38.3333 -182.667 -29 -194 C-19.6667 -205.333 -4.16667 -213.667 17.5 -219 C39.1667 -224.333 69 -224 107 -218 L119 -152 C62.3333 -162 34 -152.333 34 -123 C34 -96.3333 57 -55.3333 103 0 L103 0 Z " />
<glyph glyph-name="tilde" unicode="&#x2dc;" horiz-adv-x="377" d="M375 641 C364.333 630.333 352.5 621.5 339.5 614.5 C326.5 607.5 315.333 604 306 604 C294.667 604 273.834 610.167 243.5 622.5 C213.167 634.833 190.333 641 175 641 C160.333 641 143.167 636 123.5 626 C103.833 616 87 604 73 590 L117 536 C125.667 544.667 136.333 552.333 149 559 C161.667 565.667 172.333 569 181 569 C191.667 569 212.167 562.833 242.5 550.5 C272.833 538.167 295.333 532 310 532 C326 532 344.5 537.333 365.5 548 C386.5 558.667 404.667 571.667 420 587 L375 641 Z " />
<glyph glyph-name="hungarumlaut" unicode="&#x2dd;" horiz-adv-x="308" d="M217 660 L129 660 L62 521 L138 521 L217 660 Z M362 660 L275 660 L207 521 L283 521 L362 660 Z " />
<glyph glyph-name="gravecomb" unicode="&#x300;" d="M-114 660 L-47 521 L34 521 L-24 660 L-114 660 Z " />
<glyph glyph-name="acutecomb" unicode="&#x301;" d="M-24 521 L54 660 L-37 660 L-104 521 L-24 521 Z " />
<glyph glyph-name="uni0302" unicode="&#x302;" d="M44 519 L-41 660 L-135 660 L-257 519 L-164 519 L-93 606 L-43 519 L44 519 Z " />
<glyph glyph-name="tildecomb" unicode="&#x303;" d="M-1 641 C-29.6667 616.333 -53 604 -71 604 C-82.3334 604 -103.167 610.167 -133.5 622.5 C-163.833 634.833 -186.667 641 -202 641 C-216.667 641 -233.834 636 -253.5 626 C-273.167 616 -290 604 -304 590 L-259 536 C-249.667 545.329 -239 553.162 -227 559.5 C-215 565.833 -204.667 569 -196 569 C-184.667 569 -163.833 562.833 -133.5 550.5 C-103.167 538.167 -80.6667 532 -66 532 C-50 532 -31.8333 537.167 -11.5 547.5 C8.83333 557.833 27 571 43 587 L-1 641 Z " />
<glyph glyph-name="uni0304" unicode="&#x304;" d="M50 627 L-238 627 L-252 549 L37 549 L50 627 Z " />
<glyph glyph-name="uni0306" unicode="&#x306;" d="M54 660 L-26 660 C-38 609.333 -65.3333 584 -108 584 C-130 584 -146.333 590.5 -157 603.5 C-167.667 616.5 -171 635.333 -167 660 L-246 660 C-252.667 618.667 -243.667 585.167 -219 559.5 C-194.333 533.833 -159.667 521 -115 521 C-83.6667 521 -55.3333 528 -30 542 C-4.66667 556 14.5 574 27.5 596 C40.5 618 49.3333 639.333 54 660 L54 660 Z " />
<glyph glyph-name="uni0307" unicode="&#x307;" d="M43 594 C44.3333 609.333 40 622.5 30 633.5 C20 644.5 7.33333 650 -8 650 C-20 650 -31.3333 646.5 -42 639.5 C-52.6667 632.5 -60.5 624.167 -65.5 614.5 C-70.5 604.833 -73.3333 596 -74 588 C-74.6667 573.336 -70.3333 560.669 -61 550 C-51.6666 539.333 -39.3333 534 -24 534 C-12 534 -0.333328 537.333 11 544 C22.3333 550.667 30.3333 558.667 35 568 C39.6667 577.333 42.3333 586 43 594 L43 594 Z " />
<glyph glyph-name="uni0308" unicode="&#x308;" d="M-196 649 C-214 649 -229.5 642.5 -242.5 629.5 C-255.5 616.5 -262 601.333 -262 584 C-262 569.333 -257.167 557 -247.5 547 C-237.833 537 -225.333 532 -210 532 C-192 532 -176.5 538.5 -163.5 551.5 C-150.5 564.5 -144 579.667 -144 597 C-144 611.667 -148.833 624 -158.5 634 C-168.167 644 -180.667 649 -196 649 L-196 649 Z M-11 649 C-29 649 -44.5 642.333 -57.5 629 C-70.5 615.667 -77 600.333 -77 583 C-77 568.338 -72.1667 556.171 -62.5 546.5 C-52.8333 536.833 -40.3333 532 -25 532 C-7 532 8.66667 538.5 22 551.5 C35.3333 564.5 42 579.667 42 597 C42 611.667 37 624 27 634 C17 644 4.33333 649 -11 649 L-11 649 Z " />
<glyph glyph-name="uni030A" unicode="&#x30a;" d="M-28 697 C-56.6667 697 -81.3333 686.5 -102 665.5 C-122.667 644.5 -133.667 620 -135 592 C-135.667 567.333 -128.167 546.333 -112.5 529 C-96.8333 511.667 -76.6666 503 -52 503 C-33.3333 503 -15.3333 508.667 2 520 C19.3333 531.333 31.8333 544.833 39.5 560.5 C47.1667 576.167 51.6667 590.333 53 603 C55 621.667 51.6667 638.833 43 654.5 C34.3333 670.167 23.3333 681.167 10 687.5 C-3.33333 693.833 -16 697 -28 697 L-28 697 Z M-35 642 C-25.6667 642 -17.5 638.167 -10.5 630.5 C-3.5 622.833 -0.333328 613.333 -1 602 C-1.66667 592.667 -4.66667 584.333 -10 577 C-15.3333 569.667 -21.3333 564.5 -28 561.5 C-34.6667 558.5 -40.6667 557 -46 557 C-56.6667 557 -65.1667 560.833 -71.5 568.5 C-77.8336 576.167 -80.667 585.333 -80 596 C-79.3332 608.667 -74.6665 619.5 -66 628.5 C-57.3333 637.5 -47 642 -35 642 L-35 642 Z " />
<glyph glyph-name="uni030B" unicode="&#x30b;" d="M-91 660 L-178 660 L-246 521 L-169 521 L-91 660 Z M54 660 L-33 660 L-101 521 L-24 521 L54 660 Z " />
<glyph glyph-name="uni030C" unicode="&#x30c;" d="M-38 660 L-100 570 L-140 660 L-221 660 L-157 520 L-56 521 L47 660 L-38 660 Z " />
<glyph glyph-name="uni0326" unicode="&#x326;" d="M-343 -51 C-355 -51 -368 -54 -382 -60 L-375 -155 L-414 -232 L-359 -232 L-308 -164 C-291.333 -142.667 -283 -123.333 -283 -106 C-283 -88.6667 -288.167 -75.1667 -298.5 -65.5 C-308.835 -55.8333 -323.668 -51 -343 -51 L-343 -51 Z " />
<glyph glyph-name="uni0327" unicode="&#x327;" d="M-115 17 L-184 17 C-189.333 4.33333 -193 -9.66667 -195 -25 C-197 -37.6667 -196 -48.3334 -192 -57 C-188 -65.6667 -180 -75 -168 -85 C-153.333 -96.3333 -145 -104.5 -143 -109.5 C-141 -114.5 -140.333 -118.667 -141 -122 C-145 -144 -163 -155 -195 -155 L-228 -153 L-238 -215 C-236.666 -215.667 -231.332 -216.5 -222 -217.5 C-212.667 -218.5 -204 -219 -196 -219 C-122 -219 -80 -188.667 -70 -128 C-68 -110 -70 -95.1667 -76 -83.5 C-82 -71.8333 -91.3333 -61 -104 -51 C-116 -41 -122.333 -32.3333 -123 -25 C-123.667 -17.6667 -123.667 -12 -123 -8 C-121.667 0 -119 8.33333 -115 17 L-115 17 Z " />
<glyph glyph-name="uni0328" unicode="&#x328;" d="M-90 0 L-164 4 C-212 -58.6667 -236 -110.667 -236 -152 C-236 -168.667 -231.333 -182.667 -222 -194 C-212.667 -205.333 -197.167 -213.667 -175.5 -219 C-153.833 -224.333 -124 -224 -86 -218 L-74 -152 C-130.667 -162 -159 -152.333 -159 -123 C-159 -96.3333 -136 -55.3333 -90 0 L-90 0 Z " />
<glyph glyph-name="Delta" unicode="&#x394;" horiz-adv-x="582" d="M318 660 L219 660 L-33 0 L546 0 L318 660 Z M264 560 L424 80 L92 80 L264 560 Z " />
<glyph glyph-name="Omega" unicode="&#x3a9;" horiz-adv-x="834" d="M603 77 C643 103 674 137.667 696 181 C718 224.333 729 275.667 729 335 C729 388.333 721.5 436.333 706.5 479 C691.5 521.667 670.333 557.167 643 585.5 C615.667 613.833 582.667 635.333 544 650 C505.333 664.667 462.667 672 416 672 C370 672 327.167 664.667 287.5 650 C247.833 635.335 213.667 613.668 185 585 C156.333 556.333 134.167 520.333 118.5 477 C102.833 433.667 95 384.667 95 330 C95 283.333 101.333 242.167 114 206.5 C126.667 170.833 143 142.833 163 122.5 C183 102.167 202.333 87 221 77 L48 77 L47 0 L343 0 L343 78 C293.667 90 255 117.5 227 160.5 C199 203.5 185 260 185 330 C185 374.666 190.833 413.833 202.5 447.5 C214.167 481.166 230.5 508.333 251.5 529 C272.5 549.667 297 565 325 575 C353 585 383 590 415 590 C465 590 506.333 579.667 539 559 C571.667 538.333 596.333 509.333 613 472 C629.667 434.667 638 388 638 332 C638 294 633.833 259.833 625.5 229.5 C617.167 199.167 605.333 173.833 590 153.5 C574.667 133.167 557 116.667 537 104 C517 91.3333 495 82.3333 471 77 L470 0 L765 0 L765 77 L603 77 Z " />
<glyph glyph-name="mu" unicode="&#x3bc;" horiz-adv-x="521" d="M397 446 L349 141 C340.333 89 310 63 258 63 C218 63 180.667 80.6666 146 116 L198 446 L111 446 L3 -237 L90 -237 L134 42 C169.333 8 214 -9 268 -9 C313.333 -9 350.167 1.16667 378.5 21.5 C406.833 41.8333 424 71 430 109 L484 446 L397 446 Z " />
<glyph glyph-name="pi" unicode="&#x3c0;" horiz-adv-x="630" d="M609 446 L59 446 L58 364 L135 364 L130 0 L219 0 L225 364 L437 364 L432 0 L521 0 L527 364 L607 364 L609 446 Z " />
<glyph glyph-name="Wgrave" unicode="&#x1e80;" horiz-adv-x="878" d="M555 706 L501 838 L411 838 L475 706 L555 706 Z M824 660 L630 112 L576 660 L444 660 L213 120 L191 660 L92 660 L123 0 L257 0 L493 548 L549 0 L684 0 L926 660 L824 660 Z " />
<glyph glyph-name="wgrave" unicode="&#x1e81;" horiz-adv-x="713" d="M437 521 L380 660 L289 660 L356 521 L437 521 Z M638 446 L499 77 L460 446 L325 446 L161 77 L137 446 L43 446 L78 0 L215 0 L380 371 L417 0 L559 0 L735 446 L638 446 Z " />
<glyph glyph-name="Wacute" unicode="&#x1e82;" horiz-adv-x="878" d="M633 851 L542 851 L478 719 L558 719 L633 851 Z M824 660 L630 112 L576 660 L444 660 L213 120 L191 660 L92 660 L123 0 L257 0 L493 548 L549 0 L684 0 L926 660 L824 660 Z " />
<glyph glyph-name="wacute" unicode="&#x1e83;" horiz-adv-x="713" d="M518 660 L427 660 L359 521 L439 521 L518 660 Z M638 446 L499 77 L460 446 L325 446 L161 77 L137 446 L43 446 L78 0 L215 0 L380 371 L417 0 L559 0 L735 446 L638 446 Z " />
<glyph glyph-name="Wdieresis" unicode="&#x1e84;" horiz-adv-x="878" d="M613 716 C630.333 716 645.5 722.167 658.5 734.5 C671.5 746.83 678 761.664 678 779 C678 793.667 673.167 805.833 663.5 815.5 C653.833 825.167 641.333 830 626 830 C608.667 830 593.667 823.667 581 811 C568.333 798.333 562 783.333 562 766 C562 750.667 566.833 738.5 576.5 729.5 C586.167 720.5 598.333 716 613 716 L613 716 Z M427 716 C444.333 716 459.667 722.167 473 734.5 C486.333 746.83 493 761.664 493 779 C493 793.667 488 805.833 478 815.5 C468 825.167 455.667 830 441 830 C423.667 830 408.5 823.667 395.5 811 C382.5 798.333 376 783.333 376 766 C376 751.333 380.667 739.333 390 730 C399.333 720.667 411.667 716 427 716 L427 716 Z M824 660 L630 112 L576 660 L444 660 L213 120 L191 660 L92 660 L123 0 L257 0 L493 548 L549 0 L684 0 L926 660 L824 660 Z " />
<glyph glyph-name="wdieresis" unicode="&#x1e85;" horiz-adv-x="713" d="M495 532 C513 532 528.667 538.5 542 551.5 C555.333 564.5 562 579.667 562 597 C562 611.667 557 624 547 634 C537 644 524.667 649 510 649 C491.333 649 475.667 642.333 463 629 C450.333 615.667 444 600.333 444 583 C444 568.338 448.667 556.171 458 546.5 C467.333 536.833 479.667 532 495 532 L495 532 Z M310 532 C328 532 343.5 538.5 356.5 551.5 C369.5 564.5 376 579.667 376 597 C376 611.667 371.167 624 361.5 634 C351.833 644 339.333 649 324 649 C306 649 290.5 642.5 277.5 629.5 C264.5 616.5 258 601.333 258 584 C258 569.333 262.833 557 272.5 547 C282.167 537 294.667 532 310 532 L310 532 Z M638 446 L499 77 L460 446 L325 446 L161 77 L137 446 L43 446 L78 0 L215 0 L380 371 L417 0 L559 0 L735 446 L638 446 Z " />
<glyph glyph-name="Ygrave" unicode="&#x1ef2;" horiz-adv-x="581" d="M394 706 L340 838 L251 838 L315 706 L394 706 Z M526 660 L350 424 C347.333 420 341.333 411.833 332 399.5 C322.667 387.167 316 377.667 312 371 C308.668 381 301.335 399 290 425 L188 660 L77 660 L246 281 L202 0 L305 0 L351 281 L644 660 L526 660 Z " />
<glyph glyph-name="ygrave" unicode="&#x1ef3;" horiz-adv-x="456" d="M302 521 L245 660 L154 660 L221 521 L302 521 Z M372 446 L219 151 C209 131.667 198.333 109 187 83 C186.333 97 184.333 119.667 181 151 L149 446 L46 446 L116 -9 C92.6667 -51 68 -84.3333 42 -109 C16 -133.667 -14.6667 -153 -50 -167 L-16 -248 C37.3333 -224 82.8333 -193.833 120.5 -157.5 C158.167 -121.167 193.333 -73 226 -13 L479 446 L372 446 Z " />
<glyph glyph-name="uni2009" unicode="&#x2009;" horiz-adv-x="50" d="" />
<glyph glyph-name="figuredash" unicode="&#x2012;" horiz-adv-x="530" d="M38 271 L26 194 L492 194 L504 271 L38 271 Z " />
<glyph glyph-name="endash" unicode="&#x2013;" horiz-adv-x="569" d="M59 271 L46 194 L512 194 L525 271 L59 271 Z " />
<glyph glyph-name="emdash" unicode="&#x2014;" horiz-adv-x="1068" d="M77 271 L65 194 L994 194 L1006 271 L77 271 Z " />
<glyph glyph-name="quoteleft" unicode="&#x2018;" horiz-adv-x="265" d="M232 427 L224 550 L280 660 L214 660 L141 567 C121.667 539 110.5 519.5 107.5 508.5 C104.5 497.5 103.333 488.333 104 481 C105.333 461 112.833 445.333 126.5 434 C140.167 422.667 158 417 180 417 C198.667 417 216 420.333 232 427 L232 427 Z " />
<glyph glyph-name="quoteright" unicode="&#x2019;" horiz-adv-x="265" d="M134 660 L142 537 L86 427 L152 427 L225 520 C244.333 548 255.5 567.5 258.5 578.5 C261.5 589.5 262.667 598.667 262 606 C260.667 625.333 253.167 640.833 239.5 652.5 C225.833 664.167 208 670 186 670 C167.333 670 150 666.667 134 660 L134 660 Z " />
<glyph glyph-name="quotesinglbase" unicode="&#x201a;" horiz-adv-x="264" d="M52 120 L60 -3 L4 -113 L70 -113 L143 -20 C161.667 6.66667 172.667 25.8333 176 37.5 C179.333 49.1667 180.666 58.6667 180 66 C178.667 86 171.167 101.667 157.5 113 C143.833 124.333 126 130 104 130 C85.3333 130 68 126.667 52 120 L52 120 Z " />
<glyph glyph-name="quotedblleft" unicode="&#x201c;" horiz-adv-x="438" d="M232 427 L224 550 L280 660 L214 660 L141 567 C121.667 539 110.5 519.5 107.5 508.5 C104.5 497.5 103.333 488.333 104 481 C105.333 461 112.833 445.333 126.5 434 C140.167 422.667 158 417 180 417 C198.667 417 216 420.333 232 427 L232 427 Z M405 427 L397 550 L453 660 L388 660 L314 567 C295.333 540.335 284.5 521.169 281.5 509.5 C278.5 497.833 277.333 488.333 278 481 C278.667 461 286 445.333 300 434 C314 422.667 331.667 417 353 417 C372.333 417 389.667 420.333 405 427 L405 427 Z " />
<glyph glyph-name="quotedblright" unicode="&#x201d;" horiz-adv-x="438" d="M128 660 L136 537 L80 427 L146 427 L219 520 C238.333 548 249.5 567.5 252.5 578.5 C255.5 589.5 256.667 598.667 256 606 C254.667 625.333 247.167 640.833 233.5 652.5 C219.833 664.167 202 670 180 670 C161.333 670 144 666.667 128 660 L128 660 Z M301 660 L309 537 L253 427 L319 427 L392 520 C411.333 548 422.5 567.5 425.5 578.5 C428.5 589.5 429.667 598.667 429 606 C427.667 625.333 420.167 640.833 406.5 652.5 C392.833 664.167 375 670 353 670 C334.333 670 317 666.667 301 660 L301 660 Z " />
<glyph glyph-name="quotedblbase" unicode="&#x201e;" horiz-adv-x="437" d="M52 120 L60 -3 L4 -113 L70 -113 L143 -20 C161.667 6.66667 172.667 25.8333 176 37.5 C179.333 49.1667 180.666 58.6667 180 66 C178.667 86 171.167 101.667 157.5 113 C143.833 124.333 126 130 104 130 C85.3333 130 68 126.667 52 120 L52 120 Z M225 120 L233 -3 L177 -113 L243 -113 L316 -20 C335.333 8 346.5 27.5 349.5 38.5 C352.5 49.5 353.667 58.6667 353 66 C351.667 86 344.167 101.667 330.5 113 C316.833 124.333 299 130 277 130 C258.333 130 241 126.667 225 120 L225 120 Z " />
<glyph glyph-name="dagger" unicode="&#x2020;" horiz-adv-x="600" d="M590 446 L379 446 L413 660 L328 660 L294 446 L81 446 L69 367 L281 367 L185 -239 L271 -239 L367 367 L578 367 L590 446 Z " />
<glyph glyph-name="daggerdbl" unicode="&#x2021;" horiz-adv-x="601" d="M579 368 L590 446 L379 446 L413 660 L329 660 L295 446 L81 446 L69 368 L283 368 L233 57 L20 57 L8 -20 L221 -20 L186 -239 L270 -239 L305 -20 L518 -20 L530 57 L317 57 L367 368 L579 368 Z " />
<glyph glyph-name="bullet" unicode="&#x2022;" horiz-adv-x="424" d="M332 244 C334 266 329.667 286.333 319 305 C308.333 323.667 294.667 336.667 278 344 C261.333 351.333 246 355 232 355 C207.333 355 184 348.167 162 334.5 C140 320.833 124 304.5 114 285.5 C104 266.5 98.3333 249 97 233 C95 210.334 99.1667 189.667 109.5 171 C119.833 152.333 133.167 139.333 149.5 132 C165.833 124.667 181.333 121 196 121 C220 121 243.167 128 265.5 142 C287.833 156 304.167 172.667 314.5 192 C324.833 211.333 330.667 228.666 332 244 L332 244 Z " />
<glyph glyph-name="ellipsis" unicode="&#x2026;" horiz-adv-x="870" d="M199 63 C199.667 81 194.333 96.1667 183 108.5 C171.667 120.833 157 127 139 127 C124.333 127 110.5 122.833 97.5 114.5 C84.5 106.167 75.3333 96.1667 70 84.5 C64.6668 72.8333 61.6668 62.3333 61 53 C59.6667 35.6667 64.6667 20.8333 76 8.5 C87.3333 -3.83333 101.667 -10 119 -10 C128.333 -10 139 -7.5 151 -2.5 C163 2.5 173.667 11 183 23 C192.333 35 197.666 48.3333 199 63 L199 63 Z M478 63 C478.668 81 473.335 96.1667 462 108.5 C450.667 120.833 436 127 418 127 C403.333 127 389.5 122.833 376.5 114.5 C363.5 106.167 354.333 96.1667 349 84.5 C343.667 72.8333 340.667 62.3333 340 53 C339.333 35.6667 344.5 20.8333 355.5 8.5 C366.5 -3.83333 380.667 -10 398 -10 C412.667 -10 426.667 -5.83333 440 2.5 C453.333 10.8333 462.833 20.6667 468.5 32 C474.165 43.3333 477.332 53.6667 478 63 L478 63 Z M757 63 C758.333 81 753.333 96.1667 742 108.5 C730.667 120.833 715.667 127 697 127 C677 127 659.333 119.833 644 105.5 C628.667 91.1667 620.333 73.6667 619 53 C618.333 35.6667 623.5 20.8333 634.5 8.5 C645.5 -3.83333 659.667 -10 677 -10 C691.667 -10 705.667 -5.83333 719 2.5 C732.333 10.8333 741.833 20.6667 747.5 32 C753.167 43.3333 756.333 53.6667 757 63 L757 63 Z " />
</font>
</svg>
