<?xml version="1.0" encoding="UTF-8"?>
<svg xmlns="http://www.w3.org/2000/svg" xmlns:xlink="http://www.w3.org/1999/xlink" version="1.2" >
<font id="abc Allegra W00 Bold Italic">
<font-face  font-family="abcAllegraW00-BoldItalic" units-per-em="1000" ascent="869" descent="-265" font-style="italic" font-weight="700" font-stretch="normal" slope="-9" cap-height="660" x-height="446" underline-position="-100" underline-thickness="50" />
<missing-glyph  horiz-adv-x="500" d="M410 735 L93 735 L93 -265 L410 -265 L410 735 Z M333 668 L333 635 L267 635 L267 598 L333 598 L333 565 L167 565 L167 598 L233 598 L233 635 L168 635 L168 668 L333 668 Z M267 539 L267 469 L333 469 L333 435 L167 435 L167 539 L267 539 Z M233 505 L200 505 L200 469 L233 469 L233 505 Z M333 408 L333 375 L267 375 L267 305 L167 305 L167 338 L233 338 L233 375 L167 375 L167 408 L333 408 Z M333 348 L333 248 L167 248 L167 282 L300 282 L300 348 L333 348 Z M333 226 L333 113 L167 113 L167 226 L200 226 L200 146 L300 146 L300 193 L267 193 L267 170 L233 170 L233 226 L333 226 Z M333 53 L333 -60 L167 -60 L167 53 L333 53 Z M300 20 L200 20 L200 -27 L300 -27 L300 20 Z M333 -83 L333 -116 L301 -116 L231 -163 L333 -163 L333 -196 L167 -196 L167 -163 L237 -116 L167 -116 L167 -83 L333 -83 Z " />
<glyph glyph-name="NULL" d="" />
<glyph glyph-name="CR" unicode="&#xd;" horiz-adv-x="250" d="" />
<glyph glyph-name="space" unicode="&#x20;" horiz-adv-x="168" d="" />
<glyph glyph-name="exclam" unicode="&#x21;" horiz-adv-x="398" d="M193 660 L123 211 L274 211 L345 660 L193 660 Z M271 90 C271 112.667 263.5 131.667 248.5 147 C233.5 162.333 214.333 170 191 170 C171 170 152.333 164.167 135 152.5 C117.667 140.833 105.5 127 98.5 111 C91.5 95 88 80.3333 88 67 C88 45 95.5 26.3333 110.5 11 C125.5 -4.33333 144.333 -12 167 -12 C187 -12 205.833 -6.16667 223.5 5.5 C241.167 17.1667 253.5 31 260.5 47 C267.5 63 271 77.3333 271 90 L271 90 Z " />
<glyph glyph-name="quotedbl" unicode="&#x22;" horiz-adv-x="436" d="M147 660 L107 412 L207 412 L247 660 L147 660 Z M338 660 L298 412 L398 412 L438 660 L338 660 Z " />
<glyph glyph-name="numbersign" unicode="&#x23;" horiz-adv-x="695" d="M639 375 L669 468 L562 468 L626 660 L526 660 L462 468 L362 468 L426 660 L327 660 L263 468 L156 468 L126 375 L232 375 L201 283 L95 283 L66 192 L171 192 L107 0 L206 0 L270 192 L369 192 L305 0 L406 0 L470 192 L579 192 L608 283 L500 283 L531 375 L639 375 Z M300 283 L331 375 L431 375 L400 283 L300 283 Z " />
<glyph glyph-name="dollar" unicode="&#x24;" horiz-adv-x="421" d="M243 438 C262.333 438 287.833 434.833 319.5 428.5 C351.167 422.167 370 417.667 376 415 L404 528 C366.667 537.333 329.667 544.333 293 549 L305 627 L211 627 L200 550 C157.333 543.333 123.167 525.833 97.5 497.5 C71.8333 469.167 59 434.334 59 393 C59 373 61.8333 356 67.5 342 C73.1667 328 80.6667 315.5 90 304.5 C99.3333 293.5 124 271 164 237 C168 233.667 176.333 226.667 189 216 C201.667 205.334 212.833 195.667 222.5 187 C232.167 178.333 238.5 171 241.5 165 C244.5 159 246 153.333 246 148 C246 136 240 126.167 228 118.5 C216 110.833 199.667 107 179 107 C146.333 107 102 115 46 131 L20 19 C60 8.33333 96 0.666672 128 -4 L117 -80 L210 -80 L221 -7 C271 -2.33333 309.333 13.3333 336 40 C362.667 66.6667 376 102 376 146 C376 162 373.833 177.833 369.5 193.5 C365.167 209.167 356 224.667 342 240 C328 255.333 304.667 277 272 305 C266 310.333 256 318.833 242 330.5 C228 342.165 216.833 351.832 208.5 359.5 C200.167 367.167 195 374 193 380 C191 386 190 392.333 190 399 C190 409 195 418 205 426 C215 434 227.667 438 243 438 L243 438 Z " />
<glyph glyph-name="percent" unicode="&#x25;" horiz-adv-x="894" d="M260 670 C201.333 670 154.333 650.667 119 612 C83.6667 573.333 66 523.333 66 462 C66 413.333 78.1667 376.333 102.5 351 C126.833 325.667 161.667 313 207 313 C263 313 309.333 332.167 346 370.5 C382.666 408.833 401.333 459.333 402 522 C402 569.333 390.333 605.833 367 631.5 C343.667 657.167 308 670 260 670 L260 670 Z M813 660 L692 660 L85 0 L202 0 L813 660 Z M216 399 C198.667 399 185.333 405 176 417 C166.667 429 162.333 446 163 468 C163.667 494 168.333 516.333 177 535 C185.667 553.667 196.5 566.333 209.5 573 C222.5 579.667 235 583 247 583 C267 583 281.167 577.833 289.5 567.5 C297.833 557.167 302 540 302 516 C302 480.667 294.167 452.334 278.5 431 C262.833 409.667 242 399 216 399 L216 399 Z M721 350 C662.333 350 615.333 330.667 580 292 C544.667 253.333 527 203.333 527 142 C527 93.3333 539.167 56.3333 563.5 31 C587.832 5.66667 622.666 -7 668 -7 C724 -7 770.333 12.1667 807 50.5 C843.667 88.8333 862.333 139.333 863 202 C863 249.333 851.333 285.833 828 311.5 C804.667 337.167 769 350 721 350 L721 350 Z M677 79 C659.667 79 646.333 85 637 97 C627.667 109 623.333 126 624 148 C624.667 174 629.333 196.333 638 215 C646.667 233.667 657.5 246.333 670.5 253 C683.5 259.667 696 263 708 263 C728 263 742.167 257.833 750.5 247.5 C758.833 237.167 763 220 763 196 C763 160.667 755.167 132.333 739.5 111 C723.833 89.6667 703 79 677 79 L677 79 Z " />
<glyph glyph-name="ampersand" unicode="&#x26;" horiz-adv-x="797" d="M809 404 L538 404 C541.317 420 544.65 439.833 548 463.5 C551.333 487.166 553 506.333 553 521 C553 566.332 537.833 602.166 507.5 628.5 C477.167 654.833 436 668 384 668 C335.333 668 290.333 657 249 635 C207.667 613 172.5 581.833 143.5 541.5 C114.5 501.167 92.1667 452.667 76.5 396 C60.8333 339.333 53 277.667 53 211 C53 137.667 73 82.1667 113 44.5 C153 6.83333 212 -12 290 -12 C351.333 -12 404.833 0.166672 450.5 24.5 C496.167 48.8333 534 83.8333 564 129.5 C594 175.167 614.333 231.333 625 298 L794 298 L809 404 Z M362 557 C382 557 398.167 552.167 410.5 542.5 C422.833 532.833 429 520 429 504 C429 478 424.333 444.667 415 404 L215 404 C230.333 450.666 250.833 487.833 276.5 515.5 C302.167 543.167 330.667 557 362 557 L362 557 Z M302 100 C225.333 100 187 136.333 187 209 C187 239.667 189 269.333 193 298 L494 298 C486 255.333 473.167 219.5 455.5 190.5 C437.833 161.5 416 139.167 390 123.5 C364 107.833 334.667 100 302 100 L302 100 Z " />
<glyph glyph-name="quotesingle" unicode="&#x27;" horiz-adv-x="255" d="M147 660 L107 412 L207 412 L247 660 L147 660 Z " />
<glyph glyph-name="parenleft" unicode="&#x28;" horiz-adv-x="330" d="M380 735 C354.667 701.667 325.834 652.833 293.5 588.5 C261.167 524.167 234.833 452.833 214.5 374.5 C194.167 296.167 184 219 184 143 C184 79 188.5 13.6667 197.5 -53 C206.5 -119.667 217 -175 229 -219 L104 -219 C91.3333 -166.333 81.5 -106.5 74.5 -39.5 C67.5 27.5 64 88.3333 64 143 C64 202.333 69.5 260.833 80.5 318.5 C91.5 376.167 105.333 428.5 122 475.5 C138.667 522.5 158.833 569.5 182.5 616.5 C206.167 663.5 230 703 254 735 L380 735 Z " />
<glyph glyph-name="parenright" unicode="&#x29;" horiz-adv-x="330" d="M-39 -219 C-13.6667 -185.667 15.1667 -136.833 47.5 -72.5 C79.8333 -8.16666 106.167 63.1667 126.5 141.5 C146.833 219.833 157 297 157 373 C157 437 152.5 502.333 143.5 569 C134.5 635.667 124 691 112 735 L237 735 C249.667 682.333 259.5 622.5 266.5 555.5 C273.5 488.5 277 427.667 277 373 C277 313.667 271.5 255.167 260.5 197.5 C249.5 139.833 235.667 87.5 219 40.5 C202.333 -6.5 182.167 -53.5 158.5 -100.5 C134.833 -147.5 111 -187 87 -219 L-39 -219 Z " />
<glyph glyph-name="asterisk" unicode="&#x2a;" horiz-adv-x="442" d="M325 449 L362 459 L442 484 L425 572 L345 547 L308 535 L314 572 L324 653 L232 653 L222 572 L219 535 L185 548 L111 573 L72 485 L146 460 L180 450 L153 421 L97 355 L166 301 L221 366 L246 396 L262 366 L302 300 L384 354 L344 420 L325 449 Z " />
<glyph glyph-name="plus" unicode="&#x2b;" horiz-adv-x="531" d="M501 289 L327 289 L330 472 L220 472 L216 289 L36 289 L34 184 L214 184 L211 0 L322 0 L325 184 L499 184 L501 289 Z " />
<glyph glyph-name="comma" unicode="&#x2c;" horiz-adv-x="289" d="M49 153 L58 3 L-1 -113 L87 -113 L156 -27 C156.667 -25.6667 160.667 -20.5 168 -11.5 C175.333 -2.5 182.333 7 189 17 C195.667 27 201 37.1667 205 47.5 C209 57.8333 211.5 67 212.5 75 C213.5 83 213.667 89.6667 213 95 C209.667 119 199 137 181 149 C163 161 141 167 115 167 C93.6667 167 71.6667 162.333 49 153 L49 153 Z " />
<glyph glyph-name="hyphen" unicode="&#x2d;" horiz-adv-x="356" d="M70 289 L55 185 L289 185 L305 289 L70 289 Z " />
<glyph glyph-name="period" unicode="&#x2e;" horiz-adv-x="287" d="M212 90 C212 112.667 204.5 131.667 189.5 147 C174.5 162.333 155.333 170 132 170 C112 170 93.3333 164.167 76 152.5 C58.6667 140.833 46.5 127 39.5 111 C32.5 95 29 80.3333 29 67 C29 45 36.5 26.3333 51.5 11 C66.5 -4.33333 85.3333 -12 108 -12 C128 -12 146.833 -6.16667 164.5 5.5 C182.167 17.1667 194.5 31 201.5 47 C208.5 63 212 77.3333 212 90 L212 90 Z " />
<glyph glyph-name="slash" unicode="&#x2f;" horiz-adv-x="470" d="M387 735 L-20 -219 L93 -219 L506 735 L387 735 Z " />
<glyph glyph-name="zero" unicode="0" horiz-adv-x="547" d="M292 455 C253.333 455 218.167 449.333 186.5 438 C154.833 426.667 128.167 410.167 106.5 388.5 C84.8333 366.833 68.3333 340.333 57 309 C45.6667 277.667 40 242.667 40 204 C40 134 58.3333 81 95 45 C131.667 9 185 -9 255 -9 C334.333 -9 396.167 13.1667 440.5 57.5 C484.833 101.833 507 163.333 507 242 C507 312 488.667 365 452 401 C415.333 437 362 455 292 455 L292 455 Z M258 102 C231.334 102 211.667 110.167 199 126.5 C186.333 142.833 180 168.333 180 203 C180 226.333 183.167 248.667 189.5 270 C195.833 291.333 207.333 308.667 224 322 C240.667 335.333 261.333 342 286 342 C312 342 331.333 333.833 344 317.5 C356.667 301.167 363 275 363 239 C363 195 353.833 161.167 335.5 137.5 C317.167 113.833 291.334 102 258 102 L258 102 Z " />
<glyph glyph-name="one" unicode="1" horiz-adv-x="383" d="M228 446 L30 405 L50 295 L168 318 L179 320 L129 0 L268 0 L338 446 L228 446 Z " />
<glyph glyph-name="two" unicode="2" horiz-adv-x="428" d="M297 165 C327.666 189 350.333 213.833 365 239.5 C379.667 265.167 387 294 387 326 C387 368 373.667 400.5 347 423.5 C320.333 446.5 281.667 458 231 458 C207 458 178.833 455.167 146.5 449.5 C114.167 443.833 86.3333 437 63 429 L90 320 C134 334.667 170 342 198 342 C216.667 342 231.167 338.333 241.5 331 C251.833 323.667 257 312.667 257 298 C257 282.668 250.667 268.334 238 255 C225.333 241.667 210 227.667 192 213 L37 87 L23 0 L360 0 L377 107 L223 106 L297 165 Z " />
<glyph glyph-name="three" unicode="3" horiz-adv-x="431" d="M138 -161 C170.667 -161 200.333 -156.5 227 -147.5 C253.667 -138.5 276.333 -125.833 295 -109.5 C313.667 -93.1667 328 -73.6667 338 -51 C348 -28.3333 353 -4 353 22 C353 49.3333 347.333 73.1667 336 93.5 C324.667 113.833 310.334 127.833 293 135.5 C275.667 143.167 259 147.333 243 148 L242 153 C272 153 298 161.167 320 177.5 C342 193.833 357.333 213.5 366 236.5 C374.667 259.5 379 280.333 379 299 C379 346.333 362.833 384.667 330.5 414 C298.167 443.333 256 458 204 458 C184.667 458 161.833 455.667 135.5 451 C109.167 446.333 85 440.667 63 434 L86 323 C124 333.667 155.333 339 180 339 C202.667 339 220 333.333 232 322 C244 310.667 250 295.334 250 276 C250 251.333 239.5 232.833 218.5 220.5 C197.5 208.167 168.333 202 131 202 L92 202 L74 91 L123 91 C161 91 187.167 86 201.5 76 C215.833 66 223 48.6667 223 24 C223 2 213.833 -15.3333 195.5 -28 C177.167 -40.6667 152.333 -47 121 -47 C101 -47 65.6667 -42 15 -32 L-6 -142 C48.6667 -154.667 96.6667 -161 138 -161 L138 -161 Z " />
<glyph glyph-name="four" unicode="4" horiz-adv-x="556" d="M527 110 L419 110 L475 446 L292 446 L4 99 L-11 0 L270 0 L243 -155 L375 -155 L401 0 L509 0 L527 110 Z M151 110 L326 326 L289 110 L151 110 Z " />
<glyph glyph-name="five" unicode="5" horiz-adv-x="411" d="M381 332 L401 446 L87 446 L31 87 L103 89 C147.667 89 178.833 84.8333 196.5 76.5 C214.167 68.1667 223 52.3334 223 29 C223 5.66667 214.667 -11.6667 198 -23 C181.333 -34.3333 155.333 -40 120 -40 C86.6667 -40 50 -35.6667 10 -27 L-13 -144 C5.66667 -148.667 28.6667 -152.667 56 -156 C83.3333 -159.333 108 -161 130 -161 C204.667 -161 261.167 -143.333 299.5 -108 C337.833 -72.6667 357 -21.6667 357 45 C357 82.3333 350.833 111.5 338.5 132.5 C326.167 153.5 307.334 168.333 282 177 C256.667 185.667 219 190.333 169 191 L191 332 L381 332 Z " />
<glyph glyph-name="six" unicode="6" horiz-adv-x="489" d="M395 489 C419 489 441 487.333 461 484 L475 602 C455 605.333 430.667 607 402 607 C348 607 298.667 597.833 254 579.5 C209.333 561.167 171.5 535 140.5 501 C109.5 467 85.8333 426.5 69.5 379.5 C53.1667 332.5 45 281.667 45 227 C45 183.667 50 146.5 60 115.5 C70 84.5 83.6667 59.8333 101 41.5 C118.333 23.1667 138.5 9.83333 161.5 1.5 C184.5 -6.83333 209.667 -11 237 -11 C269 -11 298.5 -5.66667 325.5 5 C352.5 15.6667 375.333 30.8333 394 50.5 C412.667 70.1667 427 93.1667 437 119.5 C447 145.833 452 174 452 204 C452 256 438 295.667 410 323 C382 350.333 344 364 296 364 C268 364 234.667 358.667 196 348 C205.333 376 217.333 399.167 232 417.5 C246.667 435.833 261.667 449.667 277 459 C292.333 468.333 309.5 475.667 328.5 481 C347.5 486.333 369.667 489 395 489 L395 489 Z M256 258 C300 258 322 237 322 195 C322 169 314.5 147.167 299.5 129.5 C284.5 111.833 265.333 103 242 103 C219.333 103 203.333 112.833 194 132.5 C184.667 152.167 180 182 180 222 L180 242 C208 252.667 233.333 258 256 258 L256 258 Z " />
<glyph glyph-name="seven" unicode="7" horiz-adv-x="462" d="M63 446 L45 330 L278 330 L-11 -155 L143 -155 L458 377 L470 446 L63 446 Z " />
<glyph glyph-name="eight" unicode="8" horiz-adv-x="536" d="M363 305 C405 333.667 433.333 355 448 369 C462.665 383 473.832 397.667 481.5 413 C489.167 428.333 493 449 493 475 C493 517.667 476.167 552.167 442.5 578.5 C408.833 604.833 364.667 618 310 618 C242 618 189 603.5 151 574.5 C113 545.5 94 505.333 94 454 C94 428.667 101.833 405.167 117.5 383.5 C133.167 361.833 156.333 339 187 315 C131 276.333 93.6667 244.333 75 219 C56.3333 193.667 47 164.667 47 132 C47 89.3333 65 54.6667 101 28 C137 1.33333 184 -12 242 -12 C314.667 -12 371.5 2.83333 412.5 32.5 C453.5 62.1667 474 103.333 474 156 C474 181.333 466.5 204.167 451.5 224.5 C436.5 244.833 407 271.667 363 305 L363 305 Z M300 516 C321.333 516 337.5 511.5 348.5 502.5 C359.5 493.5 365 481.667 365 467 C365 447.667 357 431 341 417 C325 403 303.667 387.333 277 370 C240.333 400.666 222 428.333 222 453 C222 472.333 229 487.667 243 499 C257 510.333 276 516 300 516 L300 516 Z M257 91 C233 91 214.5 96 201.5 106 C188.5 116 182 129 182 145 C182 163.667 188.5 179.833 201.5 193.5 C214.5 207.167 239 225.333 275 248 C303 226 321 209 329 197 C337 185 341 173.667 341 163 C341 142.333 333.833 125.167 319.5 111.5 C305.167 97.8333 284.334 91 257 91 L257 91 Z " />
<glyph glyph-name="nine" unicode="9" horiz-adv-x="497" d="M256 459 C191.333 459 139.5 439.5 100.5 400.5 C61.5 361.5 42 311.333 42 250 C42 197.333 56.1667 156.5 84.5 127.5 C112.833 98.5 151 84 199 84 C231.667 84 267 90.3333 305 103 C289.667 52.3333 264.334 15.6667 229 -7 C193.667 -29.6667 151 -41 101 -41 C75.6667 -41 53 -39.3333 33 -36 L19 -154 C39 -157.333 63.3333 -159 92 -159 C146 -159 195.333 -149.833 240 -131.5 C284.667 -113.167 322.5 -87 353.5 -53 C384.5 -19 408.167 21.5 424.5 68.5 C440.833 115.5 449 166.333 449 221 C449 275 441.5 319.333 426.5 354 C411.5 388.666 390 414.833 362 432.5 C334 450.167 298.667 459 256 459 L256 459 Z M240 190 C194.667 190 172 213 172 259 C172 284.333 179.167 305 193.5 321 C207.833 337 226.666 345 250 345 C274.667 345 292.667 335.5 304 316.5 C315.333 297.5 321 267.667 321 227 L321 209 C290.333 196.333 263.333 190 240 190 L240 190 Z " />
<glyph glyph-name="colon" unicode="&#x3a;" horiz-adv-x="308" d="M268 379 C268 401.667 260.5 420.667 245.5 436 C230.5 451.333 211.333 459 188 459 C168 459 149.333 453.167 132 441.5 C114.667 429.833 102.5 416 95.5 400 C88.5 384 85 369.333 85 356 C85 334 92.5 315.333 107.5 300 C122.5 284.667 141.333 277 164 277 C184 277 202.833 282.833 220.5 294.5 C238.167 306.167 250.5 320 257.5 336 C264.5 352 268 366.333 268 379 L268 379 Z M223 90 C223 112.667 215.5 131.667 200.5 147 C185.5 162.333 166.333 170 143 170 C123 170 104.333 164.167 87 152.5 C69.6667 140.833 57.5 127 50.5 111 C43.5 95 40 80.3333 40 67 C40 45 47.5 26.3333 62.5 11 C77.5 -4.33333 96.3333 -12 119 -12 C139 -12 157.833 -6.16667 175.5 5.5 C193.167 17.1667 205.5 31 212.5 47 C219.5 63 223 77.3333 223 90 L223 90 Z " />
<glyph glyph-name="semicolon" unicode="&#x3b;" horiz-adv-x="322" d="M268 378 C268 400.667 260.5 419.667 245.5 435 C230.5 450.333 211.333 458 188 458 C168 458 149.333 452.167 132 440.5 C114.667 428.833 102.5 415 95.5 399 C88.5 383 85 368.333 85 355 C85 333 92.5 314.333 107.5 299 C122.5 283.667 141.333 276 164 276 C184 276 202.833 281.833 220.5 293.5 C238.167 305.167 250.5 319 257.5 335 C264.5 351 268 365.333 268 378 L268 378 Z M72 152 L81 2 L22 -114 L110 -114 L179 -28 C179.667 -26.6667 183.667 -21.5 191 -12.5 C198.333 -3.5 205.333 6 212 16 C218.667 26 224 36.1667 228 46.5 C232 56.8333 234.5 66 235.5 74 C236.5 82 236.667 88.6667 236 94 C232.667 118 222 136 204 148 C186 160 164 166 138 166 C116.667 166 94.6667 161.333 72 152 L72 152 Z " />
<glyph glyph-name="less" unicode="&#x3c;" horiz-adv-x="639" d="M554 472 L64 286 L62 167 L545 -28 L548 93 L214 223 L552 351 L554 472 Z " />
<glyph glyph-name="equal" unicode="&#x3d;" horiz-adv-x="553" d="M513 366 L48 366 L46 260 L511 260 L513 366 Z M45 197 L43 94 L508 94 L510 197 L45 197 Z " />
<glyph glyph-name="greater" unicode="&#x3e;" horiz-adv-x="613" d="M84 472 L82 352 L414 224 L78 93 L75 -29 L560 167 L562 286 L84 472 Z " />
<glyph glyph-name="question" unicode="&#x3f;" horiz-adv-x="504" d="M150 654 L163 528 C201 535.333 230.333 539 251 539 C305.667 539 333 519.333 333 480 C333 471.333 331.5 462.333 328.5 453 C325.5 443.667 320.167 435.5 312.5 428.5 C304.833 421.5 297.5 415.667 290.5 411 C283.5 406.333 274.833 400.833 264.5 394.5 C254.167 388.167 246.667 383.667 242 381 C231.334 374.333 211.167 362.5 181.5 345.5 C151.833 328.5 133.833 314.667 127.5 304 C121.167 293.333 117.334 282 116 270 L108 211 L259 211 L262 238 C263.333 252 277 266.833 303 282.5 C329 298.167 345.333 308.167 352 312.5 C358.667 316.833 363.667 320 367 322 C400.333 344 425.667 364 443 382 C460.333 400 472.167 419.5 478.5 440.5 C484.833 461.5 488 484.333 488 509 C488 561 469.833 600.667 433.5 628 C397.167 655.333 347.334 669 284 669 C241.333 669 196.667 664 150 654 L150 654 Z M259 90 C259 112.667 251.5 131.667 236.5 147 C221.5 162.333 202.333 170 179 170 C159 170 140.333 164.167 123 152.5 C105.667 140.833 93.5 127 86.5 111 C79.5 95 76 80.3333 76 67 C76 45 83.5 26.3333 98.5 11 C113.5 -4.33333 132.333 -12 155 -12 C175 -12 193.833 -6.16667 211.5 5.5 C229.167 17.1667 241.5 31 248.5 47 C255.5 63 259 77.3333 259 90 L259 90 Z " />
<glyph glyph-name="at" unicode="&#x40;" horiz-adv-x="692" d="M395 530 C345.667 530 298.833 521.167 254.5 503.5 C210.167 485.833 171.5 461 138.5 429 C105.5 397 79.8333 359.833 61.5 317.5 C43.1667 275.167 34 231 34 185 C34 147.667 41.6667 110.167 57 72.5 C72.3333 34.8333 95 3.33333 125 -22 C155 -47.3333 185.333 -64.6667 216 -74 C246.667 -83.3333 275.667 -88 303 -88 C326.333 -88 351 -85.1667 377 -79.5 C403 -73.8333 424.667 -67.3333 442 -60 L419 6 C405 0 388 -5.33333 368 -10 C348 -14.6667 329.333 -17 312 -17 C287.333 -17 262.833 -12.1667 238.5 -2.5 C214.167 7.16667 193.5 19.6667 176.5 35 C159.5 50.3333 146 67 136 85 C126 103 119 121.333 115 140 C111 158.667 109 175.333 109 190 C109 222.667 115.667 255.167 129 287.5 C142.333 319.833 161.333 348.833 186 374.5 C210.667 400.167 240 420.5 274 435.5 C308 450.5 344.333 458 383 458 C415 458 443.833 452.5 469.5 441.5 C495.167 430.5 516.5 415.833 533.5 397.5 C550.5 379.167 563.333 358.667 572 336 C580.667 313.333 585 290.667 585 268 C585 248 580.667 226 572 202 C563.333 178 552 158.667 538 144 C524 129.333 507.333 122 488 122 C470.667 122 459.5 128.833 454.5 142.5 C449.5 156.167 450 174.667 456 198 L502 378 L428 380 C385.333 380 348.333 373.333 317 360 C285.667 346.667 261 329.334 243 308 C225 286.667 212 264 204 240 C196 216 192 193 192 171 C192 143.667 197.5 120.5 208.5 101.5 C219.5 82.5 232.667 70 248 64 C263.333 58 278.333 55 293 55 C314.333 55 332.667 59.3333 348 68 C363.333 76.6667 378.667 90 394 108 C399.333 90.6667 409.5 77.5 424.5 68.5 C439.5 59.5 456.667 55 476 55 C499.333 55 523.667 61.5 549 74.5 C574.333 87.5 596 106.333 614 131 C632 155.667 644.5 180.333 651.5 205 C658.5 229.667 662 252.667 662 274 C662 306.667 655.667 338.5 643 369.5 C630.336 400.5 612.169 428 588.5 452 C564.833 476 536.333 495 503 509 C469.667 523 433.667 530 395 530 L395 530 Z M385 206 L375 165 C356.333 139 334.333 126 309 126 C281.667 126 268 143.667 268 179 C268 204.333 272.333 225.666 281 243 C289.667 260.333 301 274.333 315 285 C329 295.667 344.333 303 361 307 C377 311.667 394.667 313.667 414 313 L385 206 Z " />
<glyph glyph-name="A" unicode="A" horiz-adv-x="644" d="M455 0 L608 0 L484 660 L299 660 L-34 0 L129 0 L189 128 L435 128 L455 0 Z M246 250 L372 519 L415 250 L246 250 Z " />
<glyph glyph-name="B" unicode="B" horiz-adv-x="579" d="M384 338 C436.667 343.333 478 362.333 508 395 C538 427.667 553 470.333 553 523 C553 565.667 537.833 599.167 507.5 623.5 C477.167 647.833 435.334 660 382 660 C284 660 207.333 659.333 152 658 L48 3 C107.333 -0.333328 184 -1.33333 278 0 C355.333 0 415.667 16.5 459 49.5 C502.333 82.5 524 128 524 186 C524 230.667 512.167 266 488.5 292 C464.833 318 430 333.333 384 338 L384 338 Z M312 397 L246 397 L269 540 L340 541 C361.333 541 377 536.5 387 527.5 C397 518.5 402 504.667 402 486 C402 458.667 394 437 378 421 C362 405 340 397 312 397 L312 397 Z M278 115 C261.333 113.666 236 114.333 202 117 L227 277 L302 277 C327.333 277 345.667 271.667 357 261 C368.333 250.333 374 233.333 374 210 C374 181.333 365.5 158.833 348.5 142.5 C331.5 126.167 308 117 278 115 L278 115 Z " />
<glyph glyph-name="C" unicode="C" horiz-adv-x="578" d="M448 673 C389.333 673 335.833 663.167 287.5 643.5 C239.167 623.833 198 596.333 164 561 C130 525.667 104.167 483.333 86.5 434 C68.8333 384.667 60 331.667 60 275 C60 181 85 109.833 135 61.5 C185 13.1667 258.667 -11 356 -11 C412 -11 469.667 -5.66667 529 5 L518 136 C472.667 128.667 426.667 125 380 125 C323.333 125 281.5 137.5 254.5 162.5 C227.5 187.5 214 226 214 278 C214 314 218.833 347.833 228.5 379.5 C238.167 411.166 252.833 438.833 272.5 462.5 C292.167 486.166 317.5 504.833 348.5 518.5 C379.5 532.167 415.333 539 456 539 C474 539 497.5 537.333 526.5 534 C555.5 530.667 579 527 597 523 L623 653 C596.334 659 566.668 663.833 534 667.5 C501.333 671.167 472.667 673 448 673 L448 673 Z " />
<glyph glyph-name="D" unicode="D" horiz-adv-x="706" d="M384 660 L152 658 L48 2 L283 0 C344.333 0 399.833 8.66667 449.5 26 C499.167 43.3333 541.167 68.5 575.5 101.5 C609.833 134.5 635.833 174.833 653.5 222.5 C671.167 270.167 680 323 680 381 C680 475 655.667 545 607 591 C558.333 637 484 660 384 660 L384 660 Z M361 533 C400.333 533 432.167 527.167 456.5 515.5 C480.833 503.833 499 486.167 511 462.5 C523 438.833 529 406 529 364 C529 286.667 510.667 227.667 474 187 C437.333 146.333 382 126 308 126 L216 127 L280 531 L361 533 Z " />
<glyph glyph-name="E" unicode="E" horiz-adv-x="543" d="M530 531 L551 660 L152 660 L47 0 L457 0 L478 128 L213 128 L236 272 L472 272 L492 401 L257 401 L277 531 L530 531 Z " />
<glyph glyph-name="F" unicode="F" horiz-adv-x="526" d="M524 531 L545 660 L152 660 L48 0 L195 0 L233 243 L464 243 L483 372 L253 372 L278 531 L524 531 Z " />
<glyph glyph-name="G" unicode="G" horiz-adv-x="681" d="M457 681 C426.333 681 392.833 678.167 356.5 672.5 C320.167 666.833 285.167 656 251.5 640 C217.833 624 188.667 603.5 164 578.5 C139.333 553.5 119.167 524.167 103.5 490.5 C87.8333 456.833 77.1667 422.167 71.5 386.5 C65.8333 350.833 62.6667 318.333 62 289 C61.3333 233 67.1667 185 79.5 145 C91.8333 105 110.5 72.8333 135.5 48.5 C160.5 24.1667 191.333 6.33333 228 -5 C264.667 -16.3333 307.333 -22 356 -22 C416 -22 490.333 -14.6667 579 0 L628 309 L487 309 L456 115 C428.667 109.667 402.334 107 377 107 C331 107 296.5 113.333 273.5 126 C250.5 138.667 234 158 224 184 C214 210 209 245 209 289 C209 378.333 228.833 444.167 268.5 486.5 C308.167 528.833 369.667 550 453 550 C503 550 561.667 543.333 629 530 L655 659 C641.667 662.333 616.833 666.833 580.5 672.5 C544.167 678.167 503 681 457 681 L457 681 Z " />
<glyph glyph-name="H" unicode="H" horiz-adv-x="721" d="M561 660 L520 400 L254 400 L295 660 L151 660 L47 0 L191 0 L233 269 L499 269 L457 0 L604 0 L708 660 L561 660 Z " />
<glyph glyph-name="I" unicode="I" horiz-adv-x="312" d="M299 660 L152 660 L48 0 L195 0 L299 660 Z " />
<glyph glyph-name="J" unicode="J" horiz-adv-x="316" d="M304 660 L156 660 L55 17 C48.3333 -15 36.6667 -42.6667 20 -66 C3.33333 -89.3333 -16.6667 -113.333 -40 -138 L63 -236 C109 -192.667 141.5 -152.667 160.5 -116 C179.5 -79.3333 193.667 -30.3333 203 31 L304 660 Z " />
<glyph glyph-name="K" unicode="K" horiz-adv-x="629" d="M152 660 L48 0 L195 0 L299 660 L152 660 Z M677 660 L503 660 L252 341 L424 0 L593 0 L416 341 L677 660 Z " />
<glyph glyph-name="L" unicode="L" horiz-adv-x="493" d="M302 660 L152 660 L47 0 L457 0 L477 134 L217 134 L302 660 Z " />
<glyph glyph-name="M" unicode="M" horiz-adv-x="880" d="M631 660 L455 212 L437 159 L430 213 L372 660 L160 660 L37 0 L180 0 L249 412 L262 501 L324 1 L496 1 L700 497 C695.333 472.333 691 444.333 687 413 L627 0 L778 0 L863 660 L631 660 Z " />
<glyph glyph-name="N" unicode="N" horiz-adv-x="741" d="M581 660 L512 214 L504 150 L494 191 L376 660 L148 660 L44 0 L193 0 L259 418 C263.667 441.333 267 466.667 269 494 L396 0 L627 0 L731 660 L581 660 Z " />
<glyph glyph-name="O" unicode="O" horiz-adv-x="766" d="M433 675 C375.667 675 323.833 666 277.5 648 C231.167 630 192.167 604.167 160.5 570.5 C128.833 536.833 104.667 496.167 88 448.5 C71.3333 400.833 63 348.667 63 292 C63 240.667 69.8333 195.5 83.5 156.5 C97.1666 117.5 116.833 85.3333 142.5 60 C168.167 34.6667 199.833 15.8333 237.5 3.5 C275.167 -8.83333 317.667 -15 365 -15 C422.333 -15 474.333 -6 521 12 C567.667 30 607 55.6667 639 89 C671 122.333 695.333 162.5 712 209.5 C728.667 256.5 737 308.333 737 365 C737 415.667 730.167 460.667 716.5 500 C702.833 539.333 683 571.833 657 597.5 C631 623.167 599 642.5 561 655.5 C523 668.5 480.333 675 433 675 L433 675 Z M429 546 C480.333 546 518.167 531.333 542.5 502 C566.833 472.667 579 427 579 365 C579 287.667 560.833 226.833 524.5 182.5 C488.167 138.167 436.334 116 369 116 C317.667 116 280.334 130.167 257 158.5 C233.667 186.833 222 231.333 222 292 C222 340 228.167 380.5 240.5 413.5 C252.833 446.5 268.833 472.833 288.5 492.5 C308.167 512.167 330.333 526 355 534 C379.666 542 404.333 546 429 546 L429 546 Z " />
<glyph glyph-name="P" unicode="P" horiz-adv-x="567" d="M349 660 C262.333 660 196.667 659.333 152 658 L48 0 L194 0 L228 218 L310 216 C344 216 376.5 221.333 407.5 232 C438.5 242.667 466 258.833 490 280.5 C514 302.167 533 329.5 547 362.5 C561 395.5 568 433.333 568 476 C568 544 550.833 591.667 516.5 619 C482.167 646.333 426.334 660 349 660 L349 660 Z M303 340 L247 340 L278 533 L320 534 C354.667 534 379.667 528 395 516 C410.333 504 418 484.333 418 457 C418 431 412 408.5 400 389.5 C388 370.5 372.833 357.5 354.5 350.5 C336.167 343.5 319 340 303 340 L303 340 Z " />
<glyph glyph-name="Q" unicode="Q" horiz-adv-x="757" d="M730 314 C736.667 368 735.333 417.167 726 461.5 C716.667 505.833 699.167 543.667 673.5 575 C647.835 606.333 614.168 630.333 572.5 647 C530.834 663.667 482.334 672 427 672 C375 672 327.833 664.667 285.5 650 C243.167 635.335 206.667 613.668 176 585 C145.333 556.334 120.5 521.168 101.5 479.5 C82.5 437.833 70 390.667 64 338 C58.6667 292 59.1667 249.167 65.5 209.5 C71.8333 169.833 84.5 134.833 103.5 104.5 C122.5 74.1667 148.333 49.3333 181 30 C213.667 10.6667 252.667 -2 298 -8 L631 -160 L701 -40 C641.667 -11.3333 588 9.33334 540 22 C592 46 634.333 82.3333 667 131 C699.667 179.667 720.667 240.667 730 314 L730 314 Z M575 349 C569.667 272.333 549.333 214.833 514 176.5 C478.667 138.167 430 119 368 119 C311.333 119 271 135.333 247 168 C223 200.667 214.333 250.667 221 318 C227.667 391.333 248.333 447.167 283 485.5 C317.667 523.833 364.667 543 424 543 C476 543 515.5 527.5 542.5 496.5 C569.5 465.5 580.333 416.333 575 349 L575 349 Z " />
<glyph glyph-name="R" unicode="R" horiz-adv-x="614" d="M578 0 L457 266 C483 282.667 505.667 303.5 525 328.5 C544.333 353.5 557.5 379.5 564.5 406.5 C571.5 433.5 575 458 575 480 C575 518.667 567 551 551 577 C535 603 510.833 623.5 478.5 638.5 C446.167 653.5 404.334 661 353 661 C275.667 661 209.333 659.667 154 657 L47 0 L191 0 L226 221 C247.333 219 266 218 282 218 C299.333 218 316 219 332 221 L414 0 L578 0 Z M246 345 L276 537 L317 538 C354.333 538 380.667 532 396 520 C411.333 508 419 488 419 460 C419 423.333 407.333 394.667 384 374 C360.667 353.333 328.667 343 288 343 L246 345 Z " />
<glyph glyph-name="S" unicode="S" horiz-adv-x="483" d="M297 669 C229.667 669 176.5 651.667 137.5 617 C98.5 582.334 79 535.668 79 477 C79 466.333 80 453.833 82 439.5 C84 425.167 90.5 407.334 101.5 386 C112.5 364.667 142.667 333.334 192 292 C240.667 250.667 269.333 224 278 212 C286.667 200 291 188.667 291 178 C291 160 282.667 146 266 136 C249.333 126 226.667 121 198 121 C170 121 127.333 127 70 139 L42 11 C102 -2.33333 152 -9 192 -9 C267.333 -9 327.5 8.83333 372.5 44.5 C417.5 80.1667 440 128.667 440 190 C440 208.667 438 224.333 434 237 C430 249.667 424.333 261.5 417 272.5 C409.667 283.5 400 295 388 307 C376 319 353.667 339.333 321 368 C271 411.333 242.833 438.167 236.5 448.5 C230.167 458.833 227 468.667 227 478 C227 520 252.333 541 303 541 C336.333 541 377.667 534.667 427 522 L454 645 C428.667 652.332 401.5 658.165 372.5 662.5 C343.5 666.833 318.333 669 297 669 L297 669 Z " />
<glyph glyph-name="T" unicode="T" horiz-adv-x="570" d="M638 660 L70 660 L51 531 L263 531 L179 0 L327 0 L411 531 L618 531 L638 660 Z " />
<glyph glyph-name="U" unicode="U" horiz-adv-x="725" d="M710 660 L561 660 L493 234 C487.667 199.334 479.167 174.667 467.5 160 C455.833 145.333 440.5 135.333 421.5 130 C402.5 124.667 376.333 122 343 122 C298.333 122 267.667 131 251 149 C234.333 167 229.333 197 236 239 L303 660 L152 660 L81 206 C75 166.667 76.3333 132.833 85 104.5 C93.6667 76.1667 109 53.5 131 36.5 C153 19.5 181.167 7.16667 215.5 -0.5 C249.833 -8.16667 290.333 -12 337 -12 C398.333 -12 449.167 -5.66667 489.5 7 C529.832 19.6667 562.666 40.1667 588 68.5 C613.333 96.8333 630 137.333 638 190 L710 660 Z " />
<glyph glyph-name="V" unicode="V" horiz-adv-x="629" d="M537 660 L326 194 L304 147 L298 194 L231 660 L71 660 L183 0 L386 0 L698 660 L537 660 Z " />
<glyph glyph-name="W" unicode="W" horiz-adv-x="904" d="M812 660 L653 184 L609 660 L436 660 L236 184 L227 660 L86 660 L111 0 L292 0 L492 480 L544 0 L721 0 L958 660 L812 660 Z " />
<glyph glyph-name="X" unicode="X" horiz-adv-x="623" d="M681 660 L503 660 L342 447 L241 660 L70 660 L241 330 L-30 0 L153 0 L313 208 L413 0 L587 0 L413 324 L681 660 Z " />
<glyph glyph-name="Y" unicode="Y" horiz-adv-x="621" d="M519 660 L367 459 L331 413 L312 459 L229 660 L71 660 L238 278 L194 0 L346 0 L391 280 L690 660 L519 660 Z " />
<glyph glyph-name="Z" unicode="Z" horiz-adv-x="561" d="M618 660 L95 660 L74 530 L395 530 L-7 101 L-23 0 L513 0 L533 130 L207 130 L601 556 L618 660 Z " />
<glyph glyph-name="bracketleft" unicode="&#x5b;" horiz-adv-x="363" d="M392 636 L407 735 L161 735 L10 -219 L257 -219 L273 -119 L136 -119 L255 636 L392 636 Z " />
<glyph glyph-name="backslash" unicode="&#x5c;" horiz-adv-x="520" d="M146 735 L287 -219 L400 -219 L264 735 L146 735 Z " />
<glyph glyph-name="bracketright" unicode="&#x5d;" horiz-adv-x="363" d="M118 735 L101 635 L238 635 L120 -120 L-17 -120 L-33 -219 L213 -219 L364 735 L118 735 Z " />
<glyph glyph-name="asciicircum" unicode="&#x5e;" horiz-adv-x="522" d="M484 0 L300 472 L180 472 L-11 0 L106 0 L238 338 L365 0 L484 0 Z " />
<glyph glyph-name="underscore" unicode="&#x5f;" horiz-adv-x="590" d="M16 -54 L0 -158 L469 -158 L485 -54 L16 -54 Z " />
<glyph glyph-name="grave" unicode="&#x60;" horiz-adv-x="214" d="M83 660 L142 521 L247 521 L204 660 L83 660 Z " />
<glyph glyph-name="a" unicode="a" horiz-adv-x="520" d="M332 455 C284.667 455 241.667 447.833 203 433.5 C164.333 419.167 131.667 398.667 105 372 C78.3333 345.333 58 312.5 44 273.5 C30 234.5 23 191.333 23 144 C23 40 69 -12 161 -12 C213.667 -12 259.333 9.66667 298 53 L289 0 L422 0 L492 440 C438 450 384.667 455 332 455 L332 455 Z M211 99 C175.667 99 158 119.333 158 160 C158 212.667 171.833 255.5 199.5 288.5 C227.167 321.5 263 338 307 338 L339 337 L307 143 C275.667 113.667 243.667 99 211 99 L211 99 Z " />
<glyph glyph-name="b" unicode="b" horiz-adv-x="530" d="M373 457 C319 457 272 438 232 400 L273 660 L133 660 L30 9 C105.333 -5 168 -12 218 -12 C264.667 -12 306.333 -4 343 12 C379.667 28 410.167 50 434.5 78 C458.833 106 477 138.333 489 175 C501 211.667 507 250.667 507 292 C507 347.333 496 388.667 474 416 C452 443.333 418.333 457 373 457 L373 457 Z M230 101 C215.333 101 200.333 102.667 185 106 L217 310 C249 334 279.667 346 309 346 C320.333 346 331 343.667 341 339 C351 334.333 358.333 325.833 363 313.5 C367.667 301.167 370 286.334 370 269 C370 220.333 357 180.167 331 148.5 C305 116.833 271.333 101 230 101 L230 101 Z " />
<glyph glyph-name="c" unicode="c" horiz-adv-x="407" d="M396 333 L416 445 C374.667 453.667 335 458 297 458 C259 458 225.667 452.667 197 442 C168.333 431.333 144.167 418.167 124.5 402.5 C104.833 386.833 87.6667 368 73 346 C58.3334 324 47.1667 298.667 39.5 270 C31.8333 241.333 28 210.667 28 178 C28 129.333 37.5 90.3334 56.5 61 C75.5 31.6667 99.5 12 128.5 2 C157.5 -8 187 -13 217 -13 C262.333 -13 308.333 -9.66666 355 -3 L347 110 C319 105.333 288 103 254 103 C230.667 103 212.5 106.167 199.5 112.5 C186.5 118.833 177 128.5 171 141.5 C165 154.5 162 172.667 162 196 C162 224.667 169.333 251.5 184 276.5 C198.667 301.5 216 318.833 236 328.5 C256 338.167 274.667 343 292 343 C324 343 358.667 339.667 396 333 L396 333 Z " />
<glyph glyph-name="d" unicode="d" horiz-adv-x="521" d="M392 660 L357 455 L317 455 C268.333 455 225.167 446.5 187.5 429.5 C149.833 412.5 118.833 389.333 94.5 360 C70.1667 330.667 52.1667 297.5 40.5 260.5 C28.8333 223.5 23 185 23 145 C23 95.6667 34.3333 57.1667 57 29.5 C79.6667 1.83333 111 -12 151 -12 C209.667 -12 259 10.6667 299 56 L290 0 L423 0 L528 660 L392 660 Z M215 99 C195 99 180.333 104 171 114 C161.667 124 157 140.667 157 164 C157 184 160.833 206.5 168.5 231.5 C176.167 256.5 187.667 277.833 203 295.5 C218.333 313.167 234.833 325.5 252.5 332.5 C270.167 339.5 287.667 343 305 343 L340 341 L306 138 C292.667 126 277.667 116.5 261 109.5 C244.333 102.5 229 99 215 99 L215 99 Z " />
<glyph glyph-name="e" unicode="e" horiz-adv-x="480" d="M445 181 C450.333 209.667 453 243.333 453 282 C453 338.667 438.167 381.667 408.5 411 C378.833 440.333 335 455 277 455 C241 455 207.5 448.333 176.5 435 C145.5 421.667 119 402.5 97 377.5 C75 352.5 58 322.833 46 288.5 C34 254.167 28 216.667 28 176 C28 115.333 44.8333 69 78.5 37 C112.167 5 161 -11 225 -11 C286.333 -11 350.667 -3 418 13 L402 114 C346 100 294.667 93 248 93 C215.333 93 192.833 99.3333 180.5 112 C168.167 124.667 162 146.333 162 177 L162 181 L445 181 Z M265 353 C285 353 300.667 347.333 312 336 C323.333 324.667 329 308.334 329 287 L327 269 L175 269 C180.333 286.333 187.666 301.833 197 315.5 C206.333 329.165 217.166 338.832 229.5 344.5 C241.833 350.167 253.666 353 265 353 L265 353 Z " />
<glyph glyph-name="f" unicode="f" horiz-adv-x="368" d="M336 552 C358.667 552 386 548.667 418 542 L446 650 C402 662.667 357.667 669 313 669 C272.333 669 240.333 663.167 217 651.5 C193.667 639.833 175.167 622.333 161.5 599 C147.833 575.667 138 545 132 507 L122 446 L50 446 L33 330 L103 330 L50 0 L187 0 L239 330 L364 330 L382 446 L258 446 L264 485 C268 510.333 275 527.833 285 537.5 C295 547.167 312 552 336 552 L336 552 Z " />
<glyph glyph-name="g" unicode="g" horiz-adv-x="528" d="M334 455 C278.667 455 231.667 446.667 193 430 C154.333 413.333 122.667 390.833 98 362.5 C73.3333 334.167 55 301.334 43 264 C31 226.667 25 188.667 25 150 C25 120.667 28.6667 95.6667 36 75 C43.3333 54.3333 53.3333 37.5 66 24.5 C78.6666 11.5 93.8333 2.16667 111.5 -3.5 C129.167 -9.16667 147.333 -12 166 -12 C217.333 -12 262.667 8.66667 302 50 L288 -41 C283.333 -85 242.333 -107 165 -107 C127.667 -107 85.6667 -100.667 39 -88 L11 -206 C74.3333 -221.333 132 -229 184 -229 C256 -229 311.167 -215.5 349.5 -188.5 C387.833 -161.5 411 -121.333 419 -68 L499 440 C429 450 374 455 334 455 L334 455 Z M219 99 C197.667 99 182.5 105.167 173.5 117.5 C164.5 129.833 160 147.667 160 171 C160 220.333 174.167 261.333 202.5 294 C230.833 326.667 268 343 314 343 L346 342 L316 141 C296 123.667 277.833 112.333 261.5 107 C245.167 101.667 231 99 219 99 L219 99 Z " />
<glyph glyph-name="h" unicode="h" horiz-adv-x="537" d="M375 455 C319.667 455 270.333 437 227 401 L268 660 L132 660 L27 0 L164 0 L212 305 C242 329 270.667 341 298 341 C334.667 341 350.667 324.667 346 292 L299 0 L437 0 L492 345 C498 379 490.667 405.833 470 425.5 C449.333 445.167 417.667 455 375 455 L375 455 Z " />
<glyph glyph-name="i" unicode="i" horiz-adv-x="266" d="M265 598 C265 616 258.833 631.5 246.5 644.5 C234.167 657.5 218.667 664 200 664 C178.667 664 159.333 655.667 142 639 C124.667 622.333 116 603 116 581 C116 563.667 122.167 548.667 134.5 536 C146.833 523.333 161.667 517 179 517 C201.667 517 221.667 525.167 239 541.5 C256.333 557.831 265 576.664 265 598 L265 598 Z M238 446 L99 446 L29 0 L168 0 L238 446 Z " />
<glyph glyph-name="j" unicode="j" horiz-adv-x="277" d="M274 598 C274 616 267.833 631.5 255.5 644.5 C243.167 657.5 227.667 664 209 664 C187.667 664 168.333 655.667 151 639 C133.667 622.333 125 603 125 581 C125 563.667 131.166 548.667 143.5 536 C155.833 523.333 170.667 517 188 517 C210.667 517 230.667 525.167 248 541.5 C265.333 557.831 274 576.664 274 598 L274 598 Z M246 446 L106 446 L38 14 C35.3333 -9.33333 27 -32 13 -54 C-1 -76 -27 -107.667 -65 -149 L31 -249 C80.3333 -202.333 115.167 -160.667 135.5 -124 C155.833 -87.3333 170.333 -39.6667 179 19 L246 446 Z " />
<glyph glyph-name="k" unicode="k" horiz-adv-x="506" d="M133 660 L29 0 L169 0 L273 660 L133 660 Z M526 446 L366 446 L218 246 L316 0 L475 0 L363 241 L526 446 Z " />
<glyph glyph-name="l" unicode="l" horiz-adv-x="269" d="M275 660 L134 660 L28 0 L171 0 L275 660 Z " />
<glyph glyph-name="m" unicode="m" horiz-adv-x="807" d="M657 457 C623 457 593.167 452.333 567.5 443 C541.833 433.667 517 417.667 493 395 C483.667 436.333 448 457 386 457 C352 457 322 452.167 296 442.5 C270 432.833 245 416.667 221 394 L229 446 L99 446 L28 0 L165 0 L214 306 C242.667 330.667 271 343 299 343 C317 343 330.167 338.833 338.5 330.5 C346.833 322.167 349.667 310 347 294 L300 0 L438 0 L487 308 C515.667 331.333 543.333 343 570 343 C588 343 601.167 338.833 609.5 330.5 C617.814 322.167 620.648 310 618 294 L571 0 L709 0 L764 348 C769.333 384 763 411.167 745 429.5 C727 447.833 697.667 457 657 457 L657 457 Z " />
<glyph glyph-name="n" unicode="n" horiz-adv-x="536" d="M376 457 C312.667 457 261 435.333 221 392 L229 446 L99 446 L28 0 L165 0 L213 304 C239.667 330 268.333 343 299 343 C335.667 343 351.667 326.667 347 294 L300 0 L438 0 L493 347 C497 373 493.5 394.667 482.5 412 C471.5 429.333 455.833 441.167 435.5 447.5 C415.167 453.833 395.334 457 376 457 L376 457 Z " />
<glyph glyph-name="o" unicode="o" horiz-adv-x="524" d="M293 455 C254.333 455 220.5 449.333 191.5 438 C162.5 426.667 138.5 413.167 119.5 397.5 C100.5 381.833 84.1667 363.5 70.5 342.5 C56.8333 321.5 46.5 297.833 39.5 271.5 C32.5 245.167 29 217.667 29 189 C29 123.667 46.5 74.1667 81.5 40.5 C116.5 6.83333 167.333 -10 234 -10 C274 -10 310.5 -3.83333 343.5 8.5 C376.5 20.8333 404.167 38.5 426.5 61.5 C448.833 84.5 465.833 112.167 477.5 144.5 C489.167 176.833 495 212 495 250 C495 317.333 477.333 368.333 442 403 C406.667 437.667 357 455 293 455 L293 455 Z M246 101 C190.667 101 163 134.333 163 201 C163 243 173.5 277.333 194.5 304 C215.5 330.667 243.333 344 278 344 C331.333 344 358 310 358 242 C358 200.667 348.333 166.833 329 140.5 C309.667 114.167 282 101 246 101 L246 101 Z " />
<glyph glyph-name="p" unicode="p" horiz-adv-x="529" d="M374 457 C320 457 270 438.667 224 402 L231 446 L99 446 L-6 -219 L130 -219 L166 5 C197.333 -5.66667 229.333 -11 262 -11 C300.667 -11 335.5 -3.16667 366.5 12.5 C397.5 28.1667 423.167 49.8333 443.5 77.5 C463.833 105.167 479.167 137 489.5 173 C499.833 209 505 247 505 287 C505 347 493.833 390.333 471.5 417 C449.167 443.667 416.667 457 374 457 L374 457 Z M240 101 C223.333 101 204.333 103.667 183 109 L216 317 C252 335 283 344 309 344 C329 344 343.833 337.5 353.5 324.5 C363.167 311.5 368 290.667 368 262 C368 214 356.5 175.167 333.5 145.5 C310.5 115.833 279.333 101 240 101 L240 101 Z " />
<glyph glyph-name="q" unicode="q" horiz-adv-x="524" d="M331 455 C283.667 455 240.833 447.833 202.5 433.5 C164.167 419.167 131.833 398.667 105.5 372 C79.1667 345.333 59 313.5 45 276.5 C31 239.5 24 199.333 24 156 C24 42.6667 70.6667 -13 164 -11 C189.333 -10.3333 213 -5.16667 235 4.5 C257 14.1667 278 29.6667 298 51 L257 -219 L390 -219 L496 440 C472.667 444 445 447.5 413 450.5 C381 453.5 353.667 455 331 455 L331 455 Z M218 100 C197.333 100 182.333 105.833 173 117.5 C163.667 129.167 159 147.333 159 172 C159 220 173 260.5 201 293.5 C229 326.5 266 343 312 343 L343 342 L313 143 C289 123.667 269.833 111.667 255.5 107 C241.167 102.333 228.667 100 218 100 L218 100 Z " />
<glyph glyph-name="r" unicode="r" horiz-adv-x="365" d="M378 331 L397 452 C386.333 454 372 455 354 455 C304.667 455 262.333 435 227 395 L235 446 L99 446 L30 0 L172 0 L217 284 C232.333 299.333 252 311.333 276 320 C300 328.667 325 332.667 351 332 L378 331 Z " />
<glyph glyph-name="s" unicode="s" horiz-adv-x="393" d="M214 457 C182 457 153.333 450.667 128 438 C102.667 425.333 84 407.333 72 384 C60 360.667 54 336.333 54 311 C54 291 57 274.167 63 260.5 C69 246.833 75.6667 236 83 228 C90.3333 220 98.6667 212.667 108 206 C117.333 199.333 133.333 190.833 156 180.5 C178.667 170.167 192.333 163.667 197 161 C201.667 158.333 206 154.833 210 150.5 C214 146.167 216 141 216 135 C216 127.667 212.5 121 205.5 115 C198.5 109 187 106 171 106 C156.333 106 136.667 108.5 112 113.5 C87.3333 118.5 67 123.333 51 128 L24 15 C82 -1 130.667 -9 170 -9 C228.667 -9 273 3.33333 303 28 C333 52.6666 348 87.6666 348 133 C348 155 344.833 173.333 338.5 188 C332.167 202.667 325.167 214 317.5 222 C309.833 230 301.167 237.333 291.5 244 C281.833 250.667 265.167 258.833 241.5 268.5 C217.833 278.165 203.5 284.331 198.5 287 C193.5 289.667 189 293.167 185 297.5 C181 301.833 179 307.333 179 314 C179 332.667 194.667 342 226 342 C257.333 342 297 334.667 345 320 L371 432 C310.333 448.667 258 457 214 457 L214 457 Z " />
<glyph glyph-name="t" unicode="t" horiz-adv-x="346" d="M238 332 L350 332 L369 446 L256 446 L278 584 L146 584 L123 446 L49 446 L30 332 L104 332 L70 124 C62.6667 81.3333 68.3333 48.8333 87 26.5 C105.667 4.16667 136.333 -7 179 -7 C224.333 -7 268 -2.66667 310 6 L302 119 C279.333 115.667 259.667 114 243 114 C224.333 114 214 118.667 212 128 C210 137.333 210 149.667 212 165 L238 332 Z " />
<glyph glyph-name="u" unicode="u" horiz-adv-x="535" d="M368 446 L319 138 C295 114.667 269.333 103 242 103 C202.667 103 186.333 125.333 193 170 L238 446 L98 446 L45 109 C39 71 47 41.5 69 20.5 C91 -0.5 124.333 -11 169 -11 C228.333 -11 276.667 10 314 52 L307 0 L436 0 L507 446 L368 446 Z " />
<glyph glyph-name="v" unicode="v" horiz-adv-x="453" d="M352 446 L207 120 L170 446 L21 446 L104 0 L276 0 L496 446 L352 446 Z " />
<glyph glyph-name="w" unicode="w" horiz-adv-x="730" d="M623 446 L512 115 L499 446 L297 446 L189 116 L170 446 L31 446 L71 0 L267 0 L383 349 L394 0 L595 0 L763 446 L623 446 Z " />
<glyph glyph-name="x" unicode="x" horiz-adv-x="481" d="M508 446 L354 446 L250 306 L201 446 L54 446 L141 229 L-44 0 L119 0 L230 148 L285 0 L435 0 L339 231 L508 446 Z " />
<glyph glyph-name="y" unicode="y" horiz-adv-x="474" d="M352 446 L237 192 L207 126 C207 145.333 205.667 167.333 203 192 L180 446 L29 446 L102 5 C91.3333 -12.3333 77.1667 -29.6667 59.5 -47 C41.8333 -64.3333 23.5 -78.8333 4.5 -90.5 C-14.5 -102.167 -31.3333 -111.333 -46 -118 L4 -236 C44 -218 84 -193.333 124 -162 C164 -130.667 196.833 -99.1666 222.5 -67.5 C248.167 -35.8333 267.333 -8.33334 280 15 L509 446 L352 446 Z " />
<glyph glyph-name="z" unicode="z" horiz-adv-x="482" d="M466 446 L73 446 L56 330 L266 330 L21 105 L4 0 L402 0 L419 116 L215 116 L448 336 L466 446 Z " />
<glyph glyph-name="braceleft" unicode="&#x7b;" horiz-adv-x="421" d="M352 735 C333.333 735 316.5 731.333 301.5 724 C286.5 716.667 275.167 706.5 267.5 693.5 C259.833 680.5 255 667.333 253 654 L209 375 C205 351.667 198.5 336.5 189.5 329.5 C180.5 322.5 166.833 318 148.5 316 C130.167 314 106.667 313 78 313 L62 214 C106.667 213.333 136 211.333 150 208 C164 204.667 172.333 199.167 175 191.5 C177.667 183.833 177.667 171 175 153 L133 -105 C128.334 -135 126.5 -157 127.5 -171 C128.5 -185 132 -195.5 138 -202.5 C144 -209.5 151.667 -214 161 -216 C170.333 -218 179 -219 187 -219 L320 -219 L337 -120 L269 -120 C254.333 -120 244.833 -117 240.5 -111 C236.167 -105 235.333 -93.6667 238 -77 L276 167 C280.667 195.667 276.5 217.5 263.5 232.5 C250.5 247.5 230.333 257.333 203 262 C263.667 272.667 297.667 302.333 305 351 L344 593 C347.333 613 352 625.167 358 629.5 C364 633.833 373 636 385 636 L455 636 L471 735 L352 735 Z " />
<glyph glyph-name="bar" unicode="&#x7c;" horiz-adv-x="306" d="M294 735 L174 735 L23 -219 L143 -219 L294 735 Z " />
<glyph glyph-name="braceright" unicode="&#x7d;" horiz-adv-x="421" d="M257 363 L299 621 C303.667 651 305.5 673 304.5 687 C303.5 701 300 711.5 294 718.5 C288 725.5 280.333 730 271 732 C261.667 734 253 735 245 735 L112 735 L95 636 L163 636 C177.667 636 187.167 633 191.5 627 C195.827 621 196.661 609.667 194 593 L156 349 C152 319.667 156.333 297.667 169 283 C181.667 268.333 201.667 258.667 229 254 C201 249.333 178.167 240 160.5 226 C142.833 212 131.667 191.667 127 165 L88 -77 C85.3333 -97 80.8333 -109.167 74.5 -113.5 C68.1667 -117.833 59 -120 47 -120 L-23 -120 L-39 -219 L80 -219 C98.6667 -219 115.5 -215.333 130.5 -208 C145.5 -200.667 156.833 -190.5 164.5 -177.5 C172.167 -164.5 177 -151.333 179 -138 L223 141 C227 164.333 233.5 179.5 242.5 186.5 C251.5 193.5 265.167 198 283.5 200 C301.833 202 325.333 203 354 203 L370 302 C325.333 302.667 296 304.667 282 308 C268 311.333 259.667 316.833 257 324.5 C254.333 332.167 254.333 345 257 363 L257 363 Z " />
<glyph glyph-name="asciitilde" unicode="&#x7e;" horiz-adv-x="570" d="M151 321 C134.333 321 115.667 316.833 95 308.5 C74.3333 300.167 48 285.667 16 265 L70 172 C96 188.667 114.833 199.333 126.5 204 C138.167 208.667 150.667 211 164 211 C172.667 211 184.167 209.667 198.5 207 C212.833 204.333 241 194.833 283 178.5 C325 162.167 360.333 154 389 154 C412.333 154 435.667 158.167 459 166.5 C482.333 174.833 510 188.666 542 208 L489 303 C445.667 275.667 411.667 261.667 387 261 C365.667 261 328.334 271 275 291 C221.667 311 180.333 321 151 321 L151 321 Z " />
<glyph glyph-name="uni00A0" unicode="&#xa0;" horiz-adv-x="168" d="" />
<glyph glyph-name="exclamdown" unicode="&#xa1;" horiz-adv-x="398" d="M127 355 C127 332.333 134.5 313.333 149.5 298 C164.5 282.667 183.667 275 207 275 C227 275 245.667 280.833 263 292.5 C280.333 304.167 292.5 318 299.5 334 C306.5 350 310 364.667 310 378 C310 400 302.5 418.667 287.5 434 C272.5 449.333 253.667 457 231 457 C211 457 192.167 451.167 174.5 439.5 C156.833 427.833 144.5 414 137.5 398 C130.5 382 127 367.667 127 355 L127 355 Z M205 -215 L275 234 L124 234 L53 -215 L205 -215 Z " />
<glyph glyph-name="cent" unicode="&#xa2;" horiz-adv-x="384" d="M285 343 C317 343 351.667 339.667 389 333 L409 445 C381 450.333 359.667 453.667 345 455 L357 533 L264 533 L251 456 C209 450.668 173.167 438.835 143.5 420.5 C113.833 402.167 89.8333 380.167 71.5 354.5 C53.1667 328.833 40.1667 300.5 32.5 269.5 C24.8333 238.5 21 208 21 178 C21 140.667 26.8333 108.5 38.5 81.5 C50.1667 54.5 67.6667 33.3333 91 18 C114.333 2.66667 142 -7 174 -11 L159 -91 L253 -91 L267 -11 C289.667 -10.3333 316.667 -7.66667 348 -3 L340 110 C312 105.333 281 103 247 103 C223.667 103 205.5 106.167 192.5 112.5 C179.5 118.833 170 128.5 164 141.5 C158 154.5 155 172.667 155 196 C155 224.667 162.333 251.5 177 276.5 C191.667 301.5 209 318.833 229 328.5 C249 338.167 267.667 343 285 343 L285 343 Z " />
<glyph glyph-name="sterling" unicode="&#xa3;" horiz-adv-x="514" d="M405 548 C431.667 548 464 544 502 536 L526 652 C499.333 658.667 471.667 663.333 443 666 C414.333 668.667 391 670 373 670 C337.667 670 305.834 663 277.5 649 C249.167 635 225.667 613.167 207 583.5 C188.333 553.834 176 518.668 170 478 L156 390 L83 390 L66 285 L138 285 L115 142 C113.667 133.333 110.333 125.167 105 117.5 C99.6667 109.833 91.5 104.167 80.5 100.5 C69.5 96.8333 54.6667 95 36 95 L21 0 L413 0 L432 116 L278 116 C262 116 237.333 111.333 204 102 C206 103.333 210.5 106.5 217.5 111.5 C224.5 116.5 230.333 121.333 235 126 C239.667 130.667 243.333 136 246 142 C248.667 148 250.333 154 251 160 L272 285 L428 285 L444 390 L290 390 L304 474 C306.664 491.333 311.831 506 319.5 518 C327.165 530 337.832 538 351.5 542 C365.167 546 383 548 405 548 L405 548 Z " />
<glyph glyph-name="currency" unicode="&#xa4;" horiz-adv-x="553" d="M487 224 C489.667 242 489.833 260.5 487.5 279.5 C485.167 298.5 480.667 315.667 474 331 L542 394 L469 472 L403 410 C376.333 425.333 345.667 433 311 433 C291.667 433 271.5 429.833 250.5 423.5 C229.5 417.167 210.667 409 194 399 L127 472 L49 398 L115 327 C91.6667 295 77 260.667 71 224 C68.3333 206 68 187.833 70 169.5 C72 151.167 76 135 82 121 L8 51 L81 -27 L152 41 C180.667 25 211.667 17 245 17 C265 17 285.833 20.1667 307.5 26.5 C329.167 32.8333 349 41.3333 367 52 L440 -27 L518 47 L446 124 C467.333 154.667 481 188 487 224 L487 224 Z M173 224 C175 236.667 181 251.333 191 268 C201 284.666 215.833 299.332 235.5 312 C255.167 324.667 275 331 295 331 C315.667 331 334 324.667 350 312 C366 299.333 376.333 284.833 381 268.5 C385.667 252.167 387 237.333 385 224 C380.333 196 365.5 171.5 340.5 150.5 C315.5 129.5 289 119 261 119 C233 119 210.167 129.5 192.5 150.5 C174.833 171.5 168.333 196 173 224 L173 224 Z " />
<glyph glyph-name="yen" unicode="&#xa5;" horiz-adv-x="644" d="M395 278 L703 660 L528 660 L357 434 L342 414 L333 436 L241 660 L80 660 L251 277 L257 261 L121 261 L109 184 L244 184 L234 127 L99 127 L87 51 L222 51 L213 0 L343 0 L351 51 L486 51 L500 127 L363 127 L372 184 L508 184 L522 261 L382 261 L395 278 Z " />
<glyph glyph-name="brokenbar" unicode="&#xa6;" horiz-adv-x="326" d="M303 735 L184 735 L120 327 L239 327 L303 735 Z M221 215 L102 215 L33 -219 L152 -219 L221 215 Z " />
<glyph glyph-name="section" unicode="&#xa7;" horiz-adv-x="510" d="M225 -24 L205 502 C204.333 526 212.833 545 230.5 559 C248.167 573 271.667 580 301 580 C320.333 580 346.833 577 380.5 571 C414.167 565 445.667 558 475 550 L496 637 C449.333 649 407.667 657.5 371 662.5 C334.333 667.5 307.333 670 290 670 C232.667 670 187.833 656.5 155.5 629.5 C123.167 602.5 107.667 566.333 109 521 L133 -113 C146.333 -113 160.5 -109.5 175.5 -102.5 C190.5 -95.5 202.667 -85.6667 212 -73 C221.332 -60.3333 225.666 -44 225 -24 L225 -24 Z M279 475 L299 -52 C299.667 -76 291.167 -95 273.5 -109 C255.833 -123 232.333 -130 203 -130 C183.667 -130 157.167 -127 123.5 -121 C89.8333 -115 58.3333 -108 29 -100 L8 -188 C54.6667 -200 96.3333 -208.5 133 -213.5 C169.667 -218.5 196.667 -221 214 -221 C271.333 -221 316.167 -207.5 348.5 -180.5 C380.833 -153.5 396.333 -117.333 395 -72 L371 564 C357.667 564 343.5 560.5 328.5 553.5 C313.5 546.5 301.333 536.667 292 524 C282.669 511.333 278.335 495 279 475 L279 475 Z " />
<glyph glyph-name="dieresis" unicode="&#xa8;" horiz-adv-x="382" d="M145 664 C123 664 103.667 656 87 640 C70.3333 624 62 604.667 62 582 C62 563.333 68 547.833 80 535.5 C92 523.167 108 517 128 517 C144 517 159 521.5 173 530.5 C187 539.5 196.833 550.333 202.5 563 C208.167 575.667 211 587.333 211 598 C211 616.667 204.833 632.333 192.5 645 C180.167 657.667 164.333 664 145 664 L145 664 Z M364 664 C341.333 664 322 655.833 306 639.5 C290 623.167 282 604 282 582 C282 563.333 288 547.833 300 535.5 C312 523.167 327.667 517 347 517 C363 517 378.167 521.5 392.5 530.5 C406.833 539.5 416.833 550.333 422.5 563 C428.167 575.667 431 587.333 431 598 C431 616.667 424.667 632.333 412 645 C399.333 657.667 383.333 664 364 664 L364 664 Z " />
<glyph glyph-name="copyright" unicode="&#xa9;" horiz-adv-x="791" d="M400 536 C358 536 317.667 527.833 279 511.5 C240.333 495.167 206.5 472.5 177.5 443.5 C148.5 414.5 125.833 380.667 109.5 342 C93.1667 303.333 85 263 85 221 C85 179 93.1667 138.667 109.5 100 C125.833 61.3333 148.5 27.5 177.5 -1.5 C206.5 -30.5 240.333 -53.1667 279 -69.5 C317.667 -85.8333 358 -94 400 -94 C442 -94 482.333 -85.8333 521 -69.5 C559.667 -53.1667 593.5 -30.5 622.5 -1.5 C651.5 27.5 674.167 61.3333 690.5 100 C706.833 138.667 715 179 715 221 C715 263 706.833 303.333 690.5 342 C674.167 380.667 651.5 414.5 622.5 443.5 C593.5 472.5 559.667 495.167 521 511.5 C482.333 527.833 442 536 400 536 L400 536 Z M401 466 C433.667 466 465 459.5 495 446.5 C525 433.5 551.333 415.667 574 393 C596.667 370.333 614.333 344 627 314 C639.667 284 646 252.667 646 220 C646 187.333 639.667 156 627 126 C614.336 96 596.669 69.6667 574 47 C551.333 24.3333 525 6.66667 495 -6 C465 -18.6667 433.667 -25 401 -25 C368.333 -25 337 -18.6667 307 -6 C277 6.66667 250.5 24.3333 227.5 47 C204.5 69.6667 186.667 96 174 126 C161.333 156 155 187.333 155 220 C155 252.667 161.333 284 174 314 C186.667 344 204.5 370.333 227.5 393 C250.5 415.667 277 433.5 307 446.5 C337 459.5 368.333 466 401 466 L401 466 Z M415 389 C361 389 319.167 374 289.5 344 C259.833 314 245 273.333 245 222 C245 172.667 259.333 133 288 103 C316.667 73 358 58 412 58 C438.666 58 468.333 61 501 67 L490 137 C466 131.667 443.333 129 422 129 C405.333 129 388.667 132.333 372 139 C355.333 145.667 343 156.333 335 171 C327 185.667 323 202.333 323 221 C323 250.333 332.333 273.833 351 291.5 C369.667 309.167 394 318 424 318 C445.333 318 468.667 315.333 494 310 L505 379 C473 385.667 443 389 415 389 L415 389 Z " />
<glyph glyph-name="ordfeminine" unicode="&#xaa;" horiz-adv-x="315" d="M266 672 C231.333 672 200 666.667 172 656 C144 645.333 120.5 630.333 101.5 611 C82.5 591.667 68.1667 568.667 58.5 542 C48.8333 515.333 44 486.667 44 456 C44 378 78.6667 339 148 339 C169.333 339 186.5 343 199.5 351 C212.5 359 225.667 374 239 396 L231 345 L304 345 L353 665 C328.333 669.667 299.333 672 266 672 L266 672 Z M168 404 C140 404 126 423 126 461 C126 487.667 132 513 144 537 C156 561 171 577.833 189 587.5 C207 597.167 225 602 243 602 L263 601 L238 440 C219.333 424 205 414 195 410 C185 406 176 404 168 404 L168 404 Z " />
<glyph glyph-name="guillemotleft" unicode="&#xab;" horiz-adv-x="568" d="M334 420 L193 420 L60 257 L142 68 L271 68 L191 253 L334 420 Z M558 420 L417 420 L284 257 L366 68 L495 68 L415 253 L558 420 Z " />
<glyph glyph-name="logicalnot" unicode="&#xac;" horiz-adv-x="626" d="M33 379 L31 272 L473 272 L470 100 L577 100 L582 379 L33 379 Z " />
<glyph glyph-name="uni00AD" unicode="&#xad;" horiz-adv-x="346" d="M60 289 L44 185 L279 185 L294 289 L60 289 Z " />
<glyph glyph-name="registered" unicode="&#xae;" horiz-adv-x="521" d="M281 677 C251.667 677 223.833 671.5 197.5 660.5 C171.167 649.5 148.167 634.167 128.5 614.5 C108.833 594.833 93.5 571.833 82.5 545.5 C71.5 519.167 66 491.333 66 462 C66 432.667 71.5 404.834 82.5 378.5 C93.5 352.167 108.833 329.167 128.5 309.5 C148.167 289.833 171.167 274.5 197.5 263.5 C223.833 252.5 251.667 247 281 247 C310.333 247 338.167 252.5 364.5 263.5 C390.833 274.5 413.833 289.833 433.5 309.5 C453.167 329.167 468.5 352.167 479.5 378.5 C490.5 404.833 496 432.667 496 462 C496 491.333 490.5 519.167 479.5 545.5 C468.5 571.833 453.167 594.833 433.5 614.5 C413.833 634.167 390.833 649.5 364.5 660.5 C338.167 671.5 310.334 677 281 677 L281 677 Z M281 299 C237 299 199 315 167 347 C135 379 119 417 119 461 C119 488.333 124.833 512.667 136.5 534 C148.167 555.333 162.167 572.833 178.5 586.5 C194.833 600.167 212 609.833 230 615.5 C248 621.167 265 624 281 624 C313.667 624 343.667 614.667 371 596 C398.333 577.333 417.333 555.5 428 530.5 C438.667 505.5 444 482.333 444 461 C444 433.667 436.833 407 422.5 381 C408.167 355 387.834 334.833 361.5 320.5 C335.167 306.167 308.333 299 281 299 L281 299 Z M358 509 C358 525.667 354 539.833 346 551.5 C338 563.167 325.333 570.333 308 573 C296 575 278 576 254 576 L211 576 L208 363 L256 363 L258 437 C271.333 437 281 437.667 287 439 L326 363 L380 363 L329 453 C348.333 464.333 358 483 358 509 L358 509 Z M259 475 L260 534 L275 534 C286.333 534 294.333 531.667 299 527 C303.667 522.333 306 515 306 505 C306 485 295.333 475 274 475 L259 475 Z " />
<glyph glyph-name="macron" unicode="&#xaf;" horiz-adv-x="322" d="M382 637 L62 637 L43 534 L363 534 L382 637 Z " />
<glyph glyph-name="degree" unicode="&#xb0;" horiz-adv-x="309" d="M166 673 C133.333 673 105.5 661.333 82.5 638 C59.5 614.667 48 586.667 48 554 C48 530.667 54.6667 509.167 68 489.5 C81.3333 469.833 97.1667 456.167 115.5 448.5 C133.833 440.833 150.667 437 166 437 C198.667 437 226.333 448.333 249 471 C271.667 493.667 283 521.333 283 554 C283 587.333 271.667 615.5 249 638.5 C226.333 661.5 198.667 673 166 673 L166 673 Z M166 505 C152 505 140.167 509.833 130.5 519.5 C120.833 529.167 116 540.667 116 554 C116 568 120.833 580 130.5 590 C140.167 600 152 605 166 605 C180 605 191.833 600 201.5 590 C211.167 580 216 568 216 554 C216 540.667 211.167 529.167 201.5 519.5 C191.833 509.833 180 505 166 505 L166 505 Z " />
<glyph glyph-name="plusminus" unicode="&#xb1;" horiz-adv-x="572" d="M340 376 L343 513 L229 513 L226 376 L50 376 L48 273 L225 273 L223 141 L336 141 L338 273 L516 273 L517 376 L340 376 Z M43 0 L511 0 L513 105 L45 105 L43 0 Z " />
<glyph glyph-name="uni00B2" unicode="&#xb2;" horiz-adv-x="311" d="M276 474 C307.333 500 323 532 323 570 C323 585.331 319.333 601.164 312 617.5 C304.667 633.833 291.5 647 272.5 657 C253.5 667 232 672 208 672 C191.333 672 172.333 669.667 151 665 C129.667 660.333 111.667 654.333 97 647 L107 576 C115 580.667 125.333 584.5 138 587.5 C150.667 590.5 163.333 592 176 592 C211.333 592 229 581 229 559 C229 550.333 225.833 541.5 219.5 532.5 C213.167 523.5 202.333 512 187 498 L61 381 L51 322 L299 322 L309 396 L183 396 L276 474 Z " />
<glyph glyph-name="uni00B3" unicode="&#xb3;" horiz-adv-x="276" d="M106 657 L121 590 C139 595.333 155.333 598 170 598 C200 598 215 587 215 565 C215 548.334 206.667 538.167 190 534.5 C173.333 530.833 153 529 129 529 L119 461 C146.333 461.667 165.333 459.667 176 455 C186.667 450.333 192 441.667 192 429 C192 416.333 187.167 407.167 177.5 401.5 C167.833 395.833 152.667 393 132 393 C105.333 393 85 395 71 399 L51 331 C81 322.333 111 318 141 318 C184.333 318 218.667 327.833 244 347.5 C269.333 367.166 282 393.333 282 426 C282 463.333 263.667 486.667 227 496 C251 501.998 269.333 513.665 282 531 C294.667 548.333 301 568.333 301 591 C301 618.331 292.167 638.664 274.5 652 C256.833 665.333 231.333 672 198 672 C168 672 137.333 667 106 657 L106 657 Z " />
<glyph glyph-name="acute" unicode="&#xb4;" horiz-adv-x="174" d="M164 521 L229 660 L109 660 L61 521 L164 521 Z " />
<glyph glyph-name="paragraph" unicode="&#xb6;" horiz-adv-x="537" d="M309 660 C276.333 660 245.333 654.333 216 643 C186.667 631.667 161.333 616 140 596 C118.667 576 102.167 553 90.5 527 C78.8333 501 73 474.333 73 447 C73 416.333 78.1667 389.167 88.5 365.5 C98.8333 341.833 111.833 322.333 127.5 307 C143.167 291.668 160.667 280.834 180 274.5 C199.333 268.167 218.333 265 237 265 L180 -94 L267 -94 L373 577 L425 577 L319 -94 L406 -94 L524 660 L309 660 Z " />
<glyph glyph-name="periodcentered" unicode="&#xb7;" horiz-adv-x="307" d="M143 143 C163 143 181.833 148.833 199.5 160.5 C217.167 172.167 229.5 186 236.5 202 C243.5 218 247 232.333 247 245 C247 267.667 239.5 286.667 224.5 302 C209.5 317.333 190.333 325 167 325 C147 325 128.333 319.167 111 307.5 C93.6667 295.833 81.5 282 74.5 266 C67.5 250 64 235.333 64 222 C64 200 71.5 181.333 86.5 166 C101.5 150.667 120.333 143 143 143 L143 143 Z " />
<glyph glyph-name="cedilla" unicode="&#xb8;" horiz-adv-x="194" d="M73 26 L-12 26 C-15.3333 14.6667 -18 -1 -20 -21 C-21.3333 -37 -19.5 -49.1667 -14.5 -57.5 C-9.5 -65.8333 -2.33333 -73 7 -79 C8.33333 -79.6667 11.1667 -81.5 15.5 -84.5 C19.8333 -87.5 23.3333 -90 26 -92 C28.6667 -94 31.1667 -96.1667 33.5 -98.5 C35.8333 -100.833 37.5 -103.333 38.5 -106 C39.5 -108.667 40 -111 40 -113 C38.6667 -121 34.3333 -127 27 -131 C19.6667 -135 6.33333 -137 -13 -137 L-37 -135 L-49 -211 C-39 -213 -25.3333 -214 -8 -214 C33.3333 -214 64.8333 -206.333 86.5 -191 C108.167 -175.667 121.333 -151.333 126 -118 C128 -99.3333 125.5 -84.5 118.5 -73.5 C111.5 -62.5 99.6667 -51 83 -39 C76.3333 -33.6667 71.6667 -27.1667 69 -19.5 C66.3333 -11.8333 65.6667 -3.66667 67 5 C68.3333 12.3333 70.3333 19.3333 73 26 L73 26 Z " />
<glyph glyph-name="uni00B9" unicode="&#xb9;" horiz-adv-x="229" d="M170 662 L67 645 L72 565 L144 580 L103 322 L202 322 L256 662 L170 662 Z " />
<glyph glyph-name="ordmasculine" unicode="&#xba;" horiz-adv-x="323" d="M234 673 C178 673 133.167 655.333 99.5 620 C65.8333 584.667 49 538.333 49 481 C49 433.667 60.8333 398.167 84.5 374.5 C108.167 350.833 142.333 339 187 339 C215.667 339 243 344.333 269 355 C295 365.667 316 381.667 332 403 C348 424.333 358.667 446 364 468 C369.333 490 372 511 372 531 C372 577.667 360.167 613 336.5 637 C312.833 661 278.667 673 234 673 L234 673 Z M194 405 C152 405 131 432 131 486 C131 523.333 139.667 553 157 575 C174.333 597 197.666 608 227 608 C270.333 608 292 581.667 292 529 C292 503.668 287.167 480.834 277.5 460.5 C267.833 440.168 255.5 425.834 240.5 417.5 C225.5 409.167 210 405 194 405 L194 405 Z " />
<glyph glyph-name="guillemotright" unicode="&#xbb;" horiz-adv-x="573" d="M210 420 L82 420 L156 241 L17 68 L157 68 L287 232 L210 420 Z M443 420 L315 420 L389 241 L250 68 L390 68 L520 232 L443 420 Z " />
<glyph glyph-name="onequarter" unicode="&#xbc;" horiz-adv-x="729" d="M589 660 L-18 0 L99 0 L710 660 L589 660 Z M142 578 L101 320 L200 320 L254 660 L168 660 L65 643 L70 563 L142 578 Z M667 340 L555 340 L355 119 L346 58 L535 58 L526 0 L614 0 L623 58 L688 58 L698 128 L634 128 L667 340 Z M459 128 L564 248 L545 128 L459 128 Z " />
<glyph glyph-name="onehalf" unicode="&#xbd;" horiz-adv-x="740" d="M589 660 L-18 0 L99 0 L710 660 L589 660 Z M142 578 L101 320 L200 320 L254 660 L168 660 L65 643 L70 563 L142 578 Z M699 248 C699 263.333 695.333 279.167 688 295.5 C680.667 311.833 667.5 325 648.5 335 C629.5 345 608 350 584 350 C567.333 350 548.333 347.667 527 343 C505.667 338.333 487.667 332.333 473 325 L483 254 C491 258.667 501.333 262.5 514 265.5 C526.667 268.5 539.333 270 552 270 C587.333 270 605 259 605 237 C605 228.333 601.833 219.5 595.5 210.5 C589.167 201.5 578.333 190 563 176 L437 59 L427 0 L675 0 L685 74 L559 74 L652 152 C683.333 178 699 210 699 248 L699 248 Z " />
<glyph glyph-name="threequarters" unicode="&#xbe;" horiz-adv-x="746" d="M275 424 C274.333 461.333 255.667 484.667 219 494 C243 500 261.333 511.667 274 529 C286.664 546.333 293.331 566.333 294 589 C293.333 616.331 284.167 636.664 266.5 650 C248.833 663.333 223.333 670 190 670 C159.333 670 129 665 99 655 L114 588 C131.333 593.333 147.333 596 162 596 C192 596 207.333 585 208 563 C207.333 546.337 198.833 536.171 182.5 532.5 C166.167 528.833 146 527 122 527 L112 459 C138.667 459.667 157.333 457.667 168 453 C178.667 448.333 184.333 439.667 185 427 C184.334 414.333 179.167 405.167 169.5 399.5 C159.833 393.833 144.667 391 124 391 C97.3333 391 77.3333 393 64 397 L43 329 C73 320.333 103 316 133 316 C176.333 316 210.667 325.833 236 345.5 C261.333 365.166 274.333 391.333 275 424 L275 424 Z M606 660 L-1 0 L116 0 L727 660 L606 660 Z M685 340 L573 340 L373 119 L364 58 L553 58 L544 0 L632 0 L641 58 L706 58 L716 128 L652 128 L685 340 Z M477 128 L581 248 L563 128 L477 128 Z " />
<glyph glyph-name="questiondown" unicode="&#xbf;" horiz-adv-x="504" d="M248 353 C248 330.333 255.5 311.333 270.5 296 C285.5 280.667 304.667 273 328 273 C348 273 366.667 278.833 384 290.5 C401.333 302.167 413.5 316 420.5 332 C427.5 348 431 362.667 431 376 C431 398 423.5 416.667 408.5 432 C393.5 447.333 374.667 455 352 455 C332 455 313.167 449.167 295.5 437.5 C277.833 425.833 265.5 412 258.5 396 C251.5 380 248 365.667 248 353 L248 353 Z M354 -211 L341 -85 C303 -92.3333 273.667 -96 253 -96 C198.333 -96 171 -76.3333 171 -37 C171 -28.3333 172.5 -19.3333 175.5 -10 C178.5 -0.666672 183.833 7.5 191.5 14.5 C199.167 21.5 206.5 27.3333 213.5 32 C220.5 36.6667 229.167 42.1667 239.5 48.5 C249.833 54.8333 257.333 59.3333 262 62 C272.666 68.6667 292.833 80.5 322.5 97.5 C352.167 114.5 370.167 128.333 376.5 139 C382.833 149.667 386.667 161 388 173 L396 232 L245 232 L242 205 C240.667 191 227 176.167 201 160.5 C175 144.833 158.667 134.833 152 130.5 C145.333 126.167 140.333 123 137 121 C103.667 99 78.3333 79 61 61 C43.6667 43 31.8333 23.5 25.5 2.5 C19.1667 -18.5 16 -41.3333 16 -66 C16 -118 34.1667 -157.667 70.5 -185 C106.833 -212.333 156.667 -226 220 -226 C262.667 -226 307.333 -221 354 -211 L354 -211 Z " />
<glyph glyph-name="Agrave" unicode="&#xc0;" horiz-adv-x="644" d="M445 705 L405 837 L284 837 L340 705 L445 705 Z M455 0 L608 0 L484 660 L299 660 L-34 0 L129 0 L189 128 L435 128 L455 0 Z M246 250 L372 519 L415 250 L246 250 Z " />
<glyph glyph-name="Aacute" unicode="&#xc1;" horiz-adv-x="644" d="M511 839 L391 839 L346 707 L449 707 L511 839 Z M455 0 L608 0 L484 660 L299 660 L-34 0 L129 0 L189 128 L435 128 L455 0 Z M246 250 L372 519 L415 250 L246 250 Z " />
<glyph glyph-name="Acircumflex" unicode="&#xc2;" horiz-adv-x="644" d="M405 777 L429 707 L539 707 L464 839 L362 839 L249 707 L361 707 L405 777 Z M455 0 L608 0 L484 660 L299 660 L-34 0 L129 0 L189 128 L435 128 L455 0 Z M246 250 L372 519 L415 250 L246 250 Z " />
<glyph glyph-name="Atilde" unicode="&#xc3;" horiz-adv-x="644" d="M328 746 C343.333 746 367.5 739.667 400.5 727 C433.5 714.333 457.667 708 473 708 C510.333 708 548.667 727.667 588 767 L530 836 C510 817.333 496.167 806.5 488.5 803.5 C480.833 800.5 474 799 468 799 C454 799 429.333 805.5 394 818.5 C358.667 831.5 332.667 838 316 838 C286.667 838 252 818 212 778 L272 711 C294 734.333 312.667 746 328 746 L328 746 Z M455 0 L608 0 L484 660 L299 660 L-34 0 L129 0 L189 128 L435 128 L455 0 Z M246 250 L372 519 L415 250 L246 250 Z " />
<glyph glyph-name="Adieresis" unicode="&#xc4;" horiz-adv-x="644" d="M292 701 C308 701 323 705.333 337 714 C351 722.667 360.833 733.333 366.5 746 C372.167 758.667 375 770 375 780 C375 798.667 368.833 814.333 356.5 827 C344.167 839.667 328.334 846 309 846 C287.667 846 268.834 838 252.5 822 C236.167 806 228 787 228 765 C228 746.333 234 731 246 719 C258 707 273.333 701 292 701 L292 701 Z M496 701 C512 701 527 705.333 541 714 C555 722.667 564.833 733.333 570.5 746 C576.167 758.667 579 770 579 780 C579 798.667 572.833 814.333 560.5 827 C548.167 839.667 532.333 846 513 846 C491 846 472 838 456 822 C440 806 432 787 432 765 C432 746.333 438 731 450 719 C462 707 477.333 701 496 701 L496 701 Z M455 0 L608 0 L484 660 L299 660 L-34 0 L129 0 L189 128 L435 128 L455 0 Z M246 250 L372 519 L415 250 L246 250 Z " />
<glyph glyph-name="Aring" unicode="&#xc5;" horiz-adv-x="644" d="M392 673 C414 673 434.167 679 452.5 691 C470.833 703 483.667 717.333 491 734 C498.333 750.667 502 766 502 780 C502 805.333 493.667 826.5 477 843.5 C460.333 860.5 439 869 413 869 C391 869 370.667 863 352 851 C333.333 839 320.333 824.667 313 808 C305.667 791.333 302 776 302 762 C302 736.667 310.5 715.5 327.5 698.5 C344.5 681.5 366 673 392 673 L392 673 Z M407 810 C418.333 810 427.167 806.667 433.5 800 C439.833 793.339 443 784.673 443 774 C443 762 438.833 751.833 430.5 743.5 C422.167 735.167 412 731 400 731 C389.333 731 380.5 734.333 373.5 741 C366.5 747.667 363 756.333 363 767 C363 779 367.167 789.167 375.5 797.5 C383.833 805.833 394.333 810 407 810 L407 810 Z M455 0 L608 0 L487 643 L290 643 L-34 0 L129 0 L189 128 L435 128 L455 0 Z M246 250 L361 495 L372 520 L376 496 L415 250 L246 250 Z " />
<glyph glyph-name="AE" unicode="&#xc6;" horiz-adv-x="928" d="M915 531 L936 660 L451 660 L-34 0 L134 0 L220 120 L452 120 L432 0 L842 0 L863 128 L598 128 L621 272 L857 272 L877 401 L642 401 L662 531 L915 531 Z M307 241 L517 534 L471 241 L307 241 Z " />
<glyph glyph-name="Ccedilla" unicode="&#xc7;" horiz-adv-x="578" d="M456 539 C474 539 497.5 537.333 526.5 534 C555.5 530.667 579 527 597 523 L623 653 C596.334 659 566.668 663.833 534 667.5 C501.333 671.167 472.667 673 448 673 C389.333 673 335.833 663.167 287.5 643.5 C239.167 623.833 198 596.333 164 561 C130 525.667 104.167 483.333 86.5 434 C68.8333 384.667 60 331.667 60 275 C60 189.667 80.8333 123 122.5 75 C164.167 27 225.333 -1 306 -9 L305 -21 C303.667 -37 305.5 -49.1667 310.5 -57.5 C315.5 -65.8333 322.667 -73 332 -79 C333.333 -79.6667 336.167 -81.5 340.5 -84.5 C344.833 -87.5 348.333 -90 351 -92 C353.667 -94 356.167 -96.1667 358.5 -98.5 C360.833 -100.833 362.5 -103.333 363.5 -106 C364.5 -108.667 365 -111 365 -113 C363.669 -121 359.336 -127 352 -131 C344.667 -135 331.334 -137 312 -137 L288 -135 L276 -211 C286 -213 299.667 -214 317 -214 C358.333 -214 389.833 -206.333 411.5 -191 C433.166 -175.667 446.332 -151.333 451 -118 C453 -99.3333 450.5 -84.5 443.5 -73.5 C436.5 -62.5 424.667 -51 408 -39 C397.333 -31.6667 391.667 -22 391 -10 C437.667 -8 483.667 -3 529 5 L518 136 C472.667 128.667 426.667 125 380 125 C323.333 125 281.5 137.5 254.5 162.5 C227.5 187.5 214 226 214 278 C214 314 218.833 347.833 228.5 379.5 C238.167 411.166 252.833 438.833 272.5 462.5 C292.167 486.166 317.5 504.833 348.5 518.5 C379.5 532.167 415.333 539 456 539 L456 539 Z " />
<glyph glyph-name="Egrave" unicode="&#xc8;" horiz-adv-x="543" d="M415 705 L375 837 L254 837 L310 705 L415 705 Z M530 531 L551 660 L152 660 L47 0 L457 0 L478 128 L213 128 L236 272 L472 272 L492 401 L257 401 L277 531 L530 531 Z " />
<glyph glyph-name="Eacute" unicode="&#xc9;" horiz-adv-x="543" d="M481 839 L361 839 L316 707 L419 707 L481 839 Z M530 531 L551 660 L152 660 L47 0 L457 0 L478 128 L213 128 L236 272 L472 272 L492 401 L257 401 L277 531 L530 531 Z " />
<glyph glyph-name="Ecircumflex" unicode="&#xca;" horiz-adv-x="543" d="M376 777 L399 707 L509 707 L434 839 L332 839 L219 707 L331 707 L376 777 Z M530 531 L551 660 L152 660 L47 0 L457 0 L478 128 L213 128 L236 272 L472 272 L492 401 L257 401 L277 531 L530 531 Z " />
<glyph glyph-name="Edieresis" unicode="&#xcb;" horiz-adv-x="543" d="M262 701 C278 701 293 705.333 307 714 C321 722.667 330.833 733.333 336.5 746 C342.167 758.667 345 770 345 780 C345 798.667 338.833 814.333 326.5 827 C314.167 839.667 298.334 846 279 846 C257.667 846 238.833 838 222.5 822 C206.167 806 198 787 198 765 C198 746.333 204 731 216 719 C228 707 243.333 701 262 701 L262 701 Z M466 701 C482 701 497 705.333 511 714 C525 722.667 534.833 733.333 540.5 746 C546.167 758.667 549 770 549 780 C549 798.667 542.833 814.333 530.5 827 C518.167 839.667 502.333 846 483 846 C461 846 442 838 426 822 C410 806 402 787 402 765 C402 746.333 408 731 420 719 C432 707 447.333 701 466 701 L466 701 Z M530 531 L551 660 L152 660 L47 0 L457 0 L478 128 L213 128 L236 272 L472 272 L492 401 L257 401 L277 531 L530 531 Z " />
<glyph glyph-name="Igrave" unicode="&#xcc;" horiz-adv-x="312" d="M119 837 L175 705 L280 705 L240 837 L119 837 Z M299 660 L152 660 L48 0 L195 0 L299 660 Z " />
<glyph glyph-name="Iacute" unicode="&#xcd;" horiz-adv-x="312" d="M284 707 L346 839 L226 839 L181 707 L284 707 Z M299 660 L152 660 L48 0 L195 0 L299 660 Z " />
<glyph glyph-name="Icircumflex" unicode="&#xce;" horiz-adv-x="312" d="M240 777 L264 707 L374 707 L299 839 L197 839 L84 707 L196 707 L240 777 Z M48 0 L195 0 L299 660 L152 660 L48 0 Z " />
<glyph glyph-name="Idieresis" unicode="&#xcf;" horiz-adv-x="312" d="M144 846 C122.667 846 103.833 838 87.5 822 C71.1667 806 63 787 63 765 C63 746.333 69 731 81 719 C93 707 108.333 701 127 701 C143 701 158 705.333 172 714 C186 722.667 195.833 733.333 201.5 746 C207.167 758.667 210 770 210 780 C210 798.667 203.833 814.333 191.5 827 C179.167 839.667 163.333 846 144 846 L144 846 Z M348 846 C326 846 307 838 291 822 C275 806 267 787 267 765 C267 746.333 273 731 285 719 C297 707 312.333 701 331 701 C347 701 362 705.333 376 714 C390 722.667 399.833 733.333 405.5 746 C411.167 758.667 414 770 414 780 C414 798.667 407.833 814.333 395.5 827 C383.167 839.667 367.334 846 348 846 L348 846 Z M299 660 L152 660 L48 0 L195 0 L299 660 Z " />
<glyph glyph-name="Eth" unicode="&#xd0;" horiz-adv-x="764" d="M442 660 L210 658 L169 400 L122 400 L100 269 L148 269 L106 2 L341 0 C402.333 0 457.833 8.66667 507.5 26 C557.167 43.3333 599.167 68.5 633.5 101.5 C667.833 134.5 693.833 174.833 711.5 222.5 C729.167 270.167 738 323 738 381 C738 475 713.667 545 665 591 C616.333 637 542 660 442 660 L442 660 Z M366 126 L274 127 L296 269 L422 269 L443 400 L317 400 L338 531 L419 533 C458.333 533 490.167 527.167 514.5 515.5 C538.833 503.833 557 486.167 569 462.5 C581 438.833 587 406 587 364 C587 286.667 568.667 227.667 532 187 C495.333 146.333 440 126 366 126 L366 126 Z " />
<glyph glyph-name="Ntilde" unicode="&#xd1;" horiz-adv-x="741" d="M372 746 C387.333 746 411.5 739.667 444.5 727 C477.5 714.333 501.667 708 517 708 C554.333 708 592.666 727.667 632 767 L574 836 C554 817.333 540.167 806.5 532.5 803.5 C524.833 800.5 518 799 512 799 C498 799 473.333 805.5 438 818.5 C402.667 831.5 376.667 838 360 838 C330.667 838 296 818 256 778 L316 711 C338 734.333 356.667 746 372 746 L372 746 Z M581 660 L512 214 L504 150 L494 191 L376 660 L148 660 L44 0 L193 0 L259 418 C263.667 441.333 267 466.667 269 494 L396 0 L627 0 L731 660 L581 660 Z " />
<glyph glyph-name="Ograve" unicode="&#xd2;" horiz-adv-x="766" d="M335 837 L391 705 L496 705 L456 837 L335 837 Z M433 675 C375.667 675 323.833 666 277.5 648 C231.167 630 192.167 604.167 160.5 570.5 C128.833 536.833 104.667 496.167 88 448.5 C71.3333 400.833 63 348.667 63 292 C63 240.667 69.8333 195.5 83.5 156.5 C97.1666 117.5 116.833 85.3333 142.5 60 C168.167 34.6667 199.833 15.8333 237.5 3.5 C275.167 -8.83333 317.667 -15 365 -15 C422.333 -15 474.333 -6 521 12 C567.667 30 607 55.6667 639 89 C671 122.333 695.333 162.5 712 209.5 C728.667 256.5 737 308.333 737 365 C737 415.667 730.167 460.667 716.5 500 C702.833 539.333 683 571.833 657 597.5 C631 623.167 599 642.5 561 655.5 C523 668.5 480.333 675 433 675 L433 675 Z M429 546 C480.333 546 518.167 531.333 542.5 502 C566.833 472.667 579 427 579 365 C579 287.667 560.833 226.833 524.5 182.5 C488.167 138.167 436.334 116 369 116 C317.667 116 280.334 130.167 257 158.5 C233.667 186.833 222 231.333 222 292 C222 340 228.167 380.5 240.5 413.5 C252.833 446.5 268.833 472.833 288.5 492.5 C308.167 512.167 330.333 526 355 534 C379.666 542 404.333 546 429 546 L429 546 Z " />
<glyph glyph-name="Oacute" unicode="&#xd3;" horiz-adv-x="766" d="M500 707 L562 839 L442 839 L397 707 L500 707 Z M433 675 C375.667 675 323.833 666 277.5 648 C231.167 630 192.167 604.167 160.5 570.5 C128.833 536.833 104.667 496.167 88 448.5 C71.3333 400.833 63 348.667 63 292 C63 240.667 69.8333 195.5 83.5 156.5 C97.1666 117.5 116.833 85.3333 142.5 60 C168.167 34.6667 199.833 15.8333 237.5 3.5 C275.167 -8.83333 317.667 -15 365 -15 C422.333 -15 474.333 -6 521 12 C567.667 30 607 55.6667 639 89 C671 122.333 695.333 162.5 712 209.5 C728.667 256.5 737 308.333 737 365 C737 415.667 730.167 460.667 716.5 500 C702.833 539.333 683 571.833 657 597.5 C631 623.167 599 642.5 561 655.5 C523 668.5 480.333 675 433 675 L433 675 Z M429 546 C480.333 546 518.167 531.333 542.5 502 C566.833 472.667 579 427 579 365 C579 287.667 560.833 226.833 524.5 182.5 C488.167 138.167 436.334 116 369 116 C317.667 116 280.334 130.167 257 158.5 C233.667 186.833 222 231.333 222 292 C222 340 228.167 380.5 240.5 413.5 C252.833 446.5 268.833 472.833 288.5 492.5 C308.167 512.167 330.333 526 355 534 C379.666 542 404.333 546 429 546 L429 546 Z " />
<glyph glyph-name="Ocircumflex" unicode="&#xd4;" horiz-adv-x="766" d="M456 777 L480 707 L590 707 L515 839 L413 839 L300 707 L412 707 L456 777 Z M433 675 C375.667 675 323.833 666 277.5 648 C231.167 630 192.167 604.167 160.5 570.5 C128.833 536.833 104.667 496.167 88 448.5 C71.3333 400.833 63 348.667 63 292 C63 240.667 69.8333 195.5 83.5 156.5 C97.1666 117.5 116.833 85.3333 142.5 60 C168.167 34.6667 199.833 15.8333 237.5 3.5 C275.167 -8.83333 317.667 -15 365 -15 C422.333 -15 474.333 -6 521 12 C567.667 30 607 55.6667 639 89 C671 122.333 695.333 162.5 712 209.5 C728.667 256.5 737 308.333 737 365 C737 415.667 730.167 460.667 716.5 500 C702.833 539.333 683 571.833 657 597.5 C631 623.167 599 642.5 561 655.5 C523 668.5 480.333 675 433 675 L433 675 Z M369 116 C317.667 116 280.334 130.167 257 158.5 C233.667 186.833 222 231.333 222 292 C222 340 228.167 380.5 240.5 413.5 C252.833 446.5 268.833 472.833 288.5 492.5 C308.167 512.167 330.333 526 355 534 C379.666 542 404.333 546 429 546 C480.333 546 518.167 531.333 542.5 502 C566.833 472.667 579 427 579 365 C579 287.667 560.833 226.833 524.5 182.5 C488.167 138.167 436.334 116 369 116 L369 116 Z " />
<glyph glyph-name="Otilde" unicode="&#xd5;" horiz-adv-x="766" d="M581 836 C561 817.333 547.167 806.5 539.5 803.5 C531.833 800.5 525 799 519 799 C505 799 480.333 805.5 445 818.5 C409.667 831.5 383.667 838 367 838 C337.667 838 303 818 263 778 L323 711 C345 734.333 363.667 746 379 746 C394.333 746 418.5 739.667 451.5 727 C484.5 714.333 508.667 708 524 708 C561.332 708 599.666 727.667 639 767 L581 836 Z M433 675 C375.667 675 323.833 666 277.5 648 C231.167 630 192.167 604.167 160.5 570.5 C128.833 536.833 104.667 496.167 88 448.5 C71.3333 400.833 63 348.667 63 292 C63 240.667 69.8333 195.5 83.5 156.5 C97.1666 117.5 116.833 85.3333 142.5 60 C168.167 34.6667 199.833 15.8333 237.5 3.5 C275.167 -8.83333 317.667 -15 365 -15 C422.333 -15 474.333 -6 521 12 C567.667 30 607 55.6667 639 89 C671 122.333 695.333 162.5 712 209.5 C728.667 256.5 737 308.333 737 365 C737 415.667 730.167 460.667 716.5 500 C702.833 539.333 683 571.833 657 597.5 C631 623.167 599 642.5 561 655.5 C523 668.5 480.333 675 433 675 L433 675 Z M429 546 C480.333 546 518.167 531.333 542.5 502 C566.833 472.667 579 427 579 365 C579 287.667 560.833 226.833 524.5 182.5 C488.167 138.167 436.334 116 369 116 C317.667 116 280.334 130.167 257 158.5 C233.667 186.833 222 231.333 222 292 C222 340 228.167 380.5 240.5 413.5 C252.833 446.5 268.833 472.833 288.5 492.5 C308.167 512.167 330.333 526 355 534 C379.666 542 404.333 546 429 546 L429 546 Z " />
<glyph glyph-name="Odieresis" unicode="&#xd6;" horiz-adv-x="766" d="M360 846 C338.667 846 319.834 838 303.5 822 C287.167 806 279 787 279 765 C279 746.333 285 731 297 719 C309 707 324.333 701 343 701 C359 701 374 705.333 388 714 C402 722.667 411.833 733.333 417.5 746 C423.167 758.667 426 770 426 780 C426 798.667 419.833 814.333 407.5 827 C395.167 839.667 379.334 846 360 846 L360 846 Z M564 846 C542 846 523 838 507 822 C491 806 483 787 483 765 C483 746.333 489 731 501 719 C513 707 528.333 701 547 701 C563 701 578 705.333 592 714 C606 722.667 615.833 733.333 621.5 746 C627.167 758.667 630 770 630 780 C630 798.667 623.833 814.333 611.5 827 C599.167 839.667 583.333 846 564 846 L564 846 Z M433 675 C375.667 675 323.833 666 277.5 648 C231.167 630 192.167 604.167 160.5 570.5 C128.833 536.833 104.667 496.167 88 448.5 C71.3333 400.833 63 348.667 63 292 C63 240.667 69.8333 195.5 83.5 156.5 C97.1666 117.5 116.833 85.3333 142.5 60 C168.167 34.6667 199.833 15.8333 237.5 3.5 C275.167 -8.83333 317.667 -15 365 -15 C422.333 -15 474.333 -6 521 12 C567.667 30 607 55.6667 639 89 C671 122.333 695.333 162.5 712 209.5 C728.667 256.5 737 308.333 737 365 C737 415.667 730.167 460.667 716.5 500 C702.833 539.333 683 571.833 657 597.5 C631 623.167 599 642.5 561 655.5 C523 668.5 480.333 675 433 675 L433 675 Z M429 546 C480.333 546 518.167 531.333 542.5 502 C566.833 472.667 579 427 579 365 C579 287.667 560.833 226.833 524.5 182.5 C488.167 138.167 436.334 116 369 116 C317.667 116 280.334 130.167 257 158.5 C233.667 186.833 222 231.333 222 292 C222 340 228.167 380.5 240.5 413.5 C252.833 446.5 268.833 472.833 288.5 492.5 C308.167 512.167 330.333 526 355 534 C379.666 542 404.333 546 429 546 L429 546 Z " />
<glyph glyph-name="multiply" unicode="&#xd7;" horiz-adv-x="445" d="M416 91 L289 222 L413 346 L338 422 L215 299 L90 430 L12 353 L138 222 L9 93 L83 17 L212 146 L338 16 L416 91 Z " />
<glyph glyph-name="Oslash" unicode="&#xd8;" horiz-adv-x="809" d="M806 618 L743 688 L661 612 C609.667 652 544.667 672 466 672 C355.333 672 267.667 644 203 588 C138.333 532 98.6667 448.667 84 338 C78 296 78.3333 255.667 85 217 C91.6667 178.333 103.667 144 121 114 L41 40 L104 -30 L184 44 C234 6.66667 296.667 -12 372 -12 C430 -12 481.667 -5.33333 527 8 C572.333 21.3333 610.833 41.5 642.5 68.5 C674.167 95.5 699.667 129.5 719 170.5 C738.331 211.5 751.664 259.333 759 314 C771 404.667 759 480.667 723 542 L806 618 Z M242 318 C246.667 363.333 255.333 400.333 268 429 C280.667 457.666 295.5 479.832 312.5 495.5 C329.5 511.167 349 523 371 531 C393 539 418 543 446 543 C490.666 543 525.666 532.333 551 511 L245 228 C239.667 253.333 238.667 283.333 242 318 L242 318 Z M603 349 C598.333 297.667 589 255.667 575 223 C561 190.333 539.5 164.833 510.5 146.5 C481.5 128.167 440.667 119 388 119 C369.333 119 351.833 121.5 335.5 126.5 C319.167 131.5 305.667 138 295 146 L599 427 C604.315 405.667 605.648 379.667 603 349 L603 349 Z " />
<glyph glyph-name="Ugrave" unicode="&#xd9;" horiz-adv-x="725" d="M321 837 L377 705 L482 705 L442 837 L321 837 Z M710 660 L561 660 L493 234 C487.667 199.334 479.167 174.667 467.5 160 C455.833 145.333 440.5 135.333 421.5 130 C402.5 124.667 376.333 122 343 122 C298.333 122 267.667 131 251 149 C234.333 167 229.333 197 236 239 L303 660 L152 660 L81 206 C75 166.667 76.3333 132.833 85 104.5 C93.6667 76.1667 109 53.5 131 36.5 C153 19.5 181.167 7.16667 215.5 -0.5 C249.833 -8.16667 290.333 -12 337 -12 C398.333 -12 449.167 -5.66667 489.5 7 C529.832 19.6667 562.666 40.1667 588 68.5 C613.333 96.8333 630 137.333 638 190 L710 660 Z " />
<glyph glyph-name="Uacute" unicode="&#xda;" horiz-adv-x="725" d="M486 707 L548 839 L428 839 L383 707 L486 707 Z M710 660 L561 660 L493 234 C487.667 199.334 479.167 174.667 467.5 160 C455.833 145.333 440.5 135.333 421.5 130 C402.5 124.667 376.333 122 343 122 C298.333 122 267.667 131 251 149 C234.333 167 229.333 197 236 239 L303 660 L152 660 L81 206 C75 166.667 76.3333 132.833 85 104.5 C93.6667 76.1667 109 53.5 131 36.5 C153 19.5 181.167 7.16667 215.5 -0.5 C249.833 -8.16667 290.333 -12 337 -12 C398.333 -12 449.167 -5.66667 489.5 7 C529.832 19.6667 562.666 40.1667 588 68.5 C613.333 96.8333 630 137.333 638 190 L710 660 Z " />
<glyph glyph-name="Ucircumflex" unicode="&#xdb;" horiz-adv-x="725" d="M442 777 L466 707 L576 707 L501 839 L399 839 L286 707 L398 707 L442 777 Z M561 660 L493 234 C487.667 199.334 479.167 174.667 467.5 160 C455.833 145.333 440.5 135.333 421.5 130 C402.5 124.667 376.333 122 343 122 C298.333 122 267.667 131 251 149 C234.333 167 229.333 197 236 239 L303 660 L152 660 L81 206 C75 166.667 76.3333 132.833 85 104.5 C93.6667 76.1667 109 53.5 131 36.5 C153 19.5 181.167 7.16667 215.5 -0.5 C249.833 -8.16667 290.333 -12 337 -12 C398.333 -12 449.167 -5.66667 489.5 7 C529.832 19.6667 562.666 40.1667 588 68.5 C613.333 96.8333 630 137.333 638 190 L710 660 L561 660 Z " />
<glyph glyph-name="Udieresis" unicode="&#xdc;" horiz-adv-x="725" d="M346 846 C324.667 846 305.834 838 289.5 822 C273.167 806 265 787 265 765 C265 746.333 271 731 283 719 C295 707 310.333 701 329 701 C345 701 360 705.333 374 714 C388 722.667 397.833 733.333 403.5 746 C409.167 758.667 412 770 412 780 C412 798.667 405.833 814.333 393.5 827 C381.167 839.667 365.334 846 346 846 L346 846 Z M550 846 C528 846 509 838 493 822 C477 806 469 787 469 765 C469 746.333 475 731 487 719 C499 707 514.333 701 533 701 C549 701 564 705.333 578 714 C592 722.667 601.833 733.333 607.5 746 C613.167 758.667 616 770 616 780 C616 798.667 609.833 814.333 597.5 827 C585.167 839.667 569.333 846 550 846 L550 846 Z M710 660 L561 660 L493 234 C487.667 199.334 479.167 174.667 467.5 160 C455.833 145.333 440.5 135.333 421.5 130 C402.5 124.667 376.333 122 343 122 C298.333 122 267.667 131 251 149 C234.333 167 229.333 197 236 239 L303 660 L152 660 L81 206 C75 166.667 76.3333 132.833 85 104.5 C93.6667 76.1667 109 53.5 131 36.5 C153 19.5 181.167 7.16667 215.5 -0.5 C249.833 -8.16667 290.333 -12 337 -12 C398.333 -12 449.167 -5.66667 489.5 7 C529.832 19.6667 562.666 40.1667 588 68.5 C613.333 96.8333 630 137.333 638 190 L710 660 Z " />
<glyph glyph-name="Yacute" unicode="&#xdd;" horiz-adv-x="621" d="M487 839 L367 839 L322 707 L425 707 L487 839 Z M519 660 L367 459 L331 413 L312 459 L229 660 L71 660 L238 278 L194 0 L346 0 L391 280 L690 660 L519 660 Z " />
<glyph glyph-name="Thorn" unicode="&#xde;" horiz-adv-x="543" d="M342 555 L278 555 L295 660 L152 660 L48 0 L190 0 L210 125 L285 123 C315 123 340.667 125.5 362 130.5 C383.333 135.5 403.5 143.5 422.5 154.5 C441.5 165.5 458.667 180.833 474 200.5 C489.333 220.167 501 243.167 509 269.5 C517 295.833 522 323 524 351 C528.667 418.333 516.5 469.167 487.5 503.5 C458.5 537.833 410 555 342 555 L342 555 Z M388 337 C383.333 307 372.5 284.333 355.5 269 C338.5 253.667 311.667 246 275 246 L229 247 L259 432 L306 432 C336.666 432 359.333 424.667 374 410 C388.664 395.333 393.33 371 388 337 L388 337 Z " />
<glyph glyph-name="germandbls" unicode="&#xdf;" horiz-adv-x="559" d="M575 518 C575 546.667 567.667 571 553 591 C538.333 611 521.833 626.167 503.5 636.5 C485.167 646.833 464.5 655 441.5 661 C418.5 667 391.667 670 361 670 C293 670 239.167 653.667 199.5 621 C159.833 588.334 135.333 541.668 126 481 L121 446 L52 446 L34 331 L102 331 L50 0 L187 0 L259 456 C263.667 487.333 274.167 510.833 290.5 526.5 C306.833 542.167 327.667 550 353 550 C375 550 392.333 544.5 405 533.5 C417.667 522.5 424 509.333 424 494 C424 486 422.167 477.667 418.5 469 C414.833 460.333 409.167 450.833 401.5 440.5 C393.833 430.167 377.167 411.667 351.5 385 C325.833 358.333 308.667 337 300 321 C291.333 305 287 290 287 276 C287 265.333 289.833 254.167 295.5 242.5 C301.165 230.833 311.832 216.667 327.5 200 C343.165 183.333 353.332 171.833 358 165.5 C362.665 159.167 365.832 153.5 367.5 148.5 C369.167 143.5 370 139 370 135 C370 117.667 356 109 328 109 C315.333 109 294 111.667 264 117 L245 3 C285 -5.66667 319.333 -10 348 -10 C379.333 -10 405.833 -4.83333 427.5 5.5 C449.167 15.8333 466.167 27.8333 478.5 41.5 C490.833 55.1667 499.5 69.1667 504.5 83.5 C509.5 97.8333 512 111 512 123 C512 134.333 510.333 144.833 507 154.5 C503.671 164.167 499.337 173.833 494 183.5 C488.667 193.167 483.5 200.833 478.5 206.5 C473.5 212.167 463.667 223.5 449 240.5 C434.333 257.5 427 270.333 427 279 C427 283.667 429.5 290.167 434.5 298.5 C439.5 306.833 456.833 326 486.5 356 C516.167 386 538.333 413.833 553 439.5 C567.667 465.166 575 491.333 575 518 L575 518 Z " />
<glyph glyph-name="agrave" unicode="&#xe0;" horiz-adv-x="520" d="M384 520 L341 659 L220 659 L279 520 L384 520 Z M332 455 C284.667 455 241.667 447.833 203 433.5 C164.333 419.167 131.667 398.667 105 372 C78.3333 345.333 58 312.5 44 273.5 C30 234.5 23 191.333 23 144 C23 40 69 -12 161 -12 C213.667 -12 259.333 9.66667 298 53 L289 0 L422 0 L492 440 C438 450 384.667 455 332 455 L332 455 Z M211 99 C175.667 99 158 119.333 158 160 C158 212.667 171.833 255.5 199.5 288.5 C227.167 321.5 263 338 307 338 L339 337 L307 143 C275.667 113.667 243.667 99 211 99 L211 99 Z " />
<glyph glyph-name="aacute" unicode="&#xe1;" horiz-adv-x="520" d="M450 659 L330 659 L282 520 L385 520 L450 659 Z M332 455 C284.667 455 241.667 447.833 203 433.5 C164.333 419.167 131.667 398.667 105 372 C78.3333 345.333 58 312.5 44 273.5 C30 234.5 23 191.333 23 144 C23 40 69 -12 161 -12 C213.667 -12 259.333 9.66667 298 53 L289 0 L422 0 L492 440 C438 450 384.667 455 332 455 L332 455 Z M211 99 C175.667 99 158 119.333 158 160 C158 212.667 171.833 255.5 199.5 288.5 C227.167 321.5 263 338 307 338 L339 337 L307 143 C275.667 113.667 243.667 99 211 99 L211 99 Z " />
<glyph glyph-name="acircumflex" unicode="&#xe2;" horiz-adv-x="520" d="M339 590 L389 514 L499 514 L407 659 L282 659 L171 514 L284 514 L339 590 Z M23 144 C23 40 69 -12 161 -12 C213.667 -12 259.333 9.66667 298 53 L289 0 L422 0 L492 440 C438 450 384.667 455 332 455 C284.667 455 241.667 447.833 203 433.5 C164.333 419.167 131.667 398.667 105 372 C78.3333 345.333 58 312.5 44 273.5 C30 234.5 23 191.333 23 144 L23 144 Z M211 99 C175.667 99 158 119.333 158 160 C158 212.667 171.833 255.5 199.5 288.5 C227.167 321.5 263 338 307 338 L339 337 L307 143 C275.667 113.667 243.667 99 211 99 L211 99 Z " />
<glyph glyph-name="atilde" unicode="&#xe3;" horiz-adv-x="520" d="M276 552 C291.333 552 315.5 545.667 348.5 533 C381.5 520.333 405.667 514 421 514 C458.333 514 496.667 533.667 536 573 L478 642 C458 623.333 444.167 612.5 436.5 609.5 C428.833 606.5 422 605 416 605 C402 605 377.333 611.5 342 624.5 C306.667 637.5 280.667 644 264 644 C234.667 644 200 624 160 584 L220 517 C242 540.333 260.667 552 276 552 L276 552 Z M23 144 C23 40 69 -12 161 -12 C213.667 -12 259.333 9.66667 298 53 L289 0 L422 0 L492 440 C438 450 384.667 455 332 455 C284.667 455 241.667 447.833 203 433.5 C164.333 419.167 131.667 398.667 105 372 C78.3333 345.333 58 312.5 44 273.5 C30 234.5 23 191.333 23 144 L23 144 Z M211 99 C175.667 99 158 119.333 158 160 C158 212.667 171.833 255.5 199.5 288.5 C227.167 321.5 263 338 307 338 L339 337 L307 143 C275.667 113.667 243.667 99 211 99 L211 99 Z " />
<glyph glyph-name="adieresis" unicode="&#xe4;" horiz-adv-x="520" d="M226 516 C242 516 257 520.5 271 529.5 C285 538.5 294.833 549.333 300.5 562 C306.167 574.667 309 586.333 309 597 C309 615.667 302.833 631.333 290.5 644 C278.167 656.667 262.334 663 243 663 C221 663 201.667 655 185 639 C168.333 623 160 603.667 160 581 C160 562.333 166 546.833 178 534.5 C190 522.167 206 516 226 516 L226 516 Z M462 663 C439.333 663 420 654.833 404 638.5 C388 622.167 380 603 380 581 C380 562.333 386 546.833 398 534.5 C410 522.167 425.667 516 445 516 C461 516 476.167 520.5 490.5 529.5 C504.833 538.5 514.833 549.333 520.5 562 C526.167 574.667 529 586.333 529 597 C529 615.667 522.667 631.333 510 644 C497.333 656.667 481.333 663 462 663 L462 663 Z M23 144 C23 40 69 -12 161 -12 C213.667 -12 259.333 9.66667 298 53 L289 0 L422 0 L492 440 C438 450 384.667 455 332 455 C284.667 455 241.667 447.833 203 433.5 C164.333 419.167 131.667 398.667 105 372 C78.3333 345.333 58 312.5 44 273.5 C30 234.5 23 191.333 23 144 L23 144 Z M211 99 C175.667 99 158 119.333 158 160 C158 212.667 171.833 255.5 199.5 288.5 C227.167 321.5 263 338 307 338 L339 337 L307 143 C275.667 113.667 243.667 99 211 99 L211 99 Z " />
<glyph glyph-name="aring" unicode="&#xe5;" horiz-adv-x="520" d="M332 501 C353.333 501 373 506.5 391 517.5 C409 528.5 423.167 542.333 433.5 559 C443.833 575.667 450 594.333 452 615 C453.333 635 449.167 653.5 439.5 670.5 C429.833 687.5 417.5 699.5 402.5 706.5 C387.5 713.5 373.667 717 361 717 C335 717 311.333 710 290 696 C268.667 682 254.167 665.5 246.5 646.5 C238.833 627.5 235 610.333 235 595 C235 583 238.333 569.5 245 554.5 C251.667 539.5 263 526.833 279 516.5 C295 506.167 312.667 501 332 501 L332 501 Z M348 654 C359.333 654 369.333 650.167 378 642.5 C386.667 634.833 391 625.333 391 614 C391 599.333 386 587 376 577 C366 567 354.667 562 342 562 C330 562 319.667 566 311 574 C302.333 582 298 591.667 298 603 C298 617 303 629 313 639 C323 649 334.667 654 348 654 L348 654 Z M332 455 C284.667 455 241.667 447.833 203 433.5 C164.333 419.167 131.667 398.667 105 372 C78.3333 345.333 58 312.5 44 273.5 C30 234.5 23 191.333 23 144 C23 40 69 -12 161 -12 C213.667 -12 259.333 9.66667 298 53 L289 0 L422 0 L492 440 C438 450 384.667 455 332 455 L332 455 Z M211 99 C175.667 99 158 119.333 158 160 C158 212.667 171.833 255.5 199.5 288.5 C227.167 321.5 263 338 307 338 L339 337 L307 143 C275.667 113.667 243.667 99 211 99 L211 99 Z " />
<glyph glyph-name="ae" unicode="&#xe6;" horiz-adv-x="764" d="M725 181 C730.333 209.667 733 243.333 733 282 C733 338.667 718.167 381.667 688.5 411 C658.833 440.333 615 455 557 455 C528.333 455 502.667 450.167 480 440.5 C457.333 430.833 439.333 417 426 399 L433 441 C417.667 444.333 398.334 447.333 375 450 C351.667 452.667 331.334 454 314 454 C271.333 454 232 446.667 196 432 C160 417.333 129.167 396.5 103.5 369.5 C77.8333 342.5 58.1667 310.333 44.5 273 C30.8333 235.667 24 195.667 24 153 C24 43.6667 69 -11 159 -11 C194.333 -11 228.667 -3 262 13 C295.333 29 322.667 49.6667 344 75 C368 17.6667 421.333 -11 504 -11 C566 -11 630.667 -3 698 13 L682 114 C626 100 574.667 93 528 93 C495.333 93 472.833 99.3333 460.5 112 C448.167 124.667 442 146.333 442 177 L442 181 L725 181 Z M545 353 C565 353 580.667 347.333 592 336 C603.333 324.667 609 308.334 609 287 L607 269 L455 269 C460.333 286.333 467.667 301.833 477 315.5 C486.333 329.165 497.167 338.832 509.5 344.5 C521.832 350.167 533.666 353 545 353 L545 353 Z M216 100 C196 100 181.5 105.667 172.5 117 C163.5 128.333 159 146 159 170 C159 204.667 166 235.167 180 261.5 C194 287.833 212.333 308 235 322 C257.666 336 284.333 343 315 343 C326.333 343 338 342 350 340 L323 157 C287.667 119 252 100 216 100 L216 100 Z " />
<glyph glyph-name="ccedilla" unicode="&#xe7;" horiz-adv-x="407" d="M292 343 C324 343 358.667 339.667 396 333 L416 445 C374.667 453.667 335 458 297 458 C259 458 225.667 452.667 197 442 C168.333 431.333 144.167 418.167 124.5 402.5 C104.833 386.833 87.6667 368 73 346 C58.3334 324 47.1667 298.667 39.5 270 C31.8333 241.333 28 210.667 28 178 C28 136 35 101.333 49 74 C63 46.6667 80.5 27 101.5 15 C122.5 3 143.667 -5 165 -9 L164 -21 C162.667 -37 164.5 -49.1667 169.5 -57.5 C174.5 -65.8333 181.667 -73 191 -79 C192.333 -79.6667 195.166 -81.5 199.5 -84.5 C203.833 -87.5 207.333 -90 210 -92 C212.667 -94 215.167 -96.1667 217.5 -98.5 C219.833 -100.833 221.5 -103.333 222.5 -106 C223.5 -108.667 224 -111 224 -113 C222.667 -121 218.333 -127 211 -131 C203.667 -135 190.333 -137 171 -137 L147 -135 L135 -211 C145 -213 158.667 -214 176 -214 C217.333 -214 248.833 -206.333 270.5 -191 C292.166 -175.667 305.332 -151.333 310 -118 C312 -99.3333 309.5 -84.5 302.5 -73.5 C295.5 -62.5 283.667 -51 267 -39 C257.668 -32.3333 252.001 -23.3333 250 -12 C283.333 -10.6667 318.333 -7.66667 355 -3 L347 110 C319 105.333 288 103 254 103 C230.667 103 212.5 106.167 199.5 112.5 C186.5 118.833 177 128.5 171 141.5 C165 154.5 162 172.667 162 196 C162 224.667 169.333 251.5 184 276.5 C198.667 301.5 216 318.833 236 328.5 C256 338.167 274.667 343 292 343 L292 343 Z " />
<glyph glyph-name="egrave" unicode="&#xe8;" horiz-adv-x="480" d="M338 521 L295 660 L174 660 L233 521 L338 521 Z M445 181 C450.333 209.667 453 243.333 453 282 C453 338.667 438.167 381.667 408.5 411 C378.833 440.333 335 455 277 455 C241 455 207.5 448.333 176.5 435 C145.5 421.667 119 402.5 97 377.5 C75 352.5 58 322.833 46 288.5 C34 254.167 28 216.667 28 176 C28 115.333 44.8333 69 78.5 37 C112.167 5 161 -11 225 -11 C286.333 -11 350.667 -3 418 13 L402 114 C346 100 294.667 93 248 93 C215.333 93 192.833 99.3333 180.5 112 C168.167 124.667 162 146.333 162 177 L162 181 L445 181 Z M265 353 C285 353 300.667 347.333 312 336 C323.333 324.667 329 308.334 329 287 L327 269 L175 269 C180.333 286.333 187.666 301.833 197 315.5 C206.333 329.165 217.166 338.832 229.5 344.5 C241.833 350.167 253.666 353 265 353 L265 353 Z " />
<glyph glyph-name="eacute" unicode="&#xe9;" horiz-adv-x="480" d="M404 660 L284 660 L236 521 L339 521 L404 660 Z M445 181 C450.333 209.667 453 243.333 453 282 C453 338.667 438.167 381.667 408.5 411 C378.833 440.333 335 455 277 455 C241 455 207.5 448.333 176.5 435 C145.5 421.667 119 402.5 97 377.5 C75 352.5 58 322.833 46 288.5 C34 254.167 28 216.667 28 176 C28 115.333 44.8333 69 78.5 37 C112.167 5 161 -11 225 -11 C286.333 -11 350.667 -3 418 13 L402 114 C346 100 294.667 93 248 93 C215.333 93 192.833 99.3333 180.5 112 C168.167 124.667 162 146.333 162 177 L162 181 L445 181 Z M265 353 C285 353 300.667 347.333 312 336 C323.333 324.667 329 308.334 329 287 L327 269 L175 269 C180.333 286.333 187.666 301.833 197 315.5 C206.333 329.165 217.166 338.832 229.5 344.5 C241.833 350.167 253.666 353 265 353 L265 353 Z " />
<glyph glyph-name="ecircumflex" unicode="&#xea;" horiz-adv-x="480" d="M293 591 L343 515 L453 515 L361 660 L236 660 L125 515 L238 515 L293 591 Z M277 455 C241 455 207.5 448.333 176.5 435 C145.5 421.667 119 402.5 97 377.5 C75 352.5 58 322.833 46 288.5 C34 254.167 28 216.667 28 176 C28 115.333 44.8333 69 78.5 37 C112.167 5 161 -11 225 -11 C286.333 -11 350.667 -3 418 13 L402 114 C346 100 294.667 93 248 93 C215.333 93 192.833 99.3333 180.5 112 C168.167 124.667 162 146.333 162 177 L162 181 L445 181 C450.333 209.667 453 243.333 453 282 C453 338.667 438.167 381.667 408.5 411 C378.833 440.333 335 455 277 455 L277 455 Z M265 353 C285 353 300.667 347.333 312 336 C323.333 324.667 329 308.334 329 287 L327 269 L175 269 C180.333 286.333 187.666 301.833 197 315.5 C206.333 329.165 217.166 338.832 229.5 344.5 C241.833 350.167 253.666 353 265 353 L265 353 Z " />
<glyph glyph-name="edieresis" unicode="&#xeb;" horiz-adv-x="480" d="M180 517 C196 517 211 521.5 225 530.5 C239 539.5 248.833 550.333 254.5 563 C260.167 575.667 263 587.333 263 598 C263 616.667 256.833 632.333 244.5 645 C232.167 657.667 216.333 664 197 664 C175 664 155.667 656 139 640 C122.333 624 114 604.667 114 582 C114 563.333 120 547.833 132 535.5 C144 523.167 160 517 180 517 L180 517 Z M416 664 C393.333 664 374 655.833 358 639.5 C342 623.167 334 604 334 582 C334 563.333 340 547.833 352 535.5 C364 523.167 379.667 517 399 517 C415 517 430.167 521.5 444.5 530.5 C458.833 539.5 468.833 550.333 474.5 563 C480.167 575.667 483 587.333 483 598 C483 616.667 476.667 632.333 464 645 C451.333 657.667 435.333 664 416 664 L416 664 Z M277 455 C241 455 207.5 448.333 176.5 435 C145.5 421.667 119 402.5 97 377.5 C75 352.5 58 322.833 46 288.5 C34 254.167 28 216.667 28 176 C28 115.333 44.8333 69 78.5 37 C112.167 5 161 -11 225 -11 C286.333 -11 350.667 -3 418 13 L402 114 C346 100 294.667 93 248 93 C215.333 93 192.833 99.3333 180.5 112 C168.167 124.667 162 146.333 162 177 L162 181 L445 181 C450.333 209.667 453 243.333 453 282 C453 338.667 438.167 381.667 408.5 411 C378.833 440.333 335 455 277 455 L277 455 Z M265 353 C285 353 300.667 347.333 312 336 C323.333 324.667 329 308.334 329 287 L327 269 L175 269 C180.333 286.333 187.666 301.833 197 315.5 C206.333 329.165 217.166 338.832 229.5 344.5 C241.833 350.167 253.666 353 265 353 L265 353 Z " />
<glyph glyph-name="igrave" unicode="&#xec;" horiz-adv-x="266" d="M62 660 L121 521 L226 521 L183 660 L62 660 Z M238 446 L99 446 L29 0 L168 0 L238 446 Z " />
<glyph glyph-name="iacute" unicode="&#xed;" horiz-adv-x="266" d="M227 521 L292 660 L172 660 L124 521 L227 521 Z M238 446 L99 446 L29 0 L168 0 L238 446 Z " />
<glyph glyph-name="icircumflex" unicode="&#xee;" horiz-adv-x="543" d="M265 598 C265 616 258.833 631.5 246.5 644.5 C234.167 657.5 218.667 664 200 664 C178.667 664 159.333 655.667 142 639 C124.667 622.333 116 603 116 581 C116 563.667 122.167 548.667 134.5 536 C146.833 523.333 161.667 517 179 517 C201.667 517 221.667 525.167 239 541.5 C256.333 557.831 265 576.664 265 598 L265 598 Z M540 598 C540 616 533.833 631.5 521.5 644.5 C509.167 657.5 493.667 664 475 664 C453.668 664 434.334 655.667 417 639 C399.667 622.333 391 603 391 581 C391 563.667 397.167 548.667 409.5 536 C421.833 523.333 436.667 517 454 517 C476.667 517 496.667 525.167 514 541.5 C531.333 557.831 540 576.664 540 598 L540 598 Z M238 446 L99 446 L29 0 L168 0 L238 446 Z M512 446 L372 446 L304 14 C301.333 -9.33333 293 -32 279 -54 C265 -76 239 -107.667 201 -149 L297 -249 C346.333 -202.333 381.167 -160.667 401.5 -124 C421.833 -87.3333 436.333 -39.6667 445 19 L512 446 Z " />
<glyph glyph-name="idieresis" unicode="&#xef;" horiz-adv-x="266" d="M85 664 C63 664 43.6667 656 27 640 C10.3333 624 2 604.667 2 582 C2 563.333 8 547.833 20 535.5 C32 523.167 48 517 68 517 C84 517 99 521.5 113 530.5 C127 539.5 136.833 550.333 142.5 563 C148.167 575.667 151 587.333 151 598 C151 616.667 144.833 632.333 132.5 645 C120.167 657.667 104.333 664 85 664 L85 664 Z M304 664 C281.333 664 262 655.833 246 639.5 C230 623.167 222 604 222 582 C222 563.333 228 547.833 240 535.5 C252 523.167 267.667 517 287 517 C303 517 318.167 521.5 332.5 530.5 C346.833 539.5 356.833 550.333 362.5 563 C368.167 575.667 371 587.333 371 598 C371 616.667 364.667 632.333 352 645 C339.333 657.667 323.333 664 304 664 L304 664 Z M238 446 L99 446 L29 0 L168 0 L238 446 Z " />
<glyph glyph-name="eth" unicode="&#xf0;" horiz-adv-x="495" d="M524 552 L495 625 L401 587 C392.333 608.333 378 637 358 673 L242 621 C256.667 589 268.667 561.667 278 539 L174 497 L201 426 L305 467 C317.667 428.333 325.667 387.333 329 344 C309.667 355.333 287.334 364.667 262 372 C236.667 379.333 214 383 194 383 C169.333 383 146.333 378 125 368 C103.667 358 85.5 344.167 70.5 326.5 C55.5 308.833 44 288.167 36 264.5 C28 240.833 24 215.667 24 189 C24 159.667 28.8333 132.667 38.5 108 C48.1667 83.3333 62 62.1667 80 44.5 C98 26.8333 119.333 13.3333 144 4 C168.667 -5.33333 195.333 -10 224 -10 C259.333 -10 292 -2.83333 322 11.5 C352 25.8333 377.667 46.6667 399 74 C420.333 101.333 436.833 134.833 448.5 174.5 C460.167 214.167 466 258 466 306 C466 338.667 462.833 373.5 456.5 410.5 C450.168 447.5 441.335 482.333 430 515 L524 552 Z M230 100 C208 100 190.667 108 178 124 C165.333 140 159 161.667 159 189 C159 218.333 165.833 242.166 179.5 260.5 C193.167 278.833 212 288.333 236 289 C261.333 289 292.333 279.667 329 261 C325 208.333 314.5 168.333 297.5 141 C280.5 113.667 258 100 230 100 L230 100 Z " />
<glyph glyph-name="ntilde" unicode="&#xf1;" horiz-adv-x="536" d="M253 553 C268.333 553 292.5 546.667 325.5 534 C358.5 521.333 382.667 515 398 515 C435.333 515 473.667 534.667 513 574 L455 643 C435 624.333 421.167 613.5 413.5 610.5 C405.833 607.5 399 606 393 606 C379 606 354.333 612.5 319 625.5 C283.667 638.5 257.667 645 241 645 C211.667 645 177 625 137 585 L197 518 C219 541.333 237.667 553 253 553 L253 553 Z M376 457 C312.667 457 261 435.333 221 392 L229 446 L99 446 L28 0 L165 0 L213 304 C239.667 330 268.333 343 299 343 C335.667 343 351.667 326.667 347 294 L300 0 L438 0 L493 347 C497 373 493.5 394.667 482.5 412 C471.5 429.333 455.833 441.167 435.5 447.5 C415.167 453.833 395.334 457 376 457 L376 457 Z " />
<glyph glyph-name="ograve" unicode="&#xf2;" horiz-adv-x="524" d="M188 660 L247 521 L352 521 L309 660 L188 660 Z M293 455 C254.333 455 220.5 449.333 191.5 438 C162.5 426.667 138.5 413.167 119.5 397.5 C100.5 381.833 84.1667 363.5 70.5 342.5 C56.8333 321.5 46.5 297.833 39.5 271.5 C32.5 245.167 29 217.667 29 189 C29 123.667 46.5 74.1667 81.5 40.5 C116.5 6.83333 167.333 -10 234 -10 C274 -10 310.5 -3.83333 343.5 8.5 C376.5 20.8333 404.167 38.5 426.5 61.5 C448.833 84.5 465.833 112.167 477.5 144.5 C489.167 176.833 495 212 495 250 C495 317.333 477.333 368.333 442 403 C406.667 437.667 357 455 293 455 L293 455 Z M246 101 C190.667 101 163 134.333 163 201 C163 243 173.5 277.333 194.5 304 C215.5 330.667 243.333 344 278 344 C331.333 344 358 310 358 242 C358 200.667 348.333 166.833 329 140.5 C309.667 114.167 282 101 246 101 L246 101 Z " />
<glyph glyph-name="oacute" unicode="&#xf3;" horiz-adv-x="524" d="M353 521 L418 660 L298 660 L250 521 L353 521 Z M293 455 C254.333 455 220.5 449.333 191.5 438 C162.5 426.667 138.5 413.167 119.5 397.5 C100.5 381.833 84.1667 363.5 70.5 342.5 C56.8333 321.5 46.5 297.833 39.5 271.5 C32.5 245.167 29 217.667 29 189 C29 123.667 46.5 74.1667 81.5 40.5 C116.5 6.83333 167.333 -10 234 -10 C274 -10 310.5 -3.83333 343.5 8.5 C376.5 20.8333 404.167 38.5 426.5 61.5 C448.833 84.5 465.833 112.167 477.5 144.5 C489.167 176.833 495 212 495 250 C495 317.333 477.333 368.333 442 403 C406.667 437.667 357 455 293 455 L293 455 Z M246 101 C190.667 101 163 134.333 163 201 C163 243 173.5 277.333 194.5 304 C215.5 330.667 243.333 344 278 344 C331.333 344 358 310 358 242 C358 200.667 348.333 166.833 329 140.5 C309.667 114.167 282 101 246 101 L246 101 Z " />
<glyph glyph-name="ocircumflex" unicode="&#xf4;" horiz-adv-x="524" d="M307 591 L357 515 L467 515 L375 660 L250 660 L139 515 L252 515 L307 591 Z M293 455 C254.333 455 220.5 449.333 191.5 438 C162.5 426.667 138.5 413.167 119.5 397.5 C100.5 381.833 84.1667 363.5 70.5 342.5 C56.8333 321.5 46.5 297.833 39.5 271.5 C32.5 245.167 29 217.667 29 189 C29 123.667 46.5 74.1667 81.5 40.5 C116.5 6.83333 167.333 -10 234 -10 C274 -10 310.5 -3.83333 343.5 8.5 C376.5 20.8333 404.167 38.5 426.5 61.5 C448.833 84.5 465.833 112.167 477.5 144.5 C489.167 176.833 495 212 495 250 C495 317.333 477.333 368.333 442 403 C406.667 437.667 357 455 293 455 L293 455 Z M246 101 C190.667 101 163 134.333 163 201 C163 243 173.5 277.333 194.5 304 C215.5 330.667 243.333 344 278 344 C331.333 344 358 310 358 242 C358 200.667 348.333 166.833 329 140.5 C309.667 114.167 282 101 246 101 L246 101 Z " />
<glyph glyph-name="otilde" unicode="&#xf5;" horiz-adv-x="524" d="M446 643 C426 624.333 412.167 613.5 404.5 610.5 C396.833 607.5 390 606 384 606 C370 606 345.333 612.5 310 625.5 C274.667 638.5 248.667 645 232 645 C202.667 645 168 625 128 585 L188 518 C210 541.333 228.667 553 244 553 C259.333 553 283.5 546.667 316.5 534 C349.5 521.333 373.667 515 389 515 C426.333 515 464.667 534.667 504 574 L446 643 Z M293 455 C254.333 455 220.5 449.333 191.5 438 C162.5 426.667 138.5 413.167 119.5 397.5 C100.5 381.833 84.1667 363.5 70.5 342.5 C56.8333 321.5 46.5 297.833 39.5 271.5 C32.5 245.167 29 217.667 29 189 C29 123.667 46.5 74.1667 81.5 40.5 C116.5 6.83333 167.333 -10 234 -10 C274 -10 310.5 -3.83333 343.5 8.5 C376.5 20.8333 404.167 38.5 426.5 61.5 C448.833 84.5 465.833 112.167 477.5 144.5 C489.167 176.833 495 212 495 250 C495 317.333 477.333 368.333 442 403 C406.667 437.667 357 455 293 455 L293 455 Z M246 101 C190.667 101 163 134.333 163 201 C163 243 173.5 277.333 194.5 304 C215.5 330.667 243.333 344 278 344 C331.333 344 358 310 358 242 C358 200.667 348.333 166.833 329 140.5 C309.667 114.167 282 101 246 101 L246 101 Z " />
<glyph glyph-name="odieresis" unicode="&#xf6;" horiz-adv-x="524" d="M211 664 C189 664 169.667 656 153 640 C136.333 624 128 604.667 128 582 C128 563.333 134 547.833 146 535.5 C158 523.167 174 517 194 517 C210 517 225 521.5 239 530.5 C253 539.5 262.833 550.333 268.5 563 C274.167 575.667 277 587.333 277 598 C277 616.667 270.833 632.333 258.5 645 C246.167 657.667 230.333 664 211 664 L211 664 Z M430 664 C407.333 664 388 655.833 372 639.5 C356 623.167 348 604 348 582 C348 563.333 354 547.833 366 535.5 C378 523.167 393.667 517 413 517 C429 517 444.167 521.5 458.5 530.5 C472.833 539.5 482.833 550.333 488.5 563 C494.167 575.667 497 587.333 497 598 C497 616.667 490.667 632.333 478 645 C465.333 657.667 449.333 664 430 664 L430 664 Z M293 455 C254.333 455 220.5 449.333 191.5 438 C162.5 426.667 138.5 413.167 119.5 397.5 C100.5 381.833 84.1667 363.5 70.5 342.5 C56.8333 321.5 46.5 297.833 39.5 271.5 C32.5 245.167 29 217.667 29 189 C29 123.667 46.5 74.1667 81.5 40.5 C116.5 6.83333 167.333 -10 234 -10 C274 -10 310.5 -3.83333 343.5 8.5 C376.5 20.8333 404.167 38.5 426.5 61.5 C448.833 84.5 465.833 112.167 477.5 144.5 C489.167 176.833 495 212 495 250 C495 317.333 477.333 368.333 442 403 C406.667 437.667 357 455 293 455 L293 455 Z M246 101 C190.667 101 163 134.333 163 201 C163 243 173.5 277.333 194.5 304 C215.5 330.667 243.333 344 278 344 C331.333 344 358 310 358 242 C358 200.667 348.333 166.833 329 140.5 C309.667 114.167 282 101 246 101 L246 101 Z " />
<glyph glyph-name="divide" unicode="&#xf7;" horiz-adv-x="551" d="M271 471 C251 471 234 463.833 220 449.5 C206 435.167 199 417.334 199 396 C199 376 206 358.833 220 344.5 C234 330.167 251 323 271 323 C291.667 323 309.167 330.167 323.5 344.5 C337.833 358.833 345 376 345 396 C345 417.333 337.833 435.167 323.5 449.5 C309.167 463.833 291.667 471 271 471 L271 471 Z M502 278 L34 278 L32 171 L500 171 L502 278 Z M264 125 C244 125 226.833 117.833 212.5 103.5 C198.167 89.1667 191 71.6667 191 51 C191 31 198.167 13.6667 212.5 -1 C226.833 -15.6667 244 -23 264 -23 C284.667 -23 302 -15.6667 316 -1 C330 13.6667 337 31 337 51 C337 71.6667 330 89.1667 316 103.5 C302 117.833 284.667 125 264 125 L264 125 Z " />
<glyph glyph-name="oslash" unicode="&#xf8;" horiz-adv-x="542" d="M531 432 L492 472 L436 418 C402.667 442.667 358 455 302 455 C262.667 455 226.333 448.667 193 436 C159.667 423.333 131.167 405.167 107.5 381.5 C83.8333 357.833 65.6667 329.5 53 296.5 C40.3333 263.5 34 227.667 34 189 C34 138.333 44.6667 97.3334 66 66 L13 15 L51 -26 L105 26 C140.333 2 186.333 -10 243 -10 C283.667 -10 320.667 -3.83333 354 8.5 C387.333 20.8333 415.333 38.5 438 61.5 C460.667 84.5 478 112 490 144 C502 176 508 211 508 249 C508 301.667 497 344.667 475 378 L531 432 Z M162 204 C162 223.333 165.5 243 172.5 263 C179.5 283 189.667 299.167 203 311.5 C216.333 323.833 230.167 332.333 244.5 337 C258.833 341.667 273 344 287 344 C309 344 327.333 339 342 329 L167 162 C163.667 175.333 162 189.333 162 204 L162 204 Z M377 240 C377 210 370.833 183.5 358.5 160.5 C346.167 137.5 330.667 121.833 312 113.5 C293.333 105.167 274.667 101 256 101 C233.333 101 214.333 106 199 116 L372 281 C375.333 267.667 377 254 377 240 L377 240 Z " />
<glyph glyph-name="ugrave" unicode="&#xf9;" horiz-adv-x="535" d="M360 521 L317 660 L196 660 L255 521 L360 521 Z M368 446 L319 138 C295 114.667 269.333 103 242 103 C202.667 103 186.333 125.333 193 170 L238 446 L98 446 L45 109 C39 71 47 41.5 69 20.5 C91 -0.5 124.333 -11 169 -11 C228.333 -11 276.667 10 314 52 L307 0 L436 0 L507 446 L368 446 Z " />
<glyph glyph-name="uacute" unicode="&#xfa;" horiz-adv-x="535" d="M426 660 L306 660 L258 521 L361 521 L426 660 Z M368 446 L319 138 C295 114.667 269.333 103 242 103 C202.667 103 186.333 125.333 193 170 L238 446 L98 446 L45 109 C39 71 47 41.5 69 20.5 C91 -0.5 124.333 -11 169 -11 C228.333 -11 276.667 10 314 52 L307 0 L436 0 L507 446 L368 446 Z " />
<glyph glyph-name="ucircumflex" unicode="&#xfb;" horiz-adv-x="535" d="M315 591 L365 515 L475 515 L383 660 L258 660 L147 515 L260 515 L315 591 Z M368 446 L319 138 C295 114.667 269.333 103 242 103 C202.667 103 186.333 125.333 193 170 L238 446 L98 446 L45 109 C39 71 47 41.5 69 20.5 C91 -0.5 124.333 -11 169 -11 C228.333 -11 276.667 10 314 52 L307 0 L436 0 L507 446 L368 446 Z " />
<glyph glyph-name="udieresis" unicode="&#xfc;" horiz-adv-x="535" d="M202 517 C218 517 233 521.5 247 530.5 C261 539.5 270.833 550.333 276.5 563 C282.167 575.667 285 587.333 285 598 C285 616.667 278.833 632.333 266.5 645 C254.167 657.667 238.333 664 219 664 C197 664 177.667 656 161 640 C144.333 624 136 604.667 136 582 C136 563.333 142 547.833 154 535.5 C166 523.167 182 517 202 517 L202 517 Z M421 517 C437 517 452.167 521.5 466.5 530.5 C480.833 539.5 490.833 550.333 496.5 563 C502.167 575.667 505 587.333 505 598 C505 616.667 498.667 632.333 486 645 C473.333 657.667 457.333 664 438 664 C415.333 664 396 655.833 380 639.5 C364 623.167 356 604 356 582 C356 563.333 362 547.833 374 535.5 C386 523.167 401.667 517 421 517 L421 517 Z M368 446 L319 138 C295 114.667 269.333 103 242 103 C202.667 103 186.333 125.333 193 170 L238 446 L98 446 L45 109 C39 71 47 41.5 69 20.5 C91 -0.5 124.333 -11 169 -11 C228.333 -11 276.667 10 314 52 L307 0 L436 0 L507 446 L368 446 Z " />
<glyph glyph-name="yacute" unicode="&#xfd;" horiz-adv-x="474" d="M389 660 L269 660 L221 521 L324 521 L389 660 Z M352 446 L237 192 L207 126 C207 145.333 205.667 167.333 203 192 L180 446 L29 446 L102 5 C91.3333 -12.3333 77.1667 -29.6667 59.5 -47 C41.8333 -64.3333 23.5 -78.8333 4.5 -90.5 C-14.5 -102.167 -31.3333 -111.333 -46 -118 L4 -236 C44 -218 84 -193.333 124 -162 C164 -130.667 196.833 -99.1666 222.5 -67.5 C248.167 -35.8333 267.333 -8.33334 280 15 L509 446 L352 446 Z " />
<glyph glyph-name="thorn" unicode="&#xfe;" horiz-adv-x="529" d="M374 457 C319.333 457 268.667 438.333 222 401 C228 416.333 232.333 431.333 235 446 L270 660 L133 660 L-6 -219 L131 -219 L166 5 C197.333 -5.66667 229.333 -11 262 -11 C300.667 -11 335.5 -3.16667 366.5 12.5 C397.5 28.1667 423.167 49.8333 443.5 77.5 C463.833 105.167 479.167 137 489.5 173 C499.833 209 505 247 505 287 C505 347 493.833 390.333 471.5 417 C449.167 443.667 416.667 457 374 457 L374 457 Z M243 101 C224.333 101 204.333 103.667 183 109 L216 317 C250.667 335 282.333 344 311 344 C333 344 348 337.833 356 325.5 C364 313.167 368 292.667 368 264 C368 215.333 357.333 176 336 146 C314.667 116 283.667 101 243 101 L243 101 Z " />
<glyph glyph-name="ydieresis" unicode="&#xff;" horiz-adv-x="474" d="M165 517 C181 517 196 521.5 210 530.5 C224 539.5 233.833 550.333 239.5 563 C245.167 575.667 248 587.333 248 598 C248 616.667 241.833 632.333 229.5 645 C217.167 657.667 201.333 664 182 664 C160 664 140.667 656 124 640 C107.333 624 99 604.667 99 582 C99 563.333 105 547.833 117 535.5 C129 523.167 145 517 165 517 L165 517 Z M384 517 C400 517 415.167 521.5 429.5 530.5 C443.833 539.5 453.833 550.333 459.5 563 C465.167 575.667 468 587.333 468 598 C468 616.667 461.667 632.333 449 645 C436.333 657.667 420.333 664 401 664 C378.333 664 359 655.833 343 639.5 C327 623.167 319 604 319 582 C319 563.333 325 547.833 337 535.5 C349 523.167 364.667 517 384 517 L384 517 Z M352 446 L237 192 L207 126 C207 145.333 205.667 167.333 203 192 L180 446 L29 446 L102 5 C91.3333 -12.3333 77.1667 -29.6667 59.5 -47 C41.8333 -64.3333 23.5 -78.8333 4.5 -90.5 C-14.5 -102.167 -31.3333 -111.333 -46 -118 L4 -236 C44 -218 84 -193.333 124 -162 C164 -130.667 196.833 -99.1666 222.5 -67.5 C248.167 -35.8333 267.333 -8.33334 280 15 L509 446 L352 446 Z " />
<glyph glyph-name="Amacron" unicode="&#x100;" horiz-adv-x="644" d="M578 825 L258 825 L239 722 L559 722 L578 825 Z M455 0 L608 0 L484 660 L299 660 L-34 0 L129 0 L189 128 L435 128 L455 0 Z M246 250 L372 519 L415 250 L246 250 Z " />
<glyph glyph-name="amacron" unicode="&#x101;" horiz-adv-x="520" d="M191 636 L172 533 L492 533 L511 636 L191 636 Z M23 144 C23 40 69 -12 161 -12 C213.667 -12 259.333 9.66667 298 53 L289 0 L422 0 L492 440 C438 450 384.667 455 332 455 C284.667 455 241.667 447.833 203 433.5 C164.333 419.167 131.667 398.667 105 372 C78.3333 345.333 58 312.5 44 273.5 C30 234.5 23 191.333 23 144 L23 144 Z M211 99 C175.667 99 158 119.333 158 160 C158 212.667 171.833 255.5 199.5 288.5 C227.167 321.5 263 338 307 338 L339 337 L307 143 C275.667 113.667 243.667 99 211 99 L211 99 Z " />
<glyph glyph-name="Abreve" unicode="&#x102;" horiz-adv-x="644" d="M394 707 C424 707 451.667 713.667 477 727 C502.333 740.331 521.833 757.164 535.5 777.5 C549.167 797.833 558 818.333 562 839 L455 839 C451.667 823.667 445.5 811.333 436.5 802 C427.5 792.667 415.333 788 400 788 C386 788 375 792.667 367 802 C359 811.332 355.333 823.665 356 839 L248 839 C246.667 820.336 249.667 802.67 257 786 C264.333 769.333 274.667 755.333 288 744 C301.333 732.667 317.5 723.667 336.5 717 C355.5 710.333 374.667 707 394 707 L394 707 Z M455 0 L608 0 L484 660 L299 660 L-34 0 L129 0 L189 128 L435 128 L455 0 Z M246 250 L372 519 L415 250 L246 250 Z " />
<glyph glyph-name="abreve" unicode="&#x103;" horiz-adv-x="520" d="M327 520 C357.666 520 386.333 527.167 413 541.5 C439.667 555.833 459.333 573.833 472 595.5 C484.667 617.167 492.667 638.333 496 659 L389 659 C387 641.667 381.167 627.667 371.5 617 C361.833 606.333 349 601 333 601 C318.333 601 307 606.333 299 617 C291 627.667 287.667 641.667 289 659 L182 659 C178.667 629 184.333 603.5 199 582.5 C213.667 561.5 232.167 545.833 254.5 535.5 C276.833 525.167 301 520 327 520 L327 520 Z M23 144 C23 40 69 -12 161 -12 C213.667 -12 259.333 9.66667 298 53 L289 0 L422 0 L492 440 C438 450 384.667 455 332 455 C284.667 455 241.667 447.833 203 433.5 C164.333 419.167 131.667 398.667 105 372 C78.3333 345.333 58 312.5 44 273.5 C30 234.5 23 191.333 23 144 L23 144 Z M211 99 C175.667 99 158 119.333 158 160 C158 212.667 171.833 255.5 199.5 288.5 C227.167 321.5 263 338 307 338 L339 337 L307 143 C275.667 113.667 243.667 99 211 99 L211 99 Z " />
<glyph glyph-name="Aogonek" unicode="&#x104;" horiz-adv-x="644" d="M480 -111 C480 -97.6667 485.833 -81 497.5 -61 C509.167 -41 524.667 -20.6667 544 0 L608 0 L484 660 L299 660 L-34 0 L129 0 L189 128 L435 128 L454 3 C432.667 -23.6667 416.334 -49.6667 405 -75 C393.667 -100.333 388 -123 388 -143 C388 -175 401.833 -197.833 429.5 -211.5 C457.167 -225.167 497 -226.667 549 -216 L563 -139 C535 -145.667 514.167 -146.334 500.5 -141 C486.833 -135.667 480 -125.667 480 -111 L480 -111 Z M246 250 L372 519 L415 250 L246 250 Z " />
<glyph glyph-name="aogonek" unicode="&#x105;" horiz-adv-x="520" d="M422 0 L492 440 C438 450 384.667 455 332 455 C284.667 455 241.667 447.833 203 433.5 C164.333 419.167 131.667 398.667 105 372 C78.3333 345.333 58 312.5 44 273.5 C30 234.5 23 191.333 23 144 C23 40 69 -12 161 -12 C213.667 -12 259.333 9.66667 298 53 L289 0 C268.333 -26 252.5 -51.5 241.5 -76.5 C230.5 -101.5 225 -123.667 225 -143 C225 -175 238.833 -197.833 266.5 -211.5 C294.167 -225.167 334 -226.667 386 -216 L400 -139 C372 -145.667 351.167 -146.334 337.5 -141 C323.833 -135.667 317 -125.667 317 -111 C317 -97.6667 322.833 -81 334.5 -61 C346.167 -41 361.667 -20.6667 381 0 L422 0 Z M211 99 C175.667 99 158 119.333 158 160 C158 212.667 171.833 255.5 199.5 288.5 C227.167 321.5 263 338 307 338 L339 337 L307 143 C275.667 113.667 243.667 99 211 99 L211 99 Z " />
<glyph glyph-name="Cacute" unicode="&#x106;" horiz-adv-x="578" d="M505 707 L567 839 L447 839 L402 707 L505 707 Z M448 673 C389.333 673 335.833 663.167 287.5 643.5 C239.167 623.833 198 596.333 164 561 C130 525.667 104.167 483.333 86.5 434 C68.8333 384.667 60 331.667 60 275 C60 181 85 109.833 135 61.5 C185 13.1667 258.667 -11 356 -11 C412 -11 469.667 -5.66667 529 5 L518 136 C472.667 128.667 426.667 125 380 125 C323.333 125 281.5 137.5 254.5 162.5 C227.5 187.5 214 226 214 278 C214 314 218.833 347.833 228.5 379.5 C238.167 411.166 252.833 438.833 272.5 462.5 C292.167 486.166 317.5 504.833 348.5 518.5 C379.5 532.167 415.333 539 456 539 C474 539 497.5 537.333 526.5 534 C555.5 530.667 579 527 597 523 L623 653 C596.334 659 566.668 663.833 534 667.5 C501.333 671.167 472.667 673 448 673 L448 673 Z " />
<glyph glyph-name="cacute" unicode="&#x107;" horiz-adv-x="407" d="M350 521 L415 660 L295 660 L247 521 L350 521 Z M396 333 L416 445 C374.667 453.667 335 458 297 458 C259 458 225.667 452.667 197 442 C168.333 431.333 144.167 418.167 124.5 402.5 C104.833 386.833 87.6667 368 73 346 C58.3334 324 47.1667 298.667 39.5 270 C31.8333 241.333 28 210.667 28 178 C28 129.333 37.5 90.3334 56.5 61 C75.5 31.6667 99.5 12 128.5 2 C157.5 -8 187 -13 217 -13 C262.333 -13 308.333 -9.66666 355 -3 L347 110 C319 105.333 288 103 254 103 C230.667 103 212.5 106.167 199.5 112.5 C186.5 118.833 177 128.5 171 141.5 C165 154.5 162 172.667 162 196 C162 224.667 169.333 251.5 184 276.5 C198.667 301.5 216 318.833 236 328.5 C256 338.167 274.667 343 292 343 C324 343 358.667 339.667 396 333 L396 333 Z " />
<glyph glyph-name="Cdotaccent" unicode="&#x10a;" horiz-adv-x="578" d="M472 846 C456.668 846 441.834 841.333 427.5 832 C413.167 822.667 403.167 811.5 397.5 798.5 C391.833 785.5 389 774 389 764 C389 746.667 395 731.833 407 719.5 C419 707.167 433.667 701 451 701 C461.667 701 473.5 703.667 486.5 709 C499.5 714.333 511 723.833 521 737.5 C531 751.167 536 765.667 536 781 C536 799 529.833 814.333 517.5 827 C505.167 839.667 490 846 472 846 L472 846 Z M448 673 C389.333 673 335.833 663.167 287.5 643.5 C239.167 623.833 198 596.333 164 561 C130 525.667 104.167 483.333 86.5 434 C68.8333 384.667 60 331.667 60 275 C60 181 85 109.833 135 61.5 C185 13.1667 258.667 -11 356 -11 C412 -11 469.667 -5.66667 529 5 L518 136 C472.667 128.667 426.667 125 380 125 C323.333 125 281.5 137.5 254.5 162.5 C227.5 187.5 214 226 214 278 C214 314 218.833 347.833 228.5 379.5 C238.167 411.166 252.833 438.833 272.5 462.5 C292.167 486.166 317.5 504.833 348.5 518.5 C379.5 532.167 415.333 539 456 539 C474 539 497.5 537.333 526.5 534 C555.5 530.667 579 527 597 523 L623 653 C596.334 659 566.668 663.833 534 667.5 C501.333 671.167 472.667 673 448 673 L448 673 Z " />
<glyph glyph-name="cdotaccent" unicode="&#x10b;" horiz-adv-x="407" d="M388 598 C388 616 381.833 631.5 369.5 644.5 C357.167 657.5 341.667 664 323 664 C301.667 664 282.334 655.667 265 639 C247.667 622.333 239 603 239 581 C239 563.667 245.167 548.667 257.5 536 C269.833 523.333 284.667 517 302 517 C324.667 517 344.667 525.167 362 541.5 C379.333 557.831 388 576.664 388 598 L388 598 Z M396 333 L416 445 C374.667 453.667 335 458 297 458 C259 458 225.667 452.667 197 442 C168.333 431.333 144.167 418.167 124.5 402.5 C104.833 386.833 87.6667 368 73 346 C58.3334 324 47.1667 298.667 39.5 270 C31.8333 241.333 28 210.667 28 178 C28 129.333 37.5 90.3334 56.5 61 C75.5 31.6667 99.5 12 128.5 2 C157.5 -8 187 -13 217 -13 C262.333 -13 308.333 -9.66666 355 -3 L347 110 C319 105.333 288 103 254 103 C230.667 103 212.5 106.167 199.5 112.5 C186.5 118.833 177 128.5 171 141.5 C165 154.5 162 172.667 162 196 C162 224.667 169.333 251.5 184 276.5 C198.667 301.5 216 318.833 236 328.5 C256 338.167 274.667 343 292 343 C324 343 358.667 339.667 396 333 L396 333 Z " />
<glyph glyph-name="Ccaron" unicode="&#x10c;" horiz-adv-x="578" d="M511 707 L601 839 L504 839 L460 769 L428 839 L333 839 L398 707 L511 707 Z M456 539 C474 539 497.5 537.333 526.5 534 C555.5 530.667 579 527 597 523 L623 653 C596.334 659 566.668 663.833 534 667.5 C501.333 671.167 472.667 673 448 673 C389.333 673 335.833 663.167 287.5 643.5 C239.167 623.833 198 596.333 164 561 C130 525.667 104.167 483.333 86.5 434 C68.8333 384.667 60 331.667 60 275 C60 181 85 109.833 135 61.5 C185 13.1667 258.667 -11 356 -11 C412 -11 469.667 -5.66667 529 5 L518 136 C472.667 128.667 426.667 125 380 125 C323.333 125 281.5 137.5 254.5 162.5 C227.5 187.5 214 226 214 278 C214 314 218.833 347.833 228.5 379.5 C238.167 411.166 252.833 438.833 272.5 462.5 C292.167 486.166 317.5 504.833 348.5 518.5 C379.5 532.167 415.333 539 456 539 L456 539 Z " />
<glyph glyph-name="ccaron" unicode="&#x10d;" horiz-adv-x="407" d="M360 520 L458 660 L361 660 L310 581 L274 660 L179 660 L247 520 L360 520 Z M28 178 C28 129.333 37.5 90.3334 56.5 61 C75.5 31.6667 99.5 12 128.5 2 C157.5 -8 187 -13 217 -13 C262.333 -13 308.333 -9.66666 355 -3 L347 110 C319 105.333 288 103 254 103 C230.667 103 212.5 106.167 199.5 112.5 C186.5 118.833 177 128.5 171 141.5 C165 154.5 162 172.667 162 196 C162 224.667 169.333 251.5 184 276.5 C198.667 301.5 216 318.833 236 328.5 C256 338.167 274.667 343 292 343 C324 343 358.667 339.667 396 333 L416 445 C374.667 453.667 335 458 297 458 C259 458 225.667 452.667 197 442 C168.333 431.333 144.167 418.167 124.5 402.5 C104.833 386.833 87.6667 368 73 346 C58.3334 324 47.1667 298.667 39.5 270 C31.8333 241.333 28 210.667 28 178 L28 178 Z " />
<glyph glyph-name="Dcaron" unicode="&#x10e;" horiz-adv-x="706" d="M452 707 L542 839 L445 839 L401 769 L369 839 L274 839 L339 707 L452 707 Z M384 660 L152 658 L48 2 L283 0 C344.333 0 399.833 8.66667 449.5 26 C499.167 43.3333 541.167 68.5 575.5 101.5 C609.833 134.5 635.833 174.833 653.5 222.5 C671.167 270.167 680 323 680 381 C680 475 655.667 545 607 591 C558.333 637 484 660 384 660 L384 660 Z M308 126 L216 127 L280 531 L361 533 C400.333 533 432.167 527.167 456.5 515.5 C480.833 503.833 499 486.167 511 462.5 C523 438.833 529 406 529 364 C529 286.667 510.667 227.667 474 187 C437.333 146.333 382 126 308 126 L308 126 Z " />
<glyph glyph-name="dcaron" unicode="&#x10f;" horiz-adv-x="521" d="M357 455 L317 455 C268.333 455 225.167 446.5 187.5 429.5 C149.833 412.5 118.833 389.333 94.5 360 C70.1667 330.667 52.1667 297.5 40.5 260.5 C28.8333 223.5 23 185 23 145 C23 95.6667 34.3333 57.1667 57 29.5 C79.6667 1.83333 111 -12 151 -12 C209.667 -12 259 10.6667 299 56 L290 0 L423 0 L528 660 L392 660 L357 455 Z M587 660 L557 483 L643 483 L691 660 L587 660 Z M215 99 C195 99 180.333 104 171 114 C161.667 124 157 140.667 157 164 C157 184 160.833 206.5 168.5 231.5 C176.167 256.5 187.667 277.833 203 295.5 C218.333 313.167 234.833 325.5 252.5 332.5 C270.167 339.5 287.667 343 305 343 L340 341 L306 138 C292.667 126 277.667 116.5 261 109.5 C244.333 102.5 229 99 215 99 L215 99 Z " />
<glyph glyph-name="Dcroat" unicode="&#x110;" horiz-adv-x="764" d="M442 660 L210 658 L169 400 L122 400 L100 269 L148 269 L106 2 L341 0 C402.333 0 457.833 8.66667 507.5 26 C557.167 43.3333 599.167 68.5 633.5 101.5 C667.833 134.5 693.833 174.833 711.5 222.5 C729.167 270.167 738 323 738 381 C738 475 713.667 545 665 591 C616.333 637 542 660 442 660 L442 660 Z M366 126 L274 127 L296 269 L422 269 L443 400 L317 400 L338 531 L419 533 C458.333 533 490.167 527.167 514.5 515.5 C538.833 503.833 557 486.167 569 462.5 C581 438.833 587 406 587 364 C587 286.667 568.667 227.667 532 187 C495.333 146.333 440 126 366 126 L366 126 Z " />
<glyph glyph-name="dcroat" unicode="&#x111;" horiz-adv-x="521" d="M573 615 L521 615 L528 660 L392 660 L384 615 L273 615 L259 535 L370 535 L357 455 L317 455 C268.333 455 225.167 446.5 187.5 429.5 C149.833 412.5 118.833 389.333 94.5 360 C70.1667 330.667 52.1667 297.5 40.5 260.5 C28.8333 223.5 23 185 23 145 C23 95.6667 34.3333 57.1667 57 29.5 C79.6667 1.83333 111 -12 151 -12 C209.667 -12 259 10.6667 299 56 L290 0 L423 0 L508 535 L559 535 L573 615 Z M215 99 C195 99 180.333 104 171 114 C161.667 124 157 140.667 157 164 C157 184 160.833 206.5 168.5 231.5 C176.167 256.5 187.667 277.833 203 295.5 C218.333 313.167 234.833 325.5 252.5 332.5 C270.167 339.5 287.667 343 305 343 L340 341 L306 138 C292.667 126 277.667 116.5 261 109.5 C244.333 102.5 229 99 215 99 L215 99 Z " />
<glyph glyph-name="Emacron" unicode="&#x112;" horiz-adv-x="543" d="M548 825 L228 825 L209 722 L529 722 L548 825 Z M530 531 L551 660 L152 660 L47 0 L457 0 L478 128 L213 128 L236 272 L472 272 L492 401 L257 401 L277 531 L530 531 Z " />
<glyph glyph-name="emacron" unicode="&#x113;" horiz-adv-x="480" d="M465 637 L145 637 L126 534 L446 534 L465 637 Z M277 455 C241 455 207.5 448.333 176.5 435 C145.5 421.667 119 402.5 97 377.5 C75 352.5 58 322.833 46 288.5 C34 254.167 28 216.667 28 176 C28 115.333 44.8333 69 78.5 37 C112.167 5 161 -11 225 -11 C286.333 -11 350.667 -3 418 13 L402 114 C346 100 294.667 93 248 93 C215.333 93 192.833 99.3333 180.5 112 C168.167 124.667 162 146.333 162 177 L162 181 L445 181 C450.333 209.667 453 243.333 453 282 C453 338.667 438.167 381.667 408.5 411 C378.833 440.333 335 455 277 455 L277 455 Z M265 353 C285 353 300.667 347.333 312 336 C323.333 324.667 329 308.334 329 287 L327 269 L175 269 C180.333 286.333 187.666 301.833 197 315.5 C206.333 329.165 217.166 338.832 229.5 344.5 C241.833 350.167 253.666 353 265 353 L265 353 Z " />
<glyph glyph-name="Edotaccent" unicode="&#x116;" horiz-adv-x="543" d="M365 701 C375.667 701 387.5 703.667 400.5 709 C413.5 714.333 425 723.833 435 737.5 C445 751.167 450 765.667 450 781 C450 799 443.833 814.333 431.5 827 C419.167 839.667 404 846 386 846 C370.667 846 355.834 841.333 341.5 832 C327.167 822.667 317.167 811.5 311.5 798.5 C305.833 785.5 303 774 303 764 C303 746.667 309 731.833 321 719.5 C333 707.167 347.667 701 365 701 L365 701 Z M530 531 L551 660 L152 660 L47 0 L457 0 L478 128 L213 128 L236 272 L472 272 L492 401 L257 401 L277 531 L530 531 Z " />
<glyph glyph-name="edotaccent" unicode="&#x117;" horiz-adv-x="480" d="M291 517 C313.667 517 333.667 525.167 351 541.5 C368.333 557.831 377 576.664 377 598 C377 616 370.833 631.5 358.5 644.5 C346.167 657.5 330.667 664 312 664 C290.667 664 271.334 655.667 254 639 C236.667 622.333 228 603 228 581 C228 563.667 234.167 548.667 246.5 536 C258.833 523.333 273.667 517 291 517 L291 517 Z M445 181 C450.333 209.667 453 243.333 453 282 C453 338.667 438.167 381.667 408.5 411 C378.833 440.333 335 455 277 455 C241 455 207.5 448.333 176.5 435 C145.5 421.667 119 402.5 97 377.5 C75 352.5 58 322.833 46 288.5 C34 254.167 28 216.667 28 176 C28 115.333 44.8333 69 78.5 37 C112.167 5 161 -11 225 -11 C286.333 -11 350.667 -3 418 13 L402 114 C346 100 294.667 93 248 93 C215.333 93 192.833 99.3333 180.5 112 C168.167 124.667 162 146.333 162 177 L162 181 L445 181 Z M265 353 C285 353 300.667 347.333 312 336 C323.333 324.667 329 308.334 329 287 L327 269 L175 269 C180.333 286.333 187.666 301.833 197 315.5 C206.333 329.165 217.166 338.832 229.5 344.5 C241.833 350.167 253.666 353 265 353 L265 353 Z " />
<glyph glyph-name="Eogonek" unicode="&#x118;" horiz-adv-x="543" d="M530 531 L551 660 L152 660 L47 0 L363 0 C342.333 -26.6667 326.5 -52.3333 315.5 -77 C304.5 -101.667 299 -123.667 299 -143 C299 -175 312.833 -197.833 340.5 -211.5 C368.167 -225.167 408 -226.667 460 -216 L474 -139 C446 -145.667 425.167 -146.334 411.5 -141 C397.833 -135.667 391 -125.667 391 -111 C391 -97.6667 396.833 -81 408.5 -61 C420.167 -41 435.667 -20.6667 455 0 L457 0 L478 128 L213 128 L236 272 L472 272 L492 401 L257 401 L277 531 L530 531 Z " />
<glyph glyph-name="eogonek" unicode="&#x119;" horiz-adv-x="481" d="M445 181 C450.333 209.667 453 243.333 453 282 C453 338.667 438.167 381.667 408.5 411 C378.833 440.333 335 455 277 455 C241 455 207.5 448.333 176.5 435 C145.5 421.667 119 402.5 97 377.5 C75 352.5 58 322.833 46 288.5 C34 254.167 28 216.667 28 176 C28 115.333 44.8333 69 78.5 37 C112.167 5 161 -11 225 -11 C251 -11 279 -9.33333 309 -6 C269.667 -58.6667 250 -104.333 250 -143 C250 -175 263.833 -197.833 291.5 -211.5 C319.167 -225.167 359 -226.667 411 -216 L424 -139 C396 -145.667 375.333 -146.334 362 -141 C348.667 -135.667 342 -125.667 342 -111 C342 -97.6667 349.667 -79 365 -55 C380.333 -31 398 -8.33333 418 13 L402 114 C346 100 294.667 93 248 93 C215.333 93 192.833 99.3333 180.5 112 C168.167 124.667 162 146.333 162 177 L162 181 L445 181 Z M265 353 C285 353 300.667 347.333 312 336 C323.333 324.667 329 308.334 329 287 L327 269 L175 269 C180.333 286.333 187.666 301.833 197 315.5 C206.333 329.165 217.166 338.832 229.5 344.5 C241.833 350.167 253.666 353 265 353 L265 353 Z " />
<glyph glyph-name="Ecaron" unicode="&#x11a;" horiz-adv-x="543" d="M425 707 L515 839 L418 839 L375 769 L342 839 L247 839 L312 707 L425 707 Z M530 531 L551 660 L152 660 L47 0 L457 0 L478 128 L213 128 L236 272 L472 272 L492 401 L257 401 L277 531 L530 531 Z " />
<glyph glyph-name="ecaron" unicode="&#x11b;" horiz-adv-x="480" d="M348 520 L446 660 L349 660 L298 581 L262 660 L167 660 L235 520 L348 520 Z M445 181 C450.333 209.667 453 243.333 453 282 C453 338.667 438.167 381.667 408.5 411 C378.833 440.333 335 455 277 455 C241 455 207.5 448.333 176.5 435 C145.5 421.667 119 402.5 97 377.5 C75 352.5 58 322.833 46 288.5 C34 254.167 28 216.667 28 176 C28 115.333 44.8333 69 78.5 37 C112.167 5 161 -11 225 -11 C286.333 -11 350.667 -3 418 13 L402 114 C346 100 294.667 93 248 93 C215.333 93 192.833 99.3333 180.5 112 C168.167 124.667 162 146.333 162 177 L162 181 L445 181 Z M265 353 C285 353 300.667 347.333 312 336 C323.333 324.667 329 308.334 329 287 L327 269 L175 269 C180.333 286.333 187.666 301.833 197 315.5 C206.333 329.165 217.166 338.832 229.5 344.5 C241.833 350.167 253.666 353 265 353 L265 353 Z " />
<glyph glyph-name="Gbreve" unicode="&#x11e;" horiz-adv-x="681" d="M602 839 L495 839 C491.667 823.667 485.5 811.333 476.5 802 C467.5 792.667 455.333 788 440 788 C426 788 415 792.667 407 802 C399 811.332 395.333 823.665 396 839 L288 839 C286.667 820.336 289.667 802.67 297 786 C304.333 769.333 314.667 755.333 328 744 C341.333 732.667 357.5 723.667 376.5 717 C395.5 710.333 414.667 707 434 707 C464 707 491.667 713.667 517 727 C542.333 740.331 561.833 757.164 575.5 777.5 C589.167 797.833 598 818.333 602 839 L602 839 Z M457 681 C426.333 681 392.833 678.167 356.5 672.5 C320.167 666.833 285.167 656 251.5 640 C217.833 624 188.667 603.5 164 578.5 C139.333 553.5 119.167 524.167 103.5 490.5 C87.8333 456.833 77.1667 422.167 71.5 386.5 C65.8333 350.833 62.6667 318.333 62 289 C61.3333 233 67.1667 185 79.5 145 C91.8333 105 110.5 72.8333 135.5 48.5 C160.5 24.1667 191.333 6.33333 228 -5 C264.667 -16.3333 307.333 -22 356 -22 C416 -22 490.333 -14.6667 579 0 L628 309 L487 309 L456 115 C428.667 109.667 402.334 107 377 107 C331 107 296.5 113.333 273.5 126 C250.5 138.667 234 158 224 184 C214 210 209 245 209 289 C209 378.333 228.833 444.167 268.5 486.5 C308.167 528.833 369.667 550 453 550 C503 550 561.667 543.333 629 530 L655 659 C641.667 662.333 616.833 666.833 580.5 672.5 C544.167 678.167 503 681 457 681 L457 681 Z " />
<glyph glyph-name="gbreve" unicode="&#x11f;" horiz-adv-x="528" d="M311 521 C341.666 521 370.333 528.167 397 542.5 C423.666 556.833 443.333 574.833 456 596.5 C468.667 618.167 476.667 639.333 480 660 L373 660 C371 642.667 365.167 628.667 355.5 618 C345.833 607.333 333 602 317 602 C302.333 602 291 607.333 283 618 C275 628.667 271.667 642.667 273 660 L166 660 C162.667 630 168.333 604.5 183 583.5 C197.667 562.5 216.167 546.833 238.5 536.5 C260.833 526.167 285 521 311 521 L311 521 Z M334 455 C278.667 455 231.667 446.667 193 430 C154.333 413.333 122.667 390.833 98 362.5 C73.3333 334.167 55 301.334 43 264 C31 226.667 25 188.667 25 150 C25 120.667 28.6667 95.6667 36 75 C43.3333 54.3333 53.3333 37.5 66 24.5 C78.6666 11.5 93.8333 2.16667 111.5 -3.5 C129.167 -9.16667 147.333 -12 166 -12 C217.333 -12 262.667 8.66667 302 50 L288 -41 C283.333 -85 242.333 -107 165 -107 C127.667 -107 85.6667 -100.667 39 -88 L11 -206 C74.3333 -221.333 132 -229 184 -229 C256 -229 311.167 -215.5 349.5 -188.5 C387.833 -161.5 411 -121.333 419 -68 L499 440 C429 450 374 455 334 455 L334 455 Z M219 99 C197.667 99 182.5 105.167 173.5 117.5 C164.5 129.833 160 147.667 160 171 C160 220.333 174.167 261.333 202.5 294 C230.833 326.667 268 343 314 343 L346 342 L316 141 C296 123.667 277.833 112.333 261.5 107 C245.167 101.667 231 99 219 99 L219 99 Z " />
<glyph glyph-name="Gdotaccent" unicode="&#x120;" horiz-adv-x="681" d="M456 846 C440.668 846 425.834 841.333 411.5 832 C397.167 822.667 387.167 811.5 381.5 798.5 C375.833 785.5 373 774 373 764 C373 746.667 379 731.833 391 719.5 C403 707.167 417.667 701 435 701 C445.667 701 457.5 703.667 470.5 709 C483.5 714.333 495 723.833 505 737.5 C515 751.167 520 765.667 520 781 C520 799 513.833 814.333 501.5 827 C489.167 839.667 474 846 456 846 L456 846 Z M457 681 C426.333 681 392.833 678.167 356.5 672.5 C320.167 666.833 285.167 656 251.5 640 C217.833 624 188.667 603.5 164 578.5 C139.333 553.5 119.167 524.167 103.5 490.5 C87.8333 456.833 77.1667 422.167 71.5 386.5 C65.8333 350.833 62.6667 318.333 62 289 C61.3333 233 67.1667 185 79.5 145 C91.8333 105 110.5 72.8333 135.5 48.5 C160.5 24.1667 191.333 6.33333 228 -5 C264.667 -16.3333 307.333 -22 356 -22 C416 -22 490.333 -14.6667 579 0 L628 309 L487 309 L456 115 C428.667 109.667 402.334 107 377 107 C331 107 296.5 113.333 273.5 126 C250.5 138.667 234 158 224 184 C214 210 209 245 209 289 C209 378.333 228.833 444.167 268.5 486.5 C308.167 528.833 369.667 550 453 550 C503 550 561.667 543.333 629 530 L655 659 C641.667 662.333 616.833 666.833 580.5 672.5 C544.167 678.167 503 681 457 681 L457 681 Z " />
<glyph glyph-name="gdotaccent" unicode="&#x121;" horiz-adv-x="528" d="M321 517 C343.667 517 363.667 525.167 381 541.5 C398.333 557.831 407 576.664 407 598 C407 616 400.833 631.5 388.5 644.5 C376.167 657.5 360.667 664 342 664 C320.667 664 301.334 655.667 284 639 C266.667 622.333 258 603 258 581 C258 563.667 264.167 548.667 276.5 536 C288.833 523.333 303.667 517 321 517 L321 517 Z M334 455 C278.667 455 231.667 446.667 193 430 C154.333 413.333 122.667 390.833 98 362.5 C73.3333 334.167 55 301.334 43 264 C31 226.667 25 188.667 25 150 C25 120.667 28.6667 95.6667 36 75 C43.3333 54.3333 53.3333 37.5 66 24.5 C78.6666 11.5 93.8333 2.16667 111.5 -3.5 C129.167 -9.16667 147.333 -12 166 -12 C217.333 -12 262.667 8.66667 302 50 L288 -41 C283.333 -85 242.333 -107 165 -107 C127.667 -107 85.6667 -100.667 39 -88 L11 -206 C74.3333 -221.333 132 -229 184 -229 C256 -229 311.167 -215.5 349.5 -188.5 C387.833 -161.5 411 -121.333 419 -68 L499 440 C429 450 374 455 334 455 L334 455 Z M219 99 C197.667 99 182.5 105.167 173.5 117.5 C164.5 129.833 160 147.667 160 171 C160 220.333 174.167 261.333 202.5 294 C230.833 326.667 268 343 314 343 L346 342 L316 141 C296 123.667 277.833 112.333 261.5 107 C245.167 101.667 231 99 219 99 L219 99 Z " />
<glyph glyph-name="Gcommaaccent" unicode="&#x122;" horiz-adv-x="681" d="M457 681 C426.333 681 392.833 678.167 356.5 672.5 C320.167 666.833 285.167 656 251.5 640 C217.833 624 188.667 603.5 164 578.5 C139.333 553.5 119.167 524.167 103.5 490.5 C87.8333 456.833 77.1667 422.167 71.5 386.5 C65.8333 350.833 62.6667 318.333 62 289 C61.3333 233 67.1667 185 79.5 145 C91.8333 105 110.5 72.8333 135.5 48.5 C160.5 24.1667 191.333 6.33333 228 -5 C264.667 -16.3333 307.333 -22 356 -22 C416 -22 490.333 -14.6667 579 0 L628 309 L487 309 L456 115 C428.667 109.667 402.334 107 377 107 C331 107 296.5 113.333 273.5 126 C250.5 138.667 234 158 224 184 C214 210 209 245 209 289 C209 378.333 228.833 444.167 268.5 486.5 C308.167 528.833 369.667 550 453 550 C503 550 561.667 543.333 629 530 L655 659 C641.667 662.333 616.833 666.833 580.5 672.5 C544.167 678.167 503 681 457 681 L457 681 Z M367 -51 C357.667 -51 344 -54.3333 326 -61 L333 -156 L294 -233 L354 -233 L405 -165 C421.667 -143 430 -123.333 430 -106 C430 -89.3333 424.5 -76 413.5 -66 C402.5 -56 387 -51 367 -51 L367 -51 Z " />
<glyph glyph-name="gcommaaccent" unicode="&#x123;" horiz-adv-x="528" d="M323 497 C332.333 497 346 500.333 364 507 L357 602 L396 679 L336 679 L285 611 C268.333 589 260 569.333 260 552 C260 535.333 265.5 522 276.5 512 C287.5 502 303 497 323 497 L323 497 Z M334 455 C278.667 455 231.667 446.667 193 430 C154.333 413.333 122.667 390.833 98 362.5 C73.3333 334.167 55 301.334 43 264 C31 226.667 25 188.667 25 150 C25 120.667 28.6667 95.6667 36 75 C43.3333 54.3333 53.3333 37.5 66 24.5 C78.6666 11.5 93.8333 2.16667 111.5 -3.5 C129.167 -9.16667 147.333 -12 166 -12 C217.333 -12 262.667 8.66667 302 50 L288 -41 C283.333 -85 242.333 -107 165 -107 C127.667 -107 85.6667 -100.667 39 -88 L11 -206 C74.3333 -221.333 132 -229 184 -229 C256 -229 311.167 -215.5 349.5 -188.5 C387.833 -161.5 411 -121.333 419 -68 L499 440 C429 450 374 455 334 455 L334 455 Z M219 99 C197.667 99 182.5 105.167 173.5 117.5 C164.5 129.833 160 147.667 160 171 C160 220.333 174.167 261.333 202.5 294 C230.833 326.667 268 343 314 343 L346 342 L316 141 C296 123.667 277.833 112.333 261.5 107 C245.167 101.667 231 99 219 99 L219 99 Z " />
<glyph glyph-name="Hbar" unicode="&#x126;" horiz-adv-x="721" d="M737 594 L698 594 L708 660 L561 660 L551 594 L285 594 L295 660 L151 660 L141 594 L102 594 L87 490 L124 490 L47 0 L191 0 L233 269 L499 269 L457 0 L604 0 L681 490 L721 490 L737 594 Z M520 400 L254 400 L268 490 L534 490 L520 400 Z " />
<glyph glyph-name="hbar" unicode="&#x127;" horiz-adv-x="536" d="M375 455 C319.667 455 270.333 437 227 401 L248 535 L360 535 L374 615 L261 615 L268 660 L132 660 L125 615 L74 615 L60 535 L112 535 L27 0 L164 0 L212 305 C242 329 270.667 341 298 341 C334.667 341 350.667 324.667 346 292 L299 0 L437 0 L492 345 C498 379 490.667 405.833 470 425.5 C449.333 445.167 417.667 455 375 455 L375 455 Z " />
<glyph glyph-name="Imacron" unicode="&#x12a;" horiz-adv-x="312" d="M413 825 L93 825 L74 722 L394 722 L413 825 Z M299 660 L152 660 L48 0 L195 0 L299 660 Z " />
<glyph glyph-name="imacron" unicode="&#x12b;" horiz-adv-x="266" d="M353 637 L33 637 L14 534 L334 534 L353 637 Z M238 446 L99 446 L29 0 L168 0 L238 446 Z " />
<glyph glyph-name="Iogonek" unicode="&#x12e;" horiz-adv-x="312" d="M129 -111 C129 -97.6667 134.833 -81 146.5 -61 C158.167 -41 173.667 -20.6667 193 0 L195 0 L299 660 L152 660 L48 0 L101 0 C80.3333 -26.6667 64.5 -52.3333 53.5 -77 C42.5 -101.667 37 -123.667 37 -143 C37 -175 50.8333 -197.833 78.5 -211.5 C106.167 -225.167 146 -226.667 198 -216 L212 -139 C184 -145.667 163.167 -146.334 149.5 -141 C135.833 -135.667 129 -125.667 129 -111 L129 -111 Z " />
<glyph glyph-name="iogonek" unicode="&#x12f;" horiz-adv-x="266" d="M200 664 C178.667 664 159.333 655.667 142 639 C124.667 622.333 116 603 116 581 C116 563.667 122.167 548.667 134.5 536 C146.833 523.333 161.667 517 179 517 C201.667 517 221.667 525.167 239 541.5 C256.333 557.831 265 576.664 265 598 C265 616 258.833 631.5 246.5 644.5 C234.167 657.5 218.667 664 200 664 L200 664 Z M168 0 L238 446 L99 446 L29 0 L74 0 C32 -55.3333 11 -103 11 -143 C11 -175 24.8333 -197.833 52.5 -211.5 C80.1667 -225.167 120 -226.667 172 -216 L186 -139 C158 -145.667 137.167 -146.334 123.5 -141 C109.833 -135.667 103 -125.667 103 -111 C103 -97.6667 108.833 -81 120.5 -61 C132.167 -41 147.667 -20.6667 167 0 L168 0 Z " />
<glyph glyph-name="Idotaccent" unicode="&#x130;" horiz-adv-x="312" d="M251 846 C235.667 846 220.833 841.333 206.5 832 C192.167 822.667 182.167 811.5 176.5 798.5 C170.833 785.5 168 774 168 764 C168 746.667 174 731.833 186 719.5 C198 707.167 212.667 701 230 701 C240.667 701 252.5 703.667 265.5 709 C278.5 714.333 290 723.833 300 737.5 C310 751.167 315 765.667 315 781 C315 799 308.833 814.333 296.5 827 C284.167 839.667 269 846 251 846 L251 846 Z M299 660 L152 660 L48 0 L195 0 L299 660 Z " />
<glyph glyph-name="dotlessi" unicode="&#x131;" horiz-adv-x="266" d="M238 446 L99 446 L29 0 L168 0 L238 446 Z " />
<glyph glyph-name="IJ" unicode="&#x132;" horiz-adv-x="628" d="M299 660 L152 660 L48 0 L195 0 L299 660 Z M616 660 L468 660 L367 17 C360.333 -15 348.667 -42.6667 332 -66 C315.333 -89.3333 295.333 -113.333 272 -138 L375 -236 C421 -192.667 453.5 -152.667 472.5 -116 C491.5 -79.3333 505.667 -30.3333 515 31 L616 660 Z " />
<glyph glyph-name="ij" unicode="&#x133;" horiz-adv-x="543" d="M265 598 C265 616 258.833 631.5 246.5 644.5 C234.167 657.5 218.667 664 200 664 C178.667 664 159.333 655.667 142 639 C124.667 622.333 116 603 116 581 C116 563.667 122.167 548.667 134.5 536 C146.833 523.333 161.667 517 179 517 C201.667 517 221.667 525.167 239 541.5 C256.333 557.831 265 576.664 265 598 L265 598 Z M540 598 C540 616 533.833 631.5 521.5 644.5 C509.167 657.5 493.667 664 475 664 C453.668 664 434.334 655.667 417 639 C399.667 622.333 391 603 391 581 C391 563.667 397.167 548.667 409.5 536 C421.833 523.333 436.667 517 454 517 C476.667 517 496.667 525.167 514 541.5 C531.333 557.831 540 576.664 540 598 L540 598 Z M238 446 L99 446 L29 0 L168 0 L238 446 Z M512 446 L372 446 L304 14 C301.333 -9.33333 293 -32 279 -54 C265 -76 239 -107.667 201 -149 L297 -249 C346.333 -202.333 381.167 -160.667 401.5 -124 C421.833 -87.3333 436.333 -39.6667 445 19 L512 446 Z " />
<glyph glyph-name="Kcommaaccent" unicode="&#x136;" horiz-adv-x="629" d="M152 660 L48 0 L195 0 L299 660 L152 660 Z M677 660 L503 660 L252 341 L424 0 L593 0 L416 341 L677 660 Z M283 -51 C273.667 -51 260 -54.3333 242 -61 L249 -156 L210 -233 L270 -233 L321 -165 C337.667 -143 346 -123.333 346 -106 C346 -89.3333 340.5 -76 329.5 -66 C318.5 -56 303 -51 283 -51 L283 -51 Z " />
<glyph glyph-name="kcommaaccent" unicode="&#x137;" horiz-adv-x="506" d="M273 660 L133 660 L29 0 L169 0 L273 660 Z M526 446 L366 446 L218 246 L316 0 L475 0 L363 241 L526 446 Z M235 -51 C225.667 -51 212 -54.3333 194 -61 L201 -156 L162 -233 L222 -233 L273 -165 C289.667 -143 298 -123.333 298 -106 C298 -89.3333 292.5 -76 281.5 -66 C270.5 -56 255 -51 235 -51 L235 -51 Z " />
<glyph glyph-name="Lacute" unicode="&#x139;" horiz-adv-x="493" d="M285 707 L347 839 L227 839 L182 707 L285 707 Z M302 660 L152 660 L47 0 L457 0 L477 134 L217 134 L302 660 Z " />
<glyph glyph-name="lacute" unicode="&#x13a;" horiz-adv-x="269" d="M269 695 L331 827 L211 827 L166 695 L269 695 Z M275 660 L134 660 L28 0 L171 0 L275 660 Z " />
<glyph glyph-name="Lcommaaccent" unicode="&#x13b;" horiz-adv-x="493" d="M302 660 L152 660 L47 0 L457 0 L477 134 L217 134 L302 660 Z M255 -51 C245.667 -51 232 -54.3333 214 -61 L221 -156 L182 -233 L242 -233 L293 -165 C309.667 -143 318 -123.333 318 -106 C318 -89.3333 312.5 -76 301.5 -66 C290.5 -56 275 -51 255 -51 L255 -51 Z " />
<glyph glyph-name="lcommaaccent" unicode="&#x13c;" horiz-adv-x="269" d="M275 660 L134 660 L28 0 L171 0 L275 660 Z M114 -51 C104.667 -51 91 -54.3333 73 -61 L80 -156 L41 -233 L101 -233 L152 -165 C168.667 -143 177 -123.333 177 -106 C177 -89.3333 171.5 -76 160.5 -66 C149.5 -56 134 -51 114 -51 L114 -51 Z " />
<glyph glyph-name="Lcaron" unicode="&#x13d;" horiz-adv-x="493" d="M302 660 L152 660 L47 0 L457 0 L477 134 L217 134 L302 660 Z M482 660 L378 660 L347 473 L434 473 L482 660 Z " />
<glyph glyph-name="lcaron" unicode="&#x13e;" horiz-adv-x="269" d="M275 660 L134 660 L28 0 L171 0 L275 660 Z M438 660 L334 660 L304 483 L390 483 L438 660 Z " />
<glyph glyph-name="Ldot" unicode="&#x13f;" horiz-adv-x="493" d="M302 660 L152 660 L47 0 L457 0 L477 134 L217 134 L302 660 Z M406 279 C426 279 444.833 284.833 462.5 296.5 C480.167 308.167 492.5 322 499.5 338 C506.5 354 510 368.333 510 381 C510 403.667 502.5 422.667 487.5 438 C472.5 453.333 453.333 461 430 461 C410 461 391.333 455.167 374 443.5 C356.667 431.833 344.5 418 337.5 402 C330.5 386 327 371.333 327 358 C327 336 334.5 317.333 349.5 302 C364.5 286.667 383.333 279 406 279 L406 279 Z " />
<glyph glyph-name="ldot" unicode="&#x140;" horiz-adv-x="393" d="M275 660 L134 660 L28 0 L171 0 L275 660 Z M344 240 C364 240 382.833 245.833 400.5 257.5 C418.167 269.167 430.5 283 437.5 299 C444.5 315 448 329.333 448 342 C448 364.667 440.5 383.667 425.5 399 C410.5 414.333 391.333 422 368 422 C348 422 329.333 416.167 312 404.5 C294.667 392.833 282.5 379 275.5 363 C268.5 347 265 332.333 265 319 C265 297 272.5 278.333 287.5 263 C302.5 247.667 321.333 240 344 240 L344 240 Z " />
<glyph glyph-name="Lslash" unicode="&#x141;" horiz-adv-x="540" d="M261 132 L289 306 L421 359 L438 478 L308 426 L346 660 L199 660 L152 364 L16 310 L-1 190 L133 244 L94 0 L504 0 L524 132 L261 132 Z " />
<glyph glyph-name="lslash" unicode="&#x142;" horiz-adv-x="316" d="M362 477 L271 442 L305 660 L164 660 L120 384 L22 346 L4 232 L101 269 L58 0 L201 0 L253 327 L345 363 L362 477 Z " />
<glyph glyph-name="Nacute" unicode="&#x143;" horiz-adv-x="741" d="M555 839 L435 839 L390 707 L493 707 L555 839 Z M581 660 L512 214 L504 150 L494 191 L376 660 L148 660 L44 0 L193 0 L259 418 C263.667 441.333 267 466.667 269 494 L396 0 L627 0 L731 660 L581 660 Z " />
<glyph glyph-name="nacute" unicode="&#x144;" horiz-adv-x="536" d="M427 660 L307 660 L259 521 L362 521 L427 660 Z M376 457 C312.667 457 261 435.333 221 392 L229 446 L99 446 L28 0 L165 0 L213 304 C239.667 330 268.333 343 299 343 C335.667 343 351.667 326.667 347 294 L300 0 L438 0 L493 347 C497 373 493.5 394.667 482.5 412 C471.5 429.333 455.833 441.167 435.5 447.5 C415.167 453.833 395.334 457 376 457 L376 457 Z " />
<glyph glyph-name="Ncommaaccent" unicode="&#x145;" horiz-adv-x="741" d="M581 660 L512 214 L504 150 L494 191 L376 660 L148 660 L44 0 L193 0 L259 418 C263.667 441.333 267 466.667 269 494 L396 0 L627 0 L731 660 L581 660 Z M321 -51 C311.667 -51 298 -54.3333 280 -61 L287 -156 L248 -233 L308 -233 L359 -165 C375.667 -143 384 -123.333 384 -106 C384 -89.3333 378.5 -76 367.5 -66 C356.5 -56 341 -51 321 -51 L321 -51 Z " />
<glyph glyph-name="ncommaaccent" unicode="&#x146;" horiz-adv-x="536" d="M376 457 C312.667 457 261 435.333 221 392 L229 446 L99 446 L28 0 L165 0 L213 304 C239.667 330 268.333 343 299 343 C335.667 343 351.667 326.667 347 294 L300 0 L438 0 L493 347 C497 373 493.5 394.667 482.5 412 C471.5 429.333 455.833 441.167 435.5 447.5 C415.167 453.833 395.334 457 376 457 L376 457 Z M228 -51 C218.667 -51 205 -54.3333 187 -61 L194 -156 L155 -233 L215 -233 L266 -165 C282.667 -143 291 -123.333 291 -106 C291 -89.3333 285.5 -76 274.5 -66 C263.5 -56 248 -51 228 -51 L228 -51 Z " />
<glyph glyph-name="Ncaron" unicode="&#x147;" horiz-adv-x="741" d="M499 707 L589 839 L492 839 L448 769 L416 839 L321 839 L386 707 L499 707 Z M581 660 L512 214 L504 150 L494 191 L376 660 L148 660 L44 0 L193 0 L259 418 C263.667 441.333 267 466.667 269 494 L396 0 L627 0 L731 660 L581 660 Z " />
<glyph glyph-name="ncaron" unicode="&#x148;" horiz-adv-x="536" d="M372 520 L470 660 L373 660 L322 581 L286 660 L191 660 L259 520 L372 520 Z M376 457 C312.667 457 261 435.333 221 392 L229 446 L99 446 L28 0 L165 0 L213 304 C239.667 330 268.333 343 299 343 C335.667 343 351.667 326.667 347 294 L300 0 L438 0 L493 347 C497 373 493.5 394.667 482.5 412 C471.5 429.333 455.833 441.167 435.5 447.5 C415.167 453.833 395.334 457 376 457 L376 457 Z " />
<glyph glyph-name="Eng" unicode="&#x14a;" horiz-adv-x="742" d="M732 660 L582 660 L513 214 L505 150 L495 191 L377 660 L149 660 L45 0 L194 0 L260 418 C264.667 441.333 268 466.667 270 494 L397 0 L488 0 C482.667 -24 471 -47.6667 453 -71 C435 -94.3333 413 -120.333 387 -149 L483 -249 C530.332 -204.333 564.166 -164.667 584.5 -130 C604.833 -95.3333 619.333 -52 628 0 L629 7 L631 19 L635 43 L732 660 Z " />
<glyph glyph-name="eng" unicode="&#x14b;" horiz-adv-x="536" d="M376 457 C312.667 457 261 435.333 221 392 L229 446 L99 446 L28 0 L165 0 L213 304 C239.667 330 268.333 343 299 343 C335.667 343 351.667 326.667 347 294 L302 14 C297.333 -15.3333 286 -42.1667 268 -66.5 C250 -90.8333 227 -118.333 199 -149 L294 -248 C326 -218 351 -191.333 369 -168 C387 -144.667 401.667 -118.833 413 -90.5 C424.333 -62.1667 433.667 -25.6667 441 19 L493 347 C497 373 493.5 394.667 482.5 412 C471.5 429.333 455.833 441.167 435.5 447.5 C415.167 453.833 395.334 457 376 457 L376 457 Z " />
<glyph glyph-name="Omacron" unicode="&#x14c;" horiz-adv-x="766" d="M629 825 L309 825 L290 722 L610 722 L629 825 Z M433 675 C375.667 675 323.833 666 277.5 648 C231.167 630 192.167 604.167 160.5 570.5 C128.833 536.833 104.667 496.167 88 448.5 C71.3333 400.833 63 348.667 63 292 C63 240.667 69.8333 195.5 83.5 156.5 C97.1666 117.5 116.833 85.3333 142.5 60 C168.167 34.6667 199.833 15.8333 237.5 3.5 C275.167 -8.83333 317.667 -15 365 -15 C422.333 -15 474.333 -6 521 12 C567.667 30 607 55.6667 639 89 C671 122.333 695.333 162.5 712 209.5 C728.667 256.5 737 308.333 737 365 C737 415.667 730.167 460.667 716.5 500 C702.833 539.333 683 571.833 657 597.5 C631 623.167 599 642.5 561 655.5 C523 668.5 480.333 675 433 675 L433 675 Z M429 546 C480.333 546 518.167 531.333 542.5 502 C566.833 472.667 579 427 579 365 C579 287.667 560.833 226.833 524.5 182.5 C488.167 138.167 436.334 116 369 116 C317.667 116 280.334 130.167 257 158.5 C233.667 186.833 222 231.333 222 292 C222 340 228.167 380.5 240.5 413.5 C252.833 446.5 268.833 472.833 288.5 492.5 C308.167 512.167 330.333 526 355 534 C379.666 542 404.333 546 429 546 L429 546 Z " />
<glyph glyph-name="omacron" unicode="&#x14d;" horiz-adv-x="524" d="M479 637 L159 637 L140 534 L460 534 L479 637 Z M293 455 C254.333 455 220.5 449.333 191.5 438 C162.5 426.667 138.5 413.167 119.5 397.5 C100.5 381.833 84.1667 363.5 70.5 342.5 C56.8333 321.5 46.5 297.833 39.5 271.5 C32.5 245.167 29 217.667 29 189 C29 123.667 46.5 74.1667 81.5 40.5 C116.5 6.83333 167.333 -10 234 -10 C274 -10 310.5 -3.83333 343.5 8.5 C376.5 20.8333 404.167 38.5 426.5 61.5 C448.833 84.5 465.833 112.167 477.5 144.5 C489.167 176.833 495 212 495 250 C495 317.333 477.333 368.333 442 403 C406.667 437.667 357 455 293 455 L293 455 Z M246 101 C190.667 101 163 134.333 163 201 C163 243 173.5 277.333 194.5 304 C215.5 330.667 243.333 344 278 344 C331.333 344 358 310 358 242 C358 200.667 348.333 166.833 329 140.5 C309.667 114.167 282 101 246 101 L246 101 Z " />
<glyph glyph-name="Ohungarumlaut" unicode="&#x150;" horiz-adv-x="766" d="M428 707 L490 839 L370 839 L325 707 L428 707 Z M588 707 L650 839 L530 839 L485 707 L588 707 Z M433 675 C375.667 675 323.833 666 277.5 648 C231.167 630 192.167 604.167 160.5 570.5 C128.833 536.833 104.667 496.167 88 448.5 C71.3333 400.833 63 348.667 63 292 C63 240.667 69.8333 195.5 83.5 156.5 C97.1666 117.5 116.833 85.3333 142.5 60 C168.167 34.6667 199.833 15.8333 237.5 3.5 C275.167 -8.83333 317.667 -15 365 -15 C422.333 -15 474.333 -6 521 12 C567.667 30 607 55.6667 639 89 C671 122.333 695.333 162.5 712 209.5 C728.667 256.5 737 308.333 737 365 C737 415.667 730.167 460.667 716.5 500 C702.833 539.333 683 571.833 657 597.5 C631 623.167 599 642.5 561 655.5 C523 668.5 480.333 675 433 675 L433 675 Z M429 546 C480.333 546 518.167 531.333 542.5 502 C566.833 472.667 579 427 579 365 C579 287.667 560.833 226.833 524.5 182.5 C488.167 138.167 436.334 116 369 116 C317.667 116 280.334 130.167 257 158.5 C233.667 186.833 222 231.333 222 292 C222 340 228.167 380.5 240.5 413.5 C252.833 446.5 268.833 472.833 288.5 492.5 C308.167 512.167 330.333 526 355 534 C379.666 542 404.333 546 429 546 L429 546 Z " />
<glyph glyph-name="ohungarumlaut" unicode="&#x151;" horiz-adv-x="524" d="M342 660 L222 660 L174 521 L277 521 L342 660 Z M499 660 L379 660 L331 521 L434 521 L499 660 Z M293 455 C254.333 455 220.5 449.333 191.5 438 C162.5 426.667 138.5 413.167 119.5 397.5 C100.5 381.833 84.1667 363.5 70.5 342.5 C56.8333 321.5 46.5 297.833 39.5 271.5 C32.5 245.167 29 217.667 29 189 C29 123.667 46.5 74.1667 81.5 40.5 C116.5 6.83333 167.333 -10 234 -10 C274 -10 310.5 -3.83333 343.5 8.5 C376.5 20.8333 404.167 38.5 426.5 61.5 C448.833 84.5 465.833 112.167 477.5 144.5 C489.167 176.833 495 212 495 250 C495 317.333 477.333 368.333 442 403 C406.667 437.667 357 455 293 455 L293 455 Z M246 101 C190.667 101 163 134.333 163 201 C163 243 173.5 277.333 194.5 304 C215.5 330.667 243.333 344 278 344 C331.333 344 358 310 358 242 C358 200.667 348.333 166.833 329 140.5 C309.667 114.167 282 101 246 101 L246 101 Z " />
<glyph glyph-name="OE" unicode="&#x152;" horiz-adv-x="949" d="M936 531 L957 660 L562 660 C522.667 667.333 481.667 671 439 671 C373.667 671 316.5 660.167 267.5 638.5 C218.5 616.833 178.833 587.5 148.5 550.5 C118.167 513.5 96 471.5 82 424.5 C68 377.5 61.3333 328.667 62 278 C63.3333 183.333 89.6667 111.5 141 62.5 C192.333 13.5 267 -11 365 -11 C404.333 -11 441.667 -7.33333 477 0 L863 0 L884 128 L619 128 L642 272 L878 272 L898 401 L663 401 L683 531 L936 531 Z M221 296 C221 342.666 227 381.833 239 413.5 C251 445.167 267 470.5 287 489.5 C307 508.5 330 521.833 356 529.5 C382 537.167 408.333 541 435 541 C471 541 505 536.333 537 527 L474 130 C441.333 122 408.333 118 375 118 C317.667 118 277.667 133 255 163 C232.333 193 221 237.333 221 296 L221 296 Z " />
<glyph glyph-name="oe" unicode="&#x153;" horiz-adv-x="800" d="M762 181 C767.333 209.667 770 243.333 770 282 C770 338.667 755.167 381.667 725.5 411 C695.833 440.333 652 455 594 455 C531.334 455 479 435.667 437 397 C399.667 435.667 348.667 455 284 455 C246.667 455 212 448.5 180 435.5 C148 422.5 120.833 404.167 98.5 380.5 C76.1667 356.833 59 328.5 47 295.5 C35 262.5 29 227.333 29 190 C29 124.667 46.6667 75 82 41 C117.333 7 167.333 -10 232 -10 C264 -10 291.833 -5.66667 315.5 3 C339.167 11.6667 363.333 25.3333 388 44 C418 7.33333 469.333 -11 542 -11 C603.333 -11 667.666 -3 735 13 L719 114 C663 100 611.667 93 565 93 C532.333 93 509.833 99.3333 497.5 112 C485.167 124.667 479 146.333 479 177 L479 181 L762 181 Z M582 353 C602 353 617.667 347.333 629 336 C640.333 324.667 646 308.334 646 287 L644 269 L492 269 C497.333 286.333 504.667 301.833 514 315.5 C523.332 329.165 534.166 338.832 546.5 344.5 C558.829 350.167 570.662 353 582 353 L582 353 Z M246 101 C190.667 101 163 134.667 163 202 C163 232.667 168.5 258.833 179.5 280.5 C190.5 302.167 204.167 318.167 220.5 328.5 C236.833 338.833 255.666 344 277 344 C331 344 358 309.667 358 241 C358 200.333 348.5 166.833 329.5 140.5 C310.5 114.167 282.667 101 246 101 L246 101 Z " />
<glyph glyph-name="Racute" unicode="&#x154;" horiz-adv-x="614" d="M452 839 L332 839 L287 707 L390 707 L452 839 Z M578 0 L457 266 C483 282.667 505.667 303.5 525 328.5 C544.333 353.5 557.5 379.5 564.5 406.5 C571.5 433.5 575 458 575 480 C575 518.667 567 551 551 577 C535 603 510.833 623.5 478.5 638.5 C446.167 653.5 404.334 661 353 661 C275.667 661 209.333 659.667 154 657 L47 0 L191 0 L226 221 C247.333 219 266 218 282 218 C299.333 218 316 219 332 221 L414 0 L578 0 Z M246 345 L276 537 L317 538 C354.333 538 380.667 532 396 520 C411.333 508 419 488 419 460 C419 423.333 407.333 394.667 384 374 C360.667 353.333 328.667 343 288 343 L246 345 Z " />
<glyph glyph-name="racute" unicode="&#x155;" horiz-adv-x="365" d="M298 521 L363 660 L243 660 L195 521 L298 521 Z M378 331 L397 452 C386.333 454 372 455 354 455 C304.667 455 262.333 435 227 395 L235 446 L99 446 L30 0 L172 0 L217 284 C232.333 299.333 252 311.333 276 320 C300 328.667 325 332.667 351 332 L378 331 Z " />
<glyph glyph-name="Rcommaaccent" unicode="&#x156;" horiz-adv-x="614" d="M578 0 L457 266 C483 282.667 505.667 303.5 525 328.5 C544.333 353.5 557.5 379.5 564.5 406.5 C571.5 433.5 575 458 575 480 C575 518.667 567 551 551 577 C535 603 510.833 623.5 478.5 638.5 C446.167 653.5 404.334 661 353 661 C275.667 661 209.333 659.667 154 657 L47 0 L191 0 L226 221 C247.333 219 266 218 282 218 C299.333 218 316 219 332 221 L414 0 L578 0 Z M246 345 L276 537 L317 538 C354.333 538 380.667 532 396 520 C411.333 508 419 488 419 460 C419 423.333 407.333 394.667 384 374 C360.667 353.333 328.667 343 288 343 L246 345 Z M250 -51 C240.667 -51 227 -54.3333 209 -61 L216 -156 L177 -233 L237 -233 L288 -165 C304.667 -143 313 -123.333 313 -106 C313 -89.3333 307.5 -76 296.5 -66 C285.5 -56 270 -51 250 -51 L250 -51 Z " />
<glyph glyph-name="rcommaaccent" unicode="&#x157;" horiz-adv-x="365" d="M378 331 L397 452 C386.333 454 372 455 354 455 C304.667 455 262.333 435 227 395 L235 446 L99 446 L30 0 L172 0 L217 284 C232.333 299.333 252 311.333 276 320 C300 328.667 325 332.667 351 332 L378 331 Z M87 -51 C77.6667 -51 64 -54.3333 46 -61 L53 -156 L14 -233 L74 -233 L125 -165 C141.667 -143 150 -123.333 150 -106 C150 -89.3333 144.5 -76 133.5 -66 C122.5 -56 107 -51 87 -51 L87 -51 Z " />
<glyph glyph-name="Rcaron" unicode="&#x158;" horiz-adv-x="614" d="M396 707 L486 839 L389 839 L346 769 L313 839 L218 839 L283 707 L396 707 Z M578 0 L457 266 C483 282.667 505.667 303.5 525 328.5 C544.333 353.5 557.5 379.5 564.5 406.5 C571.5 433.5 575 458 575 480 C575 518.667 567 551 551 577 C535 603 510.833 623.5 478.5 638.5 C446.167 653.5 404.334 661 353 661 C275.667 661 209.333 659.667 154 657 L47 0 L191 0 L226 221 C247.333 219 266 218 282 218 C299.333 218 316 219 332 221 L414 0 L578 0 Z M246 345 L276 537 L317 538 C354.333 538 380.667 532 396 520 C411.333 508 419 488 419 460 C419 423.333 407.333 394.667 384 374 C360.667 353.333 328.667 343 288 343 L246 345 Z " />
<glyph glyph-name="rcaron" unicode="&#x159;" horiz-adv-x="365" d="M307 520 L405 660 L308 660 L257 581 L221 660 L126 660 L194 520 L307 520 Z M227 395 L235 446 L99 446 L30 0 L172 0 L217 284 C232.333 299.333 252 311.333 276 320 C300 328.667 325 332.667 351 332 L378 331 L397 452 C386.333 454 372 455 354 455 C304.667 455 262.333 435 227 395 L227 395 Z " />
<glyph glyph-name="Sacute" unicode="&#x15a;" horiz-adv-x="483" d="M358 707 L420 839 L300 839 L255 707 L358 707 Z M297 669 C229.667 669 176.5 651.667 137.5 617 C98.5 582.334 79 535.668 79 477 C79 466.333 80 453.833 82 439.5 C84 425.167 90.5 407.334 101.5 386 C112.5 364.667 142.667 333.334 192 292 C240.667 250.667 269.333 224 278 212 C286.667 200 291 188.667 291 178 C291 160 282.667 146 266 136 C249.333 126 226.667 121 198 121 C170 121 127.333 127 70 139 L42 11 C102 -2.33333 152 -9 192 -9 C267.333 -9 327.5 8.83333 372.5 44.5 C417.5 80.1667 440 128.667 440 190 C440 208.667 438 224.333 434 237 C430 249.667 424.333 261.5 417 272.5 C409.667 283.5 400 295 388 307 C376 319 353.667 339.333 321 368 C271 411.333 242.833 438.167 236.5 448.5 C230.167 458.833 227 468.667 227 478 C227 520 252.333 541 303 541 C336.333 541 377.667 534.667 427 522 L454 645 C428.667 652.332 401.5 658.165 372.5 662.5 C343.5 666.833 318.333 669 297 669 L297 669 Z " />
<glyph glyph-name="sacute" unicode="&#x15b;" horiz-adv-x="393" d="M287 521 L352 660 L232 660 L184 521 L287 521 Z M214 457 C182 457 153.333 450.667 128 438 C102.667 425.333 84 407.333 72 384 C60 360.667 54 336.333 54 311 C54 291 57 274.167 63 260.5 C69 246.833 75.6667 236 83 228 C90.3333 220 98.6667 212.667 108 206 C117.333 199.333 133.333 190.833 156 180.5 C178.667 170.167 192.333 163.667 197 161 C201.667 158.333 206 154.833 210 150.5 C214 146.167 216 141 216 135 C216 127.667 212.5 121 205.5 115 C198.5 109 187 106 171 106 C156.333 106 136.667 108.5 112 113.5 C87.3333 118.5 67 123.333 51 128 L24 15 C82 -1 130.667 -9 170 -9 C228.667 -9 273 3.33333 303 28 C333 52.6666 348 87.6666 348 133 C348 155 344.833 173.333 338.5 188 C332.167 202.667 325.167 214 317.5 222 C309.833 230 301.167 237.333 291.5 244 C281.833 250.667 265.167 258.833 241.5 268.5 C217.833 278.165 203.5 284.331 198.5 287 C193.5 289.667 189 293.167 185 297.5 C181 301.833 179 307.333 179 314 C179 332.667 194.667 342 226 342 C257.333 342 297 334.667 345 320 L371 432 C310.333 448.667 258 457 214 457 L214 457 Z " />
<glyph glyph-name="Scedilla" unicode="&#x15e;" horiz-adv-x="483" d="M321 368 C271 411.333 242.833 438.167 236.5 448.5 C230.167 458.833 227 468.667 227 478 C227 520 252.333 541 303 541 C336.333 541 377.667 534.667 427 522 L454 645 C428.667 652.332 401.5 658.165 372.5 662.5 C343.5 666.833 318.333 669 297 669 C229.667 669 176.5 651.667 137.5 617 C98.5 582.334 79 535.668 79 477 C79 466.333 80 453.833 82 439.5 C84 425.167 90.5 407.334 101.5 386 C112.5 364.667 142.667 333.334 192 292 C240.667 250.667 269.333 224 278 212 C286.667 200 291 188.667 291 178 C291 160 282.667 146 266 136 C249.333 126 226.667 121 198 121 C170 121 127.333 127 70 139 L42 11 C84.6667 1.66667 118.333 -4 143 -6 L142 -21 C140.667 -37 142.5 -49.1667 147.5 -57.5 C152.5 -65.8333 159.667 -73 169 -79 C170.333 -79.6667 173.166 -81.5 177.5 -84.5 C181.833 -87.5 185.333 -90 188 -92 C190.667 -94 193.167 -96.1667 195.5 -98.5 C197.833 -100.833 199.5 -103.333 200.5 -106 C201.5 -108.667 202 -111 202 -113 C200.667 -121 196.333 -127 189 -131 C181.667 -135 168.333 -137 149 -137 L125 -135 L113 -211 C123 -213 136.667 -214 154 -214 C195.333 -214 226.833 -206.333 248.5 -191 C270.166 -175.667 283.332 -151.333 288 -118 C290 -99.3333 287.5 -84.5 280.5 -73.5 C273.5 -62.5 261.667 -51 245 -39 C233.667 -31.6667 228 -21.3333 228 -8 C293.333 -2 345 18.5 383 53.5 C421 88.5 440 134 440 190 C440 208.667 438 224.333 434 237 C430 249.667 424.333 261.5 417 272.5 C409.667 283.5 400 295 388 307 C376 319 353.667 339.333 321 368 L321 368 Z " />
<glyph glyph-name="scedilla" unicode="&#x15f;" horiz-adv-x="393" d="M179 314 C179 332.667 194.667 342 226 342 C257.333 342 297 334.667 345 320 L371 432 C310.333 448.667 258 457 214 457 C182 457 153.333 450.667 128 438 C102.667 425.333 84 407.333 72 384 C60 360.667 54 336.333 54 311 C54 291 57 274.167 63 260.5 C69 246.833 75.6667 236 83 228 C90.3333 220 98.6667 212.667 108 206 C117.333 199.333 133.333 190.833 156 180.5 C178.667 170.167 192.333 163.667 197 161 C201.667 158.333 206 154.833 210 150.5 C214 146.167 216 141 216 135 C216 127.667 212.5 121 205.5 115 C198.5 109 187 106 171 106 C156.333 106 136.667 108.5 112 113.5 C87.3333 118.5 67 123.333 51 128 L24 15 C56 6.33333 86 -0.333328 114 -5 L113 -21 C111.667 -37 113.5 -49.1667 118.5 -57.5 C123.5 -65.8333 130.666 -73 140 -79 C141.332 -79.6667 144.166 -81.5 148.5 -84.5 C152.833 -87.5 156.333 -90 159 -92 C161.667 -94 164.167 -96.1667 166.5 -98.5 C168.833 -100.833 170.5 -103.333 171.5 -106 C172.5 -108.667 173 -111 173 -113 C171.667 -121 167.333 -127 160 -131 C152.667 -135 139.333 -137 120 -137 L96 -135 L84 -211 C94 -213 107.667 -214 125 -214 C166.333 -214 197.833 -206.333 219.5 -191 C241.167 -175.667 254.333 -151.333 259 -118 C261 -99.3333 258.5 -84.5 251.5 -73.5 C244.5 -62.5 232.667 -51 216 -39 C204.667 -31.6667 199 -21.3333 199 -8 C248.333 -4 285.5 10.1667 310.5 34.5 C335.5 58.8333 348 91.6667 348 133 C348 155 344.833 173.333 338.5 188 C332.167 202.667 325.167 214 317.5 222 C309.833 230 301.167 237.333 291.5 244 C281.833 250.667 265.167 258.833 241.5 268.5 C217.833 278.165 203.5 284.331 198.5 287 C193.5 289.667 189 293.167 185 297.5 C181 301.833 179 307.333 179 314 L179 314 Z " />
<glyph glyph-name="Scaron" unicode="&#x160;" horiz-adv-x="483" d="M364 707 L454 839 L357 839 L313 769 L281 839 L186 839 L251 707 L364 707 Z M303 541 C336.333 541 377.667 534.667 427 522 L454 645 C428.667 652.332 401.5 658.165 372.5 662.5 C343.5 666.833 318.333 669 297 669 C229.667 669 176.5 651.667 137.5 617 C98.5 582.334 79 535.668 79 477 C79 466.333 80 453.833 82 439.5 C84 425.167 90.5 407.334 101.5 386 C112.5 364.667 142.667 333.334 192 292 C240.667 250.667 269.333 224 278 212 C286.667 200 291 188.667 291 178 C291 160 282.667 146 266 136 C249.333 126 226.667 121 198 121 C170 121 127.333 127 70 139 L42 11 C102 -2.33333 152 -9 192 -9 C267.333 -9 327.5 8.83333 372.5 44.5 C417.5 80.1667 440 128.667 440 190 C440 208.667 438 224.333 434 237 C430 249.667 424.333 261.5 417 272.5 C409.667 283.5 400 295 388 307 C376 319 353.667 339.333 321 368 C271 411.333 242.833 438.167 236.5 448.5 C230.167 458.833 227 468.667 227 478 C227 520 252.333 541 303 541 L303 541 Z " />
<glyph glyph-name="scaron" unicode="&#x161;" horiz-adv-x="393" d="M297 520 L395 660 L298 660 L247 581 L211 660 L116 660 L184 520 L297 520 Z M226 342 C257.333 342 297 334.667 345 320 L371 432 C310.333 448.667 258 457 214 457 C182 457 153.333 450.667 128 438 C102.667 425.333 84 407.333 72 384 C60 360.667 54 336.333 54 311 C54 291 57 274.167 63 260.5 C69 246.833 75.6667 236 83 228 C90.3333 220 98.6667 212.667 108 206 C117.333 199.333 133.333 190.833 156 180.5 C178.667 170.167 192.333 163.667 197 161 C201.667 158.333 206 154.833 210 150.5 C214 146.167 216 141 216 135 C216 127.667 212.5 121 205.5 115 C198.5 109 187 106 171 106 C156.333 106 136.667 108.5 112 113.5 C87.3333 118.5 67 123.333 51 128 L24 15 C82 -1 130.667 -9 170 -9 C228.667 -9 273 3.33333 303 28 C333 52.6666 348 87.6666 348 133 C348 155 344.833 173.333 338.5 188 C332.167 202.667 325.167 214 317.5 222 C309.833 230 301.167 237.333 291.5 244 C281.833 250.667 265.167 258.833 241.5 268.5 C217.833 278.165 203.5 284.331 198.5 287 C193.5 289.667 189 293.167 185 297.5 C181 301.833 179 307.333 179 314 C179 332.667 194.667 342 226 342 L226 342 Z " />
<glyph glyph-name="Tcommaaccent" unicode="&#x162;" horiz-adv-x="570" d="M327 0 L411 531 L618 531 L638 660 L70 660 L51 531 L263 531 L179 0 L209 0 L207 -21 C205.667 -37 207.5 -49.1667 212.5 -57.5 C217.5 -65.8333 224.667 -73 234 -79 C235.332 -79.6667 238.165 -81.5 242.5 -84.5 C246.833 -87.5 250.333 -90 253 -92 C255.667 -94 258.167 -96.1667 260.5 -98.5 C262.833 -100.833 264.5 -103.333 265.5 -106 C266.5 -108.667 267 -111 267 -113 C265.669 -121 261.335 -127 254 -131 C246.667 -135 233.333 -137 214 -137 L190 -135 L178 -211 C188 -213 201.667 -214 219 -214 C260.333 -214 291.833 -206.333 313.5 -191 C335.166 -175.667 348.333 -151.333 353 -118 C355 -99.3333 352.5 -84.5 345.5 -73.5 C338.5 -62.5 326.667 -51 310 -39 C296.667 -29.6667 291 -16.6667 293 0 L327 0 Z " />
<glyph glyph-name="tcommaaccent" unicode="&#x163;" horiz-adv-x="346" d="M238 332 L350 332 L369 446 L256 446 L278 584 L146 584 L123 446 L49 446 L30 332 L104 332 L70 124 C64 91.3333 66.1667 64.3333 76.5 43 C86.8333 21.6667 104 7.33333 128 0 L126 -21 C124.667 -37 126.5 -49.1667 131.5 -57.5 C136.5 -65.8333 143.667 -73 153 -79 C154.333 -79.6667 157.166 -81.5 161.5 -84.5 C165.833 -87.5 169.333 -90 172 -92 C174.667 -94 177.167 -96.1667 179.5 -98.5 C181.833 -100.833 183.5 -103.333 184.5 -106 C185.5 -108.667 186 -111 186 -113 C184.667 -121 180.333 -127 173 -131 C165.667 -135 152.333 -137 133 -137 L109 -135 L97 -211 C107 -213 120.667 -214 138 -214 C179.333 -214 210.833 -206.333 232.5 -191 C254.167 -175.667 267.333 -151.333 272 -118 C274 -99.3333 271.5 -84.5 264.5 -73.5 C257.5 -62.5 245.667 -51 229 -39 C217.667 -30.3333 212 -19.3333 212 -6 C245.333 -4 278 0 310 6 L302 119 C279.333 115.667 259.667 114 243 114 C224.333 114 214 118.667 212 128 C210 137.333 210 149.667 212 165 L238 332 Z " />
<glyph glyph-name="Tcaron" unicode="&#x164;" horiz-adv-x="570" d="M416 707 L506 839 L409 839 L365 769 L333 839 L238 839 L303 707 L416 707 Z M638 660 L70 660 L51 531 L263 531 L179 0 L327 0 L411 531 L618 531 L638 660 Z " />
<glyph glyph-name="tcaron" unicode="&#x165;" horiz-adv-x="346" d="M350 660 L320 483 L406 483 L454 660 L350 660 Z M278 584 L146 584 L123 446 L49 446 L30 332 L104 332 L70 124 C62.6667 81.3333 68.3333 48.8333 87 26.5 C105.667 4.16667 136.333 -7 179 -7 C224.333 -7 268 -2.66667 310 6 L302 119 C279.333 115.667 259.667 114 243 114 C224.333 114 214 118.667 212 128 C210 137.333 210 149.667 212 165 L238 332 L350 332 L369 446 L256 446 L278 584 Z " />
<glyph glyph-name="Tbar" unicode="&#x166;" horiz-adv-x="570" d="M618 531 L638 660 L70 660 L51 531 L263 531 L239 376 L154 376 L135 273 L222 273 L179 0 L327 0 L370 273 L455 273 L474 376 L386 376 L411 531 L618 531 Z " />
<glyph glyph-name="tbar" unicode="&#x167;" horiz-adv-x="346" d="M350 332 L369 446 L256 446 L278 584 L146 584 L123 446 L49 446 L30 332 L104 332 L96 280 L30 280 L16 200 L83 200 L70 124 C62.6667 81.3333 68.3333 48.8333 87 26.5 C105.667 4.16667 136.333 -7 179 -7 C224.333 -7 268 -2.66667 310 6 L302 119 C279.333 115.667 259.667 114 243 114 C224.333 114 214 118.667 212 128 C210 137.333 210 149.667 212 165 L218 200 L316 200 L330 280 L230 280 L238 332 L350 332 Z " />
<glyph glyph-name="Umacron" unicode="&#x16a;" horiz-adv-x="725" d="M615 825 L295 825 L276 722 L596 722 L615 825 Z M710 660 L561 660 L493 234 C487.667 199.334 479.167 174.667 467.5 160 C455.833 145.333 440.5 135.333 421.5 130 C402.5 124.667 376.333 122 343 122 C298.333 122 267.667 131 251 149 C234.333 167 229.333 197 236 239 L303 660 L152 660 L81 206 C75 166.667 76.3333 132.833 85 104.5 C93.6667 76.1667 109 53.5 131 36.5 C153 19.5 181.167 7.16667 215.5 -0.5 C249.833 -8.16667 290.333 -12 337 -12 C398.333 -12 449.167 -5.66667 489.5 7 C529.832 19.6667 562.666 40.1667 588 68.5 C613.333 96.8333 630 137.333 638 190 L710 660 Z " />
<glyph glyph-name="umacron" unicode="&#x16b;" horiz-adv-x="535" d="M487 637 L167 637 L148 534 L468 534 L487 637 Z M368 446 L319 138 C295 114.667 269.333 103 242 103 C202.667 103 186.333 125.333 193 170 L238 446 L98 446 L45 109 C39 71 47 41.5 69 20.5 C91 -0.5 124.333 -11 169 -11 C228.333 -11 276.667 10 314 52 L307 0 L436 0 L507 446 L368 446 Z " />
<glyph glyph-name="Uring" unicode="&#x16e;" horiz-adv-x="725" d="M452 869 C430 869 409.667 863 391 851 C372.333 839 359.333 824.667 352 808 C344.667 791.333 341 776 341 762 C341 736.667 349.5 715.5 366.5 698.5 C383.5 681.5 405 673 431 673 C453 673 473.167 679 491.5 691 C509.833 703 522.667 717.333 530 734 C537.333 750.667 541 766 541 780 C541 805.333 532.667 826.5 516 843.5 C499.333 860.5 478 869 452 869 L452 869 Z M439 731 C428.333 731 419.5 734.333 412.5 741 C405.5 747.667 402 756.333 402 767 C402 779 406.167 789.167 414.5 797.5 C422.833 805.833 433.333 810 446 810 C457.333 810 466.167 806.667 472.5 800 C478.833 793.339 482 784.673 482 774 C482 762 477.833 751.833 469.5 743.5 C461.167 735.167 451 731 439 731 L439 731 Z M710 660 L561 660 L493 234 C487.667 199.334 479.167 174.667 467.5 160 C455.833 145.333 440.5 135.333 421.5 130 C402.5 124.667 376.333 122 343 122 C298.333 122 267.667 131 251 149 C234.333 167 229.333 197 236 239 L303 660 L152 660 L81 206 C75 166.667 76.3333 132.833 85 104.5 C93.6667 76.1667 109 53.5 131 36.5 C153 19.5 181.167 7.16667 215.5 -0.5 C249.833 -8.16667 290.333 -12 337 -12 C398.333 -12 449.167 -5.66667 489.5 7 C529.832 19.6667 562.666 40.1667 588 68.5 C613.333 96.8333 630 137.333 638 190 L710 660 Z " />
<glyph glyph-name="uring" unicode="&#x16f;" horiz-adv-x="535" d="M308 502 C329.333 502 349 507.5 367 518.5 C385 529.5 399.167 543.333 409.5 560 C419.833 576.667 426 595.333 428 616 C429.333 636 425 654.5 415 671.5 C405 688.5 392.5 700.5 377.5 707.5 C362.5 714.5 348.667 718 336 718 C310 718 286.5 711 265.5 697 C244.5 683 230.167 666.5 222.5 647.5 C214.833 628.5 211 611.333 211 596 C211 584 214.333 570.5 221 555.5 C227.667 540.5 239 527.833 255 517.5 C271 507.167 288.667 502 308 502 L308 502 Z M324 655 C335.333 655 345.333 651.167 354 643.5 C362.667 635.833 367 626.333 367 615 C367 600.333 362 588 352 578 C342 568 330.667 563 318 563 C306 563 295.667 567 287 575 C278.333 583 274 592.667 274 604 C274 618 279 630 289 640 C299 650 310.667 655 324 655 L324 655 Z M368 446 L319 138 C295 114.667 269.333 103 242 103 C202.667 103 186.333 125.333 193 170 L238 446 L98 446 L45 109 C39 71 47 41.5 69 20.5 C91 -0.5 124.333 -11 169 -11 C228.333 -11 276.667 10 314 52 L307 0 L436 0 L507 446 L368 446 Z " />
<glyph glyph-name="Uhungarumlaut" unicode="&#x170;" horiz-adv-x="725" d="M414 707 L476 839 L356 839 L311 707 L414 707 Z M574 707 L636 839 L516 839 L471 707 L574 707 Z M710 660 L561 660 L493 234 C487.667 199.334 479.167 174.667 467.5 160 C455.833 145.333 440.5 135.333 421.5 130 C402.5 124.667 376.333 122 343 122 C298.333 122 267.667 131 251 149 C234.333 167 229.333 197 236 239 L303 660 L152 660 L81 206 C75 166.667 76.3333 132.833 85 104.5 C93.6667 76.1667 109 53.5 131 36.5 C153 19.5 181.167 7.16667 215.5 -0.5 C249.833 -8.16667 290.333 -12 337 -12 C398.333 -12 449.167 -5.66667 489.5 7 C529.832 19.6667 562.666 40.1667 588 68.5 C613.333 96.8333 630 137.333 638 190 L710 660 Z " />
<glyph glyph-name="uhungarumlaut" unicode="&#x171;" horiz-adv-x="535" d="M350 660 L230 660 L182 521 L285 521 L350 660 Z M442 521 L507 660 L387 660 L339 521 L442 521 Z M319 138 C295 114.667 269.333 103 242 103 C202.667 103 186.333 125.333 193 170 L238 446 L98 446 L45 109 C39 71 47 41.5 69 20.5 C91 -0.5 124.333 -11 169 -11 C228.333 -11 276.667 10 314 52 L307 0 L436 0 L507 446 L368 446 L319 138 Z " />
<glyph glyph-name="Uogonek" unicode="&#x172;" horiz-adv-x="725" d="M561 660 L493 234 C487.667 199.334 479.167 174.667 467.5 160 C455.833 145.333 440.5 135.333 421.5 130 C402.5 124.667 376.333 122 343 122 C298.333 122 267.667 131 251 149 C234.333 167 229.333 197 236 239 L303 660 L152 660 L81 206 C74.3333 160.667 77 122.833 89 92.5 C101 62.1667 123.167 38.1667 155.5 20.5 C187.833 2.83333 234 -7.66667 294 -11 C276 -35 262.167 -58.5 252.5 -81.5 C242.833 -104.5 238 -125 238 -143 C238 -175 251.833 -197.833 279.5 -211.5 C307.167 -225.167 347 -226.667 399 -216 L413 -139 C385 -145.667 364.167 -146.334 350.5 -141 C336.833 -135.667 330 -125.667 330 -111 C330 -85 348 -51.6667 384 -11 C464 -6.33333 524 12.3333 564 45 C604 77.6667 628.667 126 638 190 L710 660 L561 660 Z " />
<glyph glyph-name="uogonek" unicode="&#x173;" horiz-adv-x="535" d="M436 0 L507 446 L368 446 L319 138 C295 114.667 269.333 103 242 103 C202.667 103 186.333 125.333 193 170 L238 446 L98 446 L45 109 C39 71 47 41.5 69 20.5 C91 -0.5 124.333 -11 169 -11 C228.333 -11 276.667 10 314 52 L307 0 C286.333 -26 270.5 -51.5 259.5 -76.5 C248.5 -101.5 243 -123.667 243 -143 C243 -175 256.833 -197.833 284.5 -211.5 C312.167 -225.167 352 -226.667 404 -216 L418 -139 C390 -145.667 369.167 -146.334 355.5 -141 C341.833 -135.667 335 -125.667 335 -111 C335 -97.6667 340.833 -81 352.5 -61 C364.167 -41 379.667 -20.6667 399 0 L436 0 Z " />
<glyph glyph-name="Wcircumflex" unicode="&#x174;" horiz-adv-x="904" d="M536 777 L560 707 L670 707 L595 839 L493 839 L380 707 L492 707 L536 777 Z M812 660 L653 184 L609 660 L436 660 L236 184 L227 660 L86 660 L111 0 L292 0 L492 480 L544 0 L721 0 L958 660 L812 660 Z " />
<glyph glyph-name="wcircumflex" unicode="&#x175;" horiz-adv-x="730" d="M410 591 L460 515 L570 515 L478 660 L353 660 L242 515 L355 515 L410 591 Z M623 446 L512 115 L499 446 L297 446 L189 116 L170 446 L31 446 L71 0 L267 0 L383 349 L394 0 L595 0 L763 446 L623 446 Z " />
<glyph glyph-name="Ycircumflex" unicode="&#x176;" horiz-adv-x="621" d="M381 777 L405 707 L515 707 L440 839 L338 839 L225 707 L337 707 L381 777 Z M519 660 L367 459 L331 413 L312 459 L229 660 L71 660 L238 278 L194 0 L346 0 L391 280 L690 660 L519 660 Z " />
<glyph glyph-name="ycircumflex" unicode="&#x177;" horiz-adv-x="474" d="M278 591 L328 515 L438 515 L346 660 L221 660 L110 515 L223 515 L278 591 Z M352 446 L237 192 L207 126 C207 145.333 205.667 167.333 203 192 L180 446 L29 446 L102 5 C91.3333 -12.3333 77.1667 -29.6667 59.5 -47 C41.8333 -64.3333 23.5 -78.8333 4.5 -90.5 C-14.5 -102.167 -31.3333 -111.333 -46 -118 L4 -236 C44 -218 84 -193.333 124 -162 C164 -130.667 196.833 -99.1666 222.5 -67.5 C248.167 -35.8333 267.333 -8.33334 280 15 L509 446 L352 446 Z " />
<glyph glyph-name="Ydieresis" unicode="&#x178;" horiz-adv-x="621" d="M268 701 C284 701 299 705.333 313 714 C327 722.667 336.833 733.333 342.5 746 C348.167 758.667 351 770 351 780 C351 798.667 344.833 814.333 332.5 827 C320.167 839.667 304.334 846 285 846 C263.667 846 244.833 838 228.5 822 C212.167 806 204 787 204 765 C204 746.333 210 731 222 719 C234 707 249.333 701 268 701 L268 701 Z M472 701 C488 701 503 705.333 517 714 C531 722.667 540.833 733.333 546.5 746 C552.167 758.667 555 770 555 780 C555 798.667 548.833 814.333 536.5 827 C524.167 839.667 508.333 846 489 846 C467 846 448 838 432 822 C416 806 408 787 408 765 C408 746.333 414 731 426 719 C438 707 453.333 701 472 701 L472 701 Z M519 660 L367 459 L331 413 L312 459 L229 660 L71 660 L238 278 L194 0 L346 0 L391 280 L690 660 L519 660 Z " />
<glyph glyph-name="Zacute" unicode="&#x179;" horiz-adv-x="561" d="M465 839 L345 839 L300 707 L403 707 L465 839 Z M618 660 L95 660 L74 530 L395 530 L-7 101 L-23 0 L513 0 L533 130 L207 130 L601 556 L618 660 Z " />
<glyph glyph-name="zacute" unicode="&#x17a;" horiz-adv-x="482" d="M396 660 L276 660 L228 521 L331 521 L396 660 Z M466 446 L73 446 L56 330 L266 330 L21 105 L4 0 L402 0 L419 116 L215 116 L448 336 L466 446 Z " />
<glyph glyph-name="Zdotaccent" unicode="&#x17b;" horiz-adv-x="561" d="M349 701 C359.667 701 371.5 703.667 384.5 709 C397.5 714.333 409 723.833 419 737.5 C429 751.167 434 765.667 434 781 C434 799 427.833 814.333 415.5 827 C403.167 839.667 388 846 370 846 C354.667 846 339.834 841.333 325.5 832 C311.167 822.667 301.167 811.5 295.5 798.5 C289.833 785.5 287 774 287 764 C287 746.667 293 731.833 305 719.5 C317 707.167 331.667 701 349 701 L349 701 Z M618 660 L95 660 L74 530 L395 530 L-7 101 L-23 0 L513 0 L533 130 L207 130 L601 556 L618 660 Z " />
<glyph glyph-name="zdotaccent" unicode="&#x17c;" horiz-adv-x="482" d="M283 517 C305.667 517 325.667 525.167 343 541.5 C360.333 557.831 369 576.664 369 598 C369 616 362.833 631.5 350.5 644.5 C338.167 657.5 322.667 664 304 664 C282.667 664 263.334 655.667 246 639 C228.667 622.333 220 603 220 581 C220 563.667 226.167 548.667 238.5 536 C250.833 523.333 265.667 517 283 517 L283 517 Z M466 446 L73 446 L56 330 L266 330 L21 105 L4 0 L402 0 L419 116 L215 116 L448 336 L466 446 Z " />
<glyph glyph-name="Zcaron" unicode="&#x17d;" horiz-adv-x="561" d="M409 707 L499 839 L402 839 L359 769 L326 839 L231 839 L296 707 L409 707 Z M618 660 L95 660 L74 530 L395 530 L-7 101 L-23 0 L513 0 L533 130 L207 130 L601 556 L618 660 Z " />
<glyph glyph-name="zcaron" unicode="&#x17e;" horiz-adv-x="482" d="M341 520 L439 660 L342 660 L291 581 L255 660 L160 660 L228 520 L341 520 Z M466 446 L73 446 L56 330 L266 330 L21 105 L4 0 L402 0 L419 116 L215 116 L448 336 L466 446 Z " />
<glyph glyph-name="florin" unicode="&#x192;" horiz-adv-x="488" d="M454 558 C476.667 558 503.667 554 535 546 L562 651 C522 662.333 484.667 668 450 668 C412.667 668 380.167 661.667 352.5 649 C324.833 636.336 302 618.669 284 596 C266 573.334 253 545.668 245 513 L229 446 L134 446 L118 347 L205 347 L131 41 C126.333 22.3333 117.5 9 104.5 1 C91.5 -7 73.3333 -11 50 -11 C27.3333 -11 0.333328 -7 -31 1 L-58 -104 C-18 -115.333 19.3333 -121 54 -121 C91.3333 -121 123.833 -114.667 151.5 -102 C179.167 -89.3333 202 -71.6667 220 -49 C238 -26.3333 251 1.33333 259 34 L335 347 L477 347 L493 446 L359 446 L373 506 C377.667 524.667 386.5 538 399.5 546 C412.5 554 430.667 558 454 558 L454 558 Z " />
<glyph glyph-name="Scommaaccent" unicode="&#x218;" horiz-adv-x="483" d="M297 669 C229.667 669 176.5 651.667 137.5 617 C98.5 582.334 79 535.668 79 477 C79 466.333 80 453.833 82 439.5 C84 425.167 90.5 407.334 101.5 386 C112.5 364.667 142.667 333.334 192 292 C240.667 250.667 269.333 224 278 212 C286.667 200 291 188.667 291 178 C291 160 282.667 146 266 136 C249.333 126 226.667 121 198 121 C170 121 127.333 127 70 139 L42 11 C102 -2.33333 152 -9 192 -9 C267.333 -9 327.5 8.83333 372.5 44.5 C417.5 80.1667 440 128.667 440 190 C440 208.667 438 224.333 434 237 C430 249.667 424.333 261.5 417 272.5 C409.667 283.5 400 295 388 307 C376 319 353.667 339.333 321 368 C271 411.333 242.833 438.167 236.5 448.5 C230.167 458.833 227 468.667 227 478 C227 520 252.333 541 303 541 C336.333 541 377.667 534.667 427 522 L454 645 C428.667 652.332 401.5 658.165 372.5 662.5 C343.5 666.833 318.333 669 297 669 L297 669 Z M174 -51 C164.667 -51 151 -54.3333 133 -61 L140 -156 L101 -233 L161 -233 L212 -165 C228.667 -143 237 -123.333 237 -106 C237 -89.3333 231.5 -76 220.5 -66 C209.5 -56 194 -51 174 -51 L174 -51 Z " />
<glyph glyph-name="scommaaccent" unicode="&#x219;" horiz-adv-x="393" d="M214 457 C182 457 153.333 450.667 128 438 C102.667 425.333 84 407.333 72 384 C60 360.667 54 336.333 54 311 C54 291 57 274.167 63 260.5 C69 246.833 75.6667 236 83 228 C90.3333 220 98.6667 212.667 108 206 C117.333 199.333 133.333 190.833 156 180.5 C178.667 170.167 192.333 163.667 197 161 C201.667 158.333 206 154.833 210 150.5 C214 146.167 216 141 216 135 C216 127.667 212.5 121 205.5 115 C198.5 109 187 106 171 106 C156.333 106 136.667 108.5 112 113.5 C87.3333 118.5 67 123.333 51 128 L24 15 C82 -1 130.667 -9 170 -9 C228.667 -9 273 3.33333 303 28 C333 52.6666 348 87.6666 348 133 C348 155 344.833 173.333 338.5 188 C332.167 202.667 325.167 214 317.5 222 C309.833 230 301.167 237.333 291.5 244 C281.833 250.667 265.167 258.833 241.5 268.5 C217.833 278.165 203.5 284.331 198.5 287 C193.5 289.667 189 293.167 185 297.5 C181 301.833 179 307.333 179 314 C179 332.667 194.667 342 226 342 C257.333 342 297 334.667 345 320 L371 432 C310.333 448.667 258 457 214 457 L214 457 Z M145 -51 C135.667 -51 122 -54.3333 104 -61 L111 -156 L72 -233 L132 -233 L183 -165 C199.667 -143 208 -123.333 208 -106 C208 -89.3333 202.5 -76 191.5 -66 C180.5 -56 165 -51 145 -51 L145 -51 Z " />
<glyph glyph-name="uni021A" unicode="&#x21a;" horiz-adv-x="570" d="M638 660 L70 660 L51 531 L263 531 L179 0 L327 0 L411 531 L618 531 L638 660 Z M239 -51 C229.667 -51 216 -54.3333 198 -61 L205 -156 L166 -233 L226 -233 L277 -165 C293.667 -143 302 -123.333 302 -106 C302 -89.3333 296.5 -76 285.5 -66 C274.5 -56 259 -51 239 -51 L239 -51 Z " />
<glyph glyph-name="uni021B" unicode="&#x21b;" horiz-adv-x="346" d="M238 332 L350 332 L369 446 L256 446 L278 584 L146 584 L123 446 L49 446 L30 332 L104 332 L70 124 C62.6667 81.3333 68.3333 48.8333 87 26.5 C105.667 4.16667 136.333 -7 179 -7 C224.333 -7 268 -2.66667 310 6 L302 119 C279.333 115.667 259.667 114 243 114 C224.333 114 214 118.667 212 128 C210 137.333 210 149.667 212 165 L238 332 Z M158 -51 C148.667 -51 135 -54.3333 117 -61 L124 -156 L85 -233 L145 -233 L196 -165 C212.667 -143 221 -123.333 221 -106 C221 -89.3333 215.5 -76 204.5 -66 C193.5 -56 178 -51 158 -51 L158 -51 Z " />
<glyph glyph-name="uni0237" unicode="&#x237;" horiz-adv-x="277" d="M246 446 L106 446 L38 14 C35.3333 -9.33333 27 -32 13 -54 C-1 -76 -27 -107.667 -65 -149 L31 -249 C80.3333 -202.333 115.167 -160.667 135.5 -124 C155.833 -87.3333 170.333 -39.6667 179 19 L246 446 Z " />
<glyph glyph-name="circumflex" unicode="&#x2c6;" horiz-adv-x="315" d="M378 515 L286 660 L161 660 L50 515 L163 515 L218 591 L268 515 L378 515 Z " />
<glyph glyph-name="caron" unicode="&#x2c7;" horiz-adv-x="348" d="M312 660 L261 581 L225 660 L130 660 L198 520 L311 520 L409 660 L312 660 Z " />
<glyph glyph-name="breve" unicode="&#x2d8;" horiz-adv-x="342" d="M397 660 L290 660 C288 642.667 282.167 628.667 272.5 618 C262.833 607.333 250 602 234 602 C219.333 602 208 607.333 200 618 C192 628.667 188.667 642.667 190 660 L83 660 C79.6665 630 85.3332 604.5 100 583.5 C114.667 562.5 133.167 546.833 155.5 536.5 C177.833 526.167 202 521 228 521 C258.666 521 287.333 528.167 314 542.5 C340.667 556.833 360.333 574.833 373 596.5 C385.667 618.167 393.667 639.333 397 660 L397 660 Z " />
<glyph glyph-name="dotaccent" unicode="&#x2d9;" horiz-adv-x="176" d="M221 598 C221 616 214.833 631.5 202.5 644.5 C190.167 657.5 174.667 664 156 664 C134.667 664 115.333 655.667 98 639 C80.6667 622.333 72 603 72 581 C72 563.667 78.1667 548.667 90.5 536 C102.833 523.333 117.667 517 135 517 C157.667 517 177.667 525.167 195 541.5 C212.333 557.831 221 576.664 221 598 L221 598 Z " />
<glyph glyph-name="ring" unicode="&#x2da;" horiz-adv-x="202" d="M178 718 C152 718 128.333 711 107 697 C85.6667 683 71.1667 666.5 63.5 647.5 C55.8333 628.5 52 611.333 52 596 C52 584 55.3333 570.5 62 555.5 C68.6667 540.5 80 527.833 96 517.5 C112 507.167 129.667 502 149 502 C170.333 502 190 507.5 208 518.5 C226 529.5 240.167 543.333 250.5 560 C260.833 576.667 267 595.333 269 616 C270.333 636 266.167 654.5 256.5 671.5 C246.833 688.5 234.5 700.5 219.5 707.5 C204.5 714.5 190.667 718 178 718 L178 718 Z M165 655 C176.333 655 186.333 651.167 195 643.5 C203.667 635.833 208 626.333 208 615 C208 600.333 203 588 193 578 C183 568 171.667 563 159 563 C147 563 136.667 567 128 575 C119.333 583 115 592.667 115 604 C115 618 120 630 130 640 C140 650 151.667 655 165 655 L165 655 Z " />
<glyph glyph-name="ogonek" unicode="&#x2db;" horiz-adv-x="204" d="M114 0 L25 4 C3.66667 -22.6667 -12.8333 -48.8333 -24.5 -74.5 C-36.1667 -100.167 -42 -123 -42 -143 C-42 -175 -28.1667 -197.833 -0.5 -211.5 C27.1667 -225.167 67 -226.667 119 -216 L133 -139 C105 -145.667 84.1667 -146.334 70.5 -141 C56.8333 -135.667 50 -125.667 50 -111 C50 -97.6667 55.8333 -81 67.5 -61 C79.1667 -41 94.6667 -20.6667 114 0 L114 0 Z " />
<glyph glyph-name="tilde" unicode="&#x2dc;" horiz-adv-x="405" d="M389 643 C369 624.333 355.167 613.5 347.5 610.5 C339.833 607.5 333 606 327 606 C313 606 288.333 612.5 253 625.5 C217.667 638.5 191.667 645 175 645 C145.667 645 111 625 71 585 L131 518 C153 541.333 171.667 553 187 553 C202.333 553 226.5 546.667 259.5 534 C292.5 521.333 316.667 515 332 515 C369.333 515 407.667 534.667 447 574 L389 643 Z " />
<glyph glyph-name="hungarumlaut" unicode="&#x2dd;" horiz-adv-x="331" d="M229 660 L109 660 L61 521 L164 521 L229 660 Z M386 660 L266 660 L218 521 L321 521 L386 660 Z " />
<glyph glyph-name="gravecomb" unicode="&#x300;" d="M-131 660 L-72 521 L33 521 L-10 660 L-131 660 Z " />
<glyph glyph-name="acutecomb" unicode="&#x301;" d="M-10 521 L55 660 L-65 660 L-113 521 L-10 521 Z " />
<glyph glyph-name="uni0302" unicode="&#x302;" d="M63 515 L-29 660 L-154 660 L-265 515 L-152 515 L-97 591 L-47 515 L63 515 Z " />
<glyph glyph-name="tildecomb" unicode="&#x303;" d="M-16 643 C-36 624.333 -49.8333 613.5 -57.5 610.5 C-65.1667 607.5 -72 606 -78 606 C-92 606 -116.667 612.5 -152 625.5 C-187.333 638.5 -213.333 645 -230 645 C-259.333 645 -294 625 -334 585 L-274 518 C-252 541.333 -233.333 553 -218 553 C-202.667 553 -178.5 546.667 -145.5 534 C-112.5 521.333 -88.3333 515 -73 515 C-35.6667 515 2.66666 534.667 42 574 L-16 643 Z " />
<glyph glyph-name="uni0304" unicode="&#x304;" d="M60 637 L-260 637 L-279 534 L41 534 L60 637 Z " />
<glyph glyph-name="uni0306" unicode="&#x306;" d="M55 660 L-52 660 C-54 642.667 -59.8333 628.667 -69.5 618 C-79.1667 607.333 -92 602 -108 602 C-122.667 602 -134 607.333 -142 618 C-150 628.667 -153.333 642.667 -152 660 L-259 660 C-262.332 630 -256.666 604.5 -242 583.5 C-227.333 562.5 -208.833 546.833 -186.5 536.5 C-164.167 526.167 -140 521 -114 521 C-83.3333 521 -54.6667 528.167 -28 542.5 C-1.33333 556.833 18.3333 574.833 31 596.5 C43.6667 618.167 51.6667 639.333 55 660 L55 660 Z " />
<glyph glyph-name="uni0307" unicode="&#x307;" d="M45 598 C45 616 38.8333 631.5 26.5 644.5 C14.1667 657.5 -1.33333 664 -20 664 C-41.3333 664 -60.6667 655.667 -78 639 C-95.3333 622.333 -104 603 -104 581 C-104 563.667 -97.8333 548.667 -85.5 536 C-73.1667 523.333 -58.3333 517 -41 517 C-18.3333 517 1.66667 525.167 19 541.5 C36.3333 557.831 45 576.664 45 598 L45 598 Z " />
<glyph glyph-name="uni0308" unicode="&#x308;" d="M-237 664 C-259 664 -278.333 656 -295 640 C-311.667 624 -320 604.667 -320 582 C-320 563.333 -314 547.833 -302 535.5 C-290 523.167 -274 517 -254 517 C-238 517 -223 521.5 -209 530.5 C-195 539.5 -185.167 550.333 -179.5 563 C-173.833 575.667 -171 587.333 -171 598 C-171 616.667 -177.167 632.333 -189.5 645 C-201.833 657.667 -217.667 664 -237 664 L-237 664 Z M-18 664 C-40.6667 664 -60 655.833 -76 639.5 C-92 623.167 -100 604 -100 582 C-100 563.333 -94 547.833 -82 535.5 C-70 523.167 -54.3333 517 -35 517 C-19 517 -3.83333 521.5 10.5 530.5 C24.8333 539.5 34.8333 550.333 40.5 563 C46.1667 575.667 49 587.333 49 598 C49 616.667 42.6667 632.333 30 645 C17.3333 657.667 1.33333 664 -18 664 L-18 664 Z " />
<glyph glyph-name="uni030A" unicode="&#x30a;" d="M-24 718 C-50 718 -73.6667 711 -95 697 C-116.333 683 -130.833 666.5 -138.5 647.5 C-146.167 628.5 -150 611.333 -150 596 C-150 584 -146.667 570.5 -140 555.5 C-133.333 540.5 -122 527.833 -106 517.5 C-90 507.167 -72.3333 502 -53 502 C-31.6667 502 -12 507.5 6 518.5 C24 529.5 38.1667 543.333 48.5 560 C58.8333 576.667 65 595.333 67 616 C68.3333 636 64.1667 654.5 54.5 671.5 C44.8333 688.5 32.5 700.5 17.5 707.5 C2.5 714.5 -11.3333 718 -24 718 L-24 718 Z M-37 655 C-25.6667 655 -15.6667 651.167 -7 643.5 C1.66667 635.833 6 626.333 6 615 C6 600.333 1 588 -9 578 C-19 568 -30.3333 563 -43 563 C-55 563 -65.3333 567 -74 575 C-82.6667 583 -87 592.667 -87 604 C-87 618 -82 630 -72 640 C-62 650 -50.3333 655 -37 655 L-37 655 Z " />
<glyph glyph-name="uni030B" unicode="&#x30b;" d="M-102 660 L-222 660 L-270 521 L-167 521 L-102 660 Z M55 660 L-65 660 L-113 521 L-10 521 L55 660 Z " />
<glyph glyph-name="uni030C" unicode="&#x30c;" d="M-36 660 L-87 581 L-123 660 L-218 660 L-150 520 L-37 520 L61 660 L-36 660 Z " />
<glyph glyph-name="uni0326" unicode="&#x326;" d="M-331 -51 C-340.333 -51 -354 -54.3333 -372 -61 L-365 -156 L-404 -233 L-344 -233 L-293 -165 C-276.333 -143 -268 -123.333 -268 -106 C-268 -89.3333 -273.5 -76 -284.5 -66 C-295.5 -56 -311 -51 -331 -51 L-331 -51 Z " />
<glyph glyph-name="uni0327" unicode="&#x327;" d="M-121 26 L-206 26 C-209.333 14.6667 -212 -1 -214 -21 C-215.333 -37 -213.5 -49.1667 -208.5 -57.5 C-203.5 -65.8333 -196.333 -73 -187 -79 C-185.666 -79.6667 -182.833 -81.5 -178.5 -84.5 C-174.167 -87.5 -170.667 -90 -168 -92 C-165.333 -94 -162.833 -96.1667 -160.5 -98.5 C-158.167 -100.833 -156.5 -103.333 -155.5 -106 C-154.5 -108.667 -154 -111 -154 -113 C-155.333 -121 -159.667 -127 -167 -131 C-174.333 -135 -187.667 -137 -207 -137 L-231 -135 L-243 -211 C-233 -213 -219.333 -214 -202 -214 C-160.667 -214 -129.167 -206.333 -107.5 -191 C-85.8333 -175.667 -72.6667 -151.333 -68 -118 C-66 -99.3333 -68.5 -84.5 -75.5 -73.5 C-82.5 -62.5 -94.3333 -51 -111 -39 C-117.667 -33.6667 -122.333 -27.1667 -125 -19.5 C-127.667 -11.8333 -128.333 -3.66667 -127 5 C-125.667 12.3333 -123.667 19.3333 -121 26 L-121 26 Z " />
<glyph glyph-name="uni0328" unicode="&#x328;" d="M-90 0 L-179 4 C-200.333 -22.6667 -216.833 -48.8333 -228.5 -74.5 C-240.167 -100.167 -246 -123 -246 -143 C-246 -175 -232.167 -197.833 -204.5 -211.5 C-176.833 -225.167 -137 -226.667 -85 -216 L-71 -139 C-99 -145.667 -119.833 -146.334 -133.5 -141 C-147.167 -135.667 -154 -125.667 -154 -111 C-154 -97.6667 -148.167 -81 -136.5 -61 C-124.833 -41 -109.333 -20.6667 -90 0 L-90 0 Z " />
<glyph glyph-name="Delta" unicode="&#x394;" horiz-adv-x="597" d="M342 660 L215 660 L-47 0 L574 0 L342 660 Z M276 537 L419 100 L114 100 L276 537 Z " />
<glyph glyph-name="Omega" unicode="&#x3a9;" horiz-adv-x="906" d="M652 94 C688 122 716.167 157 736.5 199 C756.833 241 767 287 767 337 C767 389.667 759.667 437.167 745 479.5 C730.335 521.832 709.168 557.166 681.5 585.5 C653.835 613.833 620.168 635.333 580.5 650 C540.833 664.667 497 672 449 672 C401.667 672 358.167 664.5 318.5 649.5 C278.833 634.5 244.667 612.5 216 583.5 C187.333 554.5 165.333 518.333 150 475 C134.667 431.667 127 383 127 329 C127 303 130.5 274.333 137.5 243 C144.5 211.667 157.167 182.5 175.5 155.5 C193.833 128.5 215.333 108 240 94 L64 94 L62 0 L387 0 L389 91 C343 100.333 306.833 125 280.5 165 C254.167 205 241 259.667 241 329 C241 486.333 310 565 448 565 C520 565 572 545.667 604 507 C636 468.333 652 409.667 652 331 C652 265 638.333 211 611 169 C583.667 127 544.667 101 494 91 L492 0 L816 0 L817 94 L652 94 Z " />
<glyph glyph-name="mu" unicode="&#x3bc;" horiz-adv-x="494" d="M349 446 L304 157 C300 133.667 291.333 116.167 278 104.5 C264.667 92.8333 249.333 87 232 87 C210 87 187.333 98.6667 164 122 L215 446 L99 446 L-5 -215 L111 -215 L150 35 C180.667 4.33333 216.667 -11 258 -11 C300 -11 335 0.166672 363 22.5 C391 44.8333 408 76 414 116 L466 446 L349 446 Z " />
<glyph glyph-name="pi" unicode="&#x3c0;" horiz-adv-x="642" d="M637 446 L54 446 L52 341 L138 341 L133 0 L250 0 L254 341 L432 341 L427 0 L543 0 L548 341 L635 341 L637 446 Z " />
<glyph glyph-name="Wgrave" unicode="&#x1e80;" horiz-adv-x="904" d="M576 705 L536 837 L415 837 L471 705 L576 705 Z M812 660 L653 184 L609 660 L436 660 L236 184 L227 660 L86 660 L111 0 L292 0 L492 480 L544 0 L721 0 L958 660 L812 660 Z " />
<glyph glyph-name="wgrave" unicode="&#x1e81;" horiz-adv-x="730" d="M455 521 L412 660 L291 660 L350 521 L455 521 Z M623 446 L512 115 L499 446 L297 446 L189 116 L170 446 L31 446 L71 0 L267 0 L383 349 L394 0 L595 0 L763 446 L623 446 Z " />
<glyph glyph-name="Wacute" unicode="&#x1e82;" horiz-adv-x="904" d="M642 839 L522 839 L477 707 L580 707 L642 839 Z M812 660 L653 184 L609 660 L436 660 L236 184 L227 660 L86 660 L111 0 L292 0 L492 480 L544 0 L721 0 L958 660 L812 660 Z " />
<glyph glyph-name="wacute" unicode="&#x1e83;" horiz-adv-x="730" d="M521 660 L401 660 L353 521 L456 521 L521 660 Z M623 446 L512 115 L499 446 L297 446 L189 116 L170 446 L31 446 L71 0 L267 0 L383 349 L394 0 L595 0 L763 446 L623 446 Z " />
<glyph glyph-name="Wdieresis" unicode="&#x1e84;" horiz-adv-x="904" d="M423 701 C439 701 454 705.333 468 714 C482 722.667 491.833 733.333 497.5 746 C503.167 758.667 506 770 506 780 C506 798.667 499.833 814.333 487.5 827 C475.168 839.667 459.334 846 440 846 C418.667 846 399.834 838 383.5 822 C367.167 806 359 787 359 765 C359 746.333 365 731 377 719 C389 707 404.333 701 423 701 L423 701 Z M627 701 C643 701 658 705.333 672 714 C686 722.667 695.833 733.333 701.5 746 C707.167 758.667 710 770 710 780 C710 798.667 703.833 814.333 691.5 827 C679.167 839.667 663.333 846 644 846 C622 846 603 838 587 822 C571 806 563 787 563 765 C563 746.333 569 731 581 719 C593 707 608.333 701 627 701 L627 701 Z M812 660 L653 184 L609 660 L436 660 L236 184 L227 660 L86 660 L111 0 L292 0 L492 480 L544 0 L721 0 L958 660 L812 660 Z " />
<glyph glyph-name="wdieresis" unicode="&#x1e85;" horiz-adv-x="730" d="M297 517 C313 517 328 521.5 342 530.5 C356 539.5 365.833 550.333 371.5 563 C377.167 575.667 380 587.333 380 598 C380 616.667 373.833 632.333 361.5 645 C349.167 657.667 333.334 664 314 664 C292 664 272.667 656 256 640 C239.333 624 231 604.667 231 582 C231 563.333 237 547.833 249 535.5 C261 523.167 277 517 297 517 L297 517 Z M516 517 C532 517 547.167 521.5 561.5 530.5 C575.833 539.5 585.833 550.333 591.5 563 C597.167 575.667 600 587.333 600 598 C600 616.667 593.667 632.333 581 645 C568.333 657.667 552.333 664 533 664 C510.333 664 491 655.833 475 639.5 C459 623.167 451 604 451 582 C451 563.333 457 547.833 469 535.5 C481 523.167 496.667 517 516 517 L516 517 Z M623 446 L512 115 L499 446 L297 446 L189 116 L170 446 L31 446 L71 0 L267 0 L383 349 L394 0 L595 0 L763 446 L623 446 Z " />
<glyph glyph-name="Ygrave" unicode="&#x1ef2;" horiz-adv-x="621" d="M421 705 L381 837 L260 837 L316 705 L421 705 Z M519 660 L367 459 L331 413 L312 459 L229 660 L71 660 L238 278 L194 0 L346 0 L391 280 L690 660 L519 660 Z " />
<glyph glyph-name="ygrave" unicode="&#x1ef3;" horiz-adv-x="474" d="M323 521 L280 660 L159 660 L218 521 L323 521 Z M352 446 L237 192 L207 126 C207 145.333 205.667 167.333 203 192 L180 446 L29 446 L102 5 C91.3333 -12.3333 77.1667 -29.6667 59.5 -47 C41.8333 -64.3333 23.5 -78.8333 4.5 -90.5 C-14.5 -102.167 -31.3333 -111.333 -46 -118 L4 -236 C44 -218 84 -193.333 124 -162 C164 -130.667 196.833 -99.1666 222.5 -67.5 C248.167 -35.8333 267.333 -8.33334 280 15 L509 446 L352 446 Z " />
<glyph glyph-name="uni2009" unicode="&#x2009;" horiz-adv-x="50" d="" />
<glyph glyph-name="figuredash" unicode="&#x2012;" horiz-adv-x="530" d="M40 289 L24 185 L493 185 L509 289 L40 289 Z " />
<glyph glyph-name="endash" unicode="&#x2013;" horiz-adv-x="570" d="M60 289 L44 185 L513 185 L529 289 L60 289 Z " />
<glyph glyph-name="emdash" unicode="&#x2014;" horiz-adv-x="1060" d="M75 289 L59 185 L988 185 L1004 289 L75 289 Z " />
<glyph glyph-name="quoteleft" unicode="&#x2018;" horiz-adv-x="293" d="M262 394 L253 544 L312 660 L224 660 L155 574 C154.333 572.667 150.333 567.5 143 558.5 C135.667 549.5 128.667 540 122 530 C115.333 520 110 509.833 106 499.5 C102 489.167 99.5 480 98.5 472 C97.5 464 97.3333 457.333 98 452 C101.333 428 112 410 130 398 C148 386 170 380 196 380 C217.333 380 239.333 384.667 262 394 L262 394 Z " />
<glyph glyph-name="quoteright" unicode="&#x2019;" horiz-adv-x="293" d="M127 659 L136 509 L77 393 L165 393 L234 479 C234.667 480.333 238.667 485.5 246 494.5 C253.333 503.5 260.333 513 267 523 C273.667 533 279 543.167 283 553.5 C287 563.833 289.5 573 290.5 581 C291.5 589 291.667 595.667 291 601 C287.667 625 277 643 259 655 C241 667 219 673 193 673 C171.667 673 149.667 668.333 127 659 L127 659 Z " />
<glyph glyph-name="quotesinglbase" unicode="&#x201a;" horiz-adv-x="289" d="M49 153 L58 3 L-1 -113 L87 -113 L156 -27 C156.667 -25.6667 160.667 -20.5 168 -11.5 C175.333 -2.5 182.333 7 189 17 C195.667 27 201 37.1667 205 47.5 C209 57.8333 211.5 67 212.5 75 C213.5 83 213.667 89.6667 213 95 C209.667 119 199 137 181 149 C163 161 141 167 115 167 C93.6667 167 71.6667 162.333 49 153 L49 153 Z " />
<glyph glyph-name="quotedblleft" unicode="&#x201c;" horiz-adv-x="496" d="M262 394 L253 544 L312 660 L224 660 L155 574 C154.333 572.667 150.333 567.5 143 558.5 C135.667 549.5 128.667 540 122 530 C115.333 520 110 509.833 106 499.5 C102 489.167 99.5 480 98.5 472 C97.5 464 97.3333 457.333 98 452 C101.333 428 112 410 130 398 C148 386 170 380 196 380 C217.333 380 239.333 384.667 262 394 L262 394 Z M465 394 L456 544 L515 660 L427 660 L358 574 C357.333 572.667 353.333 567.5 346 558.5 C338.667 549.5 331.667 540 325 530 C318.333 520 313 509.833 309 499.5 C305 489.167 302.5 480 301.5 472 C300.5 464 300.333 457.333 301 452 C304.333 428 315 410 333 398 C351 386 373 380 399 380 C420.333 380 442.333 384.667 465 394 L465 394 Z " />
<glyph glyph-name="quotedblright" unicode="&#x201d;" horiz-adv-x="495" d="M127 659 L136 509 L77 393 L165 393 L234 479 C234.667 480.333 238.667 485.5 246 494.5 C253.333 503.5 260.333 513 267 523 C273.667 533 279 543.167 283 553.5 C287 563.833 289.5 573 290.5 581 C291.5 589 291.667 595.667 291 601 C287.667 625 277 643 259 655 C241 667 219 673 193 673 C171.667 673 149.667 668.333 127 659 L127 659 Z M329 659 L338 509 L279 393 L367 393 L436 479 C436.667 480.333 440.667 485.5 448 494.5 C455.333 503.5 462.333 513 469 523 C475.667 533 481 543.167 485 553.5 C489 563.833 491.5 573 492.5 581 C493.5 589 493.667 595.667 493 601 C489.667 625 479 643 461 655 C443 667 421 673 395 673 C373.667 673 351.667 668.333 329 659 L329 659 Z " />
<glyph glyph-name="quotedblbase" unicode="&#x201e;" horiz-adv-x="492" d="M49 153 L58 3 L-1 -113 L87 -113 L156 -27 C156.667 -25.6667 160.667 -20.5 168 -11.5 C175.333 -2.5 182.333 7 189 17 C195.667 27 201 37.1667 205 47.5 C209 57.8333 211.5 67 212.5 75 C213.5 83 213.667 89.6667 213 95 C209.667 119 199 137 181 149 C163 161 141 167 115 167 C93.6667 167 71.6667 162.333 49 153 L49 153 Z M252 153 L261 3 L202 -113 L290 -113 L359 -27 C359.667 -25.6667 363.667 -20.5 371 -11.5 C378.333 -2.5 385.333 7 392 17 C398.667 27 404 37.1667 408 47.5 C412 57.8333 414.5 67 415.5 75 C416.5 83 416.667 89.6667 416 95 C412.667 119 402 137 384 149 C366 161 344 167 318 167 C296.667 167 274.667 162.333 252 153 L252 153 Z " />
<glyph glyph-name="dagger" unicode="&#x2020;" horiz-adv-x="617" d="M610 446 L404 446 L438 660 L318 660 L284 446 L76 446 L61 337 L267 337 L179 -219 L299 -219 L387 337 L595 337 L610 446 Z " />
<glyph glyph-name="daggerdbl" unicode="&#x2021;" horiz-adv-x="618" d="M596 338 L612 446 L405 446 L438 660 L319 660 L285 446 L76 446 L60 338 L268 338 L232 106 L22 106 L6 0 L215 0 L180 -219 L300 -219 L335 0 L542 0 L558 106 L351 106 L388 338 L596 338 Z " />
<glyph glyph-name="bullet" unicode="&#x2022;" horiz-adv-x="383" d="M319 254 C319 276 313 296.167 301 314.5 C289 332.833 274.5 345.5 257.5 352.5 C240.5 359.5 225 363 211 363 C173.667 363 140.667 349.333 112 322 C83.3333 294.667 69 262.667 69 226 C69 203.333 74.8333 182.833 86.5 164.5 C98.1666 146.167 112.333 133.5 129 126.5 C145.667 119.5 161.333 116 176 116 C213.333 116 246.5 129.667 275.5 157 C304.5 184.333 319 216.667 319 254 L319 254 Z " />
<glyph glyph-name="ellipsis" unicode="&#x2026;" horiz-adv-x="1018" d="M242 90 C242 112.667 234.5 131.667 219.5 147 C204.5 162.333 185.333 170 162 170 C142 170 123.333 164.167 106 152.5 C88.6667 140.833 76.5 127 69.5 111 C62.5 95 59 80.3333 59 67 C59 45 66.5 26.3333 81.5 11 C96.5 -4.33333 115.333 -12 138 -12 C158 -12 176.833 -6.16667 194.5 5.5 C212.167 17.1667 224.5 31 231.5 47 C238.5 63 242 77.3333 242 90 L242 90 Z M576 90 C576 112.667 568.5 131.667 553.5 147 C538.5 162.333 519.333 170 496 170 C476 170 457.333 164.167 440 152.5 C422.667 140.833 410.5 127 403.5 111 C396.5 95 393 80.3333 393 67 C393 45 400.5 26.3333 415.5 11 C430.5 -4.33333 449.333 -12 472 -12 C492 -12 510.833 -6.16667 528.5 5.5 C546.167 17.1667 558.5 31 565.5 47 C572.5 63 576 77.3333 576 90 L576 90 Z M913 90 C913 112.667 905.5 131.667 890.5 147 C875.5 162.333 856.333 170 833 170 C813 170 794.333 164.167 777 152.5 C759.667 140.833 747.5 127 740.5 111 C733.5 95 730 80.3333 730 67 C730 45 737.5 26.3333 752.5 11 C767.5 -4.33333 786.333 -12 809 -12 C829 -12 847.833 -6.16667 865.5 5.5 C883.167 17.1667 895.5 31 902.5 47 C909.5 63 913 77.3333 913 90 L913 90 Z " />
</font>
</svg>
