<?xml version="1.0" encoding="UTF-8"?>
<svg xmlns="http://www.w3.org/2000/svg" xmlns:xlink="http://www.w3.org/1999/xlink" version="1.2" >
<font id="abc Allegra W00 Black">
<font-face  font-family="abcAllegraW00-Black" units-per-em="1000" ascent="877" descent="-265" font-style="normal" font-weight="900" font-stretch="normal" cap-height="660" x-height="446" underline-position="-100" underline-thickness="50" />
<missing-glyph  horiz-adv-x="500" d="M410 735 L93 735 L93 -265 L410 -265 L410 735 Z M333 668 L333 635 L267 635 L267 598 L333 598 L333 565 L167 565 L167 598 L233 598 L233 635 L168 635 L168 668 L333 668 Z M267 539 L267 469 L333 469 L333 435 L167 435 L167 539 L267 539 Z M233 505 L200 505 L200 469 L233 469 L233 505 Z M333 408 L333 375 L267 375 L267 305 L167 305 L167 338 L233 338 L233 375 L167 375 L167 408 L333 408 Z M333 348 L333 248 L167 248 L167 282 L300 282 L300 348 L333 348 Z M333 226 L333 113 L167 113 L167 226 L200 226 L200 146 L300 146 L300 193 L267 193 L267 170 L233 170 L233 226 L333 226 Z M333 53 L333 -60 L167 -60 L167 53 L333 53 Z M300 20 L200 20 L200 -27 L300 -27 L300 20 Z M333 -83 L333 -116 L301 -116 L231 -163 L333 -163 L333 -196 L167 -196 L167 -163 L237 -116 L167 -116 L167 -83 L333 -83 Z " />
<glyph glyph-name="NULL" d="" />
<glyph glyph-name="CR" unicode="&#xd;" horiz-adv-x="333" d="" />
<glyph glyph-name="space" unicode="&#x20;" horiz-adv-x="150" d="" />
<glyph glyph-name="exclam" unicode="&#x21;" horiz-adv-x="383" d="M291 660 L101 660 L94 235 L284 235 L291 660 Z M189 202 C167 202 147.167 196 129.5 184 C111.833 172 99.5 157.333 92.5 140 C85.5 122.667 82 107 82 93 C82 71.6667 88 52 100 34 C112 16 126.333 3.66667 143 -3 C159.667 -9.66667 175 -13 189 -13 C210.333 -13 229.833 -7.16667 247.5 4.5 C265.167 16.1667 277.5 30.3333 284.5 47 C291.5 63.6667 295 79 295 93 C295 123.667 284.833 149.5 264.5 170.5 C244.167 191.5 219 202 189 202 L189 202 Z " />
<glyph glyph-name="quotedbl" unicode="&#x22;" horiz-adv-x="425" d="M63 660 L58 412 L180 412 L184 660 L63 660 Z M257 660 L252 412 L374 412 L378 660 L257 660 Z " />
<glyph glyph-name="numbersign" unicode="&#x23;" horiz-adv-x="689" d="M609 361 L631 474 L528 474 L564 660 L441 660 L405 474 L327 474 L363 660 L243 660 L207 474 L98 474 L78 361 L186 361 L173 294 L65 294 L45 184 L152 184 L117 0 L237 0 L272 184 L350 184 L315 0 L438 0 L473 184 L577 184 L598 294 L494 294 L507 361 L609 361 Z M293 294 L306 361 L384 361 L371 294 L293 294 Z " />
<glyph glyph-name="dollar" unicode="&#x24;" horiz-adv-x="392" d="M372 177 C372 193 370.333 207.833 367 221.5 C363.669 235.167 358.836 247.833 352.5 259.5 C346.167 271.167 336 282.667 322 294 C308 305.333 285.833 316 255.5 326 C225.167 336 207.167 342.333 201.5 345 C195.833 347.661 190.5 350.828 185.5 354.5 C180.5 358.164 177.167 362.331 175.5 367 C173.833 371.667 173 376 173 380 C173 403.333 197.333 415 246 415 C269.333 415 300.333 411.333 339 404 L364 529 C332.667 537.667 299 543 263 545 L264 641 L154 641 L153 540 C111.667 530.667 79.3333 512 56 484 C32.6667 456 21 417.667 21 369 C21 341 24.5 318.333 31.5 301 C38.5 283.667 46.3333 270.5 55 261.5 C63.6667 252.5 73.3333 244.5 84 237.5 C94.6667 230.5 113.167 222.833 139.5 214.5 C165.833 206.167 182.5 200.167 189.5 196.5 C196.5 192.833 201.667 188.333 205 183 C208.333 177.667 210 171.667 210 165 C210 144.333 193 134 159 134 C134.333 134 97.6667 139.667 49 151 L17 28 C60.3333 14 101.333 5.66667 140 3 L138 -88 L249 -88 L251 11 C293.667 23 324.5 43.8333 343.5 73.5 C362.5 103.167 372 137.667 372 177 L372 177 Z " />
<glyph glyph-name="percent" unicode="&#x25;" horiz-adv-x="926" d="M195 671 C143 671 101.5 654.5 70.5 621.5 C39.5 588.5 24 544 24 488 C24 434 39 391.333 69 360 C99 328.667 140 313 192 313 C244.667 313 286.5 329.167 317.5 361.5 C348.5 393.833 364 437.333 364 492 C364 546.667 348.833 590.167 318.5 622.5 C288.167 654.833 247 671 195 671 L195 671 Z M265 0 L760 660 L626 660 L139 0 L265 0 Z M195 409 C175.667 409 160.667 416.333 150 431 C139.333 445.667 134 466 134 492 C134 517.333 139.333 537 150 551 C160.667 565 176.333 572 197 572 C235 572 254 546.333 254 495 C254 467 248.833 445.667 238.5 431 C228.167 416.333 213.667 409 195 409 L195 409 Z M731 351 C679 351 637.5 334.5 606.5 301.5 C575.5 268.5 560 224 560 168 C560 114 575 71.3333 605 40 C635 8.66667 676 -7 728 -7 C780.667 -7 822.5 9.16666 853.5 41.5 C884.5 73.8333 900 117.333 900 172 C900 226.667 884.833 270.167 854.5 302.5 C824.167 334.833 783 351 731 351 L731 351 Z M731 89 C711.667 89 696.667 96.3333 686 111 C675.333 125.667 670 146 670 172 C670 197.333 675.333 217 686 231 C696.667 245 712.333 252 733 252 C771 252 790 226.333 790 175 C790 147 784.833 125.667 774.5 111 C764.167 96.3333 749.667 89 731 89 L731 89 Z " />
<glyph glyph-name="ampersand" unicode="&#x26;" horiz-adv-x="768" d="M747 395 L315 395 C252.333 395 221 419.333 221 468 C221 514.667 250.333 538 309 538 C335 538 369 534.333 411 527 L437 654 C381.667 666 331.333 672 286 672 C216.667 672 163.167 655.5 125.5 622.5 C87.8334 589.5 69 543.667 69 485 C69 454.333 74.5 427.167 85.5 403.5 C96.5 379.833 110.667 362.667 128 352 C145.333 341.333 162.333 334.667 179 332 L179 329 C138.333 321.667 109 309.5 91 292.5 C73 275.5 60.6667 257 54 237 C47.3333 217 44 195.667 44 173 C44 49.6667 128.333 -12 297 -12 C347 -12 396.333 -8.33333 445 -1 C493.667 6.33333 543 15.3333 593 26 L598 263 L745 263 L747 395 Z M430 122 C390 114 355 110 325 110 C287.667 110 260 116.667 242 130 C224 143.333 215 163.667 215 191 C215 213.667 221.667 231.333 235 244 C248.333 256.667 267.333 263 292 263 L432 263 L430 122 Z " />
<glyph glyph-name="quotesingle" unicode="&#x27;" horiz-adv-x="231" d="M63 660 L58 412 L180 412 L184 660 L63 660 Z " />
<glyph glyph-name="parenleft" unicode="&#x28;" horiz-adv-x="344" d="M340 735 L184 735 C170.667 711 155.667 674.833 139 626.5 C122.333 578.167 108.667 522.5 98 459.5 C87.3333 396.5 82 332.333 82 267 C82 173 90.5 83.3333 107.5 -2 C124.5 -87.3334 144 -154.333 166 -203 L324 -203 C307.333 -169 291.5 -125.833 276.5 -73.5 C261.5 -21.1667 249.333 34.3333 240 93 C230.667 151.667 226 213 226 277 C226 337 231.833 397.5 243.5 458.5 C255.167 519.5 270.5 574.5 289.5 623.5 C308.5 672.5 325.333 709.667 340 735 L340 735 Z " />
<glyph glyph-name="parenright" unicode="&#x29;" horiz-adv-x="344" d="M6 -203 L162 -203 C175.333 -179 190.333 -142.833 207 -94.5 C223.667 -46.1667 237.333 9.5 248 72.5 C258.667 135.5 264 199.667 264 265 C264 359 255.5 448.667 238.5 534 C221.5 619.333 202 686.333 180 735 L22 735 C38.6667 701 54.5 657.833 69.5 605.5 C84.5 553.167 96.6667 497.667 106 439 C115.333 380.333 120 319 120 255 C120 195 114.167 134.5 102.5 73.5 C90.8333 12.5 75.5 -42.5 56.5 -91.5 C37.5 -140.5 20.6667 -177.667 6 -203 L6 -203 Z " />
<glyph glyph-name="asterisk" unicode="&#x2a;" horiz-adv-x="493" d="M435 468 L400 575 L303 547 L299 649 L186 649 L183 548 L85 576 L50 469 L145 434 L88 350 L179 283 L242 364 L304 283 L396 349 L339 433 L435 468 Z " />
<glyph glyph-name="plus" unicode="&#x2b;" horiz-adv-x="639" d="M549 297 L393 297 L395 472 L262 472 L259 297 L92 297 L90 171 L255 171 L253 0 L387 0 L390 171 L546 171 L549 297 Z " />
<glyph glyph-name="comma" unicode="&#x2c;" horiz-adv-x="299" d="M55 179 L78 17 L47 -121 L153 -121 L224 38 C239.333 68 245 95.1667 241 119.5 C237 143.833 225.833 162.833 207.5 176.5 C189.167 190.167 166.167 197.333 138.5 198 C110.833 198.667 83 192.333 55 179 L55 179 Z " />
<glyph glyph-name="hyphen" unicode="&#x2d;" horiz-adv-x="305" d="M36 300 L34 177 L270 177 L272 300 L36 300 Z " />
<glyph glyph-name="period" unicode="&#x2e;" horiz-adv-x="321" d="M158 200 C136 200 116.167 194 98.5 182 C80.8333 170 68.5 155.333 61.5 138 C54.5 120.667 51 105 51 91 C51 69.6667 57 50 69 32 C81 14 95.3333 1.66667 112 -5 C128.667 -11.6667 144 -15 158 -15 C179.333 -15 198.833 -9.16667 216.5 2.5 C234.167 14.1667 246.5 28.3333 253.5 45 C260.5 61.6667 264 77 264 91 C264 121.667 253.833 147.5 233.5 168.5 C213.167 189.5 188 200 158 200 L158 200 Z " />
<glyph glyph-name="slash" unicode="&#x2f;" horiz-adv-x="505" d="M328 735 L65 -203 L203 -203 L470 735 L328 735 Z " />
<glyph glyph-name="zero" unicode="0" horiz-adv-x="533" d="M268 457 C193.333 457 135 435.833 93 393.5 C51 351.167 30 292 30 216 C30 144 50.3333 88 91 48 C131.667 8 188 -12 260 -12 C336 -12 395.5 8.66667 438.5 50 C481.5 91.3333 503 149 503 223 C503 297 482.333 354.5 441 395.5 C399.667 436.5 342 457 268 457 L268 457 Z M270 313 C289.333 313 304.333 305.5 315 290.5 C325.667 275.5 331 254 331 226 C331 196 325.333 173 314 157 C302.667 141 286.667 133 266 133 C245.333 133 229.5 140.5 218.5 155.5 C207.5 170.5 202 192 202 220 C202 250 207.833 273 219.5 289 C231.167 305 248 313 270 313 L270 313 Z " />
<glyph glyph-name="one" unicode="1" horiz-adv-x="389" d="M189 446 L-3 407 L22 271 L149 296 L144 0 L321 0 L329 446 L189 446 Z " />
<glyph glyph-name="two" unicode="2" horiz-adv-x="399" d="M245 120 L289 168 C320.333 202 339.5 229.667 346.5 251 C353.5 272.333 357 292.667 357 312 C357 338 353 360.5 345 379.5 C337 398.5 325.833 414 311.5 426 C297.167 438 280 446.5 260 451.5 C240 456.5 219.667 459 199 459 C175.667 459 149 456 119 450 C89 444 60.6667 436 34 426 L65 304 C91 312 114.667 316 136 316 C152.667 316 166.333 313.167 177 307.5 C187.667 301.833 193 293 193 281 C193 263.667 179.333 241.667 152 215 L44 110 L42 0 L388 0 L390 120 L245 120 Z " />
<glyph glyph-name="three" unicode="3" horiz-adv-x="415" d="M271 145 C292.333 149 310.667 158.5 326 173.5 C341.333 188.5 351.833 206.667 357.5 228 C363.167 249.333 366 269.667 366 289 C366 325 359.333 355.333 346 380 C332.667 404.667 313.167 423.667 287.5 437 C261.833 450.333 230 457 192 457 C169.333 457 143.833 454 115.5 448 C87.1667 442 60 434.333 34 425 L68 307 C94.6666 316.333 120.333 321 145 321 C165 321 181.333 316.333 194 307 C206.667 297.667 213 283.334 213 264 C213 242 204.167 225.833 186.5 215.5 C168.833 205.167 142 200 106 200 L103 78 C183.667 78 224 57.3333 224 16 C224 -15.3333 199 -31 149 -31 C127.667 -31 100.333 -28.3333 67 -23 L47 -153 C89.6667 -162.333 128.667 -167 164 -167 C237.333 -167 292 -152.333 328 -123 C364 -93.6667 382 -51.6667 382 3 C382 44.3333 372.5 77.1667 353.5 101.5 C334.5 125.833 307 140.333 271 145 L271 145 Z " />
<glyph glyph-name="four" unicode="4" horiz-adv-x="588" d="M556 120 L458 120 L465 446 L245 446 L39 130 L36 0 L286 0 L283 -155 L453 -155 L456 0 L554 0 L556 120 Z M299 312 L296 120 L180 120 L299 312 Z " />
<glyph glyph-name="five" unicode="5" horiz-adv-x="428" d="M218 202 L220 308 L396 308 L398 446 L70 446 L63 82 C67.6667 82 81.6667 82.8333 105 84.5 C128.333 86.1667 148.833 86.5 166.5 85.5 C184.167 84.5 198.333 80.8333 209 74.5 C219.667 68.1667 226.833 60.5 230.5 51.5 C234.167 42.5 236 33.3333 236 24 C236 4 229.333 -10 216 -18 C202.667 -26 183.333 -30 158 -30 C133.333 -30 101.333 -27 62 -21 L41 -151 C93.6667 -161.667 142.667 -167 188 -167 C257.333 -167 311.167 -149.833 349.5 -115.5 C387.833 -81.1667 407 -29.6667 407 39 C407 159.667 344 214 218 202 L218 202 Z " />
<glyph glyph-name="six" unicode="6" horiz-adv-x="500" d="M307 378 C275 378 245.333 374 218 366 C225.333 402 240.5 427.333 263.5 442 C286.5 456.667 321.667 464 369 464 L420 462 L432 602 C410 604.667 388 606 366 606 C320 606 277 598.833 237 584.5 C197 570.167 162.5 548.333 133.5 519 C104.5 489.667 81.8333 452.667 65.5 408 C49.1667 363.333 41 312.333 41 255 C41 203.667 47 160.833 59 126.5 C71 92.1667 87.1667 64.6667 107.5 44 C127.833 23.3333 151.667 8.83333 179 0.5 C206.333 -7.83333 234.333 -12 263 -12 C329 -12 379.833 6.33333 415.5 43 C451.167 79.6667 469 131 469 197 C469 254.333 455.333 298.833 428 330.5 C400.667 362.167 360.333 378 307 378 L307 378 Z M263 118 C251.667 118 241.667 120.667 233 126 C224.334 131.333 218.168 142.667 214.5 160 C210.833 177.333 209 205.333 209 244 L209 255 C222.333 258.333 236 260 250 260 C270 260 285.667 254.5 297 243.5 C308.333 232.5 314 213 314 185 C314 161 309.667 143.833 301 133.5 C292.333 123.167 279.667 118 263 118 L263 118 Z " />
<glyph glyph-name="seven" unicode="7" horiz-adv-x="469" d="M51 446 L49 308 L258 308 L53 -155 L234 -155 L452 358 L454 446 L51 446 Z " />
<glyph glyph-name="eight" unicode="8" horiz-adv-x="505" d="M371 311 C434.333 347.666 466 392.333 466 445 C466 477 455.667 506.333 435 533 C414.333 559.667 387.833 578.5 355.5 589.5 C323.167 600.5 291 606 259 606 C195.667 606 143.667 589.833 103 557.5 C62.3333 525.167 42 483 42 431 C42 373.667 71 327.333 129 292 C108.333 279.333 90.1667 265.667 74.5 251 C58.8333 236.334 47.3333 220.667 40 204 C32.6667 187.334 29 168.667 29 148 C29 95.3333 47.1667 55.5 83.5 28.5 C119.833 1.5 172.333 -12 241 -12 C316.333 -12 374 3.16667 414 33.5 C454 63.8333 474 105.667 474 159 C474 225 439.667 275.667 371 311 L371 311 Z M256 482 C292.667 482 311 464.667 311 430 C311 400 296 376.333 266 359 C238.667 372.333 220.5 385.167 211.5 397.5 C202.5 409.833 198 422.333 198 435 C198 449.667 203.167 461.167 213.5 469.5 C223.833 477.833 238 482 256 482 L256 482 Z M255 113 C235.667 113 220.333 118.167 209 128.5 C197.667 138.833 192 152.333 192 169 C192 183.667 196.5 196.833 205.5 208.5 C214.5 220.167 225.333 231 238 241 C270.666 226.333 292.333 213 303 201 C313.667 189 319 177 319 165 C319 150.333 313.167 138 301.5 128 C289.833 118 274.333 113 255 113 L255 113 Z " />
<glyph glyph-name="nine" unicode="9" horiz-adv-x="500" d="M237 458 C171 458 120.167 439.667 84.5 403 C48.8333 366.333 31 315 31 249 C31 191.667 44.6667 147.167 72 115.5 C99.3333 83.8333 139.667 68 193 68 C225 68 254.667 72 282 80 C274.667 44 259.5 18.6667 236.5 4 C213.5 -10.6667 178.333 -18 131 -18 L80 -16 L68 -156 C90 -158.667 112 -160 134 -160 C180 -160 223 -152.833 263 -138.5 C303 -124.167 337.5 -102.333 366.5 -73 C395.5 -43.6667 418.167 -6.66667 434.5 38 C450.833 82.6667 459 133.667 459 191 C459 242.333 453 285.167 441 319.5 C429 353.833 412.833 381.333 392.5 402 C372.167 422.667 348.334 437.167 321 445.5 C293.667 453.833 265.667 458 237 458 L237 458 Z M250 186 C230 186 214.333 191.5 203 202.5 C191.667 213.5 186 233 186 261 C186 285 190.333 302.167 199 312.5 C207.667 322.833 220.333 328 237 328 C248.333 328 258.333 325.333 267 320 C275.665 314.668 281.831 303.335 285.5 286 C289.167 268.667 291 240.667 291 202 L291 191 C277.667 187.667 264 186 250 186 L250 186 Z " />
<glyph glyph-name="colon" unicode="&#x3a;" horiz-adv-x="322" d="M162 452 C140 452 120.167 446 102.5 434 C84.8333 422 72.5 407.333 65.5 390 C58.5 372.667 55 357 55 343 C55 321.667 61 302 73 284 C85 266 99.3333 253.667 116 247 C132.667 240.333 148 237 162 237 C192 237 217.167 247.167 237.5 267.5 C257.833 287.833 268 313 268 343 C268 365.667 262.167 386 250.5 404 C238.834 422 224.667 434.5 208 441.5 C191.333 448.5 176 452 162 452 L162 452 Z M159 200 C137 200 117.167 194 99.5 182 C81.8333 170 69.5 155.333 62.5 138 C55.5 120.667 52 105 52 91 C52 69.6667 58 50 70 32 C82 14 96.3333 1.66667 113 -5 C129.667 -11.6667 145 -15 159 -15 C189 -15 214.167 -4.83333 234.5 15.5 C254.833 35.8333 265 61 265 91 C265 113.667 259.167 134 247.5 152 C235.834 170 221.667 182.5 205 189.5 C188.333 196.5 173 200 159 200 L159 200 Z " />
<glyph glyph-name="semicolon" unicode="&#x3b;" horiz-adv-x="321" d="M162 451 C140 451 120.167 445 102.5 433 C84.8333 421 72.5 406.333 65.5 389 C58.5 371.667 55 356 55 342 C55 320.667 61 301 73 283 C85 265 99.3333 252.667 116 246 C132.667 239.333 148 236 162 236 C192 236 217.167 246.167 237.5 266.5 C257.833 286.833 268 312 268 342 C268 364.667 262.167 385 250.5 403 C238.834 421 224.667 433.5 208 440.5 C191.333 447.5 176 451 162 451 L162 451 Z M72 179 L95 17 L64 -121 L170 -121 L241 38 C256.333 68 262 95.1667 258 119.5 C254 143.833 242.833 162.833 224.5 176.5 C206.167 190.167 183.167 197.333 155.5 198 C127.833 198.667 100 192.333 72 179 L72 179 Z " />
<glyph glyph-name="less" unicode="&#x3c;" horiz-adv-x="654" d="M578 479 L80 305 L78 151 L569 -35 L573 110 L263 223 L575 333 L578 479 Z " />
<glyph glyph-name="equal" unicode="&#x3d;" horiz-adv-x="566" d="M515 394 L50 394 L48 266 L512 266 L515 394 Z M514 220 L48 220 L45 97 L512 97 L514 220 Z " />
<glyph glyph-name="greater" unicode="&#x3e;" horiz-adv-x="646" d="M85 479 L82 334 L391 225 L81 110 L76 -37 L565 152 L568 306 L85 479 Z " />
<glyph glyph-name="question" unicode="&#x3f;" horiz-adv-x="512" d="M469 485 C469 609.667 390 672 232 672 C185.333 672 130.667 666.333 68 655 L92 507 C144.667 515 183.667 519 209 519 C260.333 519 286 506 286 480 C286 466.667 279.667 455.167 267 445.5 C254.333 435.833 230.667 422.667 196 406 C154 386 126.167 365.667 112.5 345 C98.8333 324.333 92 287.667 92 235 L275 235 C275 246.333 276.5 256.833 279.5 266.5 C282.5 276.167 289.333 284.667 300 292 C310.667 299.333 330 309.667 358 323 C402.666 344.333 432.333 367.667 447 393 C461.667 418.333 469 449 469 485 L469 485 Z M181 202 C159 202 139.167 196 121.5 184 C103.833 172 91.5 157.333 84.5 140 C77.5 122.667 74 107 74 93 C74 71.6667 80 52 92 34 C104 16 118.333 3.66667 135 -3 C151.667 -9.66667 167 -13 181 -13 C202.333 -13 221.833 -7.16667 239.5 4.5 C257.167 16.1667 269.5 30.3333 276.5 47 C283.5 63.6667 287 79 287 93 C287 123.667 276.833 149.5 256.5 170.5 C236.167 191.5 211 202 181 202 L181 202 Z " />
<glyph glyph-name="at" unicode="&#x40;" horiz-adv-x="740" d="M389 521 C340.333 521 295.167 513 253.5 497 C211.833 481 176.333 458.5 147 429.5 C117.667 400.5 95 367 79 329 C63 291 55 250.667 55 208 C55 166 62.8333 126 78.5 88 C94.1667 50 116 17 144 -11 C172 -39 205.333 -60.8333 244 -76.5 C282.667 -92.1667 324 -100 368 -100 C393.333 -100 417.167 -97.5 439.5 -92.5 C461.833 -87.5 478.667 -81.6667 490 -75 L465 3 C452.333 -2.33333 437 -6.66667 419 -10 C401 -13.3333 385 -15 371 -15 C339 -15 308.333 -8.5 279 4.5 C249.667 17.5 224.667 34.3333 204 55 C183.333 75.6666 168.333 99.3333 159 126 C149.667 152.667 145 179 145 205 C145 239.667 151.333 271.667 164 301 C176.667 330.333 193.833 355.167 215.5 375.5 C237.167 395.833 263 410.667 293 420 C323 429.333 353.667 434 385 434 C449 434 499.667 417.833 537 385.5 C574.333 353.167 593 306.667 593 246 C593 220 589.333 196.167 582 174.5 C574.667 152.833 565.5 137.667 554.5 129 C543.5 120.333 533 116 523 116 C508.333 116 497.667 122.5 491 135.5 C484.333 148.5 482.333 167 485 191 L503 364 C479 370.667 454.333 374 429 374 C361 374 308.333 358.333 271 327 C233.667 295.667 215 250.667 215 192 C215 146.667 226.167 111.167 248.5 85.5 C270.833 59.8333 302 47 342 47 C385.333 47 415.667 63.3333 433 96 C439.665 76 450.832 61.1667 466.5 51.5 C482.167 41.8333 499.667 37 519 37 C545.667 37 570 44.8333 592 60.5 C614 76.1667 632 95.1667 646 117.5 C660 139.833 670 163.667 676 189 C682 214.333 685 238.333 685 261 C685 300.333 677.667 336.167 663 368.5 C648.333 400.833 627.5 428.333 600.5 451 C573.5 473.667 541.833 491 505.5 503 C469.167 515 430.333 521 389 521 L389 521 Z M300 191 C300 230.333 310.333 258.667 331 276 C351.666 293.333 381.333 301.667 420 301 L404 136 C386 125.333 368.333 120 351 120 C317 120 300 143.667 300 191 L300 191 Z " />
<glyph glyph-name="A" unicode="A" horiz-adv-x="688" d="M483 0 L682 0 L465 660 L234 660 L-8 0 L192 0 L226 109 L452 109 L483 0 Z M272 260 L343 489 L409 260 L272 260 Z " />
<glyph glyph-name="B" unicode="B" horiz-adv-x="570" d="M391 339 C419.666 341 444.333 349.833 465 365.5 C485.667 381.167 500 400.167 508 422.5 C516 444.833 520 467 520 489 C519.333 544.332 499.667 586.666 461 616 C422.333 645.333 366.667 660 294 660 L63 660 L51 0 L279 0 C362.333 0 426.833 16.3333 472.5 49 C518.167 81.6667 541.333 127.667 542 187 C541.333 233.667 527.333 269.833 500 295.5 C472.667 321.167 436.334 335.667 391 339 L391 339 Z M279 395 L227 395 L229 520 L290 520 C328 520 347 500.333 347 461 C347 417 324.333 395 279 395 L279 395 Z M278 141 L222 141 L225 275 L294 275 C327.333 275 344.667 253.667 346 211 C345.333 164.333 322.667 141 278 141 L278 141 Z " />
<glyph glyph-name="C" unicode="C" horiz-adv-x="569" d="M29 322 C29 212 58.6667 128.833 118 72.5 C177.333 16.1667 265 -12 381 -12 C425.667 -12 479 -5.66667 541 7 L510 164 C466.667 156 431 152 403 152 C339.667 152 293.333 166.5 264 195.5 C234.667 224.5 220 270 220 332 C220 392 233.833 436 261.5 464 C289.166 492 333.333 506 394 506 C424.666 506 463.333 502 510 494 L541 651 C475.667 663.667 420 670 374 670 C320 670 271.5 662.5 228.5 647.5 C185.5 632.5 149.167 610.333 119.5 581 C89.8333 551.667 67.3333 515.167 52 471.5 C36.6667 427.833 29 378 29 322 L29 322 Z " />
<glyph glyph-name="D" unicode="D" horiz-adv-x="684" d="M307 660 L63 660 L51 0 L322 0 C369.333 0 414.167 7.66667 456.5 23 C498.833 38.3333 534.667 60 564 88 C593.333 116 616.333 150.833 633 192.5 C649.667 234.167 658 283.667 658 341 C658 445.667 628.667 525 570 579 C511.333 633 423.667 660 307 660 L307 660 Z M248 502 L307 502 C362.333 502 402.833 487.833 428.5 459.5 C454.167 431.167 467 387.334 467 328 C467 268 453.833 224.833 427.5 198.5 C401.167 172.167 358.667 159 300 159 L242 159 L248 502 Z " />
<glyph glyph-name="E" unicode="E" horiz-adv-x="546" d="M241 150 L243 265 L458 265 L460 405 L245 405 L247 520 L495 520 L497 660 L63 660 L51 0 L499 0 L502 150 L241 150 Z " />
<glyph glyph-name="F" unicode="F" horiz-adv-x="529" d="M500 497 L503 660 L64 660 L53 0 L241 0 L245 217 L481 217 L484 369 L248 369 L250 497 L500 497 Z " />
<glyph glyph-name="G" unicode="G" horiz-adv-x="640" d="M426 322 L422 151 L390 151 C325.333 151 280 163.5 254 188.5 C228 213.5 215 257.333 215 320 C215 363.333 220.667 398.167 232 424.5 C243.333 450.833 262.333 471 289 485 C315.667 499 354.667 506.333 406 507 C447.333 507 502 501.333 570 490 L597 649 C565.667 655.667 530.833 661.167 492.5 665.5 C454.167 669.833 421 672 393 672 C335 672 283 664.167 237 648.5 C191 632.835 152.667 609.668 122 579 C91.3333 548.333 68.1667 510.833 52.5 466.5 C36.8333 422.167 29 372 29 316 C29 205.333 59.1667 123 119.5 69 C179.833 15 271.333 -12 394 -12 C447.333 -12 514 -5.66667 594 7 L599 322 L426 322 Z " />
<glyph glyph-name="H" unicode="H" horiz-adv-x="720" d="M479 660 L475 412 L252 412 L256 660 L63 660 L53 0 L246 0 L250 246 L472 246 L468 0 L664 0 L674 660 L479 660 Z " />
<glyph glyph-name="I" unicode="I" horiz-adv-x="302" d="M257 660 L63 660 L52 0 L246 0 L257 660 Z " />
<glyph glyph-name="J" unicode="J" horiz-adv-x="312" d="M268 660 L73 660 L62 35 C61.3333 11.6667 54.8333 -11.1667 42.5 -33.5 C30.1667 -55.8333 9.66667 -82 -19 -112 L118 -244 C164 -203.333 198.333 -158.833 221 -110.5 C243.667 -62.1667 255.667 -6.66667 257 56 L268 660 Z " />
<glyph glyph-name="K" unicode="K" horiz-adv-x="680" d="M63 660 L53 0 L248 0 L259 660 L63 660 Z M458 347 L640 660 L430 660 L257 339 L447 0 L674 0 L458 347 Z " />
<glyph glyph-name="L" unicode="L" horiz-adv-x="544" d="M257 660 L63 660 L51 0 L508 0 L512 169 L249 169 L257 660 Z " />
<glyph glyph-name="M" unicode="M" horiz-adv-x="924" d="M873 0 L867 660 L606 660 L473 181 L358 660 L81 660 L48 0 L233 0 L231 482 L358 0 L551 0 L692 482 L685 0 L873 0 Z " />
<glyph glyph-name="N" unicode="N" horiz-adv-x="739" d="M515 660 L515 137 L358 660 L63 660 L53 0 L229 0 L230 499 L381 0 L683 0 L694 660 L515 660 Z " />
<glyph glyph-name="O" unicode="O" horiz-adv-x="733" d="M369 672 C320.333 672 275.167 664.667 233.5 650 C191.833 635.335 155.667 613.668 125 585 C94.3333 556.334 70.6667 520.168 54 476.5 C37.3333 432.833 29 383.667 29 329 C29 277.667 36.3333 230.833 51 188.5 C65.6666 146.167 87.3333 110.167 116 80.5 C144.667 50.8333 180 28 222 12 C264 -4 311 -12 363 -12 C415 -12 462.5 -4.16667 505.5 11.5 C548.5 27.1667 584.833 50.1667 614.5 80.5 C644.167 110.833 667 147.833 683 191.5 C699 235.167 707 284 707 338 C707 390 698.833 437.167 682.5 479.5 C666.167 521.832 643 557.166 613 585.5 C583 613.833 547.167 635.333 505.5 650 C463.833 664.667 418.333 672 369 672 L369 672 Z M367 509 C415 509 450.667 494.667 474 466 C497.333 437.333 509 392.333 509 331 C509 269 497.167 223.5 473.5 194.5 C449.833 165.5 413.667 151 365 151 C315.667 151 279.167 165.667 255.5 195 C231.833 224.333 220 269 220 329 C220 391.666 232.333 437.333 257 466 C281.666 494.667 318.333 509 367 509 L367 509 Z " />
<glyph glyph-name="P" unicode="P" horiz-adv-x="566" d="M283 660 L63 660 L51 0 L237 0 L241 183 L269 183 C364.333 183 435.167 202.833 481.5 242.5 C527.833 282.167 551 342.333 551 423 C551 581 461.667 660 283 660 L283 660 Z M278 339 L244 339 L246 502 L275 502 C307.667 502 331.167 495.333 345.5 482 C359.833 468.667 367 447.667 367 419 C367 391 360 370.667 346 358 C332 345.333 309.333 339 278 339 L278 339 Z " />
<glyph glyph-name="Q" unicode="Q" horiz-adv-x="736" d="M733 -2 C665 24.6667 599.333 43 536 53 C591.333 73.6667 633.666 107.833 663 155.5 C692.333 203.167 707 264 707 338 C707 390 698.833 437.167 682.5 479.5 C666.167 521.832 643 557.166 613 585.5 C583 613.833 547.167 635.333 505.5 650 C463.833 664.667 418.333 672 369 672 C320.333 672 275.167 664.667 233.5 650 C191.833 635.335 155.667 613.668 125 585 C94.3333 556.334 70.6667 520.168 54 476.5 C37.3333 432.833 29 383.667 29 329 C29 280.333 35.6667 235.667 49 195 C62.3333 154.333 81.6667 119.333 107 90 C132.333 60.6667 163.833 37.3333 201.5 20 C239.167 2.66667 281.667 -7.66667 329 -11 L680 -136 L733 -2 Z M367 509 C415 509 450.667 494.667 474 466 C497.333 437.333 509 392.333 509 331 C509 269 497.167 223.5 473.5 194.5 C449.833 165.5 413.667 151 365 151 C315.667 151 279.167 165.667 255.5 195 C231.833 224.333 220 269 220 329 C220 391.666 232.333 437.333 257 466 C281.666 494.667 318.333 509 367 509 L367 509 Z " />
<glyph glyph-name="R" unicode="R" horiz-adv-x="593" d="M587 0 L465 265 C519.667 303 547 362.667 547 444 C547 588 459.333 660 284 660 L63 660 L51 0 L232 0 L236 217 L262 217 L307 219 L389 0 L587 0 Z M239 365 L241 512 L273 512 C305 512 328.167 506.167 342.5 494.5 C356.833 482.833 364 464 364 438 C364 412.667 357.333 394.167 344 382.5 C330.667 370.833 310.333 365 283 365 L239 365 Z " />
<glyph glyph-name="S" unicode="S" horiz-adv-x="464" d="M275 672 C235 672 199 666.833 167 656.5 C135 646.167 108.333 631.667 87 613 C65.6667 594.336 49.6667 572.169 39 546.5 C28.3333 520.834 23 493.001 23 463 C23 445.668 24.8333 429.334 28.5 414 C32.1667 398.667 37.6667 383.834 45 369.5 C52.3333 355.167 63.6666 340 79 324 C94.3333 308 119.833 289.833 155.5 269.5 C191.167 249.167 213.333 235.667 222 229 C230.667 222.333 237 215.5 241 208.5 C245 201.5 247 194.333 247 187 C247 163 221.667 151 171 151 C138.333 151 98.3333 155.333 51 164 L19 11 C45 3.66667 73.5 -2 104.5 -6 C135.5 -10 163.667 -12 189 -12 C270.333 -12 333.333 6.5 378 43.5 C422.667 80.5 445 130.333 445 193 C445 215.667 442.333 235.5 437 252.5 C431.668 269.5 425.335 283.667 418 295 C410.667 306.333 402.5 316.667 393.5 326 C384.5 335.333 373.667 344.833 361 354.5 C348.333 364.165 325.5 378.332 292.5 397 C259.5 415.666 239.167 430.333 231.5 441 C223.833 451.667 220 461.667 220 471 C220 484.333 226.167 494.167 238.5 500.5 C250.833 506.833 271 510 299 510 C326.333 510 358.333 505 395 495 L429 649 C409 655.667 384.667 661.167 356 665.5 C327.333 669.833 300.333 672 275 672 L275 672 Z " />
<glyph glyph-name="T" unicode="T" horiz-adv-x="618" d="M624 660 L4 660 L1 498 L217 498 L208 0 L399 0 L408 498 L621 498 L624 660 Z " />
<glyph glyph-name="U" unicode="U" horiz-adv-x="688" d="M643 660 L453 660 L446 236 C445.333 204.667 437.667 182.167 423 168.5 C408.333 154.833 384.667 148 352 148 C280.667 148 245 177.333 245 236 L252 660 L63 660 L55 189 C54.3333 122.333 78.8333 70.6667 128.5 34 C178.167 -2.66667 249 -21 341 -21 C386.333 -21 427.333 -16.3333 464 -7 C500.667 2.33333 531.5 16 556.5 34 C581.5 52 600.667 74.1667 614 100.5 C627.333 126.833 634.333 156.333 635 189 L643 660 Z " />
<glyph glyph-name="V" unicode="V" horiz-adv-x="658" d="M459 660 L328 179 L213 660 L4 660 L202 0 L442 0 L664 660 L459 660 Z " />
<glyph glyph-name="W" unicode="W" horiz-adv-x="933" d="M742 660 L664 177 L576 660 L356 660 L260 180 L196 660 L14 660 L128 0 L356 0 L449 487 L538 0 L764 0 L929 660 L742 660 Z " />
<glyph glyph-name="X" unicode="X" horiz-adv-x="705" d="M699 0 L463 342 L681 660 L462 660 L360 491 L244 660 L13 660 L226 343 L-8 0 L212 0 L329 191 L457 0 L699 0 Z " />
<glyph glyph-name="Y" unicode="Y" horiz-adv-x="641" d="M445 660 L325 439 L215 660 L4 660 L223 264 L218 0 L412 0 L416 264 L647 660 L445 660 Z " />
<glyph glyph-name="Z" unicode="Z" horiz-adv-x="624" d="M597 660 L56 660 L54 499 L345 499 L33 130 L30 0 L587 0 L590 161 L287 161 L595 525 L597 660 Z " />
<glyph glyph-name="bracketleft" unicode="&#x5b;" horiz-adv-x="340" d="M326 608 L328 735 L83 735 L66 -203 L312 -203 L314 -78 L208 -78 L218 608 L326 608 Z " />
<glyph glyph-name="backslash" unicode="&#x5c;" horiz-adv-x="553" d="M53 735 L338 -203 L473 -203 L194 735 L53 735 Z " />
<glyph glyph-name="bracketright" unicode="&#x5d;" horiz-adv-x="341" d="M31 735 L28 610 L135 610 L124 -76 L16 -76 L14 -203 L260 -203 L277 735 L31 735 Z " />
<glyph glyph-name="asciicircum" unicode="&#x5e;" horiz-adv-x="626" d="M565 0 L385 472 L232 472 L53 0 L192 0 L307 315 L423 0 L565 0 Z " />
<glyph glyph-name="underscore" unicode="&#x5f;" horiz-adv-x="492" d="M-5 -54 L-7 -179 L484 -179 L487 -54 L-5 -54 Z " />
<glyph glyph-name="grave" unicode="&#x60;" horiz-adv-x="200" d="M164 660 L18 660 L70 521 L195 521 L164 660 Z " />
<glyph glyph-name="a" unicode="a" horiz-adv-x="493" d="M253 458 C185 458 117.667 447 51 425 L79 312 C133 327.333 179.333 335 218 335 C244 335 262.167 331.167 272.5 323.5 C282.833 315.833 287.667 302.333 287 283 L287 265 L249 265 C167 265 106.833 253.667 68.5 231 C30.1667 208.333 11 171.667 11 121 C11 78.3333 24 45.5 50 22.5 C76 -0.5 114.333 -12 165 -12 C194.333 -12 218.5 -7.83333 237.5 0.5 C256.5 8.83333 275 23.3333 293 44 L294 0 L454 0 L459 297 C459 350.333 442.833 390.5 410.5 417.5 C378.167 444.5 325.667 458 253 458 L253 458 Z M224 95 C208 95 196 99 188 107 C180 115 176 125.333 176 138 C176 154 182.833 165.833 196.5 173.5 C210.167 181.167 232.333 185 263 185 L286 185 L286 115 C275.333 107.667 264.333 102.5 253 99.5 C241.667 96.5 232 95 224 95 L224 95 Z " />
<glyph glyph-name="b" unicode="b" horiz-adv-x="545" d="M345 455 C301 455 261.333 439.333 226 408 L231 660 L48 660 L37 12 C69 5.33333 108.167 -0.166672 154.5 -4.5 C200.833 -8.83333 240.333 -10.6667 273 -10 C439.667 -4.66667 523 77.3333 523 236 C523 306.666 507.167 360.833 475.5 398.5 C443.833 436.167 400.333 455 345 455 L345 455 Z M221 122 L224 308 C240 312.667 254.667 315 268 315 C317.333 315 342 281.333 342 214 C342 184 337.333 162.333 328 149 C318.667 135.667 305.5 127.167 288.5 123.5 C271.5 119.833 249 119.333 221 122 L221 122 Z " />
<glyph glyph-name="c" unicode="c" horiz-adv-x="421" d="M207 223 C207 285 238.333 316 301 316 C325 316 352.333 312 383 304 L410 432 C374 444 342.667 451.333 316 454 C289.333 456.667 271.667 458 263 458 C221.667 458 185.667 451.833 155 439.5 C124.333 427.167 99 410.167 79 388.5 C59 366.833 44.8333 341.5 36.5 312.5 C28.1667 283.5 24 253.667 24 223 C24 182.333 30.3333 146.667 43 116 C55.6667 85.3333 73 60.6667 95 42 C117 23.3333 142.333 9.66667 171 1 C199.667 -7.66667 230.333 -12 263 -12 C285 -12 309.333 -9.66666 336 -5 C362.666 -0.333328 387.333 6 410 14 L383 142 C352.333 134 325 130 301 130 C238.333 130 207 161 207 223 L207 223 Z " />
<glyph glyph-name="d" unicode="d" horiz-adv-x="547" d="M329 660 L327 437 C288.333 449 248 455 206 455 C141.333 455 94.8333 434.667 66.5 394 C38.1667 353.333 24 295.667 24 221 C24 173 30.3333 131.667 43 97 C55.6667 62.3333 74.8333 36.3333 100.5 19 C126.167 1.66667 157.667 -7 195 -7 C253 -7 298 13.3333 330 54 L329 0 L503 0 L513 660 L329 660 Z M251 128 C231 128 217.667 136.5 211 153.5 C204.333 170.5 201 192.667 201 220 C201 257.333 205.667 284 215 300 C224.333 316 239.666 324 261 324 C282.333 324 303.333 320.333 324 313 L321 154 C295.667 136.667 272.334 128 251 128 L251 128 Z " />
<glyph glyph-name="e" unicode="e" horiz-adv-x="528" d="M505 237 C505 309.667 486.167 364.667 448.5 402 C410.833 439.333 356.333 458 285 458 C243 458 205.333 451.833 172 439.5 C138.667 427.167 110.667 409.834 88 387.5 C65.3333 365.167 49 338.167 39 306.5 C29 274.833 24 242 24 208 C24 133.333 45.6667 78.3333 89 43 C132.333 7.66667 200.667 -10 294 -10 C354.667 -10 419 -2.66667 487 12 L467 125 C400.333 113.667 345.333 108 302 108 C270 108 247 112.833 233 122.5 C219 132.167 210.333 150 207 176 L501 176 C503.667 197.333 505 217.667 505 237 L505 237 Z M278 345 C297.333 345 312 339.167 322 327.5 C332 315.833 337.333 296.333 338 269 L207 269 C210.333 294.333 217.666 313.333 229 326 C240.333 338.667 256.667 345 278 345 L278 345 Z " />
<glyph glyph-name="f" unicode="f" horiz-adv-x="378" d="M324 543 C338 543 355 541 375 537 L396 655 C346.667 667 304 673 268 673 C146.667 673 84.6667 611 82 487 L81 446 L18 446 L16 305 L79 305 L74 0 L256 0 L261 305 L365 305 L368 446 L264 446 L264 467 C264.665 494.333 269.831 513.833 279.5 525.5 C289.167 537.167 304 543 324 543 L324 543 Z " />
<glyph glyph-name="g" unicode="g" horiz-adv-x="546" d="M353 446 L353 406 C311.667 440.667 267 458 219 458 C161 458 114 436.833 78 394.5 C42 352.167 24 296.333 24 227 C24 189 28.8333 155 38.5 125 C48.1667 95 61.5 69.8333 78.5 49.5 C95.5 29.1667 115.833 13.8333 139.5 3.5 C163.167 -6.83333 188.667 -12 216 -12 C234 -12 253.167 -9.66666 273.5 -5 C293.833 -0.333328 311 6 325 14 L324 -35 C324 -44.3333 320.167 -53.5 312.5 -62.5 C304.833 -71.5 291.833 -78.3333 273.5 -83 C255.167 -87.6667 235 -90 213 -90 C173.667 -90 123.333 -84.3333 62 -73 L39 -208 C116.333 -223.333 183 -231 239 -231 C331.667 -231 399 -216.167 441 -186.5 C483 -156.833 504.667 -113.667 506 -57 L514 446 L353 446 Z M274 121 C230.667 121 209 156.333 209 227 C209 263.666 214.333 288.833 225 302.5 C235.667 316.167 252.333 323 275 323 C295 323 313.333 320 330 314 L327 134 C307.667 125.333 290 121 274 121 L274 121 Z " />
<glyph glyph-name="h" unicode="h" horiz-adv-x="538" d="M357 458 C302.333 458 258 443 224 413 L228 660 L48 660 L36 0 L217 0 L222 311 C236.667 315.667 251.333 318 266 318 C284.666 318 298.332 312.167 307 300.5 C315.667 288.833 319.667 268.667 319 240 L315 0 L498 0 L504 309 C505.333 408.333 456.333 458 357 458 L357 458 Z " />
<glyph glyph-name="i" unicode="i" horiz-adv-x="259" d="M135 690 C105 690 80.8333 680.667 62.5 662 C44.1667 643.333 35 619.333 35 590 C35 560.667 44.1667 536.667 62.5 518 C80.8333 499.333 105 490 135 490 C164.333 490 188.333 499.333 207 518 C225.667 536.667 235 560.667 235 590 C235 619.333 225.667 643.333 207 662 C188.333 680.667 164.333 690 135 690 L135 690 Z M227 446 L44 446 L36 0 L219 0 L227 446 Z " />
<glyph glyph-name="j" unicode="j" horiz-adv-x="255" d="M133 690 C103 690 78.8333 680.667 60.5 662 C42.1667 643.333 33 619.333 33 590 C33 560.667 42.1667 536.667 60.5 518 C78.8333 499.333 103 490 133 490 C162.333 490 186.333 499.333 205 518 C223.667 536.667 233 560.667 233 590 C233 619.333 223.667 643.333 205 662 C186.333 680.667 162.333 690 133 690 L133 690 Z M223 446 L43 446 L36 22 C35.3333 -14.6667 29.3333 -41.6667 18 -59 C6.66667 -76.3333 -10.3333 -96.3333 -33 -119 L78 -243 C122.667 -205 156.667 -165.833 180 -125.5 C203.333 -85.1667 215.333 -37 216 19 L223 446 Z " />
<glyph glyph-name="k" unicode="k" horiz-adv-x="528" d="M36 0 L220 0 L232 660 L48 660 L36 0 Z M405 237 L523 446 L329 446 L234 236 L335 0 L537 0 L405 237 Z " />
<glyph glyph-name="l" unicode="l" horiz-adv-x="265" d="M233 660 L48 660 L37 0 L222 0 L233 660 Z " />
<glyph glyph-name="m" unicode="m" horiz-adv-x="808" d="M629 458 C599.667 458 571.833 452.833 545.5 442.5 C519.167 432.167 497.667 416.334 481 395 C469 417.666 451.667 433.833 429 443.5 C406.333 453.167 381.333 458 354 458 C326 458 299.667 453.5 275 444.5 C250.333 435.5 229.667 421.667 213 403 L212 446 L44 446 L36 0 L217 0 L222 312 C234 316 247.667 318 263 318 C280.333 318 293.167 312.167 301.5 300.5 C309.833 288.833 314 268.667 314 240 L311 0 L493 0 L499 309 L499 312 C510.333 316 523.333 318 538 318 C555.331 318 568.164 312.167 576.5 300.5 C584.833 288.833 589 268.667 589 240 L586 0 L768 0 L774 309 C774.667 358.333 762.5 395.5 737.5 420.5 C712.5 445.5 676.333 458 629 458 L629 458 Z " />
<glyph glyph-name="n" unicode="n" horiz-adv-x="537" d="M357 458 C329 458 302.167 453.333 276.5 444 C250.833 434.667 229.667 420.667 213 402 L212 446 L44 446 L36 0 L217 0 L222 311 C236 315.667 250.667 318 266 318 C289.333 318 304.167 310.5 310.5 295.5 C316.833 280.5 320 262 320 240 L316 0 L497 0 L503 309 C503 408.333 454.333 458 357 458 L357 458 Z " />
<glyph glyph-name="o" unicode="o" horiz-adv-x="566" d="M287 458 C203.667 458 139 436.5 93 393.5 C47 350.5 24 290.667 24 214 C24 140.667 45.6667 84.6667 89 46 C132.333 7.33333 194 -12 274 -12 C358.667 -12 424.667 8.83333 472 50.5 C519.333 92.1667 543 150.667 543 226 C543 299.333 520.5 356.333 475.5 397 C430.5 437.667 367.667 458 287 458 L287 458 Z M283 317 C308.333 317 326.667 309.667 338 295 C349.333 280.333 355 257.333 355 226 C355 193.333 349 169 337 153 C325 137 306.333 129 281 129 C255.667 129 237.167 136.667 225.5 152 C213.833 167.333 208 191 208 223 C208 255.667 214 279.5 226 294.5 C238 309.5 257 317 283 317 L283 317 Z " />
<glyph glyph-name="p" unicode="p" horiz-adv-x="546" d="M345 453 C316.333 453 291.833 447.667 271.5 437 C251.167 426.333 232.333 412.667 215 396 L217 446 L44 446 L33 -219 L216 -219 L218 -2 C237.333 -8.66667 259.667 -12 285 -12 C319.667 -12 351.667 -6.83333 381 3.5 C410.333 13.8333 435.5 29.3333 456.5 50 C477.5 70.6667 493.833 96.8333 505.5 128.5 C517.167 160.167 523 196.333 523 237 C523 305.666 507.167 358.833 475.5 396.5 C443.833 434.167 400.333 453 345 453 L345 453 Z M252 119 L220 120 L222 305 C237.333 310.333 252.666 313 268 313 C293.333 313 312 304.667 324 288 C336 271.333 342 246 342 212 C342 178.667 335.333 154.833 322 140.5 C308.667 126.167 285.334 119 252 119 L252 119 Z " />
<glyph glyph-name="q" unicode="q" horiz-adv-x="546" d="M286 456 C230 456 182.667 446.5 144 427.5 C105.333 408.5 75.6667 380.667 55 344 C34.3333 307.333 24 261 24 205 C24 135.667 39.8333 82.1667 71.5 44.5 C103.167 6.83333 146.667 -12 202 -12 C246 -12 285.667 3.66667 321 35 L316 -219 L497 -219 L510 423 C476.667 432.333 439.167 440.167 397.5 446.5 C355.833 452.833 318.667 456 286 456 L286 456 Z M279 128 C253.667 128 235 136.333 223 153 C211 169.667 205 195 205 229 C205 267 213.5 293 230.5 307 C247.5 321 279.333 325.667 326 321 L323 135 C307 130.333 292.333 128 279 128 L279 128 Z " />
<glyph glyph-name="r" unicode="r" horiz-adv-x="371" d="M324 455 C282 455 245 437.333 213 402 L214 446 L44 446 L36 0 L217 0 L219 273 C231.667 284.333 247.833 292.167 267.5 296.5 C287.166 300.833 314.333 303 349 303 L365 303 L368 449 C355.333 453 340.667 455 324 455 L324 455 Z " />
<glyph glyph-name="s" unicode="s" horiz-adv-x="393" d="M360 437 C330.667 446.333 303 452.167 277 454.5 C251 456.833 233.333 458 224 458 C182.667 458 147.667 452 119 440 C90.3333 428 68.1667 410.5 52.5 387.5 C36.8333 364.5 29 335.333 29 300 C29 280.667 31.5 263.667 36.5 249 C41.5 234.333 47.6667 223 55 215 C62.3333 207 69.8333 200.667 77.5 196 C85.1667 191.333 94.1667 187 104.5 183 C114.833 179 132 174.667 156 170 C180 165.333 194.833 160.833 200.5 156.5 C206.167 152.167 209 147 209 141 C209 122.333 189.667 113 151 113 C128.333 113 95.3333 117.333 52 126 L27 10 C77 -4.66667 124.333 -12 169 -12 C212.333 -12 249 -5.83333 279 6.5 C309 18.8333 332.167 36.5 348.5 59.5 C364.833 82.5 373 111.333 373 146 C373 169.333 369.333 188.166 362 202.5 C354.668 216.833 346.835 227.666 338.5 235 C330.168 242.332 321.835 248.166 313.5 252.5 C305.167 256.833 296.167 260.5 286.5 263.5 C276.833 266.5 261.167 270.5 239.5 275.5 C217.834 280.5 203.167 285.5 195.5 290.5 C187.833 295.5 184 302 184 310 C184 328 202.667 337 240 337 C268.666 337 300.333 332.667 335 324 L360 437 Z " />
<glyph glyph-name="t" unicode="t" horiz-adv-x="401" d="M379 150 C353.667 144.667 327.667 142 301 142 C283.668 142 273.334 146.667 270 156 C266.669 165.333 265.335 178.333 266 195 L268 305 L393 305 L395 446 L271 446 L273 584 L97 584 L95 446 L16 446 L14 305 L92 305 L89 120 C88.3333 73.3333 100.5 39.6667 125.5 19 C150.5 -1.66667 190 -12 244 -12 C267.333 -12 293.667 -10 323 -6 C352.333 -2 376.667 2.66667 396 8 L379 150 Z " />
<glyph glyph-name="u" unicode="u" horiz-adv-x="527" d="M310 446 L306 132 C290 128 275.333 126 262 126 C246 126 234.333 131.5 227 142.5 C219.667 153.5 216.333 172 217 198 L222 446 L40 446 L34 136 C33.3333 84.6667 46.3333 47.1667 73 23.5 C99.6667 -0.166672 136 -12 182 -12 C210.667 -12 236.167 -8.16666 258.5 -0.5 C280.833 7.16667 302 19.3333 322 36 L321 0 L483 0 L491 446 L310 446 Z " />
<glyph glyph-name="v" unicode="v" horiz-adv-x="505" d="M330 446 L253 121 L186 446 L-10 446 L128 0 L344 0 L527 446 L330 446 Z " />
<glyph glyph-name="w" unicode="w" horiz-adv-x="826" d="M642 446 L582 121 L537 446 L300 446 L242 117 L187 446 L1 446 L112 0 L349 0 L407 313 L460 0 L695 0 L828 446 L642 446 Z " />
<glyph glyph-name="x" unicode="x" horiz-adv-x="505" d="M519 0 L371 231 L514 446 L327 446 L265 320 L205 446 L3 446 L129 225 L-18 0 L199 0 L259 121 L318 0 L519 0 Z " />
<glyph glyph-name="y" unicode="y" horiz-adv-x="509" d="M334 446 L256 117 L190 446 L-10 446 L150 -15 C126 -37 90.6667 -58.3333 44 -79 L16 -91 L80 -239 C148.667 -215 204.333 -183.5 247 -144.5 C289.667 -105.5 323.667 -55.3333 349 6 L531 446 L334 446 Z " />
<glyph glyph-name="z" unicode="z" horiz-adv-x="443" d="M430 446 L22 446 L20 322 L240 322 L17 130 L15 0 L424 0 L426 123 L217 123 L428 317 L430 446 Z " />
<glyph glyph-name="braceleft" unicode="&#x7b;" horiz-adv-x="453" d="M347 364 L351 568 C351.667 584.667 354.167 595.833 358.5 601.5 C362.833 607.167 371.333 610 384 610 L436 610 L439 735 L300 735 C269.333 735 247 728.667 233 716 C219 703.336 211.667 682.669 211 654 L207 411 C206.334 381.667 199.167 361.5 185.5 350.5 C171.833 339.5 146.667 334 110 334 L76 334 L73 215 L117 215 C150.333 215 173.167 211.5 185.5 204.5 C197.833 197.5 203.666 185 203 167 L198 -121 C197.333 -149.667 201.333 -170.5 210 -183.5 C218.667 -196.5 233 -203 253 -203 L424 -203 L426 -78 L372 -78 C356 -78 346.5 -74.8333 343.5 -68.5 C340.5 -62.1667 339 -54 339 -44 L343 175 C343.667 201.667 333 223.833 311 241.5 C289 259.167 255.667 271 211 277 C254.333 281 287.667 290.167 311 304.5 C334.333 318.833 346.333 338.667 347 364 L347 364 Z " />
<glyph glyph-name="bar" unicode="&#x7c;" horiz-adv-x="364" d="M119 735 L102 -203 L246 -203 L263 735 L119 735 Z " />
<glyph glyph-name="braceright" unicode="&#x7d;" horiz-adv-x="452" d="M323 334 C293.667 334 274 337.5 264 344.5 C254 351.5 249.333 365 250 385 L255 667 C255.667 691 250.667 708.333 240 719 C229.333 729.667 212 735 188 735 L30 735 L28 610 L81 610 C97 610 106.667 606.833 110 600.5 C113.333 594.167 114.667 586 114 576 L110 377 C109.333 352.333 120.667 330.833 144 312.5 C167.333 294.167 202 282 248 276 C202 272 166.833 263.333 142.5 250 C118.167 236.667 105.667 216 105 188 L101 -36 C101 -56 98 -68 92 -72 C86 -76 78 -78 68 -78 L16 -78 L14 -203 L154 -203 C184.667 -203 206.833 -196.667 220.5 -184 C234.167 -171.333 241.333 -150.667 242 -122 L247 149 C248.333 175 254.666 192.5 266 201.5 C277.333 210.5 298.667 215 330 215 L378 215 L381 334 L323 334 Z " />
<glyph glyph-name="asciitilde" unicode="&#x7e;" horiz-adv-x="587" d="M172 341 C142.667 341 114.5 334.167 87.5 320.5 C60.5 306.833 42 289 32 267 L99 166 C107 174 119.167 181 135.5 187 C151.833 193 166.333 196 179 196 C186.333 196 196.167 194.667 208.5 192 C220.833 189.333 248 179 290 161 C332 143 367.333 134 396 134 C428 134 458.5 142.833 487.5 160.5 C516.5 178.167 539.667 201.333 557 230 L486 322 C472.667 308.667 456.667 298 438 290 C419.333 282 402.667 278 388 278 C370.667 278 343.334 286.333 306 303 C268.667 319.667 240.667 330.167 222 334.5 C203.334 338.833 186.667 341 172 341 L172 341 Z " />
<glyph glyph-name="uni00A0" unicode="&#xa0;" horiz-adv-x="150" d="" />
<glyph glyph-name="exclamdown" unicode="&#xa1;" horiz-adv-x="383" d="M193 458 C171 458 151.167 452 133.5 440 C115.833 428 103.5 413.333 96.5 396 C89.5 378.667 86 363 86 349 C86 327.667 92 308 104 290 C116 272 130.333 259.667 147 253 C163.667 246.333 179 243 193 243 C223 243 248.167 253.167 268.5 273.5 C288.833 293.833 299 319 299 349 C299 371.667 293.167 392 281.5 410 C269.833 428 255.667 440.5 239 447.5 C222.333 454.5 207 458 193 458 L193 458 Z M288 206 L98 206 L91 -219 L281 -219 L288 206 Z " />
<glyph glyph-name="cent" unicode="&#xa2;" horiz-adv-x="442" d="M383 142 C352.333 134 325 130 301 130 C238.333 130 207 161 207 223 C207 285 238.333 316 301 316 C325 316 352.333 312 383 304 L410 432 C378.667 442.667 350.334 449.667 325 453 L327 541 L206 541 L204 453 C157.333 444.333 120.667 427.667 94 403 C67.3333 378.333 49 350.833 39 320.5 C29 290.167 24 257.667 24 223 C24 181.667 30.3333 145.667 43 115 C55.6667 84.3333 74.3333 58.8333 99 38.5 C123.667 18.1667 154.667 3.66667 192 -5 L189 -95 L310 -95 L312 -9 C345.333 -5 378 2.66667 410 14 L383 142 Z " />
<glyph glyph-name="sterling" unicode="&#xa3;" horiz-adv-x="575" d="M315 137 C319 152.333 321 168.333 321 185 L322 274 L475 274 L478 399 L324 399 L325 438 C325 452.667 328 466.5 334 479.5 C340 492.5 349.667 502.167 363 508.5 C376.333 514.833 392 518 410 518 C428 518 457 513.667 497 505 L537 646 C481 663.333 430 672 384 672 C315.333 672 261 652.833 221 614.5 C181 576.167 160.333 519.333 159 444 L158 399 L86 399 L83 274 L156 274 L154 165 C153.333 148.333 147.333 136.333 136 129 C124.667 121.667 106.667 118 82 118 L80 0 L506 0 L509 144 L357 144 C343 144 329 141.667 315 137 L315 137 Z " />
<glyph glyph-name="currency" unicode="&#xa4;" horiz-adv-x="599" d="M566 31 L479 125 C487.667 139.667 494.667 156 500 174 C505.333 192 508 209.333 508 226 C508 260 498.333 293.667 479 327 L560 412 L465 501 L383 414 C355.667 426.667 327.667 433 299 433 C271 433 242.333 426 213 412 L129 503 L34 413 L119 323 C101 291 92 257.333 92 222 C92 187.333 101.333 154 120 122 L28 32 L122 -59 L217 37 C245.667 23.6667 274 17 302 17 C330 17 357.333 23.6667 384 37 L471 -59 L566 31 Z M299 139 C274.333 139 254.167 146.833 238.5 162.5 C222.833 178.167 215 198.667 215 224 C215 249.333 222.833 270.167 238.5 286.5 C254.167 302.833 274.333 311 299 311 C325 311 346 303 362 287 C378 271 386 250 386 224 C386 198.667 377.833 178.167 361.5 162.5 C345.167 146.833 324.334 139 299 139 L299 139 Z " />
<glyph glyph-name="yen" unicode="&#xa5;" horiz-adv-x="649" d="M656 660 L473 660 L336 438 L215 660 L9 660 L225 301 L107 301 L104 216 L251 216 L251 190 L105 190 L102 105 L250 105 L249 0 L406 0 L407 105 L552 105 L554 190 L407 190 L408 216 L554 216 L556 301 L438 301 L656 660 Z " />
<glyph glyph-name="brokenbar" unicode="&#xa6;" horiz-adv-x="363" d="M261 735 L119 735 L113 336 L254 336 L261 735 Z M254 222 L111 222 L102 -203 L244 -203 L254 222 Z " />
<glyph glyph-name="section" unicode="&#xa7;" horiz-adv-x="542" d="M272 38 L204 470 C199.333 502 207 527 227 545 C247 563 275 572 311 572 C331.667 572 358.167 569.833 390.5 565.5 C422.833 561.167 449.333 556.333 470 551 L489 647 C460.333 653 427.833 658.333 391.5 663 C355.167 667.667 325.334 670 302 670 C266.667 670 235 664.333 207 653 C179 641.667 155.833 626.333 137.5 607 C119.167 587.667 106.333 565.833 99 541.5 C91.6667 517.167 90 492.333 94 467 L180 -77 C213.333 -72.3333 238.167 -59.5 254.5 -38.5 C270.833 -17.5 276.667 8 272 38 L272 38 Z M271 407 L339 -21 C342.333 -43.6667 339.833 -62.3333 331.5 -77 C323.167 -91.6667 309.667 -103 291 -111 C272.333 -119 250.333 -123 225 -123 C199 -123 169.667 -120.167 137 -114.5 C104.333 -108.833 82.6667 -104.666 72 -102 L53 -198 C129.667 -213.333 190.333 -221 235 -221 C273 -221 306.667 -215.167 336 -203.5 C365.333 -191.833 388.833 -176.333 406.5 -157 C424.167 -137.667 436.5 -115.833 443.5 -91.5 C450.5 -67.1667 452 -42.6667 448 -18 L362 522 C346.667 520 331.167 514.833 315.5 506.5 C299.833 498.167 287.667 485 279 467 C270.333 449 267.667 429 271 407 L271 407 Z " />
<glyph glyph-name="dieresis" unicode="&#xa8;" horiz-adv-x="409" d="M105 675 C82.3333 675 62.6667 666.667 46 650 C29.3333 633.333 21 613.333 21 590 C21 567.335 29.5 547.669 46.5 531 C63.5 514.335 83 506.002 105 506 C128.333 506 148.5 514.333 165.5 531 C182.5 547.667 191 567.333 191 590 C191 613.333 182.667 633.333 166 650 C149.333 666.667 129 675 105 675 L105 675 Z M316 675 C293.333 675 273.333 666.667 256 650 C238.667 633.333 230 613.333 230 590 C230 573.333 235 558 245 544 C255 530 266.667 520.167 280 514.5 C293.333 508.833 305.333 506 316 506 C332.667 506 348.167 510.833 362.5 520.5 C376.833 530.167 386.667 541.5 392 554.5 C397.333 567.5 400 579.333 400 590 C400 613.333 391.833 633.333 375.5 650 C359.167 666.667 339.334 675 316 675 L316 675 Z " />
<glyph glyph-name="copyright" unicode="&#xa9;" horiz-adv-x="721" d="M360 527 C316.667 527 275.5 519 236.5 503 C197.5 487 163.667 464.667 135 436 C106.333 407.333 84.1667 373.5 68.5 334.5 C52.8333 295.5 45 254.333 45 211 C45 167 52.8333 125.5 68.5 86.5 C84.1667 47.5 106.333 13.6667 135 -15 C163.667 -43.6667 197.5 -66 236.5 -82 C275.5 -98 316.667 -106 360 -106 C403.333 -106 444.5 -98 483.5 -82 C522.5 -66 556.333 -43.6667 585 -15 C613.667 13.6667 635.833 47.5 651.5 86.5 C667.167 125.5 675 167 675 211 C675 254.333 667.167 295.5 651.5 334.5 C635.835 373.5 613.668 407.333 585 436 C556.333 464.667 522.5 487 483.5 503 C444.5 519 403.333 527 360 527 L360 527 Z M360 449 C394 449 425.667 443.5 455 432.5 C484.333 421.5 509.667 405.5 531 384.5 C552.333 363.5 568.833 338.167 580.5 308.5 C592.167 278.833 598 246 598 210 C598 138 576.167 80.1667 532.5 36.5 C488.833 -7.16667 431.333 -29 360 -29 C325.333 -29 293.167 -23.3333 263.5 -12 C233.833 -0.666672 208.667 15.5 188 36.5 C167.333 57.5 151.333 83 140 113 C128.667 143 123 175.667 123 211 C123 245.667 127.833 276 137.5 302 C147.167 328 158.833 349.667 172.5 367 C186.167 384.333 202.333 399.167 221 411.5 C239.667 423.833 260.833 433.167 284.5 439.5 C308.167 445.833 333.333 449 360 449 L360 449 Z M373 379 C321 379 279.167 363.667 247.5 333 C215.833 302.333 200 262 200 212 C200 162 215.667 121.667 247 91 C278.333 60.3333 319.333 45 370 45 C397.333 45 426.333 48.3333 457 55 L446 133 C416.667 129 395 127 381 127 C354.333 127 333.167 134.333 317.5 149 C301.833 163.667 294 184.333 294 211 C294 237.667 302 258.667 318 274 C334 289.333 356.667 297 386 297 C402 297 415.5 295.833 426.5 293.5 C437.5 291.167 444.333 289.667 447 289 L464 366 C432 374.667 401.667 379 373 379 L373 379 Z " />
<glyph glyph-name="ordfeminine" unicode="&#xaa;" horiz-adv-x="377" d="M211 673 C157.667 673 112.333 664.667 75 648 L97 574 C127.667 586.667 162 593 200 593 C224 593 238.5 590.167 243.5 584.5 C248.5 578.838 251 571.671 251 563 L251 541 C190.333 541 145.833 537 117.5 529 C89.1667 521 69.5 509.167 58.5 493.5 C47.5 477.833 42 456.667 42 430 C42 396 50.5 371.5 67.5 356.5 C84.5 341.5 111 334 147 334 C198.333 334 234 348 254 376 L255 343 L341 343 L345 580 C345 611.332 334.667 634.665 314 650 C293.333 665.333 259 673 211 673 L211 673 Z M174 407 C160.667 407 151.5 409.167 146.5 413.5 C141.5 417.833 139 424.333 139 433 C139 444.333 143 453 151 459 C159 465 173.667 468.333 195 469 L250 470 L250 436 C240.667 427.333 229.167 420.333 215.5 415 C201.833 409.667 188 407 174 407 L174 407 Z " />
<glyph glyph-name="guillemotleft" unicode="&#xab;" horiz-adv-x="675" d="M350 422 L179 422 L75 251 L172 83 L337 83 L238 252 L350 422 Z M603 422 L432 422 L328 251 L425 83 L590 83 L491 252 L603 422 Z " />
<glyph glyph-name="logicalnot" unicode="&#xac;" horiz-adv-x="656" d="M53 404 L50 275 L476 275 L473 106 L601 106 L606 404 L53 404 Z " />
<glyph glyph-name="uni00AD" unicode="&#xad;" horiz-adv-x="305" d="M36 300 L34 177 L270 177 L272 300 L36 300 Z " />
<glyph glyph-name="registered" unicode="&#xae;" horiz-adv-x="516" d="M262 673 C230.667 673 201.833 668 175.5 658 C149.167 648 126.5 633.5 107.5 614.5 C88.5 595.5 74 572.833 64 546.5 C54 520.167 49 491.333 49 460 C49 396 68.5 344.667 107.5 306 C146.5 267.333 198 248 262 248 C326 248 377.5 267.333 416.5 306 C455.5 344.667 475 396 475 460 C475 491.333 470 520.167 460 546.5 C450 572.833 435.5 595.5 416.5 614.5 C397.5 633.5 374.833 648 348.5 658 C322.167 668 293.334 673 262 673 L262 673 Z M262 307 C216 307 179 321 151 349 C123 377 109 414 109 460 C109 506 123 543.167 151 571.5 C179 599.833 216 614 262 614 C308 614 345 599.833 373 571.5 C401 543.167 415 506 415 460 C415 414 401 377 373 349 C345 321 308 307 262 307 L262 307 Z M338 504 C338 548.667 309.667 571 253 571 L194 571 L191 368 L243 368 L244 434 L255 434 L272 435 L302 368 L360 368 L311 447 C319.665 453 326.332 460.833 331 470.5 C335.667 480.165 338 491.331 338 504 L338 504 Z M251 475 L244 475 L245 526 L256 526 C272.667 526 281 518 281 502 C281 484 271 475 251 475 L251 475 Z " />
<glyph glyph-name="macron" unicode="&#xaf;" horiz-adv-x="417" d="M367 631 L56 631 L54 508 L365 508 L367 631 Z " />
<glyph glyph-name="degree" unicode="&#xb0;" horiz-adv-x="332" d="M173 674 C139 674 110.667 662.5 88 639.5 C65.3333 616.5 54 588 54 554 C54 538.667 57.8333 521.833 65.5 503.5 C73.1667 485.167 86.8333 469.5 106.5 456.5 C126.167 443.5 148.333 437 173 437 C206.333 437 234.167 448.167 256.5 470.5 C278.833 492.833 290 520.667 290 554 C290 578.667 283.5 601 270.5 621 C257.5 641 241.833 654.833 223.5 662.5 C205.167 670.167 188.333 674 173 674 L173 674 Z M173 515 C161 515 151.5 518.5 144.5 525.5 C137.5 532.5 134 542 134 554 C134 566 137.5 575.833 144.5 583.5 C151.5 591.167 161 595 173 595 C184.333 595 193.5 591.167 200.5 583.5 C207.5 575.833 211 566 211 554 C211 542 207.5 532.5 200.5 525.5 C193.5 518.5 184.333 515 173 515 L173 515 Z " />
<glyph glyph-name="plusminus" unicode="&#xb1;" horiz-adv-x="646" d="M398 406 L400 528 L261 528 L258 406 L94 406 L92 283 L256 283 L255 165 L393 165 L394 283 L556 283 L558 406 L398 406 Z M87 0 L552 0 L554 127 L89 127 L87 0 Z " />
<glyph glyph-name="uni00B2" unicode="&#xb2;" horiz-adv-x="307" d="M165 407 L229 486 C239.667 499.333 247.667 512.333 253 525 C258.333 537.667 261 551.667 261 567 C261 599 250.667 624.333 230 643 C209.333 661.667 178 671 136 671 C103.333 671 68 665.333 30 654 L44 568 C70 574.667 91.6667 578 109 578 C127.667 578 139.5 575.5 144.5 570.5 C149.5 565.5 152 558.667 152 550 C152 541.333 149.333 532.833 144 524.5 C138.667 516.167 131.667 506.667 123 496 L31 385 L28 320 L273 320 L276 407 L165 407 Z " />
<glyph glyph-name="uni00B3" unicode="&#xb3;" horiz-adv-x="286" d="M141 672 C105.667 672 70 665 34 651 L50 577 C75.3333 583 96 586 112 586 C128.667 586 140.167 584 146.5 580 C152.833 576 156 569.667 156 561 C156 547.667 147.833 539 131.5 535 C115.167 531 93.3334 529 66 529 L64 454 C98.6667 454 122.167 451.833 134.5 447.5 C146.833 443.167 153 435 153 423 C153 404.333 138 395 108 395 C92.6667 395 70.6667 397.333 42 402 L32 327 C68 318.333 102.333 314 135 314 C175 314 205.333 322.333 226 339 C246.667 355.666 257 378.333 257 407 C257 432.333 249.5 451.667 234.5 465 C219.5 478.333 199 485.667 173 487 C197 488.333 216.667 497.167 232 513.5 C247.333 529.831 255 551.665 255 579 C255 609 245.167 632 225.5 648 C205.833 664 177.667 672 141 672 L141 672 Z " />
<glyph glyph-name="acute" unicode="&#xb4;" horiz-adv-x="193" d="M190 660 L47 660 L15 521 L136 521 L190 660 Z " />
<glyph glyph-name="paragraph" unicode="&#xb6;" horiz-adv-x="599" d="M264 660 C201.333 660 150.333 640.833 111 602.5 C71.6667 564.167 51.6667 514 51 452 C51.6667 392 69.5 343.5 104.5 306.5 C139.5 269.5 185.333 251 242 251 L235 -94 L339 -94 L351 559 L395 559 L383 -94 L487 -94 L501 660 L264 660 Z " />
<glyph glyph-name="periodcentered" unicode="&#xb7;" horiz-adv-x="321" d="M160 126 C190 126 215.167 136.167 235.5 156.5 C255.833 176.833 266 202 266 232 C266 254.667 260.167 275 248.5 293 C236.834 311 222.667 323.5 206 330.5 C189.333 337.5 174 341 160 341 C138 341 118.167 335 100.5 323 C82.8333 311 70.5 296.333 63.5 279 C56.5 261.667 53 246 53 232 C53 210.667 59 191 71 173 C83 155 97.3333 142.667 114 136 C130.667 129.334 146 126 160 126 L160 126 Z " />
<glyph glyph-name="cedilla" unicode="&#xb8;" horiz-adv-x="205" d="M104 21 L13 21 L12 -45 C12 -47.6667 12.5 -51.3334 13.5 -56 C14.5 -60.6667 17.1667 -65.5 21.5 -70.5 C25.8333 -75.5 34 -80.8333 46 -86.5 C58 -92.1667 65.6667 -96.5 69 -99.5 C72.3333 -102.5 74 -106.333 74 -111 C74 -119 68.6667 -125 58 -129 C47.3333 -133 34.3333 -135 19 -135 L3 -135 L0 -215 C8.66667 -217.667 25 -219 49 -219 C141 -219 187 -187.333 187 -124 C187 -111.333 185.5 -101.167 182.5 -93.5 C179.5 -85.8332 176.333 -79.6665 173 -75 C169.667 -70.3333 165.5 -65.8333 160.5 -61.5 C155.5 -57.1667 146.833 -51.5 134.5 -44.5 C122.167 -37.5 114 -30.6667 110 -24 C106 -17.3333 104 -10 104 -2 L104 21 Z " />
<glyph glyph-name="uni00B9" unicode="&#xb9;" horiz-adv-x="271" d="M114 661 L-8 633 L10 544 L101 566 L97 320 L215 320 L220 661 L114 661 Z " />
<glyph glyph-name="ordmasculine" unicode="&#xba;" horiz-adv-x="386" d="M201 673 C149 673 108.167 657.333 78.5 626 C48.8333 594.667 34 551.667 34 497 C34 445 48 404.833 76 376.5 C104 348.167 143.333 334 194 334 C247.333 334 288.5 348.667 317.5 378 C346.5 407.333 361 449.333 361 504 C361 557.333 347 598.833 319 628.5 C291 658.167 251.667 673 201 673 L201 673 Z M200 589 C224 589 241 582.667 251 570 C261 557.334 266 535.667 266 505 C266 474.333 260.667 452.333 250 439 C239.334 425.667 221.667 419 197 419 C172.333 419 155 425.167 145 437.5 C135 449.833 130 470.667 130 500 C130 532 135.333 554.833 146 568.5 C156.667 582.167 174.667 589 200 589 L200 589 Z " />
<glyph glyph-name="guillemotright" unicode="&#xbb;" horiz-adv-x="677" d="M250 422 L84 422 L183 250 L72 83 L242 83 L347 251 L250 422 Z M505 422 L339 422 L438 250 L327 83 L497 83 L602 251 L505 422 Z " />
<glyph glyph-name="onequarter" unicode="&#xbc;" horiz-adv-x="765" d="M97 320 L215 320 L220 661 L114 661 L-8 633 L10 544 L101 566 L97 320 Z M538 660 L51 0 L177 0 L672 660 L538 660 Z M748 127 L679 127 L683 341 L555 341 L390 135 L388 56 L569 56 L568 0 L677 0 L678 56 L747 56 L748 127 Z M580 252 L578 127 L488 127 L580 252 Z " />
<glyph glyph-name="onehalf" unicode="&#xbd;" horiz-adv-x="775" d="M97 320 L215 320 L220 661 L114 661 L-8 633 L10 544 L101 566 L97 320 Z M538 660 L51 0 L177 0 L672 660 L538 660 Z M633 87 L697 166 C707.667 179.333 715.667 192.333 721 205 C726.333 217.667 729 231.667 729 247 C729 279 718.667 304.333 698 323 C677.333 341.667 646 351 604 351 C571.333 351 536 345.333 498 334 L512 248 C538 254.667 559.667 258 577 258 C595.667 258 607.5 255.5 612.5 250.5 C617.5 245.5 620 238.667 620 230 C620 221.333 617.333 212.833 612 204.5 C606.667 196.167 599.667 186.667 591 176 L499 65 L496 0 L741 0 L744 87 L633 87 Z " />
<glyph glyph-name="threequarters" unicode="&#xbe;" horiz-adv-x="781" d="M108 394 C92.6667 394 70.6667 396.333 42 401 L32 326 C68 317.333 102.333 313 135 313 C175 313 205.333 321.333 226 338 C246.667 354.666 257 377.333 257 406 C257 431.333 249.5 450.667 234.5 464 C219.5 477.333 199 484.667 173 486 C197 487.333 216.667 496.167 232 512.5 C247.333 528.831 255 550.665 255 578 C255 608 245.167 631 225.5 647 C205.833 663 177.667 671 141 671 C105.667 671 70 664 34 650 L50 576 C75.3333 582 96 585 112 585 C128.667 585 140.167 583 146.5 579 C152.833 575 156 568.667 156 560 C156 546.667 147.833 538 131.5 534 C115.167 530 93.3334 528 66 528 L64 453 C98.6667 453 122.167 450.833 134.5 446.5 C146.833 442.167 153 434 153 422 C153 403.333 138 394 108 394 L108 394 Z M553 660 L66 0 L192 0 L687 660 L553 660 Z M763 127 L695 127 L698 341 L570 341 L405 135 L403 56 L584 56 L583 0 L692 0 L693 56 L762 56 L763 127 Z M595 252 L593 127 L504 127 L595 252 Z " />
<glyph glyph-name="questiondown" unicode="&#xbf;" horiz-adv-x="512" d="M331 239 C353 239 372.833 245 390.5 257 C408.167 269 420.5 283.667 427.5 301 C434.5 318.333 438 334 438 348 C438 369.333 432 389 420 407 C408 425 393.667 437.333 377 444 C360.333 450.667 345 454 331 454 C301 454 275.833 443.833 255.5 423.5 C235.167 403.167 225 378 225 348 C225 325.333 230.833 305 242.5 287 C254.167 269 268.333 256.5 285 249.5 C301.667 242.5 317 239 331 239 L331 239 Z M43 -44 C43 -168.667 122 -231 280 -231 C326.667 -231 381.333 -225.333 444 -214 L420 -66 C367.333 -74 328.333 -78 303 -78 C251.667 -78 226 -65 226 -39 C226 -25.6667 232.333 -14.1667 245 -4.5 C257.666 5.16667 281.333 18.3333 316 35 C358 55 385.833 75.3333 399.5 96 C413.167 116.667 420 153.333 420 206 L237 206 C237 194.667 235.5 184.167 232.5 174.5 C229.5 164.833 222.667 156.333 212 149 C201.333 141.667 182 131.333 154 118 C109.333 96.6667 79.6667 73.3334 65 48 C50.3333 22.6667 43 -8 43 -44 L43 -44 Z " />
<glyph glyph-name="Agrave" unicode="&#xc0;" horiz-adv-x="688" d="M414 697 L386 829 L236 829 L285 697 L414 697 Z M483 0 L682 0 L465 660 L234 660 L-8 0 L192 0 L226 109 L452 109 L483 0 Z M272 260 L343 489 L409 260 L272 260 Z " />
<glyph glyph-name="Aacute" unicode="&#xc1;" horiz-adv-x="688" d="M468 830 L318 830 L290 698 L419 698 L468 830 Z M483 0 L682 0 L465 660 L234 660 L-8 0 L192 0 L226 109 L452 109 L483 0 Z M272 260 L343 489 L409 260 L272 260 Z " />
<glyph glyph-name="Acircumflex" unicode="&#xc2;" horiz-adv-x="688" d="M350 743 L366 697 L493 697 L408 829 L297 829 L204 697 L329 697 L350 743 Z M483 0 L682 0 L465 660 L234 660 L-8 0 L192 0 L226 109 L452 109 L483 0 Z M272 260 L343 489 L409 260 L272 260 Z " />
<glyph glyph-name="Atilde" unicode="&#xc3;" horiz-adv-x="688" d="M282 739 C298 739 321.333 732.5 352 719.5 C382.666 706.5 406.333 700 423 700 C444.333 700 467.333 706.333 492 719 C516.667 731.667 535.667 746 549 762 L492 841 C480.667 831.667 467.667 823.667 453 817 C438.333 810.333 425 807 413 807 C398.333 807 373.667 813.667 339 827 C304.333 840.333 279.667 847 265 847 C247 847 227.167 840.833 205.5 828.5 C183.833 816.167 164.667 800 148 780 L208 705 C233.333 727.667 258 739 282 739 L282 739 Z M483 0 L682 0 L465 660 L234 660 L-8 0 L192 0 L226 109 L452 109 L483 0 Z M272 260 L343 489 L409 260 L272 260 Z " />
<glyph glyph-name="Adieresis" unicode="&#xc4;" horiz-adv-x="688" d="M240 687 C263.333 687 283.5 695.667 300.5 713 C317.5 730.333 326 750.333 326 773 C326 796.333 317.5 816.5 300.5 833.5 C283.5 850.5 263.333 859 240 859 C216.667 859 196.5 850.5 179.5 833.5 C162.5 816.5 154 796.333 154 773 C154 756.336 159 740.669 169 726 C179 711.339 190.667 701.172 204 695.5 C217.333 689.833 229.333 687 240 687 L240 687 Z M460 687 C477.333 687 493.167 692 507.5 702 C521.833 712 531.833 723.667 537.5 737 C543.167 750.333 546 762.333 546 773 C546 797 537.667 817.333 521 834 C504.333 850.667 484 859 460 859 C449.333 859 437.5 856.167 424.5 850.5 C411.5 844.833 400 834.833 390 820.5 C380 806.167 375 790.333 375 773 C375 756.333 380 740.833 390 726.5 C400 712.167 411.5 702 424.5 696 C437.5 690 449.333 687 460 687 L460 687 Z M483 0 L682 0 L465 660 L234 660 L-8 0 L192 0 L226 109 L452 109 L483 0 Z M272 260 L343 489 L409 260 L272 260 Z " />
<glyph glyph-name="Aring" unicode="&#xc5;" horiz-adv-x="692" d="M355 657 C371 657 388.167 660.333 406.5 667 C424.833 673.667 440.167 685.833 452.5 703.5 C464.833 721.167 471 742 471 766 C471 790 464.833 811.167 452.5 829.5 C440.168 847.833 424.834 860.333 406.5 867 C388.167 873.667 371 877 355 877 C329 877 306.167 871.167 286.5 859.5 C266.833 847.837 253.333 833.17 246 815.5 C238.667 797.833 235 781.333 235 766 C235 742 241.333 721.167 254 703.5 C266.667 685.836 282.5 673.669 301.5 667 C320.5 660.333 338.333 657 355 657 L355 657 Z M355 815 C383 815 397 798.667 397 766 C397 734 383 718 355 718 C327 718 313 734 313 766 C313 798.667 327 815 355 815 L355 815 Z M488 0 L687 0 L477 640 L231 640 L-3 0 L197 0 L229 102 L459 102 L488 0 Z M275 253 L348 489 L416 253 L275 253 Z " />
<glyph glyph-name="AE" unicode="&#xc6;" horiz-adv-x="1032" d="M727 150 L729 265 L944 265 L946 405 L731 405 L733 520 L981 520 L983 660 L448 660 L-8 0 L204 0 L278 111 L535 111 L533 0 L985 0 L988 150 L727 150 Z M378 262 L542 510 L538 262 L378 262 Z " />
<glyph glyph-name="Ccedilla" unicode="&#xc7;" horiz-adv-x="569" d="M541 7 L510 164 C466.667 156 431 152 403 152 C339.667 152 293.333 166.5 264 195.5 C234.667 224.5 220 270 220 332 C220 392 233.833 436 261.5 464 C289.166 492 333.333 506 394 506 C424.666 506 463.333 502 510 494 L541 651 C475.667 663.667 420 670 374 670 C320 670 271.5 662.5 228.5 647.5 C185.5 632.5 149.167 610.333 119.5 581 C89.8333 551.667 67.3333 515.167 52 471.5 C36.6667 427.833 29 378 29 322 C29 228 50.8333 153.333 94.5 98 C138.167 42.6667 202.667 8.33333 288 -5 L288 -51 C288 -53.6667 288.5 -57.3334 289.5 -62 C290.5 -66.6667 293.167 -71.5 297.5 -76.5 C301.833 -81.5 310 -86.8333 322 -92.5 C334 -98.1667 341.667 -102.5 345 -105.5 C348.333 -108.5 350 -112.333 350 -117 C350 -125 344.5 -131 333.5 -135 C322.5 -139 309.667 -141 295 -141 L279 -141 L276 -221 C284.667 -223.667 301 -225 325 -225 C369.666 -225 403.833 -217.167 427.5 -201.5 C451.167 -185.833 462.667 -162 462 -130 C462 -120 461 -111.5 459 -104.5 C457 -97.5 454.833 -91.6667 452.5 -87 C450.167 -82.3333 446.667 -77.6667 442 -73 C437.333 -68.3333 428.333 -61.8333 415 -53.5 C401.667 -45.1666 392.667 -38.3333 388 -33 C383.333 -27.6667 380.667 -20.6667 380 -12 C425.333 -12 479 -5.66667 541 7 L541 7 Z " />
<glyph glyph-name="Egrave" unicode="&#xc8;" horiz-adv-x="546" d="M350 697 L322 829 L172 829 L221 697 L350 697 Z M241 150 L243 265 L458 265 L460 405 L245 405 L247 520 L495 520 L497 660 L63 660 L51 0 L499 0 L502 150 L241 150 Z " />
<glyph glyph-name="Eacute" unicode="&#xc9;" horiz-adv-x="546" d="M404 830 L254 830 L226 698 L355 698 L404 830 Z M241 150 L243 265 L458 265 L460 405 L245 405 L247 520 L495 520 L497 660 L63 660 L51 0 L499 0 L502 150 L241 150 Z " />
<glyph glyph-name="Ecircumflex" unicode="&#xca;" horiz-adv-x="546" d="M286 743 L302 697 L429 697 L344 829 L233 829 L140 697 L265 697 L286 743 Z M241 150 L243 265 L458 265 L460 405 L245 405 L247 520 L495 520 L497 660 L63 660 L51 0 L499 0 L502 150 L241 150 Z " />
<glyph glyph-name="Edieresis" unicode="&#xcb;" horiz-adv-x="546" d="M176 687 C199.333 687 219.5 695.667 236.5 713 C253.5 730.333 262 750.333 262 773 C262 796.333 253.5 816.5 236.5 833.5 C219.5 850.5 199.333 859 176 859 C152.667 859 132.5 850.5 115.5 833.5 C98.5 816.5 90 796.333 90 773 C90 756.336 95 740.669 105 726 C115 711.339 126.667 701.172 140 695.5 C153.333 689.833 165.333 687 176 687 L176 687 Z M396 687 C413.333 687 429.167 692 443.5 702 C457.833 712 467.833 723.667 473.5 737 C479.167 750.333 482 762.333 482 773 C482 797 473.667 817.333 457 834 C440.333 850.667 420 859 396 859 C385.333 859 373.5 856.167 360.5 850.5 C347.5 844.833 336 834.833 326 820.5 C316 806.167 311 790.333 311 773 C311 756.333 316 740.833 326 726.5 C336 712.167 347.5 702 360.5 696 C373.5 690 385.333 687 396 687 L396 687 Z M241 150 L243 265 L458 265 L460 405 L245 405 L247 520 L495 520 L497 660 L63 660 L51 0 L499 0 L502 150 L241 150 Z " />
<glyph glyph-name="Igrave" unicode="&#xcc;" horiz-adv-x="302" d="M198 829 L48 829 L97 697 L226 697 L198 829 Z M257 660 L63 660 L52 0 L246 0 L257 660 Z " />
<glyph glyph-name="Iacute" unicode="&#xcd;" horiz-adv-x="302" d="M280 830 L130 830 L102 698 L231 698 L280 830 Z M257 660 L63 660 L52 0 L246 0 L257 660 Z " />
<glyph glyph-name="Icircumflex" unicode="&#xce;" horiz-adv-x="302" d="M162 743 L178 697 L305 697 L220 829 L109 829 L16 697 L141 697 L162 743 Z M52 0 L246 0 L257 660 L63 660 L52 0 Z " />
<glyph glyph-name="Idieresis" unicode="&#xcf;" horiz-adv-x="302" d="M52 859 C28.6667 859 8.5 850.5 -8.5 833.5 C-25.5 816.5 -34 796.333 -34 773 C-34 756.336 -29 740.669 -19 726 C-9 711.339 2.66667 701.172 16 695.5 C29.3333 689.833 41.3333 687 52 687 C75.3333 687 95.5 695.667 112.5 713 C129.5 730.333 138 750.333 138 773 C138 796.333 129.5 816.5 112.5 833.5 C95.5 850.5 75.3333 859 52 859 L52 859 Z M272 859 C261.333 859 249.5 856.167 236.5 850.5 C223.5 844.833 212 834.833 202 820.5 C192 806.167 187 790.333 187 773 C187 756.333 192 740.833 202 726.5 C212 712.167 223.5 702 236.5 696 C249.5 690 261.333 687 272 687 C289.333 687 305.167 692 319.5 702 C333.833 712 343.833 723.667 349.5 737 C355.167 750.333 358 762.333 358 773 C358 797 349.667 817.333 333 834 C316.333 850.667 296 859 272 859 L272 859 Z M257 660 L63 660 L52 0 L246 0 L257 660 Z " />
<glyph glyph-name="Eth" unicode="&#xd0;" horiz-adv-x="684" d="M307 660 L63 660 L59 413 L8 413 L5 257 L56 257 L51 0 L322 0 C369.333 0 414.167 7.66667 456.5 23 C498.833 38.3333 534.667 60 564 88 C593.333 116 616.333 150.833 633 192.5 C649.667 234.167 658 283.667 658 341 C658 445.667 628.667 525 570 579 C511.333 633 423.667 660 307 660 L307 660 Z M300 159 L242 159 L244 257 L352 257 L355 413 L247 413 L248 502 L307 502 C362.333 502 402.833 487.833 428.5 459.5 C454.167 431.167 467 387.334 467 328 C467 268 453.833 224.833 427.5 198.5 C401.167 172.167 358.667 159 300 159 L300 159 Z " />
<glyph glyph-name="Ntilde" unicode="&#xd1;" horiz-adv-x="739" d="M304 739 C320 739 343.333 732.5 374 719.5 C404.666 706.5 428.333 700 445 700 C466.333 700 489.333 706.333 514 719 C538.667 731.667 557.667 746 571 762 L514 841 C502.667 831.667 489.667 823.667 475 817 C460.333 810.333 447 807 435 807 C420.333 807 395.667 813.667 361 827 C326.333 840.333 301.667 847 287 847 C269 847 249.167 840.833 227.5 828.5 C205.834 816.167 186.667 800 170 780 L230 705 C255.333 727.667 280 739 304 739 L304 739 Z M515 660 L515 137 L358 660 L63 660 L53 0 L229 0 L230 499 L381 0 L683 0 L694 660 L515 660 Z " />
<glyph glyph-name="Ograve" unicode="&#xd2;" horiz-adv-x="733" d="M407 829 L257 829 L306 697 L435 697 L407 829 Z M369 672 C320.333 672 275.167 664.667 233.5 650 C191.833 635.335 155.667 613.668 125 585 C94.3333 556.334 70.6667 520.168 54 476.5 C37.3333 432.833 29 383.667 29 329 C29 277.667 36.3333 230.833 51 188.5 C65.6666 146.167 87.3333 110.167 116 80.5 C144.667 50.8333 180 28 222 12 C264 -4 311 -12 363 -12 C415 -12 462.5 -4.16667 505.5 11.5 C548.5 27.1667 584.833 50.1667 614.5 80.5 C644.167 110.833 667 147.833 683 191.5 C699 235.167 707 284 707 338 C707 390 698.833 437.167 682.5 479.5 C666.167 521.832 643 557.166 613 585.5 C583 613.833 547.167 635.333 505.5 650 C463.833 664.667 418.333 672 369 672 L369 672 Z M367 509 C415 509 450.667 494.667 474 466 C497.333 437.333 509 392.333 509 331 C509 269 497.167 223.5 473.5 194.5 C449.833 165.5 413.667 151 365 151 C315.667 151 279.167 165.667 255.5 195 C231.833 224.333 220 269 220 329 C220 391.666 232.333 437.333 257 466 C281.666 494.667 318.333 509 367 509 L367 509 Z " />
<glyph glyph-name="Oacute" unicode="&#xd3;" horiz-adv-x="733" d="M489 830 L339 830 L311 698 L440 698 L489 830 Z M369 672 C320.333 672 275.167 664.667 233.5 650 C191.833 635.335 155.667 613.668 125 585 C94.3333 556.334 70.6667 520.168 54 476.5 C37.3333 432.833 29 383.667 29 329 C29 277.667 36.3333 230.833 51 188.5 C65.6666 146.167 87.3333 110.167 116 80.5 C144.667 50.8333 180 28 222 12 C264 -4 311 -12 363 -12 C415 -12 462.5 -4.16667 505.5 11.5 C548.5 27.1667 584.833 50.1667 614.5 80.5 C644.167 110.833 667 147.833 683 191.5 C699 235.167 707 284 707 338 C707 390 698.833 437.167 682.5 479.5 C666.167 521.832 643 557.166 613 585.5 C583 613.833 547.167 635.333 505.5 650 C463.833 664.667 418.333 672 369 672 L369 672 Z M367 509 C415 509 450.667 494.667 474 466 C497.333 437.333 509 392.333 509 331 C509 269 497.167 223.5 473.5 194.5 C449.833 165.5 413.667 151 365 151 C315.667 151 279.167 165.667 255.5 195 C231.833 224.333 220 269 220 329 C220 391.666 232.333 437.333 257 466 C281.666 494.667 318.333 509 367 509 L367 509 Z " />
<glyph glyph-name="Ocircumflex" unicode="&#xd4;" horiz-adv-x="733" d="M371 743 L387 697 L514 697 L429 829 L318 829 L225 697 L350 697 L371 743 Z M369 672 C320.333 672 275.167 664.667 233.5 650 C191.833 635.335 155.667 613.668 125 585 C94.3333 556.334 70.6667 520.168 54 476.5 C37.3333 432.833 29 383.667 29 329 C29 277.667 36.3333 230.833 51 188.5 C65.6666 146.167 87.3333 110.167 116 80.5 C144.667 50.8333 180 28 222 12 C264 -4 311 -12 363 -12 C415 -12 462.5 -4.16667 505.5 11.5 C548.5 27.1667 584.833 50.1667 614.5 80.5 C644.167 110.833 667 147.833 683 191.5 C699 235.167 707 284 707 338 C707 390 698.833 437.167 682.5 479.5 C666.167 521.832 643 557.166 613 585.5 C583 613.833 547.167 635.333 505.5 650 C463.833 664.667 418.333 672 369 672 L369 672 Z M365 151 C315.667 151 279.167 165.667 255.5 195 C231.833 224.333 220 269 220 329 C220 391.666 232.333 437.333 257 466 C281.666 494.667 318.333 509 367 509 C415 509 450.667 494.667 474 466 C497.333 437.333 509 392.333 509 331 C509 269 497.167 223.5 473.5 194.5 C449.833 165.5 413.667 151 365 151 L365 151 Z " />
<glyph glyph-name="Otilde" unicode="&#xd5;" horiz-adv-x="733" d="M513 841 C501.667 831.667 488.667 823.667 474 817 C459.333 810.333 446 807 434 807 C419.333 807 394.667 813.667 360 827 C325.333 840.333 300.667 847 286 847 C268 847 248.167 840.833 226.5 828.5 C204.834 816.167 185.667 800 169 780 L229 705 C254.333 727.667 279 739 303 739 C319 739 342.333 732.5 373 719.5 C403.666 706.5 427.333 700 444 700 C465.333 700 488.333 706.333 513 719 C537.667 731.667 556.667 746 570 762 L513 841 Z M369 672 C320.333 672 275.167 664.667 233.5 650 C191.833 635.335 155.667 613.668 125 585 C94.3333 556.334 70.6667 520.168 54 476.5 C37.3333 432.833 29 383.667 29 329 C29 277.667 36.3333 230.833 51 188.5 C65.6666 146.167 87.3333 110.167 116 80.5 C144.667 50.8333 180 28 222 12 C264 -4 311 -12 363 -12 C415 -12 462.5 -4.16667 505.5 11.5 C548.5 27.1667 584.833 50.1667 614.5 80.5 C644.167 110.833 667 147.833 683 191.5 C699 235.167 707 284 707 338 C707 390 698.833 437.167 682.5 479.5 C666.167 521.832 643 557.166 613 585.5 C583 613.833 547.167 635.333 505.5 650 C463.833 664.667 418.333 672 369 672 L369 672 Z M367 509 C415 509 450.667 494.667 474 466 C497.333 437.333 509 392.333 509 331 C509 269 497.167 223.5 473.5 194.5 C449.833 165.5 413.667 151 365 151 C315.667 151 279.167 165.667 255.5 195 C231.833 224.333 220 269 220 329 C220 391.666 232.333 437.333 257 466 C281.666 494.667 318.333 509 367 509 L367 509 Z " />
<glyph glyph-name="Odieresis" unicode="&#xd6;" horiz-adv-x="733" d="M261 859 C237.667 859 217.5 850.5 200.5 833.5 C183.5 816.5 175 796.333 175 773 C175 756.336 180 740.669 190 726 C200 711.339 211.667 701.172 225 695.5 C238.333 689.833 250.333 687 261 687 C284.333 687 304.5 695.667 321.5 713 C338.5 730.333 347 750.333 347 773 C347 796.333 338.5 816.5 321.5 833.5 C304.5 850.5 284.333 859 261 859 L261 859 Z M481 859 C470.333 859 458.5 856.167 445.5 850.5 C432.5 844.833 421 834.833 411 820.5 C401 806.167 396 790.333 396 773 C396 756.333 401 740.833 411 726.5 C421 712.167 432.5 702 445.5 696 C458.5 690 470.333 687 481 687 C498.333 687 514.167 692 528.5 702 C542.833 712 552.833 723.667 558.5 737 C564.167 750.333 567 762.333 567 773 C567 797 558.667 817.333 542 834 C525.333 850.667 505 859 481 859 L481 859 Z M369 672 C320.333 672 275.167 664.667 233.5 650 C191.833 635.335 155.667 613.668 125 585 C94.3333 556.334 70.6667 520.168 54 476.5 C37.3333 432.833 29 383.667 29 329 C29 277.667 36.3333 230.833 51 188.5 C65.6666 146.167 87.3333 110.167 116 80.5 C144.667 50.8333 180 28 222 12 C264 -4 311 -12 363 -12 C415 -12 462.5 -4.16667 505.5 11.5 C548.5 27.1667 584.833 50.1667 614.5 80.5 C644.167 110.833 667 147.833 683 191.5 C699 235.167 707 284 707 338 C707 390 698.833 437.167 682.5 479.5 C666.167 521.832 643 557.166 613 585.5 C583 613.833 547.167 635.333 505.5 650 C463.833 664.667 418.333 672 369 672 L369 672 Z M367 509 C415 509 450.667 494.667 474 466 C497.333 437.333 509 392.333 509 331 C509 269 497.167 223.5 473.5 194.5 C449.833 165.5 413.667 151 365 151 C315.667 151 279.167 165.667 255.5 195 C231.833 224.333 220 269 220 329 C220 391.666 232.333 437.333 257 466 C281.666 494.667 318.333 509 367 509 L367 509 Z " />
<glyph glyph-name="multiply" unicode="&#xd7;" horiz-adv-x="495" d="M453 103 L339 223 L449 333 L358 426 L250 318 L138 437 L42 343 L156 224 L38 106 L129 13 L244 128 L357 12 L453 103 Z " />
<glyph glyph-name="Oslash" unicode="&#xd8;" horiz-adv-x="745" d="M721 619 L641 694 L573 622 C517.667 655.333 451.667 672 375 672 C326.333 672 280.833 664.667 238.5 650 C196.167 635.335 159.333 613.668 128 585 C96.6667 556.334 72.3334 520.168 55 476.5 C37.6667 432.833 29 383.667 29 329 C29 241 50.3333 168 93 110 L27 40 L106 -35 L174 37 C227.333 4.33333 292 -12 368 -12 C420.667 -12 468.833 -4.16667 512.5 11.5 C556.167 27.1667 593.333 50.1667 624 80.5 C654.667 110.833 678.167 147.833 694.5 191.5 C710.833 235.167 719 284 719 338 C719 422.667 697.667 493 655 549 L721 619 Z M220 329 C220 448.333 270.667 508 372 508 C402.667 508 428.667 502.333 450 491 L229 255 C223 276.333 220 301 220 329 L220 329 Z M519 331 C519 211.667 469.333 152 370 152 C342 152 317.333 157 296 167 L513 397 C517 378.333 519 356.333 519 331 L519 331 Z " />
<glyph glyph-name="Ugrave" unicode="&#xd9;" horiz-adv-x="688" d="M387 829 L237 829 L286 697 L415 697 L387 829 Z M643 660 L453 660 L446 236 C445.333 204.667 437.667 182.167 423 168.5 C408.333 154.833 384.667 148 352 148 C280.667 148 245 177.333 245 236 L252 660 L63 660 L55 189 C54.3333 122.333 78.8333 70.6667 128.5 34 C178.167 -2.66667 249 -21 341 -21 C386.333 -21 427.333 -16.3333 464 -7 C500.667 2.33333 531.5 16 556.5 34 C581.5 52 600.667 74.1667 614 100.5 C627.333 126.833 634.333 156.333 635 189 L643 660 Z " />
<glyph glyph-name="Uacute" unicode="&#xda;" horiz-adv-x="688" d="M469 830 L319 830 L291 698 L420 698 L469 830 Z M643 660 L453 660 L446 236 C445.333 204.667 437.667 182.167 423 168.5 C408.333 154.833 384.667 148 352 148 C280.667 148 245 177.333 245 236 L252 660 L63 660 L55 189 C54.3333 122.333 78.8333 70.6667 128.5 34 C178.167 -2.66667 249 -21 341 -21 C386.333 -21 427.333 -16.3333 464 -7 C500.667 2.33333 531.5 16 556.5 34 C581.5 52 600.667 74.1667 614 100.5 C627.333 126.833 634.333 156.333 635 189 L643 660 Z " />
<glyph glyph-name="Ucircumflex" unicode="&#xdb;" horiz-adv-x="688" d="M351 743 L367 697 L494 697 L409 829 L298 829 L205 697 L330 697 L351 743 Z M453 660 L446 236 C445.333 204.667 437.667 182.167 423 168.5 C408.333 154.833 384.667 148 352 148 C280.667 148 245 177.333 245 236 L252 660 L63 660 L55 189 C54.3333 122.333 78.8333 70.6667 128.5 34 C178.167 -2.66667 249 -21 341 -21 C386.333 -21 427.333 -16.3333 464 -7 C500.667 2.33333 531.5 16 556.5 34 C581.5 52 600.667 74.1667 614 100.5 C627.333 126.833 634.333 156.333 635 189 L643 660 L453 660 Z " />
<glyph glyph-name="Udieresis" unicode="&#xdc;" horiz-adv-x="688" d="M241 859 C217.667 859 197.5 850.5 180.5 833.5 C163.5 816.5 155 796.333 155 773 C155 756.336 160 740.669 170 726 C180 711.339 191.667 701.172 205 695.5 C218.333 689.833 230.333 687 241 687 C264.333 687 284.5 695.667 301.5 713 C318.5 730.333 327 750.333 327 773 C327 796.333 318.5 816.5 301.5 833.5 C284.5 850.5 264.333 859 241 859 L241 859 Z M461 859 C450.333 859 438.5 856.167 425.5 850.5 C412.5 844.833 401 834.833 391 820.5 C381 806.167 376 790.333 376 773 C376 756.333 381 740.833 391 726.5 C401 712.167 412.5 702 425.5 696 C438.5 690 450.333 687 461 687 C478.333 687 494.167 692 508.5 702 C522.833 712 532.833 723.667 538.5 737 C544.167 750.333 547 762.333 547 773 C547 797 538.667 817.333 522 834 C505.333 850.667 485 859 461 859 L461 859 Z M643 660 L453 660 L446 236 C445.333 204.667 437.667 182.167 423 168.5 C408.333 154.833 384.667 148 352 148 C280.667 148 245 177.333 245 236 L252 660 L63 660 L55 189 C54.3333 122.333 78.8333 70.6667 128.5 34 C178.167 -2.66667 249 -21 341 -21 C386.333 -21 427.333 -16.3333 464 -7 C500.667 2.33333 531.5 16 556.5 34 C581.5 52 600.667 74.1667 614 100.5 C627.333 126.833 634.333 156.333 635 189 L643 660 Z " />
<glyph glyph-name="Yacute" unicode="&#xdd;" horiz-adv-x="641" d="M450 830 L300 830 L272 698 L401 698 L450 830 Z M445 660 L325 439 L215 660 L4 660 L223 264 L218 0 L412 0 L416 264 L647 660 L445 660 Z " />
<glyph glyph-name="Thorn" unicode="&#xde;" horiz-adv-x="566" d="M282 569 L240 569 L242 660 L63 660 L52 0 L231 0 L233 112 L268 112 C363.333 112 434.167 131 480.5 169 C526.833 207 550 264.667 550 342 C550 493.333 460.667 569 282 569 L282 569 Z M277 258 L235 258 L238 421 L274 421 C306.667 421 330.167 414.333 344.5 401 C358.833 387.667 366 366.667 366 338 C366 310 359 289.667 345 277 C331 264.333 308.333 258 277 258 L277 258 Z " />
<glyph glyph-name="germandbls" unicode="&#xdf;" horiz-adv-x="599" d="M523 247 C499 271.666 484.667 287.333 480 294 C475.333 300.667 473 306.667 473 312 C473 320.666 482.5 339.333 501.5 368 C520.5 396.667 534.5 421.667 543.5 443 C552.5 464.333 557 485.333 557 506 C557 528 551.833 549 541.5 569 C531.167 589 516 606.667 496 622 C476 637.333 451.333 649.333 422 658 C392.667 666.667 359.667 671 323 671 C284.333 671 250 666 220 656 C190 646 165.167 632.167 145.5 614.5 C125.833 596.833 111 576 101 552 C91 528 85.6667 502.333 85 475 L84 446 L18 446 L16 304 L82 304 L76 0 L251 0 L258 453 C258.665 479.666 264.331 498.832 275 510.5 C285.667 522.167 302 528 324 528 C343.333 528 358.5 523.833 369.5 515.5 C380.5 507.167 386 494.667 386 478 C386 467.333 383.333 455 378 441 C372.667 427 360.334 404.833 341 374.5 C321.667 344.167 310.167 322.834 306.5 310.5 C302.833 298.167 301 288.667 301 282 C301 274 302.333 266.333 305 259 C307.664 251.667 312.331 243.333 319 234 C325.667 224.667 339.5 211.167 360.5 193.5 C381.5 175.834 393.667 164.167 397 158.5 C400.333 152.834 402.167 148.667 402.5 146 C402.833 143.336 403 141.669 403 141 C403 133 398.833 126 390.5 120 C382.167 114 371.667 111 359 111 L316 115 L297 0 C341.667 -8 378.667 -12 408 -12 C440 -12 468.5 -5.83333 493.5 6.5 C518.5 18.8333 539 36.3333 555 59 C571 81.6667 579 107.333 579 136 C579 156.667 574.667 175.167 566 191.5 C557.333 207.833 543 226.333 523 247 L523 247 Z " />
<glyph glyph-name="agrave" unicode="&#xe0;" horiz-adv-x="493" d="M304 521 L273 660 L127 660 L179 521 L304 521 Z M253 458 C185 458 117.667 447 51 425 L79 312 C133 327.333 179.333 335 218 335 C244 335 262.167 331.167 272.5 323.5 C282.833 315.833 287.667 302.333 287 283 L287 265 L249 265 C167 265 106.833 253.667 68.5 231 C30.1667 208.333 11 171.667 11 121 C11 78.3333 24 45.5 50 22.5 C76 -0.5 114.333 -12 165 -12 C194.333 -12 218.5 -7.83333 237.5 0.5 C256.5 8.83333 275 23.3333 293 44 L294 0 L454 0 L459 297 C459 350.333 442.833 390.5 410.5 417.5 C378.167 444.5 325.667 458 253 458 L253 458 Z M224 95 C208 95 196 99 188 107 C180 115 176 125.333 176 138 C176 154 182.833 165.833 196.5 173.5 C210.167 181.167 232.333 185 263 185 L286 185 L286 115 C275.333 107.667 264.333 102.5 253 99.5 C241.667 96.5 232 95 224 95 L224 95 Z " />
<glyph glyph-name="aacute" unicode="&#xe1;" horiz-adv-x="493" d="M369 660 L226 660 L194 521 L315 521 L369 660 Z M253 458 C185 458 117.667 447 51 425 L79 312 C133 327.333 179.333 335 218 335 C244 335 262.167 331.167 272.5 323.5 C282.833 315.833 287.667 302.333 287 283 L287 265 L249 265 C167 265 106.833 253.667 68.5 231 C30.1667 208.333 11 171.667 11 121 C11 78.3333 24 45.5 50 22.5 C76 -0.5 114.333 -12 165 -12 C194.333 -12 218.5 -7.83333 237.5 0.5 C256.5 8.83333 275 23.3333 293 44 L294 0 L454 0 L459 297 C459 350.333 442.833 390.5 410.5 417.5 C378.167 444.5 325.667 458 253 458 L253 458 Z M224 95 C208 95 196 99 188 107 C180 115 176 125.333 176 138 C176 154 182.833 165.833 196.5 173.5 C210.167 181.167 232.333 185 263 185 L286 185 L286 115 C275.333 107.667 264.333 102.5 253 99.5 C241.667 96.5 232 95 224 95 L224 95 Z " />
<glyph glyph-name="acircumflex" unicode="&#xe2;" horiz-adv-x="493" d="M250 576 L293 510 L421 510 L333 658 L176 658 L62 510 L202 510 L250 576 Z M253 458 C185 458 117.667 447 51 425 L79 312 C133 327.333 179.333 335 218 335 C244 335 262.167 331.167 272.5 323.5 C282.833 315.833 287.667 302.333 287 283 L287 265 L249 265 C167 265 106.833 253.667 68.5 231 C30.1667 208.333 11 171.667 11 121 C11 78.3333 24 45.5 50 22.5 C76 -0.5 114.333 -12 165 -12 C194.333 -12 218.5 -7.83333 237.5 0.5 C256.5 8.83333 275 23.3333 293 44 L294 0 L454 0 L459 297 C459 350.333 442.833 390.5 410.5 417.5 C378.167 444.5 325.667 458 253 458 L253 458 Z M224 95 C208 95 196 99 188 107 C180 115 176 125.333 176 138 C176 154 182.833 165.833 196.5 173.5 C210.167 181.167 232.333 185 263 185 L286 185 L286 115 C275.333 107.667 264.333 102.5 253 99.5 C241.667 96.5 232 95 224 95 L224 95 Z " />
<glyph glyph-name="atilde" unicode="&#xe3;" horiz-adv-x="493" d="M181 540 C193.667 540 207.833 535.167 223.5 525.5 C239.167 515.837 251.833 509.337 261.5 506 C271.167 502.667 282.667 501 296 501 C316.666 501 339.333 506.167 364 516.5 C388.666 526.833 412.333 542.333 435 563 L376 643 C346.667 619.667 323.667 608 307 608 C303 608 297.667 608.833 291 610.5 C284.333 612.167 271.5 618.833 252.5 630.5 C233.5 642.167 213 648 191 648 C168.333 648 144.833 642.167 120.5 630.5 C96.1667 618.833 74 602.333 54 581 L114 504 C142 528 164.333 540 181 540 L181 540 Z M253 458 C185 458 117.667 447 51 425 L79 312 C133 327.333 179.333 335 218 335 C244 335 262.167 331.167 272.5 323.5 C282.833 315.833 287.667 302.333 287 283 L287 265 L249 265 C167 265 106.833 253.667 68.5 231 C30.1667 208.333 11 171.667 11 121 C11 78.3333 24 45.5 50 22.5 C76 -0.5 114.333 -12 165 -12 C194.333 -12 218.5 -7.83333 237.5 0.5 C256.5 8.83333 275 23.3333 293 44 L294 0 L454 0 L459 297 C459 350.333 442.833 390.5 410.5 417.5 C378.167 444.5 325.667 458 253 458 L253 458 Z M224 95 C208 95 196 99 188 107 C180 115 176 125.333 176 138 C176 154 182.833 165.833 196.5 173.5 C210.167 181.167 232.333 185 263 185 L286 185 L286 115 C275.333 107.667 264.333 102.5 253 99.5 C241.667 96.5 232 95 224 95 L224 95 Z " />
<glyph glyph-name="adieresis" unicode="&#xe4;" horiz-adv-x="493" d="M143 506 C166.333 506 186.5 514.333 203.5 531 C220.5 547.667 229 567.333 229 590 C229 613.333 220.667 633.333 204 650 C187.333 666.667 167 675 143 675 C120.333 675 100.667 666.667 84 650 C67.3333 633.333 59 613.333 59 590 C59 567.335 67.5 547.669 84.5 531 C101.5 514.335 121 506.002 143 506 L143 506 Z M354 506 C370.667 506 386.167 510.833 400.5 520.5 C414.833 530.167 424.667 541.5 430 554.5 C435.333 567.5 438 579.333 438 590 C438 613.333 429.833 633.333 413.5 650 C397.167 666.667 377.334 675 354 675 C331.333 675 311.333 666.667 294 650 C276.667 633.333 268 613.333 268 590 C268 573.333 273 558 283 544 C293 530 304.667 520.167 318 514.5 C331.333 508.833 343.333 506 354 506 L354 506 Z M253 458 C185 458 117.667 447 51 425 L79 312 C133 327.333 179.333 335 218 335 C244 335 262.167 331.167 272.5 323.5 C282.833 315.833 287.667 302.333 287 283 L287 265 L249 265 C167 265 106.833 253.667 68.5 231 C30.1667 208.333 11 171.667 11 121 C11 78.3333 24 45.5 50 22.5 C76 -0.5 114.333 -12 165 -12 C194.333 -12 218.5 -7.83333 237.5 0.5 C256.5 8.83333 275 23.3333 293 44 L294 0 L454 0 L459 297 C459 350.333 442.833 390.5 410.5 417.5 C378.167 444.5 325.667 458 253 458 L253 458 Z M224 95 C208 95 196 99 188 107 C180 115 176 125.333 176 138 C176 154 182.833 165.833 196.5 173.5 C210.167 181.167 232.333 185 263 185 L286 185 L286 115 C275.333 107.667 264.333 102.5 253 99.5 C241.667 96.5 232 95 224 95 L224 95 Z " />
<glyph glyph-name="aring" unicode="&#xe5;" horiz-adv-x="493" d="M248 501 C280 500.998 306.667 512.165 328 534.5 C349.333 556.833 360 584.333 360 617 C360 641.667 353.833 663.833 341.5 683.5 C329.167 703.167 314.167 716.833 296.5 724.5 C278.833 732.167 262.667 736 248 736 C224 736 202.167 729.5 182.5 716.5 C162.834 703.5 149.167 687.667 141.5 669 C133.833 650.333 130 633 130 617 C130 601.667 133.833 585 141.5 567 C149.167 549 162.833 533.5 182.5 520.5 C202.167 507.5 224 501 248 501 L248 501 Z M245 661 C256.333 661 265.5 657.167 272.5 649.5 C279.5 641.838 283 631.672 283 619 C283 606.333 279.5 596 272.5 588 C265.5 580 256.333 576 245 576 C233.667 576 224.5 580 217.5 588 C210.5 596 207 606.333 207 619 C207 631.667 210.5 641.833 217.5 649.5 C224.5 657.167 233.667 661 245 661 L245 661 Z M253 458 C185 458 117.667 447 51 425 L79 312 C133 327.333 179.333 335 218 335 C244 335 262.167 331.167 272.5 323.5 C282.833 315.833 287.667 302.333 287 283 L287 265 L249 265 C167 265 106.833 253.667 68.5 231 C30.1667 208.333 11 171.667 11 121 C11 78.3333 24 45.5 50 22.5 C76 -0.5 114.333 -12 165 -12 C194.333 -12 218.5 -7.83333 237.5 0.5 C256.5 8.83333 275 23.3333 293 44 L294 0 L454 0 L459 297 C459 350.333 442.833 390.5 410.5 417.5 C378.167 444.5 325.667 458 253 458 L253 458 Z M224 95 C208 95 196 99 188 107 C180 115 176 125.333 176 138 C176 154 182.833 165.833 196.5 173.5 C210.167 181.167 232.333 185 263 185 L286 185 L286 115 C275.333 107.667 264.333 102.5 253 99.5 C241.667 96.5 232 95 224 95 L224 95 Z " />
<glyph glyph-name="ae" unicode="&#xe6;" horiz-adv-x="791" d="M768 237 C768 309.667 749.167 364.667 711.5 402 C673.833 439.333 619.333 458 548 458 C483.333 458 429.333 444 386 416 C356 444 311.667 458 253 458 C185 458 117.667 447 51 425 L79 312 C133 327.333 179.333 335 218 335 C249.333 335 270.333 332.5 281 327.5 C291.667 322.5 298.667 316.333 302 309 L291 265 L249 265 C167 265 106.833 253.667 68.5 231 C30.1667 208.333 11 171.667 11 121 C11 78.3333 24 45.5 50 22.5 C76 -0.5 114.333 -12 165 -12 C207.667 -12 242.5 -8.33333 269.5 -1 C296.5 6.33333 325.333 19.6667 356 39 C399.333 6.33333 466.333 -10 557 -10 C617.667 -10 682 -2.66667 750 12 L730 125 C663.333 113.667 608.333 108 565 108 C533 108 510 112.833 496 122.5 C482 132.167 473.333 150 470 176 L764 176 C766.667 197.333 768 217.667 768 237 L768 237 Z M541 345 C560.333 345 575 339.167 585 327.5 C595 315.833 600.333 296.333 601 269 L470 269 C473.333 294.333 480.667 313.333 492 326 C503.333 338.667 519.667 345 541 345 L541 345 Z M176 138 C176 154 182.833 165.833 196.5 173.5 C210.167 181.167 232.333 185 263 185 L288 185 C288.667 161 293 138 301 116 C275.667 102 250 95 224 95 C208 95 196 99 188 107 C180 115 176 125.333 176 138 L176 138 Z " />
<glyph glyph-name="ccedilla" unicode="&#xe7;" horiz-adv-x="421" d="M383 142 C352.333 134 325 130 301 130 C238.333 130 207 161 207 223 C207 285 238.333 316 301 316 C325 316 352.333 312 383 304 L410 432 C374 444 342.667 451.333 316 454 C289.333 456.667 271.667 458 263 458 C221.667 458 185.667 451.833 155 439.5 C124.333 427.167 99 410.167 79 388.5 C59 366.833 44.8333 341.5 36.5 312.5 C28.1667 283.5 24 253.667 24 223 C24 159 38.6667 108.333 68 71 C97.3333 33.6667 136.667 9 186 -3 L185 -45 C185 -47.6667 185.5 -51.3334 186.5 -56 C187.5 -60.6667 190.167 -65.5 194.5 -70.5 C198.833 -75.5 207 -80.8333 219 -86.5 C231 -92.1667 238.667 -96.5 242 -99.5 C245.333 -102.5 247 -106.333 247 -111 C247 -119 241.667 -125 231 -129 C220.333 -133 207.333 -135 192 -135 L176 -135 L173 -215 C181.667 -217.667 198 -219 222 -219 C314 -219 360 -187.333 360 -124 C360 -111.333 358.5 -101.167 355.5 -93.5 C352.5 -85.8333 349.333 -79.8333 346 -75.5 C342.669 -71.1667 338.836 -67 334.5 -63 C330.167 -59 321.667 -53.3333 309 -46 C296.333 -38.6667 288.333 -32.5 285 -27.5 C281.671 -22.5 279.338 -17.3333 278 -12 C320 -10 364 -1.33333 410 14 L383 142 Z " />
<glyph glyph-name="egrave" unicode="&#xe8;" horiz-adv-x="528" d="M336 521 L305 660 L159 660 L211 521 L336 521 Z M505 237 C505 309.667 486.167 364.667 448.5 402 C410.833 439.333 356.333 458 285 458 C243 458 205.333 451.833 172 439.5 C138.667 427.167 110.667 409.834 88 387.5 C65.3333 365.167 49 338.167 39 306.5 C29 274.833 24 242 24 208 C24 133.333 45.6667 78.3333 89 43 C132.333 7.66667 200.667 -10 294 -10 C354.667 -10 419 -2.66667 487 12 L467 125 C400.333 113.667 345.333 108 302 108 C270 108 247 112.833 233 122.5 C219 132.167 210.333 150 207 176 L501 176 C503.667 197.333 505 217.667 505 237 L505 237 Z M278 345 C297.333 345 312 339.167 322 327.5 C332 315.833 337.333 296.333 338 269 L207 269 C210.333 294.333 217.666 313.333 229 326 C240.333 338.667 256.667 345 278 345 L278 345 Z " />
<glyph glyph-name="eacute" unicode="&#xe9;" horiz-adv-x="528" d="M401 660 L258 660 L226 521 L347 521 L401 660 Z M505 237 C505 309.667 486.167 364.667 448.5 402 C410.833 439.333 356.333 458 285 458 C243 458 205.333 451.833 172 439.5 C138.667 427.167 110.667 409.834 88 387.5 C65.3333 365.167 49 338.167 39 306.5 C29 274.833 24 242 24 208 C24 133.333 45.6667 78.3333 89 43 C132.333 7.66667 200.667 -10 294 -10 C354.667 -10 419 -2.66667 487 12 L467 125 C400.333 113.667 345.333 108 302 108 C270 108 247 112.833 233 122.5 C219 132.167 210.333 150 207 176 L501 176 C503.667 197.333 505 217.667 505 237 L505 237 Z M278 345 C297.333 345 312 339.167 322 327.5 C332 315.833 337.333 296.333 338 269 L207 269 C210.333 294.333 217.666 313.333 229 326 C240.333 338.667 256.667 345 278 345 L278 345 Z " />
<glyph glyph-name="ecircumflex" unicode="&#xea;" horiz-adv-x="528" d="M282 576 L325 510 L453 510 L365 658 L208 658 L94 510 L234 510 L282 576 Z M505 237 C505 309.667 486.167 364.667 448.5 402 C410.833 439.333 356.333 458 285 458 C243 458 205.333 451.833 172 439.5 C138.667 427.167 110.667 409.834 88 387.5 C65.3333 365.167 49 338.167 39 306.5 C29 274.833 24 242 24 208 C24 133.333 45.6667 78.3333 89 43 C132.333 7.66667 200.667 -10 294 -10 C354.667 -10 419 -2.66667 487 12 L467 125 C400.333 113.667 345.333 108 302 108 C270 108 247 112.833 233 122.5 C219 132.167 210.333 150 207 176 L501 176 C503.667 197.333 505 217.667 505 237 L505 237 Z M278 345 C297.333 345 312 339.167 322 327.5 C332 315.833 337.333 296.333 338 269 L207 269 C210.333 294.333 217.666 313.333 229 326 C240.333 338.667 256.667 345 278 345 L278 345 Z " />
<glyph glyph-name="edieresis" unicode="&#xeb;" horiz-adv-x="528" d="M175 506 C198.333 506 218.5 514.333 235.5 531 C252.5 547.667 261 567.333 261 590 C261 613.333 252.667 633.333 236 650 C219.333 666.667 199 675 175 675 C152.333 675 132.667 666.667 116 650 C99.3333 633.333 91 613.333 91 590 C91 567.335 99.5 547.669 116.5 531 C133.5 514.335 153 506.002 175 506 L175 506 Z M386 506 C402.667 506 418.167 510.833 432.5 520.5 C446.833 530.167 456.667 541.5 462 554.5 C467.333 567.5 470 579.333 470 590 C470 613.333 461.833 633.333 445.5 650 C429.167 666.667 409.334 675 386 675 C363.333 675 343.333 666.667 326 650 C308.667 633.333 300 613.333 300 590 C300 573.333 305 558 315 544 C325 530 336.667 520.167 350 514.5 C363.333 508.833 375.333 506 386 506 L386 506 Z M505 237 C505 309.667 486.167 364.667 448.5 402 C410.833 439.333 356.333 458 285 458 C243 458 205.333 451.833 172 439.5 C138.667 427.167 110.667 409.834 88 387.5 C65.3333 365.167 49 338.167 39 306.5 C29 274.833 24 242 24 208 C24 133.333 45.6667 78.3333 89 43 C132.333 7.66667 200.667 -10 294 -10 C354.667 -10 419 -2.66667 487 12 L467 125 C400.333 113.667 345.333 108 302 108 C270 108 247 112.833 233 122.5 C219 132.167 210.333 150 207 176 L501 176 C503.667 197.333 505 217.667 505 237 L505 237 Z M278 345 C297.333 345 312 339.167 322 327.5 C332 315.833 337.333 296.333 338 269 L207 269 C210.333 294.333 217.666 313.333 229 326 C240.333 338.667 256.667 345 278 345 L278 345 Z " />
<glyph glyph-name="igrave" unicode="&#xec;" horiz-adv-x="259" d="M163 660 L17 660 L69 521 L194 521 L163 660 Z M227 446 L44 446 L36 0 L219 0 L227 446 Z " />
<glyph glyph-name="iacute" unicode="&#xed;" horiz-adv-x="259" d="M259 660 L116 660 L84 521 L205 521 L259 660 Z M227 446 L44 446 L36 0 L219 0 L227 446 Z " />
<glyph glyph-name="icircumflex" unicode="&#xee;" horiz-adv-x="259" d="M140 576 L183 510 L311 510 L223 658 L66 658 L-48 510 L92 510 L140 576 Z M36 0 L219 0 L227 446 L44 446 L36 0 Z " />
<glyph glyph-name="idieresis" unicode="&#xef;" horiz-adv-x="259" d="M33 675 C10.3333 675 -9.33333 666.667 -26 650 C-42.6667 633.333 -51 613.333 -51 590 C-51 567.335 -42.5 547.669 -25.5 531 C-8.5 514.335 11 506.002 33 506 C56.3333 506 76.5 514.333 93.5 531 C110.5 547.667 119 567.333 119 590 C119 613.333 110.667 633.333 94 650 C77.3333 666.667 57 675 33 675 L33 675 Z M244 675 C221.333 675 201.333 666.667 184 650 C166.667 633.333 158 613.333 158 590 C158 573.333 163 558 173 544 C183 530 194.667 520.167 208 514.5 C221.333 508.833 233.333 506 244 506 C260.667 506 276.167 510.833 290.5 520.5 C304.833 530.167 314.667 541.5 320 554.5 C325.333 567.5 328 579.333 328 590 C328 613.333 319.833 633.333 303.5 650 C287.167 666.667 267.334 675 244 675 L244 675 Z M227 446 L44 446 L36 0 L219 0 L227 446 Z " />
<glyph glyph-name="eth" unicode="&#xf0;" horiz-adv-x="521" d="M476 267 C475.333 323 467.333 370.5 452 409.5 C436.667 448.5 417.667 486.667 395 524 L473 570 L425 651 L343 603 L297 669 L174 595 L218 530 L128 477 L175 396 L265 448 C280.333 418.667 292.333 388 301 356 C271 364 240.667 368 210 368 C150.667 368 104.833 352.167 72.5 320.5 C40.1667 288.833 24 244.333 24 187 C24 123.667 43.1667 74.5 81.5 39.5 C119.833 4.5 174 -13 244 -13 C324.667 -13 383.833 10.8333 421.5 58.5 C459.166 106.167 477.332 175.667 476 267 L476 267 Z M249 118 C232.333 118 220 123.833 212 135.5 C204 147.167 200 166 200 192 C200 220 204.667 240.167 214 252.5 C223.333 264.833 238.333 271 259 271 C278.333 271 296.333 268.667 313 264 L313 244 C313 214 311 190.167 307 172.5 C303 154.833 296.5 141.333 287.5 132 C278.5 122.667 265.667 118 249 118 L249 118 Z " />
<glyph glyph-name="ntilde" unicode="&#xf1;" horiz-adv-x="537" d="M206 540 C218.667 540 232.833 535.167 248.5 525.5 C264.166 515.837 276.833 509.337 286.5 506 C296.167 502.667 307.667 501 321 501 C341.667 501 364.333 506.167 389 516.5 C413.666 526.833 437.333 542.333 460 563 L401 643 C371.667 619.667 348.667 608 332 608 C328 608 322.667 608.833 316 610.5 C309.333 612.167 296.5 618.833 277.5 630.5 C258.5 642.167 238 648 216 648 C193.333 648 169.833 642.167 145.5 630.5 C121.167 618.833 99 602.333 79 581 L139 504 C167 528 189.333 540 206 540 L206 540 Z M357 458 C329 458 302.167 453.333 276.5 444 C250.833 434.667 229.667 420.667 213 402 L212 446 L44 446 L36 0 L217 0 L222 311 C236 315.667 250.667 318 266 318 C289.333 318 304.167 310.5 310.5 295.5 C316.833 280.5 320 262 320 240 L316 0 L497 0 L503 309 C503 408.333 454.333 458 357 458 L357 458 Z " />
<glyph glyph-name="ograve" unicode="&#xf2;" horiz-adv-x="566" d="M312 660 L166 660 L218 521 L343 521 L312 660 Z M287 458 C203.667 458 139 436.5 93 393.5 C47 350.5 24 290.667 24 214 C24 140.667 45.6667 84.6667 89 46 C132.333 7.33333 194 -12 274 -12 C358.667 -12 424.667 8.83333 472 50.5 C519.333 92.1667 543 150.667 543 226 C543 299.333 520.5 356.333 475.5 397 C430.5 437.667 367.667 458 287 458 L287 458 Z M283 317 C308.333 317 326.667 309.667 338 295 C349.333 280.333 355 257.333 355 226 C355 193.333 349 169 337 153 C325 137 306.333 129 281 129 C255.667 129 237.167 136.667 225.5 152 C213.833 167.333 208 191 208 223 C208 255.667 214 279.5 226 294.5 C238 309.5 257 317 283 317 L283 317 Z " />
<glyph glyph-name="oacute" unicode="&#xf3;" horiz-adv-x="566" d="M408 660 L265 660 L233 521 L354 521 L408 660 Z M287 458 C203.667 458 139 436.5 93 393.5 C47 350.5 24 290.667 24 214 C24 140.667 45.6667 84.6667 89 46 C132.333 7.33333 194 -12 274 -12 C358.667 -12 424.667 8.83333 472 50.5 C519.333 92.1667 543 150.667 543 226 C543 299.333 520.5 356.333 475.5 397 C430.5 437.667 367.667 458 287 458 L287 458 Z M283 317 C308.333 317 326.667 309.667 338 295 C349.333 280.333 355 257.333 355 226 C355 193.333 349 169 337 153 C325 137 306.333 129 281 129 C255.667 129 237.167 136.667 225.5 152 C213.833 167.333 208 191 208 223 C208 255.667 214 279.5 226 294.5 C238 309.5 257 317 283 317 L283 317 Z " />
<glyph glyph-name="ocircumflex" unicode="&#xf4;" horiz-adv-x="566" d="M289 576 L332 510 L460 510 L372 658 L215 658 L101 510 L241 510 L289 576 Z M287 458 C203.667 458 139 436.5 93 393.5 C47 350.5 24 290.667 24 214 C24 140.667 45.6667 84.6667 89 46 C132.333 7.33333 194 -12 274 -12 C358.667 -12 424.667 8.83333 472 50.5 C519.333 92.1667 543 150.667 543 226 C543 299.333 520.5 356.333 475.5 397 C430.5 437.667 367.667 458 287 458 L287 458 Z M281 129 C255.667 129 237.167 136.667 225.5 152 C213.833 167.333 208 191 208 223 C208 255.667 214 279.5 226 294.5 C238 309.5 257 317 283 317 C308.333 317 326.667 309.667 338 295 C349.333 280.333 355 257.333 355 226 C355 193.333 349 169 337 153 C325 137 306.333 129 281 129 L281 129 Z " />
<glyph glyph-name="otilde" unicode="&#xf5;" horiz-adv-x="566" d="M415 643 C385.667 619.667 362.667 608 346 608 C342 608 336.667 608.833 330 610.5 C323.333 612.167 310.5 618.833 291.5 630.5 C272.5 642.167 252 648 230 648 C207.333 648 183.833 642.167 159.5 630.5 C135.167 618.833 113 602.333 93 581 L153 504 C181 528 203.333 540 220 540 C232.667 540 246.833 535.167 262.5 525.5 C278.166 515.837 290.832 509.337 300.5 506 C310.167 502.667 321.667 501 335 501 C355.666 501 378.333 506.167 403 516.5 C427.666 526.833 451.332 542.333 474 563 L415 643 Z M287 458 C203.667 458 139 436.5 93 393.5 C47 350.5 24 290.667 24 214 C24 140.667 45.6667 84.6667 89 46 C132.333 7.33333 194 -12 274 -12 C358.667 -12 424.667 8.83333 472 50.5 C519.333 92.1667 543 150.667 543 226 C543 299.333 520.5 356.333 475.5 397 C430.5 437.667 367.667 458 287 458 L287 458 Z M283 317 C308.333 317 326.667 309.667 338 295 C349.333 280.333 355 257.333 355 226 C355 193.333 349 169 337 153 C325 137 306.333 129 281 129 C255.667 129 237.167 136.667 225.5 152 C213.833 167.333 208 191 208 223 C208 255.667 214 279.5 226 294.5 C238 309.5 257 317 283 317 L283 317 Z " />
<glyph glyph-name="odieresis" unicode="&#xf6;" horiz-adv-x="566" d="M182 675 C159.333 675 139.667 666.667 123 650 C106.333 633.333 98 613.333 98 590 C98 567.335 106.5 547.669 123.5 531 C140.5 514.335 160 506.002 182 506 C205.333 506 225.5 514.333 242.5 531 C259.5 547.667 268 567.333 268 590 C268 613.333 259.667 633.333 243 650 C226.333 666.667 206 675 182 675 L182 675 Z M393 675 C370.333 675 350.333 666.667 333 650 C315.667 633.333 307 613.333 307 590 C307 573.333 312 558 322 544 C332 530 343.667 520.167 357 514.5 C370.333 508.833 382.333 506 393 506 C409.667 506 425.167 510.833 439.5 520.5 C453.833 530.167 463.667 541.5 469 554.5 C474.333 567.5 477 579.333 477 590 C477 613.333 468.833 633.333 452.5 650 C436.167 666.667 416.334 675 393 675 L393 675 Z M287 458 C203.667 458 139 436.5 93 393.5 C47 350.5 24 290.667 24 214 C24 140.667 45.6667 84.6667 89 46 C132.333 7.33333 194 -12 274 -12 C358.667 -12 424.667 8.83333 472 50.5 C519.333 92.1667 543 150.667 543 226 C543 299.333 520.5 356.333 475.5 397 C430.5 437.667 367.667 458 287 458 L287 458 Z M283 317 C308.333 317 326.667 309.667 338 295 C349.333 280.333 355 257.333 355 226 C355 193.333 349 169 337 153 C325 137 306.333 129 281 129 C255.667 129 237.167 136.667 225.5 152 C213.833 167.333 208 191 208 223 C208 255.667 214 279.5 226 294.5 C238 309.5 257 317 283 317 L283 317 Z " />
<glyph glyph-name="divide" unicode="&#xf7;" horiz-adv-x="564" d="M370 392 C370 408.667 365.333 424.167 356 438.5 C346.668 452.833 335.335 462.833 322 468.5 C308.667 474.167 296.667 477 286 477 C269.333 477 254.167 472.333 240.5 463 C226.833 453.667 217.333 442.333 212 429 C206.667 415.667 204 403.334 204 392 C204 368.667 211.833 348.834 227.5 332.5 C243.167 316.167 262.667 308 286 308 C302.667 308 318.167 312.833 332.5 322.5 C346.833 332.167 356.667 343.5 362 356.5 C367.333 369.5 370 381.333 370 392 L370 392 Z M517 293 L51 293 L48 164 L514 164 L517 293 Z M361 64 C361 86.6667 353 106.167 337 122.5 C321 138.833 301.333 147 278 147 C255.333 147 236 139 220 123 C204 107 196 87.3333 196 64 C196 40.6667 204 20.5 220 3.5 C236 -13.5 255.333 -22 278 -22 C295.333 -22 310.833 -17 324.5 -7 C338.167 3 347.667 14.6667 353 28 C358.333 41.3333 361 53.3333 361 64 L361 64 Z " />
<glyph glyph-name="oslash" unicode="&#xf8;" horiz-adv-x="584" d="M561 226 C561 260 555.167 291.167 543.5 319.5 C531.833 347.833 515.333 372 494 392 L544 450 L490 495 L435 431 C417 439.665 395.167 446.332 369.5 451 C343.833 455.667 318 458 292 458 C205.333 458 139 436.167 93 392.5 C47 348.833 24 289.667 24 215 C24 146.333 44.3333 91.6667 85 51 L45 4 L97 -42 L144 13 C180 -3.66667 224.333 -12 277 -12 C367.666 -12 437.833 8.83333 487.5 50.5 C537.167 92.1667 561.667 150.667 561 226 L561 226 Z M292 317 C304 317 314 315.667 322 313 L213 186 C211 196 210 208 210 222 C210 254.667 216.667 278.667 230 294 C243.333 309.333 264 317 292 317 L292 317 Z M289 129 C277.667 129 267.334 130 258 132 L370 262 C372 253.334 373 242.667 373 230 C373 162.667 345 129 289 129 L289 129 Z " />
<glyph glyph-name="ugrave" unicode="&#xf9;" horiz-adv-x="527" d="M325 521 L294 660 L148 660 L200 521 L325 521 Z M310 446 L306 132 C290 128 275.333 126 262 126 C246 126 234.333 131.5 227 142.5 C219.667 153.5 216.333 172 217 198 L222 446 L40 446 L34 136 C33.3333 84.6667 46.3333 47.1667 73 23.5 C99.6667 -0.166672 136 -12 182 -12 C210.667 -12 236.167 -8.16666 258.5 -0.5 C280.833 7.16667 302 19.3333 322 36 L321 0 L483 0 L491 446 L310 446 Z " />
<glyph glyph-name="uacute" unicode="&#xfa;" horiz-adv-x="527" d="M390 660 L247 660 L215 521 L336 521 L390 660 Z M310 446 L306 132 C290 128 275.333 126 262 126 C246 126 234.333 131.5 227 142.5 C219.667 153.5 216.333 172 217 198 L222 446 L40 446 L34 136 C33.3333 84.6667 46.3333 47.1667 73 23.5 C99.6667 -0.166672 136 -12 182 -12 C210.667 -12 236.167 -8.16666 258.5 -0.5 C280.833 7.16667 302 19.3333 322 36 L321 0 L483 0 L491 446 L310 446 Z " />
<glyph glyph-name="ucircumflex" unicode="&#xfb;" horiz-adv-x="527" d="M271 576 L314 510 L442 510 L354 658 L197 658 L83 510 L223 510 L271 576 Z M310 446 L306 132 C290 128 275.333 126 262 126 C246 126 234.333 131.5 227 142.5 C219.667 153.5 216.333 172 217 198 L222 446 L40 446 L34 136 C33.3333 84.6667 46.3333 47.1667 73 23.5 C99.6667 -0.166672 136 -12 182 -12 C210.667 -12 236.167 -8.16666 258.5 -0.5 C280.833 7.16667 302 19.3333 322 36 L321 0 L483 0 L491 446 L310 446 Z " />
<glyph glyph-name="udieresis" unicode="&#xfc;" horiz-adv-x="527" d="M164 506 C187.333 506 207.5 514.333 224.5 531 C241.5 547.667 250 567.333 250 590 C250 613.333 241.667 633.333 225 650 C208.333 666.667 188 675 164 675 C141.333 675 121.667 666.667 105 650 C88.3333 633.333 80 613.333 80 590 C80 567.335 88.5 547.669 105.5 531 C122.5 514.335 142 506.002 164 506 L164 506 Z M375 506 C391.667 506 407.167 510.833 421.5 520.5 C435.833 530.167 445.667 541.5 451 554.5 C456.333 567.5 459 579.333 459 590 C459 613.333 450.833 633.333 434.5 650 C418.167 666.667 398.334 675 375 675 C352.333 675 332.333 666.667 315 650 C297.667 633.333 289 613.333 289 590 C289 573.333 294 558 304 544 C314 530 325.667 520.167 339 514.5 C352.333 508.833 364.333 506 375 506 L375 506 Z M310 446 L306 132 C290 128 275.333 126 262 126 C246 126 234.333 131.5 227 142.5 C219.667 153.5 216.333 172 217 198 L222 446 L40 446 L34 136 C33.3333 84.6667 46.3333 47.1667 73 23.5 C99.6667 -0.166672 136 -12 182 -12 C210.667 -12 236.167 -8.16666 258.5 -0.5 C280.833 7.16667 302 19.3333 322 36 L321 0 L483 0 L491 446 L310 446 Z " />
<glyph glyph-name="yacute" unicode="&#xfd;" horiz-adv-x="509" d="M386 660 L243 660 L211 521 L332 521 L386 660 Z M334 446 L256 117 L190 446 L-10 446 L150 -15 C126 -37 90.6667 -58.3333 44 -79 L16 -91 L80 -239 C148.667 -215 204.333 -183.5 247 -144.5 C289.667 -105.5 323.667 -55.3333 349 6 L531 446 L334 446 Z " />
<glyph glyph-name="thorn" unicode="&#xfe;" horiz-adv-x="547" d="M346 453 C318.667 453 295.167 448 275.5 438 C255.833 428 238 415.667 222 401 C226.667 417 229.333 434 230 452 L234 660 L48 660 L33 -219 L214 -219 L218 -1 C236.667 -8.33334 259.333 -12 286 -12 C320.667 -12 352.667 -6.83333 382 3.5 C411.333 13.8333 436.5 29.3333 457.5 50 C478.5 70.6667 494.833 96.8333 506.5 128.5 C518.167 160.167 524 196.333 524 237 C524 305.666 508.167 358.833 476.5 396.5 C444.833 434.167 401.333 453 346 453 L346 453 Z M220 120 L223 305 C238.333 310.333 253.666 313 269 313 C294.333 313 313 304.667 325 288 C337 271.333 343 246 343 212 C343 173.333 334.167 147.167 316.5 133.5 C298.833 119.833 266.667 115.333 220 120 L220 120 Z " />
<glyph glyph-name="ydieresis" unicode="&#xff;" horiz-adv-x="509" d="M160 506 C183.333 506 203.5 514.333 220.5 531 C237.5 547.667 246 567.333 246 590 C246 613.333 237.667 633.333 221 650 C204.333 666.667 184 675 160 675 C137.333 675 117.667 666.667 101 650 C84.3333 633.333 76 613.333 76 590 C76 567.335 84.5 547.669 101.5 531 C118.5 514.335 138 506.002 160 506 L160 506 Z M371 506 C387.667 506 403.167 510.833 417.5 520.5 C431.833 530.167 441.667 541.5 447 554.5 C452.333 567.5 455 579.333 455 590 C455 613.333 446.833 633.333 430.5 650 C414.167 666.667 394.334 675 371 675 C348.333 675 328.333 666.667 311 650 C293.667 633.333 285 613.333 285 590 C285 573.333 290 558 300 544 C310 530 321.667 520.167 335 514.5 C348.333 508.833 360.333 506 371 506 L371 506 Z M334 446 L256 117 L190 446 L-10 446 L150 -15 C126 -37 90.6667 -58.3333 44 -79 L16 -91 L80 -239 C148.667 -215 204.333 -183.5 247 -144.5 C289.667 -105.5 323.667 -55.3333 349 6 L531 446 L334 446 Z " />
<glyph glyph-name="Amacron" unicode="&#x100;" horiz-adv-x="688" d="M505 827 L193 827 L191 704 L502 704 L505 827 Z M483 0 L682 0 L465 660 L234 660 L-8 0 L192 0 L226 109 L452 109 L483 0 Z M272 260 L343 489 L409 260 L272 260 Z " />
<glyph glyph-name="amacron" unicode="&#x101;" horiz-adv-x="493" d="M401 631 L90 631 L88 508 L399 508 L401 631 Z M253 458 C185 458 117.667 447 51 425 L79 312 C133 327.333 179.333 335 218 335 C244 335 262.167 331.167 272.5 323.5 C282.833 315.833 287.667 302.333 287 283 L287 265 L249 265 C167 265 106.833 253.667 68.5 231 C30.1667 208.333 11 171.667 11 121 C11 78.3333 24 45.5 50 22.5 C76 -0.5 114.333 -12 165 -12 C194.333 -12 218.5 -7.83333 237.5 0.5 C256.5 8.83333 275 23.3333 293 44 L294 0 L454 0 L459 297 C459 350.333 442.833 390.5 410.5 417.5 C378.167 444.5 325.667 458 253 458 L253 458 Z M224 95 C208 95 196 99 188 107 C180 115 176 125.333 176 138 C176 154 182.833 165.833 196.5 173.5 C210.167 181.167 232.333 185 263 185 L286 185 L286 115 C275.333 107.667 264.333 102.5 253 99.5 C241.667 96.5 232 95 224 95 L224 95 Z " />
<glyph glyph-name="Abreve" unicode="&#x102;" horiz-adv-x="688" d="M347 707 C375 707 401.667 712.333 427 723 C452.333 733.667 472.167 749.5 486.5 770.5 C500.833 791.5 509 814.333 511 839 L391 839 C391 823.667 387.333 811.667 380 803 C372.667 794.333 362.667 790 350 790 C337.333 790 327.333 794.333 320 803 C312.667 811.667 308.667 823.667 308 839 L188 839 C188.667 814.333 195.5 791.5 208.5 770.5 C221.5 749.5 240.667 733.667 266 723 C291.333 712.333 318.333 707 347 707 L347 707 Z M483 0 L682 0 L465 660 L234 660 L-8 0 L192 0 L226 109 L452 109 L483 0 Z M272 260 L343 489 L409 260 L272 260 Z " />
<glyph glyph-name="abreve" unicode="&#x103;" horiz-adv-x="493" d="M243 521 C261 521 281.333 525 304 533 C326.667 541 346 552.5 362 567.5 C378 582.5 389.333 598 396 614 C402.664 630 406.33 645.333 407 660 L276 660 C277.333 641.333 275.167 629 269.5 623 C263.833 617 256 614 246 614 C235.334 614 227.167 618.167 221.5 626.5 C215.833 634.833 213.333 646 214 660 L84 660 C83.3333 630 92.5 603.667 111.5 581 C130.5 558.335 152.5 542.669 177.5 534 C202.5 525.333 224.333 521 243 521 L243 521 Z M253 458 C185 458 117.667 447 51 425 L79 312 C133 327.333 179.333 335 218 335 C244 335 262.167 331.167 272.5 323.5 C282.833 315.833 287.667 302.333 287 283 L287 265 L249 265 C167 265 106.833 253.667 68.5 231 C30.1667 208.333 11 171.667 11 121 C11 78.3333 24 45.5 50 22.5 C76 -0.5 114.333 -12 165 -12 C194.333 -12 218.5 -7.83333 237.5 0.5 C256.5 8.83333 275 23.3333 293 44 L294 0 L454 0 L459 297 C459 350.333 442.833 390.5 410.5 417.5 C378.167 444.5 325.667 458 253 458 L253 458 Z M224 95 C208 95 196 99 188 107 C180 115 176 125.333 176 138 C176 154 182.833 165.833 196.5 173.5 C210.167 181.167 232.333 185 263 185 L286 185 L286 115 C275.333 107.667 264.333 102.5 253 99.5 C241.667 96.5 232 95 224 95 L224 95 Z " />
<glyph glyph-name="Aogonek" unicode="&#x104;" horiz-adv-x="688" d="M553 -138 C542.337 -138 534.671 -135.167 530 -129.5 C525.333 -123.833 523 -118.666 523 -114 C523 -97.3333 544.667 -59.3333 588 0 L682 0 L465 660 L234 660 L-8 0 L192 0 L226 109 L452 109 L483 1 L482 1 C454 -35 436 -62.5 428 -81.5 C420 -100.5 416 -118.333 416 -135 C416 -156.333 421.333 -173.333 432 -186 C442.666 -198.667 456.832 -208 474.5 -214 C492.167 -220 511.667 -223 533 -223 C549 -223 563.5 -222 576.5 -220 C589.5 -218 598 -215.667 602 -213 L590 -134 C576.667 -136.667 564.333 -138 553 -138 L553 -138 Z M272 260 L343 489 L409 260 L272 260 Z " />
<glyph glyph-name="aogonek" unicode="&#x105;" horiz-adv-x="493" d="M454 0 L459 297 C459 350.333 442.833 390.5 410.5 417.5 C378.167 444.5 325.667 458 253 458 C185 458 117.667 447 51 425 L79 312 C133 327.333 179.333 335 218 335 C244 335 262.167 331.167 272.5 323.5 C282.833 315.833 287.667 302.333 287 283 L287 265 L249 265 C167 265 106.833 253.667 68.5 231 C30.1667 208.333 11 171.667 11 121 C11 78.3333 24 45.5 50 22.5 C76 -0.5 114.333 -12 165 -12 C194.333 -12 218.5 -7.83333 237.5 0.5 C256.5 8.83333 275 23.3333 293 44 L294 1 C266 -35 248 -62.5 240 -81.5 C232 -100.5 228 -118.333 228 -135 C228 -156.333 233.333 -173.333 244 -186 C254.667 -198.667 268.833 -208 286.5 -214 C304.167 -220 323.667 -223 345 -223 C361 -223 375.5 -222 388.5 -220 C401.5 -218 410 -215.667 414 -213 L402 -134 C388.667 -136.667 376.333 -138 365 -138 C354.333 -138 346.667 -135.167 342 -129.5 C337.333 -123.833 335 -118.666 335 -114 C335 -103.333 342 -87.6666 356 -67 C370 -46.3333 386.667 -24 406 0 L454 0 Z M224 95 C208 95 196 99 188 107 C180 115 176 125.333 176 138 C176 154 182.833 165.833 196.5 173.5 C210.167 181.167 232.333 185 263 185 L286 185 L286 115 C275.333 107.667 264.333 102.5 253 99.5 C241.667 96.5 232 95 224 95 L224 95 Z " />
<glyph glyph-name="Cacute" unicode="&#x106;" horiz-adv-x="569" d="M472 830 L322 830 L294 698 L423 698 L472 830 Z M29 322 C29 212 58.6667 128.833 118 72.5 C177.333 16.1667 265 -12 381 -12 C425.667 -12 479 -5.66667 541 7 L510 164 C466.667 156 431 152 403 152 C339.667 152 293.333 166.5 264 195.5 C234.667 224.5 220 270 220 332 C220 392 233.833 436 261.5 464 C289.166 492 333.333 506 394 506 C424.666 506 463.333 502 510 494 L541 651 C475.667 663.667 420 670 374 670 C320 670 271.5 662.5 228.5 647.5 C185.5 632.5 149.167 610.333 119.5 581 C89.8333 551.667 67.3333 515.167 52 471.5 C36.6667 427.833 29 378 29 322 L29 322 Z " />
<glyph glyph-name="cacute" unicode="&#x107;" horiz-adv-x="421" d="M378 660 L235 660 L203 521 L324 521 L378 660 Z M207 223 C207 285 238.333 316 301 316 C325 316 352.333 312 383 304 L410 432 C374 444 342.667 451.333 316 454 C289.333 456.667 271.667 458 263 458 C221.667 458 185.667 451.833 155 439.5 C124.333 427.167 99 410.167 79 388.5 C59 366.833 44.8333 341.5 36.5 312.5 C28.1667 283.5 24 253.667 24 223 C24 182.333 30.3333 146.667 43 116 C55.6667 85.3333 73 60.6667 95 42 C117 23.3333 142.333 9.66667 171 1 C199.667 -7.66667 230.333 -12 263 -12 C285 -12 309.333 -9.66666 336 -5 C362.666 -0.333328 387.333 6 410 14 L383 142 C352.333 134 325 130 301 130 C238.333 130 207 161 207 223 L207 223 Z " />
<glyph glyph-name="Cdotaccent" unicode="&#x10a;" horiz-adv-x="569" d="M354 859 C330.667 859 310.5 850.5 293.5 833.5 C276.5 816.5 268 796.333 268 773 C268 756.336 273 740.669 283 726 C293 711.339 304.667 701.172 318 695.5 C331.333 689.833 343.333 687 354 687 C377.333 687 397.5 695.667 414.5 713 C431.5 730.333 440 750.333 440 773 C440 796.333 431.5 816.5 414.5 833.5 C397.5 850.5 377.333 859 354 859 L354 859 Z M29 322 C29 212 58.6667 128.833 118 72.5 C177.333 16.1667 265 -12 381 -12 C425.667 -12 479 -5.66667 541 7 L510 164 C466.667 156 431 152 403 152 C339.667 152 293.333 166.5 264 195.5 C234.667 224.5 220 270 220 332 C220 392 233.833 436 261.5 464 C289.166 492 333.333 506 394 506 C424.666 506 463.333 502 510 494 L541 651 C475.667 663.667 420 670 374 670 C320 670 271.5 662.5 228.5 647.5 C185.5 632.5 149.167 610.333 119.5 581 C89.8333 551.667 67.3333 515.167 52 471.5 C36.6667 427.833 29 378 29 322 L29 322 Z " />
<glyph glyph-name="cdotaccent" unicode="&#x10b;" horiz-adv-x="421" d="M254 690 C224 690 199.833 680.667 181.5 662 C163.167 643.333 154 619.333 154 590 C154 560.667 163.167 536.667 181.5 518 C199.833 499.333 224 490 254 490 C283.333 490 307.333 499.333 326 518 C344.667 536.667 354 560.667 354 590 C354 619.333 344.667 643.333 326 662 C307.333 680.667 283.333 690 254 690 L254 690 Z M207 223 C207 285 238.333 316 301 316 C325 316 352.333 312 383 304 L410 432 C374 444 342.667 451.333 316 454 C289.333 456.667 271.667 458 263 458 C221.667 458 185.667 451.833 155 439.5 C124.333 427.167 99 410.167 79 388.5 C59 366.833 44.8333 341.5 36.5 312.5 C28.1667 283.5 24 253.667 24 223 C24 182.333 30.3333 146.667 43 116 C55.6667 85.3333 73 60.6667 95 42 C117 23.3333 142.333 9.66667 171 1 C199.667 -7.66667 230.333 -12 263 -12 C285 -12 309.333 -9.66666 336 -5 C362.666 -0.333328 387.333 6 410 14 L383 142 C352.333 134 325 130 301 130 C238.333 130 207 161 207 223 L207 223 Z " />
<glyph glyph-name="Ccaron" unicode="&#x10c;" horiz-adv-x="569" d="M421 697 L491 829 L383 829 L357 776 L334 829 L225 829 L287 697 L421 697 Z M403 152 C339.667 152 293.333 166.5 264 195.5 C234.667 224.5 220 270 220 332 C220 392 233.833 436 261.5 464 C289.166 492 333.333 506 394 506 C424.666 506 463.333 502 510 494 L541 651 C475.667 663.667 420 670 374 670 C320 670 271.5 662.5 228.5 647.5 C185.5 632.5 149.167 610.333 119.5 581 C89.8333 551.667 67.3333 515.167 52 471.5 C36.6667 427.833 29 378 29 322 C29 212 58.6667 128.833 118 72.5 C177.333 16.1667 265 -12 381 -12 C425.667 -12 479 -5.66667 541 7 L510 164 C466.667 156 431 152 403 152 L403 152 Z " />
<glyph glyph-name="ccaron" unicode="&#x10d;" horiz-adv-x="421" d="M324 512 L407 660 L298 660 L260 586 L224 660 L116 660 L191 512 L324 512 Z M301 130 C238.333 130 207 161 207 223 C207 285 238.333 316 301 316 C325 316 352.333 312 383 304 L410 432 C374 444 342.667 451.333 316 454 C289.333 456.667 271.667 458 263 458 C221.667 458 185.667 451.833 155 439.5 C124.333 427.167 99 410.167 79 388.5 C59 366.833 44.8333 341.5 36.5 312.5 C28.1667 283.5 24 253.667 24 223 C24 182.333 30.3333 146.667 43 116 C55.6667 85.3333 73 60.6667 95 42 C117 23.3333 142.333 9.66667 171 1 C199.667 -7.66667 230.333 -12 263 -12 C285 -12 309.333 -9.66666 336 -5 C362.666 -0.333328 387.333 6 410 14 L383 142 C352.333 134 325 130 301 130 L301 130 Z " />
<glyph glyph-name="Dcaron" unicode="&#x10e;" horiz-adv-x="684" d="M387 697 L457 829 L349 829 L323 776 L300 829 L191 829 L253 697 L387 697 Z M307 660 L63 660 L51 0 L322 0 C369.333 0 414.167 7.66667 456.5 23 C498.833 38.3333 534.667 60 564 88 C593.333 116 616.333 150.833 633 192.5 C649.667 234.167 658 283.667 658 341 C658 445.667 628.667 525 570 579 C511.333 633 423.667 660 307 660 L307 660 Z M300 159 L242 159 L248 502 L307 502 C362.333 502 402.833 487.833 428.5 459.5 C454.167 431.167 467 387.334 467 328 C467 268 453.833 224.833 427.5 198.5 C401.167 172.167 358.667 159 300 159 L300 159 Z " />
<glyph glyph-name="dcaron" unicode="&#x10f;" horiz-adv-x="547" d="M327 437 C288.333 449 248 455 206 455 C141.333 455 94.8333 434.667 66.5 394 C38.1667 353.333 24 295.667 24 221 C24 173 30.3333 131.667 43 97 C55.6667 62.3333 74.8333 36.3333 100.5 19 C126.167 1.66667 157.667 -7 195 -7 C253 -7 298 13.3333 330 54 L329 0 L503 0 L513 660 L329 660 L327 437 Z M545 660 L541 483 L642 483 L667 660 L545 660 Z M251 128 C231 128 217.667 136.5 211 153.5 C204.333 170.5 201 192.667 201 220 C201 257.333 205.667 284 215 300 C224.333 316 239.666 324 261 324 C282.333 324 303.333 320.333 324 313 L321 154 C295.667 136.667 272.334 128 251 128 L251 128 Z " />
<glyph glyph-name="Dcroat" unicode="&#x110;" horiz-adv-x="684" d="M307 660 L63 660 L59 413 L8 413 L5 257 L56 257 L51 0 L322 0 C369.333 0 414.167 7.66667 456.5 23 C498.833 38.3333 534.667 60 564 88 C593.333 116 616.333 150.833 633 192.5 C649.667 234.167 658 283.667 658 341 C658 445.667 628.667 525 570 579 C511.333 633 423.667 660 307 660 L307 660 Z M300 159 L242 159 L244 257 L352 257 L355 413 L247 413 L248 502 L307 502 C362.333 502 402.833 487.833 428.5 459.5 C454.167 431.167 467 387.334 467 328 C467 268 453.833 224.833 427.5 198.5 C401.167 172.167 358.667 159 300 159 L300 159 Z " />
<glyph glyph-name="dcroat" unicode="&#x111;" horiz-adv-x="542" d="M558 614 L512 614 L513 660 L329 660 L329 614 L243 614 L240 526 L328 526 L327 437 C288.333 449 248 455 206 455 C141.333 455 94.8333 434.667 66.5 394 C38.1667 353.333 24 295.667 24 221 C24 173 30.3333 131.667 43 97 C55.6667 62.3333 74.8333 36.3333 100.5 19 C126.167 1.66667 157.667 -7 195 -7 C253 -7 298 13.3333 330 54 L329 0 L503 0 L511 525 L556 525 L558 614 Z M251 128 C231 128 217.667 136.5 211 153.5 C204.333 170.5 201 192.667 201 220 C201 257.333 205.667 284 215 300 C224.333 316 239.666 324 261 324 C282.333 324 303.333 320.333 324 313 L321 154 C295.667 136.667 272.334 128 251 128 L251 128 Z " />
<glyph glyph-name="Emacron" unicode="&#x112;" horiz-adv-x="546" d="M441 827 L129 827 L127 704 L438 704 L441 827 Z M241 150 L243 265 L458 265 L460 405 L245 405 L247 520 L495 520 L497 660 L63 660 L51 0 L499 0 L502 150 L241 150 Z " />
<glyph glyph-name="emacron" unicode="&#x113;" horiz-adv-x="528" d="M433 631 L122 631 L120 508 L431 508 L433 631 Z M505 237 C505 309.667 486.167 364.667 448.5 402 C410.833 439.333 356.333 458 285 458 C243 458 205.333 451.833 172 439.5 C138.667 427.167 110.667 409.834 88 387.5 C65.3333 365.167 49 338.167 39 306.5 C29 274.833 24 242 24 208 C24 133.333 45.6667 78.3333 89 43 C132.333 7.66667 200.667 -10 294 -10 C354.667 -10 419 -2.66667 487 12 L467 125 C400.333 113.667 345.333 108 302 108 C270 108 247 112.833 233 122.5 C219 132.167 210.333 150 207 176 L501 176 C503.667 197.333 505 217.667 505 237 L505 237 Z M278 345 C297.333 345 312 339.167 322 327.5 C332 315.833 337.333 296.333 338 269 L207 269 C210.333 294.333 217.666 313.333 229 326 C240.333 338.667 256.667 345 278 345 L278 345 Z " />
<glyph glyph-name="Edotaccent" unicode="&#x116;" horiz-adv-x="546" d="M286 687 C309.333 687 329.5 695.667 346.5 713 C363.5 730.333 372 750.333 372 773 C372 796.333 363.5 816.5 346.5 833.5 C329.5 850.5 309.333 859 286 859 C262.667 859 242.5 850.5 225.5 833.5 C208.5 816.5 200 796.333 200 773 C200 756.336 205 740.669 215 726 C225 711.339 236.667 701.172 250 695.5 C263.333 689.833 275.333 687 286 687 L286 687 Z M241 150 L243 265 L458 265 L460 405 L245 405 L247 520 L495 520 L497 660 L63 660 L51 0 L499 0 L502 150 L241 150 Z " />
<glyph glyph-name="edotaccent" unicode="&#x117;" horiz-adv-x="528" d="M277 490 C306.333 490 330.333 499.333 349 518 C367.667 536.667 377 560.667 377 590 C377 619.333 367.667 643.333 349 662 C330.333 680.667 306.333 690 277 690 C247 690 222.833 680.667 204.5 662 C186.167 643.333 177 619.333 177 590 C177 560.667 186.167 536.667 204.5 518 C222.833 499.333 247 490 277 490 L277 490 Z M505 237 C505 309.667 486.167 364.667 448.5 402 C410.833 439.333 356.333 458 285 458 C243 458 205.333 451.833 172 439.5 C138.667 427.167 110.667 409.834 88 387.5 C65.3333 365.167 49 338.167 39 306.5 C29 274.833 24 242 24 208 C24 133.333 45.6667 78.3333 89 43 C132.333 7.66667 200.667 -10 294 -10 C354.667 -10 419 -2.66667 487 12 L467 125 C400.333 113.667 345.333 108 302 108 C270 108 247 112.833 233 122.5 C219 132.167 210.333 150 207 176 L501 176 C503.667 197.333 505 217.667 505 237 L505 237 Z M278 345 C297.333 345 312 339.167 322 327.5 C332 315.833 337.333 296.333 338 269 L207 269 C210.333 294.333 217.666 313.333 229 326 C240.333 338.667 256.667 345 278 345 L278 345 Z " />
<glyph glyph-name="Eogonek" unicode="&#x118;" horiz-adv-x="546" d="M495 -134 C481.668 -136.667 469.335 -138 458 -138 C447.333 -138 439.667 -135.167 435 -129.5 C430.333 -123.833 428 -118.666 428 -114 C428 -103.333 435 -87.6666 449 -67 C463 -46.3333 479.667 -24 499 0 L502 150 L241 150 L243 265 L458 265 L460 405 L245 405 L247 520 L495 520 L497 660 L63 660 L51 0 L387 0 C359 -36.6667 341 -64.1667 333 -82.5 C325 -100.833 321 -118.333 321 -135 C321 -156.333 326.333 -173.333 337 -186 C347.666 -198.667 361.833 -208 379.5 -214 C397.167 -220 416.667 -223 438 -223 C454 -223 468.5 -222 481.5 -220 C494.5 -218 503 -215.667 507 -213 L495 -134 Z " />
<glyph glyph-name="eogonek" unicode="&#x119;" horiz-adv-x="528" d="M505 237 C505 309.667 486.167 364.667 448.5 402 C410.833 439.333 356.333 458 285 458 C243 458 205.333 451.833 172 439.5 C138.667 427.167 110.667 409.834 88 387.5 C65.3333 365.167 49 338.167 39 306.5 C29 274.833 24 242 24 208 C24 133.333 45.6667 78.3333 89 43 C132.333 7.66667 200.667 -10 294 -10 C314.667 -10 336 -9 358 -7 C332 -39 315.167 -64.3333 307.5 -83 C299.833 -101.667 296 -119 296 -135 C296 -156.333 301.167 -173.333 311.5 -186 C321.833 -198.667 335.833 -208 353.5 -214 C371.167 -220 390.667 -223 412 -223 C423.333 -223 436.5 -222 451.5 -220 C466.5 -218 476.667 -215.667 482 -213 L470 -134 C456.668 -136.667 444.335 -138 433 -138 C421.667 -138 413.667 -135.167 409 -129.5 C404.333 -123.833 402 -118.666 402 -114 C402 -89.3333 430.333 -47.3333 487 12 L467 125 C400.333 113.667 345.333 108 302 108 C270 108 247 112.833 233 122.5 C219 132.167 210.333 150 207 176 L501 176 C503.667 197.333 505 217.667 505 237 L505 237 Z M278 345 C297.333 345 312 339.167 322 327.5 C332 315.833 337.333 296.333 338 269 L207 269 C210.333 294.333 217.666 313.333 229 326 C240.333 338.667 256.667 345 278 345 L278 345 Z " />
<glyph glyph-name="Ecaron" unicode="&#x11a;" horiz-adv-x="546" d="M353 697 L423 829 L315 829 L289 776 L266 829 L157 829 L219 697 L353 697 Z M241 150 L243 265 L458 265 L460 405 L245 405 L247 520 L495 520 L497 660 L63 660 L51 0 L499 0 L502 150 L241 150 Z " />
<glyph glyph-name="ecaron" unicode="&#x11b;" horiz-adv-x="528" d="M347 512 L430 660 L321 660 L282 586 L247 660 L139 660 L214 512 L347 512 Z M505 237 C505 309.667 486.167 364.667 448.5 402 C410.833 439.333 356.333 458 285 458 C243 458 205.333 451.833 172 439.5 C138.667 427.167 110.667 409.834 88 387.5 C65.3333 365.167 49 338.167 39 306.5 C29 274.833 24 242 24 208 C24 133.333 45.6667 78.3333 89 43 C132.333 7.66667 200.667 -10 294 -10 C354.667 -10 419 -2.66667 487 12 L467 125 C400.333 113.667 345.333 108 302 108 C270 108 247 112.833 233 122.5 C219 132.167 210.333 150 207 176 L501 176 C503.667 197.333 505 217.667 505 237 L505 237 Z M278 345 C297.333 345 312 339.167 322 327.5 C332 315.833 337.333 296.333 338 269 L207 269 C210.333 294.333 217.666 313.333 229 326 C240.333 338.667 256.667 345 278 345 L278 345 Z " />
<glyph glyph-name="Gbreve" unicode="&#x11e;" horiz-adv-x="640" d="M369 707 C397 707 423.667 712.333 449 723 C474.333 733.667 494.167 749.5 508.5 770.5 C522.833 791.5 531 814.333 533 839 L413 839 C413 823.667 409.333 811.667 402 803 C394.667 794.333 384.667 790 372 790 C359.333 790 349.333 794.333 342 803 C334.667 811.667 330.667 823.667 330 839 L210 839 C210.667 814.333 217.5 791.5 230.5 770.5 C243.5 749.5 262.667 733.667 288 723 C313.333 712.333 340.333 707 369 707 L369 707 Z M426 322 L422 151 L390 151 C325.333 151 280 163.5 254 188.5 C228 213.5 215 257.333 215 320 C215 363.333 220.667 398.167 232 424.5 C243.333 450.833 262.333 471 289 485 C315.667 499 354.667 506.333 406 507 C447.333 507 502 501.333 570 490 L597 649 C565.667 655.667 530.833 661.167 492.5 665.5 C454.167 669.833 421 672 393 672 C335 672 283 664.167 237 648.5 C191 632.835 152.667 609.668 122 579 C91.3333 548.333 68.1667 510.833 52.5 466.5 C36.8333 422.167 29 372 29 316 C29 205.333 59.1667 123 119.5 69 C179.833 15 271.333 -12 394 -12 C447.333 -12 514 -5.66667 594 7 L599 322 L426 322 Z " />
<glyph glyph-name="gbreve" unicode="&#x11f;" horiz-adv-x="546" d="M278 521 C296 521 316.333 525 339 533 C361.667 541 381 552.5 397 567.5 C413 582.5 424.333 598 431 614 C437.663 630 441.33 645.333 442 660 L311 660 C312.333 641.333 310.167 629 304.5 623 C298.833 617 291 614 281 614 C270.333 614 262.167 618.167 256.5 626.5 C250.833 634.833 248.333 646 249 660 L119 660 C118.333 630 127.5 603.667 146.5 581 C165.5 558.335 187.5 542.669 212.5 534 C237.5 525.333 259.333 521 278 521 L278 521 Z M353 446 L353 406 C311.667 440.667 267 458 219 458 C161 458 114 436.833 78 394.5 C42 352.167 24 296.333 24 227 C24 189 28.8333 155 38.5 125 C48.1667 95 61.5 69.8333 78.5 49.5 C95.5 29.1667 115.833 13.8333 139.5 3.5 C163.167 -6.83333 188.667 -12 216 -12 C234 -12 253.167 -9.66666 273.5 -5 C293.833 -0.333328 311 6 325 14 L324 -35 C324 -44.3333 320.167 -53.5 312.5 -62.5 C304.833 -71.5 291.833 -78.3333 273.5 -83 C255.167 -87.6667 235 -90 213 -90 C173.667 -90 123.333 -84.3333 62 -73 L39 -208 C116.333 -223.333 183 -231 239 -231 C331.667 -231 399 -216.167 441 -186.5 C483 -156.833 504.667 -113.667 506 -57 L514 446 L353 446 Z M274 121 C230.667 121 209 156.333 209 227 C209 263.666 214.333 288.833 225 302.5 C235.667 316.167 252.333 323 275 323 C295 323 313.333 320 330 314 L327 134 C307.667 125.333 290 121 274 121 L274 121 Z " />
<glyph glyph-name="Gdotaccent" unicode="&#x120;" horiz-adv-x="640" d="M372 687 C395.333 687 415.5 695.667 432.5 713 C449.5 730.333 458 750.333 458 773 C458 796.333 449.5 816.5 432.5 833.5 C415.5 850.5 395.333 859 372 859 C348.667 859 328.5 850.5 311.5 833.5 C294.5 816.5 286 796.333 286 773 C286 756.336 291 740.669 301 726 C311 711.339 322.667 701.172 336 695.5 C349.333 689.833 361.333 687 372 687 L372 687 Z M426 322 L422 151 L390 151 C325.333 151 280 163.5 254 188.5 C228 213.5 215 257.333 215 320 C215 363.333 220.667 398.167 232 424.5 C243.333 450.833 262.333 471 289 485 C315.667 499 354.667 506.333 406 507 C447.333 507 502 501.333 570 490 L597 649 C565.667 655.667 530.833 661.167 492.5 665.5 C454.167 669.833 421 672 393 672 C335 672 283 664.167 237 648.5 C191 632.835 152.667 609.668 122 579 C91.3333 548.333 68.1667 510.833 52.5 466.5 C36.8333 422.167 29 372 29 316 C29 205.333 59.1667 123 119.5 69 C179.833 15 271.333 -12 394 -12 C447.333 -12 514 -5.66667 594 7 L599 322 L426 322 Z " />
<glyph glyph-name="gdotaccent" unicode="&#x121;" horiz-adv-x="546" d="M280 490 C309.333 490 333.333 499.333 352 518 C370.667 536.667 380 560.667 380 590 C380 619.333 370.667 643.333 352 662 C333.333 680.667 309.333 690 280 690 C250 690 225.833 680.667 207.5 662 C189.167 643.333 180 619.333 180 590 C180 560.667 189.167 536.667 207.5 518 C225.833 499.333 250 490 280 490 L280 490 Z M353 446 L353 406 C311.667 440.667 267 458 219 458 C161 458 114 436.833 78 394.5 C42 352.167 24 296.333 24 227 C24 189 28.8333 155 38.5 125 C48.1667 95 61.5 69.8333 78.5 49.5 C95.5 29.1667 115.833 13.8333 139.5 3.5 C163.167 -6.83333 188.667 -12 216 -12 C234 -12 253.167 -9.66666 273.5 -5 C293.833 -0.333328 311 6 325 14 L324 -35 C324 -44.3333 320.167 -53.5 312.5 -62.5 C304.833 -71.5 291.833 -78.3333 273.5 -83 C255.167 -87.6667 235 -90 213 -90 C173.667 -90 123.333 -84.3333 62 -73 L39 -208 C116.333 -223.333 183 -231 239 -231 C331.667 -231 399 -216.167 441 -186.5 C483 -156.833 504.667 -113.667 506 -57 L514 446 L353 446 Z M274 121 C230.667 121 209 156.333 209 227 C209 263.666 214.333 288.833 225 302.5 C235.667 316.167 252.333 323 275 323 C295 323 313.333 320 330 314 L327 134 C307.667 125.333 290 121 274 121 L274 121 Z " />
<glyph glyph-name="Gcommaaccent" unicode="&#x122;" horiz-adv-x="640" d="M426 322 L422 151 L390 151 C325.333 151 280 163.5 254 188.5 C228 213.5 215 257.333 215 320 C215 363.333 220.667 398.167 232 424.5 C243.333 450.833 262.333 471 289 485 C315.667 499 354.667 506.333 406 507 C447.333 507 502 501.333 570 490 L597 649 C565.667 655.667 530.833 661.167 492.5 665.5 C454.167 669.833 421 672 393 672 C335 672 283 664.167 237 648.5 C191 632.835 152.667 609.668 122 579 C91.3333 548.333 68.1667 510.833 52.5 466.5 C36.8333 422.167 29 372 29 316 C29 205.333 59.1667 123 119.5 69 C179.833 15 271.333 -12 394 -12 C447.333 -12 514 -5.66667 594 7 L599 322 L426 322 Z M310 -58 L325 -158 L304 -229 L382 -229 L413 -177 C425 -157.667 432.667 -138.667 436 -120 C439.333 -101.333 436.833 -86.3333 428.5 -75 C420.167 -63.6667 410 -56 398 -52 C386 -48 372.167 -46.5 356.5 -47.5 C340.833 -48.5 325.333 -52 310 -58 L310 -58 Z " />
<glyph glyph-name="gcommaaccent" unicode="&#x123;" horiz-adv-x="546" d="M338 504 L323 604 L344 675 L266 675 L235 623 C223 603.667 215.333 584.667 212 566 C208.667 547.333 211.167 532.333 219.5 521 C227.833 509.667 238 502 250 498 C262 494 275.833 492.5 291.5 493.5 C307.167 494.5 322.667 498 338 504 L338 504 Z M353 446 L353 406 C311.667 440.667 267 458 219 458 C161 458 114 436.833 78 394.5 C42 352.167 24 296.333 24 227 C24 189 28.8333 155 38.5 125 C48.1667 95 61.5 69.8333 78.5 49.5 C95.5 29.1667 115.833 13.8333 139.5 3.5 C163.167 -6.83333 188.667 -12 216 -12 C234 -12 253.167 -9.66666 273.5 -5 C293.833 -0.333328 311 6 325 14 L324 -35 C324 -44.3333 320.167 -53.5 312.5 -62.5 C304.833 -71.5 291.833 -78.3333 273.5 -83 C255.167 -87.6667 235 -90 213 -90 C173.667 -90 123.333 -84.3333 62 -73 L39 -208 C116.333 -223.333 183 -231 239 -231 C331.667 -231 399 -216.167 441 -186.5 C483 -156.833 504.667 -113.667 506 -57 L514 446 L353 446 Z M274 121 C230.667 121 209 156.333 209 227 C209 263.666 214.333 288.833 225 302.5 C235.667 316.167 252.333 323 275 323 C295 323 313.333 320 330 314 L327 134 C307.667 125.333 290 121 274 121 L274 121 Z " />
<glyph glyph-name="Hbar" unicode="&#x126;" horiz-adv-x="720" d="M714 598 L673 598 L674 660 L479 660 L478 598 L255 598 L256 660 L63 660 L62 598 L23 598 L21 498 L61 498 L53 0 L246 0 L250 246 L472 246 L468 0 L664 0 L672 498 L712 498 L714 598 Z M475 412 L252 412 L254 498 L476 498 L475 412 Z " />
<glyph glyph-name="hbar" unicode="&#x127;" horiz-adv-x="538" d="M357 458 C302.333 458 258 443 224 413 L226 525 L370 525 L372 615 L227 615 L228 660 L48 660 L47 615 L9 615 L7 525 L46 525 L36 0 L217 0 L222 311 C236.667 315.667 251.333 318 266 318 C284.666 318 298.332 312.167 307 300.5 C315.667 288.833 319.667 268.667 319 240 L315 0 L498 0 L504 309 C505.333 408.333 456.333 458 357 458 L357 458 Z " />
<glyph glyph-name="Imacron" unicode="&#x12a;" horiz-adv-x="302" d="M317 827 L5 827 L3 704 L314 704 L317 827 Z M257 660 L63 660 L52 0 L246 0 L257 660 Z " />
<glyph glyph-name="imacron" unicode="&#x12b;" horiz-adv-x="259" d="M291 631 L-20 631 L-22 508 L289 508 L291 631 Z M227 446 L44 446 L36 0 L219 0 L227 446 Z " />
<glyph glyph-name="Iogonek" unicode="&#x12e;" horiz-adv-x="302" d="M208 -136 C197.334 -136 189.667 -133.333 185 -128 C180.333 -122.667 178 -117.333 178 -112 C178 -102 184.667 -87 198 -67 C211.333 -47 227 -24.6667 245 0 L246 0 L257 660 L63 660 L52 0 L136 0 C108 -37.3333 90.1667 -65 82.5 -83 C74.8333 -101 71 -118 71 -134 C71 -155.333 76.3333 -172.333 87 -185 C97.6667 -197.667 111.667 -206.834 129 -212.5 C146.333 -218.167 166 -221 188 -221 C204.667 -221 219.333 -220.167 232 -218.5 C244.667 -216.833 253 -214.667 257 -212 L245 -133 C230.333 -135 218 -136 208 -136 L208 -136 Z " />
<glyph glyph-name="iogonek" unicode="&#x12f;" horiz-adv-x="259" d="M135 490 C164.333 490 188.333 499.333 207 518 C225.667 536.667 235 560.667 235 590 C235 619.333 225.667 643.333 207 662 C188.333 680.667 164.333 690 135 690 C105 690 80.8333 680.667 62.5 662 C44.1667 643.333 35 619.333 35 590 C35 560.667 44.1667 536.667 62.5 518 C80.8333 499.333 105 490 135 490 L135 490 Z M219 0 L227 446 L44 446 L36 0 L105 0 C77 -36.6667 59.1667 -64.1667 51.5 -82.5 C43.8333 -100.833 40 -118.333 40 -135 C40 -156.333 45.3333 -173.333 56 -186 C66.6666 -198.667 80.8333 -208 98.5 -214 C116.167 -220 135.667 -223 157 -223 C173 -223 187.5 -222 200.5 -220 C213.5 -218 222 -215.667 226 -213 L214 -134 C200.667 -136.667 188.333 -138 177 -138 C166.334 -138 158.667 -135.167 154 -129.5 C149.333 -123.833 147 -118.666 147 -114 C147 -103.333 154 -87.6666 168 -67 C182 -46.3333 198.667 -24 218 0 L219 0 Z " />
<glyph glyph-name="Idotaccent" unicode="&#x130;" horiz-adv-x="302" d="M162 859 C138.667 859 118.5 850.5 101.5 833.5 C84.5 816.5 76 796.333 76 773 C76 756.336 81 740.669 91 726 C101 711.339 112.667 701.172 126 695.5 C139.333 689.833 151.333 687 162 687 C185.333 687 205.5 695.667 222.5 713 C239.5 730.333 248 750.333 248 773 C248 796.333 239.5 816.5 222.5 833.5 C205.5 850.5 185.333 859 162 859 L162 859 Z M257 660 L63 660 L52 0 L246 0 L257 660 Z " />
<glyph glyph-name="dotlessi" unicode="&#x131;" horiz-adv-x="259" d="M227 446 L44 446 L36 0 L219 0 L227 446 Z " />
<glyph glyph-name="IJ" unicode="&#x132;" horiz-adv-x="614" d="M257 660 L63 660 L52 0 L246 0 L257 660 Z M570 660 L375 660 L364 35 C363.333 11.6667 356.833 -11.1667 344.5 -33.5 C332.167 -55.8333 311.667 -82 283 -112 L420 -244 C466 -203.333 500.333 -158.833 523 -110.5 C545.667 -62.1667 557.667 -6.66667 559 56 L570 660 Z " />
<glyph glyph-name="ij" unicode="&#x133;" horiz-adv-x="514" d="M135 690 C105 690 80.8333 680.667 62.5 662 C44.1667 643.333 35 619.333 35 590 C35 560.667 44.1667 536.667 62.5 518 C80.8333 499.333 105 490 135 490 C164.333 490 188.333 499.333 207 518 C225.667 536.667 235 560.667 235 590 C235 619.333 225.667 643.333 207 662 C188.333 680.667 164.333 690 135 690 L135 690 Z M392 690 C362 690 337.833 680.667 319.5 662 C301.167 643.333 292 619.333 292 590 C292 560.667 301.167 536.667 319.5 518 C337.833 499.333 362 490 392 490 C421.333 490 445.333 499.333 464 518 C482.667 536.667 492 560.667 492 590 C492 619.333 482.667 643.333 464 662 C445.333 680.667 421.333 690 392 690 L392 690 Z M227 446 L44 446 L36 0 L219 0 L227 446 Z M482 446 L302 446 L295 22 C295 6.66667 293.833 -7.83333 291.5 -21.5 C289.167 -35.1667 283.167 -49.1667 273.5 -63.5 C263.833 -77.8333 248 -96.3333 226 -119 L337 -243 C381.667 -205 415.667 -165.833 439 -125.5 C462.333 -85.1667 474.333 -37 475 19 L482 446 Z " />
<glyph glyph-name="Kcommaaccent" unicode="&#x136;" horiz-adv-x="680" d="M63 660 L53 0 L248 0 L259 660 L63 660 Z M458 347 L640 660 L430 660 L257 339 L447 0 L674 0 L458 347 Z M260 -58 L275 -158 L254 -229 L332 -229 L363 -177 C375 -157.667 382.667 -138.667 386 -120 C389.333 -101.333 386.833 -86.3333 378.5 -75 C370.167 -63.6667 360 -56 348 -52 C336 -48 322.167 -46.5 306.5 -47.5 C290.833 -48.5 275.333 -52 260 -58 L260 -58 Z " />
<glyph glyph-name="kcommaaccent" unicode="&#x137;" horiz-adv-x="528" d="M232 660 L48 660 L36 0 L220 0 L232 660 Z M537 0 L405 237 L523 446 L329 446 L234 236 L335 0 L537 0 Z M210 -58 L225 -158 L204 -229 L282 -229 L313 -177 C325 -157.667 332.667 -138.667 336 -120 C339.333 -101.333 336.833 -86.3333 328.5 -75 C320.167 -63.6667 310 -56 298 -52 C286 -48 272.167 -46.5 256.5 -47.5 C240.833 -48.5 225.333 -52 210 -58 L210 -58 Z " />
<glyph glyph-name="Lacute" unicode="&#x139;" horiz-adv-x="544" d="M284 830 L134 830 L106 698 L235 698 L284 830 Z M257 660 L63 660 L51 0 L508 0 L512 169 L249 169 L257 660 Z " />
<glyph glyph-name="lacute" unicode="&#x13a;" horiz-adv-x="265" d="M270 874 L127 874 L95 735 L216 735 L270 874 Z M233 660 L48 660 L37 0 L222 0 L233 660 Z " />
<glyph glyph-name="Lcommaaccent" unicode="&#x13b;" horiz-adv-x="544" d="M257 660 L63 660 L51 0 L508 0 L512 169 L249 169 L257 660 Z M222 -58 L237 -158 L216 -229 L294 -229 L325 -177 C337 -157.667 344.667 -138.667 348 -120 C351.333 -101.333 348.833 -86.3333 340.5 -75 C332.167 -63.6667 322 -56 310 -52 C298 -48 284.167 -46.5 268.5 -47.5 C252.833 -48.5 237.333 -52 222 -58 L222 -58 Z " />
<glyph glyph-name="lcommaaccent" unicode="&#x13c;" horiz-adv-x="265" d="M233 660 L48 660 L37 0 L222 0 L233 660 Z M71 -58 L86 -158 L65 -229 L143 -229 L174 -177 C186 -157.667 193.667 -138.667 197 -120 C200.333 -101.333 197.833 -86.3333 189.5 -75 C181.167 -63.6667 171 -56 159 -52 C147 -48 133.167 -46.5 117.5 -47.5 C101.833 -48.5 86.3333 -52 71 -58 L71 -58 Z " />
<glyph glyph-name="Lcaron" unicode="&#x13d;" horiz-adv-x="544" d="M257 660 L63 660 L51 0 L508 0 L512 169 L249 169 L257 660 Z M429 660 L310 660 L306 473 L413 473 L429 660 Z " />
<glyph glyph-name="lcaron" unicode="&#x13e;" horiz-adv-x="265" d="M233 660 L48 660 L37 0 L222 0 L233 660 Z M388 660 L266 660 L262 483 L363 483 L388 660 Z " />
<glyph glyph-name="Ldot" unicode="&#x13f;" horiz-adv-x="544" d="M257 660 L63 660 L51 0 L508 0 L512 169 L249 169 L257 660 Z M426 281 C447.333 281 466.833 286.833 484.5 298.5 C502.167 310.166 514.5 324.333 521.5 341 C528.5 357.667 532 373 532 387 C532 417.667 521.833 443.5 501.5 464.5 C481.167 485.5 456 496 426 496 C404 496 384.167 490 366.5 478 C348.833 466 336.5 451.333 329.5 434 C322.5 416.667 319 401 319 387 C319 365.667 325 346 337 328 C349 310 363.333 297.667 380 291 C396.667 284.333 412 281 426 281 L426 281 Z " />
<glyph glyph-name="ldot" unicode="&#x140;" horiz-adv-x="459" d="M233 660 L48 660 L37 0 L222 0 L233 660 Z M360 229 C381.333 229 400.833 234.833 418.5 246.5 C436.167 258.166 448.5 272.333 455.5 289 C462.5 305.667 466 321 466 335 C466 365.667 455.833 391.5 435.5 412.5 C415.167 433.5 390 444 360 444 C338 444 318.167 438 300.5 426 C282.833 414 270.5 399.333 263.5 382 C256.5 364.667 253 349 253 335 C253 313.667 259 294 271 276 C283 258 297.333 245.667 314 239 C330.667 232.333 346 229 360 229 L360 229 Z " />
<glyph glyph-name="Lslash" unicode="&#x141;" horiz-adv-x="636" d="M326 170 L329 307 L464 361 L467 496 L332 443 L336 660 L140 660 L134 365 L3 314 L0 177 L132 229 L127 0 L601 0 L604 170 L326 170 Z " />
<glyph glyph-name="lslash" unicode="&#x142;" horiz-adv-x="328" d="M342 461 L263 432 L267 660 L82 660 L77 364 L2 337 L-1 205 L74 233 L71 0 L256 0 L261 303 L339 332 L342 461 Z " />
<glyph glyph-name="Nacute" unicode="&#x143;" horiz-adv-x="739" d="M490 830 L340 830 L312 698 L441 698 L490 830 Z M515 660 L515 137 L358 660 L63 660 L53 0 L229 0 L230 499 L381 0 L683 0 L694 660 L515 660 Z " />
<glyph glyph-name="nacute" unicode="&#x144;" horiz-adv-x="537" d="M394 660 L251 660 L219 521 L340 521 L394 660 Z M357 458 C329 458 302.167 453.333 276.5 444 C250.833 434.667 229.667 420.667 213 402 L212 446 L44 446 L36 0 L217 0 L222 311 C236 315.667 250.667 318 266 318 C289.333 318 304.167 310.5 310.5 295.5 C316.833 280.5 320 262 320 240 L316 0 L497 0 L503 309 C503 408.333 454.333 458 357 458 L357 458 Z " />
<glyph glyph-name="Ncommaaccent" unicode="&#x145;" horiz-adv-x="739" d="M515 660 L515 137 L358 660 L63 660 L53 0 L229 0 L230 499 L381 0 L683 0 L694 660 L515 660 Z M313 -58 L328 -158 L307 -229 L385 -229 L416 -177 C428 -157.667 435.667 -138.667 439 -120 C442.333 -101.333 439.833 -86.3333 431.5 -75 C423.167 -63.6667 413 -56 401 -52 C389 -48 375.167 -46.5 359.5 -47.5 C343.833 -48.5 328.333 -52 313 -58 L313 -58 Z " />
<glyph glyph-name="ncommaaccent" unicode="&#x146;" horiz-adv-x="537" d="M357 458 C329 458 302.167 453.333 276.5 444 C250.833 434.667 229.667 420.667 213 402 L212 446 L44 446 L36 0 L217 0 L222 311 C236 315.667 250.667 318 266 318 C289.333 318 304.167 310.5 310.5 295.5 C316.833 280.5 320 262 320 240 L316 0 L497 0 L503 309 C503 408.333 454.333 458 357 458 L357 458 Z M208 -58 L223 -158 L202 -229 L280 -229 L311 -177 C323 -157.667 330.667 -138.667 334 -120 C337.333 -101.333 334.833 -86.3333 326.5 -75 C318.167 -63.6667 308 -56 296 -52 C284 -48 270.167 -46.5 254.5 -47.5 C238.833 -48.5 223.333 -52 208 -58 L208 -58 Z " />
<glyph glyph-name="Ncaron" unicode="&#x147;" horiz-adv-x="739" d="M439 697 L509 829 L401 829 L375 776 L352 829 L243 829 L305 697 L439 697 Z M515 660 L515 137 L358 660 L63 660 L53 0 L229 0 L230 499 L381 0 L683 0 L694 660 L515 660 Z " />
<glyph glyph-name="ncaron" unicode="&#x148;" horiz-adv-x="537" d="M340 512 L423 660 L314 660 L275 586 L240 660 L132 660 L207 512 L340 512 Z M357 458 C329 458 302.167 453.333 276.5 444 C250.833 434.667 229.667 420.667 213 402 L212 446 L44 446 L36 0 L217 0 L222 311 C236 315.667 250.667 318 266 318 C289.333 318 304.167 310.5 310.5 295.5 C316.833 280.5 320 262 320 240 L316 0 L497 0 L503 309 C503 408.333 454.333 458 357 458 L357 458 Z " />
<glyph glyph-name="Eng" unicode="&#x14a;" horiz-adv-x="739" d="M515 660 L515 137 L358 660 L63 660 L53 0 L229 0 L230 499 L381 0 L483 0 C475 -31.3333 449.667 -68.6667 407 -112 L544 -244 C575.332 -219.333 602.166 -191.333 624.5 -160 C646.833 -128.667 662 -99.1666 670 -71.5 C678 -43.8333 682.333 -20 683 0 L694 660 L515 660 Z " />
<glyph glyph-name="eng" unicode="&#x14b;" horiz-adv-x="539" d="M358 458 C329.333 458 302.167 453.333 276.5 444 C250.833 434.667 229.667 420.667 213 402 L212 446 L44 446 L36 0 L217 0 L222 311 C236 315.667 250.667 318 266 318 C285.333 318 300 312.167 310 300.5 C320 288.833 324.667 268.667 324 240 L320 22 C320 16 319.5 6.16667 318.5 -7.5 C317.5 -21.1667 312.833 -36 304.5 -52 C296.167 -68 276.333 -90.6667 245 -120 L362 -243 C406.667 -205 440.667 -165.833 464 -125.5 C487.333 -85.1667 499.333 -37 500 19 L505 309 C505.669 357 493.835 393.833 469.5 419.5 C445.167 445.167 408 458 358 458 L358 458 Z " />
<glyph glyph-name="Omacron" unicode="&#x14c;" horiz-adv-x="733" d="M526 827 L214 827 L212 704 L523 704 L526 827 Z M369 672 C320.333 672 275.167 664.667 233.5 650 C191.833 635.335 155.667 613.668 125 585 C94.3333 556.334 70.6667 520.168 54 476.5 C37.3333 432.833 29 383.667 29 329 C29 277.667 36.3333 230.833 51 188.5 C65.6666 146.167 87.3333 110.167 116 80.5 C144.667 50.8333 180 28 222 12 C264 -4 311 -12 363 -12 C415 -12 462.5 -4.16667 505.5 11.5 C548.5 27.1667 584.833 50.1667 614.5 80.5 C644.167 110.833 667 147.833 683 191.5 C699 235.167 707 284 707 338 C707 390 698.833 437.167 682.5 479.5 C666.167 521.832 643 557.166 613 585.5 C583 613.833 547.167 635.333 505.5 650 C463.833 664.667 418.333 672 369 672 L369 672 Z M367 509 C415 509 450.667 494.667 474 466 C497.333 437.333 509 392.333 509 331 C509 269 497.167 223.5 473.5 194.5 C449.833 165.5 413.667 151 365 151 C315.667 151 279.167 165.667 255.5 195 C231.833 224.333 220 269 220 329 C220 391.666 232.333 437.333 257 466 C281.666 494.667 318.333 509 367 509 L367 509 Z " />
<glyph glyph-name="omacron" unicode="&#x14d;" horiz-adv-x="566" d="M440 631 L129 631 L127 508 L438 508 L440 631 Z M287 458 C203.667 458 139 436.5 93 393.5 C47 350.5 24 290.667 24 214 C24 140.667 45.6667 84.6667 89 46 C132.333 7.33333 194 -12 274 -12 C358.667 -12 424.667 8.83333 472 50.5 C519.333 92.1667 543 150.667 543 226 C543 299.333 520.5 356.333 475.5 397 C430.5 437.667 367.667 458 287 458 L287 458 Z M283 317 C308.333 317 326.667 309.667 338 295 C349.333 280.333 355 257.333 355 226 C355 193.333 349 169 337 153 C325 137 306.333 129 281 129 C255.667 129 237.167 136.667 225.5 152 C213.833 167.333 208 191 208 223 C208 255.667 214 279.5 226 294.5 C238 309.5 257 317 283 317 L283 317 Z " />
<glyph glyph-name="Ohungarumlaut" unicode="&#x150;" horiz-adv-x="733" d="M392 839 L248 839 L220 707 L342 707 L392 839 Z M587 839 L444 839 L406 707 L528 707 L587 839 Z M369 672 C320.333 672 275.167 664.667 233.5 650 C191.833 635.335 155.667 613.668 125 585 C94.3333 556.334 70.6667 520.168 54 476.5 C37.3333 432.833 29 383.667 29 329 C29 277.667 36.3333 230.833 51 188.5 C65.6666 146.167 87.3333 110.167 116 80.5 C144.667 50.8333 180 28 222 12 C264 -4 311 -12 363 -12 C415 -12 462.5 -4.16667 505.5 11.5 C548.5 27.1667 584.833 50.1667 614.5 80.5 C644.167 110.833 667 147.833 683 191.5 C699 235.167 707 284 707 338 C707 390 698.833 437.167 682.5 479.5 C666.167 521.832 643 557.166 613 585.5 C583 613.833 547.167 635.333 505.5 650 C463.833 664.667 418.333 672 369 672 L369 672 Z M367 509 C415 509 450.667 494.667 474 466 C497.333 437.333 509 392.333 509 331 C509 269 497.167 223.5 473.5 194.5 C449.833 165.5 413.667 151 365 151 C315.667 151 279.167 165.667 255.5 195 C231.833 224.333 220 269 220 329 C220 391.666 232.333 437.333 257 466 C281.666 494.667 318.333 509 367 509 L367 509 Z " />
<glyph glyph-name="ohungarumlaut" unicode="&#x151;" horiz-adv-x="566" d="M310 660 L163 660 L141 521 L266 521 L310 660 Z M491 660 L345 660 L303 521 L428 521 L491 660 Z M287 458 C203.667 458 139 436.5 93 393.5 C47 350.5 24 290.667 24 214 C24 140.667 45.6667 84.6667 89 46 C132.333 7.33333 194 -12 274 -12 C358.667 -12 424.667 8.83333 472 50.5 C519.333 92.1667 543 150.667 543 226 C543 299.333 520.5 356.333 475.5 397 C430.5 437.667 367.667 458 287 458 L287 458 Z M283 317 C308.333 317 326.667 309.667 338 295 C349.333 280.333 355 257.333 355 226 C355 193.333 349 169 337 153 C325 137 306.333 129 281 129 C255.667 129 237.167 136.667 225.5 152 C213.833 167.333 208 191 208 223 C208 255.667 214 279.5 226 294.5 C238 309.5 257 317 283 317 L283 317 Z " />
<glyph glyph-name="OE" unicode="&#x152;" horiz-adv-x="951" d="M907 150 L646 150 L648 265 L863 265 L865 405 L650 405 L652 520 L900 520 L902 660 L496 660 C481.333 664 461.833 667 437.5 669 C413.167 671 391.667 672 373 672 C323.667 672 277.834 664.833 235.5 650.5 C193.167 636.167 156.667 614.667 126 586 C95.3333 557.334 71.5 521.168 54.5 477.5 C37.5 433.833 29 384.333 29 329 C29 277.667 36.3333 231 51 189 C65.6667 147 87.1667 111 115.5 81 C143.833 51 179.333 28 222 12 C264.667 -4 312.667 -12 366 -12 C413.333 -12 453.333 -8 486 0 L904 0 L907 150 Z M221 332 C221 373.333 226.333 406.5 237 431.5 C247.667 456.5 264.333 475.333 287 488 C309.666 500.667 341.333 507 382 507 C408 507 436 504.333 466 499 L459 160 C430.333 155.333 401.333 153 372 153 C318.667 153 280.167 167.167 256.5 195.5 C232.833 223.833 221 269.333 221 332 L221 332 Z " />
<glyph glyph-name="oe" unicode="&#x153;" horiz-adv-x="869" d="M846 237 C846 309.667 827.167 364.667 789.5 402 C751.833 439.333 697.333 458 626 458 C592.667 458 560.333 453.5 529 444.5 C497.667 435.5 470.334 422 447 404 C407 440 353.667 458 287 458 C203.667 458 139 436.5 93 393.5 C47 350.5 24 290.667 24 214 C24 140.667 45.6667 84.6667 89 46 C132.333 7.33333 194 -12 274 -12 C341.333 -12 395.333 4.66667 436 38 C478.667 6 545 -10 635 -10 C695.667 -10 760 -2.66667 828 12 L808 125 C741.333 113.667 686.333 108 643 108 C611 108 588 112.833 574 122.5 C560 132.167 551.333 150 548 176 L842 176 C844.667 197.333 846 217.667 846 237 L846 237 Z M619 345 C638.333 345 653 339.167 663 327.5 C673 315.833 678.333 296.333 679 269 L548 269 C551.329 294.333 558.662 313.333 570 326 C581.331 338.667 597.664 345 619 345 L619 345 Z M281 129 C255.667 129 237.167 136.667 225.5 152 C213.833 167.333 208 191 208 223 C208 255.667 214 279.5 226 294.5 C238 309.5 257 317 283 317 C308.333 317 326.667 309.667 338 295 C349.333 280.333 355 257.333 355 226 C355 193.333 349 169 337 153 C325 137 306.333 129 281 129 L281 129 Z " />
<glyph glyph-name="Racute" unicode="&#x154;" horiz-adv-x="593" d="M395 830 L245 830 L217 698 L346 698 L395 830 Z M587 0 L465 265 C519.667 303 547 362.667 547 444 C547 588 459.333 660 284 660 L63 660 L51 0 L232 0 L236 217 L262 217 L307 219 L389 0 L587 0 Z M239 365 L241 512 L273 512 C305 512 328.167 506.167 342.5 494.5 C356.833 482.833 364 464 364 438 C364 412.667 357.333 394.167 344 382.5 C330.667 370.833 310.333 365 283 365 L239 365 Z " />
<glyph glyph-name="racute" unicode="&#x155;" horiz-adv-x="371" d="M326 660 L183 660 L151 521 L272 521 L326 660 Z M324 455 C282 455 245 437.333 213 402 L214 446 L44 446 L36 0 L217 0 L219 273 C231.667 284.333 247.833 292.167 267.5 296.5 C287.166 300.833 314.333 303 349 303 L365 303 L368 449 C355.333 453 340.667 455 324 455 L324 455 Z " />
<glyph glyph-name="Rcommaaccent" unicode="&#x156;" horiz-adv-x="593" d="M465 265 C519.667 303 547 362.667 547 444 C547 588 459.333 660 284 660 L63 660 L51 0 L232 0 L236 217 L262 217 L307 219 L389 0 L587 0 L465 265 Z M239 365 L241 512 L273 512 C305 512 328.167 506.167 342.5 494.5 C356.833 482.833 364 464 364 438 C364 412.667 357.333 394.167 344 382.5 C330.667 370.833 310.333 365 283 365 L239 365 Z M254 -58 L269 -158 L248 -229 L326 -229 L357 -177 C369 -157.667 376.667 -138.667 380 -120 C383.333 -101.333 380.833 -86.3333 372.5 -75 C364.167 -63.6667 354 -56 342 -52 C330 -48 316.167 -46.5 300.5 -47.5 C284.833 -48.5 269.333 -52 254 -58 L254 -58 Z " />
<glyph glyph-name="rcommaaccent" unicode="&#x157;" horiz-adv-x="371" d="M324 455 C282 455 245 437.333 213 402 L214 446 L44 446 L36 0 L217 0 L219 273 C231.667 284.333 247.833 292.167 267.5 296.5 C287.166 300.833 314.333 303 349 303 L365 303 L368 449 C355.333 453 340.667 455 324 455 L324 455 Z M65 -58 L80 -158 L59 -229 L137 -229 L168 -177 C180 -157.667 187.667 -138.667 191 -120 C194.333 -101.333 191.833 -86.3333 183.5 -75 C175.167 -63.6667 165 -56 153 -52 C141 -48 127.167 -46.5 111.5 -47.5 C95.8333 -48.5 80.3333 -52 65 -58 L65 -58 Z " />
<glyph glyph-name="Rcaron" unicode="&#x158;" horiz-adv-x="593" d="M344 697 L414 829 L306 829 L280 776 L257 829 L148 829 L210 697 L344 697 Z M587 0 L465 265 C519.667 303 547 362.667 547 444 C547 588 459.333 660 284 660 L63 660 L51 0 L232 0 L236 217 L262 217 L307 219 L389 0 L587 0 Z M239 365 L241 512 L273 512 C305 512 328.167 506.167 342.5 494.5 C356.833 482.833 364 464 364 438 C364 412.667 357.333 394.167 344 382.5 C330.667 370.833 310.333 365 283 365 L239 365 Z " />
<glyph glyph-name="rcaron" unicode="&#x159;" horiz-adv-x="371" d="M272 512 L355 660 L246 660 L207 586 L172 660 L64 660 L139 512 L272 512 Z M324 455 C282 455 245 437.333 213 402 L214 446 L44 446 L36 0 L217 0 L219 273 C231.667 284.333 247.833 292.167 267.5 296.5 C287.166 300.833 314.333 303 349 303 L365 303 L368 449 C355.333 453 340.667 455 324 455 L324 455 Z " />
<glyph glyph-name="Sacute" unicode="&#x15a;" horiz-adv-x="464" d="M374 830 L224 830 L196 698 L325 698 L374 830 Z M275 672 C235 672 199 666.833 167 656.5 C135 646.167 108.333 631.667 87 613 C65.6667 594.336 49.6667 572.169 39 546.5 C28.3333 520.834 23 493.001 23 463 C23 445.668 24.8333 429.334 28.5 414 C32.1667 398.667 37.6667 383.834 45 369.5 C52.3333 355.167 63.6666 340 79 324 C94.3333 308 119.833 289.833 155.5 269.5 C191.167 249.167 213.333 235.667 222 229 C230.667 222.333 237 215.5 241 208.5 C245 201.5 247 194.333 247 187 C247 163 221.667 151 171 151 C138.333 151 98.3333 155.333 51 164 L19 11 C45 3.66667 73.5 -2 104.5 -6 C135.5 -10 163.667 -12 189 -12 C270.333 -12 333.333 6.5 378 43.5 C422.667 80.5 445 130.333 445 193 C445 215.667 442.333 235.5 437 252.5 C431.668 269.5 425.335 283.667 418 295 C410.667 306.333 402.5 316.667 393.5 326 C384.5 335.333 373.667 344.833 361 354.5 C348.333 364.165 325.5 378.332 292.5 397 C259.5 415.666 239.167 430.333 231.5 441 C223.833 451.667 220 461.667 220 471 C220 484.333 226.167 494.167 238.5 500.5 C250.833 506.833 271 510 299 510 C326.333 510 358.333 505 395 495 L429 649 C409 655.667 384.667 661.167 356 665.5 C327.333 669.833 300.333 672 275 672 L275 672 Z " />
<glyph glyph-name="sacute" unicode="&#x15b;" horiz-adv-x="393" d="M325 660 L182 660 L150 521 L271 521 L325 660 Z M360 437 C330.667 446.333 303 452.167 277 454.5 C251 456.833 233.333 458 224 458 C182.667 458 147.667 452 119 440 C90.3333 428 68.1667 410.5 52.5 387.5 C36.8333 364.5 29 335.333 29 300 C29 280.667 31.5 263.667 36.5 249 C41.5 234.333 47.6667 223 55 215 C62.3333 207 69.8333 200.667 77.5 196 C85.1667 191.333 94.1667 187 104.5 183 C114.833 179 132 174.667 156 170 C180 165.333 194.833 160.833 200.5 156.5 C206.167 152.167 209 147 209 141 C209 122.333 189.667 113 151 113 C128.333 113 95.3333 117.333 52 126 L27 10 C77 -4.66667 124.333 -12 169 -12 C212.333 -12 249 -5.83333 279 6.5 C309 18.8333 332.167 36.5 348.5 59.5 C364.833 82.5 373 111.333 373 146 C373 169.333 369.333 188.166 362 202.5 C354.668 216.833 346.835 227.666 338.5 235 C330.168 242.332 321.835 248.166 313.5 252.5 C305.167 256.833 296.167 260.5 286.5 263.5 C276.833 266.5 261.167 270.5 239.5 275.5 C217.834 280.5 203.167 285.5 195.5 290.5 C187.833 295.5 184 302 184 310 C184 328 202.667 337 240 337 C268.666 337 300.333 332.667 335 324 L360 437 Z " />
<glyph glyph-name="Scedilla" unicode="&#x15e;" horiz-adv-x="464" d="M445 193 C445 215.667 442.333 235.5 437 252.5 C431.668 269.5 425.335 283.667 418 295 C410.667 306.333 402.5 316.667 393.5 326 C384.5 335.333 373.667 344.833 361 354.5 C348.333 364.165 325.5 378.332 292.5 397 C259.5 415.666 239.167 430.333 231.5 441 C223.833 451.667 220 461.667 220 471 C220 484.333 226.167 494.167 238.5 500.5 C250.833 506.833 271 510 299 510 C326.333 510 358.333 505 395 495 L429 649 C409 655.667 384.667 661.167 356 665.5 C327.333 669.833 300.333 672 275 672 C235 672 199 666.833 167 656.5 C135 646.167 108.333 631.667 87 613 C65.6667 594.336 49.6667 572.169 39 546.5 C28.3333 520.834 23 493.001 23 463 C23 445.668 24.8333 429.334 28.5 414 C32.1667 398.667 37.6667 383.834 45 369.5 C52.3333 355.167 63.6666 340 79 324 C94.3333 308 119.833 289.833 155.5 269.5 C191.167 249.167 213.333 235.667 222 229 C230.667 222.333 237 215.5 241 208.5 C245 201.5 247 194.333 247 187 C247 163 221.667 151 171 151 C138.333 151 98.3333 155.333 51 164 L19 11 C58.3333 -0.333328 101 -7.66667 147 -11 L147 -45 C147 -47.6667 147.5 -51.3334 148.5 -56 C149.5 -60.6667 152.167 -65.5 156.5 -70.5 C160.833 -75.5 169 -80.8333 181 -86.5 C193 -92.1667 200.667 -96.5 204 -99.5 C207.333 -102.5 209 -106.333 209 -111 C209 -119 203.667 -125 193 -129 C182.333 -133 169.333 -135 154 -135 L138 -135 L135 -215 C143.667 -217.667 160 -219 184 -219 C276 -219 322 -187.333 322 -124 C322 -112 320.333 -101.5 317 -92.5 C313.667 -83.5 309.167 -75.6667 303.5 -69 C297.833 -62.3333 288.5 -55.3333 275.5 -48 C262.5 -40.6666 253.5 -34.3333 248.5 -29 C243.5 -23.6667 240.333 -17 239 -9 C305 -1.66667 355.833 19.8333 391.5 55.5 C427.167 91.1667 445 137 445 193 L445 193 Z " />
<glyph glyph-name="scedilla" unicode="&#x15f;" horiz-adv-x="393" d="M373 146 C373 169.333 369.333 188.166 362 202.5 C354.668 216.833 346.835 227.666 338.5 235 C330.168 242.332 321.835 248.166 313.5 252.5 C305.167 256.833 296.167 260.5 286.5 263.5 C276.833 266.5 261.167 270.5 239.5 275.5 C217.834 280.5 203.167 285.5 195.5 290.5 C187.833 295.5 184 302 184 310 C184 328 202.667 337 240 337 C268.666 337 300.333 332.667 335 324 L360 437 C330.667 446.333 303 452.167 277 454.5 C251 456.833 233.333 458 224 458 C182.667 458 147.667 452 119 440 C90.3333 428 68.1667 410.5 52.5 387.5 C36.8333 364.5 29 335.333 29 300 C29 280.667 31.5 263.667 36.5 249 C41.5 234.333 47.6667 223 55 215 C62.3333 207 69.8333 200.667 77.5 196 C85.1667 191.333 94.1667 187 104.5 183 C114.833 179 132 174.667 156 170 C180 165.333 194.833 160.833 200.5 156.5 C206.167 152.167 209 147 209 141 C209 122.333 189.667 113 151 113 C128.333 113 95.3333 117.333 52 126 L27 10 C65 -0.666672 100.667 -7.66667 134 -11 L134 -45 C134 -47.6667 134.5 -51.3334 135.5 -56 C136.5 -60.6667 139.167 -65.5 143.5 -70.5 C147.833 -75.5 156 -80.8333 168 -86.5 C180 -92.1667 187.667 -96.5 191 -99.5 C194.333 -102.5 196 -106.333 196 -111 C196 -119 190.667 -125 180 -129 C169.333 -133 156.333 -135 141 -135 L125 -135 L122 -215 C130.667 -217.667 147 -219 171 -219 C263 -219 309 -187.333 309 -124 C309 -111.333 307.333 -100.667 304 -92 C300.667 -83.3333 296.167 -75.8333 290.5 -69.5 C284.833 -63.1667 273 -54.6667 255 -44 C237 -33.3333 227.333 -21.3333 226 -8 C256.667 -2.66667 283.167 6.66667 305.5 20 C327.833 33.3333 344.667 50.5 356 71.5 C367.333 92.5 373 117.333 373 146 L373 146 Z " />
<glyph glyph-name="Scaron" unicode="&#x160;" horiz-adv-x="464" d="M323 697 L393 829 L285 829 L259 776 L236 829 L127 829 L189 697 L323 697 Z M220 471 C220 484.333 226.167 494.167 238.5 500.5 C250.833 506.833 271 510 299 510 C326.333 510 358.333 505 395 495 L429 649 C409 655.667 384.667 661.167 356 665.5 C327.333 669.833 300.333 672 275 672 C235 672 199 666.833 167 656.5 C135 646.167 108.333 631.667 87 613 C65.6667 594.336 49.6667 572.169 39 546.5 C28.3333 520.834 23 493.001 23 463 C23 445.668 24.8333 429.334 28.5 414 C32.1667 398.667 37.6667 383.834 45 369.5 C52.3333 355.167 63.6666 340 79 324 C94.3333 308 119.833 289.833 155.5 269.5 C191.167 249.167 213.333 235.667 222 229 C230.667 222.333 237 215.5 241 208.5 C245 201.5 247 194.333 247 187 C247 163 221.667 151 171 151 C138.333 151 98.3333 155.333 51 164 L19 11 C45 3.66667 73.5 -2 104.5 -6 C135.5 -10 163.667 -12 189 -12 C270.333 -12 333.333 6.5 378 43.5 C422.667 80.5 445 130.333 445 193 C445 215.667 442.333 235.5 437 252.5 C431.668 269.5 425.335 283.667 418 295 C410.667 306.333 402.5 316.667 393.5 326 C384.5 335.333 373.667 344.833 361 354.5 C348.333 364.165 325.5 378.332 292.5 397 C259.5 415.666 239.167 430.333 231.5 441 C223.833 451.667 220 461.667 220 471 L220 471 Z " />
<glyph glyph-name="scaron" unicode="&#x161;" horiz-adv-x="393" d="M271 512 L354 660 L245 660 L206 586 L171 660 L63 660 L138 512 L271 512 Z M184 310 C184 328 202.667 337 240 337 C268.666 337 300.333 332.667 335 324 L360 437 C330.667 446.333 303 452.167 277 454.5 C251 456.833 233.333 458 224 458 C182.667 458 147.667 452 119 440 C90.3333 428 68.1667 410.5 52.5 387.5 C36.8333 364.5 29 335.333 29 300 C29 280.667 31.5 263.667 36.5 249 C41.5 234.333 47.6667 223 55 215 C62.3333 207 69.8333 200.667 77.5 196 C85.1667 191.333 94.1667 187 104.5 183 C114.833 179 132 174.667 156 170 C180 165.333 194.833 160.833 200.5 156.5 C206.167 152.167 209 147 209 141 C209 122.333 189.667 113 151 113 C128.333 113 95.3333 117.333 52 126 L27 10 C77 -4.66667 124.333 -12 169 -12 C212.333 -12 249 -5.83333 279 6.5 C309 18.8333 332.167 36.5 348.5 59.5 C364.833 82.5 373 111.333 373 146 C373 169.333 369.333 188.166 362 202.5 C354.668 216.833 346.835 227.666 338.5 235 C330.168 242.332 321.835 248.166 313.5 252.5 C305.167 256.833 296.167 260.5 286.5 263.5 C276.833 266.5 261.167 270.5 239.5 275.5 C217.834 280.5 203.167 285.5 195.5 290.5 C187.833 295.5 184 302 184 310 L184 310 Z " />
<glyph glyph-name="Tcommaaccent" unicode="&#x162;" horiz-adv-x="618" d="M399 0 L408 498 L621 498 L624 660 L4 660 L1 498 L217 498 L208 0 L255 0 L255 -44 C255 -46.6667 255.5 -50.3334 256.5 -55 C257.5 -59.6667 260.167 -64.5 264.5 -69.5 C268.833 -74.5 277 -79.8333 289 -85.5 C301 -91.1667 308.667 -95.5 312 -98.5 C315.333 -101.5 317 -105.333 317 -110 C317 -118 311.5 -124 300.5 -128 C289.5 -132 276.667 -134 262 -134 L246 -134 L243 -214 C251.667 -216.667 268 -218 292 -218 C336.666 -218 370.833 -210.167 394.5 -194.5 C418.167 -178.833 429.667 -155 429 -123 C429 -110.333 427.667 -100.167 425 -92.5 C422.333 -84.8332 419.333 -78.6665 416 -74 C412.667 -69.3333 408.5 -64.8333 403.5 -60.5 C398.5 -56.1667 389.833 -50.5 377.5 -43.5 C365.167 -36.5 357 -29.6667 353 -23 C349 -16.3333 347 -9 347 -1 L347 0 L399 0 Z " />
<glyph glyph-name="tcommaaccent" unicode="&#x163;" horiz-adv-x="401" d="M274 -11 C294 -10.3333 315.5 -8.16667 338.5 -4.5 C361.5 -0.833328 380.667 3.33333 396 8 L379 150 C353.667 144.667 327.667 142 301 142 C283.668 142 273.334 146.667 270 156 C266.669 165.333 265.335 178.333 266 195 L268 305 L393 305 L395 446 L271 446 L273 584 L97 584 L95 446 L16 446 L14 305 L92 305 L89 120 C88.3333 84 95.8333 55.6667 111.5 35 C127.167 14.3333 151 0.666672 183 -6 L182 -51 C182 -53.6667 182.5 -57.3334 183.5 -62 C184.5 -66.6667 187.167 -71.5 191.5 -76.5 C195.833 -81.5 204 -86.8333 216 -92.5 C228 -98.1667 235.667 -102.5 239 -105.5 C242.333 -108.5 244 -112.333 244 -117 C244 -125 238.667 -131 228 -135 C217.333 -139 204.333 -141 189 -141 L173 -141 L170 -221 C178.667 -223.667 195 -225 219 -225 C311 -225 357 -193.333 357 -130 C357 -117.333 355.5 -107.333 352.5 -100 C349.5 -92.6667 346.5 -86.6667 343.5 -82 C340.5 -77.3333 336.333 -72.8333 331 -68.5 C325.667 -64.1667 317 -58.3333 305 -51 C293 -43.6667 285 -37 281 -31 C277 -25 274.667 -18.3333 274 -11 L274 -11 Z " />
<glyph glyph-name="Tcaron" unicode="&#x164;" horiz-adv-x="618" d="M378 697 L448 829 L340 829 L314 776 L291 829 L182 829 L244 697 L378 697 Z M624 660 L4 660 L1 498 L217 498 L208 0 L399 0 L408 498 L621 498 L624 660 Z " />
<glyph glyph-name="tcaron" unicode="&#x165;" horiz-adv-x="401" d="M311 660 L307 483 L408 483 L433 660 L311 660 Z M301 142 C283.668 142 273.334 146.667 270 156 C266.669 165.333 265.335 178.333 266 195 L268 305 L393 305 L395 446 L271 446 L273 584 L97 584 L95 446 L16 446 L14 305 L92 305 L89 120 C88.3333 73.3333 100.5 39.6667 125.5 19 C150.5 -1.66667 190 -12 244 -12 C267.333 -12 293.667 -10 323 -6 C352.333 -2 376.667 2.66667 396 8 L379 150 C353.667 144.667 327.667 142 301 142 L301 142 Z " />
<glyph glyph-name="Tbar" unicode="&#x166;" horiz-adv-x="618" d="M621 498 L624 660 L4 660 L1 498 L217 498 L214 350 L156 350 L154 250 L212 250 L208 0 L399 0 L403 250 L465 250 L467 350 L405 350 L408 498 L621 498 Z " />
<glyph glyph-name="tbar" unicode="&#x167;" horiz-adv-x="401" d="M379 150 C353.667 144.667 327.667 142 301 142 C283.668 142 273.334 146.5 270 155.5 C266.669 164.5 265.335 177 266 193 L383 193 L384 273 L267 273 L268 305 L393 305 L395 446 L271 446 L273 584 L97 584 L95 446 L16 446 L14 305 L92 305 L92 273 L18 273 L17 193 L90 193 L89 120 C88.3333 73.3333 100.5 39.6667 125.5 19 C150.5 -1.66667 190 -12 244 -12 C267.333 -12 293.667 -10 323 -6 C352.333 -2 376.667 2.66667 396 8 L379 150 Z " />
<glyph glyph-name="Umacron" unicode="&#x16a;" horiz-adv-x="688" d="M506 827 L194 827 L192 704 L503 704 L506 827 Z M643 660 L453 660 L446 236 C445.333 204.667 437.667 182.167 423 168.5 C408.333 154.833 384.667 148 352 148 C280.667 148 245 177.333 245 236 L252 660 L63 660 L55 189 C54.3333 122.333 78.8333 70.6667 128.5 34 C178.167 -2.66667 249 -21 341 -21 C386.333 -21 427.333 -16.3333 464 -7 C500.667 2.33333 531.5 16 556.5 34 C581.5 52 600.667 74.1667 614 100.5 C627.333 126.833 634.333 156.333 635 189 L643 660 Z " />
<glyph glyph-name="umacron" unicode="&#x16b;" horiz-adv-x="527" d="M422 631 L111 631 L109 508 L420 508 L422 631 Z M310 446 L306 132 C290 128 275.333 126 262 126 C246 126 234.333 131.5 227 142.5 C219.667 153.5 216.333 172 217 198 L222 446 L40 446 L34 136 C33.3333 84.6667 46.3333 47.1667 73 23.5 C99.6667 -0.166672 136 -12 182 -12 C210.667 -12 236.167 -8.16666 258.5 -0.5 C280.833 7.16667 302 19.3333 322 36 L321 0 L483 0 L491 446 L310 446 Z " />
<glyph glyph-name="Uring" unicode="&#x16e;" horiz-adv-x="688" d="M351 877 C325 877 302.167 871.167 282.5 859.5 C262.833 847.837 249.333 833.17 242 815.5 C234.667 797.833 231 781.333 231 766 C231 742 237.333 721.167 250 703.5 C262.667 685.836 278.5 673.669 297.5 667 C316.5 660.333 334.333 657 351 657 C367 657 384.167 660.333 402.5 667 C420.833 673.667 436.167 685.833 448.5 703.5 C460.833 721.167 467 742 467 766 C467 790 460.833 811.167 448.5 829.5 C436.167 847.833 420.834 860.333 402.5 867 C384.167 873.667 367 877 351 877 L351 877 Z M351 815 C379 815 393 798.667 393 766 C393 734 379 718 351 718 C323 718 309 734 309 766 C309 798.667 323 815 351 815 L351 815 Z M643 660 L453 660 L446 236 C445.333 204.667 437.667 182.167 423 168.5 C408.333 154.833 384.667 148 352 148 C280.667 148 245 177.333 245 236 L252 660 L63 660 L55 189 C54.3333 122.333 78.8333 70.6667 128.5 34 C178.167 -2.66667 249 -21 341 -21 C386.333 -21 427.333 -16.3333 464 -7 C500.667 2.33333 531.5 16 556.5 34 C581.5 52 600.667 74.1667 614 100.5 C627.333 126.833 634.333 156.333 635 189 L643 660 Z " />
<glyph glyph-name="uring" unicode="&#x16f;" horiz-adv-x="527" d="M269 501 C301 500.998 327.667 512.165 349 534.5 C370.333 556.833 381 584.333 381 617 C381 641.667 374.833 663.833 362.5 683.5 C350.167 703.167 335.167 716.833 317.5 724.5 C299.833 732.167 283.667 736 269 736 C245 736 223.167 729.5 203.5 716.5 C183.833 703.5 170.167 687.667 162.5 669 C154.833 650.333 151 633 151 617 C151 601.667 154.833 585 162.5 567 C170.167 549 183.833 533.5 203.5 520.5 C223.167 507.5 245 501 269 501 L269 501 Z M266 661 C277.333 661 286.5 657.167 293.5 649.5 C300.5 641.838 304 631.672 304 619 C304 606.333 300.5 596 293.5 588 C286.5 580 277.333 576 266 576 C254.667 576 245.5 580 238.5 588 C231.5 596 228 606.333 228 619 C228 631.667 231.5 641.833 238.5 649.5 C245.5 657.167 254.667 661 266 661 L266 661 Z M310 446 L306 132 C290 128 275.333 126 262 126 C246 126 234.333 131.5 227 142.5 C219.667 153.5 216.333 172 217 198 L222 446 L40 446 L34 136 C33.3333 84.6667 46.3333 47.1667 73 23.5 C99.6667 -0.166672 136 -12 182 -12 C210.667 -12 236.167 -8.16666 258.5 -0.5 C280.833 7.16667 302 19.3333 322 36 L321 0 L483 0 L491 446 L310 446 Z " />
<glyph glyph-name="Uhungarumlaut" unicode="&#x170;" horiz-adv-x="688" d="M372 839 L228 839 L200 707 L322 707 L372 839 Z M567 839 L424 839 L386 707 L508 707 L567 839 Z M643 660 L453 660 L446 236 C445.333 204.667 437.667 182.167 423 168.5 C408.333 154.833 384.667 148 352 148 C280.667 148 245 177.333 245 236 L252 660 L63 660 L55 189 C54.3333 122.333 78.8333 70.6667 128.5 34 C178.167 -2.66667 249 -21 341 -21 C386.333 -21 427.333 -16.3333 464 -7 C500.667 2.33333 531.5 16 556.5 34 C581.5 52 600.667 74.1667 614 100.5 C627.333 126.833 634.333 156.333 635 189 L643 660 Z " />
<glyph glyph-name="uhungarumlaut" unicode="&#x171;" horiz-adv-x="527" d="M292 660 L145 660 L123 521 L248 521 L292 660 Z M410 521 L473 660 L327 660 L285 521 L410 521 Z M310 446 L306 132 C290 128 275.333 126 262 126 C246 126 234.333 131.5 227 142.5 C219.667 153.5 216.333 172 217 198 L222 446 L40 446 L34 136 C33.3333 84.6667 46.3333 47.1667 73 23.5 C99.6667 -0.166672 136 -12 182 -12 C210.667 -12 236.167 -8.16666 258.5 -0.5 C280.833 7.16667 302 19.3333 322 36 L321 0 L483 0 L491 446 L310 446 Z " />
<glyph glyph-name="Uogonek" unicode="&#x172;" horiz-adv-x="688" d="M453 660 L446 236 C445.333 204.667 437.667 182.167 423 168.5 C408.333 154.833 384.667 148 352 148 C280.667 148 245 177.333 245 236 L252 660 L63 660 L55 189 C54.3333 125.667 76.6667 75.6667 122 39 C167.333 2.33333 232.333 -17.6667 317 -21 C296.333 -47.6667 282.833 -69.8333 276.5 -87.5 C270.167 -105.167 267 -121 267 -135 C267 -156.333 272.333 -173.333 283 -186 C293.666 -198.667 307.832 -208 325.5 -214 C343.167 -220 362.667 -223 384 -223 C400 -223 414.5 -222 427.5 -220 C440.5 -218 449 -215.667 453 -213 L441 -134 C427.668 -136.667 415.335 -138 404 -138 C393.333 -138 385.667 -135.167 381 -129.5 C376.333 -123.833 374 -118.666 374 -114 C374 -98.6667 394 -65 434 -13 C498 -2.33333 547.333 20.5 582 55.5 C616.667 90.5 634.333 135 635 189 L643 660 L453 660 Z " />
<glyph glyph-name="uogonek" unicode="&#x173;" horiz-adv-x="527" d="M483 0 L491 446 L310 446 L306 132 C290 128 275.333 126 262 126 C246 126 234.333 131.5 227 142.5 C219.667 153.5 216.333 172 217 198 L222 446 L40 446 L34 136 C33.3333 84.6667 46.3333 47.1667 73 23.5 C99.6667 -0.166672 136 -12 182 -12 C210.667 -12 236.167 -8.16666 258.5 -0.5 C280.833 7.16667 302 19.3333 322 36 L321 0 C293 -36.6667 275.167 -64.1667 267.5 -82.5 C259.833 -100.833 256 -118.333 256 -135 C256 -156.333 261.333 -173.333 272 -186 C282.666 -198.667 296.833 -208 314.5 -214 C332.167 -220 351.667 -223 373 -223 C389 -223 403.5 -222 416.5 -220 C429.5 -218 438 -215.667 442 -213 L430 -134 C416.668 -136.667 404.335 -138 393 -138 C382.333 -138 374.667 -135.167 370 -129.5 C365.333 -123.833 363 -118.666 363 -114 C363 -103.333 370 -87.6666 384 -67 C398 -46.3333 414.667 -24 434 0 L483 0 Z " />
<glyph glyph-name="Wcircumflex" unicode="&#x174;" horiz-adv-x="933" d="M460 743 L477 697 L604 697 L519 829 L408 829 L315 697 L440 697 L460 743 Z M742 660 L664 177 L576 660 L356 660 L260 180 L196 660 L14 660 L128 0 L356 0 L449 487 L538 0 L764 0 L929 660 L742 660 Z " />
<glyph glyph-name="wcircumflex" unicode="&#x175;" horiz-adv-x="826" d="M422 576 L465 510 L593 510 L505 658 L348 658 L234 510 L374 510 L422 576 Z M642 446 L582 121 L537 446 L300 446 L242 117 L187 446 L1 446 L112 0 L349 0 L407 313 L460 0 L695 0 L828 446 L642 446 Z " />
<glyph glyph-name="Ycircumflex" unicode="&#x176;" horiz-adv-x="641" d="M331 743 L348 697 L475 697 L390 829 L279 829 L186 697 L311 697 L331 743 Z M445 660 L325 439 L215 660 L4 660 L223 264 L218 0 L412 0 L416 264 L647 660 L445 660 Z " />
<glyph glyph-name="ycircumflex" unicode="&#x177;" horiz-adv-x="509" d="M267 576 L310 510 L438 510 L350 658 L193 658 L79 510 L219 510 L267 576 Z M334 446 L256 117 L190 446 L-10 446 L150 -15 C126 -37 90.6667 -58.3333 44 -79 L16 -91 L80 -239 C148.667 -215 204.333 -183.5 247 -144.5 C289.667 -105.5 323.667 -55.3333 349 6 L531 446 L334 446 Z " />
<glyph glyph-name="Ydieresis" unicode="&#x178;" horiz-adv-x="641" d="M222 687 C245.333 687 265.5 695.667 282.5 713 C299.5 730.333 308 750.333 308 773 C308 796.333 299.5 816.5 282.5 833.5 C265.5 850.5 245.333 859 222 859 C198.667 859 178.5 850.5 161.5 833.5 C144.5 816.5 136 796.333 136 773 C136 756.336 141 740.669 151 726 C161 711.339 172.667 701.172 186 695.5 C199.333 689.833 211.333 687 222 687 L222 687 Z M442 687 C459.333 687 475.167 692 489.5 702 C503.833 712 513.833 723.667 519.5 737 C525.167 750.333 528 762.333 528 773 C528 797 519.667 817.333 503 834 C486.333 850.667 466 859 442 859 C431.333 859 419.5 856.167 406.5 850.5 C393.5 844.833 382 834.833 372 820.5 C362 806.167 357 790.333 357 773 C357 756.333 362 740.833 372 726.5 C382 712.167 393.5 702 406.5 696 C419.5 690 431.333 687 442 687 L442 687 Z M445 660 L325 439 L215 660 L4 660 L223 264 L218 0 L412 0 L416 264 L647 660 L445 660 Z " />
<glyph glyph-name="Zacute" unicode="&#x179;" horiz-adv-x="624" d="M431 830 L281 830 L253 698 L382 698 L431 830 Z M597 660 L56 660 L54 499 L345 499 L33 130 L30 0 L587 0 L590 161 L287 161 L595 525 L597 660 Z " />
<glyph glyph-name="zacute" unicode="&#x17a;" horiz-adv-x="443" d="M350 660 L207 660 L175 521 L296 521 L350 660 Z M430 446 L22 446 L20 322 L240 322 L17 130 L15 0 L424 0 L426 123 L217 123 L428 317 L430 446 Z " />
<glyph glyph-name="Zdotaccent" unicode="&#x17b;" horiz-adv-x="624" d="M313 687 C336.333 687 356.5 695.667 373.5 713 C390.5 730.333 399 750.333 399 773 C399 796.333 390.5 816.5 373.5 833.5 C356.5 850.5 336.333 859 313 859 C289.667 859 269.5 850.5 252.5 833.5 C235.5 816.5 227 796.333 227 773 C227 756.336 232 740.669 242 726 C252 711.339 263.667 701.172 277 695.5 C290.333 689.833 302.333 687 313 687 L313 687 Z M597 660 L56 660 L54 499 L345 499 L33 130 L30 0 L587 0 L590 161 L287 161 L595 525 L597 660 Z " />
<glyph glyph-name="zdotaccent" unicode="&#x17c;" horiz-adv-x="443" d="M226 490 C255.333 490 279.333 499.333 298 518 C316.667 536.667 326 560.667 326 590 C326 619.333 316.667 643.333 298 662 C279.333 680.667 255.333 690 226 690 C196 690 171.833 680.667 153.5 662 C135.167 643.333 126 619.333 126 590 C126 560.667 135.167 536.667 153.5 518 C171.833 499.333 196 490 226 490 L226 490 Z M430 446 L22 446 L20 322 L240 322 L17 130 L15 0 L424 0 L426 123 L217 123 L428 317 L430 446 Z " />
<glyph glyph-name="Zcaron" unicode="&#x17d;" horiz-adv-x="624" d="M380 697 L450 829 L342 829 L316 776 L293 829 L184 829 L246 697 L380 697 Z M597 660 L56 660 L54 499 L345 499 L33 130 L30 0 L587 0 L590 161 L287 161 L595 525 L597 660 Z " />
<glyph glyph-name="zcaron" unicode="&#x17e;" horiz-adv-x="443" d="M296 512 L379 660 L270 660 L231 586 L196 660 L88 660 L163 512 L296 512 Z M430 446 L22 446 L20 322 L240 322 L17 130 L15 0 L424 0 L426 123 L217 123 L428 317 L430 446 Z " />
<glyph glyph-name="florin" unicode="&#x192;" horiz-adv-x="538" d="M445 534 C464.333 534 488.667 530.333 518 523 L540 651 C504.667 661.667 467 667 427 667 C393 667 362.833 661.833 336.5 651.5 C310.167 641.167 288.5 627.667 271.5 611 C254.5 594.333 241.333 575.833 232 555.5 C222.667 535.167 217 514.667 215 494 L209 446 L121 446 L106 329 L195 329 L162 52 C160.667 32.6667 155.167 18.6667 145.5 10 C135.833 1.33333 120.333 -3 99 -3 C71.6667 -3 47 0.666672 25 8 L3 -121 C44.3333 -131.667 83 -137 119 -137 C160.333 -137 195.833 -129.167 225.5 -113.5 C255.167 -97.8333 279.167 -76.6666 297.5 -50 C315.833 -23.3333 326.333 5.66667 329 37 L363 329 L492 329 L505 446 L376 446 L380 479 C380.664 492.333 383.83 503.333 389.5 512 C395.167 520.667 403.167 526.5 413.5 529.5 C423.833 532.5 434.333 534 445 534 L445 534 Z " />
<glyph glyph-name="Scommaaccent" unicode="&#x218;" horiz-adv-x="464" d="M275 672 C235 672 199 666.833 167 656.5 C135 646.167 108.333 631.667 87 613 C65.6667 594.336 49.6667 572.169 39 546.5 C28.3333 520.834 23 493.001 23 463 C23 445.668 24.8333 429.334 28.5 414 C32.1667 398.667 37.6667 383.834 45 369.5 C52.3333 355.167 63.6666 340 79 324 C94.3333 308 119.833 289.833 155.5 269.5 C191.167 249.167 213.333 235.667 222 229 C230.667 222.333 237 215.5 241 208.5 C245 201.5 247 194.333 247 187 C247 163 221.667 151 171 151 C138.333 151 98.3333 155.333 51 164 L19 11 C45 3.66667 73.5 -2 104.5 -6 C135.5 -10 163.667 -12 189 -12 C270.333 -12 333.333 6.5 378 43.5 C422.667 80.5 445 130.333 445 193 C445 215.667 442.333 235.5 437 252.5 C431.668 269.5 425.335 283.667 418 295 C410.667 306.333 402.5 316.667 393.5 326 C384.5 335.333 373.667 344.833 361 354.5 C348.333 364.165 325.5 378.332 292.5 397 C259.5 415.666 239.167 430.333 231.5 441 C223.833 451.667 220 461.667 220 471 C220 484.333 226.167 494.167 238.5 500.5 C250.833 506.833 271 510 299 510 C326.333 510 358.333 505 395 495 L429 649 C409 655.667 384.667 661.167 356 665.5 C327.333 669.833 300.333 672 275 672 L275 672 Z M137 -58 L152 -158 L131 -229 L209 -229 L240 -177 C252 -157.667 259.667 -138.667 263 -120 C266.333 -101.333 263.833 -86.3333 255.5 -75 C247.167 -63.6667 237 -56 225 -52 C213 -48 199.167 -46.5 183.5 -47.5 C167.833 -48.5 152.333 -52 137 -58 L137 -58 Z " />
<glyph glyph-name="scommaaccent" unicode="&#x219;" horiz-adv-x="393" d="M360 437 C330.667 446.333 303 452.167 277 454.5 C251 456.833 233.333 458 224 458 C182.667 458 147.667 452 119 440 C90.3333 428 68.1667 410.5 52.5 387.5 C36.8333 364.5 29 335.333 29 300 C29 280.667 31.5 263.667 36.5 249 C41.5 234.333 47.6667 223 55 215 C62.3333 207 69.8333 200.667 77.5 196 C85.1667 191.333 94.1667 187 104.5 183 C114.833 179 132 174.667 156 170 C180 165.333 194.833 160.833 200.5 156.5 C206.167 152.167 209 147 209 141 C209 122.333 189.667 113 151 113 C128.333 113 95.3333 117.333 52 126 L27 10 C77 -4.66667 124.333 -12 169 -12 C212.333 -12 249 -5.83333 279 6.5 C309 18.8333 332.167 36.5 348.5 59.5 C364.833 82.5 373 111.333 373 146 C373 169.333 369.333 188.166 362 202.5 C354.668 216.833 346.835 227.666 338.5 235 C330.168 242.332 321.835 248.166 313.5 252.5 C305.167 256.833 296.167 260.5 286.5 263.5 C276.833 266.5 261.167 270.5 239.5 275.5 C217.834 280.5 203.167 285.5 195.5 290.5 C187.833 295.5 184 302 184 310 C184 328 202.667 337 240 337 C268.666 337 300.333 332.667 335 324 L360 437 Z M124 -58 L139 -158 L118 -229 L196 -229 L227 -177 C239 -157.667 246.667 -138.667 250 -120 C253.333 -101.333 250.833 -86.3333 242.5 -75 C234.167 -63.6667 224 -56 212 -52 C200 -48 186.167 -46.5 170.5 -47.5 C154.833 -48.5 139.333 -52 124 -58 L124 -58 Z " />
<glyph glyph-name="uni021A" unicode="&#x21a;" horiz-adv-x="618" d="M624 660 L4 660 L1 498 L217 498 L208 0 L399 0 L408 498 L621 498 L624 660 Z M245 -57 L260 -157 L239 -228 L317 -228 L348 -176 C360 -156.667 367.667 -137.667 371 -119 C374.333 -100.333 371.833 -85.3333 363.5 -74 C355.167 -62.6667 345 -55 333 -51 C321 -47 307.167 -45.5 291.5 -46.5 C275.833 -47.5 260.333 -51 245 -57 L245 -57 Z " />
<glyph glyph-name="uni021B" unicode="&#x21b;" horiz-adv-x="401" d="M396 8 L379 150 C353.667 144.667 327.667 142 301 142 C283.668 142 273.334 146.667 270 156 C266.669 165.333 265.335 178.333 266 195 L268 305 L393 305 L395 446 L271 446 L273 584 L97 584 L95 446 L16 446 L14 305 L92 305 L89 120 C88.3333 73.3333 100.5 39.6667 125.5 19 C150.5 -1.66667 190 -12 244 -12 C267.333 -12 293.667 -10 323 -6 C352.333 -2 376.667 2.66667 396 8 L396 8 Z M172 -64 L187 -164 L166 -235 L244 -235 L275 -183 C287 -163.667 294.667 -144.667 298 -126 C301.333 -107.333 298.833 -92.3333 290.5 -81 C282.167 -69.6667 272 -62 260 -58 C248 -54 234.167 -52.5 218.5 -53.5 C202.833 -54.5 187.333 -58 172 -64 L172 -64 Z " />
<glyph glyph-name="uni0237" unicode="&#x237;" horiz-adv-x="255" d="M223 446 L43 446 L36 22 C35.3333 -14.6667 29.3333 -41.6667 18 -59 C6.66667 -76.3333 -10.3333 -96.3333 -33 -119 L78 -243 C122.667 -205 156.667 -165.833 180 -125.5 C203.333 -85.1667 215.333 -37 216 19 L223 446 Z " />
<glyph glyph-name="circumflex" unicode="&#x2c6;" horiz-adv-x="333" d="M348 510 L260 658 L103 658 L-11 510 L129 510 L177 576 L220 510 L348 510 Z " />
<glyph glyph-name="caron" unicode="&#x2c7;" horiz-adv-x="319" d="M206 660 L167 586 L132 660 L24 660 L99 512 L232 512 L315 660 L206 660 Z " />
<glyph glyph-name="breve" unicode="&#x2d8;" horiz-adv-x="343" d="M341 660 L210 660 C211.335 641.333 209.168 629 203.5 623 C197.833 617 190 614 180 614 C169.334 614 161.167 618.167 155.5 626.5 C149.833 634.833 147.333 646 148 660 L18 660 C17.3333 630 26.5 603.667 45.5 581 C64.5 558.335 86.5 542.669 111.5 534 C136.5 525.333 158.333 521 177 521 C195 521 215.333 525 238 533 C260.667 541 280 552.5 296 567.5 C312 582.5 323.333 598 330 614 C336.664 630 340.331 645.333 341 660 L341 660 Z " />
<glyph glyph-name="dotaccent" unicode="&#x2d9;" horiz-adv-x="192" d="M102 690 C72 690 47.8333 680.667 29.5 662 C11.1667 643.333 2 619.333 2 590 C2 560.667 11.1667 536.667 29.5 518 C47.8333 499.333 72 490 102 490 C131.333 490 155.333 499.333 174 518 C192.667 536.667 202 560.667 202 590 C202 619.333 192.667 643.333 174 662 C155.333 680.667 131.333 690 102 690 L102 690 Z " />
<glyph glyph-name="ring" unicode="&#x2da;" horiz-adv-x="210" d="M115 736 C91 736 69.1667 729.5 49.5 716.5 C29.8333 703.5 16.1667 687.667 8.5 669 C0.833328 650.333 -3 633 -3 617 C-3 601.667 0.833328 585 8.5 567 C16.1667 549 29.8333 533.5 49.5 520.5 C69.1667 507.5 91 501 115 501 C147 500.998 173.667 512.165 195 534.5 C216.333 556.833 227 584.333 227 617 C227 641.667 220.833 663.833 208.5 683.5 C196.167 703.167 181.167 716.833 163.5 724.5 C145.833 732.167 129.667 736 115 736 L115 736 Z M112 661 C123.333 661 132.5 657.167 139.5 649.5 C146.5 641.838 150 631.672 150 619 C150 606.333 146.5 596 139.5 588 C132.5 580 123.333 576 112 576 C100.667 576 91.5 580 84.5 588 C77.5 596 74 606.333 74 619 C74 631.667 77.5 641.833 84.5 649.5 C91.5 657.167 100.667 661 112 661 L112 661 Z " />
<glyph glyph-name="ogonek" unicode="&#x2db;" horiz-adv-x="213" d="M50 1 C22 -35 4 -62.5 -4 -81.5 C-12 -100.5 -16 -118.333 -16 -135 C-16 -156.333 -10.6667 -173.333 0 -186 C10.6667 -198.667 24.8333 -208 42.5 -214 C60.1667 -220 79.6667 -223 101 -223 C117 -223 131.5 -222 144.5 -220 C157.5 -218 166 -215.667 170 -213 L158 -134 C144.667 -136.667 132.333 -138 121 -138 C110.333 -138 102.667 -135.167 98 -129.5 C93.3333 -123.833 91 -118.666 91 -114 C91 -103.333 98 -87.6666 112 -67 C126 -46.3333 142.667 -24 162 0 L50 1 Z " />
<glyph glyph-name="tilde" unicode="&#x2dc;" horiz-adv-x="421" d="M348 643 C318.667 619.667 295.667 608 279 608 C275 608 269.667 608.833 263 610.5 C256.333 612.167 243.5 618.833 224.5 630.5 C205.5 642.167 185 648 163 648 C140.333 648 116.833 642.167 92.5 630.5 C68.1667 618.833 46 602.333 26 581 L86 504 C114 528 136.333 540 153 540 C165.667 540 179.833 535.167 195.5 525.5 C211.167 515.837 223.833 509.337 233.5 506 C243.167 502.667 254.667 501 268 501 C288.666 501 311.333 506.167 336 516.5 C360.666 526.833 384.333 542.333 407 563 L348 643 Z " />
<glyph glyph-name="hungarumlaut" unicode="&#x2dd;" horiz-adv-x="407" d="M206 660 L59 660 L37 521 L162 521 L206 660 Z M387 660 L241 660 L199 521 L324 521 L387 660 Z " />
<glyph glyph-name="gravecomb" unicode="&#x300;" d="M-36 660 L-182 660 L-130 521 L-5 521 L-36 660 Z " />
<glyph glyph-name="acutecomb" unicode="&#x301;" d="M-3 660 L-146 660 L-178 521 L-57 521 L-3 660 Z " />
<glyph glyph-name="uni0302" unicode="&#x302;" d="M-5 521 L-96 660 L-197 660 L-295 521 L-170 521 L-149 567 L-133 521 L-5 521 Z " />
<glyph glyph-name="tildecomb" unicode="&#x303;" d="M-73 643 C-102.333 619.667 -125.333 608 -142 608 C-146 608 -151.333 608.833 -158 610.5 C-164.667 612.167 -177.5 618.833 -196.5 630.5 C-215.5 642.167 -236 648 -258 648 C-281.334 648 -305.167 642.167 -329.5 630.5 C-353.834 618.833 -375.667 602.333 -395 581 L-335 504 C-308.333 528 -286 540 -268 540 C-255.333 540 -241.167 535.167 -225.5 525.5 C-209.833 515.837 -197.167 509.337 -187.5 506 C-177.833 502.667 -166.333 501 -153 501 C-132.333 501 -109.667 506.167 -85 516.5 C-60.3333 526.833 -36.6667 542.333 -14 563 L-73 643 Z " />
<glyph glyph-name="uni0304" unicode="&#x304;" d="M-50 631 L-361 631 L-363 508 L-52 508 L-50 631 Z " />
<glyph glyph-name="uni0306" unicode="&#x306;" d="M-2 660 L-133 660 C-131.668 641.333 -133.834 629 -139.5 623 C-145.167 617 -153 614 -163 614 C-173.667 614 -181.834 618.167 -187.5 626.5 C-193.167 634.833 -195.667 646 -195 660 L-325 660 C-325.667 630 -316.5 603.667 -297.5 581 C-278.5 558.335 -256.5 542.669 -231.5 534 C-206.5 525.333 -184.667 521 -166 521 C-148 521 -127.667 525 -105 533 C-82.3333 541 -63 552.5 -47 567.5 C-31 582.5 -19.6667 598 -13 614 C-6.33333 630 -2.66667 645.333 -2 660 L-2 660 Z " />
<glyph glyph-name="uni0307" unicode="&#x307;" d="M-90 690 C-120 690 -144.167 680.667 -162.5 662 C-180.833 643.333 -190 619.333 -190 590 C-190 560.667 -180.833 536.667 -162.5 518 C-144.167 499.333 -120 490 -90 490 C-60.6667 490 -36.6667 499.333 -18 518 C0.666672 536.667 10 560.667 10 590 C10 619.333 0.666672 643.333 -18 662 C-36.6667 680.667 -60.6667 690 -90 690 L-90 690 Z " />
<glyph glyph-name="uni0308" unicode="&#x308;" d="M-304 675 C-326.667 675 -346.333 666.667 -363 650 C-379.667 633.333 -388 613.333 -388 590 C-388 567.335 -379.5 547.669 -362.5 531 C-345.5 514.335 -326 506.002 -304 506 C-280.667 506 -260.5 514.333 -243.5 531 C-226.5 547.667 -218 567.333 -218 590 C-218 613.333 -226.333 633.333 -243 650 C-259.667 666.667 -280 675 -304 675 L-304 675 Z M-93 675 C-115.667 675 -135.667 666.667 -153 650 C-170.333 633.333 -179 613.333 -179 590 C-179 573.333 -174 558 -164 544 C-154 530 -142.333 520.167 -129 514.5 C-115.667 508.833 -103.667 506 -93 506 C-76.3333 506 -60.8333 510.833 -46.5 520.5 C-32.1667 530.167 -22.3333 541.5 -17 554.5 C-11.6667 567.5 -9 579.333 -9 590 C-9 613.333 -17.1667 633.333 -33.5 650 C-49.8333 666.667 -69.6667 675 -93 675 L-93 675 Z " />
<glyph glyph-name="uni030A" unicode="&#x30a;" d="M-95 736 C-111 736 -128.167 732.167 -146.5 724.5 C-164.833 716.836 -180.5 703.169 -193.5 683.5 C-206.5 663.836 -213 641.669 -213 617 C-213 584.333 -201.833 556.833 -179.5 534.5 C-157.167 512.167 -129 501 -95 501 C-72.3333 501 -51.6667 507.5 -33 520.5 C-14.3333 533.5 -1.33333 549 6 567 C13.3333 585 17 601.667 17 617 C17 641.667 10.6667 663.833 -2 683.5 C-14.6667 703.167 -29.6667 716.833 -47 724.5 C-64.3333 732.167 -80.3333 736 -95 736 L-95 736 Z M-98 661 C-86.6667 661 -77.5 657.167 -70.5 649.5 C-63.5 641.838 -60 631.672 -60 619 C-60 606.333 -63.5 596 -70.5 588 C-77.5 580 -86.6667 576 -98 576 C-109.333 576 -118.667 580 -126 588 C-133.333 596 -137 606.333 -137 619 C-137 631 -133.333 641 -126 649 C-118.667 657 -109.333 661 -98 661 L-98 661 Z " />
<glyph glyph-name="uni030B" unicode="&#x30b;" d="M-201 660 L-348 660 L-370 521 L-245 521 L-201 660 Z M-20 660 L-166 660 L-208 521 L-83 521 L-20 660 Z " />
<glyph glyph-name="uni030C" unicode="&#x30c;" d="M-113 660 L-151 586 L-187 660 L-295 660 L-220 512 L-87 512 L-4 660 L-113 660 Z " />
<glyph glyph-name="uni0326" unicode="&#x326;" d="M-189 -58 L-174 -158 L-195 -229 L-117 -229 L-86 -177 C-74 -157.667 -66.3333 -138.667 -63 -120 C-59.6667 -101.333 -62.1667 -86.3333 -70.5 -75 C-78.8333 -63.6667 -89 -56 -101 -52 C-113 -48 -126.833 -46.5 -142.5 -47.5 C-158.167 -48.5 -173.667 -52 -189 -58 L-189 -58 Z " />
<glyph glyph-name="uni0327" unicode="&#x327;" d="M-101 21 L-192 21 L-193 -45 C-193 -47.6667 -192.5 -51.3334 -191.5 -56 C-190.5 -60.6667 -187.833 -65.5 -183.5 -70.5 C-179.167 -75.5 -171 -80.8333 -159 -86.5 C-147 -92.1667 -139.333 -96.5 -136 -99.5 C-132.667 -102.5 -131 -106.333 -131 -111 C-131 -119 -136.333 -125 -147 -129 C-157.667 -133 -170.667 -135 -186 -135 L-202 -135 L-205 -215 C-196.333 -217.667 -180 -219 -156 -219 C-64 -219 -18 -187.333 -18 -124 C-18 -111.333 -19.5 -101.167 -22.5 -93.5 C-25.5 -85.8332 -28.6667 -79.6665 -32 -75 C-35.3333 -70.3333 -39.5 -65.8333 -44.5 -61.5 C-49.5 -57.1667 -58.1667 -51.5 -70.5 -44.5 C-82.8333 -37.5 -91 -30.6667 -95 -24 C-99 -17.3333 -101 -10 -101 -2 L-101 21 Z " />
<glyph glyph-name="uni0328" unicode="&#x328;" d="M-163 1 C-191 -35 -209 -62.5 -217 -81.5 C-225 -100.5 -229 -118.333 -229 -135 C-229 -156.333 -223.667 -173.333 -213 -186 C-202.333 -198.667 -188.167 -208 -170.5 -214 C-152.833 -220 -133.333 -223 -112 -223 C-96 -223 -81.5 -222 -68.5 -220 C-55.5 -218 -47 -215.667 -43 -213 L-55 -134 C-68.3334 -136.667 -80.6667 -138 -92 -138 C-102.667 -138 -110.333 -135.167 -115 -129.5 C-119.667 -123.833 -122 -118.666 -122 -114 C-122 -103.333 -115 -87.6666 -101 -67 C-87 -46.3333 -70.3333 -24 -51 0 L-163 1 Z " />
<glyph glyph-name="Delta" unicode="&#x394;" horiz-adv-x="624" d="M402 660 L252 660 L-18 0 L638 0 L402 660 Z M326 517 L455 116 L173 116 L326 517 Z " />
<glyph glyph-name="Omega" unicode="&#x3a9;" horiz-adv-x="754" d="M707 350 C707 394.666 699.333 436.833 684 476.5 C668.667 516.167 646.667 550.667 618 580 C589.333 609.333 555 632 515 648 C475 664 431.667 672 385 672 C337.667 672 293.833 663.667 253.5 647 C213.167 630.333 178.5 607 149.5 577 C120.5 547 98.3333 511.167 83 469.5 C67.6667 427.833 60.0001 383 60 335 C60 281.667 69.5 235.167 88.5 195.5 C107.5 155.833 132.333 126.667 163 108 L84 108 L81 0 L331 0 L333 132 C298.333 137.333 269.833 156.333 247.5 189 C225.167 221.667 214 266 214 322 C214 394.667 228.5 450 257.5 488 C286.5 526 328 545 382 545 C435.333 545 476.667 526.167 506 488.5 C535.333 450.833 550 396.667 550 326 C550 293.333 546 265 538 241 C530 217 519.333 197.333 506 182 C492.668 166.667 478.334 155 463 147 C447.667 139 433.667 134 421 132 L419 0 L675 0 L677 108 L599 108 C671 172.667 707 253.333 707 350 L707 350 Z " />
<glyph glyph-name="mu" unicode="&#x3bc;" horiz-adv-x="490" d="M319 446 L314 166 C313.333 144.667 306.833 127.833 294.5 115.5 C282.167 103.167 265 97 243 97 C230.333 97 218 99.5 206 104.5 C194 109.5 184.333 116.667 177 126 L182 446 L44 446 L34 -219 L171 -219 L175 30 C187.667 16 202 5.83333 218 -0.5 C234 -6.83333 253.667 -10 277 -10 C331 -10 373 3 403 29 C433 55 448.333 92 449 140 L453 446 L319 446 Z " />
<glyph glyph-name="pi" unicode="&#x3c0;" horiz-adv-x="659" d="M627 446 L16 446 L14 322 L107 322 L102 0 L242 0 L245 322 L394 322 L389 0 L528 0 L532 322 L624 322 L627 446 Z " />
<glyph glyph-name="Wgrave" unicode="&#x1e80;" horiz-adv-x="933" d="M525 697 L497 829 L347 829 L396 697 L525 697 Z M742 660 L664 177 L576 660 L356 660 L260 180 L196 660 L14 660 L128 0 L356 0 L449 487 L538 0 L764 0 L929 660 L742 660 Z " />
<glyph glyph-name="wgrave" unicode="&#x1e81;" horiz-adv-x="826" d="M476 521 L445 660 L299 660 L351 521 L476 521 Z M642 446 L582 121 L537 446 L300 446 L242 117 L187 446 L1 446 L112 0 L349 0 L407 313 L460 0 L695 0 L828 446 L642 446 Z " />
<glyph glyph-name="Wacute" unicode="&#x1e82;" horiz-adv-x="933" d="M579 830 L429 830 L401 698 L530 698 L579 830 Z M742 660 L664 177 L576 660 L356 660 L260 180 L196 660 L14 660 L128 0 L356 0 L449 487 L538 0 L764 0 L929 660 L742 660 Z " />
<glyph glyph-name="wacute" unicode="&#x1e83;" horiz-adv-x="826" d="M541 660 L398 660 L366 521 L487 521 L541 660 Z M642 446 L582 121 L537 446 L300 446 L242 117 L187 446 L1 446 L112 0 L349 0 L407 313 L460 0 L695 0 L828 446 L642 446 Z " />
<glyph glyph-name="Wdieresis" unicode="&#x1e84;" horiz-adv-x="933" d="M351 687 C374.333 687 394.5 695.667 411.5 713 C428.5 730.333 437 750.333 437 773 C437 796.333 428.5 816.5 411.5 833.5 C394.5 850.5 374.333 859 351 859 C327.667 859 307.5 850.5 290.5 833.5 C273.5 816.5 265 796.333 265 773 C265 756.336 270 740.669 280 726 C290 711.339 301.667 701.172 315 695.5 C328.333 689.833 340.333 687 351 687 L351 687 Z M571 687 C588.331 687 604.164 692 618.5 702 C632.833 712 642.833 723.667 648.5 737 C654.167 750.333 657 762.333 657 773 C657 797 648.667 817.333 632 834 C615.333 850.667 595 859 571 859 C560.333 859 548.5 856.167 535.5 850.5 C522.5 844.833 511 834.833 501 820.5 C491 806.167 486 790.333 486 773 C486 756.333 491 740.833 501 726.5 C511 712.167 522.5 702 535.5 696 C548.5 690 560.333 687 571 687 L571 687 Z M742 660 L664 177 L576 660 L356 660 L260 180 L196 660 L14 660 L128 0 L356 0 L449 487 L538 0 L764 0 L929 660 L742 660 Z " />
<glyph glyph-name="wdieresis" unicode="&#x1e85;" horiz-adv-x="826" d="M315 506 C338.333 506 358.5 514.333 375.5 531 C392.5 547.667 401 567.333 401 590 C401 613.333 392.667 633.333 376 650 C359.333 666.667 339 675 315 675 C292.333 675 272.667 666.667 256 650 C239.333 633.333 231 613.333 231 590 C231 567.335 239.5 547.669 256.5 531 C273.5 514.335 293 506.002 315 506 L315 506 Z M526 506 C542.667 506 558.167 510.833 572.5 520.5 C586.832 530.167 596.666 541.5 602 554.5 C607.333 567.5 610 579.333 610 590 C610 613.333 601.833 633.333 585.5 650 C569.167 666.667 549.333 675 526 675 C503.333 675 483.333 666.667 466 650 C448.667 633.333 440 613.333 440 590 C440 573.333 445 558 455 544 C465 530 476.667 520.167 490 514.5 C503.333 508.833 515.333 506 526 506 L526 506 Z M642 446 L582 121 L537 446 L300 446 L242 117 L187 446 L1 446 L112 0 L349 0 L407 313 L460 0 L695 0 L828 446 L642 446 Z " />
<glyph glyph-name="Ygrave" unicode="&#x1ef2;" horiz-adv-x="641" d="M396 697 L368 829 L218 829 L267 697 L396 697 Z M445 660 L325 439 L215 660 L4 660 L223 264 L218 0 L412 0 L416 264 L647 660 L445 660 Z " />
<glyph glyph-name="ygrave" unicode="&#x1ef3;" horiz-adv-x="509" d="M321 521 L290 660 L144 660 L196 521 L321 521 Z M334 446 L256 117 L190 446 L-10 446 L150 -15 C126 -37 90.6667 -58.3333 44 -79 L16 -91 L80 -239 C148.667 -215 204.333 -183.5 247 -144.5 C289.667 -105.5 323.667 -55.3333 349 6 L531 446 L334 446 Z " />
<glyph glyph-name="uni2009" unicode="&#x2009;" horiz-adv-x="50" d="" />
<glyph glyph-name="figuredash" unicode="&#x2012;" horiz-adv-x="689" d="M33 300 L31 177 L502 177 L505 300 L33 300 Z " />
<glyph glyph-name="endash" unicode="&#x2013;" horiz-adv-x="541" d="M36 300 L34 177 L505 177 L508 300 L36 300 Z " />
<glyph glyph-name="emdash" unicode="&#x2014;" horiz-adv-x="978" d="M36 300 L34 177 L943 177 L945 300 L36 300 Z " />
<glyph glyph-name="quoteleft" unicode="&#x2018;" horiz-adv-x="300" d="M245 368 L222 530 L253 668 L147 668 L76 509 C60.6667 479 55 451.833 59 427.5 C63 403.167 74.1667 384.167 92.5 370.5 C110.833 356.833 133.833 349.667 161.5 349 C189.167 348.333 217 354.667 245 368 L245 368 Z " />
<glyph glyph-name="quoteright" unicode="&#x2019;" horiz-adv-x="300" d="M64 653 L87 491 L56 353 L162 353 L233 512 C248.333 542 254 569.167 250 593.5 C246 617.833 234.833 636.833 216.5 650.5 C198.167 664.167 175.167 671.333 147.5 672 C119.833 672.667 92 666.333 64 653 L64 653 Z " />
<glyph glyph-name="quotesinglbase" unicode="&#x201a;" horiz-adv-x="300" d="M55 179 L78 17 L47 -121 L153 -121 L224 38 C239.333 68 245 95.1667 241 119.5 C237 143.833 225.833 162.833 207.5 176.5 C189.167 190.167 166.167 197.333 138.5 198 C110.833 198.667 83 192.333 55 179 L55 179 Z " />
<glyph glyph-name="quotedblleft" unicode="&#x201c;" horiz-adv-x="526" d="M247 369 L224 531 L255 669 L149 669 L78 510 C62.6667 480 57 452.833 61 428.5 C65 404.167 76.1667 385.167 94.5 371.5 C112.833 357.833 135.833 350.667 163.5 350 C191.167 349.333 219 355.667 247 369 L247 369 Z M473 368 L450 530 L481 668 L375 668 L304 509 C288.667 479 283 451.833 287 427.5 C291 403.167 302.167 384.167 320.5 370.5 C338.833 356.833 361.833 349.667 389.5 349 C417.167 348.333 445 354.667 473 368 L473 368 Z " />
<glyph glyph-name="quotedblright" unicode="&#x201d;" horiz-adv-x="525" d="M64 653 L87 491 L56 353 L162 353 L233 512 C248.333 542 254 569.167 250 593.5 C246 617.833 234.833 636.833 216.5 650.5 C198.167 664.167 175.167 671.333 147.5 672 C119.833 672.667 92 666.333 64 653 L64 653 Z M289 653 L312 491 L281 353 L387 353 L458 512 C473.333 542 479 569.167 475 593.5 C471 617.833 459.833 636.833 441.5 650.5 C423.167 664.167 400.167 671.333 372.5 672 C344.833 672.667 317 666.333 289 653 L289 653 Z " />
<glyph glyph-name="quotedblbase" unicode="&#x201e;" horiz-adv-x="526" d="M55 179 L78 17 L47 -121 L153 -121 L224 38 C239.333 68 245 95.1667 241 119.5 C237 143.833 225.833 162.833 207.5 176.5 C189.167 190.167 166.167 197.333 138.5 198 C110.833 198.667 83 192.333 55 179 L55 179 Z M282 179 L305 17 L274 -121 L380 -121 L451 38 C466.333 68 472 95.1667 468 119.5 C464 143.833 452.833 162.833 434.5 176.5 C416.167 190.167 393.167 197.333 365.5 198 C337.833 198.667 310 192.333 282 179 L282 179 Z " />
<glyph glyph-name="dagger" unicode="&#x2020;" horiz-adv-x="676" d="M620 446 L417 446 L420 660 L269 660 L266 446 L60 446 L58 311 L263 311 L255 -203 L406 -203 L414 311 L617 311 L620 446 Z " />
<glyph glyph-name="daggerdbl" unicode="&#x2021;" horiz-adv-x="676" d="M617 315 L620 446 L411 446 L414 660 L269 660 L266 446 L60 446 L58 315 L264 315 L261 145 L57 145 L54 18 L259 18 L256 -203 L400 -203 L404 18 L612 18 L614 145 L406 145 L408 315 L617 315 Z " />
<glyph glyph-name="bullet" unicode="&#x2022;" horiz-adv-x="472" d="M370 242 C370 258 365.833 276 357.5 296 C349.167 316 334.334 333.333 313 348 C291.667 362.667 267.667 370 241 370 C215.667 370 192.167 362.833 170.5 348.5 C148.833 334.167 133.667 317 125 297 C116.333 277 112 258.667 112 242 C112 225.333 116.333 206.833 125 186.5 C133.667 166.167 148.833 148.667 170.5 134 C192.167 119.333 215.667 112 241 112 C277 112 307.5 124.667 332.5 150 C357.5 175.333 370 206 370 242 L370 242 Z " />
<glyph glyph-name="ellipsis" unicode="&#x2026;" horiz-adv-x="1093" d="M188 200 C166 200 146.167 194 128.5 182 C110.833 170 98.5 155.333 91.5 138 C84.5 120.667 81 105 81 91 C81 69.6667 87 50 99 32 C111 14 125.333 1.66667 142 -5 C158.667 -11.6667 174 -15 188 -15 C209.333 -15 228.833 -9.16667 246.5 2.5 C264.167 14.1667 276.5 28.3333 283.5 45 C290.5 61.6667 294 77 294 91 C294 121.667 283.833 147.5 263.5 168.5 C243.167 189.5 218 200 188 200 L188 200 Z M544 200 C522 200 502.167 194 484.5 182 C466.833 170 454.5 155.333 447.5 138 C440.5 120.667 437 105 437 91 C437 69.6667 443 50 455 32 C467 14 481.333 1.66667 498 -5 C514.667 -11.6667 530 -15 544 -15 C565.333 -15 584.833 -9.16667 602.5 2.5 C620.167 14.1667 632.5 28.3333 639.5 45 C646.5 61.6667 650 77 650 91 C650 121.667 639.833 147.5 619.5 168.5 C599.167 189.5 574 200 544 200 L544 200 Z M900 200 C878 200 858.167 194 840.5 182 C822.833 170 810.5 155.333 803.5 138 C796.5 120.667 793 105 793 91 C793 69.6667 799 50 811 32 C823 14 837.333 1.66667 854 -5 C870.667 -11.6667 886 -15 900 -15 C921.333 -15 940.833 -9.16667 958.5 2.5 C976.167 14.1667 988.5 28.3333 995.5 45 C1002.5 61.6667 1006 77 1006 91 C1006 121.667 995.833 147.5 975.5 168.5 C955.167 189.5 930 200 900 200 L900 200 Z " />
<glyph glyph-name="perthousand" unicode="&#x2030;" horiz-adv-x="1315" d="M195 671 C143 671 101.5 654.5 70.5 621.5 C39.5 588.5 24 544 24 488 C24 434 39 391.333 69 360 C99 328.667 140 313 192 313 C244.667 313 286.5 329.167 317.5 361.5 C348.5 393.833 364 437.333 364 492 C364 546.667 348.833 590.167 318.5 622.5 C288.167 654.833 247 671 195 671 L195 671 Z M265 0 L760 660 L626 660 L139 0 L265 0 Z M195 409 C175.667 409 160.667 416.333 150 431 C139.333 445.667 134 466 134 492 C134 517.333 139.333 537 150 551 C160.667 565 176.333 572 197 572 C235 572 254 546.333 254 495 C254 467 248.833 445.667 238.5 431 C228.167 416.333 213.667 409 195 409 L195 409 Z M731 351 C679 351 637.5 334.5 606.5 301.5 C575.5 268.5 560 224 560 168 C560 114 575 71.3333 605 40 C635 8.66667 676 -7 728 -7 C780.667 -7 822.5 9.16666 853.5 41.5 C884.5 73.8333 900 117.333 900 172 C900 226.667 884.833 270.167 854.5 302.5 C824.167 334.833 783 351 731 351 L731 351 Z M1121 351 C1069 351 1027.5 334.5 996.5 301.5 C965.5 268.5 950 224 950 168 C950 114 965 71.3333 995 40 C1025 8.66667 1066 -7 1118 -7 C1170.67 -7 1212.5 9.16666 1243.5 41.5 C1274.5 73.8333 1290 117.333 1290 172 C1290 226.667 1274.83 270.167 1244.5 302.5 C1214.17 334.833 1173 351 1121 351 L1121 351 Z M731 89 C711.667 89 696.667 96.3333 686 111 C675.333 125.667 670 146 670 172 C670 197.333 675.333 217 686 231 C696.667 245 712.333 252 733 252 C771 252 790 226.333 790 175 C790 147 784.833 125.667 774.5 111 C764.167 96.3333 749.667 89 731 89 L731 89 Z M1121 89 C1101.67 89 1086.67 96.3333 1076 111 C1065.33 125.667 1060 146 1060 172 C1060 197.333 1065.33 217 1076 231 C1086.66 245 1102.32 252 1123 252 C1161 252 1180 226.333 1180 175 C1180 147 1174.83 125.667 1164.5 111 C1154.17 96.3333 1139.67 89 1121 89 L1121 89 Z " />
<glyph glyph-name="guilsinglleft" unicode="&#x2039;" horiz-adv-x="422" d="M350 422 L179 422 L75 251 L172 83 L337 83 L238 252 L350 422 Z " />
<glyph glyph-name="guilsinglright" unicode="&#x203a;" horiz-adv-x="422" d="M250 422 L84 422 L183 250 L72 83 L242 83 L347 251 L250 422 Z " />
<glyph glyph-name="fraction" unicode="&#x2044;" horiz-adv-x="177" d="M-94 0 L401 660 L267 660 L-220 0 L-94 0 Z " />
<glyph glyph-name="uni2070" unicode="&#x2070;" horiz-adv-x="389" d="M195 671 C143 671 101.5 654.5 70.5 621.5 C39.5 588.5 24 544 24 488 C24 434 39 391.333 69 360 C99 328.667 140 313 192 313 C244.667 313 286.5 329.167 317.5 361.5 C348.5 393.833 364 437.333 364 492 C364 546.667 348.833 590.167 318.5 622.5 C288.167 654.833 247 671 195 671 L195 671 Z M195 409 C175.667 409 160.667 416.333 150 431 C139.333 445.667 134 466 134 492 C134 517.333 139.333 537 150 551 C160.667 565 176.333 572 197 572 C235 572 254 546.333 254 495 C254 467 248.833 445.667 238.5 431 C228.167 416.333 213.667 409 195 409 L195 409 Z " />
<glyph glyph-name="uni2074" unicode="&#x2074;" horiz-adv-x="397" d="M380 447 L311 447 L315 661 L187 661 L22 455 L20 376 L201 376 L200 320 L309 320 L310 376 L379 376 L380 447 Z M212 572 L210 447 L120 447 L212 572 Z " />
<glyph glyph-name="uni2075" unicode="&#x2075;" horiz-adv-x="303" d="M151 523 L152 579 L272 579 L275 661 L52 661 L47 453 C93 453.667 125.167 452 143.5 448 C161.833 444 171 436 171 424 C171 414 167 407.667 159 405 C151 402.333 140 401 126 401 C106 401 78 404.333 42 411 L29 326 C75 317.333 114.333 313 147 313 C239 313 285 351 285 427 C285 463.667 273.833 489 251.5 503 C229.167 517 195.667 523.667 151 523 L151 523 Z " />
<glyph glyph-name="uni2076" unicode="&#x2076;" horiz-adv-x="335" d="M207 532 C188.333 532 167 529 143 523 C147.667 547.667 158.5 565.5 175.5 576.5 C192.5 587.5 228.667 588.667 284 580 L299 665 C243.667 674.333 195.667 672.833 155 660.5 C114.333 648.167 83 627 61 597 C39 567 28 528.333 28 481 C28 427.667 41.5 386.5 68.5 357.5 C95.5 328.5 132 314 178 314 C208 314 234.333 320.667 257 334 C279.667 347.333 295.167 363.667 303.5 383 C311.833 402.333 316 420 316 436 C316 467.333 305.5 491.167 284.5 507.5 C263.5 523.833 237.667 532 207 532 L207 532 Z M177 400 C153.667 400 141 421.333 139 464 L175 467 C189.667 467 199.333 464.5 204 459.5 C208.667 454.5 211 448 211 440 C211 426.667 207.667 416.667 201 410 C194.333 403.333 186.333 400 177 400 L177 400 Z " />
<glyph glyph-name="uni2077" unicode="&#x2077;" horiz-adv-x="307" d="M22 661 L20 570 L164 570 L20 320 L146 320 L293 595 L296 661 L22 661 Z " />
</font>
</svg>
