<?xml version="1.0" encoding="UTF-8"?>
<svg xmlns="http://www.w3.org/2000/svg" xmlns:xlink="http://www.w3.org/1999/xlink" version="1.2" >
<font id="abc Allegra W00 Book">
<font-face  font-family="abcAllegraW00-Book" units-per-em="1000" ascent="874" descent="-265" font-style="normal" font-weight="450" font-stretch="normal" cap-height="660" x-height="446" underline-position="-100" underline-thickness="50" />
<missing-glyph  horiz-adv-x="500" d="M410 735 L93 735 L93 -265 L410 -265 L410 735 Z M333 668 L333 635 L267 635 L267 598 L333 598 L333 565 L167 565 L167 598 L233 598 L233 635 L168 635 L168 668 L333 668 Z M267 539 L267 469 L333 469 L333 435 L167 435 L167 539 L267 539 Z M233 505 L200 505 L200 469 L233 469 L233 505 Z M333 408 L333 375 L267 375 L267 305 L167 305 L167 338 L233 338 L233 375 L167 375 L167 408 L333 408 Z M333 348 L333 248 L167 248 L167 282 L300 282 L300 348 L333 348 Z M333 226 L333 113 L167 113 L167 226 L200 226 L200 146 L300 146 L300 193 L267 193 L267 170 L233 170 L233 226 L333 226 Z M333 53 L333 -60 L167 -60 L167 53 L333 53 Z M300 20 L200 20 L200 -27 L300 -27 L300 20 Z M333 -83 L333 -116 L301 -116 L231 -163 L333 -163 L333 -196 L167 -196 L167 -163 L237 -116 L167 -116 L167 -83 L333 -83 Z " />
<glyph glyph-name="NULL" d="" />
<glyph glyph-name="CR" unicode="&#xd;" horiz-adv-x="250" d="" />
<glyph glyph-name="space" unicode="&#x20;" horiz-adv-x="185" d="" />
<glyph glyph-name="exclam" unicode="&#x21;" horiz-adv-x="384" d="M240 635 L152 635 L144 188 L233 188 L240 635 Z M248 49 C248 66.3333 242.167 80.8333 230.5 92.5 C218.833 104.167 204.333 110 187 110 C170.333 110 156 104.167 144 92.5 C132 80.8333 126 66.3333 126 49 C126 32.3333 132 18 144 6 C156 -6 170.333 -12 187 -12 C204.333 -12 218.833 -6 230.5 6 C242.167 18 248 32.3333 248 49 L248 49 Z " />
<glyph glyph-name="quotedbl" unicode="&#x22;" horiz-adv-x="408" d="M105 660 L100 412 L167 412 L172 660 L105 660 Z M252 660 L247 412 L314 412 L318 660 L252 660 Z " />
<glyph glyph-name="numbersign" unicode="&#x23;" horiz-adv-x="597" d="M554 398 L566 458 L465 458 L505 660 L439 660 L399 458 L266 458 L306 660 L241 660 L201 458 L98 458 L87 398 L189 398 L162 265 L60 265 L48 205 L151 205 L110 0 L175 0 L216 205 L349 205 L308 0 L374 0 L414 205 L517 205 L528 265 L426 265 L453 398 L554 398 Z M228 265 L254 398 L387 398 L360 265 L228 265 Z " />
<glyph glyph-name="dollar" unicode="&#x24;" horiz-adv-x="456" d="M404 127 C404 151 396.167 175 380.5 199 C364.833 223 328 254.333 270 293 L255 303 L259 489 C293.667 487 330 480.333 368 469 L384 536 C347.333 550 306 558 260 560 L261 615 L201 615 L200 558 C166.667 554 138.333 544.667 115 530 C91.6667 515.333 76 498.167 68 478.5 C60 458.833 56 439.667 56 421 C56 411.668 57.6667 399.835 61 385.5 C64.3333 371.167 73.8333 354 89.5 334 C105.167 314 139.667 287 193 253 L189 62 C153 66 111.667 75 65 89 L47 18 C98.3333 1.33333 145.333 -8.33333 188 -11 L186 -68 L247 -68 L248 -10 C298.667 -6 337.333 7.83333 364 31.5 C390.667 55.1667 404 87 404 127 L404 127 Z M135 421 C135 455 156.333 476 199 484 L195 342 C169.667 359.333 153.333 374 146 386 C138.667 398 135 409.667 135 421 L135 421 Z M250 63 L253 215 C279.667 197.667 298.5 182.167 309.5 168.5 C320.5 154.834 326 140.667 326 126 C326 108.667 319.5 94.5 306.5 83.5 C293.5 72.5 274.667 65.6667 250 63 L250 63 Z " />
<glyph glyph-name="percent" unicode="&#x25;" horiz-adv-x="860" d="M187 669 C140.333 669 104.5 653.833 79.5 623.5 C54.5 593.167 42 549 42 491 C42 433.667 54 390 78 360 C102 330 137.333 315 184 315 C230.667 315 266.5 330.333 291.5 361 C316.5 391.667 329 436 329 494 C329 550.667 316.833 594 292.5 624 C268.167 654 233 669 187 669 L187 669 Z M206 0 L705 660 L629 660 L129 0 L206 0 Z M184 373 C158 373 138.833 382.333 126.5 401 C114.167 419.667 108 449 108 489 C108 570.333 134.333 611 187 611 C238.333 611 264 571.667 264 493 C264 413 237.333 373 184 373 L184 373 Z M680 349 C633.333 349 597.5 333.833 572.5 303.5 C547.5 273.167 535 229 535 171 C535 113.667 547 70 571 40 C595 10 630.333 -5 677 -5 C723.667 -5 759.5 10.3333 784.5 41 C809.5 71.6667 822 116 822 174 C822 230.667 809.833 274 785.5 304 C761.167 334 726 349 680 349 L680 349 Z M677 53 C651 53 631.833 62.3333 619.5 81 C607.167 99.6667 601 129 601 169 C601 250.333 627.333 291 680 291 C731.333 291 757 251.667 757 173 C757 93 730.333 53 677 53 L677 53 Z " />
<glyph glyph-name="ampersand" unicode="&#x26;" horiz-adv-x="718" d="M693 364 L319 364 C291 364 267.5 369 248.5 379 C229.5 389 215.167 403.167 205.5 421.5 C195.833 439.833 191 461.333 191 486 C191 522.667 201.667 550 223 568 C244.333 586 277.333 595 322 595 C362 595 404.333 590 449 580 L462 650 C406.667 662 359 668 319 668 C251.667 668 199.833 652.333 163.5 621 C127.167 589.667 109 546 109 490 C109 454 116 424 130 400 C144 376 159.833 359.5 177.5 350.5 C195.167 341.5 210 337 222 337 L222 335 C194 334.333 168.667 326.667 146 312 C123.333 297.333 106.5 277.667 95.5 253 C84.5 228.333 79 199.667 79 167 C79 109 96.6666 65 132 35 C167.333 5 225 -10 305 -10 C369.667 -10 440 -3.66667 516 9 L521 295 L691 295 L693 364 Z M436 70 C376 64 332.667 61 306 61 C256 61 219.833 69 197.5 85 C175.167 101 164 129.667 164 171 C164 212.333 174.333 243.333 195 264 C215.667 284.667 245.667 295 285 295 L439 295 L436 70 Z " />
<glyph glyph-name="quotesingle" unicode="&#x27;" horiz-adv-x="260" d="M105 660 L100 412 L167 412 L172 660 L105 660 Z " />
<glyph glyph-name="parenleft" unicode="&#x28;" horiz-adv-x="303" d="M273 728 L196 735 C164.667 663 138.167 582.333 116.5 493 C94.8333 403.667 84 322 84 248 C84 203.333 86.3333 160.667 91 120 C95.6667 79.3333 100.5 45.6667 105.5 19 C110.5 -7.66667 115.5 -32.3333 120.5 -55 C125.5 -77.6667 131.333 -99.8333 138 -121.5 C144.667 -143.167 150.5 -162 155.5 -178 C160.5 -194 165.667 -209 171 -223 C176.333 -237 179 -244.333 179 -245 L257 -239 C256.333 -237 253.167 -228.5 247.5 -213.5 C241.834 -198.5 235.168 -179.667 227.5 -157 C219.833 -134.333 210.5 -103.5 199.5 -64.5 C188.5 -25.5 178.667 21.8333 170 77.5 C161.333 133.167 157 189.667 157 247 C157 279.666 158.833 310.333 162.5 339 C166.167 367.666 170.333 393.833 175 417.5 C179.667 441.167 185.333 466.167 192 492.5 C198.667 518.833 205.667 543.333 213 566 C220.333 588.667 226.5 607 231.5 621 C236.5 635 241.667 649 247 663 C252.333 677 258 691.167 264 705.5 C270 719.833 273 727.333 273 728 L273 728 Z " />
<glyph glyph-name="parenright" unicode="&#x29;" horiz-adv-x="303" d="M31 -238 L108 -245 C139.333 -173 165.833 -92.5 187.5 -3.5 C209.167 85.5 220 167 220 241 C220 253 219.333 275 218 307 C216.667 339 212.667 378.667 206 426 C199.333 473.333 190.833 516.667 180.5 556 C170.167 595.332 161.333 626.665 154 650 C146.667 673.333 140.167 693 134.5 709 C128.833 725 125.667 733.667 125 735 L47 729 C47.6667 727 50.8333 718.5 56.5 703.5 C62.1667 688.5 68.8333 669.667 76.5 647 C84.1667 624.333 93.5 593.333 104.5 554 C115.5 514.667 125.333 467.167 134 411.5 C142.667 355.833 147 299.333 147 242 C147 203.333 144.167 165.167 138.5 127.5 C132.833 89.8333 126.5 56.3333 119.5 27 C112.5 -2.33333 105.5 -28.5 98.5 -51.5 C91.5 -74.5 84.5 -96.5 77.5 -117.5 C70.5 -138.5 55 -178.667 31 -238 L31 -238 Z " />
<glyph glyph-name="asterisk" unicode="&#x2a;" horiz-adv-x="494" d="M294 462 C301.333 462.667 312.333 465 327 469 L433 503 L414 559 L311 526 L277 514 C279 525.329 280 536.663 280 548 L281 659 L222 659 L221 550 C221 533.333 221.667 521 223 513 C210.334 520.333 199.667 525 191 527 L86 562 L67 506 L171 471 L205 462 C194.334 451.333 186.667 442.667 182 436 L117 347 L165 313 L229 400 L249 430 L267 400 L331 310 L379 345 L316 434 L294 462 Z " />
<glyph glyph-name="plus" unicode="&#x2b;" horiz-adv-x="670" d="M576 276 L374 276 L377 472 L305 472 L301 276 L97 276 L96 205 L299 205 L296 0 L369 0 L372 205 L575 205 L576 276 Z " />
<glyph glyph-name="comma" unicode="&#x2c;" horiz-adv-x="247" d="M65 102 L87 2 L53 -114 L108 -114 L171 5 C176.333 15 180.666 27.5 184 42.5 C187.333 57.5 185.5 71.8333 178.5 85.5 C171.5 99.1666 161.333 108.333 148 113 C134.667 117.667 121 119 107 117 C93 115 79 110 65 102 L65 102 Z " />
<glyph glyph-name="hyphen" unicode="&#x2d;" horiz-adv-x="414" d="M92 266 L90 195 L324 195 L325 266 L92 266 Z " />
<glyph glyph-name="period" unicode="&#x2e;" horiz-adv-x="239" d="M177 51 C177 68.3333 171.167 83 159.5 95 C147.833 107 133.333 113 116 113 C99.3333 113 85.1667 107 73.5 95 C61.8333 83 56 68.3333 56 51 C56 34.3333 62 20 74 8 C86 -4 100 -10 116 -10 C133.333 -10 147.833 -4 159.5 8 C171.167 20 177 34.3333 177 51 L177 51 Z " />
<glyph glyph-name="slash" unicode="&#x2f;" horiz-adv-x="390" d="M306 735 L21 -245 L94 -245 L381 735 L306 735 Z " />
<glyph glyph-name="zero" unicode="0" horiz-adv-x="560" d="M283 459 C211 459 154.667 437.833 114 395.5 C73.3333 353.167 53 295 53 221 C53 148.333 72.8333 91.3333 112.5 50 C152.167 8.66667 207.333 -12 278 -12 C349.333 -12 405.5 8.83333 446.5 50.5 C487.5 92.1667 508 150.333 508 225 C508 298.333 488.167 355.667 448.5 397 C408.833 438.333 353.667 459 283 459 L283 459 Z M282 387 C326 387 360.167 372.667 384.5 344 C408.833 315.333 421 275.333 421 224 C421 172 408.667 131.667 384 103 C359.333 74.3333 324.667 60 280 60 C234.667 60 199.667 74.3333 175 103 C150.333 131.667 138 171.667 138 223 C138 274.333 150.833 314.5 176.5 343.5 C202.167 372.5 237.333 387 282 387 L282 387 Z " />
<glyph glyph-name="one" unicode="1" horiz-adv-x="332" d="M179 446 L10 412 L23 344 L160 372 L154 0 L237 0 L245 446 L179 446 Z " />
<glyph glyph-name="two" unicode="2" horiz-adv-x="376" d="M135 69 L247 182 C275 210 295.167 235.833 307.5 259.5 C319.833 283.167 326 306.667 326 330 C326 369.333 312.333 400.5 285 423.5 C257.667 446.5 220.667 458 174 458 C132 458 83 448.333 27 429 L47 361 C93 377.667 131 386 161 386 C187 386 207.5 380.333 222.5 369 C237.5 357.667 245 341.667 245 321 C245 303 239.333 286 228 270 C216.667 254 203.333 238 188 222 L23 55 L22 0 L337 0 L338 69 L135 69 Z " />
<glyph glyph-name="three" unicode="3" horiz-adv-x="423" d="M242 133 C262 137 281.333 146.833 300 162.5 C318.667 178.167 332 197.333 340 220 C348 242.667 352 266 352 290 C352 343.333 336.5 384.667 305.5 414 C274.5 443.333 230.333 458 173 458 C139 458 95 450 41 434 L60 364 C97.3333 377.333 131.667 384 163 384 C198.333 384 224.5 375.333 241.5 358 C258.5 340.667 267 314 267 278 C267 234.667 254 204.667 228 188 C202 171.333 157 164 93 166 L92 95 C146 95 185.5 91 210.5 83 C235.5 75 253 62.8333 263 46.5 C273 30.1667 278 8 278 -20 C278 -63.3333 267.333 -95.5 246 -116.5 C224.667 -137.5 192.333 -148 149 -148 C115 -148 79 -142.333 41 -131 L25 -203 C73 -216.333 116.333 -223 155 -223 C217.667 -223 268 -204.5 306 -167.5 C344 -130.5 363 -82.3333 363 -23 C363 8.33334 357.667 34.8333 347 56.5 C336.333 78.1667 321.667 95.5 303 108.5 C284.333 121.5 264 129.667 242 133 L242 133 Z " />
<glyph glyph-name="four" unicode="4" horiz-adv-x="526" d="M492 70 L393 70 L400 446 L318 446 L29 57 L28 0 L311 0 L307 -211 L388 -211 L392 0 L491 0 L492 70 Z M319 332 L314 70 L124 70 L319 332 Z " />
<glyph glyph-name="five" unicode="5" horiz-adv-x="434" d="M156 164 L160 371 L381 371 L382 446 L80 446 L74 90 C154 96 209.5 94.3333 240.5 85 C271.5 75.6667 291.667 62.1667 301 44.5 C310.333 26.8333 315 5.33333 315 -20 C315 -65.3333 303.167 -98 279.5 -118 C255.833 -138 221 -148 175 -148 C137.667 -148 99.6667 -143.333 61 -134 L48 -208 C93.3333 -218 135.667 -223 175 -223 C220.333 -223 259.333 -215 292 -199 C324.667 -183 350.667 -159.333 370 -128 C389.333 -96.6667 399 -58 399 -12 C399 51.3333 378.833 97.3333 338.5 126 C298.167 154.667 237.333 167.333 156 164 L156 164 Z " />
<glyph glyph-name="six" unicode="6" horiz-adv-x="488" d="M282 394 C258.667 394 234.167 389.667 208.5 381 C182.833 372.333 158.333 360.333 135 345 C143.667 425.667 168.5 488 209.5 532 C250.5 576 304 598 370 598 C389.333 598 410.667 596.333 434 593 L443 665 C421 669.667 395.667 672 367 672 C323.667 672 282.667 663.5 244 646.5 C205.333 629.5 171.333 604.167 142 570.5 C112.667 536.834 89.6667 495 73 445 C56.3333 395 48 339 48 277 C48 221.667 54.3333 175.5 67 138.5 C79.6667 101.5 96 72.1667 116 50.5 C136 28.8333 158.5 13.6667 183.5 5 C208.5 -3.66667 233.667 -8 259 -8 C317 -8 363.333 11 398 49 C432.667 87 450 137.667 450 201 C450 262.333 435.333 309.833 406 343.5 C376.667 377.167 335.333 394 282 394 L282 394 Z M258 63 C217.333 63 186.333 81.8333 165 119.5 C143.667 157.167 132.667 209.333 132 276 C180 307.333 223.333 323 262 323 C296 323.668 322.167 312.335 340.5 289 C358.833 265.667 368 233.333 368 192 C368 162 362.5 136.667 351.5 116 C340.5 95.3333 326.333 81.3333 309 74 C291.667 66.6667 274.667 63 258 63 L258 63 Z " />
<glyph glyph-name="seven" unicode="7" horiz-adv-x="429" d="M34 446 L33 373 L303 373 L40 -211 L132 -211 L405 408 L406 446 L34 446 Z " />
<glyph glyph-name="eight" unicode="8" horiz-adv-x="522" d="M324 338 C386.667 374.667 425.5 405.167 440.5 429.5 C455.5 453.833 463 479.667 463 507 C463 557 446 596.333 412 625 C378 653.667 331.333 668 272 668 C214 668 167 652.167 131 620.5 C95 588.833 77 547.333 77 496 C77 462.667 85.3333 435.5 102 414.5 C118.667 393.5 150.667 368 198 338 C133.333 298.667 92.6667 266 76 240 C59.3333 214 51 184.333 51 151 C51 120.333 57.6667 94.3333 71 73 C84.3333 51.6667 101 34.6667 121 22 C141 9.33333 163 0.5 187 -4.5 C211 -9.5 234.333 -12 257 -12 C296.333 -12 330 -6.33333 358 5 C386 16.3333 408.333 30.5 425 47.5 C441.667 64.5 453.333 83.1667 460 103.5 C466.667 123.833 470 143.333 470 162 C470 180 467 198 461 216 C455 234 441.833 252.167 421.5 270.5 C401.167 288.833 368.667 311.333 324 338 L324 338 Z M157 497 C157 529 167.167 554.333 187.5 573 C207.833 591.667 236 601 272 601 C306 601 333 592.333 353 575 C373 557.667 383 534.333 383 505 C383 481 374.5 459.833 357.5 441.5 C340.5 423.167 309 401 263 375 C222.333 399.666 194.5 420.833 179.5 438.5 C164.5 456.167 157 475.667 157 497 L157 497 Z M261 56 C221.667 56 190.5 64.8333 167.5 82.5 C144.5 100.167 133 124.667 133 156 C133 182.667 143.333 206.333 164 227 C184.667 247.667 217.333 271.667 262 299 C312.667 267.667 346.5 242.833 363.5 224.5 C380.5 206.167 389 186.667 389 166 C389 143.333 383.5 123.667 372.5 107 C361.5 90.3333 346.833 77.6667 328.5 69 C310.167 60.3333 287.667 56 261 56 L261 56 Z " />
<glyph glyph-name="nine" unicode="9" horiz-adv-x="509" d="M244 458 C216.667 458 191.167 453.5 167.5 444.5 C143.833 435.5 123.5 422.333 106.5 405 C89.5 387.667 76.1667 365.834 66.5 339.5 C56.8333 313.167 52 283.667 52 251 C52 191 67 143.667 97 109 C127 74.3333 167 57 217 57 C241 57 266.167 61.5 292.5 70.5 C318.833 79.5 344 92.3333 368 109 C360.667 25.6667 336.5 -38.3333 295.5 -83 C254.5 -127.667 200 -150 132 -150 C110 -150 89 -148 69 -144 L59 -216 C82.3333 -220.667 107.333 -223 134 -223 C180.667 -223 223.833 -214 263.5 -196 C303.167 -178 337.167 -151.833 365.5 -117.5 C393.833 -83.1667 415.667 -41.6667 431 7 C446.333 55.6667 454 109.333 454 168 C454 230.667 445.833 283 429.5 325 C413.167 367 389.5 399.667 358.5 423 C327.5 446.333 289.333 458 244 458 L244 458 Z M132 255 C132 293.666 142 325.333 162 350 C182 374.667 208.667 387 242 387 C283.333 387 314.667 369 336 333 C357.333 297 368.667 245.333 370 178 C350 162.667 328.167 150.333 304.5 141 C280.833 131.667 258.667 127 238 127 C204 127 177.833 139.167 159.5 163.5 C141.167 187.833 132 218.333 132 255 L132 255 Z " />
<glyph glyph-name="colon" unicode="&#x3a;" horiz-adv-x="276" d="M202 398 C202 414.667 196.167 429 184.5 441 C172.833 453 158.333 459 141 459 C124.333 459 110.167 453 98.5 441 C86.8333 429 81 414.667 81 398 C81 380.667 86.8333 366 98.5 354 C110.167 342 124.333 336 141 336 C158.333 336 172.833 342 184.5 354 C196.167 366 202 380.667 202 398 L202 398 Z M196 51 C196 68.3333 190.167 83 178.5 95 C166.833 107 152.333 113 135 113 C118.333 113 104 107 92 95 C80 83 74 68.3333 74 51 C74 34.3333 80 20 92 8 C104 -4 118.333 -10 135 -10 C152.333 -10 166.833 -4 178.5 8 C190.167 20 196 34.3333 196 51 L196 51 Z " />
<glyph glyph-name="semicolon" unicode="&#x3b;" horiz-adv-x="289" d="M206 397 C206 413.667 200.167 428 188.5 440 C176.833 452 162.333 458 145 458 C128.333 458 114 452 102 440 C90 428 84 413.667 84 397 C84 379.667 90 365 102 353 C114 341 128.333 335 145 335 C162.333 335 176.833 341 188.5 353 C200.167 365 206 379.667 206 397 L206 397 Z M87 102 L108 2 L75 -114 L130 -114 L193 5 C203.667 25.6667 208.167 44.6667 206.5 62 C204.833 79.3333 198 93 186 103 C174 113 159.167 118 141.5 118 C123.833 118 105.667 112.667 87 102 L87 102 Z " />
<glyph glyph-name="less" unicode="&#x3c;" horiz-adv-x="652" d="M570 461 L91 256 L90 193 L561 -17 L562 65 L196 223 L569 380 L570 461 Z " />
<glyph glyph-name="equal" unicode="&#x3d;" horiz-adv-x="554" d="M510 352 L48 352 L47 281 L509 281 L510 352 Z M508 194 L45 194 L44 123 L507 123 L508 194 Z " />
<glyph glyph-name="greater" unicode="&#x3e;" horiz-adv-x="652" d="M92 461 L90 381 L453 222 L84 65 L83 -17 L560 191 L561 253 L92 461 Z " />
<glyph glyph-name="question" unicode="&#x3f;" horiz-adv-x="459" d="M216 640 C184 640 149 636.333 111 629 L122 555 C134 557.667 149.333 560 168 562 C186.667 564 200.667 565 210 565 C234 565.667 255 561.667 273 553 C291 544.337 303.333 532.671 310 518 C316.667 503.333 320 489 320 475 C320 457.667 316.5 443.667 309.5 433 C302.5 422.333 291.333 410.333 276 397 L191 323 C168.333 305.667 154.5 290 149.5 276 C144.5 262 142 246.333 142 229 L142 189 L227 189 L228 215 C228 234.333 231 248.666 237 258 C243 267.333 251 276.667 261 286 L328 343 C354.666 366.333 373.833 388.667 385.5 410 C397.167 431.333 403 455 403 481 C403 529 386.833 567.5 354.5 596.5 C322.167 625.5 276 640 216 640 L216 640 Z M245 49 C245 66.3333 239.167 80.8333 227.5 92.5 C215.833 104.167 201.333 110 184 110 C167.333 110 153 104.167 141 92.5 C129 80.8333 123 66.3333 123 49 C123 32.3333 129 18 141 6 C153 -6 167.333 -12 184 -12 C201.333 -12 215.833 -6 227.5 6 C239.167 18 245 32.3333 245 49 L245 49 Z " />
<glyph glyph-name="at" unicode="&#x40;" horiz-adv-x="711" d="M362 550 C320.667 550 280.834 542 242.5 526 C204.167 510 170.667 487.667 142 459 C113.333 430.333 90.8333 396.833 74.5 358.5 C58.1667 320.167 50 280 50 238 C50 196.667 58 156.833 74 118.5 C90 80.1667 112.333 46.6667 141 18 C169.667 -10.6667 203 -33.1667 241 -49.5 C279 -65.8333 318.667 -74 360 -74 C383.333 -74 407.5 -71 432.5 -65 C457.5 -59 480.333 -51 501 -41 L480 7 C464.667 -0.333328 446.167 -6.5 424.5 -11.5 C402.833 -16.5 382 -19 362 -19 C328 -19 293.333 -11.6667 258 3 C222.667 17.6667 192.833 39.3333 168.5 68 C144.167 96.6667 127.5 125.667 118.5 155 C109.5 184.333 105 212 105 238 C105 272.666 111.5 305.833 124.5 337.5 C137.5 369.167 155.667 397 179 421 C202.333 445 229.833 463.667 261.5 477 C293.167 490.333 327 497 363 497 C396.333 497 429.833 490.333 463.5 477 C497.167 463.667 525.333 444 548 418 C570.667 392 586 366.167 594 340.5 C602 314.833 606 290.667 606 268 C606 230 597.167 197.833 579.5 171.5 C561.833 145.167 539 132 511 132 C490.333 132 474.833 139.167 464.5 153.5 C454.17 167.833 450.337 186.333 453 209 L473 389 C443 395 416.333 398 393 398 C365 398 339.833 393.167 317.5 383.5 C295.167 373.833 276.334 360.333 261 343 C245.667 325.667 234.167 305.5 226.5 282.5 C218.833 259.5 215 235 215 209 C215 171.667 223.667 141.667 241 119 C258.333 96.3333 284 85 318 85 C339.333 85 358.833 89.3333 376.5 98 C394.167 106.667 408.667 118 420 132 C429.333 116.667 442.167 104.833 458.5 96.5 C474.833 88.1667 493 84 513 84 C556.333 84 592 101 620 135 C648 169 662 213.667 662 269 C662 309.667 653.667 347.667 637 383 C620.334 418.333 597.667 448.333 569 473 C540.333 497.666 508 516.666 472 530 C436 543.333 399.333 550 362 550 L362 550 Z M329 136 C291.667 136 273 162.333 273 215 C273 243.667 278.667 268.667 290 290 C301.333 311.333 315.667 326 333 334 C350.333 342 367 346.333 383 347 L414 346 C403.333 268.667 397.333 210 396 170 C388 160.667 378 152.667 366 146 C354 139.333 341.667 136 329 136 L329 136 Z " />
<glyph glyph-name="A" unicode="A" horiz-adv-x="582" d="M476 0 L569 0 L347 660 L250 660 L5 0 L97 0 L156 170 L422 170 L476 0 Z M181 245 L294 571 L398 245 L181 245 Z " />
<glyph glyph-name="B" unicode="B" horiz-adv-x="548" d="M372 342 C399.333 351.333 422.333 369.333 441 396 C459.667 422.666 469 455.333 469 494 C469 516.667 465 538.5 457 559.5 C449 580.5 435.167 599.333 415.5 616 C395.833 632.667 372.833 644.167 346.5 650.5 C320.167 656.833 296.667 660 276 660 L109 660 L97 0 L263 0 C341.667 0 399.667 14.5 437 43.5 C474.333 72.5 493 116.333 493 175 C493 194.333 490.667 213.333 486 232 C481.333 250.667 473.167 268.167 461.5 284.5 C449.833 300.833 435.5 313.833 418.5 323.5 C401.5 333.166 386 339.333 372 342 L372 342 Z M264 589 C301.333 589 329.833 579.333 349.5 560 C369.167 540.667 379 514.667 379 482 C379 460 373.833 439.667 363.5 421 C353.167 402.333 338.167 389.333 318.5 382 C298.833 374.667 277.667 371 255 371 L189 371 L192 589 L264 589 Z M274 73 L184 73 L187 297 L280 297 C302.666 297 324.333 292.167 345 282.5 C365.667 272.833 380.5 258.5 389.5 239.5 C398.5 220.5 403 200 403 178 C403 140 392.333 113 371 97 C349.667 81 317.334 73 274 73 L274 73 Z " />
<glyph glyph-name="C" unicode="C" horiz-adv-x="590" d="M373 670 C324.333 670 279.667 662.667 239 648 C198.333 633.333 163.667 611.333 135 582 C106.333 552.667 84.3333 516.333 69 473 C53.6667 429.667 46 380.334 46 325 C46 273.667 52.8333 227.333 66.5 186 C80.1667 144.667 100.667 109.5 128 80.5 C155.333 51.5 189.5 29.5 230.5 14.5 C271.5 -0.5 318.667 -8 372 -8 C430 -8 492.667 1.66667 560 21 L543 96 C487.667 79.3333 433.334 71 380 71 C301.333 71 240.833 92.5 198.5 135.5 C156.167 178.5 135 243.667 135 331 C135 417.667 156.167 482.667 198.5 526 C240.833 569.333 300.667 591 378 591 C428 591 483.667 581.333 545 562 L564 638 C494.667 659.333 431 670 373 670 L373 670 Z " />
<glyph glyph-name="D" unicode="D" horiz-adv-x="688" d="M247 660 L109 658 L97 2 C160.333 0 223 -1 285 -1 C363.667 -1 429.167 10.6667 481.5 34 C533.833 57.3333 574.333 93.6667 603 143 C631.667 192.333 646 257.667 646 339 C646 401 636.833 453.333 618.5 496 C600.167 538.667 574 572 540 596 C506 620 464.5 637 415.5 647 C366.5 657 310.333 661.333 247 660 L247 660 Z M196 582 L306 583 C368 583 416.833 573.833 452.5 555.5 C488.167 537.167 514.333 508.833 531 470.5 C547.667 432.167 556 385.667 556 331 C556 160.333 473.667 75.6667 309 77 L187 78 L196 582 Z " />
<glyph glyph-name="E" unicode="E" horiz-adv-x="503" d="M186 78 L190 294 L421 294 L423 372 L191 372 L194 582 L443 582 L444 660 L109 660 L97 0 L449 0 L450 78 L186 78 Z " />
<glyph glyph-name="F" unicode="F" horiz-adv-x="483" d="M439 581 L441 660 L109 660 L97 0 L187 0 L191 286 L421 286 L422 364 L193 364 L196 581 L439 581 Z " />
<glyph glyph-name="G" unicode="G" horiz-adv-x="668" d="M512 324 L508 73 C470.667 65.6668 430.667 62.0001 388 62 C307.333 62 244.167 84.3333 198.5 129 C152.833 173.667 130 238.667 130 324 C130 370.667 136.333 411.667 149 447 C161.667 482.333 179.333 511 202 533 C224.667 555 251.667 571.333 283 582 C314.333 592.667 348.667 598 386 598 C438.667 598 498 589.333 564 572 L583 646 C505.667 666.667 437.334 677 378 677 C328.667 677 283.334 669.333 242 654 C200.667 638.667 165.167 616 135.5 586 C105.833 556 82.8333 518.667 66.5 474 C50.1667 429.333 42 378.667 42 322 C42 270 49.5 222.833 64.5 180.5 C79.5 138.167 101.333 102.333 130 73 C158.667 43.6667 194.167 21.3333 236.5 6 C278.833 -9.33333 326 -17 378 -17 C434 -17 506 -8 594 10 L599 324 L512 324 Z " />
<glyph glyph-name="H" unicode="H" horiz-adv-x="740" d="M556 660 L551 376 L193 376 L199 660 L109 660 L97 0 L186 0 L192 292 L550 292 L545 0 L634 0 L646 660 L556 660 Z " />
<glyph glyph-name="I" unicode="I" horiz-adv-x="293" d="M198 660 L109 660 L97 0 L187 0 L198 660 Z " />
<glyph glyph-name="J" unicode="J" horiz-adv-x="292" d="M198 660 L110 660 L97 -25 C96.3333 -59.6667 88.6667 -88.8333 74 -112.5 C59.3333 -136.167 31.3333 -164.667 -10 -198 L45 -262 C85.6667 -228.667 116 -199.5 136 -174.5 C156 -149.5 169.167 -125.167 175.5 -101.5 C181.833 -77.8333 185 -55 185 -33 L198 660 Z " />
<glyph glyph-name="K" unicode="K" horiz-adv-x="575" d="M97 0 L186 0 L197 660 L109 660 L97 0 Z M300 349 L546 660 L442 660 L200 344 L451 0 L563 0 L300 349 Z " />
<glyph glyph-name="L" unicode="L" horiz-adv-x="479" d="M199 660 L109 660 L97 0 L462 0 L464 80 L188 80 L199 660 Z " />
<glyph glyph-name="M" unicode="M" horiz-adv-x="869" d="M689 0 L775 0 L768 660 L645 660 L443 139 L431 102 L419 139 L241 660 L116 660 L89 0 L175 0 L186 507 L185 572 L374 14 L480 14 L694 577 C691.333 546.333 690 499.333 690 436 L689 0 Z " />
<glyph glyph-name="N" unicode="N" horiz-adv-x="756" d="M577 660 L568 127 L570 82 L236 660 L107 660 L95 0 L183 0 L191 508 C191 533.333 190 557 188 579 L519 0 L653 0 L664 660 L577 660 Z " />
<glyph glyph-name="O" unicode="O" horiz-adv-x="724" d="M369 678 C347.667 678 323.167 675.667 295.5 671 C267.833 666.338 237.833 656.172 205.5 640.5 C173.167 624.833 143.833 600.5 117.5 567.5 C91.1667 534.5 72.6667 497 62 455 C51.3333 413 46 371 46 329 C46 276.333 53 228.333 67 185 C81 141.667 101.667 105 129 75 C156.333 45 189.667 22 229 6 C268.333 -10 312.667 -18 362 -18 C410.667 -18 455 -10 495 6 C535 22 568.833 45.1667 596.5 75.5 C624.167 105.833 645.333 143.167 660 187.5 C674.667 231.833 682 281 682 335 C682 390.333 674.5 439.667 659.5 483 C644.5 526.333 623.167 562.333 595.5 591 C567.834 619.667 534.668 641.333 496 656 C457.333 670.667 415 678 369 678 L369 678 Z M368 599 C419.333 599 461.5 587.5 494.5 564.5 C527.5 541.5 552 510.667 568 472 C584 433.333 592 386.333 592 331 C592 286.333 586.667 246.667 576 212 C565.333 177.333 550 149 530 127 C510 105 486 88.5 458 77.5 C430 66.5 399 61 365 61 C293 61 236.667 84.1666 196 130.5 C155.333 176.833 135 243 135 329 C135 374.333 140.833 414.333 152.5 449 C164.167 483.667 180.333 512 201 534 C221.667 556 246.333 572.333 275 583 C303.667 593.667 334.667 599 368 599 L368 599 Z " />
<glyph glyph-name="P" unicode="P" horiz-adv-x="535" d="M266 660 C199.333 660 147 659.333 109 658 L97 0 L186 0 L190 249 C218 247.667 246.333 247 275 247 C321 247 361.333 255.667 396 273 C430.667 290.333 457.5 314.5 476.5 345.5 C495.5 376.5 505 414.333 505 459 C505 522.333 485.5 571.666 446.5 607 C407.5 642.333 347.333 660 266 660 L266 660 Z M267 325 L192 326 L196 582 L258 584 C314 584 354.5 574 379.5 554 C404.5 534 417 502.333 417 459 C417 369.667 367 325 267 325 L267 325 Z " />
<glyph glyph-name="Q" unicode="Q" horiz-adv-x="726" d="M720 -62 C620 -25.3333 546 -1.33333 498 10 C556.667 33.3333 602 72.8333 634 128.5 C666 184.167 682 253 682 335 C682 389.667 674.5 438.667 659.5 482 C644.5 525.333 623.167 561.333 595.5 590 C567.834 618.667 534.668 640.333 496 655 C457.333 669.667 415 677 369 677 C335 677 302.333 673 271 665 C239.667 657 209 643.333 179 624 C149 604.667 124 579.333 104 548 C84 516.667 69.3333 482.833 60 446.5 C50.6667 410.167 46 371 46 329 C46 277.667 52.6667 231 66 189 C79.3333 147 97.1667 113 119.5 87 C141.833 61 165.833 40.6667 191.5 26 C217.167 11.3333 243.5 1.33333 270.5 -4 C297.5 -9.33334 322 -12.3333 344 -13 L693 -135 L720 -62 Z M135 329 C135 385 143.833 432.667 161.5 472 C179.167 511.333 205.167 542.167 239.5 564.5 C273.833 586.833 316.667 598 368 598 C402 598 432.833 592.5 460.5 581.5 C488.166 570.5 511.832 553.833 531.5 531.5 C551.167 509.167 566.167 481.167 576.5 447.5 C586.833 413.833 592 375 592 331 C592 242.333 571.667 175.333 531 130 C490.333 84.6667 435 62 365 62 C293 62 236.667 85 196 131 C155.333 177 135 243 135 329 L135 329 Z " />
<glyph glyph-name="R" unicode="R" horiz-adv-x="581" d="M569 0 L391 286 C419.666 302.667 442.333 326 459 356 C475.667 386 484 422.333 484 465 C484 507.667 475.667 543.167 459 571.5 C442.333 599.833 417.833 621.666 385.5 637 C353.167 652.333 312.334 660 263 660 L109 658 L97 0 L184 0 L188 253 C201.333 251.667 218 251 238 251 C263.333 251 287.333 253 310 257 L466 0 L569 0 Z M189 327 L193 583 L254 584 C347.333 584 394 542.333 394 459 C394 411 380.833 376.667 354.5 356 C328.167 335.333 290.334 325 241 325 L189 327 Z " />
<glyph glyph-name="S" unicode="S" horiz-adv-x="462" d="M251 672 C219.667 672 191.667 667.333 167 658 C142.333 648.667 121.833 635.833 105.5 619.5 C89.1667 603.167 76.8334 584.5 68.5 563.5 C60.1667 542.5 56 520.333 56 497 C56 473.667 59.6667 453.5 67 436.5 C74.3333 419.5 83.5 403.833 94.5 389.5 C105.5 375.167 118.667 361.667 134 349 C149.333 336.333 176.333 315.333 215 286 C257.666 254 285.833 230.333 299.5 215 C313.167 199.667 320 181.333 320 160 C320 128 308 104.5 284 89.5 C260 74.5 229.667 67 193 67 C160.333 67 119.333 73.3333 70 86 L52 11 C106 -4.33333 155.333 -12 200 -12 C240.667 -12 276.5 -5.33333 307.5 8 C338.5 21.3333 363.333 42.3333 382 71 C400.667 99.6667 410 132.333 410 169 C410 183.667 407.5 199.167 402.5 215.5 C397.5 231.833 386.5 249.5 369.5 268.5 C352.5 287.5 315 318.333 257 361 C204.333 401 172.5 429.667 161.5 447 C150.5 464.333 145 481.667 145 499 C145 527.667 155.167 550.667 175.5 568 C195.833 585.333 223.667 594 259 594 C275 594 294.333 592 317 588 C339.667 584 360.333 579.333 379 574 L396 649 C376.667 655 353 660.333 325 665 C297 669.667 272.333 672 251 672 L251 672 Z " />
<glyph glyph-name="T" unicode="T" horiz-adv-x="567" d="M566 660 L17 660 L16 582 L246 582 L236 0 L325 0 L335 582 L565 582 L566 660 Z " />
<glyph glyph-name="U" unicode="U" horiz-adv-x="709" d="M626 660 L537 660 L528 209 C526 113.667 467.667 66 353 66 C236.333 66 179 113.667 181 209 L188 660 L98 660 L92 191 C91.3333 155.667 97.8333 124.833 111.5 98.5 C125.167 72.1667 144.167 50.8333 168.5 34.5 C192.833 18.1667 220.833 6.16667 252.5 -1.5 C284.167 -9.16667 318 -13 354 -13 C404 -13 446 -6.66667 480 6 C514 18.6667 540 33.5 558 50.5 C576 67.5 590.333 87.1667 601 109.5 C611.667 131.833 617.333 159 618 191 L626 660 Z " />
<glyph glyph-name="V" unicode="V" horiz-adv-x="598" d="M502 660 L314 141 C306.667 120.333 300 99.3333 294 78 L276 141 L113 660 L17 660 L232 0 L351 0 L598 660 L502 660 Z " />
<glyph glyph-name="W" unicode="W" horiz-adv-x="880" d="M774 660 L656 91 L506 660 L395 660 L222 96 L121 660 L32 660 L153 0 L276 0 L448 559 L593 0 L715 0 L864 660 L774 660 Z " />
<glyph glyph-name="X" unicode="X" horiz-adv-x="575" d="M563 660 L462 660 L291 412 L134 660 L28 660 L238 336 L6 0 L110 0 L290 262 L456 0 L563 0 L342 338 L563 660 Z " />
<glyph glyph-name="Y" unicode="Y" horiz-adv-x="573" d="M472 660 L288 376 L120 660 L17 660 L238 296 L233 0 L326 0 L331 296 L573 660 L472 660 Z " />
<glyph glyph-name="Z" unicode="Z" horiz-adv-x="573" d="M538 607 L539 660 L41 660 L39 583 L419 583 L28 54 L27 0 L537 0 L538 77 L146 77 L538 607 Z " />
<glyph glyph-name="bracketleft" unicode="&#x5b;" horiz-adv-x="300" d="M268 671 L269 735 L80 735 L63 -245 L251 -245 L253 -181 L140 -181 L156 671 L268 671 Z " />
<glyph glyph-name="backslash" unicode="&#x5c;" horiz-adv-x="399" d="M34 735 L296 -245 L370 -245 L112 735 L34 735 Z " />
<glyph glyph-name="bracketright" unicode="&#x5d;" horiz-adv-x="300" d="M49 735 L48 671 L160 671 L144 -182 L33 -182 L32 -245 L220 -245 L237 735 L49 735 Z " />
<glyph glyph-name="asciicircum" unicode="&#x5e;" horiz-adv-x="628" d="M544 0 L353 472 L286 472 L76 0 L157 0 L316 372 L461 0 L544 0 Z " />
<glyph glyph-name="underscore" unicode="&#x5f;" horiz-adv-x="427" d="M-6 -56 L-7 -126 L422 -126 L424 -56 L-6 -56 Z " />
<glyph glyph-name="grave" unicode="&#x60;" horiz-adv-x="169" d="M101 660 L20 660 L90 521 L163 521 L101 660 Z " />
<glyph glyph-name="a" unicode="a" horiz-adv-x="472" d="M235 458 C209 458 180.833 455.167 150.5 449.5 C120.167 443.833 92.6667 436.333 68 427 L88 361 C120.667 372.333 149.333 379.5 174 382.5 C198.667 385.5 215.667 387 225 387 C261 387 286 380 300 366 C314 352 320.667 333 320 309 L320 260 L220 259 C179.333 258.333 145.333 253.167 118 243.5 C90.6667 233.833 69.3333 219.333 54 200 C38.6667 180.667 31 155.667 31 125 C31 83.6667 44 50.5 70 25.5 C96 0.5 132 -12 178 -12 C240 -12 287.333 11.6667 320 59 L320 0 L399 0 L404 335 C404 361 398.333 382.167 387 398.5 C375.667 414.833 360.834 427.667 342.5 437 C324.167 446.333 304 452.167 282 454.5 C260 456.833 244.333 458 235 458 L235 458 Z M194 55 C170 55 150.667 61.3333 136 74 C121.333 86.6667 114 104 114 126 C114 150.667 124 168.333 144 179 C164 189.667 195.333 195.667 238 197 L319 198 L317 107 C303.667 93 285.5 80.8333 262.5 70.5 C239.5 60.1667 216.667 55 194 55 L194 55 Z " />
<glyph glyph-name="b" unicode="b" horiz-adv-x="532" d="M308 458 C252.667 458 205.667 438.667 167 400 L173 735 L89 735 L76 19 C102 10.3333 132 3 166 -3 C200 -9 230.333 -12 257 -12 C409.667 -12 486 70 486 234 C486 307.333 470.333 363 439 401 C407.667 439 364 458 308 458 L308 458 Z M254 57 C220 57 189 61.6667 161 71 L166 342 C200 372.667 239 388 283 388 C361 388 400 335 400 229 C400 166.333 387.333 122 362 96 C336.667 70 300.667 57 254 57 L254 57 Z " />
<glyph glyph-name="c" unicode="c" horiz-adv-x="419" d="M268 458 C229.333 458 195.667 451.333 167 438 C138.333 424.667 115 406.834 97 384.5 C79 362.167 66.1667 336.5 58.5 307.5 C50.8333 278.5 47 249.333 47 220 C47 169.333 55.8333 127.167 73.5 93.5 C91.1667 59.8333 116.333 33.8333 149 15.5 C181.667 -2.83333 221.333 -12 268 -12 C287.333 -12 309 -10 333 -6 C357 -2 378.667 3 398 9 L384 77 C344.667 65.6667 309 60.0001 277 60 C243.667 60 216.5 66.5 195.5 79.5 C174.5 92.5 158.833 110.833 148.5 134.5 C138.167 158.167 133 187.667 133 223 C133 275.667 144.833 316 168.5 344 C192.167 372 227.667 386 275 386 C304.333 386 340.667 379.667 384 367 L400 436 C353.333 450.667 309.333 458 268 458 L268 458 Z " />
<glyph glyph-name="d" unicode="d" horiz-adv-x="534" d="M377 735 L372 439 C333.333 451.667 295.667 458 259 458 C215.667 458 177.5 448.167 144.5 428.5 C111.5 408.833 86.8333 381 70.5 345 C54.1667 309 46 266.333 46 217 C46 171.667 52.8333 132 66.5 98 C80.1666 64 101.333 37.3333 130 18 C158.667 -1.33333 192.333 -11 231 -11 C257 -11 282.167 -5.66667 306.5 5 C330.833 15.6667 352 30.6667 370 50 L370 0 L449 0 L463 735 L377 735 Z M248 58 C210 58 181.167 72 161.5 100 C141.833 128 132 168 132 220 C132 278 144.167 320.667 168.5 348 C192.833 375.333 227 389 271 389 C299.667 389 333 383 371 371 L367 106 C345.667 87.3333 324.334 74.6667 303 68 C281.667 61.3333 263.334 58 248 58 L248 58 Z " />
<glyph glyph-name="e" unicode="e" horiz-adv-x="472" d="M424 213 L426 257 C426 320.333 411.333 369.667 382 405 C352.667 440.333 310.334 458 255 458 C191 458 140.167 436.833 102.5 394.5 C64.8333 352.167 46 291.333 46 212 C46 160 54 117.833 70 85.5 C86 53.1667 109.5 28.8333 140.5 12.5 C171.5 -3.83333 212 -12 262 -12 C308.667 -12 357 -5 407 9 L392 78 C348 65.3333 305.333 59 264 59 C217.333 59 183.333 69.3333 162 90 C140.667 110.667 130 151.667 130 213 L424 213 Z M246 390 C268 390 286.167 385.833 300.5 377.5 C314.833 369.168 325.833 357.335 333.5 342 C341.167 326.667 345 309.334 345 290 L345 279 L133 279 C138.333 314.333 150.5 341.667 169.5 361 C188.5 380.333 214 390 246 390 L246 390 Z " />
<glyph glyph-name="f" unicode="f" horiz-adv-x="326" d="M301 673 C321.667 673 342.667 670.333 364 665 L377 733 C349.667 740.333 321.334 744 292 744 C260 744 232.167 739 208.5 729 C184.833 719 165 705 149 687 C133 669 121.5 647.5 114.5 622.5 C107.5 597.5 103.667 571.667 103 545 L102 446 L32 446 L31 374 L100 374 L94 0 L178 0 L184 374 L326 374 L327 446 L185 446 L187 539 C187.667 573.667 193.833 601.333 205.5 622 C217.167 642.667 232 656.333 250 663 C268 669.667 285 673 301 673 L301 673 Z " />
<glyph glyph-name="g" unicode="g" horiz-adv-x="522" d="M377 446 L376 396 C344 433.333 297.333 453 236 455 C209.333 455 183 449.667 157 439 C131 428.333 109.333 410.833 92 386.5 C74.6667 362.167 62.8333 335.834 56.5 307.5 C50.1667 279.167 47 250.667 47 222 C47 146.667 63.3333 89 96 49 C128.667 9 173 -11 229 -11 C251 -11 275.167 -7.66667 301.5 -1 C327.833 5.66667 349 13.6667 365 23 L364 -72 C364 -114.667 353.5 -145.167 332.5 -163.5 C311.5 -181.833 277.667 -191 231 -191 C189.667 -191 140.333 -183.667 83 -169 L68 -239 C130.667 -255 186.333 -263 235 -263 C374.333 -263 445 -203.667 447 -85 L457 446 L377 446 Z M133 227 C133 333 173 386 253 386 C282.333 384.667 307.167 379 327.5 369 C347.833 359 362.333 349.333 371 340 L367 90 C348.333 80 327.833 72 305.5 66 C283.167 60 264 57 248 57 C212 57 183.833 70.8333 163.5 98.5 C143.167 126.167 133 169 133 227 L133 227 Z " />
<glyph glyph-name="h" unicode="h" horiz-adv-x="546" d="M319 458 C258.333 458 208.333 439 169 401 L175 735 L89 735 L76 0 L162 0 L168 341 C200 372.333 240.333 388 289 388 C351 388 382 361 382 307 L376 0 L463 0 L468 337 C468 368.333 459.667 393.333 443 412 C426.333 430.667 406.167 443 382.5 449 C358.833 455 337.667 458 319 458 L319 458 Z " />
<glyph glyph-name="i" unicode="i" horiz-adv-x="246" d="M127 644 C112.333 644 99.8333 638.667 89.5 628 C79.1667 617.338 74 604.671 74 590 C74 576 79.1667 563.667 89.5 553 C99.8333 542.333 112.333 537 127 537 C141 537 153.5 542.333 164.5 553 C175.5 563.667 181 576 181 590 C181 604.667 175.667 617.333 165 628 C154.334 638.667 141.667 644 127 644 L127 644 Z M169 446 L84 446 L76 0 L162 0 L169 446 Z " />
<glyph glyph-name="j" unicode="j" horiz-adv-x="250" d="M129 644 C115 644 102.833 638.667 92.5 628 C82.1667 617.338 77 604.671 77 590 C77 576 82.1667 563.667 92.5 553 C102.833 542.333 115 537 129 537 C143.667 537 156.5 542.333 167.5 553 C178.5 563.667 184 576 184 590 C184 604.667 178.5 617.333 167.5 628 C156.5 638.667 143.667 644 129 644 L129 644 Z M171 446 L87 446 L78 -29 C77.3333 -57.6667 68.5 -85.6667 51.5 -113 C34.5 -140.333 7.33333 -170 -30 -202 L24 -265 C58 -237 85.6667 -209.5 107 -182.5 C128.333 -155.5 142.833 -129.5 150.5 -104.5 C158.167 -79.5 162.333 -56.6667 163 -36 L171 446 Z " />
<glyph glyph-name="k" unicode="k" horiz-adv-x="470" d="M76 0 L160 0 L173 735 L89 735 L76 0 Z M274 250 L435 446 L335 446 L177 251 L347 0 L449 0 L274 250 Z " />
<glyph glyph-name="l" unicode="l" horiz-adv-x="244" d="M174 735 L89 735 L76 0 L161 0 L174 735 Z " />
<glyph glyph-name="m" unicode="m" horiz-adv-x="844" d="M612 458 C578 458 546.833 452 518.5 440 C490.167 428 468 413.333 452 396 C441.333 414.667 424.167 429.667 400.5 441 C376.833 452.333 348.333 458 315 458 C283 458 254.333 452.5 229 441.5 C203.667 430.5 183 416 167 398 L168 446 L84 446 L76 0 L163 0 L169 341 C183 355.667 200.167 367.167 220.5 375.5 C240.833 383.833 263 388 287 388 C305.666 388 322.333 385.5 337 380.5 C351.667 375.5 362.5 366.833 369.5 354.5 C376.5 342.167 380 327 380 309 L375 0 L461 0 L467 336 L467 340 C501.667 372 542.333 388 589 388 C649.667 388 680 361.667 680 309 L675 0 L761 0 L767 338 C767 368.667 758.167 393.333 740.5 412 C722.833 430.667 701.833 443 677.5 449 C653.167 455 631.333 458 612 458 L612 458 Z " />
<glyph glyph-name="n" unicode="n" horiz-adv-x="548" d="M320 458 C287.333 458 257.5 452.333 230.5 441 C203.5 429.667 182.333 415.334 167 398 L168 446 L84 446 L76 0 L163 0 L169 341 C183 355.667 200.5 367.167 221.5 375.5 C242.5 383.833 266 388 292 388 C325.333 388 348.833 380.833 362.5 366.5 C376.167 352.167 383 332.334 383 307 L378 0 L464 0 L470 337 C470 368.333 461.5 393.333 444.5 412 C427.5 430.667 407.167 443 383.5 449 C359.833 455 338.667 458 320 458 L320 458 Z " />
<glyph glyph-name="o" unicode="o" horiz-adv-x="541" d="M275 458 C205 458 149.5 436.667 108.5 394 C67.5 351.333 47 294 47 222 C47 186.667 52.1667 154.5 62.5 125.5 C72.8333 96.5 86.3333 73 103 55 C119.667 37 137.667 23.1667 157 13.5 C176.333 3.83334 196 -2.83333 216 -6.5 C236 -10.1667 254 -12 270 -12 C338.667 -12 393.167 9.5 433.5 52.5 C473.833 95.5 494 153.667 494 227 C494 299 474.667 355.5 436 396.5 C397.333 437.5 343.667 458 275 458 L275 458 Z M273 388 C316.333 388 349.667 373.833 373 345.5 C396.333 317.167 408 276.667 408 224 C408 171.333 396.333 130.5 373 101.5 C349.667 72.5 316.667 58 274 58 C230 58 195.5 72.8333 170.5 102.5 C145.5 132.167 133 173 133 225 C133 276.333 145.333 316.333 170 345 C194.667 373.667 229 388 273 388 L273 388 Z " />
<glyph glyph-name="p" unicode="p" horiz-adv-x="535" d="M311 458 C282.333 458 255.667 452.833 231 442.5 C206.333 432.167 185.333 418 168 400 L168 446 L84 446 L72 -251 L156 -251 L161 20 C210.333 -1.33333 254.333 -12 293 -12 C333.667 -12 368.5 -2.16667 397.5 17.5 C426.5 37.1667 449 64.8333 465 100.5 C481 136.167 489 180.667 489 234 C489 271.333 484.833 304.167 476.5 332.5 C468.167 360.833 456.167 384.333 440.5 403 C424.833 421.667 406 435.5 384 444.5 C362 453.5 337.667 458 311 458 L311 458 Z M277 58 C240.333 58 202 68.6667 162 90 L168 344 C186.667 361.333 206.667 373 228 379 C249.333 385 268 388 284 388 C324.667 388 354.667 375.5 374 350.5 C393.333 325.5 403 286 403 232 C403 174.667 392.333 131.333 371 102 C349.667 72.6667 318.334 58 277 58 L277 58 Z " />
<glyph glyph-name="q" unicode="q" horiz-adv-x="531" d="M277 458 C202.333 458 145.333 437.5 106 396.5 C66.6667 355.5 47 297 47 221 C47 150.333 63.1667 93.8333 95.5 51.5 C127.833 9.16667 171 -12 225 -12 C250.333 -12 275 -7.16667 299 2.5 C323 12.1667 344 25.3333 362 42 L357 -251 L442 -251 L454 427 C422.667 437 391.667 444.667 361 450 C330.333 455.333 302.333 458 277 458 L277 458 Z M252 58 C172.667 58 133 112 133 220 C133 279.333 145.167 322.167 169.5 348.5 C193.833 374.833 231.667 388 283 388 C315 388 343.333 384 368 376 L363 106 C331 74 294 58 252 58 L252 58 Z " />
<glyph glyph-name="r" unicode="r" horiz-adv-x="338" d="M293 455 C243 455 201.333 436.667 168 400 L169 446 L84 446 L76 0 L163 0 L168 337 C185.333 354.333 204.833 366 226.5 372 C248.167 378 268.333 381 287 381 L326 381 L327 453 L293 455 Z " />
<glyph glyph-name="s" unicode="s" horiz-adv-x="375" d="M191 457 C145.667 457 110 446 84 424 C58 402 45 371.667 45 333 C45 315.667 47.6667 300.167 53 286.5 C58.3333 272.833 65.1667 261.5 73.5 252.5 C81.8333 243.5 91.5 235 102.5 227 C113.5 219 135 207.167 167 191.5 C199 175.833 219.667 162.333 229 151 C238.333 139.667 243 127.667 243 115 C243 98.3333 236.167 84.8333 222.5 74.5 C208.834 64.1667 190.667 59.0001 168 59 C138 59 100.667 67.6667 56 85 L36 18 C84 -0.666672 129 -10 171 -10 C218.333 -10 256 1.83333 284 25.5 C312 49.1667 326 81 326 121 C326 138.333 323.333 153.833 318 167.5 C312.667 181.167 304 194.167 292 206.5 C280 218.833 257 233.166 223 249.5 C189 265.833 167.333 277.333 158 284 C148.667 290.667 141.333 298.5 136 307.5 C130.667 316.5 128 326.667 128 338 C128 370.667 150 387 194 387 C223.333 387 258.667 380.333 300 367 L319 432 C265.667 448.667 223 457 191 457 L191 457 Z " />
<glyph glyph-name="t" unicode="t" horiz-adv-x="336" d="M307 374 L309 446 L184 446 L186 584 L105 584 L102 446 L35 446 L33 374 L101 374 L96 82 C96 51.3333 105.833 28 125.5 12 C145.167 -4 174 -12 212 -12 C244.667 -12 276 -6.33333 306 5 L293 71 C271 64.3333 249.667 61 229 61 C211 60.9999 198 64.8333 190 72.5 C182 80.1667 178 93 178 111 L183 374 L307 374 Z " />
<glyph glyph-name="u" unicode="u" horiz-adv-x="538" d="M375 446 L368 105 C334 73 294 57 248 57 C218.667 57 197.5 63.5 184.5 76.5 C171.5 89.5 165 110 165 138 L170 446 L84 446 L78 110 C77.3333 71.3333 89.6667 41.3333 115 20 C140.333 -1.33333 175.667 -12 221 -12 C281 -12 331 7.33333 371 46 L370 0 L454 0 L461 446 L375 446 Z " />
<glyph glyph-name="v" unicode="v" horiz-adv-x="451" d="M360 446 L222 81 L101 446 L10 446 L171 0 L262 0 L450 446 L360 446 Z " />
<glyph glyph-name="w" unicode="w" horiz-adv-x="743" d="M641 446 L541 73 L435 446 L328 446 L195 72 L112 446 L26 446 L136 0 L244 0 L377 376 L485 0 L593 0 L726 446 L641 446 Z " />
<glyph glyph-name="x" unicode="x" horiz-adv-x="422" d="M421 446 L326 446 L214 286 L115 446 L18 446 L163 224 L2 0 L98 0 L212 165 L316 0 L413 0 L262 225 L421 446 Z " />
<glyph glyph-name="y" unicode="y" horiz-adv-x="432" d="M341 446 L235 169 C228.334 152.333 221.667 131.667 215 107 C209.667 129.667 203.667 150 197 168 L100 446 L10 446 L168 25 L138 -45 C123.333 -77.6667 106.167 -105.167 86.5 -127.5 C66.8333 -149.833 40.3333 -171.667 7 -193 L52 -259 C125.333 -218.333 180.667 -154 218 -66 L430 446 L341 446 Z " />
<glyph glyph-name="z" unicode="z" horiz-adv-x="483" d="M160 71 L422 393 L423 446 L59 446 L57 376 L310 376 L46 49 L44 0 L431 0 L432 71 L160 71 Z " />
<glyph glyph-name="braceleft" unicode="&#x7b;" horiz-adv-x="394" d="M246 336 L251 628 C251 643.333 255.167 654.333 263.5 661 C271.833 667.667 285.667 671 305 671 L363 671 L364 735 L272 735 C246 735 224.667 727.833 208 713.5 C191.334 699.167 182.667 679.333 182 654 L176 342 C176 304 154.333 285 111 285 L73 285 L71 212 L110 212 C134.667 212 151.5 206 160.5 194 C169.5 182 173.667 162.333 173 135 L168 -136 C167.332 -169.333 170.665 -193.167 178 -207.5 C185.333 -221.833 197 -231.667 213 -237 C229 -242.333 251.333 -245 280 -245 L347 -245 L348 -180 L290 -180 C269.333 -180 255.333 -176 248 -168 C240.667 -160 237.333 -144.667 238 -122 L243 152 C243.667 181.333 238.167 203.833 226.5 219.5 C214.834 235.167 193.667 245 163 249 C191.667 252.333 212.5 260.5 225.5 273.5 C238.5 286.5 245.333 307.333 246 336 L246 336 Z " />
<glyph glyph-name="bar" unicode="&#x7c;" horiz-adv-x="308" d="M124 735 L107 -245 L184 -245 L200 735 L124 735 Z " />
<glyph glyph-name="braceright" unicode="&#x7d;" horiz-adv-x="394" d="M222 359 L227 644 C227.667 680 222.167 704.167 210.5 716.5 C198.833 728.833 175 735 139 735 L48 735 L47 670 L106 670 C126 670 139.5 666 146.5 658 C153.5 650 157 634.667 157 612 L153 343 C152.333 315.667 157.666 294.167 169 278.5 C180.333 262.833 197.333 252 220 246 C198.667 240 181.833 229.5 169.5 214.5 C157.167 199.5 150.667 181 150 159 L147 -138 C147 -153.333 142.833 -164.333 134.5 -171 C126.167 -177.667 112.333 -181 93 -181 L31 -181 L30 -245 L123 -245 C151 -245 173 -237.833 189 -223.5 C205 -209.166 213 -189.333 213 -164 L218 138 C218 153.333 219.833 166.5 223.5 177.5 C227.167 188.5 235.667 196.5 249 201.5 C262.333 206.5 287 210 323 212 L324 285 C294 287 272.5 289.333 259.5 292 C246.5 294.667 236.833 300.5 230.5 309.5 C224.167 318.5 221.333 335 222 359 L222 359 Z " />
<glyph glyph-name="asciitilde" unicode="&#x7e;" horiz-adv-x="607" d="M196 310 C174 310 150.167 304.833 124.5 294.5 C98.8333 284.167 69 268 35 246 L72 186 C110 208.667 137.833 222.833 155.5 228.5 C173.167 234.167 187.667 237 199 237 C207 237 218.333 235.333 233 232 C247.667 228.667 276.333 217.667 319 199 C361.666 180.333 395.333 171 420 171 C443.333 171 467.667 177.5 493 190.5 C518.333 203.5 545.333 219.333 574 238 L536 296 C485.333 262 444.667 245 414 245 C396.667 245 369 253.167 331 269.5 C293 285.833 265.333 296.667 248 302 C230.667 307.333 213.333 310 196 310 L196 310 Z " />
<glyph glyph-name="uni00A0" unicode="&#xa0;" horiz-adv-x="185" d="" />
<glyph glyph-name="exclamdown" unicode="&#xa1;" horiz-adv-x="379" d="M250 399 C250 416.333 244.167 431 232.5 443 C220.833 455 206.333 461 189 461 C172.333 461 158.167 455 146.5 443 C134.833 431 129 416.333 129 399 C129 382.333 135 368 147 356 C159 344 173 338 189 338 C206.333 338 220.833 344 232.5 356 C244.167 368 250 382.333 250 399 L250 399 Z M230 257 L141 257 L133 -188 L221 -188 L230 257 Z " />
<glyph glyph-name="cent" unicode="&#xa2;" horiz-adv-x="430" d="M391 77 C359.667 67.6667 327.667 62 295 60 L301 385 C329 383 359.333 377 392 367 L408 436 C393.333 440.667 376.333 445 357 449 C337.667 453 319.667 455.667 303 457 L304 522 L240 522 L239 456 C179 449.333 132 425.333 98 384 C64 342.667 47 288 47 220 C47 154.667 62.8333 102.167 94.5 62.5 C126.167 22.8333 171.333 -1 230 -9 L228 -76 L292 -76 L293 -12 C330.333 -10 368 -3 406 9 L391 77 Z M133 223 C133 244.333 135.833 266.5 141.5 289.5 C147.167 312.5 158.333 332.333 175 349 C191.667 365.667 212.333 376.667 237 382 L231 66 C199 74.6667 174.667 92.1667 158 118.5 C141.333 144.833 133 179.667 133 223 L133 223 Z " />
<glyph glyph-name="sterling" unicode="&#xa3;" horiz-adv-x="474" d="M355 598 C384.333 598 411.667 594.333 437 587 L452 657 C416 666.333 380.667 671 346 671 C309.333 671 277.833 664.5 251.5 651.5 C225.167 638.5 205.333 618.167 192 590.5 C178.667 562.833 171.667 527.333 171 484 L170 376 L104 376 L102 306 L169 306 L165 105 C165 87.6667 160 75.3333 150 68 C140 60.6667 123 57 99 57 L98 0 L434 0 L435 70 L277 70 C260.333 70 236.667 66 206 58 C226.667 74.6667 238.667 87.5 242 96.5 C245.333 105.5 247 113.333 247 120 L251 306 L408 306 L409 376 L252 376 L254 483 C254.667 524.333 263.167 553.833 279.5 571.5 C295.833 589.167 321 598 355 598 L355 598 Z " />
<glyph glyph-name="currency" unicode="&#xa4;" horiz-adv-x="604" d="M554 21 L475 101 C485.665 117 494.331 136 501 158 C507.667 180 511 202 511 224 C511 246 507.667 268.167 501 290.5 C494.333 312.833 485.667 331.667 475 347 L553 425 L503 475 L426 397 C410 407.665 390.833 416.332 368.5 423 C346.167 429.667 324 433 302 433 C280 433 257.833 429.667 235.5 423 C213.167 416.333 194 407.333 178 396 L101 475 L50 425 L129 345 C118.333 328.333 110 309.667 104 289 C98 268.333 95 246.667 95 224 C95 202 98.1667 180 104.5 158 C110.833 136 119.333 117 130 101 L52 22 L102 -27 L180 52 C196 41.3333 215 32.8333 237 26.5 C259 20.1667 280.667 17 302 17 C323.333 17 345.167 20.1667 367.5 26.5 C389.833 32.8333 409 41.3333 425 52 L504 -28 L554 21 Z M302 86 C260 86 226.5 98.6667 201.5 124 C176.5 149.333 164 182.667 164 224 C164 266 176.667 299.833 202 325.5 C227.333 351.167 260.667 364 302 364 C343.333 364 377 351.167 403 325.5 C429 299.833 442 266 442 224 C442 182.667 429.167 149.333 403.5 124 C377.833 98.6667 344 86 302 86 L302 86 Z " />
<glyph glyph-name="yen" unicode="&#xa5;" horiz-adv-x="565" d="M565 660 L469 660 L310 413 L285 368 C278.333 383.333 270.667 398.333 262 413 L117 660 L17 660 L241 294 L80 294 L79 232 L238 232 L237 156 L78 156 L77 94 L236 94 L235 0 L319 0 L320 94 L478 94 L479 156 L322 156 L323 232 L480 232 L481 294 L324 294 L565 660 Z " />
<glyph glyph-name="brokenbar" unicode="&#xa6;" horiz-adv-x="309" d="M202 735 L125 735 L117 312 L194 312 L202 735 Z M192 204 L116 204 L107 -245 L185 -245 L192 204 Z " />
<glyph glyph-name="section" unicode="&#xa7;" horiz-adv-x="511" d="M248 -65 L168 491 C163.333 525 172.667 552.333 196 573 C219.333 593.667 252.667 604 296 604 C334 604 378 596.667 428 582 L445 647 C424.333 653.667 399.667 659.167 371 663.5 C342.333 667.833 317 670 295 670 C255 670 221 664 193 652 C165 640 143.333 625.333 128 608 C112.667 590.667 102.667 571.833 98 551.5 C93.3333 531.167 92.3333 511.667 95 493 L187 -145 C207.667 -142.333 223.667 -133.5 235 -118.5 C246.332 -103.5 250.666 -85.6667 248 -65 L248 -65 Z M266 514 L346 -42 C348.667 -58.6667 347.167 -75 341.5 -91 C335.833 -107 325 -120.333 309 -131 C293 -141.667 275.833 -148.334 257.5 -151 C239.167 -153.667 226 -155 218 -155 C188.667 -155 144.667 -147.667 86 -133 L69 -198 C123.667 -213.333 173 -221 217 -221 C285 -221 337.5 -204.167 374.5 -170.5 C411.5 -136.833 426.667 -94.6667 420 -44 L328 594 C306.667 591.333 290.334 582.5 279 567.5 C267.669 552.5 263.335 534.667 266 514 L266 514 Z " />
<glyph glyph-name="dieresis" unicode="&#xa8;" horiz-adv-x="308" d="M71 644 C57 644 44.6667 638.667 34 628 C23.3333 617.338 18 604.671 18 590 C18 576 23.3333 563.833 34 553.5 C44.6667 543.167 57 538 71 538 C85 538 97.5 543.167 108.5 553.5 C119.5 563.833 125 576 125 590 C125 604.667 119.667 617.333 109 628 C98.3333 638.667 85.6667 644 71 644 L71 644 Z M248 644 C234 644 221.667 638.667 211 628 C200.333 617.338 195 604.671 195 590 C195 576 200.333 563.833 211 553.5 C221.667 543.167 234 538 248 538 C262.666 538 275.332 543.167 286 553.5 C296.667 563.833 302 576 302 590 C302 604.667 296.667 617.333 286 628 C275.333 638.667 262.667 644 248 644 L248 644 Z " />
<glyph glyph-name="copyright" unicode="&#xa9;" horiz-adv-x="718" d="M360 550 C314 550 271.5 542.5 232.5 527.5 C193.5 512.5 160 491.167 132 463.5 C104 435.833 82.5 402.667 67.5 364 C52.5 325.333 45 283 45 237 C45 191.667 52.5 149.667 67.5 111 C82.5 72.3333 104 39.1667 132 11.5 C160 -16.1667 193.5 -37.5 232.5 -52.5 C271.5 -67.5 314 -75 360 -75 C406 -75 448.5 -67.5 487.5 -52.5 C526.5 -37.5 560 -16.1667 588 11.5 C616 39.1667 637.5 72.3333 652.5 111 C667.5 149.667 675 191.667 675 237 C675 283 667.5 325.333 652.5 364 C637.5 402.666 616 435.833 588 463.5 C560 491.167 526.5 512.5 487.5 527.5 C448.5 542.5 406 550 360 550 L360 550 Z M361 494 C398.333 494 433 487.833 465 475.5 C497 463.167 524.333 445.667 547 423 C569.667 400.333 587.167 373 599.5 341 C611.833 309 618 274.333 618 237 C618 199.667 611.833 165.167 599.5 133.5 C587.167 101.833 569.667 74.8333 547 52.5 C524.334 30.1667 497.001 12.8333 465 0.5 C433 -11.8333 398.333 -18 361 -18 C323 -18 287.833 -11.8333 255.5 0.5 C223.167 12.8333 195.5 30.1667 172.5 52.5 C149.5 74.8333 131.833 101.833 119.5 133.5 C107.167 165.167 101 199.667 101 237 C101 274.333 107.167 309 119.5 341 C131.833 373 149.667 400.333 173 423 C196.333 445.667 224 463.167 256 475.5 C288 487.833 323 494 361 494 L361 494 Z M379 405 C326.333 405 285.333 390.333 256 361 C226.667 331.667 212 291.334 212 240 C212 189.333 226 149.833 254 121.5 C282 93.1667 320.333 79 369 79 C402.333 79 434.667 83.3333 466 92 L456 143 C431.333 135 405 131 377 131 C342.333 131 315.833 140.5 297.5 159.5 C279.167 178.5 270 205.333 270 240 C270 276 279.833 303.667 299.5 323 C319.166 342.333 347.333 352 384 352 C406 352 431 349.333 459 344 L469 394 C445 401.333 415 405 379 405 L379 405 Z " />
<glyph glyph-name="ordfeminine" unicode="&#xaa;" horiz-adv-x="376" d="M206 673 C168.667 673 128 666 84 652 L97 600 C112.333 604.667 130 608.667 150 612 C170 615.333 187 617 201 617 C223.667 617 241 612.667 253 604 C265 595.333 271 583 271 567 L271 536 L189 535 C97.6667 535 52 502 52 436 C52 406 61 382 79 364 C97 346 122 337 154 337 C176 337 197.333 341.333 218 350 C238.667 358.665 255.667 370.332 269 385 L270 345 L328 345 L332 583 C332 595 328.5 608 321.5 622 C314.5 636 300.833 648 280.5 658 C260.167 668 235.333 673 206 673 L206 673 Z M170 389 C151.333 389 137.5 393.833 128.5 403.5 C119.5 413.167 115 423.667 115 435 C115 469.667 142.667 487 198 487 L270 488 L268 429 C254.667 417.667 238.667 408.167 220 400.5 C201.334 392.833 184.667 389 170 389 L170 389 Z " />
<glyph glyph-name="guillemotleft" unicode="&#xab;" horiz-adv-x="523" d="M271 420 L186 420 L75 248 L175 70 L260 70 L157 248 L271 420 Z M453 420 L368 420 L257 248 L357 70 L442 70 L339 248 L453 420 Z " />
<glyph glyph-name="logicalnot" unicode="&#xac;" horiz-adv-x="633" d="M47 339 L46 268 L515 268 L511 90 L585 90 L589 339 L47 339 Z " />
<glyph glyph-name="uni00AD" unicode="&#xad;" horiz-adv-x="414" d="M92 266 L90 195 L324 195 L325 266 L92 266 Z " />
<glyph glyph-name="registered" unicode="&#xae;" horiz-adv-x="526" d="M268 683 C244 683 221.167 680 199.5 674 C177.833 668 156.833 658.5 136.5 645.5 C116.167 632.5 99.3334 615.667 86 595 C72.6667 574.336 63 553.169 57 531.5 C51 509.833 48 487.333 48 464 C48 432 53.3333 402.5 64 375.5 C74.6666 348.5 88.3333 326.5 105 309.5 C121.667 292.5 139.5 279.167 158.5 269.5 C177.5 259.833 196.667 253.333 216 250 C235.333 246.667 252.666 245 268 245 C299.333 245 328.667 250.167 356 260.5 C383.333 270.833 406.667 285.833 426 305.5 C445.333 325.167 460.167 348.5 470.5 375.5 C480.833 402.5 486 432 486 464 C486 496 480.833 525.5 470.5 552.5 C460.168 579.5 445.334 602.833 426 622.5 C406.667 642.167 383.334 657.167 356 667.5 C328.667 677.833 299.334 683 268 683 L268 683 Z M268 287 C215.333 287 172.667 303.167 140 335.5 C107.333 367.833 91 410.333 91 463 C91 516.332 107.333 559.166 140 591.5 C172.667 623.833 215.333 640 268 640 C320.666 640 363.333 623.833 396 591.5 C428.667 559.167 445 516.333 445 463 C445 410.333 428.667 367.833 396 335.5 C363.333 303.167 320.667 287 268 287 L268 287 Z M345 515 C345 553.667 325.333 576 286 582 L243 584 L195 584 L191 355 L232 355 L234 441 L242 441 L269 441 L320 355 L367 355 L307 452 C319 456.667 328.333 464.5 335 475.5 C341.667 486.5 345 499.667 345 515 L345 515 Z M234 475 L236 547 L254 547 C276 547 289.5 543.5 294.5 536.5 C299.5 529.5 302 521 302 511 C302 499 298.833 490 292.5 484 C286.167 478 270 475 244 475 L234 475 Z " />
<glyph glyph-name="macron" unicode="&#xaf;" horiz-adv-x="400" d="M336 622 L67 622 L66 552 L335 552 L336 622 Z " />
<glyph glyph-name="degree" unicode="&#xb0;" horiz-adv-x="324" d="M168 672 C153.333 672 136.833 668.167 118.5 660.5 C100.167 652.833 84.3334 639 71 619 C57.6667 599 51 577.333 51 554 C51 522 62.5 494.5 85.5 471.5 C108.5 448.5 136 437 168 437 C200 437 227.5 448.5 250.5 471.5 C273.5 494.5 285 522 285 554 C285 577.333 278.333 599 265 619 C251.667 639 235.833 652.833 217.5 660.5 C199.167 668.167 182.667 672 168 672 L168 672 Z M168 485 C148.667 485 132.333 491.833 119 505.5 C105.667 519.167 99 535.333 99 554 C99 573.333 105.667 590 119 604 C132.333 618 148.667 625 168 625 C187.333 625 203.666 618 217 604 C230.333 590 237 573.333 237 554 C237 535.335 230.333 519.169 217 505.5 C203.667 491.833 187.333 485 168 485 L168 485 Z " />
<glyph glyph-name="plusminus" unicode="&#xb1;" horiz-adv-x="664" d="M367 327 L370 488 L298 488 L296 327 L98 327 L97 257 L294 257 L292 102 L363 102 L366 257 L569 257 L570 327 L367 327 Z M92 0 L565 0 L566 69 L93 69 L92 0 Z " />
<glyph glyph-name="uni00B2" unicode="&#xb2;" horiz-adv-x="281" d="M121 376 L205 483 C227.667 513 240.5 534.167 243.5 546.5 C246.5 558.833 248 569 248 577 C248 606.333 238 629 218 645 C198 661 171.667 669 139 669 C111 669 78 662.333 40 649 L54 596 C81.3333 608 106.333 614 129 614 C138.333 614 147.333 612.167 156 608.5 C164.667 604.843 171.333 599.176 176 591.5 C180.667 583.833 183 576 183 568 C183 559.333 180.667 551 176 543 C171.334 535 163.667 524.333 153 511 L34 357 L33 320 L254 320 L255 376 L121 376 Z " />
<glyph glyph-name="uni00B3" unicode="&#xb3;" horiz-adv-x="278" d="M132 668 C114.667 668 97.5 666.167 80.5 662.5 C63.5 658.833 53 656 49 654 L61 604 C69.6667 606.667 80.6667 608.833 94 610.5 C107.333 612.167 116.333 613 121 613 C155.667 613 173 598 173 568 C173 562.667 172 556.667 170 550 C168 543.333 161.833 536.5 151.5 529.5 C141.167 522.5 117 519 79 519 L77 470 C112.333 470 138.5 466.167 155.5 458.5 C172.5 450.833 181 437.667 181 419 C181 410.333 178.667 401.833 174 393.5 C169.334 385.167 161.667 379 151 375 C140.333 371 128.333 369 115 369 C99 369 84.5 370.667 71.5 374 C58.5 377.333 51.6667 379 51 379 L39 325 C68.3333 317.667 96.3333 314 123 314 C150.333 314 173.667 319.167 193 329.5 C212.333 339.833 225.5 353 232.5 369 C239.5 385 243 400.667 243 416 C243 440.667 236.667 460 224 474 C211.333 488 194 495.333 172 496 C190.667 497.333 206.333 505.5 219 520.5 C231.667 535.5 238 554.333 238 577 C238 604.333 228.5 626.333 209.5 643 C190.5 659.667 164.667 668 132 668 L132 668 Z " />
<glyph glyph-name="acute" unicode="&#xb4;" horiz-adv-x="178" d="M176 660 L94 660 L20 521 L93 521 L176 660 Z " />
<glyph glyph-name="paragraph" unicode="&#xb6;" horiz-adv-x="488" d="M259 660 C200.333 660 152.833 643 116.5 609 C80.1667 575 62 530 62 474 C62 418.667 79.1666 373.834 113.5 339.5 C147.833 305.167 192.667 288 248 288 L243 -94 L302 -94 L314 606 L379 606 L367 -94 L426 -94 L438 660 L259 660 Z " />
<glyph glyph-name="periodcentered" unicode="&#xb7;" horiz-adv-x="239" d="M119 173 C136.333 173 151 179 163 191 C175 203 181 217.333 181 234 C181 251.333 175.167 265.833 163.5 277.5 C151.833 289.167 137 295 119 295 C102.333 295 88.1667 289.167 76.5 277.5 C64.8333 265.833 59 251.333 59 234 C59 217.333 65 203 77 191 C89 179 103 173 119 173 L119 173 Z " />
<glyph glyph-name="cedilla" unicode="&#xb8;" horiz-adv-x="176" d="M94 13 L29 13 C25 2.33333 23 -12 23 -30 C23 -40.6667 24.6667 -49.8334 28 -57.5 C31.3333 -65.1667 42 -75.6667 60 -89 C75.3333 -99.6667 84.1667 -107.667 86.5 -113 C88.8333 -118.333 90 -123.333 90 -128 C90 -150.667 74 -162 42 -162 C27.3333 -162 14.6667 -160.667 4 -158 L3 -218 C13.6667 -220 27 -221 43 -221 C65.6667 -221 86 -216.833 104 -208.5 C122 -200.166 135 -188.833 143 -174.5 C151 -160.167 155 -144.667 155 -128 C155 -119.333 153.667 -110.333 151 -101 C148.333 -91.6667 144 -83.5 138 -76.5 C132 -69.5 124.333 -62.3333 115 -55 C104.333 -47 97.3333 -40.5 94 -35.5 C90.6667 -30.5 89 -23.3333 89 -14 C89 -6.66667 90.6667 2.33333 94 13 L94 13 Z " />
<glyph glyph-name="uni00B9" unicode="&#xb9;" horiz-adv-x="256" d="M133 661 L27 641 L37 585 L132 602 L127 320 L193 320 L200 661 L133 661 Z " />
<glyph glyph-name="ordmasculine" unicode="&#xba;" horiz-adv-x="374" d="M194 671 C144.667 671 105 655.833 75 625.5 C45 595.167 30 554.667 30 504 C30 453.333 44.6667 412.833 74 382.5 C103.333 352.167 142.667 337 192 337 C241.333 337 280.5 352.333 309.5 383 C338.5 413.666 353 454.333 353 505 C353 555.667 338.667 596 310 626 C281.333 656 242.667 671 194 671 L194 671 Z M193 391 C162.333 391 138.167 401.167 120.5 421.5 C102.833 441.833 94 469.333 94 504 C94 540 102.667 567.833 120 587.5 C137.333 607.167 161.667 617 193 617 C223.667 617 247.5 607.167 264.5 587.5 C281.5 567.833 290 540.333 290 505 C290 469 281.5 441 264.5 421 C247.5 401 223.667 391 193 391 L193 391 Z " />
<glyph glyph-name="guillemotright" unicode="&#xbb;" horiz-adv-x="522" d="M167 420 L83 420 L185 249 L70 70 L156 70 L267 248 L167 420 Z M349 420 L265 420 L367 249 L252 70 L338 70 L449 248 L349 420 Z " />
<glyph glyph-name="onequarter" unicode="&#xbc;" horiz-adv-x="785" d="M170 320 L236 320 L243 661 L176 661 L70 641 L79 585 L174 602 L170 320 Z M591 660 L91 0 L167 0 L667 660 L591 660 Z M721 119 L662 119 L665 341 L593 341 L430 112 L429 66 L599 66 L598 0 L660 0 L661 66 L720 66 L721 119 Z M603 270 L602 119 L500 119 L603 270 Z " />
<glyph glyph-name="onehalf" unicode="&#xbd;" horiz-adv-x="779" d="M158 320 L224 320 L231 661 L164 661 L58 641 L68 585 L163 602 L158 320 Z M589 660 L89 0 L165 0 L664 660 L589 660 Z M598 56 L682 163 C700.667 187.667 712.5 206.333 717.5 219 C722.5 231.667 725 244.333 725 257 C725 286.333 715 309 695 325 C675 341 648.667 349 616 349 C588 349 555 342.333 517 329 L531 276 C558.331 288 583.664 294 607 294 C616.333 294 625.333 292.167 634 288.5 C642.667 284.833 649.167 279.167 653.5 271.5 C657.833 263.833 660 256 660 248 C660 239.333 657.667 231 653 223 C648.338 215 640.672 204.333 630 191 L511 37 L510 0 L731 0 L732 56 L598 56 Z " />
<glyph glyph-name="threequarters" unicode="&#xbe;" horiz-adv-x="779" d="M118 371 C100 371 79 374 55 380 L42 327 C71.3333 319.667 99.3333 316 126 316 C163.333 316 192.667 324.833 214 342.5 C235.333 360.167 246 385 246 417 C246 441.667 239.833 461 227.5 475 C215.167 489 197.667 496.333 175 497 C193.667 498.333 209.333 506.667 222 522 C234.667 537.333 241 556.333 241 579 C241 606.333 231.5 628.333 212.5 645 C193.5 661.667 167.667 670 135 670 C123.667 670 111.333 669 98 667 C84.6667 665 73.8333 662.667 65.5 660 C57.1667 657.333 52.6667 656 52 656 L64 606 C72.6667 608.667 83.6667 610.833 97 612.5 C110.333 614.167 119.333 615 124 615 C140 615 152.667 611.333 162 604 C171.333 596.667 176 585.333 176 570 C176 564.667 175 558.667 173 552 C171 545.333 164.833 538.5 154.5 531.5 C144.167 524.5 120 521 82 521 L80 471 C116 471 142.333 467.167 159 459.5 C175.667 451.833 184 438.667 184 420 C184 411.333 181.667 403 177 395 C172.334 387 164.667 381 154 377 C143.333 373 131.333 371 118 371 L118 371 Z M600 660 L100 0 L175 0 L675 660 L600 660 Z M721 119 L661 119 L665 341 L592 341 L430 112 L429 66 L598 66 L597 0 L660 0 L661 66 L720 66 L721 119 Z M603 270 L601 119 L499 119 L603 270 Z " />
<glyph glyph-name="questiondown" unicode="&#xbf;" horiz-adv-x="433" d="M206 399 C206 381.667 211.833 367.167 223.5 355.5 C235.167 343.833 249.667 338 267 338 C283.666 338 297.833 343.833 309.5 355.5 C321.167 367.167 327 381.667 327 399 C327 415.667 321.167 430 309.5 442 C297.833 454 283.667 460 267 460 C249.667 460 235.167 454 223.5 442 C211.833 430 206 415.667 206 399 L206 399 Z M235 -192 C267 -192 302 -188.333 340 -181 L328 -107 C316 -109.667 300.833 -112 282.5 -114 C264.167 -116 250.333 -117 241 -117 C216.333 -117.667 195.167 -113.667 177.5 -105 C159.833 -96.3333 147.667 -84.6666 141 -70 C134.333 -55.3333 131 -41 131 -27 C131 -9.66667 134.5 4.33333 141.5 15 C148.5 25.6667 159.667 37.6667 175 51 L260 125 C282.667 143 296.5 158.833 301.5 172.5 C306.5 186.167 309 201.667 309 219 L309 259 L224 259 L223 233 C222.335 213 219.168 198.5 213.5 189.5 C207.833 180.5 200 171.333 190 162 L123 105 C96.3333 81.6667 77.1667 59.3333 65.5 38 C53.8333 16.6667 48 -7 48 -33 C48 -81 64.1667 -119.5 96.5 -148.5 C128.833 -177.5 175 -192 235 -192 L235 -192 Z " />
<glyph glyph-name="Agrave" unicode="&#xc0;" horiz-adv-x="582" d="M339 723 L280 855 L201 855 L267 723 L339 723 Z M476 0 L569 0 L347 660 L250 660 L5 0 L97 0 L156 170 L422 170 L476 0 Z M181 245 L294 571 L398 245 L181 245 Z " />
<glyph glyph-name="Aacute" unicode="&#xc1;" horiz-adv-x="582" d="M417 854 L335 854 L265 722 L337 722 L417 854 Z M476 0 L569 0 L347 660 L250 660 L5 0 L97 0 L156 170 L422 170 L476 0 Z M181 245 L294 571 L398 245 L181 245 Z " />
<glyph glyph-name="Acircumflex" unicode="&#xc2;" horiz-adv-x="582" d="M301 816 L361 723 L442 723 L347 855 L257 855 L159 723 L240 723 L301 816 Z M476 0 L569 0 L347 660 L250 660 L5 0 L97 0 L156 170 L422 170 L476 0 Z M181 245 L294 571 L398 245 L181 245 Z " />
<glyph glyph-name="Atilde" unicode="&#xc3;" horiz-adv-x="582" d="M245 757 C254.333 757 273.667 751 303 739 C332.333 727 354.333 721 369 721 C384.333 721 401.667 725.667 421 735 C440.333 744.333 459 757.333 477 774 L437 824 C408.333 798.667 384.333 786 365 786 C355 786 335.5 792.167 306.5 804.5 C277.5 816.833 255.667 823 241 823 C212.333 823 178.333 807 139 775 L179 725 C189.667 734.333 201.167 742 213.5 748 C225.833 754 236.333 757 245 757 L245 757 Z M476 0 L569 0 L347 660 L250 660 L5 0 L97 0 L156 170 L422 170 L476 0 Z M181 245 L294 571 L398 245 L181 245 Z " />
<glyph glyph-name="Adieresis" unicode="&#xc4;" horiz-adv-x="582" d="M209 720 C223.667 720 236.333 725.333 247 736 C257.667 746.667 263 759 263 773 C263 787.667 257.667 800.333 247 811 C236.334 821.667 223.667 827 209 827 C195 827 182.833 821.667 172.5 811 C162.167 800.336 157 787.67 157 773 C157 759 162.167 746.667 172.5 736 C182.833 725.333 195 720 209 720 L209 720 Z M386 720 C400.666 720 413.333 725.333 424 736 C434.667 746.667 440 759 440 773 C440 787.667 434.833 800.333 424.5 811 C414.167 821.667 401.334 827 386 827 C372 827 359.833 821.667 349.5 811 C339.167 800.336 334 787.67 334 773 C334 759 339.167 746.667 349.5 736 C359.833 725.333 372 720 386 720 L386 720 Z M476 0 L569 0 L347 660 L250 660 L5 0 L97 0 L156 170 L422 170 L476 0 Z M181 245 L294 571 L398 245 L181 245 Z " />
<glyph glyph-name="Aring" unicode="&#xc5;" horiz-adv-x="582" d="M298 674 C327.333 674 350.667 683.333 368 702 C385.333 720.667 394 743 394 769 C394 781.667 391.167 795.667 385.5 811 C379.833 826.333 369.167 839.5 353.5 850.5 C337.833 861.5 319.333 867 298 867 C284 867 269.333 863.833 254 857.5 C238.667 851.167 226.167 839.833 216.5 823.5 C206.833 807.167 202 789 202 769 C202 750.333 206.833 733 216.5 717 C226.167 701 238.667 689.833 254 683.5 C269.333 677.167 284 674 298 674 L298 674 Z M298 817 C311.333 817 322.167 812.667 330.5 804 C338.833 795.333 343 784 343 770 C343 756.667 338.833 745.667 330.5 737 C322.168 728.333 311.335 724 298 724 C284.667 724 273.834 728.333 265.5 737 C257.168 745.667 253.001 756.667 253 770 C253 784 257.167 795.333 265.5 804 C273.833 812.667 284.667 817 298 817 L298 817 Z M476 0 L569 0 L352 645 L245 645 L5 0 L97 0 L156 170 L422 170 L476 0 Z M181 245 L294 571 L398 245 L181 245 Z " />
<glyph glyph-name="AE" unicode="&#xc6;" horiz-adv-x="840" d="M524 78 L527 294 L759 294 L760 372 L529 372 L532 582 L780 582 L782 660 L446 660 L400 660 L5 0 L105 0 L194 152 L437 152 L434 0 L786 0 L788 78 L524 78 Z M238 228 L445 583 L439 228 L238 228 Z " />
<glyph glyph-name="Ccedilla" unicode="&#xc7;" horiz-adv-x="590" d="M560 21 L543 96 C487.667 79.3333 433.334 71 380 71 C301.333 71 240.833 92.5 198.5 135.5 C156.167 178.5 135 243.667 135 331 C135 417.667 156.167 482.667 198.5 526 C240.833 569.333 300.667 591 378 591 C428 591 483.667 581.333 545 562 L564 638 C494.667 659.333 431 670 373 670 C324.333 670 279.667 662.667 239 648 C198.333 633.333 163.667 611.333 135 582 C106.333 552.667 84.3333 516.333 69 473 C53.6667 429.667 46 380.334 46 325 C46 229 68.8333 152.5 114.5 95.5 C160.167 38.5 227.667 5 317 -5 C315.667 -11 315 -19.6667 315 -31 C315 -44.3333 317.5 -54.8333 322.5 -62.5 C327.5 -70.1667 337.333 -79.3333 352 -90 C366.665 -100 375.332 -107.833 378 -113.5 C380.667 -119.167 382 -124.333 382 -129 C382 -151.667 366 -163 334 -163 C319.333 -163 306.667 -161.667 296 -159 L295 -218 C305.667 -220.667 319 -222 335 -222 C366.333 -222 392.833 -214 414.5 -198 C436.167 -182 447 -159 447 -129 C447 -111 443.667 -96.8333 437 -86.5 C430.333 -76.1667 420.333 -66 407 -56 C396.333 -48 389.333 -41.5 386 -36.5 C382.667 -31.5 381 -24.3333 381 -15 L382 -8 C434 -7.33333 493.333 2.33333 560 21 L560 21 Z " />
<glyph glyph-name="Egrave" unicode="&#xc8;" horiz-adv-x="503" d="M326 723 L267 855 L188 855 L255 723 L326 723 Z M186 78 L190 294 L421 294 L423 372 L191 372 L194 582 L443 582 L444 660 L109 660 L97 0 L449 0 L450 78 L186 78 Z " />
<glyph glyph-name="Eacute" unicode="&#xc9;" horiz-adv-x="503" d="M400 854 L319 854 L248 722 L321 722 L400 854 Z M186 78 L190 294 L421 294 L423 372 L191 372 L194 582 L443 582 L444 660 L109 660 L97 0 L449 0 L450 78 L186 78 Z " />
<glyph glyph-name="Ecircumflex" unicode="&#xca;" horiz-adv-x="503" d="M285 816 L344 723 L426 723 L331 855 L241 855 L143 723 L224 723 L285 816 Z M186 78 L190 294 L421 294 L423 372 L191 372 L194 582 L443 582 L444 660 L109 660 L97 0 L449 0 L450 78 L186 78 Z " />
<glyph glyph-name="Edieresis" unicode="&#xcb;" horiz-adv-x="503" d="M193 720 C207 720 219.5 725.333 230.5 736 C241.5 746.667 247 759 247 773 C247 787.667 241.667 800.333 231 811 C220.334 821.667 207.667 827 193 827 C178.333 827 165.833 821.667 155.5 811 C145.167 800.336 140 787.67 140 773 C140 759 145.167 746.667 155.5 736 C165.833 725.333 178.333 720 193 720 L193 720 Z M370 720 C384.666 720 397.333 725.333 408 736 C418.667 746.667 424 759 424 773 C424 787.667 418.667 800.333 408 811 C397.333 821.667 384.667 827 370 827 C356 827 343.667 821.667 333 811 C322.333 800.336 317 787.67 317 773 C317 759 322.333 746.667 333 736 C343.667 725.333 356 720 370 720 L370 720 Z M186 78 L190 294 L421 294 L423 372 L191 372 L194 582 L443 582 L444 660 L109 660 L97 0 L449 0 L450 78 L186 78 Z " />
<glyph glyph-name="Igrave" unicode="&#xcc;" horiz-adv-x="293" d="M137 855 L58 855 L125 723 L196 723 L137 855 Z M198 660 L109 660 L97 0 L187 0 L198 660 Z " />
<glyph glyph-name="Iacute" unicode="&#xcd;" horiz-adv-x="293" d="M274 854 L193 854 L122 722 L195 722 L274 854 Z M198 660 L109 660 L97 0 L187 0 L198 660 Z " />
<glyph glyph-name="Icircumflex" unicode="&#xce;" horiz-adv-x="293" d="M205 855 L115 855 L17 723 L98 723 L159 816 L218 723 L300 723 L205 855 Z M97 0 L187 0 L198 660 L109 660 L97 0 Z " />
<glyph glyph-name="Idieresis" unicode="&#xcf;" horiz-adv-x="293" d="M67 827 C52.3333 827 39.8333 821.667 29.5 811 C19.1667 800.336 14 787.67 14 773 C14 759 19.1667 746.667 29.5 736 C39.8333 725.333 52.3333 720 67 720 C81 720 93.5 725.333 104.5 736 C115.5 746.667 121 759 121 773 C121 787.667 115.667 800.333 105 811 C94.3333 821.667 81.6667 827 67 827 L67 827 Z M244 827 C230 827 217.667 821.667 207 811 C196.333 800.336 191 787.67 191 773 C191 759 196.333 746.667 207 736 C217.667 725.333 230 720 244 720 C258.666 720 271.333 725.333 282 736 C292.667 746.667 298 759 298 773 C298 787.667 292.667 800.333 282 811 C271.333 821.667 258.667 827 244 827 L244 827 Z M198 660 L109 660 L97 0 L187 0 L198 660 Z " />
<glyph glyph-name="Eth" unicode="&#xd0;" horiz-adv-x="690" d="M249 660 L111 658 L106 376 L41 376 L40 292 L104 292 L99 2 C161 0 223.667 -1 287 -1 C365.667 -1 431.167 10.6667 483.5 34 C535.833 57.3333 576.333 93.6667 605 143 C633.667 192.333 648 257.667 648 339 C648 401 638.833 453.333 620.5 496 C602.167 538.667 576 572 542 596 C508 620 466.5 637 417.5 647 C368.5 657 312.333 661.333 249 660 L249 660 Z M311 77 L189 78 L192 292 L345 292 L346 376 L194 376 L197 582 L308 583 C370 583 418.667 573.833 454 555.5 C489.333 537.167 515.5 508.833 532.5 470.5 C549.5 432.167 558 385.667 558 331 C558 160.333 475.667 75.6667 311 77 L311 77 Z " />
<glyph glyph-name="Ntilde" unicode="&#xd1;" horiz-adv-x="756" d="M334 757 C342.667 757 361.833 751 391.5 739 C421.166 727 443.333 721 458 721 C472.666 721 489.832 725.833 509.5 735.5 C529.167 745.167 547.667 758 565 774 L525 824 C496.333 798.667 472.333 786 453 786 C443 786 423.5 792.167 394.5 804.5 C365.5 816.833 343.667 823 329 823 C300.333 823 266.333 807 227 775 L267 725 C277.666 734.333 289.332 742 302 748 C314.667 754 325.333 757 334 757 L334 757 Z M577 660 L568 127 L570 82 L236 660 L107 660 L95 0 L183 0 L191 508 C191 533.333 190 557 188 579 L519 0 L653 0 L664 660 L577 660 Z " />
<glyph glyph-name="Ograve" unicode="&#xd2;" horiz-adv-x="724" d="M354 855 L275 855 L342 723 L413 723 L354 855 Z M369 678 C347.667 678 323.167 675.667 295.5 671 C267.833 666.338 237.833 656.172 205.5 640.5 C173.167 624.833 143.833 600.5 117.5 567.5 C91.1667 534.5 72.6667 497 62 455 C51.3333 413 46 371 46 329 C46 276.333 53 228.333 67 185 C81 141.667 101.667 105 129 75 C156.333 45 189.667 22 229 6 C268.333 -10 312.667 -18 362 -18 C410.667 -18 455 -10 495 6 C535 22 568.833 45.1667 596.5 75.5 C624.167 105.833 645.333 143.167 660 187.5 C674.667 231.833 682 281 682 335 C682 390.333 674.5 439.667 659.5 483 C644.5 526.333 623.167 562.333 595.5 591 C567.834 619.667 534.668 641.333 496 656 C457.333 670.667 415 678 369 678 L369 678 Z M368 599 C419.333 599 461.5 587.5 494.5 564.5 C527.5 541.5 552 510.667 568 472 C584 433.333 592 386.333 592 331 C592 286.333 586.667 246.667 576 212 C565.333 177.333 550 149 530 127 C510 105 486 88.5 458 77.5 C430 66.5 399 61 365 61 C293 61 236.667 84.1666 196 130.5 C155.333 176.833 135 243 135 329 C135 374.333 140.833 414.333 152.5 449 C164.167 483.667 180.333 512 201 534 C221.667 556 246.333 572.333 275 583 C303.667 593.667 334.667 599 368 599 L368 599 Z " />
<glyph glyph-name="Oacute" unicode="&#xd3;" horiz-adv-x="724" d="M487 854 L406 854 L335 722 L408 722 L487 854 Z M369 678 C347.667 678 323.167 675.667 295.5 671 C267.833 666.338 237.833 656.172 205.5 640.5 C173.167 624.833 143.833 600.5 117.5 567.5 C91.1667 534.5 72.6667 497 62 455 C51.3333 413 46 371 46 329 C46 276.333 53 228.333 67 185 C81 141.667 101.667 105 129 75 C156.333 45 189.667 22 229 6 C268.333 -10 312.667 -18 362 -18 C410.667 -18 455 -10 495 6 C535 22 568.833 45.1667 596.5 75.5 C624.167 105.833 645.333 143.167 660 187.5 C674.667 231.833 682 281 682 335 C682 390.333 674.5 439.667 659.5 483 C644.5 526.333 623.167 562.333 595.5 591 C567.834 619.667 534.668 641.333 496 656 C457.333 670.667 415 678 369 678 L369 678 Z M368 599 C419.333 599 461.5 587.5 494.5 564.5 C527.5 541.5 552 510.667 568 472 C584 433.333 592 386.333 592 331 C592 286.333 586.667 246.667 576 212 C565.333 177.333 550 149 530 127 C510 105 486 88.5 458 77.5 C430 66.5 399 61 365 61 C293 61 236.667 84.1666 196 130.5 C155.333 176.833 135 243 135 329 C135 374.333 140.833 414.333 152.5 449 C164.167 483.667 180.333 512 201 534 C221.667 556 246.333 572.333 275 583 C303.667 593.667 334.667 599 368 599 L368 599 Z " />
<glyph glyph-name="Ocircumflex" unicode="&#xd4;" horiz-adv-x="724" d="M372 816 L431 723 L513 723 L418 855 L328 855 L230 723 L311 723 L372 816 Z M369 678 C347.667 678 323.167 675.667 295.5 671 C267.833 666.338 237.833 656.172 205.5 640.5 C173.167 624.833 143.833 600.5 117.5 567.5 C91.1667 534.5 72.6667 497 62 455 C51.3333 413 46 371 46 329 C46 276.333 53 228.333 67 185 C81 141.667 101.667 105 129 75 C156.333 45 189.667 22 229 6 C268.333 -10 312.667 -18 362 -18 C410.667 -18 455 -10 495 6 C535 22 568.833 45.1667 596.5 75.5 C624.167 105.833 645.333 143.167 660 187.5 C674.667 231.833 682 281 682 335 C682 390.333 674.5 439.667 659.5 483 C644.5 526.333 623.167 562.333 595.5 591 C567.834 619.667 534.668 641.333 496 656 C457.333 670.667 415 678 369 678 L369 678 Z M365 61 C293 61 236.667 84.1666 196 130.5 C155.333 176.833 135 243 135 329 C135 374.333 140.833 414.333 152.5 449 C164.167 483.667 180.333 512 201 534 C221.667 556 246.333 572.333 275 583 C303.667 593.667 334.667 599 368 599 C419.333 599 461.5 587.5 494.5 564.5 C527.5 541.5 552 510.667 568 472 C584 433.333 592 386.333 592 331 C592 286.333 586.667 246.667 576 212 C565.333 177.333 550 149 530 127 C510 105 486 88.5 458 77.5 C430 66.5 399 61 365 61 L365 61 Z " />
<glyph glyph-name="Otilde" unicode="&#xd5;" horiz-adv-x="724" d="M507 824 C478.333 798.667 454.333 786 435 786 C425 786 405.5 792.167 376.5 804.5 C347.5 816.833 326 823 312 823 C282 823 248 807 210 775 L249 725 C260.333 734.333 272.167 742 284.5 748 C296.833 754 307.333 757 316 757 C325.333 757 344.667 751 374 739 C403.333 727 425.333 721 440 721 C455.333 721 472.667 725.667 492 735 C511.333 744.333 530 757.333 548 774 L507 824 Z M369 678 C347.667 678 323.167 675.667 295.5 671 C267.833 666.338 237.833 656.172 205.5 640.5 C173.167 624.833 143.833 600.5 117.5 567.5 C91.1667 534.5 72.6667 497 62 455 C51.3333 413 46 371 46 329 C46 276.333 53 228.333 67 185 C81 141.667 101.667 105 129 75 C156.333 45 189.667 22 229 6 C268.333 -10 312.667 -18 362 -18 C410.667 -18 455 -10 495 6 C535 22 568.833 45.1667 596.5 75.5 C624.167 105.833 645.333 143.167 660 187.5 C674.667 231.833 682 281 682 335 C682 390.333 674.5 439.667 659.5 483 C644.5 526.333 623.167 562.333 595.5 591 C567.834 619.667 534.668 641.333 496 656 C457.333 670.667 415 678 369 678 L369 678 Z M368 599 C419.333 599 461.5 587.5 494.5 564.5 C527.5 541.5 552 510.667 568 472 C584 433.333 592 386.333 592 331 C592 286.333 586.667 246.667 576 212 C565.333 177.333 550 149 530 127 C510 105 486 88.5 458 77.5 C430 66.5 399 61 365 61 C293 61 236.667 84.1666 196 130.5 C155.333 176.833 135 243 135 329 C135 374.333 140.833 414.333 152.5 449 C164.167 483.667 180.333 512 201 534 C221.667 556 246.333 572.333 275 583 C303.667 593.667 334.667 599 368 599 L368 599 Z " />
<glyph glyph-name="Odieresis" unicode="&#xd6;" horiz-adv-x="724" d="M280 827 C265.333 827 252.833 821.667 242.5 811 C232.167 800.336 227 787.67 227 773 C227 759 232.167 746.667 242.5 736 C252.833 725.333 265.333 720 280 720 C294 720 306.5 725.333 317.5 736 C328.5 746.667 334 759 334 773 C334 787.667 328.667 800.333 318 811 C307.333 821.667 294.667 827 280 827 L280 827 Z M457 827 C443 827 430.667 821.667 420 811 C409.333 800.336 404 787.67 404 773 C404 759 409.333 746.667 420 736 C430.667 725.333 443 720 457 720 C471.666 720 484.332 725.333 495 736 C505.667 746.667 511 759 511 773 C511 787.667 505.667 800.333 495 811 C484.333 821.667 471.667 827 457 827 L457 827 Z M369 678 C347.667 678 323.167 675.667 295.5 671 C267.833 666.338 237.833 656.172 205.5 640.5 C173.167 624.833 143.833 600.5 117.5 567.5 C91.1667 534.5 72.6667 497 62 455 C51.3333 413 46 371 46 329 C46 276.333 53 228.333 67 185 C81 141.667 101.667 105 129 75 C156.333 45 189.667 22 229 6 C268.333 -10 312.667 -18 362 -18 C410.667 -18 455 -10 495 6 C535 22 568.833 45.1667 596.5 75.5 C624.167 105.833 645.333 143.167 660 187.5 C674.667 231.833 682 281 682 335 C682 390.333 674.5 439.667 659.5 483 C644.5 526.333 623.167 562.333 595.5 591 C567.834 619.667 534.668 641.333 496 656 C457.333 670.667 415 678 369 678 L369 678 Z M368 599 C419.333 599 461.5 587.5 494.5 564.5 C527.5 541.5 552 510.667 568 472 C584 433.333 592 386.333 592 331 C592 286.333 586.667 246.667 576 212 C565.333 177.333 550 149 530 127 C510 105 486 88.5 458 77.5 C430 66.5 399 61 365 61 C293 61 236.667 84.1666 196 130.5 C155.333 176.833 135 243 135 329 C135 374.333 140.833 414.333 152.5 449 C164.167 483.667 180.333 512 201 534 C221.667 556 246.333 572.333 275 583 C303.667 593.667 334.667 599 368 599 L368 599 Z " />
<glyph glyph-name="multiply" unicode="&#xd7;" horiz-adv-x="554" d="M473 72 L325 221 L472 367 L423 416 L277 270 L130 419 L81 369 L228 221 L79 72 L127 23 L277 173 L425 23 L473 72 Z " />
<glyph glyph-name="Oslash" unicode="&#xd8;" horiz-adv-x="773" d="M737 652 L688 701 L602 609 C549.333 653.667 480.667 676 396 676 C350.667 676 308.167 668.833 268.5 654.5 C228.833 640.167 194.5 618.5 165.5 589.5 C136.5 560.5 113.833 523.833 97.5 479.5 C81.1667 435.167 73 385 73 329 C73 240.333 92.6666 166.333 132 107 L41 9 L90 -40 L179 54 C233 7.33333 303 -16 389 -16 C437.667 -16 482.167 -8 522.5 8 C562.833 24 596.833 47.1667 624.5 77.5 C652.167 107.833 673.333 144.833 688 188.5 C702.667 232.167 710 281 710 335 C710 426.333 689.667 500.667 649 558 L737 652 Z M162 329 C162 373.667 167.833 413.167 179.5 447.5 C191.167 481.833 207.333 510 228 532 C248.667 554 273.333 570.5 302 581.5 C330.667 592.5 362 598 396 598 C456.667 598 506 581 544 547 L195 174 C173 215.333 162 267 162 329 L162 329 Z M620 331 C620 275.667 610.833 226.667 592.5 184 C574.167 141.333 547 110.333 511 91 C475 71.6667 435.333 62 392 62 C328.667 62 277 80.3333 237 117 L587 491 C609 448.333 620 395 620 331 L620 331 Z " />
<glyph glyph-name="Ugrave" unicode="&#xd9;" horiz-adv-x="709" d="M346 855 L266 855 L333 723 L404 723 L346 855 Z M626 660 L537 660 L528 209 C526 113.667 467.667 66 353 66 C236.333 66 179 113.667 181 209 L188 660 L98 660 L92 191 C91.3333 155.667 97.8333 124.833 111.5 98.5 C125.167 72.1667 144.167 50.8333 168.5 34.5 C192.833 18.1667 220.833 6.16667 252.5 -1.5 C284.167 -9.16667 318 -13 354 -13 C404 -13 446 -6.66667 480 6 C514 18.6667 540 33.5 558 50.5 C576 67.5 590.333 87.1667 601 109.5 C611.667 131.833 617.333 159 618 191 L626 660 Z " />
<glyph glyph-name="Uacute" unicode="&#xda;" horiz-adv-x="709" d="M482 854 L401 854 L331 722 L403 722 L482 854 Z M626 660 L537 660 L528 209 C526 113.667 467.667 66 353 66 C236.333 66 179 113.667 181 209 L188 660 L98 660 L92 191 C91.3333 155.667 97.8333 124.833 111.5 98.5 C125.167 72.1667 144.167 50.8333 168.5 34.5 C192.833 18.1667 220.833 6.16667 252.5 -1.5 C284.167 -9.16667 318 -13 354 -13 C404 -13 446 -6.66667 480 6 C514 18.6667 540 33.5 558 50.5 C576 67.5 590.333 87.1667 601 109.5 C611.667 131.833 617.333 159 618 191 L626 660 Z " />
<glyph glyph-name="Ucircumflex" unicode="&#xdb;" horiz-adv-x="709" d="M367 816 L427 723 L508 723 L413 855 L323 855 L225 723 L306 723 L367 816 Z M537 660 L528 209 C526 113.667 467.667 66 353 66 C236.333 66 179 113.667 181 209 L188 660 L98 660 L92 191 C91.3333 155.667 97.8333 124.833 111.5 98.5 C125.167 72.1667 144.167 50.8333 168.5 34.5 C192.833 18.1667 220.833 6.16667 252.5 -1.5 C284.167 -9.16667 318 -13 354 -13 C404 -13 446 -6.66667 480 6 C514 18.6667 540 33.5 558 50.5 C576 67.5 590.333 87.1667 601 109.5 C611.667 131.833 617.333 159 618 191 L626 660 L537 660 Z " />
<glyph glyph-name="Udieresis" unicode="&#xdc;" horiz-adv-x="709" d="M275 827 C261 827 248.667 821.667 238 811 C227.333 800.336 222 787.67 222 773 C222 759 227.333 746.667 238 736 C248.667 725.333 261 720 275 720 C289.666 720 302.333 725.333 313 736 C323.667 746.667 329 759 329 773 C329 787.667 323.667 800.333 313 811 C302.333 821.667 289.667 827 275 827 L275 827 Z M452 827 C438 827 425.667 821.667 415 811 C404.333 800.336 399 787.67 399 773 C399 759 404.333 746.667 415 736 C425.667 725.333 438 720 452 720 C466.666 720 479.332 725.333 490 736 C500.667 746.667 506 759 506 773 C506 787.667 500.667 800.333 490 811 C479.333 821.667 466.667 827 452 827 L452 827 Z M626 660 L537 660 L528 209 C526 113.667 467.667 66 353 66 C236.333 66 179 113.667 181 209 L188 660 L98 660 L92 191 C91.3333 155.667 97.8333 124.833 111.5 98.5 C125.167 72.1667 144.167 50.8333 168.5 34.5 C192.833 18.1667 220.833 6.16667 252.5 -1.5 C284.167 -9.16667 318 -13 354 -13 C404 -13 446 -6.66667 480 6 C514 18.6667 540 33.5 558 50.5 C576 67.5 590.333 87.1667 601 109.5 C611.667 131.833 617.333 159 618 191 L626 660 Z " />
<glyph glyph-name="Yacute" unicode="&#xdd;" horiz-adv-x="573" d="M410 854 L329 854 L259 722 L331 722 L410 854 Z M472 660 L288 376 L120 660 L17 660 L238 296 L233 0 L326 0 L331 296 L573 660 L472 660 Z " />
<glyph glyph-name="Thorn" unicode="&#xde;" horiz-adv-x="544" d="M262 540 L188 539 L190 660 L109 660 L97 0 L178 0 L180 125 L302 125 C342.667 126.333 378 135.833 408 153.5 C438 171.167 460.333 195.667 475 227 C489.667 258.333 497 294.667 497 336 C497 400.666 479 450.833 443 486.5 C407 522.167 346.667 540 262 540 L262 540 Z M284 199 C262.667 198.33 229 198.664 183 200 L187 466 L257 467 C305.667 467 340.5 461 361.5 449 C382.5 437 396.5 420.5 403.5 399.5 C410.5 378.5 414 357 414 335 C414 290.333 403.5 256.833 382.5 234.5 C361.5 212.167 328.667 200.333 284 199 L284 199 Z " />
<glyph glyph-name="germandbls" unicode="&#xdf;" horiz-adv-x="555" d="M352 345 C352 354.333 356 364.667 364 376 C372 387.333 388.167 405.333 412.5 430 C436.833 454.667 455.167 475.5 467.5 492.5 C479.833 509.5 488.5 526 493.5 542 C498.5 558 501 572.333 501 585 C501 611.667 494.333 635.5 481 656.5 C467.668 677.5 451.334 694.833 432 708.5 C412.667 722.167 392 731.833 370 737.5 C348 743.167 327 746 307 746 C266.333 746 230.833 737.667 200.5 721 C170.167 704.336 147 683.169 131 657.5 C115 631.836 106.667 602.669 106 570 L104 446 L32 446 L31 375 L102 375 L95 0 L178 0 L187 551 C187.667 577.667 194.333 600.833 207 620.5 C219.667 640.167 235.167 653.667 253.5 661 C271.833 668.333 289 672 305 672 C328.333 672 349 666.667 367 656 C385 645.333 397.333 632.833 404 618.5 C410.667 604.167 414 591 414 579 C414 575 412.833 567.333 410.5 556 C408.167 544.667 401.667 531.333 391 516 C380.333 500.668 359 476.834 327 444.5 C295 412.167 275.833 388.5 269.5 373.5 C263.167 358.5 260 346.667 260 338 C260 310.667 279.333 280.167 318 246.5 C356.666 212.834 378.833 193.167 384.5 187.5 C390.167 181.833 396 175 402 167 C408 159 412.5 151 415.5 143 C418.5 135 420 127.667 420 121 C420 103.667 411.167 89.5 393.5 78.5 C375.833 67.5 352.667 62 324 62 C301.333 62 277.667 65.6667 253 73 L239 6 C269.667 -4 301 -9 333 -9 C385 -9 426.667 3 458 27 C489.333 51 505 82.3333 505 121 C505 138.333 502.167 154 496.5 168 C490.833 182 484.5 193.833 477.5 203.5 C470.5 213.167 462.5 222.667 453.5 232 C444.5 241.333 429.333 255 408 273 C386.667 291 372 305 364 315 C356 325 352 335 352 345 L352 345 Z " />
<glyph glyph-name="agrave" unicode="&#xe0;" horiz-adv-x="472" d="M279 521 L217 660 L136 660 L206 521 L279 521 Z M235 458 C209 458 180.833 455.167 150.5 449.5 C120.167 443.833 92.6667 436.333 68 427 L88 361 C120.667 372.333 149.333 379.5 174 382.5 C198.667 385.5 215.667 387 225 387 C261 387 286 380 300 366 C314 352 320.667 333 320 309 L320 260 L220 259 C179.333 258.333 145.333 253.167 118 243.5 C90.6667 233.833 69.3333 219.333 54 200 C38.6667 180.667 31 155.667 31 125 C31 83.6667 44 50.5 70 25.5 C96 0.5 132 -12 178 -12 C240 -12 287.333 11.6667 320 59 L320 0 L399 0 L404 335 C404 361 398.333 382.167 387 398.5 C375.667 414.833 360.834 427.667 342.5 437 C324.167 446.333 304 452.167 282 454.5 C260 456.833 244.333 458 235 458 L235 458 Z M194 55 C170 55 150.667 61.3333 136 74 C121.333 86.6667 114 104 114 126 C114 150.667 124 168.333 144 179 C164 189.667 195.333 195.667 238 197 L319 198 L317 107 C303.667 93 285.5 80.8333 262.5 70.5 C239.5 60.1667 216.667 55 194 55 L194 55 Z " />
<glyph glyph-name="aacute" unicode="&#xe1;" horiz-adv-x="472" d="M353 660 L270 660 L196 521 L270 521 L353 660 Z M235 458 C209 458 180.833 455.167 150.5 449.5 C120.167 443.833 92.6667 436.333 68 427 L88 361 C120.667 372.333 149.333 379.5 174 382.5 C198.667 385.5 215.667 387 225 387 C261 387 286 380 300 366 C314 352 320.667 333 320 309 L320 260 L220 259 C179.333 258.333 145.333 253.167 118 243.5 C90.6667 233.833 69.3333 219.333 54 200 C38.6667 180.667 31 155.667 31 125 C31 83.6667 44 50.5 70 25.5 C96 0.5 132 -12 178 -12 C240 -12 287.333 11.6667 320 59 L320 0 L399 0 L404 335 C404 361 398.333 382.167 387 398.5 C375.667 414.833 360.834 427.667 342.5 437 C324.167 446.333 304 452.167 282 454.5 C260 456.833 244.333 458 235 458 L235 458 Z M194 55 C170 55 150.667 61.3333 136 74 C121.333 86.6667 114 104 114 126 C114 150.667 124 168.333 144 179 C164 189.667 195.333 195.667 238 197 L319 198 L317 107 C303.667 93 285.5 80.8333 262.5 70.5 C239.5 60.1667 216.667 55 194 55 L194 55 Z " />
<glyph glyph-name="acircumflex" unicode="&#xe2;" horiz-adv-x="472" d="M240 613 L303 520 L384 520 L285 660 L198 660 L93 520 L176 520 L240 613 Z M235 458 C209 458 180.833 455.167 150.5 449.5 C120.167 443.833 92.6667 436.333 68 427 L88 361 C120.667 372.333 149.333 379.5 174 382.5 C198.667 385.5 215.667 387 225 387 C261 387 286 380 300 366 C314 352 320.667 333 320 309 L320 260 L220 259 C179.333 258.333 145.333 253.167 118 243.5 C90.6667 233.833 69.3333 219.333 54 200 C38.6667 180.667 31 155.667 31 125 C31 83.6667 44 50.5 70 25.5 C96 0.5 132 -12 178 -12 C240 -12 287.333 11.6667 320 59 L320 0 L399 0 L404 335 C404 361 398.333 382.167 387 398.5 C375.667 414.833 360.834 427.667 342.5 437 C324.167 446.333 304 452.167 282 454.5 C260 456.833 244.333 458 235 458 L235 458 Z M194 55 C170 55 150.667 61.3333 136 74 C121.333 86.6667 114 104 114 126 C114 150.667 123.833 168.333 143.5 179 C163.167 189.667 194.667 195.667 238 197 L319 198 L317 107 C303.667 93 285.5 80.8333 262.5 70.5 C239.5 60.1667 216.667 55 194 55 L194 55 Z " />
<glyph glyph-name="atilde" unicode="&#xe3;" horiz-adv-x="472" d="M181 574 C190.333 574 209.666 568 239 556 C268.333 544 290.333 538 305 538 C320.333 538 337.833 543 357.5 553 C377.167 563 395.667 575.667 413 591 L373 640 C361.668 629.333 349.335 620.5 336 613.5 C322.667 606.5 311 603 301 603 C290.333 603 270.667 609.167 242 621.5 C213.334 633.833 191.667 640 177 640 C162.333 640 145.667 635.333 127 626 C108.333 616.667 91 605.333 75 592 L115 542 C126.333 552 138 559.833 150 565.5 C162 571.167 172.333 574 181 574 L181 574 Z M235 458 C209 458 180.833 455.167 150.5 449.5 C120.167 443.833 92.6667 436.333 68 427 L88 361 C120.667 372.333 149.333 379.5 174 382.5 C198.667 385.5 215.667 387 225 387 C261 387 286 380 300 366 C314 352 320.667 333 320 309 L320 260 L220 259 C179.333 258.333 145.333 253.167 118 243.5 C90.6667 233.833 69.3333 219.333 54 200 C38.6667 180.667 31 155.667 31 125 C31 83.6667 44 50.5 70 25.5 C96 0.5 132 -12 178 -12 C240 -12 287.333 11.6667 320 59 L320 0 L399 0 L404 335 C404 361 398.333 382.167 387 398.5 C375.667 414.833 360.834 427.667 342.5 437 C324.167 446.333 304 452.167 282 454.5 C260 456.833 244.333 458 235 458 L235 458 Z M194 55 C170 55 150.667 61.3333 136 74 C121.333 86.6667 114 104 114 126 C114 150.667 123.833 168.333 143.5 179 C163.167 189.667 194.667 195.667 238 197 L319 198 L317 107 C303.667 93 285.5 80.8333 262.5 70.5 C239.5 60.1667 216.667 55 194 55 L194 55 Z " />
<glyph glyph-name="adieresis" unicode="&#xe4;" horiz-adv-x="472" d="M151 538 C165 538 177.5 543.167 188.5 553.5 C199.5 563.833 205 576 205 590 C205 604.667 199.667 617.333 189 628 C178.334 638.667 165.667 644 151 644 C137 644 124.667 638.667 114 628 C103.333 617.338 98 604.671 98 590 C98 576 103.333 563.833 114 553.5 C124.667 543.167 137 538 151 538 L151 538 Z M328 538 C342.665 538 355.332 543.167 366 553.5 C376.667 563.833 382 576 382 590 C382 604.667 376.667 617.333 366 628 C355.333 638.667 342.667 644 328 644 C314 644 301.667 638.667 291 628 C280.333 617.338 275 604.671 275 590 C275 576 280.333 563.833 291 553.5 C301.667 543.167 314 538 328 538 L328 538 Z M235 458 C209 458 180.833 455.167 150.5 449.5 C120.167 443.833 92.6667 436.333 68 427 L88 361 C120.667 372.333 149.333 379.5 174 382.5 C198.667 385.5 215.667 387 225 387 C261 387 286 380 300 366 C314 352 320.667 333 320 309 L320 260 L220 259 C179.333 258.333 145.333 253.167 118 243.5 C90.6667 233.833 69.3333 219.333 54 200 C38.6667 180.667 31 155.667 31 125 C31 83.6667 44 50.5 70 25.5 C96 0.5 132 -12 178 -12 C240 -12 287.333 11.6667 320 59 L320 0 L399 0 L404 335 C404 361 398.333 382.167 387 398.5 C375.667 414.833 360.834 427.667 342.5 437 C324.167 446.333 304 452.167 282 454.5 C260 456.833 244.333 458 235 458 L235 458 Z M194 55 C170 55 150.667 61.3333 136 74 C121.333 86.6667 114 104 114 126 C114 150.667 123.833 168.333 143.5 179 C163.167 189.667 194.667 195.667 238 197 L319 198 L317 107 C303.667 93 285.5 80.8333 262.5 70.5 C239.5 60.1667 216.667 55 194 55 L194 55 Z " />
<glyph glyph-name="aring" unicode="&#xe5;" horiz-adv-x="472" d="M240 504 C253.333 504 267.167 507 281.5 513 C295.833 519 307.667 529.667 317 545 C326.333 560.333 331 577 331 595 C331 614.331 326.333 631.664 317 647 C307.668 662.333 295.834 673 281.5 679 C267.167 685 253.333 688 240 688 C226 688 211.667 685 197 679 C182.333 673 170.5 662.333 161.5 647 C152.5 631.667 148 614.333 148 595 C148 583.667 150.667 570.833 156 556.5 C161.333 542.167 171.333 529.833 186 519.5 C200.667 509.167 218.667 504 240 504 L240 504 Z M239 640 C251.667 640 262.167 635.833 270.5 627.5 C278.833 619.167 283 608.333 283 595 C283 582.333 278.833 571.833 270.5 563.5 C262.167 555.167 251.667 551 239 551 C226.334 551 216.167 555.167 208.5 563.5 C200.833 571.833 197 582.333 197 595 C197 608.329 200.833 619.162 208.5 627.5 C216.167 635.833 226.333 640 239 640 L239 640 Z M235 458 C209 458 180.833 455.167 150.5 449.5 C120.167 443.833 92.6667 436.333 68 427 L88 361 C120.667 372.333 149.333 379.5 174 382.5 C198.667 385.5 215.667 387 225 387 C261 387 286 380 300 366 C314 352 320.667 333 320 309 L320 260 L220 259 C179.333 258.333 145.333 253.167 118 243.5 C90.6667 233.833 69.3333 219.333 54 200 C38.6667 180.667 31 155.667 31 125 C31 83.6667 44 50.5 70 25.5 C96 0.5 132 -12 178 -12 C240 -12 287.333 11.6667 320 59 L320 0 L399 0 L404 335 C404 361 398.333 382.167 387 398.5 C375.667 414.833 360.834 427.667 342.5 437 C324.167 446.333 304 452.167 282 454.5 C260 456.833 244.333 458 235 458 L235 458 Z M194 55 C170 55 150.667 61.3333 136 74 C121.333 86.6667 114 104 114 126 C114 150.667 124 168.333 144 179 C164 189.667 195.333 195.667 238 197 L319 198 L317 107 C303.667 93 285.5 80.8333 262.5 70.5 C239.5 60.1667 216.667 55 194 55 L194 55 Z " />
<glyph glyph-name="ae" unicode="&#xe6;" horiz-adv-x="745" d="M700 266 C700 326.667 685.333 373.833 656 407.5 C626.667 441.167 584 458 528 458 C495.333 458 465.333 451.667 438 439 C410.667 426.333 389 408.667 373 386 C369 403.333 359.833 417.667 345.5 429 C331.167 440.333 313.834 448 293.5 452 C273.167 456 253.667 458 235 458 C211 458 183.667 455.167 153 449.5 C122.333 443.833 94.3333 436.333 69 427 L90 363 C110 370.333 132.167 376.5 156.5 381.5 C180.833 386.5 202 389 220 389 C254.667 389 279.667 382.667 295 370 C310.333 357.333 318 336.667 318 308 L318 260 L220 259 C179.333 258.333 145.333 253.167 118 243.5 C90.6667 233.833 69.3333 219.333 54 200 C38.6667 180.667 31 155.667 31 125 C31 82.3333 44.3333 48.8333 71 24.5 C97.6667 0.166672 134.333 -12 181 -12 C252.333 -12 312.333 10.6667 361 56 C382.333 30.6667 406.667 13 434 3 C461.333 -7 493.667 -12 531 -12 C576.333 -12 625 -5 677 9 L662 78 C618 65.3333 574.333 59 531 59 C483.667 59 450.5 70 431.5 92 C412.5 114 403 153 403 209 L697 209 C699 220.333 700 239.333 700 266 L700 266 Z M519 390 C542.333 390 561.333 385.333 576 376 C590.667 366.667 601.5 354 608.5 338 C615.5 322 619 304.667 619 286 L618 272 L404 272 C408 309.333 419.5 338.333 438.5 359 C457.5 379.667 484.333 390 519 390 L519 390 Z M114 126 C114 150.667 123.833 168.333 143.5 179 C163.167 189.667 194.667 195.667 238 197 L318 198 C318 152 321.667 119 329 99 C316.333 87 297.333 76.5 272 67.5 C246.667 58.5 222.667 54 200 54 C189.333 54 177.333 55.6667 164 59 C150.667 62.3333 139 69.6667 129 81 C119 92.3333 114 107.333 114 126 L114 126 Z " />
<glyph glyph-name="ccedilla" unicode="&#xe7;" horiz-adv-x="419" d="M398 9 L384 77 C344.667 65.6667 309 60.0001 277 60 C243.667 60 216.5 66.5 195.5 79.5 C174.5 92.5 158.833 110.833 148.5 134.5 C138.167 158.167 133 187.667 133 223 C133 275.667 144.833 316 168.5 344 C192.167 372 227.667 386 275 386 C304.333 386 340.667 379.667 384 367 L400 436 C353.333 450.667 309.333 458 268 458 C229.333 458 195.667 451.333 167 438 C138.333 424.667 115 406.834 97 384.5 C79 362.167 66.1667 336.5 58.5 307.5 C50.8333 278.5 47 249.333 47 220 C47 178.667 53 142.833 65 112.5 C77 82.1667 94.5 57 117.5 37 C140.5 17 169.333 3 204 -5 L202 -31 C202 -44.3333 204.5 -54.6667 209.5 -62 C214.5 -69.3334 224.667 -78.6667 240 -90 C259.333 -102.667 269 -115.667 269 -129 C269 -151.667 253 -163 221 -163 C207 -163 194.333 -161.667 183 -159 L182 -218 C193.333 -220.667 207 -222 223 -222 C249.667 -222 271.667 -217.167 289 -207.5 C306.333 -197.833 318.333 -186.167 325 -172.5 C331.667 -158.833 335 -144.333 335 -129 C335 -111 331.667 -96.8333 325 -86.5 C318.333 -76.1667 308.333 -66 295 -56 C284.333 -48 277.333 -41.5 274 -36.5 C270.667 -31.5 269 -24.3333 269 -15 L269 -12 C311 -12 354 -5 398 9 L398 9 Z " />
<glyph glyph-name="egrave" unicode="&#xe8;" horiz-adv-x="472" d="M294 521 L232 660 L151 660 L221 521 L294 521 Z M424 213 L426 257 C426 320.333 411.333 369.667 382 405 C352.667 440.333 310.334 458 255 458 C191 458 140.167 436.833 102.5 394.5 C64.8333 352.167 46 291.333 46 212 C46 160 54 117.833 70 85.5 C86 53.1667 109.5 28.8333 140.5 12.5 C171.5 -3.83333 212 -12 262 -12 C308.667 -12 357 -5 407 9 L392 78 C348 65.3333 305.333 59 264 59 C217.333 59 183.333 69.3333 162 90 C140.667 110.667 130 151.667 130 213 L424 213 Z M246 390 C268 390 286.167 385.833 300.5 377.5 C314.833 369.168 325.833 357.335 333.5 342 C341.167 326.667 345 309.334 345 290 L345 279 L133 279 C138.333 314.333 150.5 341.667 169.5 361 C188.5 380.333 214 390 246 390 L246 390 Z " />
<glyph glyph-name="eacute" unicode="&#xe9;" horiz-adv-x="472" d="M368 660 L285 660 L211 521 L285 521 L368 660 Z M424 213 L426 257 C426 320.333 411.333 369.667 382 405 C352.667 440.333 310.334 458 255 458 C191 458 140.167 436.833 102.5 394.5 C64.8333 352.167 46 291.333 46 212 C46 160 54 117.833 70 85.5 C86 53.1667 109.5 28.8333 140.5 12.5 C171.5 -3.83333 212 -12 262 -12 C308.667 -12 357 -5 407 9 L392 78 C348 65.3333 305.333 59 264 59 C223.333 59 193.833 65.5 175.5 78.5 C157.167 91.5 145 108.667 139 130 C133 151.333 130 179 130 213 L424 213 Z M246 390 C268 390 286.167 385.833 300.5 377.5 C314.833 369.168 325.833 357.335 333.5 342 C341.167 326.667 345 309.334 345 290 L345 279 L133 279 C138.333 314.333 150.5 341.667 169.5 361 C188.5 380.333 214 390 246 390 L246 390 Z " />
<glyph glyph-name="ecircumflex" unicode="&#xea;" horiz-adv-x="472" d="M255 613 L318 520 L399 520 L300 660 L213 660 L108 520 L191 520 L255 613 Z M424 213 L426 257 C426 320.333 411.333 369.667 382 405 C352.667 440.333 310.334 458 255 458 C191 458 140.167 436.833 102.5 394.5 C64.8333 352.167 46 291.333 46 212 C46 160 54 117.833 70 85.5 C86 53.1667 109.5 28.8333 140.5 12.5 C171.5 -3.83333 212 -12 262 -12 C308.667 -12 357 -5 407 9 L392 78 C348 65.3333 305.333 59 264 59 C223.333 59 193.833 65.5 175.5 78.5 C157.167 91.5 145 108.667 139 130 C133 151.333 130 179 130 213 L424 213 Z M246 390 C268 390 286.167 385.833 300.5 377.5 C314.833 369.168 325.833 357.335 333.5 342 C341.167 326.667 345 309.334 345 290 L345 279 L133 279 C138.333 314.333 150.5 341.667 169.5 361 C188.5 380.333 214 390 246 390 L246 390 Z " />
<glyph glyph-name="edieresis" unicode="&#xeb;" horiz-adv-x="472" d="M166 538 C180 538 192.5 543.167 203.5 553.5 C214.5 563.833 220 576 220 590 C220 604.667 214.667 617.333 204 628 C193.334 638.667 180.667 644 166 644 C151.333 644 138.833 638.667 128.5 628 C118.167 617.338 113 604.671 113 590 C113 576 118.167 563.833 128.5 553.5 C138.833 543.167 151.333 538 166 538 L166 538 Z M343 538 C357.665 538 370.332 543.167 381 553.5 C391.667 563.833 397 576 397 590 C397 604.667 391.667 617.333 381 628 C370.333 638.667 357.667 644 343 644 C329 644 316.667 638.667 306 628 C295.333 617.338 290 604.671 290 590 C290 576 295.333 563.833 306 553.5 C316.667 543.167 329 538 343 538 L343 538 Z M424 213 L426 257 C426 320.333 411.333 369.667 382 405 C352.667 440.333 310.334 458 255 458 C191 458 140.167 436.833 102.5 394.5 C64.8333 352.167 46 291.333 46 212 C46 160 54 117.833 70 85.5 C86 53.1667 109.5 28.8333 140.5 12.5 C171.5 -3.83333 212 -12 262 -12 C308.667 -12 357 -5 407 9 L392 78 C348 65.3333 305.333 59 264 59 C217.333 59 183.333 69.3333 162 90 C140.667 110.667 130 151.667 130 213 L424 213 Z M246 390 C268 390 286.167 385.833 300.5 377.5 C314.833 369.168 325.833 357.335 333.5 342 C341.167 326.667 345 309.334 345 290 L345 279 L133 279 C138.333 314.333 150.5 341.667 169.5 361 C188.5 380.333 214 390 246 390 L246 390 Z " />
<glyph glyph-name="igrave" unicode="&#xec;" horiz-adv-x="246" d="M104 660 L24 660 L93 521 L166 521 L104 660 Z M169 446 L84 446 L76 0 L162 0 L169 446 Z " />
<glyph glyph-name="iacute" unicode="&#xed;" horiz-adv-x="246" d="M240 660 L158 660 L84 521 L157 521 L240 660 Z M169 446 L84 446 L76 0 L162 0 L169 446 Z " />
<glyph glyph-name="icircumflex" unicode="&#xee;" horiz-adv-x="246" d="M172 660 L86 660 L-19 520 L63 520 L128 613 L190 520 L272 520 L172 660 Z M76 0 L162 0 L169 446 L84 446 L76 0 Z " />
<glyph glyph-name="idieresis" unicode="&#xef;" horiz-adv-x="246" d="M38 644 C24 644 11.8333 638.667 1.5 628 C-8.83333 617.338 -14 604.671 -14 590 C-14 576 -8.83333 563.833 1.5 553.5 C11.8333 543.167 24 538 38 538 C52.6667 538 65.3333 543.167 76 553.5 C86.6667 563.833 92 576 92 590 C92 604.667 86.6667 617.333 76 628 C65.3333 638.667 52.6667 644 38 644 L38 644 Z M215 644 C201 644 188.833 638.667 178.5 628 C168.167 617.338 163 604.671 163 590 C163 576 168.167 563.833 178.5 553.5 C188.833 543.167 201 538 215 538 C229.667 538 242.333 543.167 253 553.5 C263.667 563.833 269 576 269 590 C269 604.667 263.667 617.333 253 628 C242.334 638.667 229.667 644 215 644 L215 644 Z M169 446 L84 446 L76 0 L162 0 L169 446 Z " />
<glyph glyph-name="eth" unicode="&#xf0;" horiz-adv-x="515" d="M460 609 L426 663 L330 604 C303.333 638.667 276 670.333 248 699 L189 649 C217 619 241 589.667 261 561 L148 491 L181 436 L298 508 C331.333 453.333 353.333 402 364 354 C345.333 364.667 323.667 373.167 299 379.5 C274.333 385.833 250.667 389 228 389 C174.667 389 131 371.833 97 337.5 C63 303.167 46 256.334 46 197 C46 166.333 50.8333 138 60.5 112 C70.1667 86 84 64 102 46 C120 28 141.5 14 166.5 4 C191.5 -6 218.667 -11 248 -11 C314 -11 364.5 11.5 399.5 56.5 C434.5 101.5 453 167.667 455 255 C457 355.667 427.333 454 366 550 L460 609 Z M249 63 C209 63 179.167 75 159.5 99 C139.833 123 130 155 130 195 C130 238.333 140.5 270.167 161.5 290.5 C182.5 310.833 209.667 321 243 321 C263.667 321 286.167 317.833 310.5 311.5 C334.833 305.167 356 296 374 284 L374 265 C374 194.333 364 143 344 111 C324 79 292.333 63 249 63 L249 63 Z " />
<glyph glyph-name="ntilde" unicode="&#xf1;" horiz-adv-x="548" d="M223 574 C232.333 574 251.5 568 280.5 556 C309.5 544 331.333 538 346 538 C362 538 379.667 542.833 399 552.5 C418.333 562.167 436.667 575 454 591 L415 640 C403.667 629.333 391.167 620.5 377.5 613.5 C363.833 606.5 352 603 342 603 C331.333 603 311.667 609.167 283 621.5 C254.333 633.833 233 640 219 640 C204.334 640 187.667 635.333 169 626 C150.333 616.667 133 605.333 117 592 L156 542 C167.333 551.333 179.166 559 191.5 565 C203.833 571 214.333 574 223 574 L223 574 Z M320 458 C287.333 458 257.5 452.333 230.5 441 C203.5 429.667 182.333 415.334 167 398 L167 446 L84 446 L76 0 L163 0 L169 341 C183 355.667 200.5 367.167 221.5 375.5 C242.5 383.833 266 388 292 388 C325.333 388 348.833 380.833 362.5 366.5 C376.167 352.167 383 332.334 383 307 L378 0 L464 0 L470 337 C470 368.333 461.5 393.333 444.5 412 C427.5 430.667 407.167 443 383.5 449 C359.833 455 338.667 458 320 458 L320 458 Z " />
<glyph glyph-name="ograve" unicode="&#xf2;" horiz-adv-x="541" d="M251 660 L170 660 L240 521 L313 521 L251 660 Z M275 458 C205 458 149.5 436.667 108.5 394 C67.5 351.333 47 294 47 222 C47 186.667 52.1667 154.5 62.5 125.5 C72.8333 96.5 86.3333 73 103 55 C119.667 37 137.667 23.1667 157 13.5 C176.333 3.83334 196 -2.83333 216 -6.5 C236 -10.1667 254 -12 270 -12 C338.667 -12 393.167 9.5 433.5 52.5 C473.833 95.5 494 153.667 494 227 C494 299 474.667 355.5 436 396.5 C397.333 437.5 343.667 458 275 458 L275 458 Z M273 388 C316.333 388 349.667 373.833 373 345.5 C396.333 317.167 408 276.667 408 224 C408 171.333 396.333 130.5 373 101.5 C349.667 72.5 316.667 58 274 58 C230 58 195.5 72.8333 170.5 102.5 C145.5 132.167 133 173 133 225 C133 276.333 145.333 316.333 170 345 C194.667 373.667 229 388 273 388 L273 388 Z " />
<glyph glyph-name="oacute" unicode="&#xf3;" horiz-adv-x="541" d="M387 660 L304 660 L230 521 L304 521 L387 660 Z M275 458 C205 458 149.5 436.667 108.5 394 C67.5 351.333 47 294 47 222 C47 186.667 52.1667 154.5 62.5 125.5 C72.8333 96.5 86.3333 73 103 55 C119.667 37 137.667 23.1667 157 13.5 C176.333 3.83334 196 -2.83333 216 -6.5 C236 -10.1667 254 -12 270 -12 C338.667 -12 393.167 9.5 433.5 52.5 C473.833 95.5 494 153.667 494 227 C494 299 474.667 355.5 436 396.5 C397.333 437.5 343.667 458 275 458 L275 458 Z M273 388 C316.333 388 349.667 373.833 373 345.5 C396.333 317.167 408 276.667 408 224 C408 171.333 396.333 130.5 373 101.5 C349.667 72.5 316.667 58 274 58 C230 58 195.5 72.8333 170.5 102.5 C145.5 132.167 133 173 133 225 C133 276.333 145.333 316.333 170 345 C194.667 373.667 229 388 273 388 L273 388 Z " />
<glyph glyph-name="ocircumflex" unicode="&#xf4;" horiz-adv-x="541" d="M274 613 L337 520 L418 520 L319 660 L232 660 L127 520 L210 520 L274 613 Z M275 458 C205 458 149.5 436.667 108.5 394 C67.5 351.333 47 294 47 222 C47 186.667 52.1667 154.5 62.5 125.5 C72.8333 96.5 86.3333 73 103 55 C119.667 37 137.667 23.1667 157 13.5 C176.333 3.83334 196 -2.83333 216 -6.5 C236 -10.1667 254 -12 270 -12 C338.667 -12 393.167 9.5 433.5 52.5 C473.833 95.5 494 153.667 494 227 C494 299 474.667 355.5 436 396.5 C397.333 437.5 343.667 458 275 458 L275 458 Z M274 58 C230 58 195.5 72.8333 170.5 102.5 C145.5 132.167 133 173 133 225 C133 276.333 145.333 316.333 170 345 C194.667 373.667 229 388 273 388 C316.333 388 349.667 373.833 373 345.5 C396.333 317.167 408 276.667 408 224 C408 171.333 396.333 130.5 373 101.5 C349.667 72.5 316.667 58 274 58 L274 58 Z " />
<glyph glyph-name="otilde" unicode="&#xf5;" horiz-adv-x="541" d="M407 640 C395.668 629.333 383.335 620.5 370 613.5 C356.667 606.5 345 603 335 603 C324.333 603 304.667 609.167 276 621.5 C247.334 633.833 225.667 640 211 640 C196.334 640 179.667 635.333 161 626 C142.333 616.667 125 605.333 109 592 L148 542 C159.333 551.333 171.166 559 183.5 565 C195.833 571 206.333 574 215 574 C224.333 574 243.5 568 272.5 556 C301.5 544 323.333 538 338 538 C354 538 371.667 542.833 391 552.5 C410.333 562.167 429 575 447 591 L407 640 Z M275 458 C205 458 149.5 436.667 108.5 394 C67.5 351.333 47 294 47 222 C47 186.667 52.1667 154.5 62.5 125.5 C72.8333 96.5 86.3333 73 103 55 C119.667 37 137.667 23.1667 157 13.5 C176.333 3.83334 196 -2.83333 216 -6.5 C236 -10.1667 254 -12 270 -12 C338.667 -12 393.167 9.5 433.5 52.5 C473.833 95.5 494 153.667 494 227 C494 299 474.667 355.5 436 396.5 C397.333 437.5 343.667 458 275 458 L275 458 Z M273 388 C316.333 388 349.667 373.833 373 345.5 C396.333 317.167 408 276.667 408 224 C408 171.333 396.333 130.5 373 101.5 C349.667 72.5 316.667 58 274 58 C230 58 195.5 72.8333 170.5 102.5 C145.5 132.167 133 173 133 225 C133 276.333 145.333 316.333 170 345 C194.667 373.667 229 388 273 388 L273 388 Z " />
<glyph glyph-name="odieresis" unicode="&#xf6;" horiz-adv-x="541" d="M185 644 C170.333 644 157.833 638.667 147.5 628 C137.167 617.338 132 604.671 132 590 C132 576 137.167 563.833 147.5 553.5 C157.833 543.167 170.333 538 185 538 C199 538 211.5 543.167 222.5 553.5 C233.5 563.833 239 576 239 590 C239 604.667 233.667 617.333 223 628 C212.334 638.667 199.667 644 185 644 L185 644 Z M362 644 C348 644 335.667 638.667 325 628 C314.333 617.338 309 604.671 309 590 C309 576 314.333 563.833 325 553.5 C335.667 543.167 348 538 362 538 C376.667 538 389.333 543.167 400 553.5 C410.667 563.833 416 576 416 590 C416 604.667 410.667 617.333 400 628 C389.333 638.667 376.667 644 362 644 L362 644 Z M275 458 C205 458 149.5 436.667 108.5 394 C67.5 351.333 47 294 47 222 C47 186.667 52.1667 154.5 62.5 125.5 C72.8333 96.5 86.3333 73 103 55 C119.667 37 137.667 23.1667 157 13.5 C176.333 3.83334 196 -2.83333 216 -6.5 C236 -10.1667 254 -12 270 -12 C338.667 -12 393.167 9.5 433.5 52.5 C473.833 95.5 494 153.667 494 227 C494 299 474.667 355.5 436 396.5 C397.333 437.5 343.667 458 275 458 L275 458 Z M273 388 C316.333 388 349.667 373.833 373 345.5 C396.333 317.167 408 276.667 408 224 C408 171.333 396.333 130.5 373 101.5 C349.667 72.5 316.667 58 274 58 C230 58 195.5 72.8333 170.5 102.5 C145.5 132.167 133 173 133 225 C133 276.333 145.333 316.333 170 345 C194.667 373.667 229 388 273 388 L273 388 Z " />
<glyph glyph-name="divide" unicode="&#xf7;" horiz-adv-x="562" d="M287 480 C271 480 257.5 474.5 246.5 463.5 C235.5 452.5 230 439 230 423 C230 407 235.5 393.333 246.5 382 C257.5 370.667 271 365 287 365 C303 365 316.5 370.667 327.5 382 C338.5 393.333 344 407 344 423 C344 439 338.5 452.5 327.5 463.5 C316.5 474.5 303 480 287 480 L287 480 Z M518 272 L46 272 L45 201 L516 201 L518 272 Z M280 106 C264 106 250.5 100.333 239.5 89 C228.5 77.6667 223 64 223 48 C223 32 228.5 18.3333 239.5 7 C250.5 -4.33333 264 -10 280 -10 C296 -10 309.5 -4.33333 320.5 7 C331.5 18.3333 337 32 337 48 C337 64 331.5 77.6667 320.5 89 C309.5 100.333 296 106 280 106 L280 106 Z " />
<glyph glyph-name="oslash" unicode="&#xf8;" horiz-adv-x="581" d="M473 376 L537 444 L495 484 L433 417 C395.667 444.333 349.667 458 295 458 C263 458 232.833 453 204.5 443 C176.167 433 151.667 418.167 131 398.5 C110.333 378.833 94.1667 354 82.5 324 C70.8333 294 65 260 65 222 C65 161.333 80 110.667 110 70 L44 -1 L85 -41 L151 29 C189 1.66667 235 -12 289 -12 C323.667 -12 355.167 -6.5 383.5 4.5 C411.833 15.5 435.833 31.3333 455.5 52 C475.167 72.6666 490 97.8333 500 127.5 C510 157.167 515 190 515 226 C515 286.667 501 336.667 473 376 L473 376 Z M152 224 C152 274.667 164.667 314.667 190 344 C215.333 373.333 250.333 388 295 388 C311 388 326.5 385.5 341.5 380.5 C356.5 375.5 369.333 368.667 380 360 L170 134 C158 160 152 190 152 224 L152 224 Z M293 58 C276.333 58 260.167 60.6667 244.5 66 C228.834 71.3333 215.667 78.3333 205 87 L414 312 C424 288 429 259 429 225 C429 195.667 424.5 167.833 415.5 141.5 C406.5 115.167 391.167 94.6667 369.5 80 C347.833 65.3333 322.333 58 293 58 L293 58 Z " />
<glyph glyph-name="ugrave" unicode="&#xf9;" horiz-adv-x="538" d="M312 521 L250 660 L169 660 L239 521 L312 521 Z M375 446 L368 105 C334 73 294 57 248 57 C218.667 57 197.5 63.5 184.5 76.5 C171.5 89.5 165 110 165 138 L170 446 L84 446 L78 110 C77.3333 71.3333 89.6667 41.3333 115 20 C140.333 -1.33333 175.667 -12 221 -12 C281 -12 331 7.33333 371 46 L370 0 L454 0 L461 446 L375 446 Z " />
<glyph glyph-name="uacute" unicode="&#xfa;" horiz-adv-x="538" d="M385 660 L303 660 L229 521 L302 521 L385 660 Z M375 446 L368 105 C334 73 294 57 248 57 C218.667 57 197.5 63.5 184.5 76.5 C171.5 89.5 165 110 165 138 L170 446 L84 446 L78 110 C77.3333 71.3333 89.6667 41.3333 115 20 C140.333 -1.33333 175.667 -12 221 -12 C281 -12 331 7.33333 371 46 L370 0 L454 0 L461 446 L375 446 Z " />
<glyph glyph-name="ucircumflex" unicode="&#xfb;" horiz-adv-x="538" d="M273 613 L336 520 L417 520 L318 660 L231 660 L126 520 L209 520 L273 613 Z M375 446 L368 105 C334 73 294 57 248 57 C218.667 57 197.5 63.5 184.5 76.5 C171.5 89.5 165 110 165 138 L170 446 L84 446 L78 110 C77.3333 71.3333 89.6667 41.3333 115 20 C140.333 -1.33333 175.667 -12 221 -12 C281 -12 331 7.33333 371 46 L370 0 L454 0 L461 446 L375 446 Z " />
<glyph glyph-name="udieresis" unicode="&#xfc;" horiz-adv-x="538" d="M183 538 C197.667 538 210.5 543.167 221.5 553.5 C232.5 563.833 238 576 238 590 C238 604.667 232.5 617.333 221.5 628 C210.5 638.667 197.667 644 183 644 C169 644 156.833 638.667 146.5 628 C136.167 617.338 131 604.671 131 590 C131 576 136.167 563.833 146.5 553.5 C156.833 543.167 169 538 183 538 L183 538 Z M360 538 C375.333 538 388.167 543.167 398.5 553.5 C408.833 563.833 414 576 414 590 C414 604.667 408.833 617.333 398.5 628 C388.167 638.667 375.334 644 360 644 C346 644 333.833 638.667 323.5 628 C313.167 617.338 308 604.671 308 590 C308 576 313.167 563.833 323.5 553.5 C333.833 543.167 346 538 360 538 L360 538 Z M375 446 L368 105 C334 73 294 57 248 57 C218.667 57 197.5 63.5 184.5 76.5 C171.5 89.5 165 110 165 138 L170 446 L84 446 L78 110 C77.3333 71.3333 89.6667 41.3333 115 20 C140.333 -1.33333 175.667 -12 221 -12 C281 -12 331 7.33333 371 46 L370 0 L454 0 L461 446 L375 446 Z " />
<glyph glyph-name="yacute" unicode="&#xfd;" horiz-adv-x="432" d="M332 660 L250 660 L175 521 L249 521 L332 660 Z M341 446 L235 169 C228.334 152.333 221.667 131.667 215 107 C209.667 129.667 203.667 150 197 168 L100 446 L10 446 L168 25 L138 -45 C123.333 -77.6667 106.167 -105.167 86.5 -127.5 C66.8333 -149.833 40.3333 -171.667 7 -193 L52 -259 C125.333 -218.333 180.667 -154 218 -66 L430 446 L341 446 Z " />
<glyph glyph-name="thorn" unicode="&#xfe;" horiz-adv-x="533" d="M309 458 C278.333 458 250.5 452.333 225.5 441 C200.5 429.667 180.333 415.667 165 399 L168 436 L173 735 L89 735 L72 -251 L154 -251 L159 23 C207 -0.333328 251.333 -12 292 -12 C325.333 -12 354.5 -5.5 379.5 7.5 C404.5 20.5 425.333 38.1667 442 60.5 C458.667 82.8333 470.5 109.167 477.5 139.5 C484.5 169.833 488 200.667 488 232 C488 306.667 472 363 440 401 C408 439 364.333 458 309 458 L309 458 Z M274 54 C258 54 239.833 57 219.5 63 C199.167 69 179.667 77 161 87 L167 347 C179.667 360.333 196.5 371 217.5 379 C238.5 387 260 391 282 391 C362.667 391 403 336.333 403 227 C403 173 392.333 130.667 371 100 C349.667 69.3333 317.334 54 274 54 L274 54 Z " />
<glyph glyph-name="ydieresis" unicode="&#xff;" horiz-adv-x="432" d="M130 538 C144.667 538 157.333 543.167 168 553.5 C178.667 563.833 184 576 184 590 C184 604.667 178.667 617.333 168 628 C157.333 638.667 144.667 644 130 644 C116 644 103.833 638.667 93.5 628 C83.1667 617.338 78 604.671 78 590 C78 576 83.1667 563.833 93.5 553.5 C103.833 543.167 116 538 130 538 L130 538 Z M307 538 C321.666 538 334.333 543.167 345 553.5 C355.667 563.833 361 576 361 590 C361 604.667 355.667 617.333 345 628 C334.333 638.667 321.667 644 307 644 C293 644 280.667 638.667 270 628 C259.333 617.338 254 604.671 254 590 C254 576 259.333 563.833 270 553.5 C280.667 543.167 293 538 307 538 L307 538 Z M341 446 L235 169 C228.334 152.333 221.667 131.667 215 107 C209.667 129.667 203.667 150 197 168 L100 446 L10 446 L168 25 L138 -45 C123.333 -77.6667 106.167 -105.167 86.5 -127.5 C66.8333 -149.833 40.3333 -171.667 7 -193 L52 -259 C125.333 -218.333 180.667 -154 218 -66 L430 446 L341 446 Z " />
<glyph glyph-name="Amacron" unicode="&#x100;" horiz-adv-x="582" d="M433 836 L164 836 L163 766 L432 766 L433 836 Z M476 0 L569 0 L347 660 L250 660 L5 0 L97 0 L156 170 L422 170 L476 0 Z M181 245 L294 571 L398 245 L181 245 Z " />
<glyph glyph-name="amacron" unicode="&#x101;" horiz-adv-x="472" d="M374 622 L105 622 L104 552 L373 552 L374 622 Z M235 458 C209 458 180.833 455.167 150.5 449.5 C120.167 443.833 92.6667 436.333 68 427 L88 361 C120.667 372.333 149.333 379.5 174 382.5 C198.667 385.5 215.667 387 225 387 C261 387 286 380 300 366 C314 352 320.667 333 320 309 L320 260 L220 259 C179.333 258.333 145.333 253.167 118 243.5 C90.6667 233.833 69.3333 219.333 54 200 C38.6667 180.667 31 155.667 31 125 C31 83.6667 44 50.5 70 25.5 C96 0.5 132 -12 178 -12 C240 -12 287.333 11.6667 320 59 L320 0 L399 0 L404 335 C404 361 398.333 382.167 387 398.5 C375.667 414.833 360.834 427.667 342.5 437 C324.167 446.333 304 452.167 282 454.5 C260 456.833 244.333 458 235 458 L235 458 Z M194 55 C170 55 150.667 61.3333 136 74 C121.333 86.6667 114 104 114 126 C114 150.667 124 168.333 144 179 C164 189.667 195.333 195.667 238 197 L319 198 L317 107 C303.667 93 285.5 80.8333 262.5 70.5 C239.5 60.1667 216.667 55 194 55 L194 55 Z " />
<glyph glyph-name="Abreve" unicode="&#x102;" horiz-adv-x="582" d="M299 707 C327 707 353 714.333 377 729 C401 743.667 418.333 761.333 429 782 C439.667 802.667 446 821.667 448 839 L378 839 C374.667 819 365.667 802.167 351 788.5 C336.333 774.833 319 768 299 768 C279.667 768 262.5 775 247.5 789 C232.5 803 223.333 819.667 220 839 L150 839 C152 821.667 158.333 802.667 169 782 C179.667 761.335 196.833 743.668 220.5 729 C244.167 714.333 270.333 707 299 707 L299 707 Z M476 0 L569 0 L347 660 L250 660 L5 0 L97 0 L156 170 L422 170 L476 0 Z M181 245 L294 571 L398 245 L181 245 Z " />
<glyph glyph-name="abreve" unicode="&#x103;" horiz-adv-x="472" d="M239 521 C279 521 313.333 534.5 342 561.5 C370.667 588.5 386 621.333 388 660 L319 660 C317 638.667 308.5 620.333 293.5 605 C278.5 589.667 260.333 582 239 582 C218.333 582 200.333 589.833 185 605.5 C169.667 621.167 161.333 639.333 160 660 L91 660 C92.3333 621.333 107.333 588.5 136 561.5 C164.667 534.5 199 521 239 521 L239 521 Z M235 458 C209 458 180.833 455.167 150.5 449.5 C120.167 443.833 92.6667 436.333 68 427 L88 361 C120.667 372.333 149.333 379.5 174 382.5 C198.667 385.5 215.667 387 225 387 C261 387 286 380 300 366 C314 352 320.667 333 320 309 L320 260 L220 259 C179.333 258.333 145.333 253.167 118 243.5 C90.6667 233.833 69.3333 219.333 54 200 C38.6667 180.667 31 155.667 31 125 C31 83.6667 44 50.5 70 25.5 C96 0.5 132 -12 178 -12 C240 -12 287.333 11.6667 320 59 L320 0 L399 0 L404 335 C404 361 398.333 382.167 387 398.5 C375.667 414.833 360.834 427.667 342.5 437 C324.167 446.333 304 452.167 282 454.5 C260 456.833 244.333 458 235 458 L235 458 Z M194 55 C170 55 150.667 61.3333 136 74 C121.333 86.6667 114 104 114 126 C114 150.667 123.833 168.333 143.5 179 C163.167 189.667 194.667 195.667 238 197 L319 198 L317 107 C303.667 93 285.5 80.8333 262.5 70.5 C239.5 60.1667 216.667 55 194 55 L194 55 Z " />
<glyph glyph-name="Aogonek" unicode="&#x104;" horiz-adv-x="582" d="M558 0 L569 0 L347 660 L250 660 L5 0 L97 0 L156 170 L422 170 L476 1 C435.333 -57 415 -104.667 415 -142 C415 -166.667 423.5 -186.333 440.5 -201 C457.5 -215.667 480.333 -223 509 -223 C527.667 -223 543.333 -221 556 -217 L547 -162 L523 -164 C496.333 -164 483 -152.667 483 -130 C483 -115.333 490 -95.8333 504 -71.5 C518 -47.1667 536 -23.3333 558 0 L558 0 Z M181 245 L294 571 L398 245 L181 245 Z " />
<glyph glyph-name="aogonek" unicode="&#x105;" horiz-adv-x="472" d="M404 335 C404 361 398.333 382.167 387 398.5 C375.667 414.833 360.834 427.667 342.5 437 C324.167 446.333 304 452.167 282 454.5 C260 456.833 244.333 458 235 458 C209 458 180.833 455.167 150.5 449.5 C120.167 443.833 92.6667 436.333 68 427 L88 361 C120.667 372.333 149.333 379.5 174 382.5 C198.667 385.5 215.667 387 225 387 C261 387 286 380 300 366 C314 352 320.667 333 320 309 L320 260 L220 259 C179.333 258.333 145.333 253.167 118 243.5 C90.6667 233.833 69.3333 219.333 54 200 C38.6667 180.667 31 155.667 31 125 C31 83.6667 44 50.5 70 25.5 C96 0.5 132 -12 178 -12 C240 -12 287.333 11.6667 320 59 L320 1 C279.333 -56.3333 259 -104 259 -142 C259 -166.667 267.333 -186.333 284 -201 C300.667 -215.667 323.667 -223 353 -223 C371.666 -223 387.333 -221 400 -217 L391 -162 L367 -164 C340.333 -164 327 -152.667 327 -130 C327 -115.333 333 -96.1666 345 -72.5 C357 -48.8333 373 -24.6667 393 0 L399 0 L404 335 Z M194 55 C170 55 150.667 61.3333 136 74 C121.333 86.6667 114 104 114 126 C114 150.667 123.833 168.333 143.5 179 C163.167 189.667 194.667 195.667 238 197 L319 198 L317 107 C303.667 93 285.5 80.8333 262.5 70.5 C239.5 60.1667 216.667 55 194 55 L194 55 Z " />
<glyph glyph-name="Cacute" unicode="&#x106;" horiz-adv-x="590" d="M480 854 L398 854 L328 722 L401 722 L480 854 Z M373 670 C324.333 670 279.667 662.667 239 648 C198.333 633.333 163.667 611.333 135 582 C106.333 552.667 84.3333 516.333 69 473 C53.6667 429.667 46 380.334 46 325 C46 273.667 52.8333 227.333 66.5 186 C80.1667 144.667 100.667 109.5 128 80.5 C155.333 51.5 189.5 29.5 230.5 14.5 C271.5 -0.5 318.667 -8 372 -8 C430 -8 492.667 1.66667 560 21 L543 96 C487.667 79.3333 433.334 71 380 71 C301.333 71 240.833 92.5 198.5 135.5 C156.167 178.5 135 243.667 135 331 C135 417.667 156.167 482.667 198.5 526 C240.833 569.333 300.667 591 378 591 C428 591 483.667 581.333 545 562 L564 638 C494.667 659.333 431 670 373 670 L373 670 Z " />
<glyph glyph-name="cacute" unicode="&#x107;" horiz-adv-x="419" d="M368 660 L286 660 L211 521 L285 521 L368 660 Z M268 458 C229.333 458 195.667 451.333 167 438 C138.333 424.667 115 406.834 97 384.5 C79 362.167 66.1667 336.5 58.5 307.5 C50.8333 278.5 47 249.333 47 220 C47 169.333 55.8333 127.167 73.5 93.5 C91.1667 59.8333 116.333 33.8333 149 15.5 C181.667 -2.83333 221.333 -12 268 -12 C287.333 -12 309 -10 333 -6 C357 -2 378.667 3 398 9 L384 77 C344.667 65.6667 309 60.0001 277 60 C243.667 60 216.5 66.5 195.5 79.5 C174.5 92.5 158.833 110.833 148.5 134.5 C138.167 158.167 133 187.667 133 223 C133 275.667 144.833 316 168.5 344 C192.167 372 227.667 386 275 386 C304.333 386 340.667 379.667 384 367 L400 436 C353.333 450.667 309.333 458 268 458 L268 458 Z " />
<glyph glyph-name="Cdotaccent" unicode="&#x10a;" horiz-adv-x="590" d="M361 827 C347 827 334.833 821.667 324.5 811 C314.167 800.336 309 787.67 309 773 C309 759 314.167 746.667 324.5 736 C334.833 725.333 347 720 361 720 C375.667 720 388.5 725.333 399.5 736 C410.5 746.667 416 759 416 773 C416 787.667 410.5 800.333 399.5 811 C388.5 821.667 375.667 827 361 827 L361 827 Z M373 670 C324.333 670 279.667 662.667 239 648 C198.333 633.333 163.667 611.333 135 582 C106.333 552.667 84.3333 516.333 69 473 C53.6667 429.667 46 380.334 46 325 C46 273.667 52.8333 227.333 66.5 186 C80.1667 144.667 100.667 109.5 128 80.5 C155.333 51.5 189.5 29.5 230.5 14.5 C271.5 -0.5 318.667 -8 372 -8 C430 -8 492.667 1.66667 560 21 L543 96 C487.667 79.3333 433.334 71 380 71 C301.333 71 240.833 92.5 198.5 135.5 C156.167 178.5 135 243.667 135 331 C135 417.667 156.167 482.667 198.5 526 C240.833 569.333 300.667 591 378 591 C428 591 483.667 581.333 545 562 L564 638 C494.667 659.333 431 670 373 670 L373 670 Z " />
<glyph glyph-name="cdotaccent" unicode="&#x10b;" horiz-adv-x="419" d="M255 644 C240.333 644 227.833 638.667 217.5 628 C207.167 617.338 202 604.671 202 590 C202 576 207.167 563.667 217.5 553 C227.833 542.333 240.333 537 255 537 C269 537 281.5 542.333 292.5 553 C303.5 563.667 309 576 309 590 C309 604.667 303.667 617.333 293 628 C282.333 638.667 269.667 644 255 644 L255 644 Z M268 458 C229.333 458 195.667 451.333 167 438 C138.333 424.667 115 406.834 97 384.5 C79 362.167 66.1667 336.5 58.5 307.5 C50.8333 278.5 47 249.333 47 220 C47 169.333 55.8333 127.167 73.5 93.5 C91.1667 59.8333 116.333 33.8333 149 15.5 C181.667 -2.83333 221.333 -12 268 -12 C287.333 -12 309 -10 333 -6 C357 -2 378.667 3 398 9 L384 77 C344.667 65.6667 309 60.0001 277 60 C243.667 60 216.5 66.5 195.5 79.5 C174.5 92.5 158.833 110.833 148.5 134.5 C138.167 158.167 133 187.667 133 223 C133 275.667 144.833 316 168.5 344 C192.167 372 227.667 386 275 386 C304.333 386 340.667 379.667 384 367 L400 436 C353.333 450.667 309.333 458 268 458 L268 458 Z " />
<glyph glyph-name="Ccaron" unicode="&#x10c;" horiz-adv-x="590" d="M410 706 L494 838 L420 838 L364 745 L318 838 L244 838 L314 706 L410 706 Z M380 71 C301.333 71 240.833 92.5 198.5 135.5 C156.167 178.5 135 243.667 135 331 C135 417.667 156.167 482.667 198.5 526 C240.833 569.333 300.667 591 378 591 C428 591 483.667 581.333 545 562 L564 638 C494.667 659.333 431 670 373 670 C324.333 670 279.667 662.667 239 648 C198.333 633.333 163.667 611.333 135 582 C106.333 552.667 84.3333 516.333 69 473 C53.6667 429.667 46 380.334 46 325 C46 273.667 52.8333 227.333 66.5 186 C80.1667 144.667 100.667 109.5 128 80.5 C155.333 51.5 189.5 29.5 230.5 14.5 C271.5 -0.5 318.667 -8 372 -8 C430 -8 492.667 1.66667 560 21 L543 96 C487.667 79.3333 433.334 71 380 71 L380 71 Z " />
<glyph glyph-name="ccaron" unicode="&#x10d;" horiz-adv-x="419" d="M303 520 L393 660 L320 660 L258 559 L206 660 L132 660 L207 520 L303 520 Z M277 60 C243.667 60 216.5 66.5 195.5 79.5 C174.5 92.5 158.833 110.833 148.5 134.5 C138.167 158.167 133 187.667 133 223 C133 275.667 144.833 316 168.5 344 C192.167 372 227.667 386 275 386 C304.333 386 340.667 379.667 384 367 L400 436 C353.333 450.667 309.333 458 268 458 C229.333 458 195.667 451.333 167 438 C138.333 424.667 115 406.834 97 384.5 C79 362.167 66.1667 336.5 58.5 307.5 C50.8333 278.5 47 249.333 47 220 C47 169.333 55.8333 127.167 73.5 93.5 C91.1667 59.8333 116.333 33.8333 149 15.5 C181.667 -2.83333 221.333 -12 268 -12 C287.333 -12 309 -10 333 -6 C357 -2 378.667 3 398 9 L384 77 C344.667 65.6667 309 60.0001 277 60 L277 60 Z " />
<glyph glyph-name="Dcaron" unicode="&#x10e;" horiz-adv-x="688" d="M378 706 L462 838 L389 838 L333 745 L286 838 L212 838 L282 706 L378 706 Z M247 660 L109 658 L97 2 C160.333 0 223 -1 285 -1 C363.667 -1 429.167 10.6667 481.5 34 C533.833 57.3333 574.333 93.6667 603 143 C631.667 192.333 646 257.667 646 339 C646 401 636.833 453.333 618.5 496 C600.167 538.667 574 572 540 596 C506 620 464.5 637 415.5 647 C366.5 657 310.333 661.333 247 660 L247 660 Z M309 77 L187 78 L196 582 L306 583 C368 583 416.833 573.833 452.5 555.5 C488.167 537.167 514.333 508.833 531 470.5 C547.667 432.167 556 385.667 556 331 C556 160.333 473.667 75.6667 309 77 L309 77 Z " />
<glyph glyph-name="dcaron" unicode="&#x10f;" horiz-adv-x="534" d="M372 439 C333.333 451.667 295.667 458 259 458 C215.667 458 177.5 448.167 144.5 428.5 C111.5 408.833 86.8333 381 70.5 345 C54.1667 309 46 266.333 46 217 C46 171.667 52.8333 132 66.5 98 C80.1666 64 101.333 37.3333 130 18 C158.667 -1.33333 192.333 -11 231 -11 C257 -11 282.167 -5.66667 306.5 5 C330.833 15.6667 352 30.6667 370 50 L370 0 L449 0 L463 735 L377 735 L372 439 Z M534 735 L530 558 L593 558 L623 735 L534 735 Z M248 58 C210 58 181.167 72 161.5 100 C141.833 128 132 168 132 220 C132 278 144.167 320.667 168.5 348 C192.833 375.333 227 389 271 389 C299.667 389 333 383 371 371 L367 106 C345.667 87.3333 324.334 74.6667 303 68 C281.667 61.3333 263.334 58 248 58 L248 58 Z " />
<glyph glyph-name="Dcroat" unicode="&#x110;" horiz-adv-x="690" d="M249 660 L111 658 L106 376 L41 376 L40 292 L104 292 L99 2 C161 0 223.667 -1 287 -1 C365.667 -1 431.167 10.6667 483.5 34 C535.833 57.3333 576.333 93.6667 605 143 C633.667 192.333 648 257.667 648 339 C648 401 638.833 453.333 620.5 496 C602.167 538.667 576 572 542 596 C508 620 466.5 637 417.5 647 C368.5 657 312.333 661.333 249 660 L249 660 Z M311 77 L189 78 L192 292 L345 292 L346 376 L194 376 L197 582 L308 583 C370 583 418.667 573.833 454 555.5 C489.333 537.167 515.5 508.833 532.5 470.5 C549.5 432.167 558 385.667 558 331 C558 160.333 475.667 75.6667 311 77 L311 77 Z " />
<glyph glyph-name="dcroat" unicode="&#x111;" horiz-adv-x="532" d="M529 617 L460 617 L463 735 L377 735 L375 617 L254 617 L252 552 L374 551 L372 439 C333.333 451.667 295.667 458 259 458 C215.667 458 177.5 448.167 144.5 428.5 C111.5 408.833 86.8333 381 70.5 345 C54.1667 309 46 266.333 46 217 C46 171.667 52.8333 132 66.5 98 C80.1666 64 101.333 37.3333 130 18 C158.667 -1.33333 192.333 -11 231 -11 C257 -11 282.167 -5.66667 306.5 5 C330.833 15.6667 352 30.6667 370 50 L370 0 L449 0 L459 551 L528 551 L529 617 Z M248 58 C210 58 181.167 72 161.5 100 C141.833 128 132 168 132 220 C132 278 144.167 320.667 168.5 348 C192.833 375.333 227 389 271 389 C299.667 389 333 383 371 371 L367 106 C345.667 87.3333 324.334 74.6667 303 68 C281.667 61.3333 263.334 58 248 58 L248 58 Z " />
<glyph glyph-name="Emacron" unicode="&#x112;" horiz-adv-x="503" d="M416 803 L148 803 L146 733 L415 733 L416 803 Z M186 78 L190 294 L421 294 L423 372 L191 372 L194 582 L443 582 L444 660 L109 660 L97 0 L449 0 L450 78 L186 78 Z " />
<glyph glyph-name="emacron" unicode="&#x113;" horiz-adv-x="472" d="M389 622 L120 622 L119 552 L388 552 L389 622 Z M424 213 L426 257 C426 320.333 411.333 369.667 382 405 C352.667 440.333 310.334 458 255 458 C191 458 140.167 436.833 102.5 394.5 C64.8333 352.167 46 291.333 46 212 C46 160 54 117.833 70 85.5 C86 53.1667 109.5 28.8333 140.5 12.5 C171.5 -3.83333 212 -12 262 -12 C308.667 -12 357 -5 407 9 L392 78 C348 65.3333 305.333 59 264 59 C223.333 59 193.833 65.5 175.5 78.5 C157.167 91.5 145 108.667 139 130 C133 151.333 130 179 130 213 L424 213 Z M246 390 C268 390 286.167 385.833 300.5 377.5 C314.833 369.168 325.833 357.335 333.5 342 C341.167 326.667 345 309.334 345 290 L345 279 L133 279 C138.333 314.333 150.5 341.667 169.5 361 C188.5 380.333 214 390 246 390 L246 390 Z " />
<glyph glyph-name="Edotaccent" unicode="&#x116;" horiz-adv-x="503" d="M282 720 C296 720 308.5 725.333 319.5 736 C330.5 746.667 336 759 336 773 C336 787.667 330.667 800.333 320 811 C309.333 821.667 296.667 827 282 827 C267.333 827 254.833 821.667 244.5 811 C234.167 800.336 229 787.67 229 773 C229 759 234.167 746.667 244.5 736 C254.833 725.333 267.333 720 282 720 L282 720 Z M186 78 L190 294 L421 294 L423 372 L191 372 L194 582 L443 582 L444 660 L109 660 L97 0 L449 0 L450 78 L186 78 Z " />
<glyph glyph-name="edotaccent" unicode="&#x117;" horiz-adv-x="472" d="M254 537 C268 537 280.5 542.333 291.5 553 C302.5 563.667 308 576 308 590 C308 604.667 302.667 617.333 292 628 C281.333 638.667 268.667 644 254 644 C240 644 227.833 638.667 217.5 628 C207.167 617.338 202 604.671 202 590 C202 576 207.167 563.667 217.5 553 C227.833 542.333 240 537 254 537 L254 537 Z M424 213 L426 257 C426 320.333 411.333 369.667 382 405 C352.667 440.333 310.334 458 255 458 C191 458 140.167 436.833 102.5 394.5 C64.8333 352.167 46 291.333 46 212 C46 160 54 117.833 70 85.5 C86 53.1667 109.5 28.8333 140.5 12.5 C171.5 -3.83333 212 -12 262 -12 C308.667 -12 357 -5 407 9 L392 78 C348 65.3333 305.333 59 264 59 C217.333 59 183.333 69.3333 162 90 C140.667 110.667 130 151.667 130 213 L424 213 Z M246 390 C268 390 286.167 385.833 300.5 377.5 C314.833 369.168 325.833 357.335 333.5 342 C341.167 326.667 345 309.334 345 290 L345 279 L133 279 C138.333 314.333 150.5 341.667 169.5 361 C188.5 380.333 214 390 246 390 L246 390 Z " />
<glyph glyph-name="Eogonek" unicode="&#x118;" horiz-adv-x="503" d="M445 -162 L421 -164 C394.333 -164 381 -152.667 381 -130 C381 -115.333 387 -96.1666 399 -72.5 C411 -48.8333 427 -24.6667 447 0 L449 0 L450 78 L186 78 L190 294 L421 294 L423 372 L191 372 L194 582 L443 582 L444 660 L109 660 L97 0 L373 0 C333 -58 313 -105.333 313 -142 C313 -166.667 321.5 -186.333 338.5 -201 C355.5 -215.667 378.333 -223 407 -223 C425.666 -223 441.332 -221 454 -217 L445 -162 Z " />
<glyph glyph-name="eogonek" unicode="&#x119;" horiz-adv-x="474" d="M424 213 L426 257 C426 320.333 411.333 369.667 382 405 C352.667 440.333 310.334 458 255 458 C191 458 140.167 436.833 102.5 394.5 C64.8333 352.167 46 291.333 46 212 C46 160 54 117.833 70 85.5 C86 53.1667 109.5 28.8333 140.5 12.5 C171.5 -3.83333 212 -12 262 -12 C274.667 -12 295.667 -10.6667 325 -8 C292.333 -61.3333 276 -106 276 -142 C276 -166.667 284.333 -186.333 301 -201 C317.667 -215.667 340.667 -223 370 -223 C388 -223 403.667 -221 417 -217 L408 -162 L384 -164 C357.333 -164 344 -152.667 344 -130 C344 -101.333 365.333 -55 408 9 L407 9 L392 78 C348 65.3333 305.333 59 264 59 C217.333 59 183.333 69.3333 162 90 C140.667 110.667 130 151.667 130 213 L424 213 Z M246 390 C268 390 286.167 385.833 300.5 377.5 C314.833 369.168 325.833 357.335 333.5 342 C341.167 326.667 345 309.334 345 290 L345 279 L133 279 C138.333 314.333 150.5 341.667 169.5 361 C188.5 380.333 214 390 246 390 L246 390 Z " />
<glyph glyph-name="Ecaron" unicode="&#x11a;" horiz-adv-x="503" d="M330 706 L414 838 L340 838 L285 745 L238 838 L164 838 L234 706 L330 706 Z M186 78 L190 294 L421 294 L423 372 L191 372 L194 582 L443 582 L444 660 L109 660 L97 0 L449 0 L450 78 L186 78 Z " />
<glyph glyph-name="ecaron" unicode="&#x11b;" horiz-adv-x="472" d="M303 520 L392 660 L319 660 L258 559 L206 660 L132 660 L207 520 L303 520 Z M424 213 L426 257 C426 320.333 411.333 369.667 382 405 C352.667 440.333 310.334 458 255 458 C191 458 140.167 436.833 102.5 394.5 C64.8333 352.167 46 291.333 46 212 C46 160 54 117.833 70 85.5 C86 53.1667 109.5 28.8333 140.5 12.5 C171.5 -3.83333 212 -12 262 -12 C308.667 -12 357 -5 407 9 L392 78 C348 65.3333 305.333 59 264 59 C223.333 59 193.833 65.5 175.5 78.5 C157.167 91.5 145 108.667 139 130 C133 151.333 130 179 130 213 L424 213 Z M246 390 C268 390 286.167 385.833 300.5 377.5 C314.833 369.168 325.833 357.335 333.5 342 C341.167 326.667 345 309.334 345 290 L345 279 L133 279 C138.333 314.333 150.5 341.667 169.5 361 C188.5 380.333 214 390 246 390 L246 390 Z " />
<glyph glyph-name="Gbreve" unicode="&#x11e;" horiz-adv-x="668" d="M364 707 C392.666 707 418.833 714.333 442.5 729 C466.166 743.667 483.332 761.333 494 782 C504.667 802.667 511 821.667 513 839 L443 839 C439.668 819 430.835 802.167 416.5 788.5 C402.167 774.833 385 768 365 768 C345.667 768 328.5 775 313.5 789 C298.5 803 289.333 819.667 286 839 L216 839 C219.333 801.667 235.166 770.333 263.5 745 C291.833 719.667 325.333 707 364 707 L364 707 Z M512 324 L508 73 C470.667 65.6668 430.667 62.0001 388 62 C307.333 62 244.167 84.3333 198.5 129 C152.833 173.667 130 238.667 130 324 C130 370.667 136.333 411.667 149 447 C161.667 482.333 179.333 511 202 533 C224.667 555 251.667 571.333 283 582 C314.333 592.667 348.667 598 386 598 C438.667 598 498 589.333 564 572 L583 646 C505.667 666.667 437.334 677 378 677 C328.667 677 283.334 669.333 242 654 C200.667 638.667 165.167 616 135.5 586 C105.833 556 82.8333 518.667 66.5 474 C50.1667 429.333 42 378.667 42 322 C42 270 49.5 222.833 64.5 180.5 C79.5 138.167 101.333 102.333 130 73 C158.667 43.6667 194.167 21.3333 236.5 6 C278.833 -9.33333 326 -17 378 -17 C434 -17 506 -8 594 10 L599 324 L512 324 Z " />
<glyph glyph-name="gbreve" unicode="&#x11f;" horiz-adv-x="522" d="M268 521 C308 521 342.5 534.5 371.5 561.5 C400.5 588.5 415.667 621.333 417 660 L348 660 C346.667 638.667 338.5 620.333 323.5 605 C308.5 589.667 290.333 582 269 582 C248.333 582 230.333 589.833 215 605.5 C199.667 621.167 191 639.333 189 660 L120 660 C121.333 621.333 136.5 588.5 165.5 561.5 C194.5 534.5 228.667 521 268 521 L268 521 Z M377 446 L376 396 C344 433.333 297.333 453 236 455 C209.333 455 183 449.667 157 439 C131 428.333 109.333 410.833 92 386.5 C74.6667 362.167 62.8333 335.834 56.5 307.5 C50.1667 279.167 47 250.667 47 222 C47 146.667 63.3333 89 96 49 C128.667 9 173 -11 229 -11 C251 -11 275.167 -7.66667 301.5 -1 C327.833 5.66667 349 13.6667 365 23 L364 -72 C364 -114.667 353.5 -145.167 332.5 -163.5 C311.5 -181.833 277.667 -191 231 -191 C189.667 -191 140.333 -183.667 83 -169 L67 -239 C131 -255 187 -263 235 -263 C374.333 -263 445 -203.667 447 -85 L457 446 L377 446 Z M133 227 C133 333 173 386 253 386 C282.333 384.667 307.167 379 327.5 369 C347.833 359 362.333 349.333 371 340 L367 90 C348.333 80 327.833 72 305.5 66 C283.167 60 264 57 248 57 C212 57 183.833 70.8333 163.5 98.5 C143.167 126.167 133 169 133 227 L133 227 Z " />
<glyph glyph-name="Gdotaccent" unicode="&#x120;" horiz-adv-x="668" d="M364 720 C378 720 390.5 725.333 401.5 736 C412.5 746.667 418 759 418 773 C418 787.667 412.667 800.333 402 811 C391.333 821.667 378.667 827 364 827 C349.333 827 336.833 821.667 326.5 811 C316.167 800.336 311 787.67 311 773 C311 759 316.167 746.667 326.5 736 C336.833 725.333 349.333 720 364 720 L364 720 Z M512 324 L508 73 C470.667 65.6668 430.667 62.0001 388 62 C307.333 62 244.167 84.3333 198.5 129 C152.833 173.667 130 238.667 130 324 C130 370.667 136.333 411.667 149 447 C161.667 482.333 179.333 511 202 533 C224.667 555 251.667 571.333 283 582 C314.333 592.667 348.667 598 386 598 C438.667 598 498 589.333 564 572 L583 646 C505.667 666.667 437.334 677 378 677 C328.667 677 283.334 669.333 242 654 C200.667 638.667 165.167 616 135.5 586 C105.833 556 82.8333 518.667 66.5 474 C50.1667 429.333 42 378.667 42 322 C42 270 49.5 222.833 64.5 180.5 C79.5 138.167 101.333 102.333 130 73 C158.667 43.6667 194.167 21.3333 236.5 6 C278.833 -9.33333 326 -17 378 -17 C434 -17 506 -8 594 10 L599 324 L512 324 Z " />
<glyph glyph-name="gdotaccent" unicode="&#x121;" horiz-adv-x="522" d="M269 537 C283 537 295.5 542.333 306.5 553 C317.5 563.667 323 576 323 590 C323 604.667 317.667 617.333 307 628 C296.333 638.667 283.667 644 269 644 C254.333 644 241.833 638.667 231.5 628 C221.167 617.338 216 604.671 216 590 C216 576 221.167 563.667 231.5 553 C241.833 542.333 254.333 537 269 537 L269 537 Z M377 446 L376 396 C344 433.333 297.333 453 236 455 C209.333 455 183 449.667 157 439 C131 428.333 109.333 410.833 92 386.5 C74.6667 362.167 62.8333 335.834 56.5 307.5 C50.1667 279.167 47 250.667 47 222 C47 146.667 63.3333 89 96 49 C128.667 9 173 -11 229 -11 C251 -11 275.167 -7.66667 301.5 -1 C327.833 5.66667 349 13.6667 365 23 L364 -72 C364 -114.667 353.5 -145.167 332.5 -163.5 C311.5 -181.833 277.667 -191 231 -191 C189.667 -191 140.333 -183.667 83 -169 L68 -239 C130.667 -255 186.333 -263 235 -263 C374.333 -263 445 -203.667 447 -85 L457 446 L377 446 Z M133 227 C133 333 173 386 253 386 C282.333 384.667 307.167 379 327.5 369 C347.833 359 362.333 349.333 371 340 L367 90 C348.333 80 327.833 72 305.5 66 C283.167 60 264 57 248 57 C212 57 183.833 70.8333 163.5 98.5 C143.167 126.167 133 169 133 227 L133 227 Z " />
<glyph glyph-name="Gcommaaccent" unicode="&#x122;" horiz-adv-x="668" d="M512 324 L508 73 C470.667 65.6668 430.667 62.0001 388 62 C307.333 62 244.167 84.3333 198.5 129 C152.833 173.667 130 238.667 130 324 C130 370.667 136.333 411.667 149 447 C161.667 482.333 179.333 511 202 533 C224.667 555 251.667 571.333 283 582 C314.333 592.667 348.667 598 386 598 C438.667 598 498 589.333 564 572 L583 646 C505.667 666.667 437.334 677 378 677 C328.667 677 283.334 669.333 242 654 C200.667 638.667 165.167 616 135.5 586 C105.833 556 82.8333 518.667 66.5 474 C50.1667 429.333 42 378.667 42 322 C42 270 49.5 222.833 64.5 180.5 C79.5 138.167 101.333 102.333 130 73 C158.667 43.6667 194.167 21.3333 236.5 6 C278.833 -9.33333 326 -17 378 -17 C434 -17 506 -8 594 10 L599 324 L512 324 Z M324 -80 L342 -162 L314 -248 L360 -248 L412 -165 C420 -151.667 425 -138.167 427 -124.5 C429 -110.833 425.167 -98.1666 415.5 -86.5 C405.833 -74.8333 392.167 -68.6666 374.5 -68 C356.833 -67.3333 340 -71.3333 324 -80 L324 -80 Z " />
<glyph glyph-name="gcommaaccent" unicode="&#x123;" horiz-adv-x="522" d="M315 526 L296 608 L325 694 L279 694 L227 611 C219 597.667 214 584.167 212 570.5 C210 556.835 213.833 544.169 223.5 532.5 C233.167 520.841 246.833 514.675 264.5 514 C282.167 513.333 299 517.333 315 526 L315 526 Z M377 446 L376 396 C344 433.333 297.333 453 236 455 C209.333 455 183 449.667 157 439 C131 428.333 109.333 410.833 92 386.5 C74.6667 362.167 62.8333 335.834 56.5 307.5 C50.1667 279.167 47 250.667 47 222 C47 146.667 63.3333 89 96 49 C128.667 9 173 -11 229 -11 C251 -11 275.167 -7.66667 301.5 -1 C327.833 5.66667 349 13.6667 365 23 L364 -72 C364 -114.667 353.5 -145.167 332.5 -163.5 C311.5 -181.833 277.667 -191 231 -191 C189.667 -191 140.333 -183.667 83 -169 L68 -239 C130.667 -255 186.333 -263 235 -263 C374.333 -263 445 -203.667 447 -85 L457 446 L377 446 Z M133 227 C133 333 173 386 253 386 C282.333 384.667 307.167 379 327.5 369 C347.833 359 362.333 349.333 371 340 L367 90 C348.333 80 327.833 72 305.5 66 C283.167 60 264 57 248 57 C212 57 183.833 70.8333 163.5 98.5 C143.167 126.167 133 169 133 227 L133 227 Z " />
<glyph glyph-name="Hbar" unicode="&#x126;" horiz-adv-x="740" d="M680 568 L644 568 L646 660 L556 660 L554 568 L197 568 L199 660 L109 660 L107 568 L74 568 L73 498 L106 498 L97 0 L186 0 L192 292 L550 292 L545 0 L634 0 L643 498 L679 498 L680 568 Z M551 376 L193 376 L196 498 L553 498 L551 376 Z " />
<glyph glyph-name="hbar" unicode="&#x127;" horiz-adv-x="547" d="M319 458 C258.333 458 208.333 439 169 401 L172 551 L340 551 L342 617 L173 617 L175 735 L89 735 L87 617 L16 617 L15 551 L86 551 L76 0 L162 0 L168 341 C200 372.333 240.333 388 289 388 C351 388 382 361 382 307 L376 0 L463 0 L468 337 C468 368.333 459.667 393.333 443 412 C426.333 430.667 406.167 443 382.5 449 C358.833 455 337.667 458 319 458 L319 458 Z " />
<glyph glyph-name="Imacron" unicode="&#x12a;" horiz-adv-x="293" d="M290 836 L22 836 L20 766 L289 766 L290 836 Z M198 660 L109 660 L97 0 L187 0 L198 660 Z " />
<glyph glyph-name="imacron" unicode="&#x12b;" horiz-adv-x="246" d="M262 622 L-7 622 L-8 552 L260 552 L262 622 Z M169 446 L84 446 L76 0 L162 0 L169 446 Z " />
<glyph glyph-name="Iogonek" unicode="&#x12e;" horiz-adv-x="293" d="M156 -164 C130 -164 117 -152.667 117 -130 C117 -115.333 123.333 -96 136 -72 C148.667 -48 165.667 -24 187 0 L198 660 L109 660 L97 0 L108 0 C68 -58 48 -105.333 48 -142 C48 -166 56.5 -185.5 73.5 -200.5 C90.5 -215.5 113.333 -223 142 -223 C160.667 -223 176.667 -221 190 -217 L180 -162 L156 -164 Z " />
<glyph glyph-name="iogonek" unicode="&#x12f;" horiz-adv-x="246" d="M127 537 C141 537 153.5 542.333 164.5 553 C175.5 563.667 181 576 181 590 C181 604.667 175.667 617.333 165 628 C154.334 638.667 141.667 644 127 644 C112.333 644 99.8333 638.667 89.5 628 C79.1667 617.338 74 604.671 74 590 C74 576 79.1667 563.667 89.5 553 C99.8333 542.333 112.333 537 127 537 L127 537 Z M169 446 L84 446 L76 0 L88 0 C48 -56 28 -103.333 28 -142 C28 -166.667 36.5 -186.333 53.5 -201 C70.5 -215.667 93.3333 -223 122 -223 C140.667 -223 156.333 -221 169 -217 L160 -162 L136 -164 C109.333 -164 96 -152.667 96 -130 C96 -115.333 102 -96.1666 114 -72.5 C126 -48.8333 142 -24.6667 162 0 L169 446 Z " />
<glyph glyph-name="Idotaccent" unicode="&#x130;" horiz-adv-x="293" d="M156 827 C141.333 827 128.833 821.667 118.5 811 C108.167 800.336 103 787.67 103 773 C103 759 108.167 746.667 118.5 736 C128.833 725.333 141.333 720 156 720 C170 720 182.5 725.333 193.5 736 C204.5 746.667 210 759 210 773 C210 787.667 204.667 800.333 194 811 C183.333 821.667 170.667 827 156 827 L156 827 Z M198 660 L109 660 L97 0 L187 0 L198 660 Z " />
<glyph glyph-name="dotlessi" unicode="&#x131;" horiz-adv-x="246" d="M169 446 L84 446 L76 0 L162 0 L169 446 Z " />
<glyph glyph-name="IJ" unicode="&#x132;" horiz-adv-x="585" d="M198 660 L109 660 L97 0 L187 0 L198 660 Z M491 660 L403 660 L390 -25 C389.333 -59.6667 381.667 -88.8333 367 -112.5 C352.333 -136.167 324.333 -164.667 283 -198 L338 -262 C378.667 -228.667 409 -199.5 429 -174.5 C449 -149.5 462.167 -125.167 468.5 -101.5 C474.833 -77.8333 478 -55 478 -33 L491 660 Z " />
<glyph glyph-name="ij" unicode="&#x133;" horiz-adv-x="496" d="M127 644 C112.333 644 99.8333 638.667 89.5 628 C79.1667 617.338 74 604.671 74 590 C74 576 79.1667 563.667 89.5 553 C99.8333 542.333 112.333 537 127 537 C141 537 153.5 542.333 164.5 553 C175.5 563.667 181 576 181 590 C181 604.667 175.667 617.333 165 628 C154.334 638.667 141.667 644 127 644 L127 644 Z M375 644 C361 644 348.833 638.667 338.5 628 C328.167 617.338 323 604.671 323 590 C323 576 328.167 563.667 338.5 553 C348.833 542.333 361 537 375 537 C389.667 537 402.5 542.333 413.5 553 C424.5 563.667 430 576 430 590 C430 604.667 424.5 617.333 413.5 628 C402.5 638.667 389.667 644 375 644 L375 644 Z M169 446 L84 446 L76 0 L162 0 L169 446 Z M417 446 L333 446 L324 -29 C323.333 -57.6667 314.5 -85.6667 297.5 -113 C280.5 -140.333 253.333 -170 216 -202 L270 -265 C304 -237 331.667 -209.5 353 -182.5 C374.333 -155.5 388.833 -129.5 396.5 -104.5 C404.164 -79.5 408.33 -56.6667 409 -36 L417 446 Z " />
<glyph glyph-name="Kcommaaccent" unicode="&#x136;" horiz-adv-x="575" d="M97 0 L186 0 L197 660 L109 660 L97 0 Z M300 349 L546 660 L442 660 L200 344 L451 0 L563 0 L300 349 Z M242 -80 L260 -162 L232 -248 L278 -248 L330 -165 C338 -151.667 342.833 -138.167 344.5 -124.5 C346.167 -110.833 343.5 -99.5 336.5 -90.5 C329.5 -81.5 321 -75.1667 311 -71.5 C301 -67.8328 289.833 -66.6662 277.5 -68 C265.167 -69.3333 253.333 -73.3333 242 -80 L242 -80 Z " />
<glyph glyph-name="kcommaaccent" unicode="&#x137;" horiz-adv-x="470" d="M76 0 L160 0 L173 735 L89 735 L76 0 Z M274 250 L435 446 L335 446 L177 251 L347 0 L449 0 L274 250 Z M189 -80 L207 -162 L178 -248 L225 -248 L277 -165 C285 -151.667 289.833 -138.167 291.5 -124.5 C293.167 -110.833 290.5 -99.5 283.5 -90.5 C276.5 -81.5 268 -75.1667 258 -71.5 C248 -67.8328 236.833 -66.6662 224.5 -68 C212.167 -69.3333 200.333 -73.3333 189 -80 L189 -80 Z " />
<glyph glyph-name="Lacute" unicode="&#x139;" horiz-adv-x="479" d="M274 854 L192 854 L122 722 L195 722 L274 854 Z M199 660 L109 660 L97 0 L462 0 L464 80 L188 80 L199 660 Z " />
<glyph glyph-name="lacute" unicode="&#x13a;" horiz-adv-x="245" d="M252 874 L170 874 L96 735 L169 735 L252 874 Z M173 660 L88 660 L76 0 L161 0 L173 660 Z " />
<glyph glyph-name="Lcommaaccent" unicode="&#x13b;" horiz-adv-x="479" d="M199 660 L109 660 L97 0 L462 0 L464 80 L188 80 L199 660 Z M234 -80 L252 -162 L223 -248 L270 -248 L322 -165 C330 -151.667 334.833 -138.167 336.5 -124.5 C338.167 -110.833 335.5 -99.5 328.5 -90.5 C321.5 -81.5 313 -75.1667 303 -71.5 C293 -67.8328 281.833 -66.6662 269.5 -68 C257.167 -69.3333 245.333 -73.3333 234 -80 L234 -80 Z " />
<glyph glyph-name="lcommaaccent" unicode="&#x13c;" horiz-adv-x="244" d="M174 735 L89 735 L76 0 L161 0 L174 735 Z M78 -80 L96 -162 L67 -248 L114 -248 L166 -165 C174 -151.667 178.833 -138.167 180.5 -124.5 C182.167 -110.833 179.5 -99.5 172.5 -90.5 C165.5 -81.5 157 -75.1667 147 -71.5 C137 -67.8328 125.833 -66.6662 113.5 -68 C101.167 -69.3333 89.3333 -73.3333 78 -80 L78 -80 Z " />
<glyph glyph-name="Lcaron" unicode="&#x13d;" horiz-adv-x="479" d="M199 660 L109 660 L97 0 L462 0 L464 80 L188 80 L199 660 Z M349 660 L269 660 L265 473 L319 473 L349 660 Z " />
<glyph glyph-name="lcaron" unicode="&#x13e;" horiz-adv-x="244" d="M174 735 L89 735 L76 0 L161 0 L174 735 Z M334 735 L245 735 L241 558 L304 558 L334 735 Z " />
<glyph glyph-name="Ldot" unicode="&#x13f;" horiz-adv-x="479" d="M199 660 L109 660 L97 0 L462 0 L464 80 L188 80 L199 660 Z M382 296 C399.333 296 413.833 302 425.5 314 C437.167 326 443 340.333 443 357 C443 374.333 437.167 389 425.5 401 C413.833 413 399.333 419 382 419 C365.333 419 351.167 413 339.5 401 C327.833 389 322 374.333 322 357 C322 340.333 327.833 326 339.5 314 C351.166 302 365.333 296 382 296 L382 296 Z " />
<glyph glyph-name="ldot" unicode="&#x140;" horiz-adv-x="342" d="M174 735 L89 735 L76 0 L161 0 L174 735 Z M293 303 C310.333 303 324.833 309 336.5 321 C348.167 333 354 347.333 354 364 C354 381.333 348.167 396 336.5 408 C324.833 420 310.333 426 293 426 C276.333 426 262.167 420 250.5 408 C238.833 396 233 381.333 233 364 C233 347.333 238.833 333 250.5 321 C262.166 309 276.333 303 293 303 L293 303 Z " />
<glyph glyph-name="Lslash" unicode="&#x141;" horiz-adv-x="494" d="M203 78 L207 324 L327 373 L328 449 L209 400 L213 660 L126 660 L121 363 L6 316 L6 240 L119 287 L114 0 L477 0 L479 78 L203 78 Z " />
<glyph glyph-name="lslash" unicode="&#x142;" horiz-adv-x="301" d="M309 493 L203 450 L208 735 L124 735 L118 415 L16 374 L15 297 L117 339 L111 0 L195 0 L202 373 L308 416 L309 493 Z " />
<glyph glyph-name="Nacute" unicode="&#x143;" horiz-adv-x="756" d="M505 854 L423 854 L353 722 L426 722 L505 854 Z M577 660 L568 127 L570 82 L236 660 L107 660 L95 0 L183 0 L191 508 C191 533.333 190 557 188 579 L519 0 L653 0 L664 660 L577 660 Z " />
<glyph glyph-name="nacute" unicode="&#x144;" horiz-adv-x="548" d="M394 660 L312 660 L238 521 L311 521 L394 660 Z M320 458 C287.333 458 257.5 452.333 230.5 441 C203.5 429.667 182.333 415.334 167 398 L167 446 L84 446 L76 0 L163 0 L169 341 C183 355.667 200.5 367.167 221.5 375.5 C242.5 383.833 266 388 292 388 C325.333 388 348.833 380.833 362.5 366.5 C376.167 352.167 383 332.334 383 307 L378 0 L464 0 L470 337 C470 368.333 461.5 393.333 444.5 412 C427.5 430.667 407.167 443 383.5 449 C359.833 455 338.667 458 320 458 L320 458 Z " />
<glyph glyph-name="Ncommaaccent" unicode="&#x145;" horiz-adv-x="756" d="M577 660 L568 127 L570 82 L236 660 L107 660 L95 0 L183 0 L191 508 C191 533.333 190 557 188 579 L519 0 L653 0 L664 660 L577 660 Z M331 -80 L350 -162 L321 -248 L367 -248 L419 -165 C427 -151.667 432 -138.167 434 -124.5 C436 -110.833 432.167 -98.1666 422.5 -86.5 C412.833 -74.8333 399.167 -68.6666 381.5 -68 C363.833 -67.3333 347 -71.3333 331 -80 L331 -80 Z " />
<glyph glyph-name="ncommaaccent" unicode="&#x146;" horiz-adv-x="548" d="M320 458 C287.333 458 257.5 452.333 230.5 441 C203.5 429.667 182.333 415.334 167 398 L168 446 L84 446 L76 0 L163 0 L169 341 C183 355.667 200.5 367.167 221.5 375.5 C242.5 383.833 266 388 292 388 C325.333 388 348.833 380.833 362.5 366.5 C376.167 352.167 383 332.334 383 307 L378 0 L464 0 L470 337 C470 368.333 461.5 393.333 444.5 412 C427.5 430.667 407.167 443 383.5 449 C359.833 455 338.667 458 320 458 L320 458 Z M226 -80 L245 -162 L216 -248 L262 -248 L314 -165 C322 -151.667 327 -138.167 329 -124.5 C331 -110.833 327.167 -98.1666 317.5 -86.5 C307.833 -74.8333 294.167 -68.6666 276.5 -68 C258.833 -67.3333 242 -71.3333 226 -80 L226 -80 Z " />
<glyph glyph-name="Ncaron" unicode="&#x147;" horiz-adv-x="756" d="M435 706 L519 838 L445 838 L389 745 L342 838 L269 838 L338 706 L435 706 Z M577 660 L568 127 L570 82 L236 660 L107 660 L95 0 L183 0 L191 508 C191 533.333 190 557 188 579 L519 0 L653 0 L664 660 L577 660 Z " />
<glyph glyph-name="ncaron" unicode="&#x148;" horiz-adv-x="548" d="M330 520 L419 660 L346 660 L284 559 L232 660 L159 660 L234 520 L330 520 Z M320 458 C287.333 458 257.5 452.333 230.5 441 C203.5 429.667 182.333 415.334 167 398 L167 446 L84 446 L76 0 L163 0 L169 341 C183 355.667 200.5 367.167 221.5 375.5 C242.5 383.833 266 388 292 388 C325.333 388 348.833 380.833 362.5 366.5 C376.167 352.167 383 332.334 383 307 L378 0 L464 0 L470 337 C470 368.333 461.5 393.333 444.5 412 C427.5 430.667 407.167 443 383.5 449 C359.833 455 338.667 458 320 458 L320 458 Z " />
<glyph glyph-name="Eng" unicode="&#x14a;" horiz-adv-x="756" d="M577 660 L568 127 L570 82 L236 660 L107 660 L95 0 L183 0 L191 508 C191 533.333 190 557 188 579 L519 0 L566 0 L566 -25 C565.333 -59 557.5 -88.1667 542.5 -112.5 C527.5 -136.833 499.333 -165.667 458 -199 L512 -262 C564.667 -219.333 601 -182 621 -150 C641 -118 651.333 -78.6667 652 -32 L664 660 L577 660 Z " />
<glyph glyph-name="eng" unicode="&#x14b;" horiz-adv-x="548" d="M320 458 C288 458 258.667 452.5 232 441.5 C205.333 430.5 184 416.667 168 400 L169 446 L84 446 L76 0 L163 0 L169 341 C183 355.667 200.5 367.167 221.5 375.5 C242.5 383.833 266 388 292 388 C325.333 388 348.833 380.833 362.5 366.5 C376.167 352.167 383 332.334 383 307 L377 -28 C376.333 -64.6667 368.667 -93.8333 354 -115.5 C339.333 -137.167 311 -166 269 -202 L323 -265 C361 -234.333 390.167 -207 410.5 -183 C430.833 -159 444.833 -134.833 452.5 -110.5 C460.167 -86.1667 464 -61.3333 464 -36 L470 337 C470 368.333 461.5 393.333 444.5 412 C427.5 430.667 407.167 443 383.5 449 C359.833 455 338.667 458 320 458 L320 458 Z " />
<glyph glyph-name="Omacron" unicode="&#x14c;" horiz-adv-x="724" d="M504 836 L235 836 L234 766 L502 766 L504 836 Z M369 678 C347.667 678 323.167 675.667 295.5 671 C267.833 666.338 237.833 656.172 205.5 640.5 C173.167 624.833 143.833 600.5 117.5 567.5 C91.1667 534.5 72.6667 497 62 455 C51.3333 413 46 371 46 329 C46 276.333 53 228.333 67 185 C81 141.667 101.667 105 129 75 C156.333 45 189.667 22 229 6 C268.333 -10 312.667 -18 362 -18 C410.667 -18 455 -10 495 6 C535 22 568.833 45.1667 596.5 75.5 C624.167 105.833 645.333 143.167 660 187.5 C674.667 231.833 682 281 682 335 C682 390.333 674.5 439.667 659.5 483 C644.5 526.333 623.167 562.333 595.5 591 C567.834 619.667 534.668 641.333 496 656 C457.333 670.667 415 678 369 678 L369 678 Z M368 599 C419.333 599 461.5 587.5 494.5 564.5 C527.5 541.5 552 510.667 568 472 C584 433.333 592 386.333 592 331 C592 286.333 586.667 246.667 576 212 C565.333 177.333 550 149 530 127 C510 105 486 88.5 458 77.5 C430 66.5 399 61 365 61 C293 61 236.667 84.1666 196 130.5 C155.333 176.833 135 243 135 329 C135 374.333 140.833 414.333 152.5 449 C164.167 483.667 180.333 512 201 534 C221.667 556 246.333 572.333 275 583 C303.667 593.667 334.667 599 368 599 L368 599 Z " />
<glyph glyph-name="omacron" unicode="&#x14d;" horiz-adv-x="541" d="M408 622 L139 622 L138 552 L407 552 L408 622 Z M275 458 C205 458 149.5 436.667 108.5 394 C67.5 351.333 47 294 47 222 C47 186.667 52.1667 154.5 62.5 125.5 C72.8333 96.5 86.3333 73 103 55 C119.667 37 137.667 23.1667 157 13.5 C176.333 3.83334 196 -2.83333 216 -6.5 C236 -10.1667 254 -12 270 -12 C338.667 -12 393.167 9.5 433.5 52.5 C473.833 95.5 494 153.667 494 227 C494 299 474.667 355.5 436 396.5 C397.333 437.5 343.667 458 275 458 L275 458 Z M273 388 C316.333 388 349.667 373.833 373 345.5 C396.333 317.167 408 276.667 408 224 C408 171.333 396.333 130.5 373 101.5 C349.667 72.5 316.667 58 274 58 C230 58 195.5 72.8333 170.5 102.5 C145.5 132.167 133 173 133 225 C133 276.333 145.333 316.333 170 345 C194.667 373.667 229 388 273 388 L273 388 Z " />
<glyph glyph-name="Ohungarumlaut" unicode="&#x150;" horiz-adv-x="724" d="M411 839 L330 839 L259 707 L332 707 L411 839 Z M559 839 L478 839 L408 707 L480 707 L559 839 Z M369 678 C347.667 678 323.167 675.667 295.5 671 C267.833 666.338 237.833 656.172 205.5 640.5 C173.167 624.833 143.833 600.5 117.5 567.5 C91.1667 534.5 72.6667 497 62 455 C51.3333 413 46 371 46 329 C46 276.333 53 228.333 67 185 C81 141.667 101.667 105 129 75 C156.333 45 189.667 22 229 6 C268.333 -10 312.667 -18 362 -18 C410.667 -18 455 -10 495 6 C535 22 568.833 45.1667 596.5 75.5 C624.167 105.833 645.333 143.167 660 187.5 C674.667 231.833 682 281 682 335 C682 390.333 674.5 439.667 659.5 483 C644.5 526.333 623.167 562.333 595.5 591 C567.834 619.667 534.668 641.333 496 656 C457.333 670.667 415 678 369 678 L369 678 Z M368 599 C419.333 599 461.5 587.5 494.5 564.5 C527.5 541.5 552 510.667 568 472 C584 433.333 592 386.333 592 331 C592 286.333 586.667 246.667 576 212 C565.333 177.333 550 149 530 127 C510 105 486 88.5 458 77.5 C430 66.5 399 61 365 61 C293 61 236.667 84.1666 196 130.5 C155.333 176.833 135 243 135 329 C135 374.333 140.833 414.333 152.5 449 C164.167 483.667 180.333 512 201 534 C221.667 556 246.333 572.333 275 583 C303.667 593.667 334.667 599 368 599 L368 599 Z " />
<glyph glyph-name="ohungarumlaut" unicode="&#x151;" horiz-adv-x="541" d="M316 660 L240 660 L165 521 L233 521 L316 660 Z M463 660 L386 660 L312 521 L380 521 L463 660 Z M275 458 C205 458 149.5 436.667 108.5 394 C67.5 351.333 47 294 47 222 C47 186.667 52.1667 154.5 62.5 125.5 C72.8333 96.5 86.3333 73 103 55 C119.667 37 137.667 23.1667 157 13.5 C176.333 3.83334 196 -2.83333 216 -6.5 C236 -10.1667 254 -12 270 -12 C338.667 -12 393.167 9.5 433.5 52.5 C473.833 95.5 494 153.667 494 227 C494 299 474.667 355.5 436 396.5 C397.333 437.5 343.667 458 275 458 L275 458 Z M273 388 C316.333 388 349.667 373.833 373 345.5 C396.333 317.167 408 276.667 408 224 C408 171.333 396.333 130.5 373 101.5 C349.667 72.5 316.667 58 274 58 C230 58 195.5 72.8333 170.5 102.5 C145.5 132.167 133 173 133 225 C133 276.333 145.333 316.333 170 345 C194.667 373.667 229 388 273 388 L273 388 Z " />
<glyph glyph-name="OE" unicode="&#x152;" horiz-adv-x="908" d="M855 78 L591 78 L595 294 L826 294 L827 372 L596 372 L599 582 L848 582 L849 660 L522 660 C479.333 668 434.667 672 388 672 C278.667 672 194.333 642.833 135 584.5 C75.6667 526.167 46 441.333 46 330 C46 277.333 53 229.667 67 187 C81 144.333 101.833 108.333 129.5 79 C157.167 49.6667 191.833 27.1667 233.5 11.5 C275.167 -4.16667 323 -12 377 -12 C422.333 -12 463.667 -8 501 0 L854 0 L855 78 Z M133 328 C133 372.667 138.667 412.167 150 446.5 C161.333 480.833 177.667 509.333 199 532 C220.333 554.667 246.333 571.5 277 582.5 C307.667 593.5 342 599 380 599 C398.667 599 421.167 597.833 447.5 595.5 C473.833 593.167 495.667 589.667 513 585 L503 75 C489.667 70.3333 471.5 66.8333 448.5 64.5 C425.5 62.1667 404.333 61 385 61 C300.333 61 237.167 84 195.5 130 C153.833 176 133 242 133 328 L133 328 Z " />
<glyph glyph-name="oe" unicode="&#x153;" horiz-adv-x="833" d="M783 209 C785 221 786 238.667 786 262 C786 324.667 771.333 373 742 407 C712.667 441 670 458 614 458 C579.333 458 547 450.833 517 436.5 C487 422.167 463.667 399.667 447 369 C439 382.333 427.5 396.167 412.5 410.5 C397.5 424.833 377.667 436.333 353 445 C328.333 453.667 301.667 458 273 458 C241.667 458 212.167 453 184.5 443 C156.833 433 132.833 418 112.5 398 C92.1667 378 76.1667 353.167 64.5 323.5 C52.8333 293.833 47 260 47 222 C47 186.667 52 154.5 62 125.5 C72 96.5 86.6667 71.8333 106 51.5 C125.333 31.1667 148.833 15.5 176.5 4.5 C204.167 -6.5 235 -12 269 -12 C308.333 -12 343.333 -4.5 374 10.5 C404.666 25.5 428.333 47.3333 445 76 C460.333 44.6667 482.333 22.1667 511 8.5 C539.667 -5.16667 578.333 -12 627 -12 C669 -12 715.333 -5 766 9 L751 78 C709 66 666.333 60 623 60 C571.667 60 536.167 72.3333 516.5 97 C496.833 121.667 487.333 159 488 209 L783 209 Z M605 390 C629 390 648.167 385.167 662.5 375.5 C676.833 365.833 687.5 353 694.5 337 C701.5 321 705 303.333 705 284 L705 272 L491 272 C495 310 506.833 339.167 526.5 359.5 C546.167 379.833 572.333 390 605 390 L605 390 Z M274 58 C244.667 58 220.667 64 202 76 C183.333 88 169.5 101.5 160.5 116.5 C151.5 131.5 144.667 148.167 140 166.5 C135.333 184.833 133 204.333 133 225 C133 275 145.5 314.667 170.5 344 C195.5 373.333 230.333 388 275 388 C318.333 388 351 373.667 373 345 C395 316.333 406 276 406 224 C406 188 401 157.833 391 133.5 C381 109.167 366.333 90.5 347 77.5 C327.667 64.5 303.334 58 274 58 L274 58 Z " />
<glyph glyph-name="Racute" unicode="&#x154;" horiz-adv-x="581" d="M398 854 L317 854 L246 722 L319 722 L398 854 Z M569 0 L391 286 C419.666 302.667 442.333 326 459 356 C475.667 386 484 422.333 484 465 C484 507.667 475.667 543.167 459 571.5 C442.333 599.833 417.833 621.666 385.5 637 C353.167 652.333 312.334 660 263 660 L109 658 L97 0 L184 0 L188 253 C201.333 251.667 218 251 238 251 C263.333 251 287.333 253 310 257 L466 0 L569 0 Z M189 327 L193 583 L254 584 C347.333 584 394 542.333 394 459 C394 411 380.833 376.667 354.5 356 C328.167 335.333 290.334 325 241 325 L189 327 Z " />
<glyph glyph-name="racute" unicode="&#x155;" horiz-adv-x="338" d="M306 660 L224 660 L150 521 L223 521 L306 660 Z M293 455 C243 455 201.333 436.667 168 400 L169 446 L84 446 L76 0 L163 0 L168 337 C185.333 354.333 204.833 366 226.5 372 C248.167 378 268.333 381 287 381 L326 381 L327 453 L293 455 Z " />
<glyph glyph-name="Rcommaaccent" unicode="&#x156;" horiz-adv-x="581" d="M391 286 C419.666 302.667 442.333 326 459 356 C475.667 386 484 422.333 484 465 C484 507.667 475.667 543.167 459 571.5 C442.333 599.833 417.833 621.666 385.5 637 C353.167 652.333 312.334 660 263 660 L109 658 L97 0 L184 0 L188 253 C201.333 251.667 218 251 238 251 C263.333 251 287.333 253 310 257 L466 0 L569 0 L391 286 Z M189 327 L193 583 L254 584 C347.333 584 394 542.333 394 459 C394 411 380.833 376.667 354.5 356 C328.167 335.333 290.334 325 241 325 L189 327 Z M253 -80 L271 -162 L242 -248 L289 -248 L341 -165 C349 -151.667 353.833 -138.167 355.5 -124.5 C357.167 -110.833 354.5 -99.5 347.5 -90.5 C340.5 -81.5 332 -75.1667 322 -71.5 C312 -67.8328 300.833 -66.6662 288.5 -68 C276.167 -69.3333 264.334 -73.3333 253 -80 L253 -80 Z " />
<glyph glyph-name="rcommaaccent" unicode="&#x157;" horiz-adv-x="338" d="M293 455 C243 455 201.333 436.667 168 400 L169 446 L84 446 L76 0 L163 0 L168 337 C185.333 354.333 204.833 366 226.5 372 C248.167 378 268.333 381 287 381 L326 381 L327 453 L293 455 Z M72 -81 L90 -163 L61 -249 L108 -249 L160 -165 C168 -151.667 172.833 -138.167 174.5 -124.5 C176.167 -110.833 172.833 -98.8333 164.5 -88.5 C156.167 -78.1667 143.667 -71.6667 127 -69 C110.333 -66.3333 92 -70.3333 72 -81 L72 -81 Z " />
<glyph glyph-name="Rcaron" unicode="&#x158;" horiz-adv-x="581" d="M328 706 L412 838 L338 838 L283 745 L236 838 L162 838 L232 706 L328 706 Z M569 0 L391 286 C419.666 302.667 442.333 326 459 356 C475.667 386 484 422.333 484 465 C484 507.667 475.667 543.167 459 571.5 C442.333 599.833 417.833 621.666 385.5 637 C353.167 652.333 312.334 660 263 660 L109 658 L97 0 L184 0 L188 253 C201.333 251.667 218 251 238 251 C263.333 251 287.333 253 310 257 L466 0 L569 0 Z M189 327 L193 583 L254 584 C347.333 584 394 542.333 394 459 C394 411 380.833 376.667 354.5 356 C328.167 335.333 290.334 325 241 325 L189 327 Z " />
<glyph glyph-name="rcaron" unicode="&#x159;" horiz-adv-x="338" d="M242 520 L331 660 L258 660 L196 559 L144 660 L70 660 L145 520 L242 520 Z M168 400 L169 446 L84 446 L76 0 L163 0 L168 337 C185.333 354.333 204.833 366 226.5 372 C248.167 378 268.333 381 287 381 L326 381 L327 453 L293 455 C243 455 201.333 436.667 168 400 L168 400 Z " />
<glyph glyph-name="Sacute" unicode="&#x15a;" horiz-adv-x="462" d="M368 854 L287 854 L217 722 L289 722 L368 854 Z M251 672 C219.667 672 191.667 667.333 167 658 C142.333 648.667 121.833 635.833 105.5 619.5 C89.1667 603.167 76.8334 584.5 68.5 563.5 C60.1667 542.5 56 520.333 56 497 C56 473.667 59.6667 453.5 67 436.5 C74.3333 419.5 83.5 403.833 94.5 389.5 C105.5 375.167 118.667 361.667 134 349 C149.333 336.333 176.333 315.333 215 286 C257.666 254 285.833 230.333 299.5 215 C313.167 199.667 320 181.333 320 160 C320 128 308 104.5 284 89.5 C260 74.5 229.667 67 193 67 C160.333 67 119.333 73.3333 70 86 L52 11 C106 -4.33333 155.333 -12 200 -12 C240.667 -12 276.5 -5.33333 307.5 8 C338.5 21.3333 363.333 42.3333 382 71 C400.667 99.6667 410 132.333 410 169 C410 183.667 407.5 199.167 402.5 215.5 C397.5 231.833 386.5 249.5 369.5 268.5 C352.5 287.5 315 318.333 257 361 C204.333 401 172.5 429.667 161.5 447 C150.5 464.333 145 481.667 145 499 C145 527.667 155.167 550.667 175.5 568 C195.833 585.333 223.667 594 259 594 C275 594 294.333 592 317 588 C339.667 584 360.333 579.333 379 574 L396 649 C376.667 655 353 660.333 325 665 C297 669.667 272.333 672 251 672 L251 672 Z " />
<glyph glyph-name="sacute" unicode="&#x15b;" horiz-adv-x="375" d="M302 660 L220 660 L146 521 L219 521 L302 660 Z M191 457 C145.667 457 110 446 84 424 C58 402 45 371.667 45 333 C45 315.667 47.6667 300.167 53 286.5 C58.3333 272.833 65.1667 261.5 73.5 252.5 C81.8333 243.5 91.5 235 102.5 227 C113.5 219 135 207.167 167 191.5 C199 175.833 219.667 162.333 229 151 C238.333 139.667 243 127.667 243 115 C243 98.3333 236.167 84.8333 222.5 74.5 C208.834 64.1667 190.667 59.0001 168 59 C138 59 100.667 67.6667 56 85 L36 18 C84 -0.666672 129 -10 171 -10 C218.333 -10 256 1.83333 284 25.5 C312 49.1667 326 81 326 121 C326 138.333 323.333 153.833 318 167.5 C312.667 181.167 304 194.167 292 206.5 C280 218.833 257 233.166 223 249.5 C189 265.833 167.333 277.333 158 284 C148.667 290.667 141.333 298.5 136 307.5 C130.667 316.5 128 326.667 128 338 C128 370.667 150 387 194 387 C223.333 387 258.667 380.333 300 367 L319 432 C265.667 448.667 223 457 191 457 L191 457 Z " />
<glyph glyph-name="Scedilla" unicode="&#x15e;" horiz-adv-x="462" d="M410 169 C410 183.667 407.5 199.167 402.5 215.5 C397.5 231.833 386.5 249.5 369.5 268.5 C352.5 287.5 315 318.333 257 361 C204.333 401 172.5 429.667 161.5 447 C150.5 464.333 145 481.667 145 499 C145 527.667 155.167 550.667 175.5 568 C195.833 585.333 223.667 594 259 594 C275 594 294.333 592 317 588 C339.667 584 360.333 579.333 379 574 L396 649 C376.667 655 353 660.333 325 665 C297 669.667 272.333 672 251 672 C219.667 672 191.667 667.333 167 658 C142.333 648.667 121.833 635.833 105.5 619.5 C89.1667 603.167 76.8334 584.5 68.5 563.5 C60.1667 542.5 56 520.333 56 497 C56 473.667 59.6667 453.5 67 436.5 C74.3333 419.5 83.5 403.833 94.5 389.5 C105.5 375.167 118.667 361.667 134 349 C149.333 336.333 176.333 315.333 215 286 C257.666 254 285.833 230.333 299.5 215 C313.167 199.667 320 181.333 320 160 C320 128 308 104.5 284 89.5 C260 74.5 229.667 67 193 67 C160.333 67 119.333 73.3333 70 86 L52 11 C98 -2.33333 141.667 -10 183 -12 L182 -31 C182 -44.3333 184.5 -54.8333 189.5 -62.5 C194.5 -70.1667 204.333 -79.3333 219 -90 C233.667 -100 242.333 -107.833 245 -113.5 C247.667 -119.167 249 -124.333 249 -129 C249 -151.667 233 -163 201 -163 C186.334 -163 173.667 -161.667 163 -159 L162 -218 C172.667 -220.667 186 -222 202 -222 C233.333 -222 260 -214 282 -198 C304 -182 315 -159 315 -129 C315 -111 311.667 -96.8333 305 -86.5 C298.333 -76.1667 288.333 -66 275 -56 C264.333 -48 257.333 -41.5 254 -36.5 C250.667 -31.5 249 -24.3333 249 -15 L249 -9 C279.666 -4.33333 305.833 4.66667 327.5 18 C349.166 31.3333 365.833 46.5 377.5 63.5 C389.167 80.5 397.5 98.5 402.5 117.5 C407.5 136.5 410 153.667 410 169 L410 169 Z " />
<glyph glyph-name="scedilla" unicode="&#x15f;" horiz-adv-x="375" d="M326 121 C326 138.333 323.333 153.833 318 167.5 C312.667 181.167 304 194.167 292 206.5 C280 218.833 257 233.166 223 249.5 C189 265.833 167.333 277.333 158 284 C148.667 290.667 141.333 298.5 136 307.5 C130.667 316.5 128 326.667 128 338 C128 370.667 150 387 194 387 C223.333 387 258.667 380.333 300 367 L319 432 C265.667 448.667 223 457 191 457 C145.667 457 110 446 84 424 C58 402 45 371.667 45 333 C45 315.667 47.6667 300.167 53 286.5 C58.3333 272.833 65.1667 261.5 73.5 252.5 C81.8333 243.5 91.5 235 102.5 227 C113.5 219 135 207.167 167 191.5 C199 175.833 219.667 162.333 229 151 C238.333 139.667 243 127.667 243 115 C243 98.3333 236.167 84.8333 222.5 74.5 C208.834 64.1667 190.667 59.0001 168 59 C138 59 100.667 67.6667 56 85 L36 18 C71.3333 4 105.667 -5 139 -9 L138 -31 C138 -44.3333 140.5 -54.8333 145.5 -62.5 C150.5 -70.1667 160.333 -79.3333 175 -90 C185 -96 192.5 -102 197.5 -108 C202.5 -114 205 -121 205 -129 C205 -151.667 189 -163 157 -163 C143 -163 130.333 -161.667 119 -159 L118 -218 C129.333 -220.667 143 -222 159 -222 C189.667 -222 216 -214 238 -198 C260 -182 271 -159 271 -129 C271 -111 267.667 -96.8333 261 -86.5 C254.333 -76.1667 244.333 -66 231 -56 C220.333 -48 213.333 -41.5 210 -36.5 C206.667 -31.5 205 -24.3333 205 -15 L205 -8 C232.333 -4 255.833 5 275.5 19 C295.167 33 308.5 49.5 315.5 68.5 C322.5 87.5 326 105 326 121 L326 121 Z " />
<glyph glyph-name="Scaron" unicode="&#x160;" horiz-adv-x="462" d="M298 706 L382 838 L309 838 L253 745 L206 838 L132 838 L202 706 L298 706 Z M257 361 C204.333 401 172.5 429.667 161.5 447 C150.5 464.333 145 481.667 145 499 C145 527.667 155.167 550.667 175.5 568 C195.833 585.333 223.667 594 259 594 C275 594 294.333 592 317 588 C339.667 584 360.333 579.333 379 574 L396 649 C376.667 655 353 660.333 325 665 C297 669.667 272.333 672 251 672 C219.667 672 191.667 667.333 167 658 C142.333 648.667 121.833 635.833 105.5 619.5 C89.1667 603.167 76.8334 584.5 68.5 563.5 C60.1667 542.5 56 520.333 56 497 C56 473.667 59.6667 453.5 67 436.5 C74.3333 419.5 83.5 403.833 94.5 389.5 C105.5 375.167 118.667 361.667 134 349 C149.333 336.333 176.333 315.333 215 286 C257.666 254 285.833 230.333 299.5 215 C313.167 199.667 320 181.333 320 160 C320 128 308 104.5 284 89.5 C260 74.5 229.667 67 193 67 C160.333 67 119.333 73.3333 70 86 L52 11 C106 -4.33333 155.333 -12 200 -12 C240.667 -12 276.5 -5.33333 307.5 8 C338.5 21.3333 363.333 42.3333 382 71 C400.667 99.6667 410 132.333 410 169 C410 183.667 407.5 199.167 402.5 215.5 C397.5 231.833 386.5 249.5 369.5 268.5 C352.5 287.5 315 318.333 257 361 L257 361 Z " />
<glyph glyph-name="scaron" unicode="&#x161;" horiz-adv-x="375" d="M238 520 L327 660 L254 660 L192 559 L141 660 L67 660 L142 520 L238 520 Z M128 338 C128 370.667 150 387 194 387 C223.333 387 258.667 380.333 300 367 L319 432 C265.667 448.667 223 457 191 457 C145.667 457 110 446 84 424 C58 402 45 371.667 45 333 C45 315.667 47.6667 300.167 53 286.5 C58.3333 272.833 65.1667 261.5 73.5 252.5 C81.8333 243.5 91.5 235 102.5 227 C113.5 219 135 207.167 167 191.5 C199 175.833 219.667 162.333 229 151 C238.333 139.667 243 127.667 243 115 C243 98.3333 236.167 84.8333 222.5 74.5 C208.834 64.1667 190.667 59.0001 168 59 C138 59 100.667 67.6667 56 85 L36 18 C84 -0.666672 129 -10 171 -10 C218.333 -10 256 1.83333 284 25.5 C312 49.1667 326 81 326 121 C326 138.333 323.333 153.833 318 167.5 C312.667 181.167 304 194.167 292 206.5 C280 218.833 257 233.166 223 249.5 C189 265.833 167.333 277.333 158 284 C148.667 290.667 141.333 298.5 136 307.5 C130.667 316.5 128 326.667 128 338 L128 338 Z " />
<glyph glyph-name="Tcommaaccent" unicode="&#x162;" horiz-adv-x="567" d="M325 0 L335 582 L565 582 L566 660 L17 660 L16 582 L246 582 L236 0 L245 0 C243 -10 242 -20.3333 242 -31 C242 -41.6667 243.667 -50.8334 247 -58.5 C250.333 -66.1667 261 -76.6667 279 -90 C289 -96 296.5 -102 301.5 -108 C306.5 -114 309 -121 309 -129 C309 -151.667 293 -163 261 -163 C247 -163 234.333 -161.667 223 -159 L222 -218 C233.333 -220.667 247 -222 263 -222 C289.667 -222 311.667 -217.167 329 -207.5 C346.333 -197.833 358.333 -186.167 365 -172.5 C371.667 -158.833 375 -144.333 375 -129 C375 -111 371.667 -96.8333 365 -86.5 C358.333 -76.1667 348.333 -66 335 -56 C324.333 -48 317.333 -41.5 314 -36.5 C310.667 -31.5 309 -24.3333 309 -15 L310 0 L325 0 Z " />
<glyph glyph-name="tcommaaccent" unicode="&#x163;" horiz-adv-x="336" d="M307 374 L309 446 L184 446 L186 584 L105 584 L102 446 L35 446 L33 374 L101 374 L96 82 C96 37.3333 115.667 8.66666 155 -4 C153.667 -10 153 -19 153 -31 C153 -44.3333 155.5 -54.8333 160.5 -62.5 C165.5 -70.1667 175.333 -79.3333 190 -90 C204.667 -100 213.333 -107.833 216 -113.5 C218.667 -119.167 220 -124.333 220 -129 C220 -151.667 204 -163 172 -163 C157.333 -163 144.667 -161.667 134 -159 L133 -218 C143.667 -220.667 157 -222 173 -222 C204.333 -222 231 -214 253 -198 C275 -182 286 -159 286 -129 C286 -111 282.667 -96.8333 276 -86.5 C269.333 -76.1667 259.333 -66 246 -56 C235.333 -48 228.333 -41.5 225 -36.5 C221.667 -31.5 220 -24.3333 220 -15 L220 -12 C249.333 -10.6667 278 -5 306 5 L293 71 C271 64.3333 249.667 61 229 61 C211 60.9999 198 64.8333 190 72.5 C182 80.1667 178 93 178 111 L183 374 L307 374 Z " />
<glyph glyph-name="Tcaron" unicode="&#x164;" horiz-adv-x="567" d="M339 706 L423 838 L349 838 L293 745 L246 838 L172 838 L242 706 L339 706 Z M566 660 L17 660 L16 582 L246 582 L236 0 L325 0 L335 582 L565 582 L566 660 Z " />
<glyph glyph-name="tcaron" unicode="&#x165;" horiz-adv-x="336" d="M271 734 L267 557 L329 557 L360 734 L271 734 Z M186 584 L105 584 L102 446 L35 446 L33 374 L101 374 L96 82 C96 51.3333 105.833 28 125.5 12 C145.167 -4 174 -12 212 -12 C244.667 -12 276 -6.33333 306 5 L293 71 C271 64.3333 249.667 61 229 61 C211 60.9999 198 64.8333 190 72.5 C182 80.1667 178 93 178 111 L183 374 L307 374 L309 446 L184 446 L186 584 Z " />
<glyph glyph-name="Tbar" unicode="&#x166;" horiz-adv-x="567" d="M565 582 L566 660 L17 660 L16 582 L246 582 L242 361 L154 361 L153 291 L241 291 L236 0 L325 0 L330 291 L422 291 L423 361 L331 361 L335 582 L565 582 Z " />
<glyph glyph-name="tbar" unicode="&#x167;" horiz-adv-x="336" d="M307 374 L309 446 L184 446 L186 584 L105 584 L102 446 L35 446 L33 374 L101 374 L100 311 L34 311 L33 245 L99 245 L96 82 C96 51.3333 105.833 28 125.5 12 C145.167 -4 174 -12 212 -12 C244.667 -12 276 -6.33333 306 5 L293 71 C271 64.3333 249.667 61 229 61 C211 60.9999 198 64.8333 190 72.5 C182 80.1667 178 93 178 111 L180 245 L305 245 L306 311 L182 311 L183 374 L307 374 Z " />
<glyph glyph-name="Umacron" unicode="&#x16a;" horiz-adv-x="709" d="M499 836 L230 836 L229 766 L498 766 L499 836 Z M626 660 L537 660 L528 209 C526 113.667 467.667 66 353 66 C236.333 66 179 113.667 181 209 L188 660 L98 660 L92 191 C91.3333 155.667 97.8333 124.833 111.5 98.5 C125.167 72.1667 144.167 50.8333 168.5 34.5 C192.833 18.1667 220.833 6.16667 252.5 -1.5 C284.167 -9.16667 318 -13 354 -13 C404 -13 446 -6.66667 480 6 C514 18.6667 540 33.5 558 50.5 C576 67.5 590.333 87.1667 601 109.5 C611.667 131.833 617.333 159 618 191 L626 660 Z " />
<glyph glyph-name="umacron" unicode="&#x16b;" horiz-adv-x="538" d="M407 622 L138 622 L137 552 L406 552 L407 622 Z M375 446 L368 105 C334 73 294 57 248 57 C218.667 57 197.5 63.5 184.5 76.5 C171.5 89.5 165 110 165 138 L170 446 L84 446 L78 110 C77.3333 71.3333 89.6667 41.3333 115 20 C140.333 -1.33333 175.667 -12 221 -12 C281 -12 331 7.33333 371 46 L370 0 L454 0 L461 446 L375 446 Z " />
<glyph glyph-name="Uring" unicode="&#x16e;" horiz-adv-x="709" d="M364 867 C350 867 335.333 863.833 320 857.5 C304.667 851.167 292.167 839.833 282.5 823.5 C272.833 807.167 268 789 268 769 C268 750.333 272.833 733 282.5 717 C292.167 701 304.667 689.833 320 683.5 C335.333 677.167 350 674 364 674 C393.333 674 416.667 683.333 434 702 C451.333 720.667 460 743 460 769 C460 781.667 457.167 795.667 451.5 811 C445.833 826.333 435.167 839.5 419.5 850.5 C403.833 861.5 385.333 867 364 867 L364 867 Z M364 817 C377.333 817 388.167 812.667 396.5 804 C404.833 795.333 409 784 409 770 C409 756.667 404.833 745.667 396.5 737 C388.167 728.333 377.333 724 364 724 C350.667 724 339.834 728.333 331.5 737 C323.167 745.667 319 756.667 319 770 C319 784 323.167 795.333 331.5 804 C339.833 812.667 350.667 817 364 817 L364 817 Z M626 660 L537 660 L528 209 C526 113.667 467.667 66 353 66 C236.333 66 179 113.667 181 209 L188 660 L98 660 L92 191 C91.3333 155.667 97.8333 124.833 111.5 98.5 C125.167 72.1667 144.167 50.8333 168.5 34.5 C192.833 18.1667 220.833 6.16667 252.5 -1.5 C284.167 -9.16667 318 -13 354 -13 C404 -13 446 -6.66667 480 6 C514 18.6667 540 33.5 558 50.5 C576 67.5 590.333 87.1667 601 109.5 C611.667 131.833 617.333 159 618 191 L626 660 Z " />
<glyph glyph-name="uring" unicode="&#x16f;" horiz-adv-x="538" d="M272 504 C285.333 504 299.167 507 313.5 513 C327.833 519 339.667 529.667 349 545 C358.333 560.333 363 577 363 595 C363 614.331 358.333 631.664 349 647 C339.668 662.333 327.835 673 313.5 679 C299.168 685 285.334 688 272 688 C244 688 221.667 679.167 205 661.5 C188.333 643.836 180 621.669 180 595 C180 577 184.667 560.333 194 545 C203.333 529.667 215.333 519 230 513 C244.667 507 258.667 504 272 504 L272 504 Z M272 640 C284.667 640 295 635.833 303 627.5 C311 619.167 315 608.333 315 595 C315 582.333 311 571.833 303 563.5 C295 555.167 284.667 551 272 551 C258.667 551 248.167 555.167 240.5 563.5 C232.833 571.833 229 582.333 229 595 C229 608.329 232.833 619.162 240.5 627.5 C248.167 635.833 258.667 640 272 640 L272 640 Z M375 446 L368 105 C334 73 294 57 248 57 C218.667 57 197.5 63.5 184.5 76.5 C171.5 89.5 165 110 165 138 L170 446 L84 446 L78 110 C77.3333 71.3333 89.6667 41.3333 115 20 C140.333 -1.33333 175.667 -12 221 -12 C281 -12 331 7.33333 371 46 L370 0 L454 0 L461 446 L375 446 Z " />
<glyph glyph-name="Uhungarumlaut" unicode="&#x170;" horiz-adv-x="709" d="M406 839 L325 839 L255 707 L327 707 L406 839 Z M554 839 L473 839 L403 707 L475 707 L554 839 Z M626 660 L537 660 L528 209 C526 113.667 467.667 66 353 66 C236.333 66 179 113.667 181 209 L188 660 L98 660 L92 191 C91.3333 155.667 97.8333 124.833 111.5 98.5 C125.167 72.1667 144.167 50.8333 168.5 34.5 C192.833 18.1667 220.833 6.16667 252.5 -1.5 C284.167 -9.16667 318 -13 354 -13 C404 -13 446 -6.66667 480 6 C514 18.6667 540 33.5 558 50.5 C576 67.5 590.333 87.1667 601 109.5 C611.667 131.833 617.333 159 618 191 L626 660 Z " />
<glyph glyph-name="uhungarumlaut" unicode="&#x171;" horiz-adv-x="538" d="M315 660 L238 660 L164 521 L232 521 L315 660 Z M379 521 L462 660 L385 660 L311 521 L379 521 Z M368 105 C334 73 294 57 248 57 C218.667 57 197.5 63.5 184.5 76.5 C171.5 89.5 165 110 165 138 L170 446 L84 446 L78 110 C77.3333 71.3333 89.6667 41.3333 115 20 C140.333 -1.33333 175.667 -12 221 -12 C281 -12 331 7.33333 371 46 L370 0 L454 0 L461 446 L375 446 L368 105 Z " />
<glyph glyph-name="Uogonek" unicode="&#x172;" horiz-adv-x="709" d="M537 660 L528 209 C526 113.667 467.667 66 353 66 C236.333 66 179 113.667 181 209 L188 660 L98 660 L92 191 C91.3333 157.667 97 128.333 109 103 C121 77.6667 137.833 56.8333 159.5 40.5 C181.167 24.1667 206.5 11.6667 235.5 3 C264.5 -5.66667 295.333 -10.6667 328 -12 C293.333 -64 276 -107.333 276 -142 C276 -166.667 284.5 -186.333 301.5 -201 C318.5 -215.667 341.333 -223 370 -223 C388.667 -223 404.667 -221 418 -217 L408 -162 L384 -164 C358 -164 345 -152.667 345 -130 C345 -116.667 350.167 -99 360.5 -77 C370.833 -55 384.667 -33 402 -11 C452 -5.66667 492.667 6.5 524 25.5 C555.331 44.5 578.664 67.8333 594 95.5 C609.333 123.167 617.333 155 618 191 L626 660 L537 660 Z " />
<glyph glyph-name="uogonek" unicode="&#x173;" horiz-adv-x="538" d="M461 446 L375 446 L368 105 C334 73 294 57 248 57 C218.667 57 197.5 63.5 184.5 76.5 C171.5 89.5 165 110 165 138 L170 446 L84 446 L78 110 C77.3333 71.3333 89.6667 41.3333 115 20 C140.333 -1.33333 175.667 -12 221 -12 C281 -12 331 7.33333 371 46 L370 1 C330 -56.3333 310 -104 310 -142 C310 -166.667 318.333 -186.333 335 -201 C351.667 -215.667 374.667 -223 404 -223 C422 -223 437.667 -221 451 -217 L441 -162 L418 -164 C391.333 -164 378 -152.667 378 -130 C378 -115.333 384 -96.1666 396 -72.5 C408 -48.8333 424 -24.6667 444 0 L454 0 L461 446 Z " />
<glyph glyph-name="Wcircumflex" unicode="&#x174;" horiz-adv-x="880" d="M451 816 L511 723 L592 723 L497 855 L407 855 L309 723 L390 723 L451 816 Z M774 660 L656 91 L506 660 L395 660 L222 96 L121 660 L32 660 L153 0 L276 0 L448 559 L593 0 L715 0 L864 660 L774 660 Z " />
<glyph glyph-name="wcircumflex" unicode="&#x175;" horiz-adv-x="743" d="M386 613 L448 520 L530 520 L430 660 L344 660 L238 520 L321 520 L386 613 Z M641 446 L541 73 L435 446 L328 446 L195 72 L112 446 L26 446 L136 0 L244 0 L377 376 L485 0 L593 0 L726 446 L641 446 Z " />
<glyph glyph-name="Ycircumflex" unicode="&#x176;" horiz-adv-x="573" d="M295 816 L355 723 L436 723 L341 855 L251 855 L153 723 L234 723 L295 816 Z M472 660 L288 376 L120 660 L17 660 L238 296 L233 0 L326 0 L331 296 L573 660 L472 660 Z " />
<glyph glyph-name="ycircumflex" unicode="&#x177;" horiz-adv-x="432" d="M220 613 L282 520 L364 520 L264 660 L178 660 L72 520 L155 520 L220 613 Z M341 446 L235 169 C228.334 152.333 221.667 131.667 215 107 C209.667 129.667 203.667 150 197 168 L100 446 L10 446 L168 25 L138 -45 C123.333 -77.6667 106.167 -105.167 86.5 -127.5 C66.8333 -149.833 40.3333 -171.667 7 -193 L52 -259 C125.333 -218.333 180.667 -154 218 -66 L430 446 L341 446 Z " />
<glyph glyph-name="Ydieresis" unicode="&#x178;" horiz-adv-x="573" d="M203 720 C217.667 720 230.333 725.333 241 736 C251.667 746.667 257 759 257 773 C257 787.667 251.667 800.333 241 811 C230.333 821.667 217.667 827 203 827 C189 827 176.833 821.667 166.5 811 C156.167 800.336 151 787.67 151 773 C151 759 156.167 746.667 166.5 736 C176.833 725.333 189 720 203 720 L203 720 Z M380 720 C394.666 720 407.333 725.333 418 736 C428.667 746.667 434 759 434 773 C434 787.667 428.833 800.333 418.5 811 C408.167 821.667 395.334 827 380 827 C366 827 353.667 821.667 343 811 C332.333 800.336 327 787.67 327 773 C327 759 332.333 746.667 343 736 C353.667 725.333 366 720 380 720 L380 720 Z M472 660 L288 376 L120 660 L17 660 L238 296 L233 0 L326 0 L331 296 L573 660 L472 660 Z " />
<glyph glyph-name="Zacute" unicode="&#x179;" horiz-adv-x="573" d="M398 854 L317 854 L247 722 L319 722 L398 854 Z M538 607 L539 660 L41 660 L39 583 L419 583 L28 54 L27 0 L537 0 L538 77 L146 77 L538 607 Z " />
<glyph glyph-name="zacute" unicode="&#x17a;" horiz-adv-x="483" d="M357 660 L275 660 L200 521 L274 521 L357 660 Z M160 71 L422 393 L423 446 L59 446 L57 376 L310 376 L46 49 L44 0 L431 0 L432 71 L160 71 Z " />
<glyph glyph-name="Zdotaccent" unicode="&#x17b;" horiz-adv-x="573" d="M280 720 C294 720 306.5 725.333 317.5 736 C328.5 746.667 334 759 334 773 C334 787.667 328.667 800.333 318 811 C307.333 821.667 294.667 827 280 827 C266 827 253.667 821.667 243 811 C232.333 800.336 227 787.67 227 773 C227 759 232.333 746.667 243 736 C253.667 725.333 266 720 280 720 L280 720 Z M538 607 L539 660 L41 660 L39 583 L419 583 L28 54 L27 0 L537 0 L538 77 L146 77 L538 607 Z " />
<glyph glyph-name="zdotaccent" unicode="&#x17c;" horiz-adv-x="483" d="M244 537 C258 537 270.5 542.333 281.5 553 C292.5 563.667 298 576 298 590 C298 604.667 292.667 617.333 282 628 C271.333 638.667 258.667 644 244 644 C229.333 644 216.833 638.667 206.5 628 C196.167 617.338 191 604.671 191 590 C191 576 196.167 563.667 206.5 553 C216.833 542.333 229.333 537 244 537 L244 537 Z M160 71 L422 393 L423 446 L59 446 L57 376 L310 376 L46 49 L44 0 L431 0 L432 71 L160 71 Z " />
<glyph glyph-name="Zcaron" unicode="&#x17d;" horiz-adv-x="573" d="M328 706 L412 838 L339 838 L283 745 L236 838 L162 838 L232 706 L328 706 Z M538 607 L539 660 L41 660 L39 583 L419 583 L28 54 L27 0 L537 0 L538 77 L146 77 L538 607 Z " />
<glyph glyph-name="zcaron" unicode="&#x17e;" horiz-adv-x="483" d="M292 520 L382 660 L309 660 L247 559 L195 660 L121 660 L196 520 L292 520 Z M160 71 L422 393 L423 446 L59 446 L57 376 L310 376 L46 49 L44 0 L431 0 L432 71 L160 71 Z " />
<glyph glyph-name="florin" unicode="&#x192;" horiz-adv-x="468" d="M416 601 C431.333 601 450.667 598.667 474 594 L486 663 C464.667 668.333 439 671 409 671 C375.667 671 348 665.5 326 654.5 C304 643.5 286.5 629.833 273.5 613.5 C260.5 597.167 251 579.667 245 561 C239 542.333 235.333 524.333 234 507 L229 446 L144 446 L137 378 L222 378 L193 66 C189.667 35.3333 179.5 12.1667 162.5 -3.5 C145.5 -19.1667 122.667 -27 94 -27 C74 -27 54 -25 34 -21 L22 -90 C53.3333 -95.3333 80.3333 -98 103 -98 C153 -98 193 -83.1667 223 -53.5 C253 -23.8333 270.333 16 275 66 L303 378 L430 378 L436 446 L310 446 L315 507 C321 569.667 354.667 601 416 601 L416 601 Z " />
<glyph glyph-name="Scommaaccent" unicode="&#x218;" horiz-adv-x="462" d="M251 672 C219.667 672 191.667 667.333 167 658 C142.333 648.667 121.833 635.833 105.5 619.5 C89.1667 603.167 76.8334 584.5 68.5 563.5 C60.1667 542.5 56 520.333 56 497 C56 473.667 59.6667 453.5 67 436.5 C74.3333 419.5 83.5 403.833 94.5 389.5 C105.5 375.167 118.667 361.667 134 349 C149.333 336.333 176.333 315.333 215 286 C257.666 254 285.833 230.333 299.5 215 C313.167 199.667 320 181.333 320 160 C320 128 308 104.5 284 89.5 C260 74.5 229.667 67 193 67 C160.333 67 119.333 73.3333 70 86 L52 11 C106 -4.33333 155.333 -12 200 -12 C240.667 -12 276.5 -5.33333 307.5 8 C338.5 21.3333 363.333 42.3333 382 71 C400.667 99.6667 410 132.333 410 169 C410 183.667 407.5 199.167 402.5 215.5 C397.5 231.833 386.5 249.5 369.5 268.5 C352.5 287.5 315 318.333 257 361 C204.333 401 172.5 429.667 161.5 447 C150.5 464.333 145 481.667 145 499 C145 527.667 155.167 550.667 175.5 568 C195.833 585.333 223.667 594 259 594 C275 594 294.333 592 317 588 C339.667 584 360.333 579.333 379 574 L396 649 C376.667 655 353 660.333 325 665 C297 669.667 272.333 672 251 672 L251 672 Z M176 -75 L194 -158 L166 -244 L212 -244 L264 -160 C275.333 -142.667 280.333 -125.667 279 -109 C277.667 -92.3333 270.167 -80.1666 256.5 -72.5 C242.833 -64.8332 229 -61.8332 215 -63.5 C201 -65.1667 188 -69 176 -75 L176 -75 Z " />
<glyph glyph-name="scommaaccent" unicode="&#x219;" horiz-adv-x="375" d="M191 457 C145.667 457 110 446 84 424 C58 402 45 371.667 45 333 C45 315.667 47.6667 300.167 53 286.5 C58.3333 272.833 65.1667 261.5 73.5 252.5 C81.8333 243.5 91.5 235 102.5 227 C113.5 219 135 207.167 167 191.5 C199 175.833 219.667 162.333 229 151 C238.333 139.667 243 127.667 243 115 C243 98.3333 236.167 84.8333 222.5 74.5 C208.834 64.1667 190.667 59.0001 168 59 C138 59 100.667 67.6667 56 85 L36 18 C84 -0.666672 129 -10 171 -10 C218.333 -10 256 1.83333 284 25.5 C312 49.1667 326 81 326 121 C326 138.333 323.333 153.833 318 167.5 C312.667 181.167 304 194.167 292 206.5 C280 218.833 257 233.166 223 249.5 C189 265.833 167.333 277.333 158 284 C148.667 290.667 141.333 298.5 136 307.5 C130.667 316.5 128 326.667 128 338 C128 370.667 150 387 194 387 C223.333 387 258.667 380.333 300 367 L319 432 C265.667 448.667 223 457 191 457 L191 457 Z M130 -81 L149 -163 L120 -249 L166 -249 L218 -165 C229.333 -147.667 234.333 -130.667 233 -114 C231.667 -97.3333 224.167 -85.1666 210.5 -77.5 C196.833 -69.8333 183 -66.8333 169 -68.5 C155 -70.1667 142 -74.3333 130 -81 L130 -81 Z " />
<glyph glyph-name="uni021A" unicode="&#x21a;" horiz-adv-x="567" d="M17 660 L16 582 L246 582 L236 0 L325 0 L335 582 L565 582 L566 660 L17 660 Z M234 -81 L253 -163 L224 -249 L270 -249 L322 -165 C333.333 -147.667 338.333 -130.667 337 -114 C335.667 -97.3333 328.167 -85.3333 314.5 -78 C300.833 -70.6667 287 -67.6667 273 -69 C259 -70.3333 246 -74.3333 234 -81 L234 -81 Z " />
<glyph glyph-name="uni021B" unicode="&#x21b;" horiz-adv-x="336" d="M307 374 L309 446 L184 446 L186 584 L105 584 L102 446 L35 446 L33 374 L101 374 L96 82 C96 51.3333 105.833 28 125.5 12 C145.167 -4 174 -12 212 -12 C244.667 -12 276 -6.33333 306 5 L293 71 C271 64.3333 249.667 61 229 61 C211 60.9999 198 64.8333 190 72.5 C182 80.1667 178 93 178 111 L183 374 L307 374 Z M145 -81 L164 -163 L135 -249 L181 -249 L233 -165 C244.333 -147.667 249.333 -130.667 248 -114 C246.667 -97.3333 239.167 -85.1666 225.5 -77.5 C211.833 -69.8333 198 -66.8333 184 -68.5 C170 -70.1667 157 -74.3333 145 -81 L145 -81 Z " />
<glyph glyph-name="uni0237" unicode="&#x237;" horiz-adv-x="250" d="M171 446 L87 446 L78 -29 C77.3333 -57.6667 68.5 -85.6667 51.5 -113 C34.5 -140.333 7.33333 -170 -30 -202 L24 -265 C58 -237 85.6667 -209.5 107 -182.5 C128.333 -155.5 142.833 -129.5 150.5 -104.5 C158.167 -79.5 162.333 -56.6667 163 -36 L171 446 Z " />
<glyph glyph-name="circumflex" unicode="&#x2c6;" horiz-adv-x="308" d="M304 520 L205 660 L118 660 L13 520 L96 520 L160 613 L223 520 L304 520 Z " />
<glyph glyph-name="caron" unicode="&#x2c7;" horiz-adv-x="308" d="M221 660 L159 559 L108 660 L34 660 L109 520 L205 520 L294 660 L221 660 Z " />
<glyph glyph-name="breve" unicode="&#x2d8;" horiz-adv-x="322" d="M318 660 L249 660 C247 638.667 238.5 620.333 223.5 605 C208.5 589.667 190.333 582 169 582 C148.333 582 130.333 589.833 115 605.5 C99.6667 621.167 91.3334 639.333 90 660 L20 660 C22 621.333 37.3333 588.5 66 561.5 C94.6667 534.5 129 521 169 521 C209 521 243.333 534.5 272 561.5 C300.667 588.5 316 621.333 318 660 L318 660 Z " />
<glyph glyph-name="dotaccent" unicode="&#x2d9;" horiz-adv-x="132" d="M71 644 C56.3333 644 43.8333 638.667 33.5 628 C23.1667 617.338 18 604.671 18 590 C18 576 23.1667 563.667 33.5 553 C43.8333 542.333 56.3333 537 71 537 C85 537 97.5 542.333 108.5 553 C119.5 563.667 125 576 125 590 C125 604.667 119.667 617.333 109 628 C98.3333 638.667 85.6667 644 71 644 L71 644 Z " />
<glyph glyph-name="ring" unicode="&#x2da;" horiz-adv-x="186" d="M99 687 C71 687 48.6667 678.167 32 660.5 C15.3333 642.836 7 620.669 7 594 C7 576 11.6667 559.333 21 544 C30.3333 528.667 42.3333 518 57 512 C71.6667 506 85.6667 503 99 503 C112.333 503 126.167 506 140.5 512 C154.833 518 166.667 528.667 176 544 C185.333 559.333 190 576 190 594 C190 613.331 185.333 630.664 176 646 C166.667 661.333 154.833 672 140.5 678 C126.167 684 112.333 687 99 687 L99 687 Z M99 639 C111.667 639 122 634.833 130 626.5 C138 618.167 142 607.333 142 594 C142 581.333 138 571 130 563 C122 555 111.667 551 99 551 C85.6667 551 75.1667 555 67.5 563 C59.8333 571 56 581.333 56 594 C56 607.329 59.8333 618.162 67.5 626.5 C75.1667 634.833 85.6667 639 99 639 L99 639 Z " />
<glyph glyph-name="ogonek" unicode="&#x2db;" horiz-adv-x="185" d="M55 1 C15 -55 -5 -102.667 -5 -142 C-5 -166.667 3.33333 -186.333 20 -201 C36.6667 -215.667 59.6667 -223 89 -223 C107 -223 122.667 -221 136 -217 L126 -162 L103 -164 C76.3333 -164 63 -152.667 63 -130 C63 -115.333 69 -96.1666 81 -72.5 C93 -48.8333 109 -24.6667 129 0 L55 1 Z " />
<glyph glyph-name="tilde" unicode="&#x2dc;" horiz-adv-x="363" d="M316 640 C304.668 629.333 292.334 620.5 279 613.5 C265.667 606.5 254 603 244 603 C233.333 603 213.667 609.167 185 621.5 C156.333 633.833 134.667 640 120 640 C92 640 58 624 18 592 L58 542 C68.6666 551.333 80.3333 559 93 565 C105.667 571 116 574 124 574 C133.333 574 152.667 568 182 556 C211.333 544 233.333 538 248 538 C264 538 281.667 542.833 301 552.5 C320.333 562.167 338.667 575 356 591 L316 640 Z " />
<glyph glyph-name="hungarumlaut" unicode="&#x2dd;" horiz-adv-x="326" d="M171 660 L94 660 L20 521 L88 521 L171 660 Z M318 660 L241 660 L167 521 L235 521 L318 660 Z " />
<glyph glyph-name="gravecomb" unicode="&#x300;" d="M-68 660 L-149 660 L-79 521 L-6 521 L-68 660 Z " />
<glyph glyph-name="acutecomb" unicode="&#x301;" d="M-1 660 L-83 660 L-158 521 L-84 521 L-1 660 Z " />
<glyph glyph-name="uni0302" unicode="&#x302;" d="M-7 521 L-107 660 L-187 660 L-290 521 L-209 521 L-148 614 L-89 521 L-7 521 Z " />
<glyph glyph-name="tildecomb" unicode="&#x303;" d="M-46 640 C-57.3333 629.333 -69.8333 620.5 -83.5 613.5 C-97.1667 606.5 -109 603 -119 603 C-129.667 603 -149.333 609.167 -178 621.5 C-206.667 633.833 -228 640 -242 640 C-256.667 640 -273.333 635.333 -292 626 C-310.667 616.667 -328 605.333 -344 592 L-305 542 C-293.667 551.333 -281.833 559 -269.5 565 C-257.167 571 -246.667 574 -238 574 C-228.667 574 -209.5 568 -180.5 556 C-151.5 544 -129.667 538 -115 538 C-99 538 -81.3333 542.833 -62 552.5 C-42.6667 562.167 -24.3333 575 -7 591 L-46 640 Z " />
<glyph glyph-name="uni0304" unicode="&#x304;" d="M-64 622 L-333 622 L-334 552 L-65 552 L-64 622 Z " />
<glyph glyph-name="uni0306" unicode="&#x306;" d="M-4 660 L-74 660 C-75.3333 638.667 -83.5 620.333 -98.5 605 C-113.5 589.667 -131.667 582 -153 582 C-173.667 582 -191.667 589.833 -207 605.5 C-222.333 621.167 -231 639.333 -233 660 L-302 660 C-300.667 621.333 -285.5 588.5 -256.5 561.5 C-227.5 534.5 -193 521 -153 521 C-113.667 521 -79.5 534.5 -50.5 561.5 C-21.5 588.5 -6 621.333 -4 660 L-4 660 Z " />
<glyph glyph-name="uni0307" unicode="&#x307;" d="M-61 644 C-75 644 -87.1667 638.667 -97.5 628 C-107.833 617.338 -113 604.671 -113 590 C-113 576 -107.833 563.667 -97.5 553 C-87.1667 542.333 -75 537 -61 537 C-46.3333 537 -33.5 542.333 -22.5 553 C-11.5 563.667 -6 576 -6 590 C-6 604.667 -11.5 617.333 -22.5 628 C-33.5 638.667 -46.3333 644 -61 644 L-61 644 Z " />
<glyph glyph-name="uni0308" unicode="&#x308;" d="M-238 644 C-252 644 -264.167 638.667 -274.5 628 C-284.833 617.338 -290 604.671 -290 590 C-290 576 -284.833 563.833 -274.5 553.5 C-264.167 543.167 -252 538 -238 538 C-223.333 538 -210.5 543.167 -199.5 553.5 C-188.5 563.833 -183 576 -183 590 C-183 604.667 -188.5 617.333 -199.5 628 C-210.5 638.667 -223.333 644 -238 644 L-238 644 Z M-61 644 C-75 644 -87.1667 638.667 -97.5 628 C-107.833 617.338 -113 604.671 -113 590 C-113 576 -107.833 563.833 -97.5 553.5 C-87.1667 543.167 -75 538 -61 538 C-45.6667 538 -32.6667 543.167 -22 553.5 C-11.3333 563.833 -6 576 -6 590 C-6 604.667 -11.3333 617.333 -22 628 C-32.6667 638.667 -45.6667 644 -61 644 L-61 644 Z " />
<glyph glyph-name="uni030A" unicode="&#x30a;" d="M-86 687 C-100 687 -114.333 684 -129 678 C-143.667 672 -155.5 661.333 -164.5 646 C-173.5 630.667 -178 613.333 -178 594 C-178 582.667 -175.333 569.833 -170 555.5 C-164.667 541.167 -154.667 528.833 -140 518.5 C-125.333 508.167 -107.333 503 -86 503 C-72.6667 503 -58.8333 506 -44.5 512 C-30.1667 518 -18.3333 528.667 -9 544 C0.333328 559.333 5 576 5 594 C5 613.331 0.333328 630.664 -9 646 C-18.3333 661.333 -30.1667 672 -44.5 678 C-58.8333 684 -72.6667 687 -86 687 L-86 687 Z M-87 639 C-74.3333 639 -63.8333 634.833 -55.5 626.5 C-47.1667 618.167 -43 607.333 -43 594 C-43 581.333 -47.1667 571 -55.5 563 C-63.8333 555 -74.3333 551 -87 551 C-99.6667 551 -109.833 555 -117.5 563 C-125.167 571 -129 581.333 -129 594 C-129 607.329 -125.167 618.162 -117.5 626.5 C-109.833 634.833 -99.6666 639 -87 639 L-87 639 Z " />
<glyph glyph-name="uni030B" unicode="&#x30b;" d="M-155 660 L-232 660 L-306 521 L-238 521 L-155 660 Z M-9 660 L-85 660 L-159 521 L-92 521 L-9 660 Z " />
<glyph glyph-name="uni030C" unicode="&#x30c;" d="M-87 660 L-148 559 L-200 660 L-274 660 L-199 520 L-103 520 L-14 660 L-87 660 Z " />
<glyph glyph-name="uni0326" unicode="&#x326;" d="M-464 -51 L-446 -133 L-475 -219 L-429 -219 L-376 -135 C-365.333 -117.667 -360.5 -101.5 -361.5 -86.5 C-362.5 -71.5 -368.167 -59.8333 -378.5 -51.5 C-388.833 -43.1666 -401.833 -38.8333 -417.5 -38.5 C-433.167 -38.1667 -448.667 -42.3334 -464 -51 L-464 -51 Z " />
<glyph glyph-name="uni0327" unicode="&#x327;" d="M-80 13 L-145 13 C-149 2.33333 -151 -12 -151 -30 C-151 -40.6667 -149.333 -49.8334 -146 -57.5 C-142.667 -65.1667 -132 -75.6667 -114 -89 C-98.6667 -99.6667 -89.8333 -107.667 -87.5 -113 C-85.1667 -118.333 -84 -123.333 -84 -128 C-84 -150.667 -100 -162 -132 -162 C-146.667 -162 -159.333 -160.667 -170 -158 L-171 -218 C-160.333 -220 -147 -221 -131 -221 C-103.667 -221 -81.5 -216.167 -64.5 -206.5 C-47.5 -196.833 -35.5 -185.333 -28.5 -172 C-21.5 -158.667 -18 -144 -18 -128 C-18 -119.333 -19.3333 -110.333 -22 -101 C-24.6667 -91.6667 -29 -83.5 -35 -76.5 C-41 -69.5 -48.6667 -62.3333 -58 -55 C-68.6667 -47 -75.6667 -40.5 -79 -35.5 C-82.3333 -30.5 -84 -23.3333 -84 -14 C-84 -4.66667 -82.6667 4.33333 -80 13 L-80 13 Z " />
<glyph glyph-name="uni0328" unicode="&#x328;" d="M-130 1 C-170.667 -56.3333 -191 -104 -191 -142 C-191 -166.667 -182.5 -186.333 -165.5 -201 C-148.5 -215.667 -125.667 -223 -97 -223 C-78.3333 -223 -62.6667 -221 -50 -217 L-59 -162 L-83 -164 C-109 -164 -122 -152.667 -122 -130 C-122 -115.333 -116.167 -96.1666 -104.5 -72.5 C-92.8333 -48.8333 -77 -24.6667 -57 0 L-130 1 Z " />
<glyph glyph-name="Delta" unicode="&#x394;" horiz-adv-x="577" d="M341 660 L251 660 L2 0 L568 0 L341 660 Z M292 568 L457 74 L117 74 L292 568 Z " />
<glyph glyph-name="Omega" unicode="&#x3a9;" horiz-adv-x="762" d="M568 72 C610 96.6666 642.167 130.667 664.5 174 C686.833 217.333 698 271 698 335 C698 388.333 690.5 436.333 675.5 479 C660.5 521.667 639.333 557.167 612 585.5 C584.667 613.833 551.833 635.333 513.5 650 C475.167 664.667 433 672 387 672 C341 672 298.333 664.667 259 650 C219.667 635.335 185.667 613.668 157 585 C128.333 556.333 106 520.333 90 477 C74 433.667 66 384.667 66 330 C66 290 71 252.333 81 217 C91 181.667 106.167 152 126.5 128 C146.833 104 169.667 85.3333 195 72 L25 72 L24 0 L309 0 L310 74 C259.333 86.6667 219.667 115 191 159 C162.333 203 148 260.333 148 331 C148 375.667 154 415 166 449 C178 483 194.667 511 216 533 C237.333 555 262.5 571.333 291.5 582 C320.5 592.667 352 598 386 598 C428.667 598 464.833 590.5 494.5 575.5 C524.167 560.5 548.167 540.667 566.5 516 C584.832 491.333 597.666 462.833 605 430.5 C612.333 398.167 616 365.334 616 332 C616 284.667 609.667 243.5 597 208.5 C584.333 173.5 565.5 144.333 540.5 121 C515.5 97.6667 483.667 81.6667 445 73 L444 0 L730 0 L731 72 L568 72 Z " />
<glyph glyph-name="mu" unicode="&#x3bc;" horiz-adv-x="545" d="M388 446 L383 135 C383 109 375.333 89.1667 360 75.5 C344.667 61.8333 322.334 55 293 55 C239.667 55 195.333 75.3333 160 116 L165 446 L84 446 L72 -251 L153 -251 L158 36 C203.333 4 254.333 -12 311 -12 C358.333 -12 395.333 -1.5 422 19.5 C448.666 40.5 462.332 70.3333 463 109 L470 446 L388 446 Z " />
<glyph glyph-name="pi" unicode="&#x3c0;" horiz-adv-x="598" d="M573 446 L35 446 L33 372 L108 372 L103 0 L183 0 L189 372 L413 372 L408 0 L488 0 L494 372 L572 372 L573 446 Z " />
<glyph glyph-name="Wgrave" unicode="&#x1e80;" horiz-adv-x="880" d="M488 723 L430 855 L350 855 L417 723 L488 723 Z M774 660 L656 91 L506 660 L395 660 L222 96 L121 660 L32 660 L153 0 L276 0 L448 559 L593 0 L715 0 L864 660 L774 660 Z " />
<glyph glyph-name="wgrave" unicode="&#x1e81;" horiz-adv-x="743" d="M424 521 L362 660 L281 660 L351 521 L424 521 Z M641 446 L541 73 L435 446 L328 446 L195 72 L112 446 L26 446 L136 0 L244 0 L377 376 L485 0 L593 0 L726 446 L641 446 Z " />
<glyph glyph-name="Wacute" unicode="&#x1e82;" horiz-adv-x="880" d="M566 854 L485 854 L415 722 L487 722 L566 854 Z M774 660 L656 91 L506 660 L395 660 L222 96 L121 660 L32 660 L153 0 L276 0 L448 559 L593 0 L715 0 L864 660 L774 660 Z " />
<glyph glyph-name="wacute" unicode="&#x1e83;" horiz-adv-x="743" d="M498 660 L415 660 L341 521 L415 521 L498 660 Z M641 446 L541 73 L435 446 L328 446 L195 72 L112 446 L26 446 L136 0 L244 0 L377 376 L485 0 L593 0 L726 446 L641 446 Z " />
<glyph glyph-name="Wdieresis" unicode="&#x1e84;" horiz-adv-x="880" d="M359 720 C373.665 720 386.332 725.333 397 736 C407.667 746.667 413 759 413 773 C413 787.667 407.667 800.333 397 811 C386.333 821.667 373.667 827 359 827 C345 827 332.667 821.667 322 811 C311.333 800.336 306 787.67 306 773 C306 759 311.333 746.667 322 736 C332.667 725.333 345 720 359 720 L359 720 Z M536 720 C550.667 720 563.333 725.333 574 736 C584.667 746.667 590 759 590 773 C590 787.667 584.667 800.333 574 811 C563.338 821.667 550.671 827 536 827 C522 827 509.667 821.667 499 811 C488.333 800.336 483 787.67 483 773 C483 759 488.333 746.667 499 736 C509.667 725.333 522 720 536 720 L536 720 Z M774 660 L656 91 L506 660 L395 660 L222 96 L121 660 L32 660 L153 0 L276 0 L448 559 L593 0 L715 0 L864 660 L774 660 Z " />
<glyph glyph-name="wdieresis" unicode="&#x1e85;" horiz-adv-x="743" d="M296 538 C310 538 322.5 543.167 333.5 553.5 C344.5 563.833 350 576 350 590 C350 604.667 344.667 617.333 334 628 C323.333 638.667 310.667 644 296 644 C282 644 269.667 638.667 259 628 C248.333 617.338 243 604.671 243 590 C243 576 248.333 563.833 259 553.5 C269.667 543.167 282 538 296 538 L296 538 Z M473 538 C487.666 538 500.332 543.167 511 553.5 C521.667 563.833 527 576 527 590 C527 604.667 521.667 617.333 511 628 C500.333 638.667 487.667 644 473 644 C459 644 446.667 638.667 436 628 C425.333 617.338 420 604.671 420 590 C420 576 425.333 563.833 436 553.5 C446.667 543.167 459 538 473 538 L473 538 Z M641 446 L541 73 L435 446 L328 446 L195 72 L112 446 L26 446 L136 0 L244 0 L377 376 L485 0 L593 0 L726 446 L641 446 Z " />
<glyph glyph-name="Ygrave" unicode="&#x1ef2;" horiz-adv-x="573" d="M332 723 L274 855 L194 855 L261 723 L332 723 Z M472 660 L288 376 L120 660 L17 660 L238 296 L233 0 L326 0 L331 296 L573 660 L472 660 Z " />
<glyph glyph-name="ygrave" unicode="&#x1ef3;" horiz-adv-x="432" d="M258 521 L196 660 L116 660 L185 521 L258 521 Z M341 446 L235 169 C228.334 152.333 221.667 131.667 215 107 C209.667 129.667 203.667 150 197 168 L100 446 L10 446 L168 25 L138 -45 C123.333 -77.6667 106.167 -105.167 86.5 -127.5 C66.8333 -149.833 40.3333 -171.667 7 -193 L52 -259 C125.333 -218.333 180.667 -154 218 -66 L430 446 L341 446 Z " />
<glyph glyph-name="uni2009" unicode="&#x2009;" horiz-adv-x="50" d="" />
<glyph glyph-name="figuredash" unicode="&#x2012;" horiz-adv-x="585" d="M53 266 L51 195 L516 195 L517 266 L53 266 Z " />
<glyph glyph-name="endash" unicode="&#x2013;" horiz-adv-x="646" d="M92 266 L90 195 L555 195 L556 266 L92 266 Z " />
<glyph glyph-name="emdash" unicode="&#x2014;" horiz-adv-x="1112" d="M92 266 L91 195 L1020 195 L1021 266 L92 266 Z " />
<glyph glyph-name="quoteleft" unicode="&#x2018;" horiz-adv-x="245" d="M184 445 L163 545 L196 661 L141 661 L78 542 C67.3333 521.334 62.8333 502.334 64.5 485 C66.1667 467.667 73 454 85 444 C97 434 111.833 429 129.5 429 C147.167 429 165.333 434.333 184 445 L184 445 Z " />
<glyph glyph-name="quoteright" unicode="&#x2019;" horiz-adv-x="244" d="M75 652 L96 552 L63 436 L118 436 L181 554 C191.667 574.667 196.167 593.833 194.5 611.5 C192.833 629.167 186 642.833 174 652.5 C162 662.167 147.167 667.167 129.5 667.5 C111.833 667.844 93.6667 662.677 75 652 L75 652 Z " />
<glyph glyph-name="quotesinglbase" unicode="&#x201a;" horiz-adv-x="245" d="M65 102 L87 2 L53 -114 L108 -114 L171 5 C176.333 15 180.666 27.5 184 42.5 C187.333 57.5 185.5 71.8333 178.5 85.5 C171.5 99.1666 161.333 108.333 148 113 C134.667 117.667 121 119 107 117 C93 115 79 110 65 102 L65 102 Z " />
<glyph glyph-name="quotedblleft" unicode="&#x201c;" horiz-adv-x="406" d="M181 445 L160 545 L194 661 L139 661 L76 542 C70.6668 532 66.3335 519.5 63 504.5 C59.6667 489.5 61.5 475.167 68.5 461.5 C75.5 447.833 85.6667 438.667 99 434 C112.333 429.333 126 428 140 430 C154 432 167.667 437 181 445 L181 445 Z M345 445 L324 545 L357 661 L302 661 L239 542 C228.333 521.334 223.833 502.334 225.5 485 C227.167 467.667 234 454 246 444 C258 434 272.833 429 290.5 429 C308.166 429 326.333 434.333 345 445 L345 445 Z " />
<glyph glyph-name="quotedblright" unicode="&#x201d;" horiz-adv-x="408" d="M75 652 L96 552 L63 436 L118 436 L181 554 C191.667 574.667 196.167 593.833 194.5 611.5 C192.833 629.167 186 642.833 174 652.5 C162 662.167 147.167 667.167 129.5 667.5 C111.833 667.844 93.6667 662.677 75 652 L75 652 Z M239 652 L260 552 L226 436 L281 436 L344 554 C352 569.331 356.5 584.164 357.5 598.5 C358.5 612.829 356.333 625.162 351 635.5 C345.667 645.828 337.167 654.162 325.5 660.5 C313.833 666.833 299.833 669 283.5 667 C267.167 665 252.333 660 239 652 L239 652 Z " />
<glyph glyph-name="quotedblbase" unicode="&#x201e;" horiz-adv-x="409" d="M65 102 L87 2 L53 -114 L108 -114 L171 5 C176.333 15 180.666 27.5 184 42.5 C187.333 57.5 185.5 71.8333 178.5 85.5 C171.5 99.1666 161.333 108.333 148 113 C134.667 117.667 121 119 107 117 C93 115 79 110 65 102 L65 102 Z M230 102 L251 2 L218 -114 L273 -114 L336 5 C346.667 25.6667 351.167 44.6667 349.5 62 C347.833 79.3333 341 93 329 103 C317 113 302 118 284 118 C266 118 248 112.667 230 102 L230 102 Z " />
<glyph glyph-name="dagger" unicode="&#x2020;" horiz-adv-x="639" d="M570 446 L360 446 L364 660 L289 660 L285 446 L75 446 L74 374 L284 374 L272 -245 L348 -245 L359 374 L568 374 L570 446 Z " />
<glyph glyph-name="daggerdbl" unicode="&#x2021;" horiz-adv-x="642" d="M572 375 L573 446 L362 446 L366 660 L292 660 L289 446 L75 446 L74 375 L287 375 L282 43 L68 43 L67 -29 L280 -29 L277 -245 L350 -245 L354 -29 L565 -29 L566 43 L355 43 L361 375 L572 375 Z " />
<glyph glyph-name="bullet" unicode="&#x2022;" horiz-adv-x="498" d="M365 238 C365 252 361.167 268 353.5 286 C345.833 304 332.167 319.5 312.5 332.5 C292.833 345.5 271.667 352 249 352 C226.333 352 205.5 345.5 186.5 332.5 C167.5 319.5 154.167 304.167 146.5 286.5 C138.833 268.833 135 252.667 135 238 C135 215.333 141.5 194.333 154.5 175 C167.5 155.667 182.833 142.167 200.5 134.5 C218.167 126.833 234.333 123 249 123 C263.667 123 280.167 126.833 298.5 134.5 C316.833 142.167 332.5 155.667 345.5 175 C358.5 194.333 365 215.333 365 238 L365 238 Z " />
<glyph glyph-name="ellipsis" unicode="&#x2026;" horiz-adv-x="856" d="M207 51 C207 68.3333 201.167 83 189.5 95 C177.833 107 163.333 113 146 113 C129.333 113 115.167 107 103.5 95 C91.8333 83 86 68.3333 86 51 C86 34.3333 92 20 104 8 C116 -4 130 -10 146 -10 C163.333 -10 177.833 -4 189.5 8 C201.167 20 207 34.3333 207 51 L207 51 Z M485 51 C485 68.3333 479.167 83 467.5 95 C455.833 107 441.333 113 424 113 C407.333 113 393.167 107 381.5 95 C369.833 83 364 68.3333 364 51 C364 34.3333 370 20 382 8 C394 -4 408 -10 424 -10 C441.333 -10 455.833 -4 467.5 8 C479.167 20 485 34.3333 485 51 L485 51 Z M764 51 C764 68.3333 758.167 83 746.5 95 C734.833 107 720.333 113 703 113 C686.333 113 672 107 660 95 C648 83 642 68.3333 642 51 C642 34.3333 648 20 660 8 C672 -4 686.333 -10 703 -10 C720.333 -10 734.833 -4 746.5 8 C758.167 20 764 34.3333 764 51 L764 51 Z " />
</font>
</svg>
